<svg id="Layer_1" data-name="Layer 1" xmlns="http://www.w3.org/2000/svg" viewBox="0 0 900 600">
  <title>logo</title>
  <path id="EDQ" d="M149.46,415.66v6.24h-21.9v14.33h17.51v6H127.56V457h21.93l0,6.24H119.8V415.66Zm5,47.56V429.53h4.29a1.74,1.74,0,0,1,1.85,1.35l.5,3.14a19.56,19.56,0,0,1,2.23-2,14.74,14.74,0,0,1,2.49-1.58,13.72,13.72,0,0,1,2.82-1,14,14,0,0,1,3.26-.36,11.92,11.92,0,0,1,4.87.93,9.5,9.5,0,0,1,3.53,2.61,11.29,11.29,0,0,1,2.17,4,17.81,17.81,0,0,1,.72,5.2v21.44H176.1V441.78a8.05,8.05,0,0,0-1.57-5.28,5.86,5.86,0,0,0-4.78-1.88,9.18,9.18,0,0,0-4.41,1.09,14.92,14.92,0,0,0-3.81,3v24.54Zm45.91.53a8.53,8.53,0,0,1-6.45-2.36,9.25,9.25,0,0,1-2.27-6.66V435.11h-3.69a1.48,1.48,0,0,1-1-.38,1.46,1.46,0,0,1-.43-1.14v-2.87l5.45-.79,1.55-9.75a1.92,1.92,0,0,1,.57-.91,1.53,1.53,0,0,1,1.05-.34h3.64V430h9.34v5.12h-9.34v19.13a3.89,3.89,0,0,0,.89,2.77,3.09,3.09,0,0,0,2.38,1,4,4,0,0,0,1.42-.22,6.09,6.09,0,0,0,1-.46c.29-.16.53-.32.74-.46a1.14,1.14,0,0,1,.61-.22,1.08,1.08,0,0,1,1,.66l2.12,3.47A11.62,11.62,0,0,1,205,463,14,14,0,0,1,200.34,463.75ZM226,429a16,16,0,0,1,5.75,1,12.62,12.62,0,0,1,4.56,3,13.55,13.55,0,0,1,3,4.77,18.08,18.08,0,0,1,1.07,6.42,4.55,4.55,0,0,1-.36,2.21,1.44,1.44,0,0,1-1.32.57H217a16.89,16.89,0,0,0,.9,5,10.12,10.12,0,0,0,2,3.48,7.92,7.92,0,0,0,3,2.07,11,11,0,0,0,4,.67,12,12,0,0,0,3.6-.48,17.27,17.27,0,0,0,2.64-1c.75-.39,1.39-.74,1.92-1.06a2.85,2.85,0,0,1,1.45-.48,1.5,1.5,0,0,1,1.32.66l2,2.61a12.74,12.74,0,0,1-2.84,2.51,16.79,16.79,0,0,1-3.37,1.67,18.44,18.44,0,0,1-3.67.92,24.32,24.32,0,0,1-3.66.28,17.62,17.62,0,0,1-6.49-1.17,14.4,14.4,0,0,1-5.19-3.45,15.88,15.88,0,0,1-3.43-5.65,22.28,22.28,0,0,1-1.24-7.76,19.19,19.19,0,0,1,1.1-6.54,15.56,15.56,0,0,1,3.18-5.28,14.7,14.7,0,0,1,5-3.55A16.38,16.38,0,0,1,226,429Zm.14,5.15a8.19,8.19,0,0,0-6.08,2.22,10.7,10.7,0,0,0-2.81,6.21H234a10.18,10.18,0,0,0-.52-3.32,7.72,7.72,0,0,0-1.5-2.68,6.84,6.84,0,0,0-2.46-1.78A8.35,8.35,0,0,0,226.11,434.15Zm19.81,29.07V429.53h4.13a2.25,2.25,0,0,1,1.55.41,2.54,2.54,0,0,1,.6,1.44l.39,4.39a15.39,15.39,0,0,1,3.87-5,8.25,8.25,0,0,1,5.38-1.83,7.94,7.94,0,0,1,2.05.25,5.67,5.67,0,0,1,1.72.74l-.5,5.35a1.31,1.31,0,0,1-.41.78,1.22,1.22,0,0,1-.74.21,8,8,0,0,1-1.42-.18,10.25,10.25,0,0,0-2-.18,7.46,7.46,0,0,0-2.64.43,6.07,6.07,0,0,0-2,1.26,8.5,8.5,0,0,0-1.59,2,20.18,20.18,0,0,0-1.29,2.71v20.94Zm23.41,11.2V429.53h4.3a1.75,1.75,0,0,1,1.85,1.35l.56,3.54a20.7,20.7,0,0,1,2.24-2.25,14.68,14.68,0,0,1,2.56-1.75,13.33,13.33,0,0,1,6.3-1.52,11.49,11.49,0,0,1,5.15,1.14,11.12,11.12,0,0,1,4,3.32,15.94,15.94,0,0,1,2.56,5.4,27.1,27.1,0,0,1,.91,7.38,23.28,23.28,0,0,1-1,7,17,17,0,0,1-2.89,5.58,13.52,13.52,0,0,1-4.56,3.7,13.31,13.31,0,0,1-6,1.33,11.45,11.45,0,0,1-8.79-3.56v14.27Zm15.43-39.8a8.94,8.94,0,0,0-4.69,1.17,13.5,13.5,0,0,0-3.64,3.35v15.62a8.56,8.56,0,0,0,3.26,2.7,9.74,9.74,0,0,0,3.91.77,7.69,7.69,0,0,0,6.49-3q2.32-3,2.33-9.05a23.11,23.11,0,0,0-.53-5.3,10.2,10.2,0,0,0-1.52-3.58,5.82,5.82,0,0,0-2.41-2A8,8,0,0,0,284.76,434.62Zm20.79,28.6V429.53h4.13a2.25,2.25,0,0,1,1.55.41,2.54,2.54,0,0,1,.6,1.44l.39,4.39a15.39,15.39,0,0,1,3.87-5,8.25,8.25,0,0,1,5.38-1.83,7.94,7.94,0,0,1,2,.25,5.67,5.67,0,0,1,1.72.74l-.5,5.35a1.31,1.31,0,0,1-.41.78,1.22,1.22,0,0,1-.74.21,8,8,0,0,1-1.42-.18,10.25,10.25,0,0,0-1.95-.18,7.52,7.52,0,0,0-2.65.43,6.13,6.13,0,0,0-2,1.26,8.5,8.5,0,0,0-1.59,2,20.18,20.18,0,0,0-1.29,2.71v20.94Zm31.81-43.86a4.29,4.29,0,0,1-.38,1.81,4.68,4.68,0,0,1-1,1.51,5,5,0,0,1-1.53,1,4.74,4.74,0,0,1-1.87.38,4.37,4.37,0,0,1-1.8-.38,4.73,4.73,0,0,1-1.47-1,5.12,5.12,0,0,1-1-1.51,4.44,4.44,0,0,1-.37-1.81,4.56,4.56,0,0,1,.37-1.85,5.12,5.12,0,0,1,1-1.51,4.9,4.9,0,0,1,1.47-1,4.37,4.37,0,0,1,1.8-.38,4.74,4.74,0,0,1,1.87.38,5.18,5.18,0,0,1,1.53,1,4.68,4.68,0,0,1,1,1.51A4.41,4.41,0,0,1,337.36,419.36Zm-1.18,10.17v33.69h-7.11V429.53Zm27.58,6.11a1.76,1.76,0,0,1-.59.66,1.62,1.62,0,0,1-.83.2,2.68,2.68,0,0,1-1.22-.35c-.44-.23-1-.49-1.55-.77a13.27,13.27,0,0,0-2.1-.78,10.35,10.35,0,0,0-2.82-.35,8.5,8.5,0,0,0-2.4.32,5.33,5.33,0,0,0-1.82.89,4.18,4.18,0,0,0-1.14,1.35,3.69,3.69,0,0,0-.39,1.67,2.84,2.84,0,0,0,.72,2,6.3,6.3,0,0,0,1.92,1.37,18.29,18.29,0,0,0,2.71,1c1,.31,2.05.64,3.1,1a30.92,30.92,0,0,1,3.11,1.23,11.84,11.84,0,0,1,2.71,1.7,7.34,7.34,0,0,1,2.64,5.93,11.13,11.13,0,0,1-.86,4.39,9.86,9.86,0,0,1-2.51,3.5,11.53,11.53,0,0,1-4.11,2.31,17.69,17.69,0,0,1-5.63.83,17.88,17.88,0,0,1-3.39-.32,18.82,18.82,0,0,1-3.1-.86,16.17,16.17,0,0,1-2.75-1.3,15.31,15.31,0,0,1-2.26-1.65l1.65-2.71a2.34,2.34,0,0,1,.75-.78,2.06,2.06,0,0,1,1.1-.28,2.43,2.43,0,0,1,1.37.45c.45.3,1,.62,1.59,1a12,12,0,0,0,2.2,1,9.77,9.77,0,0,0,3.2.44,8.59,8.59,0,0,0,2.74-.38,5.51,5.51,0,0,0,1.92-1,4.22,4.22,0,0,0,1.12-1.5,4.52,4.52,0,0,0,.36-1.8,3.09,3.09,0,0,0-.72-2.11,6.1,6.1,0,0,0-1.94-1.42,17.23,17.23,0,0,0-2.74-1.06q-1.53-.47-3.12-1a32,32,0,0,1-3.12-1.22,10.83,10.83,0,0,1-2.74-1.77,8,8,0,0,1-1.93-2.61,8.62,8.62,0,0,1-.73-3.75,9.3,9.3,0,0,1,.81-3.83,9.21,9.21,0,0,1,2.38-3.2,11.41,11.41,0,0,1,3.86-2.2,15.91,15.91,0,0,1,5.3-.81,16.71,16.71,0,0,1,6.18,1.09,13.6,13.6,0,0,1,4.66,3ZM385.31,429a16,16,0,0,1,5.75,1,12.62,12.62,0,0,1,4.56,3,13.55,13.55,0,0,1,3,4.77,18.08,18.08,0,0,1,1.07,6.42,4.55,4.55,0,0,1-.36,2.21,1.44,1.44,0,0,1-1.32.57H376.36a16.89,16.89,0,0,0,.9,5,10.12,10.12,0,0,0,2,3.48,7.88,7.88,0,0,0,3,2.07,10.93,10.93,0,0,0,3.94.67,12,12,0,0,0,3.6-.48,17.41,17.41,0,0,0,2.65-1c.74-.39,1.38-.74,1.91-1.06a2.85,2.85,0,0,1,1.45-.48,1.52,1.52,0,0,1,1.33.66l2,2.61a12.74,12.74,0,0,1-2.84,2.51,16.79,16.79,0,0,1-3.37,1.67,18.44,18.44,0,0,1-3.67.92,24.32,24.32,0,0,1-3.66.28,17.62,17.62,0,0,1-6.49-1.17,14.4,14.4,0,0,1-5.19-3.45,15.88,15.88,0,0,1-3.43-5.65,22.28,22.28,0,0,1-1.24-7.76,19,19,0,0,1,1.11-6.54,15.38,15.38,0,0,1,3.17-5.28,14.8,14.8,0,0,1,5-3.55A16.38,16.38,0,0,1,385.31,429Zm.14,5.15a8.19,8.19,0,0,0-6.08,2.22,10.7,10.7,0,0,0-2.81,6.21h16.75a10.45,10.45,0,0,0-.51-3.32,7.91,7.91,0,0,0-1.51-2.68,6.84,6.84,0,0,0-2.46-1.78A8.35,8.35,0,0,0,385.45,434.15Zm80.35,5.29a26.35,26.35,0,0,1-1.71,9.66,21.83,21.83,0,0,1-4.84,7.51,21.48,21.48,0,0,1-7.5,4.87,26.13,26.13,0,0,1-9.73,1.74h-18V415.66h18a26.33,26.33,0,0,1,9.73,1.73,21.3,21.3,0,0,1,12.34,12.39A26.31,26.31,0,0,1,465.8,439.44Zm-7.89,0a22.87,22.87,0,0,0-1.11-7.37,15,15,0,0,0-3.17-5.51,13.67,13.67,0,0,0-5-3.45A17.15,17.15,0,0,0,442,421.9h-10.2V457H442a17.53,17.53,0,0,0,6.61-1.19,13.67,13.67,0,0,0,5-3.45,15.29,15.29,0,0,0,3.17-5.52A22.8,22.8,0,0,0,457.91,439.44Zm35.19,23.78a3.19,3.19,0,0,1-1.55-.31,2.38,2.38,0,0,1-.89-1.28l-.7-2.74a26.46,26.46,0,0,1-2.54,2.08,16.68,16.68,0,0,1-2.59,1.52,12.79,12.79,0,0,1-2.88.94,16.8,16.8,0,0,1-3.38.32,12.69,12.69,0,0,1-3.82-.56,8.36,8.36,0,0,1-3.05-1.71,8,8,0,0,1-2-2.82,9.82,9.82,0,0,1-.74-4,7.69,7.69,0,0,1,1-3.8,9.57,9.57,0,0,1,3.44-3.32,22.23,22.23,0,0,1,6.31-2.43,45.87,45.87,0,0,1,9.66-1.09v-2.24c0-2.43-.52-4.23-1.56-5.42a5.69,5.69,0,0,0-4.55-1.78,10.06,10.06,0,0,0-3.44.51,16.09,16.09,0,0,0-2.41,1.1c-.68.4-1.29.77-1.82,1.11a3,3,0,0,1-1.68.51,2,2,0,0,1-1.24-.38,3,3,0,0,1-.84-.94l-1.29-2.31a19.28,19.28,0,0,1,13.61-5.32,13.5,13.5,0,0,1,5.17.94,10.56,10.56,0,0,1,3.8,2.66,11.9,11.9,0,0,1,2.34,4.08,16.09,16.09,0,0,1,.81,5.24v21.4Zm-12.39-4.43a10.19,10.19,0,0,0,4.78-1,15.27,15.27,0,0,0,3.88-3v-6.27a49.51,49.51,0,0,0-6.41.63,16.71,16.71,0,0,0-4.23,1.22,5.76,5.76,0,0,0-2.33,1.76,3.84,3.84,0,0,0-.71,2.23,5,5,0,0,0,.38,2,3.75,3.75,0,0,0,1.06,1.38,4.29,4.29,0,0,0,1.58.8A7.89,7.89,0,0,0,480.71,458.79Zm32.66,5a8.54,8.54,0,0,1-6.46-2.36,9.25,9.25,0,0,1-2.26-6.66V435.11H501a1.48,1.48,0,0,1-1-.38,1.46,1.46,0,0,1-.43-1.14v-2.87l5.45-.79,1.56-9.75a1.83,1.83,0,0,1,.56-.91,1.53,1.53,0,0,1,1.05-.34h3.64V430h9.34v5.12h-9.34v19.13a3.89,3.89,0,0,0,.89,2.77,3.09,3.09,0,0,0,2.38,1,4,4,0,0,0,1.42-.22,6.09,6.09,0,0,0,1-.46c.29-.16.53-.32.74-.46a1.14,1.14,0,0,1,.61-.22,1.08,1.08,0,0,1,1,.66l2.12,3.47A11.62,11.62,0,0,1,518,463,14,14,0,0,1,513.37,463.75Zm34.74-.53a3.19,3.19,0,0,1-1.55-.31,2.43,2.43,0,0,1-.89-1.28l-.7-2.74a25.29,25.29,0,0,1-2.54,2.08,16.68,16.68,0,0,1-2.59,1.52,12.63,12.63,0,0,1-2.88.94,16.8,16.8,0,0,1-3.38.32,12.69,12.69,0,0,1-3.82-.56,8.44,8.44,0,0,1-3-1.71,7.89,7.89,0,0,1-2-2.82,9.65,9.65,0,0,1-.75-4,7.69,7.69,0,0,1,1-3.8,9.57,9.57,0,0,1,3.44-3.32,22.23,22.23,0,0,1,6.31-2.43,45.87,45.87,0,0,1,9.66-1.09v-2.24c0-2.43-.52-4.23-1.55-5.42a5.73,5.73,0,0,0-4.56-1.78,10.06,10.06,0,0,0-3.44.51,16.09,16.09,0,0,0-2.41,1.1c-.68.4-1.29.77-1.81,1.11a3.07,3.07,0,0,1-1.69.51,2,2,0,0,1-1.24-.38,3,3,0,0,1-.84-.94l-1.29-2.31a19.28,19.28,0,0,1,13.61-5.32,13.5,13.5,0,0,1,5.17.94,10.48,10.48,0,0,1,3.8,2.66,11.9,11.9,0,0,1,2.34,4.08,16.09,16.09,0,0,1,.81,5.24v21.4Zm-12.38-4.43a10.14,10.14,0,0,0,4.77-1,15.27,15.27,0,0,0,3.88-3v-6.27a49.7,49.7,0,0,0-6.41.63,16.71,16.71,0,0,0-4.23,1.22,5.76,5.76,0,0,0-2.33,1.76,3.84,3.84,0,0,0-.71,2.23,5,5,0,0,0,.38,2,3.75,3.75,0,0,0,1.06,1.38,4.26,4.26,0,0,0,1.59.8A7.78,7.78,0,0,0,535.73,458.79Zm86.33-19.35a28.44,28.44,0,0,1-.66,6.22,24.83,24.83,0,0,1-1.92,5.54,21.81,21.81,0,0,1-3.07,4.69,21.11,21.11,0,0,1-4.13,3.7l12.13,13.14h-6.35a7.74,7.74,0,0,1-2.51-.38,5.06,5.06,0,0,1-2-1.37l-7.63-8.36a24.84,24.84,0,0,1-3.68.81,26.71,26.71,0,0,1-4,.28,25,25,0,0,1-9.69-1.81,21.9,21.9,0,0,1-12.37-12.72,28.47,28.47,0,0,1,0-19.49,22.53,22.53,0,0,1,4.85-7.69,22.09,22.09,0,0,1,7.52-5.05A26.81,26.81,0,0,1,608,417,22,22,0,0,1,615.5,422a22.5,22.5,0,0,1,4.84,7.69A26.86,26.86,0,0,1,622.06,439.44Zm-7.89,0a22.87,22.87,0,0,0-1.11-7.37,15.57,15.57,0,0,0-3.17-5.55,13.87,13.87,0,0,0-5-3.5,18.41,18.41,0,0,0-13.18,0,14,14,0,0,0-5,3.5,15.65,15.65,0,0,0-3.21,5.55,24.91,24.91,0,0,0,0,14.77,15.47,15.47,0,0,0,3.21,5.53,13.88,13.88,0,0,0,5,3.47,18.69,18.69,0,0,0,13.18,0,13.8,13.8,0,0,0,5-3.47,15.4,15.4,0,0,0,3.17-5.53A23,23,0,0,0,614.17,439.44Zm20.75-9.91V451a8,8,0,0,0,1.57,5.29,5.85,5.85,0,0,0,4.77,1.88,9.18,9.18,0,0,0,4.38-1.07,14.87,14.87,0,0,0,3.81-3V429.53h7.1v33.69h-4.29a1.73,1.73,0,0,1-1.82-1.35l-.52-3.14a19.19,19.19,0,0,1-4.74,3.63,12.54,12.54,0,0,1-6,1.39,12.05,12.05,0,0,1-4.89-.93,9.57,9.57,0,0,1-3.55-2.61,11.12,11.12,0,0,1-2.16-4,17.5,17.5,0,0,1-.73-5.21V429.53Zm51,33.69a3.19,3.19,0,0,1-1.55-.31,2.43,2.43,0,0,1-.89-1.28l-.69-2.74A25.36,25.36,0,0,1,680.2,461a16.23,16.23,0,0,1-2.59,1.52,12.71,12.71,0,0,1-2.87.94,17,17,0,0,1-3.39.32,12.62,12.62,0,0,1-3.81-.56,8.48,8.48,0,0,1-3.06-1.71,8,8,0,0,1-2-2.82,9.65,9.65,0,0,1-.74-4,7.59,7.59,0,0,1,1-3.8,9.53,9.53,0,0,1,3.43-3.32,22.35,22.35,0,0,1,6.31-2.43,45.87,45.87,0,0,1,9.66-1.09v-2.24c0-2.43-.52-4.23-1.55-5.42a5.73,5.73,0,0,0-4.56-1.78,10,10,0,0,0-3.43.51,15.64,15.64,0,0,0-2.41,1.1c-.69.4-1.29.77-1.82,1.11a3.07,3.07,0,0,1-1.69.51,2,2,0,0,1-1.23-.38,3,3,0,0,1-.85-.94l-1.28-2.31a19.24,19.24,0,0,1,13.6-5.32,13.5,13.5,0,0,1,5.17.94,10.39,10.39,0,0,1,3.8,2.66,11.93,11.93,0,0,1,2.35,4.08,16.1,16.1,0,0,1,.8,5.24v21.4Zm-12.38-4.43a10.12,10.12,0,0,0,4.77-1,15.1,15.1,0,0,0,3.88-3v-6.27a49.7,49.7,0,0,0-6.41.63,16.62,16.62,0,0,0-4.22,1.22,5.69,5.69,0,0,0-2.33,1.76,3.77,3.77,0,0,0-.71,2.23,4.86,4.86,0,0,0,.38,2,3.63,3.63,0,0,0,1,1.38,4.34,4.34,0,0,0,1.59.8A7.78,7.78,0,0,0,673.5,458.79Zm29.93-44.45v48.88h-7.1V414.34Zm15.92,5a4.29,4.29,0,0,1-.38,1.81,4.68,4.68,0,0,1-1,1.51,5,5,0,0,1-1.53,1,4.74,4.74,0,0,1-1.87.38,4.37,4.37,0,0,1-1.8-.38,4.73,4.73,0,0,1-1.47-1,5.12,5.12,0,0,1-1-1.51,4.45,4.45,0,0,1-.38-1.81,4.57,4.57,0,0,1,.38-1.85,5.12,5.12,0,0,1,1-1.51,4.9,4.9,0,0,1,1.47-1,4.37,4.37,0,0,1,1.8-.38,4.74,4.74,0,0,1,1.87.38,5.18,5.18,0,0,1,1.53,1,4.68,4.68,0,0,1,1,1.51A4.41,4.41,0,0,1,719.35,419.36Zm-1.19,10.17v33.69h-7.1V429.53Zm18.12,34.22a8.54,8.54,0,0,1-6.46-2.36,9.25,9.25,0,0,1-2.26-6.66V435.11h-3.7a1.48,1.48,0,0,1-1-.38,1.45,1.45,0,0,1-.42-1.14v-2.87l5.45-.79,1.55-9.75a2,2,0,0,1,.56-.91,1.55,1.55,0,0,1,1.06-.34h3.63V430H744v5.12h-9.35v19.13a3.94,3.94,0,0,0,.89,2.77,3.09,3.09,0,0,0,2.38,1,4,4,0,0,0,1.42-.22,5.43,5.43,0,0,0,1-.46c.29-.16.54-.32.75-.46a1.09,1.09,0,0,1,.61-.22,1.1,1.1,0,0,1,1,.66l2.11,3.47a11.52,11.52,0,0,1-3.9,2.23A14,14,0,0,1,736.28,463.75Zm25.36,9.05a3.73,3.73,0,0,1-.88,1.19,2.43,2.43,0,0,1-1.57.43h-5.25l6.21-13.48-13.74-31.41h6.18a2.07,2.07,0,0,1,1.37.41,2.63,2.63,0,0,1,.71,1l8,19.12a29.53,29.53,0,0,1,1,3.3c.18-.57.36-1.13.55-1.68s.39-1.1.61-1.65l7.7-19.09a2.13,2.13,0,0,1,.77-1,2,2,0,0,1,1.21-.4h5.68Z" fill="#065baa"/>
  <path id="Runner" d="M297.41,252.09c10.5-3.62,20.65-12.92,20.65-29.92,0-19.85-13.42-31.71-35.9-31.71H248a4,4,0,0,0-4,4v96.29a4,4,0,0,0,4,4h7.49a4,4,0,0,0,4-4v-36H281l24.72,38.16a4,4,0,0,0,3.36,1.82h8.68a4,4,0,0,0,3.36-6.19Zm-37.9-12.35V205.51h22.21c18.69,0,20.85,9.77,20.85,17.11s-2.16,17.12-20.85,17.12Zm130.58-21.61v42.53c0,22-12.81,35.15-34.25,35.15-21.77,0-34.26-12.81-34.26-35.15V218.13a4,4,0,0,1,4-4h7.49a4,4,0,0,1,4,4v43c0,13.8,5.78,19.95,18.76,19.95,12.79,0,18.75-6.33,18.75-19.95v-43a4,4,0,0,1,4-4h7.48A4,4,0,0,1,390.09,218.13Zm74,25.3v47.33a4,4,0,0,1-4,4h-7.48a4,4,0,0,1-4-4V243.43c0-7.87-2.11-15.16-17.41-15.16a58.06,58.06,0,0,0-19.06,3.43v59.06a4,4,0,0,1-4,4h-7.34a4,4,0,0,1-4-4V224.57a4,4,0,0,1,2.13-3.54,74.52,74.52,0,0,1,33-8.25C452.34,212.78,464.05,224,464.05,243.43Zm74.13,0v47.33a4,4,0,0,1-4,4h-7.49a4,4,0,0,1-4-4V243.43c0-7.87-2.11-15.16-17.42-15.16a58.05,58.05,0,0,0-19,3.43v59.06a4,4,0,0,1-4,4h-7.34a4,4,0,0,1-4-4V224.57A4,4,0,0,1,473,221a74.52,74.52,0,0,1,33-8.25C526.46,212.78,538.18,224,538.18,243.43Zm40.31-30.5c-26.8,0-36.34,22.18-36.34,42.93,0,34.76,24.08,39.95,38.44,39.95,9.51,0,19.22-1.88,25.95-5a4,4,0,0,0,2.31-3.63v-7.63a4,4,0,0,0-5.93-3.51c-5.23,2.88-13.35,4.59-21.73,4.59-17.66,0-21.07-9.16-22.1-16.05a3.43,3.43,0,0,0-.26-.95q-.18-.44-.33-.9h51.14a4,4,0,0,0,4-3.65,32.3,32.3,0,0,0,.16-4.25C613.79,234.57,604.52,212.93,578.49,212.93Zm-20.38,35.19C559.71,234.57,566.26,228,578,228c15.35,0,19,12.94,19.87,20.15ZM659,216.93v7.19a4,4,0,0,1-3.89,4,98.57,98.57,0,0,0-22.91,3.53v59.11a4,4,0,0,1-4,4h-7.34a4,4,0,0,1-4-4V223.82a4,4,0,0,1,2.42-3.68A97.17,97.17,0,0,1,655,212.93a4.3,4.3,0,0,1,2.85,1.16A4,4,0,0,1,659,216.93Zm3.29,69.68h-2.78v-1.95h7.9v1.95h-2.81v8.33H662.3Zm15.16,8.33h2.25l-.55-10.28h-3L675,288.08c-.35,1.14-.7,2.5-1,3.69H674c-.22-1.21-.53-2.49-.87-3.68l-1-3.43H669l-.66,10.28h2.15l.2-3.91c.06-1.28.12-2.86.16-4.25h0c.26,1.34.6,2.81.94,4l1.09,4h1.82l1.25-4c.39-1.2.82-2.67,1.16-4h0c0,1.5,0,3,.09,4.22Z" fill="#065baa"/>
  <path id="Blue_Swoosh" data-name="Blue Swoosh" d="M718.7,332.87s116-194.48-354.88-206.26c0,0,151.68-15.44,297.5,24.85C805.15,191.19,839,275.17,718.7,332.87" fill="#065baa"/>
  <path id="RED_Swoosh" data-name="RED Swoosh" d="M181.3,172.1S65.3,366.57,536.18,378.36c0,0-151.68,15.44-297.5-24.85C94.85,313.77,61,229.79,181.3,172.1" fill="#e31e30"/>
</svg>
