<?xml version="1.0" encoding="utf-8"?>
<!-- Generator: Adobe Illustrator 23.0.3, SVG Export Plug-In . SVG Version: 6.00 Build 0)  -->
<svg version="1.1" id="Layer_1" xmlns="http://www.w3.org/2000/svg" xmlns:xlink="http://www.w3.org/1999/xlink" x="0px" y="0px"
	 viewBox="0 0 900 600" style="enable-background:new 0 0 900 600;" xml:space="preserve">
<style type="text/css">
	.st0{fill:#5B29B2;}
	.st1{fill:#F15A24;}
	.st2{fill:#FFF200;}
	.st3{fill:#3D5567;}
	.st4{fill:#FFFFFF;}
	.st5{fill:#96CA4F;}
	.st6{fill:#045278;}
	.st7{fill:#B4DB19;}
	.st8{fill:#B5DB17;}
	.st9{fill:#0071CE;}
	.st10{fill:#ED1C24;}
	.st11{fill:#EF463B;}
	.st12{fill:#006FBA;}
	.st13{fill:none;stroke:#2164FF;stroke-width:7;stroke-linecap:round;stroke-linejoin:round;stroke-miterlimit:10;}
	.st14{fill:none;stroke:#21DE5A;stroke-width:4;stroke-linecap:round;stroke-linejoin:round;stroke-miterlimit:10;}
	.st15{fill:none;stroke:#2164FF;stroke-width:3;stroke-linecap:round;stroke-linejoin:round;stroke-miterlimit:10;}
	.st16{fill:#21DE5A;}
	.st17{fill:#2164FF;}
	.st18{fill:#0087CD;}
	.st19{fill:none;stroke:#77787B;stroke-width:0.1013;stroke-miterlimit:10;}
	.st20{fill:none;}
	.st21{fill:#39404F;}
	.st22{fill:#0088CE;}
	.st23{fill:#F37920;}
	.st24{fill:#065BAA;}
	.st25{fill:#E31E30;}
	.st26{fill:#2200CC;}
	.st27{fill:#22B573;}
	.st28{fill:#B3B3B3;}
	.st29{fill:#10E1BB;}
	.st30{fill:#495965;}
	.st31{fill:#72808A;}
	.st32{fill-rule:evenodd;clip-rule:evenodd;fill:#7ECDC3;}
	.st33{fill-rule:evenodd;clip-rule:evenodd;fill:#47BFAF;}
</style>
<g>
	<path class="st30" d="M150,100.1c0,0,18.4-0.1,27.6-0.1c16.7,0,29.7,5.5,29.5,24c-0.1,8.6-4.1,18.3-10.6,21.9c0,0.2,0,0.4,0,0.6
		c8.1,1.8,14.4,8.4,14.3,21.2c-0.1,19.5-13.8,30.3-31.2,34.6l-29.6,5.7C150,171.8,150,136.4,150,100.1z M176.6,141.3
		c8.9-0.8,12.7-5.7,12.7-13c0-7.8-4-10.6-12.5-10.3c-2.9,0.1-5.8,0.2-8.6,0.4c0,7.9,0,15.8-0.1,23.6
		C170.9,141.8,173.8,141.5,176.6,141.3z M178.2,184.7c9.8-1.8,14.9-6.9,14.9-16c0-8.7-4.9-11.6-14.8-10.4c-3.4,0.4-6.8,0.9-10.2,1.3
		c0,9,0,18-0.1,27C171.4,185.9,174.8,185.3,178.2,184.7z"/>
	<path class="st30" d="M231.4,146.4c0.2-29.8,15.2-46.7,37-46.4c21.8,0.2,36.5,15.4,36.2,41.3c-0.2,26.1-15.3,43.4-37,46.7
		C245.8,191.3,231.1,176.2,231.4,146.4z M285.9,142.4c0.2-16.4-6.7-26.1-17.7-25.9c-11,0.2-18,10.9-18.2,28.4
		c-0.2,17.6,6.7,27.9,17.7,26.5C278.7,170.2,285.7,159,285.9,142.4z"/>
	<path class="st30" d="M324.2,168.1c12.1-18.5,24.1-35.2,36.1-52.3c-10.8,0.1-23.5,0.3-34.3,0.5c0-4.9,0.1-11.3,0.1-16.3h56.7
		c0,3.4,0,8.1-0.1,11.5c-12,16.8-24,32.9-36,50.8c12-0.7,24.1-1.3,36.1-1.8c0,4.7-0.1,10.4-0.1,15.1c-19.6,0.9-39.1,2.3-58.7,4.1
		C324.2,176.2,324.2,171.7,324.2,168.1z"/>
	<path class="st30" d="M412.9,100h50.5c0,4.6,0,10.6,0,15.2c-10.8,0-21.6,0-32.3,0c0,4.9,0,9.8,0,14.7c9.2,0,18.4-0.1,27.5,0
		c0,4.6,0,9.2,0,13.8c-9.2,0-18.4,0-27.6,0c0,5.6,0,11.2,0,16.8c11.2-0.1,22.5-0.1,33.7,0c0,4.6,0,9.3,0,13.9
		c-17.4-0.2-34.7-0.1-52.1,0.3C412.8,150.2,412.8,124.4,412.9,100z"/>
	<path class="st30" d="M490.6,100h19.9c4.4,11,8.8,23.5,13.2,34.8c1.6,4.4,3.2,9.3,4.8,14c0.2,0,0.3,0,0.5,0
		c1.6-4.6,2.9-9.4,4.5-13.8c4.2-11.1,8.3-23.7,12.5-35.1h19.8c0.2,26.1,0.5,53.7,0.7,79.8c-5.5-0.5-11.1-1-16.6-1.4
		c-0.1-9.4-0.2-18.8-0.2-28.2c-0.1-7.5,1.3-18.7,2.1-26.1c-0.2,0-0.3,0-0.5,0c-2.1,6.1-4.3,12.1-6.4,18c-3.8,9.6-7.5,19.1-11.3,28.5
		c-3.4-0.2-6.7-0.4-10.1-0.6c-3.9-9.8-7.8-19.4-11.7-29c-2.2-6-4.4-11.9-6.5-17.8c-0.2,0-0.3,0-0.5,0c0.9,7.2,2.5,18,2.5,25.3
		c0,9.1,0.1,18.2,0.1,27.2c-5.5-0.3-11-0.5-16.4-0.7C490.8,150.4,490.7,124.5,490.6,100z"/>
	<path class="st30" d="M616.2,100h21.9c8.7,28.8,17.3,60.4,25.9,91.8c-6.4-1.1-12.8-2.1-19.2-3c-1.7-7.2-3.4-14.3-5.1-21.3
		c-8.2-0.9-16.4-1.8-24.6-2.6c-1.6,6.4-3.2,12.8-4.8,19.1c-6.2-0.8-12.4-1.5-18.6-2.2C599.9,156,608,127.8,616.2,100z M618.6,150.5
		c5.7,0.4,11.5,0.9,17.2,1.4c-0.6-2.7-1.3-5.4-1.9-8c-2.3-8.7-4.6-18.9-6.8-27.8c-0.2,0-0.3,0-0.5,0c-1.9,8.9-3.9,18.6-6.1,26.9
		C619.9,145.5,619.2,148,618.6,150.5z"/>
	<path class="st30" d="M686.8,100h18.7c7.1,16.2,14.1,34.9,21.2,52.5c2.6,7.8,5.3,15.7,7.9,23.8c0.2,0,0.3,0.1,0.5,0.1
		c-0.8-11.1-2.3-25.9-2.3-38.1c0-12.1-0.1-26.2-0.1-38.3H750v109.1c-6.1-1.4-12.3-2.9-18.4-4.2c-7-18.6-14-36.5-21-53.6
		c-2.7-7.4-5.3-14.7-8-22c-0.2,0-0.3,0-0.5,0c0.8,10.7,2.3,23.9,2.4,35.4c0.1,11.5,0.1,23,0.2,34.5c-5.7-1.1-11.5-2.2-17.2-3.3
		C687.2,164.5,687,131.4,686.8,100z"/>
</g>
<g>
	<g>
		<path class="st31" d="M218.4,353l-5.3,3.6l7.3,10.9l-6.2,4.2l-7.3-10.9l-10.1,6.8l-4.8-7.1l27.9-18.8l14.2,21.1l-6.2,4.2
			L218.4,353z"/>
		<path class="st31" d="M223.1,393.6l-5.6,2.2l-6-6.7l34.1-12.5l6.5,7.2l-15.7,32.9l-6.1-6.8l2.7-5.3L223.1,393.6z M239.8,391.1
			c1.3-2.7,2.3-4.7,2.3-4.8l-0.1-0.1c-0.1,0-2.1,0.8-5,1.8l-6.7,2.7l6.2,6.8L239.8,391.1z"/>
		<path class="st31" d="M273.7,436.5c4.9-6.3,7.4-9.4,7.4-9.4l-0.1-0.1c-0.1,0-3.3,1.4-6.4,2.6l-6.3,2.6l-3.8-2.9l0.8-6.7
			c0.4-3.4,0.9-6.9,0.9-6.9l-0.1-0.1c0,0-2.4,3.2-7.2,9.5l-5,6.5l-6.7-5.2l20.6-26.7l7.2,5.5l-2.1,17.4l0.1,0.1l16.3-6.4l6.9,5.3
			l-20.6,26.7l-6.7-5.2L273.7,436.5z"/>
		<path class="st31" d="M306.2,427.4l7.4,4.3l-17,29.1l-7.4-4.3L306.2,427.4z"/>
		<path class="st31" d="M323.8,437.5l7.8,3.5l-10.8,23.9l14.5,6.6l-3.1,6.8l-22.3-10.1L323.8,437.5z"/>
		<path class="st31" d="M357.7,486.9l-8.1-2.6l4-12.7l-6.5-23.5l9.4,2.9l2.5,10.4c0.6,2.4,1,4.5,1.1,4.5l0.1,0
			c0.1,0,1.6-1.5,3.5-3.1l8.2-7l8.7,2.7l-18.8,15.5L357.7,486.9z"/>
		<path class="st31" d="M422.8,465.1c10.6,0.8,18.1,8.3,17.3,18.4c-0.8,10.2-9.5,16-19.9,15.2l-15.1-1.2l2.7-33.6L422.8,465.1z
			 M420.2,491.2c5.3,0.4,10.8-1.7,11.3-8.3c0.5-6.6-4.6-9.9-9.8-10.3l-6.1-0.5l-1.5,18.6L420.2,491.2z"/>
		<path class="st31" d="M451.3,466.4l25.8-1.7l0.5,7.5l-17.3,1.1l0.4,5.8l12.8-0.8l0.4,6.7l-12.8,0.8l0.4,6.2l17.6-1.1l0.5,7.5
			l-26.1,1.7L451.3,466.4z"/>
		<path class="st31" d="M499.3,474.9l-0.1,0c0,0,1,4.1,1.9,8.4l2.4,11.3l-8.3,1.8l-7.1-33l8.4-1.8l18.9,16.1l0.1,0
			c0,0-1-4.3-1.7-7.9l-2.5-11.4l8.3-1.8l7.1,33l-8.5,1.8L499.3,474.9z"/>
		<path class="st31" d="M549.1,454.1l9.3,24.5l-8,3l-9.3-24.5L531,461l-2.7-7l28.3-10.7l2.7,7L549.1,454.1z"/>
		<path class="st31" d="M564.7,439.1l7.6-3.9l15.2,30.1l-7.6,3.9L564.7,439.1z"/>
		<path class="st31" d="M600.6,445.7c2,1.7,4.9,1.6,8.1-0.5c2.7-1.8,3.8-3.7,2.6-5.6c-1.8-2.7-5.2-0.2-9.4,1.3
			c-4.6,1.7-10.8,3.2-14.7-2.8c-3.8-5.8-1-11.6,5.6-16c6.1-4,11.9-4.5,16.9-0.5l-5.7,6.2c-2.1-1.6-4.5-1.6-7.5,0.3
			c-2.7,1.8-3.2,3.5-2.2,5c1.6,2.4,4.6,0.9,9.3-1c4.9-2.1,10.9-3.4,14.9,2.7c3.8,5.8,1.4,11.5-5.9,16.3c-5.2,3.4-12,5.7-17.7,0.7
			L600.6,445.7z"/>
		<path class="st31" d="M631.5,402.7l17.3,19.6l-6.4,5.7l-17.3-19.6l-8.1,7.2l-5-5.6l22.7-20l5,5.6L631.5,402.7z"/>
		<path class="st31" d="M666.2,388.4l-1.1,1.4l-1.3,1.6l8.5,7.2l-5.5,6.5L641,383.3l8.7-10.3c5.8-6.8,12.5-8,17.8-3.5
			c3.5,3,4.6,7,3,11.3l14.9,2l-6.5,7.7L666.2,388.4z M662.3,383c2-2.4,2-4.7-0.2-6.5c-2.1-1.8-4.5-1.6-6.6,0.9l-3.5,4.2l6.7,5.7
			L662.3,383z"/>
		<path class="st31" d="M702.5,356.5l-4.4,7.3l-11.3-6.9l-24.3,0.7l5.1-8.4l10.7,0.1c2.5,0,4.6,0.1,4.6,0l0.1-0.1
			c0-0.1-1.1-2-2.2-4.1l-4.8-9.6l4.7-7.8l10.5,22L702.5,356.5z"/>
	</g>
	<g>
		<polygon class="st32" points="205.4,299.5 192.8,301.6 187,290.3 185.1,302.8 172.5,304.8 183.9,310.5 181.9,323 190.8,314 
			202.2,319.7 196.4,308.5 		"/>
		<polygon class="st32" points="183.3,247.4 170.6,247.9 166.2,236 162.7,248.2 150,248.7 160.6,255.7 157.1,267.9 167.1,260 
			177.7,267.1 173.3,255.2 		"/>
	</g>
	<g>
		<polygon class="st32" points="694.6,298.5 707.2,300.5 713,289.3 714.9,301.8 727.5,303.7 716.1,309.4 718.1,321.9 709.2,313 
			697.8,318.7 703.6,307.5 		"/>
		<polygon class="st32" points="716.7,246.4 729.4,246.9 733.8,235 737.3,247.2 750,247.7 739.4,254.7 742.9,266.8 732.9,259 
			722.3,266 726.7,254.2 		"/>
	</g>
</g>
<path class="st33" d="M622,331.3l-68.2-68.2l-13,13l-54.5-54.5l-9.8,9.8l-31-31l-57.4,57.4L373.5,243L323,293.5l-8.3-8.3L267,333
	c-9.9,1.4-11.1,1.5-21,3.1c1.5,2,3,4.1,4.5,6.1c26,31.2,58.6,56.1,95.5,72.3c-2.9-20-3.2-41.1,9.8-58c10.2-13.3,25.1-18.9,41.4-18.3
	c15.2,0.6,29.4,11.4,40.8,20.7c0.5,0.4,1,0.8,1.4,1.2c8.1,6.7,18.5,10.2,30.7,10.2c16-0.1,27.5-5.6,27.5-5.6s-34.1,0.3-45.6-11
	c4.1-4.5,17.8-17.1,40.7-17.1c31.7,0,50.7,29.9,50.7,58.7c0,3.6-1.2,13.3-2.3,20.8c40.9-17.2,76.7-45,104.2-80.2
	c0.2-0.4,0.5-0.8,0.7-1.2C635.3,333,622,331.3,622,331.3z M322,312.5l-3.2,8.3l-1.2-6.1l-14.4,13.5l1.9-6.7l-30.1,14l39.7-40.4
	l24.8,26.4L322,312.5z M333,295.6l40.8-41.7l9.3,8.9l-12.5,12.3l-0.3-4.4l-9.6,14.1l3.3-10.6L333,295.6z M515.6,273.3l-14.2,10.6
	l9.4-12.9l-16.1-7.7l-10,6.5l5.6-9.5l-20.8,14.3l5.8-9.8l-36.9,30.4l25.2-30.6l-27.1,18l8.4-12.2l-20.2,14.8l9.1-14.5l-55.6,38.6
	l19.5-28.4l-52.7,33.8l100.5-102.2l31,30l9.9-9.4l48.5,48.9l-1,1l-6.4-3.1l-8.4,3l4.7-4.7L515.6,273.3z M583.4,322.9L567,310.5
	l-10.6,4.2l6.8-7l-7-5.3l-14.6,4.6l11.8-12.4l-33.8,13.4l34.3-33.7l58.3,63.4l-31.1-21.2L583.4,322.9z"/>
</svg>
