<svg id="Layer_1" data-name="Layer 1" xmlns="http://www.w3.org/2000/svg" viewBox="0 0 900 600">
  <title>logo</title>
  <rect width="900" height="600" fill="#3d5567"/>
  <g>
    <path id="White_Base_if_needed_" data-name="White Base (if needed)" d="M583.56,204.4l16.31-31.68-1.58-5.94a4,4,0,0,1-.1-.6l-.73-12.4a3,3,0,0,1,1.57-2.84,3.11,3.11,0,0,1,1.49-.38,3.08,3.08,0,0,1,1.78.56l10.21,7.15a2.88,2.88,0,0,1,.46.39l4.24,4.45L652.84,166a3.06,3.06,0,0,1,2.43,1.55l4.81,8.57a3,3,0,0,1-.1,3.12,3.08,3.08,0,0,1-2.59,1.39h-.25l-40.72-3.28a3,3,0,0,1-2.15-1.14l-3.59-4.47,2,5.41a3,3,0,0,1-.16,2.4l-18.63,36.19a3,3,0,0,1-2.68,1.66h0a3.08,3.08,0,0,1-2.69-1.56l-4.8-8.56A3,3,0,0,1,583.56,204.4ZM325,136.52,337.25,139a4.2,4.2,0,0,0,.62.07l6.15,0,26.56,23.92a3.06,3.06,0,0,0,2.06.79,3.22,3.22,0,0,0,.76-.09l9.55-2.39a3.05,3.05,0,0,0,2.22-2.21,3,3,0,0,0-.91-3l-30.34-27.32a3.05,3.05,0,0,0-2.07-.8h-.25l-5.83.47,5.36-2.32a3.05,3.05,0,0,0,1.67-1.78l13.66-38.28a3,3,0,0,0-.63-3.06,3.09,3.09,0,0,0-2.27-1,3.2,3.2,0,0,0-.75.09l-9.55,2.39a3.05,3.05,0,0,0-2.14,1.94l-12,33.5-5.41,2.91a3.48,3.48,0,0,0-.51.34l-9.57,8a3,3,0,0,0,1.35,5.3Zm22.83,373.7a3.43,3.43,0,0,0-.25-.55l-3.07-5.33,6.52-30.23a3,3,0,0,0-.75-2.7c-2.24-2.41-4.5-4.91-6.71-7.42a3.07,3.07,0,0,0-2.32-1.05,2.86,2.86,0,0,0-.77.1,3,3,0,0,0-2.23,2.31L330.59,501a3,3,0,0,0,.47,2.36l3.31,4.76-4.65-3.42a3.13,3.13,0,0,0-1.83-.6,3.64,3.64,0,0,0-.56.05l-40.16,7.32a3,3,0,0,0-1.66,5.1l6.87,7a3.11,3.11,0,0,0,2.21.93,3.53,3.53,0,0,0,.56,0l35.14-6.4,5.25,3.21a3.1,3.1,0,0,0,.55.26l11.72,4.28a3,3,0,0,0,1.06.19,3.06,3.06,0,0,0,2.14-.86,3,3,0,0,0,.78-3.14ZM704.91,36.68a1.32,1.32,0,0,0-1-.81,226.78,226.78,0,0,0-37.76-3,304.27,304.27,0,0,0-70.76,8.76,289.85,289.85,0,0,0-66.56,24.91,254.65,254.65,0,0,0-68.21,52.85,2.93,2.93,0,0,0,.36-.9c.17-.24.35-.49.57-.75a3,3,0,0,0,.5-3l-2-5.27a3,3,0,0,0-1.7-1.74L453,105.5l5.86.36H459a3.09,3.09,0,0,0,2.1-.83L491,77.17a3,3,0,0,0,.86-3A3.06,3.06,0,0,0,489.6,72L480,69.8a3.17,3.17,0,0,0-.69-.08,3.09,3.09,0,0,0-2.1.83L451.05,94.94l-6.16.14a3.17,3.17,0,0,0-.61.07L432.09,97.9a3.07,3.07,0,0,0-2.31,2.28,3,3,0,0,0,1.06,3l9.7,7.77a3.48,3.48,0,0,0,.51.34l5.46,2.8,3.38,9a3.11,3.11,0,0,0,2.31,1.93,3.66,3.66,0,0,0,.57,0,3.06,3.06,0,0,0,2.29-1l0,0,0,0c.18-.2.35-.39.53-.57a21.33,21.33,0,0,1,2.33-1.86c.62-.44,1.26-.91,1.89-1.42a252.28,252.28,0,0,0-30,40.52c-32,3.05-65.33,18.26-91.6,41.81-28.94,25.94-45.82,59.13-47.54,93.45-1.93,38.33,6.92,75.6,26.3,110.78,15.46,28.08,33.52,48.82,45.75,62a1.33,1.33,0,0,0,1.85.09,1.29,1.29,0,0,0,.11-1.83c-6.24-7.05-61-71.33-61-158.48,0-65.17,57.44-113.91,113.83-124.28-.62,1.35-1.24,2.72-1.83,4.08-1.63,3.75,1.15,6.59,5.37,10.89l.07.07c4.47,4.58,11.23,11.51,14.05,20,1.83,5.55,2.15,13.73,2.46,21.65.27,7.05.53,13.71,1.92,18.9,1.66,6.21,4.8,9.37,9.58,9.63h.08a1.31,1.31,0,0,0,1.31-1.23l.37-6.45a1.32,1.32,0,0,0-.33-.95,1.35,1.35,0,0,0-.91-.43s-1.14-.6-1.95-7.1c-.51-4.08-.7-9-.85-12.66v-.22c-.34-8.49-.68-17.27-2.89-23.95-3.51-10.59-11.17-18.41-16.25-23.59-1-1-2-2.08-2.73-2.87A244.51,244.51,0,0,1,533.23,74.5c39.27-20.9,86.44-32.88,129.42-32.88a219.7,219.7,0,0,1,22.45,1.12c-42.05,16-94.49,39-137.64,75.19-46.9,39.32-75.76,88.85-81.25,139.47l-1.27,11.74a1.32,1.32,0,0,0,2.36.92l7.2-9.47c16.37-21.54,36.47-44.33,59.73-67.76,19,8.39,61,59.24,70.61,94.52a82.53,82.53,0,0,1-33.1-32.6,67.57,67.57,0,0,1-7.85-24.56,1.31,1.31,0,0,0-1.31-1.16h-.06a1.31,1.31,0,0,0-1.25,1.29,70.68,70.68,0,0,0,2.53,19.32,45.33,45.33,0,0,0-28,12.28c-3.33,3.22-9.61,11-10.89,18.48a106.82,106.82,0,0,0-19.24-1.73,118.7,118.7,0,0,0-20.31,1.8,1.3,1.3,0,0,0,.23,2.58h.12c3.7-.33,7.45-.5,11.15-.5a116.42,116.42,0,0,1,37.06,5.89,99.19,99.19,0,0,1,32.6,18.08c10.42,8.75,19.61,20.43,28.09,35.71a38.41,38.41,0,0,1,2,4.64c2.3,12.05,7.61,25.24,16.67,41.35l-1,0c-11,0-21.76,5.62-27.53,14.31a57.78,57.78,0,0,0-5.51,11.67,49.46,49.46,0,0,1-4.61,9.94c-4,6-11.23,10.49-20.44,12.71-7.8,1.87-16.16,2.06-24.23,2.24l-2.91.08c-6.61.17-13,.52-19.24,3-8.42,3.41-15.54,10.85-19.79,20.6a173.69,173.69,0,0,0-12.88-33.38A232.19,232.19,0,0,0,462.2,407a120.38,120.38,0,0,0,25,7.71,1.06,1.06,0,0,0,.25,0,1.31,1.31,0,0,0,1.21-.79,1.28,1.28,0,0,0-.45-1.57c-3.12-2.19-6.31-4.31-9.68-6.57-19.18-12.81-39-26.05-45.14-47.94-6.91-24.68,6.86-51,22.57-64.94a1.3,1.3,0,0,0,.23-1.68,1.32,1.32,0,0,0-1.11-.59,1.37,1.37,0,0,0-.52.1c-11.24,4.85-21.1,13.89-27.76,25.46A65,65,0,0,0,418,352.41c-19.95,50.89-23.74,104.12-10.68,149.92,5.91,20.73,16.54,39.49,26.82,57.64l3.67,6.5a1.31,1.31,0,0,0,1.15.67,1.43,1.43,0,0,0,.5-.09,1.3,1.3,0,0,0,.77-1.56c-15.61-56.11-11.87-115.69,10-159.92,8.76,12.58,31.23,48.05,32.3,81.86-.22,2.21-.4,4.39-.52,6.05l-.14,1.56a1.35,1.35,0,0,0,.43,1.08l1.19,1.06,0,0c1.32,1.2,13.34,12,26.22,22.27a244.25,244.25,0,0,0,22.1,16.12c.13.73.26,1.48.42,2.29a97.35,97.35,0,0,0,4.86,17.23c1.37,3.06,3.2,4.62,5.46,4.62a5.52,5.52,0,0,0,1.49-.23c.42-.13,2-.91,3.64-1.7A32.79,32.79,0,0,0,559.46,565a14.75,14.75,0,0,0,4.59.83,7.7,7.7,0,0,0,4.18-1.12c2.17-1.39,5.11-5.09,8.77-11a8.22,8.22,0,0,0,1.07.07,9.49,9.49,0,0,0,1.42-.11c7.46-1.3,15-11.08,24.46-23.46,8.66-11.28,18.45-24,27.79-29.25,14-7.85,22.43-17.54,25.69-29.64,4.09-15.25-.5-34-13.63-55.87-1.44-10.14-8.53-19.59-18.17-24.24-28.06-46.77-24.61-66.52-10.8-97.51l.39-.89a1.3,1.3,0,0,0,.1-.75l-.17-1c-3.2-17.71-13.95-43.29-28.06-66.79s-28.32-39.65-39.22-44.61c9.76-8.88,63.77-57.77,94.18-80,21.42-15.64,36.45-29.89,55.46-52.6L704.72,38A1.27,1.27,0,0,0,704.91,36.68ZM281,175h.18l12.47-.71a4.31,4.31,0,0,0,.61-.1l5.94-1.56L332,188.9a3.12,3.12,0,0,0,1.41.34,3.16,3.16,0,0,0,1.5-.39l8.6-4.77a3,3,0,0,0-.09-5.35l-36.41-18.59a3.12,3.12,0,0,0-1.41-.34,3,3,0,0,0-1,.18l-5.5,2,4.58-3.63a3.08,3.08,0,0,0,1.14-2.13l3.23-40.51a3.06,3.06,0,0,0-3.06-3.28,3.16,3.16,0,0,0-1.51.38l-8.59,4.77a3,3,0,0,0-1.56,2.42L290.5,155.4,286,159.61a3.39,3.39,0,0,0-.39.46l-7.17,10.15a3,3,0,0,0-.17,3.23A3.08,3.08,0,0,0,281,175Zm7,310.25,10.21,7.15A3.06,3.06,0,0,0,300,493a3.11,3.11,0,0,0,1.49-.38,3.06,3.06,0,0,0,1.57-2.84l-.74-12.41a2.9,2.9,0,0,0-.09-.59l-1.58-5.94,16.3-31.68a3,3,0,0,0,0-2.86l-4.8-8.56a3.08,3.08,0,0,0-2.69-1.56h-.05a3.07,3.07,0,0,0-2.69,1.66L288,464a3,3,0,0,0-.16,2.4l2,5.41-3.59-4.47a3.1,3.1,0,0,0-2.16-1.15l-40.72-3.27h-.25a3.07,3.07,0,0,0-2.58,1.39,3,3,0,0,0-.1,3.12l4.8,8.57a3.06,3.06,0,0,0,2.44,1.55l35.63,2.87,4.24,4.45A2.93,2.93,0,0,0,288,485.26Zm-37.41-47.92a3.16,3.16,0,0,0,.34.5l8,9.53a3.07,3.07,0,0,0,2.36,1.1,3.14,3.14,0,0,0,.75-.09,3.08,3.08,0,0,0,2.26-2.34l2.51-12.17a3.07,3.07,0,0,0,.07-.6v-6.14l24-26.39a3,3,0,0,0,.7-2.77l-2.42-9.51a3.08,3.08,0,0,0-5.26-1.29l-27.42,30.15a3.08,3.08,0,0,0-.78,2.28l.48,5.71-2.3-5.24a3.08,3.08,0,0,0-1.78-1.65l-38.5-13.66a3.29,3.29,0,0,0-1-.17,3.1,3.1,0,0,0-2.06.78,3.05,3.05,0,0,0-.92,3l2.42,9.5a3,3,0,0,0,1.94,2.12l33.69,12ZM228.42,257l-1.75,5.88a2.36,2.36,0,0,0-.11.59l-1.11,12.37a3.07,3.07,0,0,0,1.49,2.88,3.12,3.12,0,0,0,1.58.43,3.08,3.08,0,0,0,1.69-.51l10.43-6.82a2.89,2.89,0,0,0,.47-.38l4.36-4.32,35.74-1.74a3.06,3.06,0,0,0,2.49-1.49l5-8.33a3.17,3.17,0,0,0,.21-.41l0-.06a3.05,3.05,0,0,0-.35-2.91,3.09,3.09,0,0,0-2.5-1.29h-.14l-40.83,2a3.07,3.07,0,0,0-2.19,1.08l-3.74,4.38L241.3,253a3,3,0,0,0-.09-2.4l-17.56-36.73a3,3,0,0,0-2.63-1.73h-.15a3.1,3.1,0,0,0-2.64,1.49l-5,8.41a3,3,0,0,0-.14,2.85Zm460.07-31.36a3.08,3.08,0,0,0-1.94-2.12l-33.69-11.95-2.94-5.39a3.39,3.39,0,0,0-.34-.5l-8-9.53a3.08,3.08,0,0,0-5.37,1.33l-2.52,12.17a3.05,3.05,0,0,0-.06.6v6.14l-24,26.38a3,3,0,0,0-.7,2.78l2.42,9.51a3.08,3.08,0,0,0,3,2.29,3.07,3.07,0,0,0,2.28-1L644,226.21a3,3,0,0,0,.77-2.28l-.47-5.71,2.3,5.24a3.08,3.08,0,0,0,1.78,1.65l38.5,13.65a3,3,0,0,0,1,.18,3.08,3.08,0,0,0,2.06-.79,3,3,0,0,0,.91-3Zm-440.64-2a3.17,3.17,0,0,0,1-.15l11.85-3.9a3.64,3.64,0,0,0,.57-.25l5.33-3,35,7.52a3.5,3.5,0,0,0,.65.07,3.08,3.08,0,0,0,2.15-.87l7.06-6.82a3,3,0,0,0,.8-3,3.06,3.06,0,0,0-2.3-2.13l-40-8.59a3.5,3.5,0,0,0-.65-.07,3,3,0,0,0-1.75.55l-4.78,3.28,3.46-4.67a3,3,0,0,0,.55-2.35l-7.42-40a3,3,0,0,0-2.09-2.35,2.92,2.92,0,0,0-.93-.15,3.08,3.08,0,0,0-2.15.87l-7.06,6.82a3,3,0,0,0-.87,2.73l6.48,35-3.22,5.22a3.94,3.94,0,0,0-.26.55L245,219.55a3,3,0,0,0,.68,3.16A3.1,3.1,0,0,0,247.85,223.63Zm129.57-113,11.16,5.58a4.07,4.07,0,0,0,.58.22l5.94,1.61,18.81,29a3.09,3.09,0,0,0,2.59,1.4h.07a3.08,3.08,0,0,0,2.59-1.52c1.51-2.6,3.07-5.19,4.64-7.69a3.05,3.05,0,0,0,0-3.25l-16.43-25.29a3.15,3.15,0,0,0-2-1.35l-5.77-1,5.78-.86a3.05,3.05,0,0,0,2.08-1.29l23.16-33.44a3,3,0,0,0,.19-3.11,3.06,3.06,0,0,0-2.68-1.65l-9.85-.15h0a3.07,3.07,0,0,0-2.54,1.32L395.38,98.36l-6,1.42a3.06,3.06,0,0,0-.58.2l-11.31,5.22a3,3,0,0,0-.09,5.47ZM227.21,381.94a2.59,2.59,0,0,0,.2.57l5.26,11.26a3.09,3.09,0,0,0,2.74,1.77h.05a3.08,3.08,0,0,0,2.75-1.68l5.59-11.1a3,3,0,0,0,.21-.57l1.61-5.92L275.68,357a3.05,3.05,0,0,0,1.4-2.51l.13-9.8a3,3,0,0,0-1.58-2.7,3.1,3.1,0,0,0-3.16.11l-34.33,22a3.07,3.07,0,0,0-1.36,2l-1,5.63-.86-5.66a3.09,3.09,0,0,0-1.29-2.05L200,341a3,3,0,0,0-1.75-.54,3.14,3.14,0,0,0-1.41.33,3,3,0,0,0-1.66,2.66l-.14,9.8a3,3,0,0,0,1.32,2.54L225.77,376Zm-8-65.64-.16,6.14a3,3,0,0,0,.05.6l2.15,12.23a3.07,3.07,0,0,0,2.19,2.41,3.34,3.34,0,0,0,.84.11,3.07,3.07,0,0,0,2.3-1l8.29-9.27a3.43,3.43,0,0,0,.36-.49l3.09-5.3,34-10.89a3,3,0,0,0,2-2.07l2.68-9.42a3,3,0,0,0-.83-3,3.05,3.05,0,0,0-2.13-.85,3,3,0,0,0-.94.15L234.27,308a3.07,3.07,0,0,0-1.84,1.6L230,314.82l.64-5.71a3,3,0,0,0-.71-2.3l-26.5-31a3.1,3.1,0,0,0-2.35-1.07,2.81,2.81,0,0,0-.65.07,3.07,3.07,0,0,0-2.31,2.14l-2.68,9.43a3,3,0,0,0,.62,2.79Z" fill="#fff"/>
    <path id="_7545C" data-name="7545C" d="M593.52,429.67c-7.22,10.5-.53,22.88,4.85,32.83a78.11,78.11,0,0,1,4.48,9.16c2.58,7,2.24,13.64-.94,17.8l-10.62,14,15-9.29c11.68-7.22,28.75-30.76,27.86-49.81-.42-9.06-4.89-16-12.92-20C612.59,420,599.38,421.11,593.52,429.67Zm24.73.42c6,3,9,7.72,9.34,14.51.56,12.17-7.78,27.24-16.41,36.75a27,27,0,0,0-.13-3.46c7.18-9.37,13.26-21.93,12.76-32.37-.31-6.79-3.36-11.53-9.32-14.51a18.15,18.15,0,0,0-8-1.8,19.09,19.09,0,0,0-2.27.15,16.9,16.9,0,0,1,6.05-1.07A18.06,18.06,0,0,1,618.25,430.09ZM529.45,67.68A253.2,253.2,0,0,0,430.69,162c-62.9,5.65-134.94,60.41-138.63,134.09-1.83,36.49,6,73.48,26.14,110.09,15.22,27.63,33.18,48.39,45.57,61.72-6-6.83-61.36-71.57-61.36-159.34,0-65.44,59-116.4,117.39-126q-1.47,3.14-2.87,6.31c-1.27,3,1.12,5.39,5.11,9.46,4.58,4.69,11.5,11.75,14.43,20.62,1.87,5.68,2.21,14,2.52,22,.54,13.77,1.06,26.77,10.27,27.28l.37-6.45c-3.22-.17-3.73-13.26-4.05-21.08-.33-8.46-.67-17.2-2.83-23.74-3.4-10.27-10.94-18-15.94-23.09-1.2-1.22-2.62-2.68-3.33-3.56A245.78,245.78,0,0,1,532.6,73.35c48-25.57,107.19-37.85,158-31.29-43.23,16.28-97.89,39.67-142.25,76.86C501.67,158,473,207.25,467.52,257.54l-1.27,11.74,7.2-9.47c16.72-22,37.46-45.4,60.46-68.53,19.64,7.69,64.73,62.41,72.91,98.58-15.31-7.69-28.29-19.78-36.24-34.49a69.12,69.12,0,0,1-8-25,69.58,69.58,0,0,0,2.94,20.53,44,44,0,0,0-28.85,12c-3.8,3.67-10.1,11.92-10.68,19.09a110.4,110.4,0,0,0-40.45-.19,120.48,120.48,0,0,1,48.75,5.45,100.77,100.77,0,0,1,33,18.32c11.83,9.94,21,22.74,28.4,36.08a40.61,40.61,0,0,1,2.11,4.92c2.35,12.38,8,26.13,17.75,43.16-11.4-1.25-23.48,4.08-29.76,13.54a57.31,57.31,0,0,0-5.38,11.43,50.77,50.77,0,0,1-4.74,10.19c-4.16,6.26-11.7,11-21.23,13.25-7.87,1.89-16.33,2.1-24.51,2.29l-2.91.07c-6.5.17-12.83.53-18.77,2.93-8.72,3.53-16,11.6-20,22.12-.22.53-.41,1.08-.6,1.63A169.78,169.78,0,0,0,473.93,430a231.9,231.9,0,0,0-15.39-26.14,117,117,0,0,0,28.88,9.55c-21-14.65-48-29-55.33-55.22-6.58-23.51,5.22-50.48,23-66.26-23,9.94-37.43,36.23-35.68,60.71-18.49,47-24.71,100.44-10.75,149.35,6.55,23,18.69,43.09,30.37,63.87C424.61,514.16,424.86,452.28,450,403,466,425.34,483,458.31,483.84,487.47c-.21,2-.37,4.09-.53,6.11l-.14,1.57,1.19,1.06c.13.11,12.61,11.38,26.21,22.26A234.92,234.92,0,0,0,533,534.81c.16.88.31,1.82.51,2.83,1.28,6.51,3.24,13.49,4.78,17,1.13,2.54,2.55,3.83,4.25,3.83a4.06,4.06,0,0,0,1.12-.17c.24-.08,1.93-.86,4.3-2.06a30.41,30.41,0,0,0,11.87,7.59,13.59,13.59,0,0,0,4.18.77,6.4,6.4,0,0,0,3.47-.91c2.62-1.68,6.32-7.24,8.82-11.36a8.61,8.61,0,0,0,1.73.21,6.78,6.78,0,0,0,1.2-.1c6.93-1.21,14.3-10.8,23.63-23,8.72-11.35,18.61-24.23,28.19-29.6,13.72-7.66,21.91-17.1,25.07-28.84,4-14.94-.57-33.47-13.63-55.09-1.33-10.13-8.44-19.29-17.83-23.67-28.55-47.47-25.06-67.66-11.07-99.05l.39-.89-.17-1c-6.61-36.65-45-103.2-68.4-111.18,0,0,62-56.78,95.82-81.48,21.36-15.6,36.32-29.8,55.23-52.38l7.18-9.15C649.93,28,581.12,40.18,529.45,67.68ZM421.82,518.58C403.34,471.36,407,417.69,423.75,370.2a61.81,61.81,0,0,0,17.34,22.45C422.33,430.32,418.65,477.37,421.82,518.58Zm122.11,32.49c-2.19-5.55-5.47-20.08-5-24.23a139.24,139.24,0,0,1,15.11-4,138.53,138.53,0,0,0,6.43,15.81c.36.62.73,1.21,1.11,1.78C558.12,543.25,548.56,548.75,543.93,551.07Zm-.9-54.65a30.55,30.55,0,0,1,3.88-1.18c1.07,3.89,2,7.91,3,11.89.77,3.17,1.54,6.29,2.33,9.33-3.89.22-7.06-2.09-8.7-3.32-.35-2.21-.42-8.48-.44-11.65C543.09,499,543.07,497.47,543,496.42Zm21,61.69c-1.92.18-7.26-2.56-10.11-5.07,4.21-2.35,12-7.73,12-7.73a36.69,36.69,0,0,0,4.44,4C568,553.38,565.32,557.13,564.07,558.11Zm72-140.81.07.71.38.61C648.89,439,653.36,456,649.77,469.37c-2.68,10-9.86,18.1-21.95,24.87-10.78,6-21.1,19.47-30.2,31.33-7.09,9.24-15.13,19.71-19.5,20.47-2.11.35-7.22-4.44-12.15-11-4.27-7.45-7-18.56-9.62-29.38-3.65-15-7.42-30.41-15.63-39.64a31,31,0,0,1,11.89-1.16c-10.16-7.15-25.28.14-28.92,10.94a49.34,49.34,0,0,1,10.59-7.23l-.1.1c4.89,4.48,8.23,11.89,10.91,20.37-7,1.75-7.85,3.3-8.35,4.18a3.69,3.69,0,0,0-.35,2.79c.08.76.1,3.42.12,5.57.13,12.84.45,15,2.5,16.32.13.08.31.21.52.37.39.3.92.69,1.55,1.11a35.86,35.86,0,0,0-6.28,2.25c-1.35.76-2.27,2.06-2.44,5-4.41-3-10.17-7.18-17.72-13.24-10.6-8.49-20.48-17.17-24.21-20.49.06-1.76.06-3.51,0-5.27.66-6.79,1.66-13.59,4-19.88,3.34-8.84,9.28-15.54,16.31-18.39,4.9-2,10.57-2.28,16.43-2.45l2.9-.06c8.52-.21,17.35-.42,25.91-2.47,11.17-2.69,20.12-8.37,25.19-16a56.76,56.76,0,0,0,5.4-11.45,51.08,51.08,0,0,1,4.73-10.17c5.44-8.2,16.46-12.49,26.17-10.2S635,407.56,636.06,417.3ZM573.84,305.24a106.21,106.21,0,0,0-38.67-21.07c-.92-.26-1.84-.52-2.77-.76,0-5.23,4.86-12.07,8.91-16,5.82-5.62,16.68-10.14,26.27-10.56a82,82,0,0,0,10.53,18.79C572,284,570.24,296.35,573.84,305.24Zm26.16,3.2,1.26-8.25s-11.26-7.32-16.44-12.82c-2.8,6.35-3.32,14.22-.88,19.68a27.89,27.89,0,0,0,4.16,6.55,28.6,28.6,0,0,1-7.94-10.24c-2.78-6.25-1.71-15.66,2.25-22.34a97.93,97.93,0,0,0,21.48,18.35C603.79,299.62,600,308.44,600,308.44Zm72.66-245.3c-1.28.52-100.84,80-102.13,80.52s88.4-74.91,85.4-73.63c-35.16,15-73.56,34.79-106.16,62.1-32.8,27.51-56.45,60.09-69,94.42,11.66-37.36,36.42-73,71.87-102.71,40.31-33.81,89.54-56.11,130.51-72C679.54,55.88,676.09,59.61,672.66,63.14ZM281,173.7h.11l12.46-.72a1.34,1.34,0,0,0,.35,0l6.43-1.69,32.31,16.5a1.81,1.81,0,0,0,1.67,0l8.59-4.77a1.71,1.71,0,0,0,.9-1.54,1.74,1.74,0,0,0-.95-1.52l-36.4-18.59a1.89,1.89,0,0,0-.81-.19,2,2,0,0,0-.59.1l-12.91,4.58,10.72-8.5a1.69,1.69,0,0,0,.65-1.22l3.24-40.51a1.76,1.76,0,0,0-2.61-1.65l-8.6,4.77a1.72,1.72,0,0,0-.89,1.38l-2.87,36-4.84,4.56a1.94,1.94,0,0,0-.23.26L279.54,171a1.73,1.73,0,0,0-.09,1.84A1.76,1.76,0,0,0,281,173.7Zm7.17-11.89,5.32-5,2.93-36.61,8.6-4.77-3.24,40.51-18.92,15,22.8-8.09,36.41,18.59-8.6,4.77-32.91-16.81-7.09,1.86L281,172ZM378,109.5l11.17,5.59a1.75,1.75,0,0,0,.32.12l6.44,1.74L415,146.33a1.75,1.75,0,0,0,1.48.8h0a1.75,1.75,0,0,0,1.48-.87c1.51-2.61,3.08-5.21,4.66-7.73a1.72,1.72,0,0,0,0-1.86l-16.43-25.29a1.72,1.72,0,0,0-1.16-.76l-13.51-2.47,13.57-2a1.75,1.75,0,0,0,1.18-.73L429.48,72a1.7,1.7,0,0,0,.11-1.78,1.74,1.74,0,0,0-1.53-.94l-9.85-.15h0a1.74,1.74,0,0,0-1.45.76L396.18,99.51l-6.47,1.54a1.28,1.28,0,0,0-.33.11l-11.32,5.22a1.73,1.73,0,0,0-.05,3.12Zm12.11-6.76,7.13-1.7,20.94-30.22L428,71l-23.16,33.44L380.93,108l23.84,4.34,16.42,25.29q-2.42,3.85-4.69,7.78l-19.45-29.94L390,113.53,378.8,108Zm-64.83,32.51,12.23,2.52.35,0,6.66,0,26.93,24.25a1.74,1.74,0,0,0,1.18.45,1.54,1.54,0,0,0,.43-.05l9.55-2.39a1.74,1.74,0,0,0,1.28-1.26,1.76,1.76,0,0,0-.52-1.71L353,129.8a1.75,1.75,0,0,0-1.18-.45h-.14L338,130.45,350.61,125a1.75,1.75,0,0,0,.95-1l13.66-38.28a1.73,1.73,0,0,0-.36-1.75,1.76,1.76,0,0,0-1.3-.57,1.59,1.59,0,0,0-.43.06l-9.55,2.39a1.71,1.71,0,0,0-1.22,1.1l-12.13,34-5.85,3.15-.29.2-9.57,8A1.69,1.69,0,0,0,324,134,1.74,1.74,0,0,0,325.29,135.25Zm9.93-9.66,6.44-3.47L354,87.52l9.55-2.39L349.9,123.41,327.71,133l24.14-1.94,30.34,27.33-9.55,2.39-27.42-24.7-7.34,0-12.23-2.51ZM441.37,110a1.81,1.81,0,0,0,.29.19l5.9,3,3.57,9.48a1.76,1.76,0,0,0,1.32,1.11,1.66,1.66,0,0,0,.32,0,1.77,1.77,0,0,0,1.31-.58l0,0c.2-.22.4-.44.61-.65a20.67,20.67,0,0,1,2.49-2c.63-.45,1.28-.92,1.9-1.44a1.74,1.74,0,0,0,.62-1.14,10.1,10.1,0,0,1,.8-1.1,1.7,1.7,0,0,0,.29-1.7l-2-5.27a1.74,1.74,0,0,0-1-1l-12.67-5.22,13.71.85H459a1.75,1.75,0,0,0,1.2-.47l29.89-27.87a1.72,1.72,0,0,0,.49-1.71,1.74,1.74,0,0,0-1.3-1.24l-9.59-2.2a1.81,1.81,0,0,0-.4,0,1.75,1.75,0,0,0-1.2.47L451.58,96.23l-6.66.15a2.11,2.11,0,0,0-.35.05l-12.19,2.74a1.75,1.75,0,0,0-1.32,1.3,1.73,1.73,0,0,0,.61,1.75ZM445,98.12,452.3,98l27-25.19L488.9,75,459,102.83l-24.17-1.5,22.34,9.2,2,5.27a11.66,11.66,0,0,0-1.22,1.78c.21-.39.26-.52.23-.52s-.64.86-.43.86a.5.5,0,0,0,.24-.11c-1.47,1.21-3.17,2.19-4.52,3.54-.24.24-.47.49-.7.75L449,112l-6.5-3.35-9.7-7.77ZM687.21,226a1.75,1.75,0,0,0-1.11-1.21l-34.16-12.12-3.18-5.83a1.81,1.81,0,0,0-.19-.29l-8-9.53a1.78,1.78,0,0,0-1.35-.63,1.54,1.54,0,0,0-.43.06,1.72,1.72,0,0,0-1.29,1.33L635,209.92a2,2,0,0,0,0,.34l0,6.64-24.33,26.76a1.72,1.72,0,0,0-.4,1.58l2.42,9.51a1.73,1.73,0,0,0,1.28,1.26,2,2,0,0,0,.42.05,1.74,1.74,0,0,0,1.3-.57L643,225.34a1.74,1.74,0,0,0,.44-1.3l-1.12-13.56,5.47,12.46a1.72,1.72,0,0,0,1,.94l38.49,13.66a1.8,1.8,0,0,0,.6.1,1.77,1.77,0,0,0,1.17-.45,1.73,1.73,0,0,0,.53-1.71Zm-37.78-3.72-9.69-22.09,2,24-27.41,30.14-2.42-9.5,24.79-27.25v-7.3l2.52-12.17,8,9.53,3.5,6.42,34.79,12.35,2.42,9.5Zm-401.58.08a1.77,1.77,0,0,0,.56-.09l11.85-3.9a1.83,1.83,0,0,0,.32-.14l5.77-3.29,35.49,7.62a1.55,1.55,0,0,0,.37,0,1.77,1.77,0,0,0,1.23-.49l7.06-6.82a1.73,1.73,0,0,0-.86-2.94l-40-8.59a1.55,1.55,0,0,0-.37,0,1.69,1.69,0,0,0-1,.31L257,211.74l8.14-11a1.69,1.69,0,0,0,.31-1.34l-7.41-40a1.74,1.74,0,0,0-1.2-1.34,1.59,1.59,0,0,0-.53-.08,1.79,1.79,0,0,0-1.23.49L248,165.34a1.72,1.72,0,0,0-.5,1.56l6.58,35.48L250.64,208a2.2,2.2,0,0,0-.15.31L246.2,220a1.74,1.74,0,0,0,1.65,2.33Zm4.29-13.39,3.83-6.22-6.7-36.13,7.06-6.82,7.42,40-14.37,19.37,19.91-13.69,40,8.59-7.06,6.83-36.15-7.77-6.36,3.62-11.85,3.9ZM288.72,484.2l10.21,7.15a1.79,1.79,0,0,0,1,.32,1.85,1.85,0,0,0,.85-.22,1.74,1.74,0,0,0,.9-1.62L301,477.42a2,2,0,0,0-.06-.34l-1.71-6.42,16.54-32.12a1.69,1.69,0,0,0,0-1.63l-4.8-8.57a1.76,1.76,0,0,0-1.54-.89h0a1.75,1.75,0,0,0-1.53.95l-18.63,36.19a1.72,1.72,0,0,0-.09,1.37l4.61,12.82-8.52-10.63a1.76,1.76,0,0,0-1.23-.66l-40.72-3.28h-.15a1.75,1.75,0,0,0-1.47.8,1.7,1.7,0,0,0-.06,1.78l4.81,8.56a1.74,1.74,0,0,0,1.39.89l36.13,2.92,4.58,4.81A2,2,0,0,0,288.72,484.2Zm-40.84-9.69L243.07,466l40.72,3.28,15.11,18.85-8.17-22.7,18.63-36.19,4.81,8.56-16.84,32.72,1.88,7,.74,12.41-10.22-7.15-5.05-5.3ZM584.77,206.62l4.8,8.57a1.76,1.76,0,0,0,1.54.89h0a1.75,1.75,0,0,0,1.53-1l18.63-36.19a1.72,1.72,0,0,0,.09-1.37l-4.61-12.83,8.52,10.64a1.71,1.71,0,0,0,1.23.65l40.72,3.28h.14a1.75,1.75,0,0,0,1.48-.8,1.73,1.73,0,0,0,.06-1.78l-4.81-8.56a1.72,1.72,0,0,0-1.39-.89l-36.13-2.92L612,159.56a1.43,1.43,0,0,0-.26-.23l-10.21-7.15a1.81,1.81,0,0,0-1-.32,1.85,1.85,0,0,0-.85.22,1.74,1.74,0,0,0-.9,1.62l.74,12.41a2,2,0,0,0,0,.34l1.71,6.41L584.74,205A1.69,1.69,0,0,0,584.77,206.62Zm18.37-33.56L601.26,166l-.74-12.4,10.22,7.15,5,5.3,36.81,3,4.8,8.56-40.72-3.28-15.1-18.85,8.16,22.7-18.62,36.19-4.81-8.56ZM251.71,436.72a1.38,1.38,0,0,0,.19.28l8,9.54a1.77,1.77,0,0,0,1.35.62,1.58,1.58,0,0,0,.43-.05,1.73,1.73,0,0,0,1.29-1.34l2.51-12.16a1.34,1.34,0,0,0,0-.35l0-6.63,24.33-26.76a1.72,1.72,0,0,0,.4-1.58l-2.42-9.51a1.74,1.74,0,0,0-1.28-1.26,1.51,1.51,0,0,0-.42,0,1.78,1.78,0,0,0-1.31.57l-27.41,30.15a1.73,1.73,0,0,0-.44,1.3l1.12,13.56-5.47-12.46a1.77,1.77,0,0,0-1-.95L213.13,406a1.7,1.7,0,0,0-.59-.1,1.79,1.79,0,0,0-1.18.45,1.72,1.72,0,0,0-.52,1.71l2.42,9.51a1.75,1.75,0,0,0,1.11,1.21l34.16,12.12Zm-39.17-29.09L251,421.28l9.69,22.09-2-24,27.41-30.14,2.42,9.5L263.79,426l0,7.3-2.51,12.17-8-9.54-3.5-6.41L215,417.13Zm134.06,103a3.09,3.09,0,0,0-.14-.32l-3.32-5.76,6.62-30.72a1.69,1.69,0,0,0-.43-1.53c-2.25-2.43-4.52-4.94-6.73-7.46a1.8,1.8,0,0,0-1.33-.6,1.72,1.72,0,0,0-.44.06,1.74,1.74,0,0,0-1.28,1.32l-7.68,35.63a1.7,1.7,0,0,0,.28,1.35l7.79,11.22-11-8.09a1.73,1.73,0,0,0-1.05-.34,1.77,1.77,0,0,0-.32,0l-40.17,7.32a1.77,1.77,0,0,0-1.35,1.18,1.72,1.72,0,0,0,.41,1.74l6.87,7a1.72,1.72,0,0,0,1.26.53l.32,0,35.64-6.49,5.68,3.47a1.77,1.77,0,0,0,.31.15l11.72,4.28a1.87,1.87,0,0,0,.61.11,1.75,1.75,0,0,0,1.22-.49,1.73,1.73,0,0,0,.45-1.8Zm-9.45,8.06-6.25-3.82-36.31,6.61-6.87-7,40.17-7.32,19.49,14.33-13.79-19.83L341.27,466q3.48,4,6.77,7.49l-6.76,31.37,3.65,6.33,3.94,11.8ZM228.49,381.63a1.17,1.17,0,0,0,.11.33l5.26,11.27a1.78,1.78,0,0,0,1.57,1h0a1.77,1.77,0,0,0,1.57-1l5.59-11.1a1.75,1.75,0,0,0,.12-.32l1.74-6.4L275,355.89a1.76,1.76,0,0,0,.8-1.44l.14-9.8a1.77,1.77,0,0,0-2.72-1.48l-34.33,22.05a1.75,1.75,0,0,0-.77,1.14l-2.44,13.38-2-13.45a1.74,1.74,0,0,0-.73-1.17L199.21,342a1.74,1.74,0,0,0-1-.31,1.71,1.71,0,0,0-.8.19,1.74,1.74,0,0,0-1,1.52l-.13,9.8a1.72,1.72,0,0,0,.75,1.45l29.86,20.5Zm-30.28-38.17,33.65,23.09,3.62,23.83,4.33-23.71,34.33-22-.14,9.8-31,19.93-1.91,7-5.59,11.1-5.27-11.27-1.71-7.1-30.41-20.87Zm31.62-86.56-1.9,6.36a1.86,1.86,0,0,0-.06.34L226.77,276a1.73,1.73,0,0,0,.85,1.65,1.8,1.8,0,0,0,1.86,0l10.43-6.83a1.13,1.13,0,0,0,.27-.22l4.72-4.66,36.25-1.77a1.76,1.76,0,0,0,1.42-.85l5-8.34.12-.23,0,0a1.76,1.76,0,0,0-1.63-2.41H286l-40.82,2a1.8,1.8,0,0,0-1.26.62l-8.85,10.37,5-12.68a1.7,1.7,0,0,0,0-1.38l-17.56-36.72a1.75,1.75,0,0,0-1.5-1h-.09a1.74,1.74,0,0,0-1.5.85l-5.05,8.41a1.72,1.72,0,0,0-.08,1.63Zm-9-41.75,17.57,36.73-8.84,22.41,15.67-18.35,40.82-2,0,.08-5,8.33-36.92,1.81-5.2,5.13-10.42,6.83,1.1-12.37,2.08-7-15.87-33.2Zm-.32,100.69-.17,6.63a1.88,1.88,0,0,0,0,.34l2.16,12.24a1.72,1.72,0,0,0,1.25,1.37,1.59,1.59,0,0,0,.48.07,1.76,1.76,0,0,0,1.31-.59l8.29-9.28a1.46,1.46,0,0,0,.21-.28l3.34-5.72L272,309.57a1.74,1.74,0,0,0,1.15-1.18l2.68-9.43a1.7,1.7,0,0,0-.47-1.72,1.75,1.75,0,0,0-1.22-.49,1.7,1.7,0,0,0-.54.09l-38.91,12.44a1.77,1.77,0,0,0-1,.92l-5.84,12.29L229.3,309a1.69,1.69,0,0,0-.4-1.31l-26.51-31a1.78,1.78,0,0,0-1.34-.61,1.55,1.55,0,0,0-.37,0,1.76,1.76,0,0,0-1.32,1.23l-2.68,9.42a1.72,1.72,0,0,0,.35,1.6Zm-19.5-38,26.51,31-2.7,23.94,10.35-21.77,38.91-12.45-2.68,9.43-35.18,11.25-3.68,6.3-8.29,9.28-2.16-12.23.2-7.3-24-28Z" fill="#3d5567"/>
    <path id="_375C" data-name="375C" d="M543.56,513.14c-.35-2.21-.42-8.48-.44-11.65,0-2.45,0-4-.09-5.07a30.55,30.55,0,0,1,3.88-1.18c1.07,3.89,2,7.91,3,11.89.77,3.17,1.54,6.3,2.33,9.33C548.37,516.68,545.2,514.37,543.56,513.14ZM566,545.31s-7.83,5.38-12,7.73c2.85,2.51,8.19,5.25,10.11,5.07,1.25-1,3.88-4.73,6.37-8.77A36.69,36.69,0,0,1,566,545.31ZM423.75,370.2c-16.72,47.49-20.41,101.16-1.93,148.38-3.17-41.21.51-88.26,19.27-125.93A61.81,61.81,0,0,1,423.75,370.2Zm136.7,168.43A138.53,138.53,0,0,1,554,522.82a139.24,139.24,0,0,0-15.11,4c-.45,4.15,2.83,18.68,5,24.23,4.63-2.32,14.19-7.82,17.63-10.66C561.18,539.84,560.81,539.25,560.45,538.63Zm22-257.61c-4,6.68-5,16.09-2.25,22.34a28.6,28.6,0,0,0,7.94,10.24,27.89,27.89,0,0,1-4.16-6.55c-2.44-5.46-1.92-13.33.88-19.68,5.18,5.5,16.44,12.82,16.44,12.82L600,308.44s3.79-8.82,3.89-9.07A97.93,97.93,0,0,1,582.41,281ZM570.53,143.66c1.29-.52,100.85-80,102.13-80.52,3.43-3.53,6.88-7.26,10.46-11.3-41,15.89-90.2,38.19-130.51,72-35.45,29.7-60.21,65.35-71.87,102.71,12.58-34.33,36.23-66.91,69-94.42,32.6-27.31,71-47.13,106.16-62.1C658.93,68.75,569.23,144.19,570.53,143.66ZM222.14,322.34v.18l.32,1.81,1.84,10.42,8.29-9.28,3.68-6.3h0l35.18-11.25,2.68-9.43-38.91,12.45-10.35,21.77,2.7-23.94-26.51-31-2.68,9.42,24,28Zm31.11,113.55,8,9.54,2.51-12.17,0-7.3,24.79-27.25-2.42-9.5-27.41,30.14,2,24L251,421.28l-38.5-13.65,2.42,9.5,34.79,12.35Zm-23.06-54.66,5.27,11.27,1.86-3.69,3.73-7.41,1.91-7,31-19.93.14-9.8-34.33,22-4.33,23.71-3.62-23.83-33.65-23.09-.14,9.8,30.41,20.87ZM300,489.93l-.74-12.41-1.88-7,16.84-32.72-4.81-8.56-18.63,36.19,8.17,22.7-15.11-18.85L243.07,466l4.81,8.56,2.77.22,34,2.75,5.05,5.3ZM231.7,256.76l-2.08,7-1.1,12.37,10.42-6.83,5.2-5.13,36.92-1.81,5-8.33,0-.08-40.82,2L229.6,274.29l8.84-22.41-17.57-36.73-5,8.41,15.87,33.2Zm61.75-85.51,7.09-1.86,32.91,16.81,8.6-4.77-18.2-9.3-18.21-9.29-22.8,8.09h0l18.92-15L305,115.42l-4.3,2.38-4.3,2.39-2.93,36.61-5.32,5-1.08,1.53L281,172l6.41-.37Zm-45.6,49.34,11.85-3.9,6.36-3.62,36.15,7.77,7.06-6.83-40-8.59-19.91,13.69h0l7.18-9.68,7.19-9.69L257.48,166l-1.15-6.2-7.06,6.82,6.7,36.13-3.83,6.22Zm353.72-65.14h0l15.1,18.85,40.72,3.28-4.8-8.56L635,167.6l-19.19-1.55-5-5.3-3-2.09-7.23-5.06.7,11.71,0,.69,1.88,7.06h0L586.3,205.78l1.88,3.35,2.93,5.21,6.13-11.91,12.49-24.28-8.16-22.7ZM343.11,508l-1.83-3.16L346.85,479l1.19-5.52q-3.29-3.54-6.77-7.49l-7.68,35.64,13.79,19.83-19.49-14.33-40.17,7.32,6.87,7,36.31-6.61,6.25,3.82L348.87,523l-3.94-11.8Zm91.74-406.67h0l24.17,1.5L488.9,75l-9.59-2.2L452.3,98l-7.34.17-12.19,2.75,9.7,7.77L449,112l3,8,.81,2.16c.23-.26.46-.51.7-.75a37.2,37.2,0,0,1,3.88-3l.64-.49-.07,0-.08,0,0,0h-.05s0,0,0,0v0a.13.13,0,0,1,0-.06.06.06,0,0,1,0,0l0-.09a.05.05,0,0,0,0,0l.07-.13h0l.09-.15,0,0,.06-.09,0,0,0-.06,0,0a.05.05,0,0,1,0,0h0v0h0a.25.25,0,0,1,0,.07l-.08.19a2.39,2.39,0,0,0-.13.24,7.85,7.85,0,0,1,.57-.92c.21-.3.43-.58.65-.86l-2-5.27Zm204.89,98.83,9.69,22.09,38.5,13.65-2.42-9.5-34.79-12.35-3.5-6.42-8-9.53L638,204.18l-1.26,6.09v7.3l-24.79,27.25,2.42,9.5,27.41-30.14-.15-1.82-1.83-22.2ZM418.81,141.48c.78-1.3,1.58-2.59,2.38-3.87l-16.42-25.29L380.93,108l23.95-3.57L428,71l-9.85-.15L397.25,101l-3.57.85-3.56.85L378.8,108,390,113.53l4.1,1.12,3,.8h0l6.94,10.7,12.51,19.24Q417.64,143.43,418.81,141.48Zm-67-10.4L327.71,133h0l22.19-9.61,13.66-38.28L354,87.52l-12.35,34.6-6.44,3.47-9.57,8,12.23,2.51,7.34,0,27.42,24.7,9.55-2.39-19.91-17.94Z" fill="#96ca4f"/>
    <path id="White" d="M591.36,406.74a51.08,51.08,0,0,0-4.73,10.17,56.76,56.76,0,0,1-5.4,11.45c-5.07,7.64-14,13.32-25.19,16-8.56,2.05-17.39,2.26-25.91,2.47l-2.9.06c-5.86.17-11.53.46-16.43,2.45-7,2.85-13,9.55-16.31,18.39-2.38,6.29-3.38,13.09-4,19.88,0,1.76,0,3.51,0,5.27,3.73,3.32,13.61,12,24.21,20.49,7.55,6.06,13.31,10.27,17.72,13.24.17-3,1.09-4.25,2.44-5a35.86,35.86,0,0,1,6.28-2.25c-.63-.42-1.16-.81-1.55-1.11-.21-.16-.39-.29-.52-.37-2-1.34-2.37-3.48-2.5-16.32,0-2.15,0-4.81-.12-5.57a3.69,3.69,0,0,1,.35-2.79c.5-.88,1.38-2.43,8.35-4.18-2.68-8.48-6-15.89-10.91-20.37l.1-.1a49.34,49.34,0,0,0-10.59,7.23c3.64-10.8,18.76-18.09,28.92-10.94A31,31,0,0,0,540.72,466c8.21,9.23,12,24.66,15.63,39.64C559,516.46,561.7,527.57,566,535c4.93,6.58,10,11.37,12.15,11,4.37-.76,12.41-11.23,19.5-20.47,9.1-11.86,19.42-25.31,30.2-31.33,12.09-6.77,19.27-14.9,21.95-24.87,3.59-13.34-.88-30.42-13.26-50.75l-.38-.61-.07-.71c-1-9.74-8.82-18.47-18.53-20.76S596.8,398.54,591.36,406.74Zm29.9,17.6c8,4,12.5,10.91,12.92,20,.89,19.05-16.18,42.59-27.86,49.81l-15,9.29,10.62-14c3.18-4.16,3.52-10.82.94-17.8a78.11,78.11,0,0,0-4.48-9.16c-5.38-9.95-12.07-22.33-4.85-32.83C599.38,421.11,612.59,420,621.26,424.34Zm-17.08,5a16.9,16.9,0,0,1,6.05-1.07,18.06,18.06,0,0,1,8,1.8c6,3,9,7.72,9.34,14.51.56,12.17-7.78,27.24-16.41,36.75a27,27,0,0,0-.13-3.46c7.18-9.37,13.26-21.93,12.76-32.37-.31-6.79-3.36-11.53-9.32-14.51a18.15,18.15,0,0,0-8-1.8A19.09,19.09,0,0,0,604.18,429.36ZM578.11,275.65c-6.07,8.38-7.87,20.7-4.27,29.59a106.21,106.21,0,0,0-38.67-21.07c-.92-.26-1.84-.52-2.77-.76,0-5.23,4.86-12.07,8.91-16,5.82-5.62,16.68-10.14,26.27-10.56A82,82,0,0,0,578.11,275.65ZM281,175h.18l12.47-.71a4.31,4.31,0,0,0,.61-.1l5.94-1.56L332,188.9a3.12,3.12,0,0,0,1.41.34,3.16,3.16,0,0,0,1.5-.39l8.6-4.77a3,3,0,0,0-.09-5.35l-36.41-18.59a3.12,3.12,0,0,0-1.41-.34,3,3,0,0,0-1,.18l-5.5,2,4.58-3.63a3.08,3.08,0,0,0,1.14-2.13l3.23-40.51a3.06,3.06,0,0,0-3.06-3.28,3.16,3.16,0,0,0-1.51.38l-8.59,4.77a3,3,0,0,0-1.56,2.42L290.5,155.4,286,159.61a3.39,3.39,0,0,0-.39.46l-7.17,10.15a3,3,0,0,0-.17,3.23A3.08,3.08,0,0,0,281,175Zm-1.44-4,7.17-10.15a1.94,1.94,0,0,1,.23-.26l4.84-4.56,2.87-35.95a1.72,1.72,0,0,1,.89-1.38l8.6-4.77a1.76,1.76,0,0,1,2.61,1.65l-3.24,40.51a1.69,1.69,0,0,1-.65,1.22l-10.72,8.5,12.91-4.58a2,2,0,0,1,.59-.1,1.89,1.89,0,0,1,.81.19l36.4,18.59a1.74,1.74,0,0,1,.95,1.52,1.71,1.71,0,0,1-.9,1.54l-8.59,4.77a1.81,1.81,0,0,1-1.67,0l-32.31-16.5-6.43,1.69a1.34,1.34,0,0,1-.35,0l-12.46.72H281a1.76,1.76,0,0,1-1.53-.89A1.73,1.73,0,0,1,279.54,171Zm97.88-60.3,11.16,5.58a4.07,4.07,0,0,0,.58.22l5.94,1.61,18.81,29a3.09,3.09,0,0,0,2.59,1.4h.07a3.08,3.08,0,0,0,2.59-1.52c1.51-2.6,3.07-5.19,4.64-7.69a3.05,3.05,0,0,0,0-3.25l-16.43-25.29a3.15,3.15,0,0,0-2-1.35l-5.77-1,5.78-.86a3.05,3.05,0,0,0,2.08-1.29l23.16-33.44a3,3,0,0,0,.19-3.11,3.06,3.06,0,0,0-2.68-1.65l-9.85-.15h0a3.07,3.07,0,0,0-2.54,1.32L395.38,98.36l-6,1.42a3.06,3.06,0,0,0-.58.2l-11.31,5.22a3,3,0,0,0-.09,5.47Zm.64-4.29,11.32-5.22a1.28,1.28,0,0,1,.33-.11l6.47-1.54,20.56-29.67a1.74,1.74,0,0,1,1.45-.76h0l9.85.15a1.74,1.74,0,0,1,1.53.94,1.7,1.7,0,0,1-.11,1.78L406.32,105.4a1.75,1.75,0,0,1-1.18.73l-13.57,2,13.51,2.47a1.72,1.72,0,0,1,1.16.76l16.43,25.29a1.72,1.72,0,0,1,0,1.86c-1.58,2.52-3.15,5.12-4.66,7.73a1.75,1.75,0,0,1-1.48.87h0a1.75,1.75,0,0,1-1.48-.8L395.94,117l-6.44-1.74a1.75,1.75,0,0,1-.32-.12L378,109.5a1.73,1.73,0,0,1,.05-3.12ZM347.85,510.22a3.43,3.43,0,0,0-.25-.55l-3.07-5.33,6.52-30.23a3,3,0,0,0-.75-2.7c-2.24-2.41-4.5-4.91-6.71-7.42a3.07,3.07,0,0,0-2.32-1.05,2.86,2.86,0,0,0-.77.1,3,3,0,0,0-2.23,2.31L330.59,501a3,3,0,0,0,.47,2.36l3.31,4.76-4.65-3.42a3.13,3.13,0,0,0-1.83-.6,3.64,3.64,0,0,0-.56.05l-40.16,7.32a3,3,0,0,0-1.66,5.1l6.87,7a3.11,3.11,0,0,0,2.21.93,3.53,3.53,0,0,0,.56,0l35.14-6.4,5.25,3.21a3.1,3.1,0,0,0,.55.26l11.72,4.28a3,3,0,0,0,1.06.19,3.06,3.06,0,0,0,2.14-.86,3,3,0,0,0,.78-3.14Zm2.24,14a1.75,1.75,0,0,1-1.22.49,1.87,1.87,0,0,1-.61-.11l-11.72-4.28a1.77,1.77,0,0,1-.31-.15l-5.68-3.47-35.64,6.49-.32,0a1.72,1.72,0,0,1-1.26-.53l-6.87-7a1.72,1.72,0,0,1-.41-1.74,1.77,1.77,0,0,1,1.35-1.18l40.17-7.32a1.77,1.77,0,0,1,.32,0,1.73,1.73,0,0,1,1.05.34l11,8.09-7.79-11.22a1.7,1.7,0,0,1-.28-1.35l7.68-35.63a1.74,1.74,0,0,1,1.28-1.32,1.72,1.72,0,0,1,.44-.06,1.8,1.8,0,0,1,1.33.6c2.21,2.52,4.48,5,6.73,7.46a1.69,1.69,0,0,1,.43,1.53l-6.62,30.72,3.32,5.76a3.09,3.09,0,0,1,.14.32l3.94,11.79A1.73,1.73,0,0,1,350.09,524.22ZM704.91,36.68a1.32,1.32,0,0,0-1-.81,226.78,226.78,0,0,0-37.76-3,304.27,304.27,0,0,0-70.76,8.76,289.85,289.85,0,0,0-66.56,24.91,254.65,254.65,0,0,0-68.21,52.85,2.93,2.93,0,0,0,.36-.9c.17-.24.35-.49.57-.75a3,3,0,0,0,.5-3l-2-5.27a3,3,0,0,0-1.7-1.74L453,105.5l5.86.36H459a3.09,3.09,0,0,0,2.1-.83L491,77.17a3,3,0,0,0,.86-3A3.06,3.06,0,0,0,489.6,72L480,69.8a3.17,3.17,0,0,0-.69-.08,3.09,3.09,0,0,0-2.1.83L451.05,94.94l-6.16.14a3.17,3.17,0,0,0-.61.07L432.09,97.9a3.07,3.07,0,0,0-2.31,2.28,3,3,0,0,0,1.06,3l9.7,7.77a3.48,3.48,0,0,0,.51.34l5.46,2.8,3.38,9a3.11,3.11,0,0,0,2.31,1.93,3.66,3.66,0,0,0,.57,0,3.06,3.06,0,0,0,2.29-1l0,0,0,0c.18-.2.35-.39.53-.57a21.33,21.33,0,0,1,2.33-1.86c.62-.44,1.26-.91,1.89-1.42a252.28,252.28,0,0,0-30,40.52c-32,3.05-65.33,18.26-91.6,41.81-28.94,25.94-45.82,59.13-47.54,93.45-1.93,38.33,6.92,75.6,26.3,110.78,15.46,28.08,33.52,48.82,45.75,62a1.33,1.33,0,0,0,1.85.09,1.29,1.29,0,0,0,.11-1.83c-6.24-7.05-61-71.33-61-158.48,0-65.17,57.44-113.91,113.83-124.28-.62,1.35-1.24,2.72-1.83,4.08-1.63,3.75,1.15,6.59,5.37,10.89l.07.07c4.47,4.58,11.23,11.51,14.05,20,1.83,5.55,2.15,13.73,2.46,21.65.27,7.05.53,13.71,1.92,18.9,1.66,6.21,4.8,9.37,9.58,9.63h.08a1.31,1.31,0,0,0,1.31-1.23l.37-6.45a1.32,1.32,0,0,0-.33-.95,1.35,1.35,0,0,0-.91-.43s-1.14-.6-1.95-7.1c-.51-4.08-.7-9-.85-12.66v-.22c-.34-8.49-.68-17.27-2.89-23.95-3.51-10.59-11.17-18.41-16.25-23.59-1-1-2-2.08-2.73-2.87A244.51,244.51,0,0,1,533.23,74.5c39.27-20.9,86.44-32.88,129.42-32.88a219.7,219.7,0,0,1,22.45,1.12c-42.05,16-94.49,39-137.64,75.19-46.9,39.32-75.76,88.85-81.25,139.47l-1.27,11.74a1.32,1.32,0,0,0,2.36.92l7.2-9.47c16.37-21.54,36.47-44.33,59.73-67.76,19,8.39,61,59.24,70.61,94.52a82.53,82.53,0,0,1-33.1-32.6,67.57,67.57,0,0,1-7.85-24.56,1.31,1.31,0,0,0-1.31-1.16h-.06a1.31,1.31,0,0,0-1.25,1.29,70.68,70.68,0,0,0,2.53,19.32,45.33,45.33,0,0,0-28,12.28c-3.33,3.22-9.61,11-10.89,18.48a106.82,106.82,0,0,0-19.24-1.73,118.7,118.7,0,0,0-20.31,1.8,1.3,1.3,0,0,0,.23,2.58h.12c3.7-.33,7.45-.5,11.15-.5a116.42,116.42,0,0,1,37.06,5.89,99.19,99.19,0,0,1,32.6,18.08c10.42,8.75,19.61,20.43,28.09,35.71a38.41,38.41,0,0,1,2,4.64c2.3,12.05,7.61,25.24,16.67,41.35l-1,0c-11,0-21.76,5.62-27.53,14.31a57.78,57.78,0,0,0-5.51,11.67,49.46,49.46,0,0,1-4.61,9.94c-4,6-11.23,10.49-20.44,12.71-7.8,1.87-16.16,2.06-24.23,2.24l-2.91.08c-6.61.17-13,.52-19.24,3-8.42,3.41-15.54,10.85-19.79,20.6a173.69,173.69,0,0,0-12.88-33.38A232.19,232.19,0,0,0,462.2,407a120.38,120.38,0,0,0,25,7.71,1.06,1.06,0,0,0,.25,0,1.31,1.31,0,0,0,1.21-.79,1.28,1.28,0,0,0-.45-1.57c-3.12-2.19-6.31-4.31-9.68-6.57-19.18-12.81-39-26.05-45.14-47.94-6.91-24.68,6.86-51,22.57-64.94a1.3,1.3,0,0,0,.23-1.68,1.32,1.32,0,0,0-1.11-.59,1.37,1.37,0,0,0-.52.1c-11.24,4.85-21.1,13.89-27.76,25.46A65,65,0,0,0,418,352.41c-19.95,50.89-23.74,104.12-10.68,149.92,5.91,20.73,16.54,39.49,26.82,57.64l3.67,6.5a1.31,1.31,0,0,0,1.15.67,1.43,1.43,0,0,0,.5-.09,1.3,1.3,0,0,0,.77-1.56c-15.61-56.11-11.87-115.69,10-159.92,8.76,12.58,31.23,48.05,32.3,81.86-.22,2.21-.4,4.39-.52,6.05l-.14,1.56a1.35,1.35,0,0,0,.43,1.08l1.19,1.06,0,0c1.32,1.2,13.34,12,26.22,22.27a244.25,244.25,0,0,0,22.1,16.12c.13.73.26,1.48.42,2.29a97.35,97.35,0,0,0,4.86,17.23c1.37,3.06,3.2,4.62,5.46,4.62a5.52,5.52,0,0,0,1.49-.23c.42-.13,2-.91,3.64-1.7A32.79,32.79,0,0,0,559.46,565a14.75,14.75,0,0,0,4.59.83,7.7,7.7,0,0,0,4.18-1.12c2.17-1.39,5.11-5.09,8.77-11a8.22,8.22,0,0,0,1.07.07,9.49,9.49,0,0,0,1.42-.11c7.46-1.3,15-11.08,24.46-23.46,8.66-11.28,18.45-24,27.79-29.25,14-7.85,22.43-17.54,25.69-29.64,4.09-15.25-.5-34-13.63-55.87-1.44-10.14-8.53-19.59-18.17-24.24-28.06-46.77-24.61-66.52-10.8-97.51l.39-.89a1.3,1.3,0,0,0,.1-.75l-.17-1c-3.2-17.71-13.95-43.29-28.06-66.79s-28.32-39.65-39.22-44.61c9.76-8.88,63.77-57.77,94.18-80,21.42-15.64,36.45-29.89,55.46-52.6L704.72,38A1.27,1.27,0,0,0,704.91,36.68ZM459.73,118a1.74,1.74,0,0,1-.62,1.14c-.62.52-1.27,1-1.9,1.44a20.67,20.67,0,0,0-2.49,2c-.21.21-.41.43-.61.65l0,0a1.77,1.77,0,0,1-1.31.58,1.66,1.66,0,0,1-.32,0,1.76,1.76,0,0,1-1.32-1.11l-3.57-9.48-5.9-3a1.81,1.81,0,0,1-.29-.19l-9.7-7.77a1.73,1.73,0,0,1-.61-1.75,1.75,1.75,0,0,1,1.32-1.3l12.19-2.74a2.11,2.11,0,0,1,.35-.05l6.66-.15L478.11,71.5a1.75,1.75,0,0,1,1.2-.47,1.81,1.81,0,0,1,.4,0l9.59,2.2a1.74,1.74,0,0,1,1.3,1.24,1.72,1.72,0,0,1-.49,1.71l-29.89,27.87a1.75,1.75,0,0,1-1.2.47h-.11l-13.71-.85,12.67,5.22a1.74,1.74,0,0,1,1,1l2,5.27a1.7,1.7,0,0,1-.29,1.7A10.1,10.1,0,0,0,459.73,118ZM696.5,46.3c-18.91,22.58-33.87,36.78-55.23,52.38-33.8,24.7-95.82,81.48-95.82,81.48,23.44,8,61.79,74.53,68.4,111.18l.17,1-.39.89c-14,31.39-17.48,51.58,11.07,99.05,9.39,4.38,16.5,13.54,17.83,23.67,13.06,21.62,17.63,40.15,13.63,55.09-3.16,11.74-11.35,21.18-25.07,28.84-9.58,5.37-19.47,18.25-28.19,29.6-9.33,12.16-16.7,21.75-23.63,23a6.78,6.78,0,0,1-1.2.1,8.61,8.61,0,0,1-1.73-.21c-2.5,4.12-6.2,9.68-8.82,11.36a6.4,6.4,0,0,1-3.47.91,13.59,13.59,0,0,1-4.18-.77A30.41,30.41,0,0,1,548,556.2c-2.37,1.2-4.06,2-4.3,2.06a4.06,4.06,0,0,1-1.12.17c-1.7,0-3.12-1.29-4.25-3.83-1.54-3.47-3.5-10.45-4.78-17-.2-1-.35-1.95-.51-2.83a234.92,234.92,0,0,1-22.47-16.34c-13.6-10.88-26.08-22.15-26.21-22.26l-1.19-1.06.14-1.57c.16-2,.32-4.06.53-6.11C483,458.31,466,425.34,450,403c-25.17,49.26-25.42,111.14-11,162.82C427.31,545.06,415.17,525,408.62,502c-14-48.91-7.74-102.36,10.75-149.35-1.75-24.48,12.65-50.77,35.68-60.71-17.74,15.78-29.54,42.75-23,66.26,7.34,26.25,34.37,40.57,55.33,55.22a117,117,0,0,1-28.88-9.55A231.9,231.9,0,0,1,473.93,430a169.78,169.78,0,0,1,13.78,37.15c.19-.55.38-1.1.6-1.63,4-10.52,11.25-18.59,20-22.12,5.94-2.4,12.27-2.76,18.77-2.93l2.91-.07c8.18-.19,16.64-.4,24.51-2.29,9.53-2.29,17.07-7,21.23-13.25a50.77,50.77,0,0,0,4.74-10.19,57.31,57.31,0,0,1,5.38-11.43c5.67-8.54,16.07-13.72,26.43-13.72a31,31,0,0,1,3.33.18c-9.78-17-15.4-30.78-17.75-43.16a40.61,40.61,0,0,0-2.11-4.92c-7.41-13.34-16.57-26.14-28.4-36.08a100.77,100.77,0,0,0-33-18.32,118.3,118.3,0,0,0-37.48-5.95q-5.64,0-11.27.5A116.57,116.57,0,0,1,505.62,280a105.26,105.26,0,0,1,20.37,2c.58-7.17,6.88-15.42,10.68-19.09a44,44,0,0,1,28.85-12,69.58,69.58,0,0,1-2.94-20.53,69.12,69.12,0,0,0,8,25c7.95,14.71,20.93,26.8,36.24,34.49-8.18-36.17-53.27-90.89-72.91-98.58-23,23.13-43.74,46.54-60.46,68.53l-7.2,9.47,1.27-11.74c5.45-50.29,34.15-99.51,80.8-138.62,44.36-37.19,99-60.58,142.25-76.86a216.88,216.88,0,0,0-27.92-1.75c-43.65,0-90.59,12-130,33A245.78,245.78,0,0,0,423.48,190.29c.71.88,2.13,2.34,3.33,3.56,5,5.1,12.54,12.82,15.94,23.09,2.16,6.54,2.5,15.28,2.83,23.74.32,7.82.83,20.91,4.05,21.08l-.37,6.45c-9.21-.51-9.73-13.51-10.27-27.28-.31-8-.65-16.32-2.52-22-2.93-8.87-9.85-15.93-14.43-20.62-4-4.07-6.38-6.51-5.11-9.46q1.4-3.18,2.87-6.31c-58.42,9.59-117.39,60.55-117.39,126,0,87.77,55.31,152.51,61.36,159.34-12.39-13.33-30.35-34.09-45.57-61.72-20.16-36.61-28-73.6-26.14-110.09,3.69-73.68,75.73-128.44,138.63-134.09a253.2,253.2,0,0,1,98.76-94.29c40.25-21.42,90.88-33.52,136.7-33.52a226,226,0,0,1,37.53,3ZM325,136.52,337.25,139a4.2,4.2,0,0,0,.62.07l6.15,0,26.56,23.92a3.06,3.06,0,0,0,2.06.79,3.22,3.22,0,0,0,.76-.09l9.55-2.39a3.05,3.05,0,0,0,2.22-2.21,3,3,0,0,0-.91-3l-30.34-27.32a3.05,3.05,0,0,0-2.07-.8h-.25l-5.83.47,5.36-2.32a3.05,3.05,0,0,0,1.67-1.78l13.66-38.28a3,3,0,0,0-.63-3.06,3.09,3.09,0,0,0-2.27-1,3.2,3.2,0,0,0-.75.09l-9.55,2.39a3.05,3.05,0,0,0-2.14,1.94l-12,33.5-5.41,2.91a3.48,3.48,0,0,0-.51.34l-9.57,8a3,3,0,0,0,1.35,5.3Zm-.5-4.3,9.57-8,.29-.2,5.85-3.15,12.13-34a1.71,1.71,0,0,1,1.22-1.1l9.55-2.39a1.59,1.59,0,0,1,.43-.06,1.76,1.76,0,0,1,1.3.57,1.73,1.73,0,0,1,.36,1.75L351.56,124a1.75,1.75,0,0,1-.95,1L338,130.45l13.68-1.1h.14a1.75,1.75,0,0,1,1.18.45l30.35,27.32a1.76,1.76,0,0,1,.52,1.71,1.74,1.74,0,0,1-1.28,1.26l-9.55,2.39a1.54,1.54,0,0,1-.43.05,1.74,1.74,0,0,1-1.18-.45l-26.93-24.25-6.66,0-.35,0-12.23-2.52A1.74,1.74,0,0,1,324,134,1.69,1.69,0,0,1,324.52,132.22Zm259.1,75,4.8,8.56a3.08,3.08,0,0,0,2.69,1.56h0a3,3,0,0,0,2.68-1.66l18.63-36.19a3,3,0,0,0,.16-2.4l-2-5.41,3.59,4.47a3,3,0,0,0,2.15,1.14l40.72,3.28h.25a3.08,3.08,0,0,0,2.59-1.39,3,3,0,0,0,.1-3.12l-4.81-8.57a3.06,3.06,0,0,0-2.43-1.55l-35.63-2.88L613,158.66a2.88,2.88,0,0,0-.46-.39l-10.21-7.15a3.08,3.08,0,0,0-1.78-.56,3.11,3.11,0,0,0-1.49.38,3,3,0,0,0-1.57,2.84l.73,12.4a4,4,0,0,0,.1.6l1.58,5.94L583.56,204.4A3,3,0,0,0,583.62,207.26Zm1.12-2.27,16.53-32.13-1.71-6.41a2,2,0,0,1,0-.34l-.74-12.41a1.74,1.74,0,0,1,.9-1.62,1.85,1.85,0,0,1,.85-.22,1.81,1.81,0,0,1,1,.32l10.21,7.15a1.43,1.43,0,0,1,.26.23l4.59,4.81,36.13,2.92a1.72,1.72,0,0,1,1.39.89l4.81,8.56a1.73,1.73,0,0,1-.06,1.78,1.75,1.75,0,0,1-1.48.8h-.14L616.53,176a1.71,1.71,0,0,1-1.23-.65l-8.52-10.64,4.61,12.83a1.72,1.72,0,0,1-.09,1.37l-18.63,36.19a1.75,1.75,0,0,1-1.53,1h0a1.76,1.76,0,0,1-1.54-.89l-4.8-8.57A1.69,1.69,0,0,1,584.74,205ZM288,485.26l10.21,7.15A3.06,3.06,0,0,0,300,493a3.11,3.11,0,0,0,1.49-.38,3.06,3.06,0,0,0,1.57-2.84l-.74-12.41a2.9,2.9,0,0,0-.09-.59l-1.58-5.94,16.3-31.68a3,3,0,0,0,0-2.86l-4.8-8.56a3.08,3.08,0,0,0-2.69-1.56h-.05a3.07,3.07,0,0,0-2.69,1.66L288,464a3,3,0,0,0-.16,2.4l2,5.41-3.59-4.47a3.1,3.1,0,0,0-2.16-1.15l-40.72-3.27h-.25a3.07,3.07,0,0,0-2.58,1.39,3,3,0,0,0-.1,3.12l4.8,8.57a3.06,3.06,0,0,0,2.44,1.55l35.63,2.87,4.24,4.45A2.93,2.93,0,0,0,288,485.26Zm-40.22-9a1.74,1.74,0,0,1-1.39-.89l-4.81-8.56a1.7,1.7,0,0,1,.06-1.78,1.75,1.75,0,0,1,1.47-.8h.15l40.72,3.28a1.76,1.76,0,0,1,1.23.66l8.52,10.63L289.08,466a1.72,1.72,0,0,1,.09-1.37L307.8,428.4a1.75,1.75,0,0,1,1.53-.95h0a1.76,1.76,0,0,1,1.54.89l4.8,8.57a1.69,1.69,0,0,1,0,1.63l-16.54,32.12,1.71,6.42a2,2,0,0,1,.06.34l.74,12.41a1.74,1.74,0,0,1-.9,1.62,1.85,1.85,0,0,1-.85.22,1.79,1.79,0,0,1-1-.32l-10.21-7.15a2,2,0,0,1-.27-.23l-4.58-4.81Zm.11-252.61a3.17,3.17,0,0,0,1-.15l11.85-3.9a3.64,3.64,0,0,0,.57-.25l5.33-3,35,7.52a3.5,3.5,0,0,0,.65.07,3.08,3.08,0,0,0,2.15-.87l7.06-6.82a3,3,0,0,0,.8-3,3.06,3.06,0,0,0-2.3-2.13l-40-8.59a3.5,3.5,0,0,0-.65-.07,3,3,0,0,0-1.75.55l-4.78,3.28,3.46-4.67a3,3,0,0,0,.55-2.35l-7.42-40a3,3,0,0,0-2.09-2.35,2.92,2.92,0,0,0-.93-.15,3.08,3.08,0,0,0-2.15.87l-7.06,6.82a3,3,0,0,0-.87,2.73l6.48,35-3.22,5.22a3.94,3.94,0,0,0-.26.55L245,219.55a3,3,0,0,0,.68,3.16A3.1,3.1,0,0,0,247.85,223.63ZM246.2,220l4.29-11.66a2.2,2.2,0,0,1,.15-.31l3.48-5.65-6.58-35.48a1.72,1.72,0,0,1,.5-1.56l7.06-6.82a1.79,1.79,0,0,1,1.23-.49,1.59,1.59,0,0,1,.53.08,1.74,1.74,0,0,1,1.2,1.34l7.41,40a1.69,1.69,0,0,1-.31,1.34l-8.14,11L268.29,204a1.69,1.69,0,0,1,1-.31,1.55,1.55,0,0,1,.37,0l40,8.59a1.73,1.73,0,0,1,.86,2.94l-7.06,6.82a1.77,1.77,0,0,1-1.23.49,1.55,1.55,0,0,1-.37,0l-35.49-7.62-5.77,3.29a1.83,1.83,0,0,1-.32.14l-11.85,3.9a1.77,1.77,0,0,1-.56.09A1.74,1.74,0,0,1,246.2,220Zm4.35,217.34a3.16,3.16,0,0,0,.34.5l8,9.53a3.07,3.07,0,0,0,2.36,1.1,3.14,3.14,0,0,0,.75-.09,3.08,3.08,0,0,0,2.26-2.34l2.51-12.17a3.07,3.07,0,0,0,.07-.6v-6.14l24-26.39a3,3,0,0,0,.7-2.77l-2.42-9.51a3.08,3.08,0,0,0-5.26-1.29l-27.42,30.15a3.08,3.08,0,0,0-.78,2.28l.48,5.71-2.3-5.24a3.08,3.08,0,0,0-1.78-1.65l-38.5-13.66a3.29,3.29,0,0,0-1-.17,3.1,3.1,0,0,0-2.06.78,3.05,3.05,0,0,0-.92,3l2.42,9.5a3,3,0,0,0,1.94,2.12l33.69,12Zm-37.29-19.78-2.42-9.51a1.72,1.72,0,0,1,.52-1.71,1.74,1.74,0,0,1,1.18-.45,1.7,1.7,0,0,1,.59.1l38.5,13.65a1.77,1.77,0,0,1,1,.95l5.47,12.46L257,419.49a1.73,1.73,0,0,1,.44-1.3L284.85,388a1.78,1.78,0,0,1,1.31-.57,1.51,1.51,0,0,1,.42,0,1.74,1.74,0,0,1,1.28,1.26l2.42,9.51a1.72,1.72,0,0,1-.4,1.58l-24.33,26.76,0,6.63a1.34,1.34,0,0,1,0,.35L263,445.77a1.73,1.73,0,0,1-1.29,1.34,1.58,1.58,0,0,1-.43.05,1.77,1.77,0,0,1-1.35-.62l-8-9.54a1.38,1.38,0,0,1-.19-.28l-3.18-5.83-34.16-12.12A1.75,1.75,0,0,1,213.26,417.56Zm14-35.62a2.59,2.59,0,0,0,.2.57l5.26,11.26a3.09,3.09,0,0,0,2.74,1.77h.05a3.08,3.08,0,0,0,2.75-1.68l5.59-11.1a3,3,0,0,0,.21-.57l1.61-5.92L275.68,357a3.05,3.05,0,0,0,1.4-2.51l.13-9.8a3,3,0,0,0-1.58-2.7,3.1,3.1,0,0,0-3.16.11l-34.33,22a3.07,3.07,0,0,0-1.36,2l-1,5.63-.86-5.66a3.09,3.09,0,0,0-1.29-2.05L200,341a3,3,0,0,0-1.75-.54,3.14,3.14,0,0,0-1.41.33,3,3,0,0,0-1.66,2.66l-.14,9.8a3,3,0,0,0,1.32,2.54L225.77,376Zm-30.89-28.71.13-9.8a1.74,1.74,0,0,1,1-1.52,1.71,1.71,0,0,1,.8-.19,1.74,1.74,0,0,1,1,.31l33.65,23.09a1.74,1.74,0,0,1,.73,1.17l2,13.45,2.44-13.38a1.75,1.75,0,0,1,.77-1.14l34.33-22.05a1.76,1.76,0,0,1,1-.28,1.76,1.76,0,0,1,1.76,1.76l-.14,9.8a1.76,1.76,0,0,1-.8,1.44l-30.48,19.56-1.74,6.4a1.75,1.75,0,0,1-.12.32L237,393.27a1.77,1.77,0,0,1-1.57,1h0a1.76,1.76,0,0,1-1.57-1L228.6,382a1.17,1.17,0,0,1-.11-.33l-1.56-6.45-29.86-20.5A1.72,1.72,0,0,1,196.32,353.23Zm22.9-36.93-.16,6.14a3,3,0,0,0,.05.6l2.15,12.23a3.07,3.07,0,0,0,2.19,2.41,3.34,3.34,0,0,0,.84.11,3.07,3.07,0,0,0,2.3-1l8.29-9.27a3.43,3.43,0,0,0,.36-.49l3.09-5.3,34-10.89a3,3,0,0,0,2-2.07l2.68-9.42a3,3,0,0,0-.83-3,3.05,3.05,0,0,0-2.13-.85,3,3,0,0,0-.94.15L234.27,308a3.07,3.07,0,0,0-1.84,1.6L230,314.82l.64-5.71a3,3,0,0,0-.71-2.3l-26.5-31a3.1,3.1,0,0,0-2.35-1.07,2.81,2.81,0,0,0-.65.07,3.07,3.07,0,0,0-2.31,2.14l-2.68,9.43a3,3,0,0,0,.62,2.79Zm-22.54-29.54,2.68-9.42a1.76,1.76,0,0,1,1.32-1.23,1.55,1.55,0,0,1,.37,0,1.78,1.78,0,0,1,1.34.61l26.51,31a1.69,1.69,0,0,1,.4,1.31l-1.52,13.53,5.84-12.29a1.77,1.77,0,0,1,1-.92l38.91-12.44a1.7,1.7,0,0,1,.54-.09,1.75,1.75,0,0,1,1.22.49,1.7,1.7,0,0,1,.47,1.72l-2.68,9.43a1.74,1.74,0,0,1-1.15,1.18l-34.54,11.05-3.34,5.72a1.46,1.46,0,0,1-.21.28l-8.29,9.28a1.76,1.76,0,0,1-1.31.59,1.59,1.59,0,0,1-.48-.07,1.72,1.72,0,0,1-1.25-1.37l-2.16-12.24a1.88,1.88,0,0,1,0-.34l.17-6.63L197,288.36A1.72,1.72,0,0,1,196.68,286.76Zm491.81-61.11a3.08,3.08,0,0,0-1.94-2.12l-33.69-11.95-2.94-5.39a3.39,3.39,0,0,0-.34-.5l-8-9.53a3.08,3.08,0,0,0-5.37,1.33l-2.52,12.17a3.05,3.05,0,0,0-.06.6v6.14l-24,26.38a3,3,0,0,0-.7,2.78l2.42,9.51a3.08,3.08,0,0,0,3,2.29,3.07,3.07,0,0,0,2.28-1L644,226.21a3,3,0,0,0,.77-2.28l-.47-5.71,2.3,5.24a3.08,3.08,0,0,0,1.78,1.65l38.5,13.65a3,3,0,0,0,1,.18,3.08,3.08,0,0,0,2.06-.79,3,3,0,0,0,.91-3Zm.61,11.54a1.77,1.77,0,0,1-1.17.45,1.8,1.8,0,0,1-.6-.1l-38.49-13.66a1.72,1.72,0,0,1-1-.94l-5.47-12.46L643.47,224a1.74,1.74,0,0,1-.44,1.3l-27.42,30.15a1.74,1.74,0,0,1-1.3.57,2,2,0,0,1-.42-.05,1.73,1.73,0,0,1-1.28-1.26l-2.42-9.51a1.72,1.72,0,0,1,.4-1.58l24.33-26.76,0-6.64a2,2,0,0,1,0-.34l2.52-12.17a1.72,1.72,0,0,1,1.29-1.33,1.54,1.54,0,0,1,.43-.06,1.78,1.78,0,0,1,1.35.63l8,9.53a1.81,1.81,0,0,1,.19.29l3.18,5.83,34.16,12.12a1.75,1.75,0,0,1,1.11,1.21l2.42,9.51A1.73,1.73,0,0,1,689.1,237.19ZM228.42,257l-1.75,5.88a2.36,2.36,0,0,0-.11.59l-1.11,12.37a3.07,3.07,0,0,0,1.49,2.88,3.12,3.12,0,0,0,1.58.43,3.08,3.08,0,0,0,1.69-.51l10.43-6.82a2.89,2.89,0,0,0,.47-.38l4.36-4.32,35.74-1.74a3.06,3.06,0,0,0,2.49-1.49l5-8.33a3.17,3.17,0,0,0,.21-.41l0-.06a3.05,3.05,0,0,0-.35-2.91,3.09,3.09,0,0,0-2.5-1.29h-.14l-40.83,2a3.07,3.07,0,0,0-2.19,1.08l-3.74,4.38L241.3,253a3,3,0,0,0-.09-2.4l-17.56-36.73a3,3,0,0,0-2.63-1.73h-.15a3.1,3.1,0,0,0-2.64,1.49l-5,8.41a3,3,0,0,0-.14,2.85Zm-14.1-34.33,5.05-8.41a1.74,1.74,0,0,1,1.5-.85H221a1.75,1.75,0,0,1,1.5,1L240,251.13a1.7,1.7,0,0,1,0,1.38l-5,12.68,8.85-10.37a1.8,1.8,0,0,1,1.26-.62l40.82-2h.08a1.76,1.76,0,0,1,1.63,2.41l0,0-.12.23-5,8.34a1.76,1.76,0,0,1-1.42.85l-36.25,1.77-4.72,4.66a1.13,1.13,0,0,1-.27.22l-10.43,6.83a1.8,1.8,0,0,1-1.86,0,1.73,1.73,0,0,1-.85-1.65l1.1-12.36a1.86,1.86,0,0,1,.06-.34l1.9-6.36-15.59-32.59A1.72,1.72,0,0,1,214.32,222.68Z" fill="#fff"/>
  </g>
</svg>
