<svg id="Layer_1" data-name="Layer 1" xmlns="http://www.w3.org/2000/svg" viewBox="0 0 900 600">
  <title>logo</title>
  <rect width="900" height="600" fill="#f15a24"/>
  <g>
    <g>
      <path d="M155.47,226.67l-8.52.16h-3.84V255.9H116.72V163.4h39.42c25.39,0,39.92,12.55,39.92,31.88,0,14-7.18,22.3-15.7,26.1l21.22,34.52h-28.4Zm2.17-19.83c7.69,0,11.36-3.63,11.36-9.91,0-6.11-3.51-9.91-11.36-9.91H143.11v19.82Z" fill="#fff"/>
      <path d="M332.62,163.4H358v92.5H332.62Z" fill="#fff"/>
      <path d="M753.61,187.68V255.9H727.05V187.68H697.32V163.4h86v24.28Z" fill="#fff"/>
    </g>
    <g>
      <path d="M184.3,432.12c0-6,.16-6.52.16-7.47h-.32c-4.61,4.77-14,9.22-25.9,9.22-25.58,0-46.24-19.08-46.24-46.41,0-26.54,19.54-46.09,48.46-46.09,19.55,0,35.75,9.06,43.06,26.22l-23,6.2c-3.81-6.36-11.44-9.7-20-9.7-14.14,0-22.88,8.43-22.88,23.53,0,14.14,9.22,23.36,26.06,23.36,7.63,0,17.16-2.54,20.5-4.93v-4.92h-23V379h45.6v53.09Z" fill="#fff"/>
      <path d="M313.75,341.37h72.83v24.28H339.84v11.23h32v20.48h-32v12.22H387.4v24.29H313.75Z" fill="#fff"/>
      <path d="M531.12,417.68,526,433.87H499.41l32.86-92.5h32.86L598,433.87H570.91l-5.12-16.19Zm23.94-34c-4.62-14.53-6.27-20.81-6.27-21.14h-.67c-.16.33-2.31,7.27-6.93,22.13l-3.3,10.74h21Z" fill="#fff"/>
      <path d="M742.42,404.63l-8.42.16h-3.8v29.08H704.11v-92.5h39c25.1,0,39.47,12.55,39.47,31.88,0,14-7.1,22.29-15.52,26.09l21,34.53H759.93Zm2.15-19.82c7.6,0,11.23-3.64,11.23-9.91,0-6.11-3.47-9.91-11.23-9.91H730.2v19.82Z" fill="#fff"/>
    </g>
  </g>
  <g>
    <path d="M559.64,230.11a27.25,27.25,0,0,0,14.75-21c1.12-10.1-4.08-20.45-12.47-25.24,2.69,7.43.88,17.72-18.8,25.75-8,3.27-9.41,13.85-4.23,21.48v0h0c2.9-8,11.34-5.37,13.38-14.21,4.67,5.38-.26,10.34,1.69,15.17A25.93,25.93,0,0,0,559.64,230.11Z" fill="#fff"/>
    <path d="M558.83,161l-3.89-8.85a54.34,54.34,0,0,0-7.15-.48,56.12,56.12,0,0,0-8.25.61l-4.19,9.8a46.26,46.26,0,0,0-11.16,4.67l-9.8-3.82a55,55,0,0,0-10.95,11.14l3.89,9.63a45.28,45.28,0,0,0-4.58,11.15L493.34,199a54.55,54.55,0,0,0-.52,7.38,55.47,55.47,0,0,0,.63,8.31l9.4,4a45.57,45.57,0,0,0,4.7,11.16l-3.71,9.44A54.86,54.86,0,0,0,515,250.33l9.47-3.8a45.81,45.81,0,0,0,11.25,4.58l4.14,9.43a55.09,55.09,0,0,0,7.86.57,55.73,55.73,0,0,0,7.8-.56l4.1-9.57a45.8,45.8,0,0,0,11.15-4.67l9.92,3.87a54.9,54.9,0,0,0,11-10.89l-4-9.92a45.51,45.51,0,0,0,4.58-11.16l10-4.37a54,54,0,0,0,0-15.17l-8.23-3.5c-1.22-11.13-.63-22,15-27.5-9.37-.13-18.13,4.31-22.6,12.6-4.74,8.77-3.81,18.33-4.27,28-.64,13.51-10.66,25.49-23.62,29.37a33.76,33.76,0,0,1-43.17-37.36,34.08,34.08,0,0,1,26.06-27.65c-3.22,6-5.58,13.1-3.49,17.71,7.47-24.44,54.32,4.07,81.4-59.32C588.58,168.68,559.69,161.24,558.83,161Z" fill="#fff"/>
  </g>
</svg>
