<svg id="Layer_1" data-name="Layer 1" xmlns="http://www.w3.org/2000/svg" viewBox="0 0 900 600">
  <title>logo</title>
  <rect width="900" height="600" fill="#045278"/>
  <g>
    <g id="TruTeam_Logo" data-name="TruTeam Logo">
      <polygon id="House_R" data-name="House R" points="749.25 500.74 749.25 500.74 749.25 507.49 787 507.49 787 483.81 772.06 467.55 767.39 471.88 780.61 486.3 780.61 500.74 749.25 500.74" fill="#b4db19"/>
      <polygon id="House_L" data-name="House L" points="765.38 460.58 765.38 460.58 769.69 465.41 755.64 477.81 755.64 491.25 777.21 491.25 777.21 497.75 749.25 497.75 749.25 474.94 765.38 460.58" fill="#fff"/>
      <path id="Tru_Team" data-name="Tru Team" d="M628,494.92h0l3.91,12.52h-1.15l-1-3.3h-4.9l-1,3.3h-1.15l4-12.52Zm1.46,8.3h0l-2.14-7.15h-.08l-2.07,7.15Zm9,4.22h1.14v-11.6h3.07v-.92h-7.27v.92h3.06Zm4.9-8.76h-1.07v8.76h1.07v-5.61a2.42,2.42,0,0,1,.62-1.76,2.72,2.72,0,0,1,1.83-.54v-1a2.94,2.94,0,0,0-1.46.31,2.44,2.44,0,0,0-1,1h0Zm7.73,0v6.23a2,2,0,0,1-.07.54,2.9,2.9,0,0,1-.38.61,2,2,0,0,1-.54.54,1.85,1.85,0,0,1-.92.23,1.23,1.23,0,0,1-.84-.31,1.85,1.85,0,0,1-.46-.69,2.46,2.46,0,0,1-.16-.69v-6.46h-1.07v6.23a4.43,4.43,0,0,0,.16,1,2,2,0,0,0,.38.92,1.8,1.8,0,0,0,.69.61,2.46,2.46,0,0,0,1.15.23,3.32,3.32,0,0,0,1.23-.3,10.06,10.06,0,0,0,.92-.85h.07v.92h.92v-8.76h-1.08Zm5.06,8.76h1.07v-11.6h3.07v-.92h-7.2v.92h3.06Zm4.53-4.15h0v.7c0,.3.07.61.07.92a2.76,2.76,0,0,0,.3.92,1.83,1.83,0,0,0,.62.69,2,2,0,0,0,1,.31,1.73,1.73,0,0,0,1.46-.62,1.65,1.65,0,0,0,.46-1.46h1.14a5.61,5.61,0,0,1-.31,1.39,2.26,2.26,0,0,1-.61.84,2.46,2.46,0,0,1-.92.54,5.65,5.65,0,0,1-1.22.15,4.47,4.47,0,0,1-1.08-.15,2.64,2.64,0,0,1-1-.54,2,2,0,0,1-.68-1,4.51,4.51,0,0,1-.24-1.61v-2.15a4.21,4.21,0,0,1,.77-2.84,2.68,2.68,0,0,1,2.23-.85,2.92,2.92,0,0,1,1.76.38,2.42,2.42,0,0,1,.92,1,4.43,4.43,0,0,1,.31,1.54c0,.54.07,1.15.07,1.84Zm4-.84h0a7.79,7.79,0,0,0-.07-1.31,4.18,4.18,0,0,0-.31-1,1.55,1.55,0,0,0-.61-.61,1.8,1.8,0,0,0-1-.23,2,2,0,0,0-1,.23,2.4,2.4,0,0,0-.62.61,4.18,4.18,0,0,0-.3,1c0,.39-.07.85-.07,1.31Zm7,3.92h-.08a2.76,2.76,0,0,1-2.45,1.3,2.21,2.21,0,0,1-1.76-.77,2.48,2.48,0,0,1-.69-1.84,2.24,2.24,0,0,1,.31-1.3,1.47,1.47,0,0,1,.61-.77,2.55,2.55,0,0,1,.92-.54,4.26,4.26,0,0,1,1-.16,6,6,0,0,1,1.07-.07,4.61,4.61,0,0,1,1-.08v-.77a2.57,2.57,0,0,0-.38-1.46,1.5,1.5,0,0,0-1.38-.61,2,2,0,0,0-1.23.38,1.41,1.41,0,0,0-.53,1.16H667a1.77,1.77,0,0,1,.3-1.08,1.35,1.35,0,0,1,.62-.69,1.65,1.65,0,0,1,.92-.46,4.44,4.44,0,0,1,1.07-.08h.77a4.08,4.08,0,0,1,.91.31,2.1,2.1,0,0,1,.77.69,3,3,0,0,1,.31,1.31v5.37a8.18,8.18,0,0,0,.07,1.23h-1.07Zm-.08-3.38h-1.22a3.06,3.06,0,0,0-1.23.23,1.74,1.74,0,0,0-.92.54,1.93,1.93,0,0,0-.38,1.22,2.38,2.38,0,0,0,.38,1.31,1.54,1.54,0,0,0,1.23.54,1.77,1.77,0,0,0,.84-.23,1.85,1.85,0,0,0,.69-.46l.46-.69a4.49,4.49,0,0,0,.15-.85Zm3.83-1.16a3.62,3.62,0,0,1,.08-.92c.08-.23.23-.54.3-.77a2.4,2.4,0,0,1,.62-.61,1.4,1.4,0,0,1,.84-.23.91.91,0,0,1,.62.23,2.49,2.49,0,0,1,.46.38,6.13,6.13,0,0,1,.22.62c0,.23.08.46.08.61v6.3h1v-5.61c0-.3.08-.61.08-.92a3.92,3.92,0,0,1,.38-.77,2.12,2.12,0,0,1,.54-.61,1.55,1.55,0,0,1,.84-.23.85.85,0,0,1,.61.23c.24.08.31.23.46.38a4.24,4.24,0,0,1,.24.62c0,.23.07.46.07.61v6.3h1v-6.53a2.74,2.74,0,0,0-.61-1.76,2,2,0,0,0-1.69-.62,2.22,2.22,0,0,0-1.22.31,2.68,2.68,0,0,0-.92,1,2,2,0,0,0-.77-1,2.06,2.06,0,0,0-1.22-.31,2.26,2.26,0,0,0-1.23.31,2.51,2.51,0,0,0-.85.92v-1.08h-1v8.76h1.07Zm19,5.38a3.34,3.34,0,0,0,1-1.07,7.19,7.19,0,0,0,.38-1.31c0-.38.08-.77.08-1h-1.22a4.84,4.84,0,0,1-.08,1.15,2.69,2.69,0,0,1-.38.93,1.23,1.23,0,0,1-.62.61,1.67,1.67,0,0,1-.92.23,3,3,0,0,1-1.54-.38,2.21,2.21,0,0,1-.76-1.16,5.39,5.39,0,0,1-.31-1.76c0-.69-.07-1.46-.07-2.31s.07-1.53.07-2.23a5.39,5.39,0,0,1,.31-1.76,2.18,2.18,0,0,1,.76-1.15,2.41,2.41,0,0,1,1.54-.39,2,2,0,0,1,1,.23,1.48,1.48,0,0,1,.61.54,3.55,3.55,0,0,1,.31.92,3.94,3.94,0,0,1,.08,1h1.14c0-.31-.07-.61-.07-1.08a2.23,2.23,0,0,0-.39-1.15,1.92,1.92,0,0,0-.92-1,2.87,2.87,0,0,0-1.76-.46,4.27,4.27,0,0,0-1.54.31,2.17,2.17,0,0,0-1.07.69,2.29,2.29,0,0,0-.68,1,6.48,6.48,0,0,0-.31,1.38,9.14,9.14,0,0,0-.15,1.54v3.3a9.14,9.14,0,0,0,.15,1.54,6.34,6.34,0,0,0,.31,1.38,2.78,2.78,0,0,0,.68,1,2.17,2.17,0,0,0,1.07.69,4.2,4.2,0,0,0,1.54.23h0A2.8,2.8,0,0,0,694.42,507.21Zm5.6.46h0a2.91,2.91,0,0,1-2.3-1A4.46,4.46,0,0,1,697,504v-1.85a4.51,4.51,0,0,1,.69-2.69,3.34,3.34,0,0,1,4.6,0,4.51,4.51,0,0,1,.68,2.69V504a4.46,4.46,0,0,1-.68,2.68A2.94,2.94,0,0,1,700,507.67Zm0-8.37h0a2.11,2.11,0,0,0-1.07.31,1.14,1.14,0,0,0-.54.76,4.14,4.14,0,0,0-.31,1.16,16.87,16.87,0,0,0,0,3.07,5.53,5.53,0,0,0,.31,1.23,1.18,1.18,0,0,0,.54.69,1.6,1.6,0,0,0,1.07.31,1.27,1.27,0,0,0,1-.31,1.29,1.29,0,0,0,.61-.69,5,5,0,0,0,.31-1.23,14.77,14.77,0,0,0,0-3.07,3.83,3.83,0,0,0-.31-1.16,1.22,1.22,0,0,0-.61-.76A1.61,1.61,0,0,0,700,499.3Zm5.51,2.53a3.62,3.62,0,0,1,.08-.92,3.5,3.5,0,0,1,.3-.77,2.4,2.4,0,0,1,.62-.61,1.38,1.38,0,0,1,.84-.23.91.91,0,0,1,.62.23.9.9,0,0,1,.37.38.88.88,0,0,1,.24.62,2.07,2.07,0,0,1,.07.61v6.3h1.07v-5.61a3.62,3.62,0,0,1,.08-.92,3.55,3.55,0,0,1,.31-.77,2.21,2.21,0,0,1,.61-.61,1.4,1.4,0,0,1,.84-.23.85.85,0,0,1,.61.23,2,2,0,0,1,.46.38,1.32,1.32,0,0,1,.16.62,1.82,1.82,0,0,1,.08.61v6.3H714v-6.53a2.74,2.74,0,0,0-.61-1.76,2,2,0,0,0-1.69-.62,2.06,2.06,0,0,0-1.22.31,2.68,2.68,0,0,0-.92,1,2,2,0,0,0-.77-1,2.24,2.24,0,0,0-1.22-.31,2.11,2.11,0,0,0-1.23.31,2.51,2.51,0,0,0-.85.92h-.07v-1.08h-.92v8.76h1.07Zm11.19-2.07h0v-.08a3.89,3.89,0,0,1,1-.92,3.18,3.18,0,0,1,1.15-.23,2.22,2.22,0,0,1,1.54.38,2,2,0,0,1,.83.93,3,3,0,0,1,.31,1.15,5.19,5.19,0,0,1,.08,1.07V504a9.32,9.32,0,0,1-.15,1.53,4.1,4.1,0,0,1-.54,1.15,2.1,2.1,0,0,1-.92.7,3.78,3.78,0,0,1-1.45.3,2.17,2.17,0,0,1-.92-.3,3.24,3.24,0,0,1-.92-.85v4.3h-1.07V498.68h1.07Zm0,4.07h0a6,6,0,0,0,.15,1.31,1.71,1.71,0,0,0,.46.92,1.26,1.26,0,0,0,.53.54,1.29,1.29,0,0,0,.7.23,1.62,1.62,0,0,0,1.07-.31,1.81,1.81,0,0,0,.61-.69,6.26,6.26,0,0,0,.23-1.23,14.77,14.77,0,0,0,0-3.07,4.75,4.75,0,0,0-.23-1.16,1.62,1.62,0,0,0-.61-.76,2.14,2.14,0,0,0-1.07-.31,1.51,1.51,0,0,0-.54.15,2.3,2.3,0,0,0-.62.54,2,2,0,0,0-.46.92,3.84,3.84,0,0,0-.22,1.38Zm10.72,2.54h0a2.89,2.89,0,0,1-2.52,1.3,2.22,2.22,0,0,1-1.77-.77,2.44,2.44,0,0,1-.61-1.84,3.15,3.15,0,0,1,.23-1.3,2,2,0,0,1,.61-.77,3.54,3.54,0,0,1,.93-.54,4.18,4.18,0,0,1,1-.16,5.92,5.92,0,0,1,1.07-.07,4.61,4.61,0,0,1,1-.08v-.77a2.07,2.07,0,0,0-.39-1.46,1.48,1.48,0,0,0-1.38-.61,2.11,2.11,0,0,0-1.22.38,1.35,1.35,0,0,0-.46,1.16h-1.15a2.55,2.55,0,0,1,.3-1.08,1.75,1.75,0,0,1,.62-.69,2.56,2.56,0,0,1,.92-.46,4.57,4.57,0,0,1,1.08-.08h.83a2.68,2.68,0,0,1,.85.31,2.18,2.18,0,0,1,.77.69,3.05,3.05,0,0,1,.3,1.31v5.37a7.17,7.17,0,0,0,.08,1.23h-1.08Zm-.07-3.38h-1.22a3.31,3.31,0,0,0-1.23.23,1.71,1.71,0,0,0-.92.54,1.93,1.93,0,0,0-.39,1.22,2.38,2.38,0,0,0,.39,1.31,1.67,1.67,0,0,0,1.23.54,1.74,1.74,0,0,0,.83-.23,1.88,1.88,0,0,0,.7-.46l.46-.69a4.49,4.49,0,0,0,.15-.85Zm3.9-1.08a3.09,3.09,0,0,1,.16-1.23,1.91,1.91,0,0,1,.38-.77,1.59,1.59,0,0,1,.62-.46,2.38,2.38,0,0,1,.68-.15,1.32,1.32,0,0,1,.77.23,1.43,1.43,0,0,1,.54.38,2.63,2.63,0,0,1,.22.69,1.9,1.9,0,0,1,.09.7v6.14h1.07V501.3a3.66,3.66,0,0,0-.08-.93,2.75,2.75,0,0,0-.31-.92,1.51,1.51,0,0,0-.68-.69,3.41,3.41,0,0,0-1.31-.23,2,2,0,0,0-1.23.31,2.79,2.79,0,0,0-.92.92v-1.08H730.2v8.76h1.07Zm7.05,8.91h1.07L743,498.68h-1.07l-2.08,7.23-2.14-7.23h-1.15l2.83,8.84h0Z" fill="#fff"/>
    </g>
    <path id="Insulation" d="M415,480.71V416.49h10.6v64.22Zm52.81,0H457.64V456.94a50,50,0,0,0-.57-9.52,6.47,6.47,0,0,0-2.12-3.64,5.41,5.41,0,0,0-3.53-1.27,7.24,7.24,0,0,0-4.6,1.64,8.75,8.75,0,0,0-2.89,4.54q-.82,2.9-.83,10.92v21.1H433V434.19h9.37V441a18.76,18.76,0,0,1,5.63-5.91,12.84,12.84,0,0,1,6.95-2,12.06,12.06,0,0,1,7.47,2.3,11.76,11.76,0,0,1,4.2,5.92,35.89,35.89,0,0,1,1.16,10.46Zm3.84-13.23,10.11-1.88q1.32,7.31,8.15,7.31a8.75,8.75,0,0,0,5.43-1.4,4.41,4.41,0,0,0,1.8-3.64,3.45,3.45,0,0,0-.79-2.41,7.21,7.21,0,0,0-3.3-1.53q-12.42-3.31-15.8-6.29-4.2-3.74-4.2-10.24a13.67,13.67,0,0,1,4.11-10.4q4.13-3.92,12-3.91,7.49,0,11.38,2.91t5.48,9.4l-9.51,2.15q-1.26-5.61-7.18-5.61-3.72,0-5.3,1.07a3.26,3.26,0,0,0-1.58,2.79,3,3,0,0,0,1.45,2.55q1.44,1,9,3.18,8.46,2.4,11.48,5.77a13.08,13.08,0,0,1,3,9,14.67,14.67,0,0,1-4.62,11.13q-4.62,4.38-12.77,4.38-7.39,0-12.09-3.65T471.6,467.48Zm65.88,13.23v-7a16,16,0,0,1-5.5,5.92,13.31,13.31,0,0,1-7.14,2.13,11.67,11.67,0,0,1-11.17-7.58q-1.47-3.64-1.46-10.57V434.19h10.12v21.37a87.88,87.88,0,0,0,.45,11.63,6.47,6.47,0,0,0,2,3.84,5.61,5.61,0,0,0,3.8,1.35,7.19,7.19,0,0,0,4.67-1.77,8.39,8.39,0,0,0,2.82-4.55q.67-2.79.67-12.25V434.19H546.9v46.52Zm16.71,0V416.49h10.12v64.22Zm25.3-32.38-9.16-2q1.67-7.05,5.5-10.14t11-3.09c4.26,0,7.51.6,9.77,1.8a10.57,10.57,0,0,1,4.81,4.89q1.46,3.09,1.45,11.24l-.09,14.39a61.6,61.6,0,0,0,.48,9,30.41,30.41,0,0,0,1.8,6.29h-10l-1.31-5.08a18.82,18.82,0,0,1-5.54,4.62,13.4,13.4,0,0,1-6.29,1.55,12,12,0,0,1-9.11-3.75q-3.55-3.75-3.55-10a15.5,15.5,0,0,1,1.44-6.89,11.91,11.91,0,0,1,4.08-4.69,26.82,26.82,0,0,1,8.41-3.11,47.64,47.64,0,0,0,9.77-3,14.78,14.78,0,0,0-.55-5.09,4.29,4.29,0,0,0-2-2,9.11,9.11,0,0,0-4.14-.77,6.76,6.76,0,0,0-4.27,1.22A8.88,8.88,0,0,0,579.49,448.33Zm13.49,10a52.27,52.27,0,0,1-6,1.84c-3.13.82-5.17,1.73-6.14,2.73a5.32,5.32,0,0,0-1.44,3.86,6.59,6.59,0,0,0,1.6,4.51,5.11,5.11,0,0,0,4,1.82,7.34,7.34,0,0,0,4.25-1.47,7.81,7.81,0,0,0,2.92-3.5c.54-1.34.81-3.79.81-7.33Zm34.63-24.18V444h-6.87v18.78a40.84,40.84,0,0,0,.3,7.06,2.43,2.43,0,0,0,2.5,1.76,10.94,10.94,0,0,0,4-1.19l.87,9.55a16.71,16.71,0,0,1-7.93,1.84,9.63,9.63,0,0,1-6.17-1.84,9.05,9.05,0,0,1-3.11-5.3q-.62-2.55-.61-10.36V444H606v-9.81h4.65v-9.25l10.12-7.18v16.43Zm6.49-6.31V416.49h10.12v11.39Zm0,52.83V434.19h10.12v46.52Zm17.06-23.92a28.43,28.43,0,0,1,2.71-12.47,20.1,20.1,0,0,1,7.1-8.42,17.9,17.9,0,0,1,9.86-2.81,16.9,16.9,0,0,1,14.45,7.22,27.86,27.86,0,0,1,5.26,16.87,30.09,30.09,0,0,1-2.73,13,20.59,20.59,0,0,1-7.19,8.71,17.35,17.35,0,0,1-9.75,2.92,17.83,17.83,0,0,1-14.1-6.49Q651.16,468.82,651.16,456.79Zm10.34.66q0,7.07,2.76,10.7a8.21,8.21,0,0,0,6.68,3.62c2.55,0,4.72-1.21,6.54-3.65s2.72-6,2.72-10.76-.92-8.16-2.76-10.59a8.16,8.16,0,0,0-6.63-3.65q-3.82,0-6.57,3.65T661.5,457.45Zm70.6,23.26H722V456.94a50,50,0,0,0-.57-9.52,6.52,6.52,0,0,0-2.12-3.64,5.43,5.43,0,0,0-3.53-1.27,7.2,7.2,0,0,0-4.6,1.64,8.63,8.63,0,0,0-2.89,4.54c-.56,1.93-.83,5.57-.83,10.92v21.1H697.32V434.19h9.37V441a18.55,18.55,0,0,1,5.63-5.91,12.8,12.8,0,0,1,6.94-2,12.06,12.06,0,0,1,7.47,2.3,11.84,11.84,0,0,1,4.21,5.92,36.24,36.24,0,0,1,1.16,10.46Z" fill="#b4db19"/>
    <path id="Gallatin" d="M176,457.14V446.28h22.91v25.58a28.08,28.08,0,0,1-9.82,7,30.06,30.06,0,0,1-12.74,2.93A24.83,24.83,0,0,1,162.56,478a25.93,25.93,0,0,1-9.44-11.48,43,43,0,0,1-3.48-18q0-10.61,3.52-18.14a26.51,26.51,0,0,1,9.16-11.25,23.79,23.79,0,0,1,13.47-3.73q9.42,0,15.09,4.8t7.3,14.08l-10.52,2.41a13.67,13.67,0,0,0-4.33-7.58,11.42,11.42,0,0,0-7.54-2.62,13.42,13.42,0,0,0-11,5.27q-4.2,5.28-4.2,16.1,0,11.61,4.55,17.66a12.51,12.51,0,0,0,10.56,5.21,16.16,16.16,0,0,0,6.46-1.46,20.16,20.16,0,0,0,6-4v-8.12Zm39.29-8.81-9.16-2q1.67-7.05,5.5-10.14t11-3.09q6.39,0,9.77,1.8a10.62,10.62,0,0,1,4.81,4.89q1.45,3.09,1.45,11.24l-.09,14.39a61.6,61.6,0,0,0,.48,9,30.41,30.41,0,0,0,1.8,6.29h-10l-1.31-5.08a19,19,0,0,1-5.54,4.62,13.43,13.43,0,0,1-6.29,1.55,12,12,0,0,1-9.11-3.75q-3.56-3.75-3.55-10a15.5,15.5,0,0,1,1.44-6.89,11.91,11.91,0,0,1,4.08-4.69,26.82,26.82,0,0,1,8.41-3.11,47.64,47.64,0,0,0,9.77-3,14.78,14.78,0,0,0-.55-5.09,4.2,4.2,0,0,0-2-2,9.11,9.11,0,0,0-4.14-.77,6.79,6.79,0,0,0-4.28,1.22A9,9,0,0,0,215.26,448.33Zm13.49,10a52.27,52.27,0,0,1-6,1.84q-4.69,1.23-6.13,2.73a5.28,5.28,0,0,0-1.45,3.86,6.59,6.59,0,0,0,1.6,4.51,5.11,5.11,0,0,0,4,1.82,7.39,7.39,0,0,0,4.25-1.47,7.85,7.85,0,0,0,2.91-3.5c.54-1.34.81-3.79.81-7.33Zm18.81,22.34V416.49h10.12v64.22Zm17.32,0V416.49H275v64.22Zm25.3-32.38-9.16-2q1.67-7.05,5.5-10.14t11-3.09q6.39,0,9.77,1.8a10.65,10.65,0,0,1,4.82,4.89q1.44,3.09,1.44,11.24l-.09,14.39a59.9,59.9,0,0,0,.49,9,31,31,0,0,0,1.79,6.29h-10l-1.31-5.08a18.82,18.82,0,0,1-5.54,4.62,13.4,13.4,0,0,1-6.29,1.55,12,12,0,0,1-9.11-3.75q-3.56-3.75-3.55-10a15.37,15.37,0,0,1,1.45-6.89,11.81,11.81,0,0,1,4.07-4.69,26.82,26.82,0,0,1,8.41-3.11,47.43,47.43,0,0,0,9.77-3,14.78,14.78,0,0,0-.55-5.09,4.2,4.2,0,0,0-2-2,9.11,9.11,0,0,0-4.14-.77,6.76,6.76,0,0,0-4.27,1.22A8.88,8.88,0,0,0,290.18,448.33Zm13.49,10a51,51,0,0,1-6,1.84q-4.69,1.23-6.13,2.73a5.28,5.28,0,0,0-1.45,3.86,6.59,6.59,0,0,0,1.6,4.51,5.13,5.13,0,0,0,4,1.82,7.36,7.36,0,0,0,4.25-1.47,7.85,7.85,0,0,0,2.91-3.5c.54-1.34.81-3.79.81-7.33Zm36.39-24.18V444h-6.87v18.78a42,42,0,0,0,.3,7.06,2.43,2.43,0,0,0,2.5,1.76,10.94,10.94,0,0,0,4-1.19l.88,9.55A16.77,16.77,0,0,1,333,481.8a9.66,9.66,0,0,1-6.18-1.84,9.05,9.05,0,0,1-3.11-5.3q-.62-2.55-.61-10.36V444h-4.65v-9.81h4.65v-9.25l10.12-7.18v16.43Zm6.49-6.31V416.49h10.12v11.39Zm0,52.83V434.19h10.12v46.52Zm53.83,0H390.27V456.94a50.91,50.91,0,0,0-.57-9.52,6.48,6.48,0,0,0-2.13-3.64,5.39,5.39,0,0,0-3.53-1.27,7.24,7.24,0,0,0-4.6,1.64,8.75,8.75,0,0,0-2.89,4.54q-.82,2.9-.83,10.92v21.1H365.6V434.19H375V441a18.55,18.55,0,0,1,5.63-5.91,12.78,12.78,0,0,1,6.94-2,12.06,12.06,0,0,1,7.47,2.3,11.76,11.76,0,0,1,4.2,5.92,35.89,35.89,0,0,1,1.16,10.46Z" fill="#fff"/>
    <path id="G" d="M482.4,354.89h48.19v9.86H404.14V293.11l65.54-71,37.6,40.81h43.27l-80.71-86.7L372.93,280.73V397.6H565.08a1.65,1.65,0,0,0,1.65-1.65V321.22a.82.82,0,0,0-.82-.81H482.4Z" fill="#fff"/>
    <path id="Mountain" d="M363.08,396.78H184L299.85,280.17l33.66,42.72,29.57-31.8Zm329.11,0L576,272.75H503l-33.29-36.13L414,297v57.93h58.56V310.55h104v86.23Z" fill="#b5db17"/>
    <path id="Sun" d="M434.41,144.55a15.94,15.94,0,0,1,23,.35l54.22,58.2c.33-3.39.51-6.83.51-10.3a104.62,104.62,0,1,0-188,63.12Z" fill="#fff"/>
  </g>
</svg>
