<svg id="Layer_1" data-name="Layer 1" xmlns="http://www.w3.org/2000/svg" viewBox="0 0 900 600">
  <title>logo</title>
  <path d="M653.09,383.93V343.61h-5.55v45.71H678.9v-5.39Zm-65.86-29.34L576.7,373.31h21.07ZM613,389.32h-6.19l-6-10.69H573.68l-6,10.69h-6.12l25.67-45.71ZM515.17,348.7A18.3,18.3,0,0,1,528,353.81l.7.68.75-.63,2.32-1.95.91-.77-.86-.84a23.78,23.78,0,0,0-16.69-6.69c-7,0-13,2.28-17.23,6.59a22.83,22.83,0,0,0-6.34,16.52c.06,11.24,7.37,22.6,23.57,22.6a23.78,23.78,0,0,0,16.69-6.69l.83-.81-.85-.77L529.59,379l-.74-.69-.74.7a18.83,18.83,0,0,1-12.94,5.11c-13.24,0-18.06-9.44-18.16-17.53a17.93,17.93,0,0,1,4.87-12.91c3.21-3.24,7.81-5,13.29-5m-67.63,40.62h5.72V343.61h-5.72ZM391,349H380.38v34.87H391c5.46,0,10.05-1.75,13.28-5.06A17.84,17.84,0,0,0,409.05,366c-.18-8.46-5.85-17-18.1-17m23.75,16.94a23.14,23.14,0,0,1-6.24,16.67c-4.28,4.39-10.33,6.71-17.51,6.71H374.72V343.61H391c16,0,23.49,11.22,23.75,22.33M310.9,383.87V368.94h20.62v-5.26H310.9V349h27.83v-5.39h-33.5v45.71H339.5v-5.45Zm-43.31-40.26v45.71H262V359.88l-17.21,22.31-17.13-22.33v29.46h-5.72V343.61l22.88,29.07Z" fill="#0087cd"/>
  <line x1="155.93" y1="252.57" x2="155.9" y2="252.57" fill="none" stroke="#77787b" stroke-miterlimit="10" stroke-width="0.1"/>
  <g>
    <path d="M281.19,225H238.65V210.63H349V225H306.48v69.53H281.19Z" fill="#39404f"/>
    <path d="M474.89,278.71H404.75l-11.5,15.83h-27.4L426,210.63h27.59l60.18,83.91H486.2Zm-35.07-50.46L414.9,264h49.84Z" fill="#39404f"/>
    <path d="M640.22,210.51h25.3v84H649.8v.12L579.28,238v56.58H554V210.63h20.51l65.73,52Z" fill="#39404f"/>
    <path d="M750.17,225H707.62V210.63H818V225H775.46v69.53H750.17Z" fill="#39404f"/>
    <polygon points="103.97 210.63 119.03 210.63 165.15 252.56 119.03 294.5 103.97 294.5 150.09 252.56 103.97 210.63" fill="#0088ce"/>
    <polygon points="82.14 210.63 97.2 210.63 143.32 252.56 97.2 294.5 82.14 294.5 128.26 252.56 82.14 210.63" fill="#f37920"/>
    <g>
      <polygon points="154.39 267.94 183.6 294.5 210.97 294.5 168.07 255.5 154.39 267.94" fill="#39404f"/>
      <polygon points="168.07 249.63 210.97 210.63 183.6 210.63 154.39 237.19 168.07 249.63" fill="#39404f"/>
    </g>
  </g>
</svg>
