<svg id="Layer_1" data-name="Layer 1" xmlns="http://www.w3.org/2000/svg" viewBox="0 0 900 600">
  <title>logo</title>
  <rect width="900" height="600" fill="#5b29b2"/>
  <g>
    <path d="M501.58,222.87v61.58l-19.39-10.19V242H421.08V395.92l5.79,2.69,20.55,9.54,4.21,2,4.22-2,20.55-9.54,5.79-2.69V385.85L501.58,396v10.68L451,435.14,401.69,410V222.87h99.89m10-10H391.69V416.16l59.55,30.32,60.34-33.91V390l-39.39-20.7v20.24l-20.56,9.54-20.55-9.54V252h41.11V280.3L511.58,301V212.87Z" fill="#10e1bb"/>
    <g>
      <path d="M454.93,304.77l116.69,61.34v69l-119.24,67-124.92-63.6V344.28l19.39,10.19v72.19l5.47,2.78,94.84,48.28,4.77,2.43,4.67-2.62,79.57-44.71,11-6.16,5.1-2.87v-46L546.88,375l-91.95-48.33V304.77m-10-16.55v44.5l97.3,51.14v34.08l-11,6.16h0L451.7,468.81l-94.85-48.28v-72.1l-39.39-20.7V444.67l135.15,68.81,129-72.49V360.07L444.93,288.22Z" fill="#10e1bb"/>
      <path d="M571.62,159.46V281.32l-19.39-10.19V178.85H346.85V248l5.43,2.79,15.21,7.84v21.9l-40-20.89V159.46H571.62m10-10H317.46V265.73l60,31.33v-44.5l-20.64-10.63V188.85H542.23v88.32l39.39,20.7V149.46Z" fill="#10e1bb"/>
    </g>
    <path d="M590.57,140.5V446.23l-137.75,77.4L308.51,450.16V140.5H590.57m10-10H298.51V456.29l5.46,2.78,144.32,73.47,4.77,2.43,4.66-2.62,137.75-77.41,5.1-2.86V130.5Z" fill="#10e1bb"/>
    <path d="M597.41,74l-4.86,39.91H307.45L302.59,74h32.22l8.91,20.23H382L390.93,74h29.8l8.91,20.23h40.72L479.27,74h29.8L518,94.23h38.3L565.19,74h32.22m11.3-10H558.66L556,70l-6.28,14.26H524.5L518.22,70l-2.63-6H472.75l-2.63,6-6.28,14.26H436.16L429.88,70l-2.63-6H384.41l-2.63,6L375.5,84.23H350.25L344,70l-2.63-6h-50l1.37,11.21,4.86,39.91,1.07,8.79H601.41l1.07-8.79,4.86-39.91L608.71,64Z" fill="#10e1bb"/>
  </g>
</svg>
