<svg id="Layer_1" data-name="Layer 1" xmlns="http://www.w3.org/2000/svg" viewBox="0 0 900 600">
  <title>logo</title>
  <g>
    <path d="M705.08,294.77l23.77-23.24h6.63l1.65-5.51-16.51-16.83-4.93,1.39v6.62L691.87,281a37.49,37.49,0,1,0,7.45,59A37.08,37.08,0,0,0,705.08,294.77Z" fill="none" stroke="#2164ff" stroke-linecap="round" stroke-linejoin="round" stroke-width="7"/>
    <path d="M700.08,316c-10.92-4.52-19.87-4.16-26.6-1.42s-13.21,5.94-27.81,1.42" fill="none" stroke="#21de5a" stroke-linecap="round" stroke-linejoin="round" stroke-width="4"/>
    <line x1="716.99" y1="256.17" x2="720.38" y2="262.16" fill="none" stroke="#2164ff" stroke-linecap="round" stroke-linejoin="round" stroke-width="3"/>
    <line x1="659.47" y1="330.1" x2="664.16" y2="330.1" fill="none" stroke="#21de5a" stroke-linecap="round" stroke-linejoin="round" stroke-width="4"/>
    <line x1="673.53" y1="339.47" x2="678.21" y2="339.47" fill="none" stroke="#21de5a" stroke-linecap="round" stroke-linejoin="round" stroke-width="4"/>
    <line x1="686.28" y1="326.71" x2="690.97" y2="326.71" fill="none" stroke="#21de5a" stroke-linecap="round" stroke-linejoin="round" stroke-width="4"/>
  </g>
  <g>
    <path d="M153.87,330.08a20.53,20.53,0,0,1-20.82,20.3H104.52a5.13,5.13,0,0,1-5.13-5.12V282.75a5.13,5.13,0,0,1,5.13-5.13H131a20.09,20.09,0,0,1,20.31,19.88A19.77,19.77,0,0,1,144,312.85,20.12,20.12,0,0,1,153.87,330.08Zm-44.63-43v21.7H131a10.86,10.86,0,0,0,0-21.7ZM144,329.58a11.15,11.15,0,0,0-11-11.32H109.24v22.65h23.81A11.17,11.17,0,0,0,144,329.58Z" fill="#21de5a"/>
    <path d="M190.67,277.62h8.17a.83.83,0,0,1,.84.83v71.1a.83.83,0,0,1-.84.83h-8.17a.83.83,0,0,1-.83-.83v-71.1A.83.83,0,0,1,190.67,277.62Z" fill="#21de5a"/>
    <path d="M234.68,314a37.67,37.67,0,1,1,37.67,37.46A37.57,37.57,0,0,1,234.68,314Zm65.49,0a27.82,27.82,0,1,0-27.82,28A27.9,27.9,0,0,0,300.17,314Z" fill="#21de5a"/>
    <path d="M400.52,342.78v5.74a1.87,1.87,0,0,1-1.87,1.86H347.27a1.87,1.87,0,0,1-1.87-1.86v-69a1.87,1.87,0,0,1,1.87-1.87h6.11a1.87,1.87,0,0,1,1.87,1.87v59.56a1.87,1.87,0,0,0,1.87,1.86h41.53A1.87,1.87,0,0,1,400.52,342.78Z" fill="#2164ff"/>
    <path d="M426.35,314A37.67,37.67,0,1,1,464,351.46,37.56,37.56,0,0,1,426.35,314Zm65.49,0A27.83,27.83,0,1,0,464,342,27.91,27.91,0,0,0,491.84,314Z" fill="#2164ff"/>
    <path d="M602.54,314.81v19.64A2.67,2.67,0,0,1,602,336a37.46,37.46,0,1,1-2-46.51,2.08,2.08,0,0,1-.3,3l-4.4,3.34a2,2,0,0,1-2.78-.28,28,28,0,1,0-.34,37.12,1.78,1.78,0,0,0,.46-1.2v-7.23a1.81,1.81,0,0,0-1.8-1.8H573.17a1.79,1.79,0,0,1-1.8-1.8v-5.87a1.8,1.8,0,0,1,1.8-1.8h27.57A1.8,1.8,0,0,1,602.54,314.81Z" fill="#2164ff"/>
    <path d="M744,339.27l1.69-3.13a2.94,2.94,0,0,1,4-1.18c6.41,3.47,14.71,7,23.13,7,6.42,0,18.48-2.22,18.44-11.34,0-7.61-8.08-8.89-18.84-10.55-12.25-1.88-27.77-4.68-27.76-20.77,0-15.86,15-22.77,28.38-22.77,10,0,19.31,3.87,26.07,8a2.94,2.94,0,0,1,1,3.92l-1.74,3.16a3,3,0,0,1-4.16,1.06c-5.7-3.52-13-6.71-21.63-6.71-11.55,0-18.12,5.82-18.12,12.89,0,7.95,8.18,9.08,18,10.7C786.52,312,801,315.23,801,330.3c0,16.85-18.06,21.16-28.55,21.16-9.45,0-19.68-3.55-27.44-8.27A3,3,0,0,1,744,339.27Z" fill="#2164ff"/>
  </g>
</svg>
