<svg id="Layer_1" data-name="Layer 1" xmlns="http://www.w3.org/2000/svg" viewBox="0 0 900 600">
  <title>logo</title>
  <g>
    <path d="M450,558.5A258.5,258.5,0,0,1,267.21,117.21,258.5,258.5,0,0,1,632.79,482.79,256.84,256.84,0,0,1,450,558.5Z" fill="#fff"/>
    <path d="M450,43A257.06,257.06,0,0,1,550,536.8,257.06,257.06,0,0,1,350,63.2,255.26,255.26,0,0,1,450,43m0-3C306.41,40,190,156.41,190,300S306.41,560,450,560,710,443.59,710,300,593.59,40,450,40Z" fill="#ef463b"/>
  </g>
  <g>
    <path d="M336.37,183.23A19.94,19.94,0,0,0,310.58,186l-39.47,41.67a20,20,0,0,0-1.32,25.91Z" fill="#006fba"/>
    <path d="M314.32,218.29l15-15.82,1.29,1.22-3.45,3.63,3.13,3,9.24-9.75-3.13-3L333,201.2,331.66,200l7.45-7.86a4.82,4.82,0,0,0-.19-6.81l-.13-.13-.09-.08-66.91,70.65a.3.3,0,0,1,.08.08l.14.13a4.82,4.82,0,0,0,6.81-.18l7.45-7.87,1.29,1.22-3.45,3.63,3.13,3,9.24-9.75-3.13-3-3.44,3.64-1.29-1.22,15-15.83,64.06,60.68,11-11Z" fill="#ef463b"/>
  </g>
  <g>
    <path d="M563.07,183.23a20,20,0,0,1,25.8,2.72l39.46,41.67a20,20,0,0,1,1.32,25.91Z" fill="#006fba"/>
    <path d="M610.82,245.43l-1.29,1.22L606.09,243,603,246l9.24,9.75,3.13-3-3.45-3.63,1.29-1.22,7.45,7.87a4.82,4.82,0,0,0,6.81.18l.14-.13.08-.08L560.74,185.1l-.09.08-.13.13a4.82,4.82,0,0,0-.19,6.81l7.45,7.86-1.29,1.22-3.44-3.63-3.13,3,9.24,9.75,3.13-3-3.45-3.63,1.29-1.22,15,15.82-75.64,71.63,10.72,11.31,75.63-71.63Z" fill="#ef463b"/>
  </g>
  <g>
    <g>
      <path d="M533.51,200.67a32.77,32.77,0,0,1-10.8,21.06,43.08,43.08,0,0,1-29.84,11.72,679,679,0,0,0-85.64-.08c-16.36-.27-29.58-7.12-37.55-22.17a34.13,34.13,0,0,1-2.18-5.79c-.44-1.4-.63-2.88-1-4.74C423,205.17,478.56,205.78,533.51,200.67Z" fill="#006fba"/>
      <g>
        <path d="M516.37,156.26a6.76,6.76,0,0,0-5.18-.91C495.64,159,477.07,161,457.58,161c-24.61,0-47.78-3.15-65.24-8.86h0a3.61,3.61,0,0,0-3.23.49c-1.48,1-3,2.06-4.61,3a43.17,43.17,0,0,0-7.74,6.31,32.43,32.43,0,0,0-10.1,20.38,1073.44,1073.44,0,0,0,166.88,0,30.82,30.82,0,0,0-5.58-15A42.88,42.88,0,0,0,516.37,156.26Z" fill="#006fba"/>
        <path d="M502.45,153a1.2,1.2,0,0,0,0-2.36c-3.13-.66-28.2-4.11-37.56-4.11-15.88,0-27.3.61-30.43,0-12.1-2.36-9.5-5.77-4.59-12.53a10.42,10.42,0,0,1,9.05-4.68c16.8.11,33.6,0,50.4.07,3,0,5.46-.74,7.09-3.36a6.81,6.81,0,0,0,.36-7.2c-1.58-3-4.19-4-7.45-4-18.29,0-36.58.08-54.88,0a19.79,19.79,0,0,0-15.12,6.31c-2.93,3.08-5.58,6.43-8.28,9.71a166,166,0,0,1-13,14.35,2.82,2.82,0,0,0,1.18,4.77c15.1,4.2,35.05,6.93,58.34,6.93A246.13,246.13,0,0,0,502.45,153Z" fill="#ef463b"/>
      </g>
    </g>
    <path d="M698.73,300.47c0-137.61-111.56-249.17-249.17-249.17S200.4,162.86,200.4,300.47A248.72,248.72,0,0,0,215.86,387l31.41-31.41a210.8,210.8,0,0,1-7.3-55.16,209.6,209.6,0,1,1,404.08,78.34L620.32,350l-11.81,15.42L559.93,313l-26,24-81.14-85.6L406,304.88l-15.48-14.66-50.78,50.31-21.86-21.88-93.06,89.62c40.2,83.63,125.71,141.37,224.7,141.37A248.84,248.84,0,0,0,652.29,445.35L623.89,417a212.26,212.26,0,0,1-26.12,31.73,209.59,209.59,0,0,1-296.41,0,210.65,210.65,0,0,1-26.45-32.26l62.92-35.2,36,23.48L397.32,364l81.39,42.21L438.61,348l14.73-55.53L582.86,424.28l-33.51-69.19,12.4-15.39L610.54,396l12.75-19.9,40.92,51A248,248,0,0,0,698.73,300.47Z" fill="#006fba"/>
    <g>
      <path d="M363.33,474a6.78,6.78,0,0,1-3.5-.94,7.14,7.14,0,0,1-2.55-9.68,7,7,0,0,1,2.55-2.57,6.69,6.69,0,0,1,3.5-.95,6.87,6.87,0,0,1,2.86.61,6.62,6.62,0,0,1,2.34,1.71l-1.32,1.17a5.43,5.43,0,0,0-1.76-1.27,5.14,5.14,0,0,0-2.12-.45,5,5,0,0,0-2.61.71,5.33,5.33,0,0,0-1.9,7.24,5.13,5.13,0,0,0,1.9,1.94,5,5,0,0,0,2.61.72,5.11,5.11,0,0,0,2.27-.53,5.06,5.06,0,0,0,1.82-1.46l1.39,1.11a6.76,6.76,0,0,1-2.43,2A6.91,6.91,0,0,1,363.33,474Zm17.1,0a5.25,5.25,0,0,1-2.08-.41,5.1,5.1,0,0,1-1.74-1.21,5.27,5.27,0,0,1-1.17-1.75,5.49,5.49,0,0,1-.4-2.1V460h1.77v8.52a3.86,3.86,0,0,0,.27,1.43,3.69,3.69,0,0,0,.79,1.19,3.62,3.62,0,0,0,2.56,1.09,3.45,3.45,0,0,0,1.38-.29,3.75,3.75,0,0,0,1.17-.8,3.4,3.4,0,0,0,.79-1.19,3.68,3.68,0,0,0,.28-1.43V460h1.77v8.52a5.5,5.5,0,0,1-.41,2.1,5.37,5.37,0,0,1-1.15,1.75,5.17,5.17,0,0,1-3.83,1.62Zm22.75-.12h-2.24l-5.26-7.44h2a7.07,7.07,0,0,0,1.41-.11,5.19,5.19,0,0,0,.85-.21,2.31,2.31,0,0,0,1.06-.88,2.1,2.1,0,0,0,.37-1.14A1.94,1.94,0,0,0,401,463a2.58,2.58,0,0,0-1.05-.85,3.55,3.55,0,0,0-1.57-.33h-3.22l0,12.08H393.4V460h5a5.25,5.25,0,0,1,1.87.32,4.76,4.76,0,0,1,1.54.91,4.49,4.49,0,0,1,1,1.32,3.65,3.65,0,0,1-.42,3.8,4.11,4.11,0,0,1-.78.78,4.8,4.8,0,0,1-.94.6,4.19,4.19,0,0,1-1.47.3Zm6.95,0V460H412v12.1H419v1.77Zm15.57,0V460h1.79v13.87Zm11.35-9.44v9.44h-1.79V459.82l9,9.74V460H446v14.21Zm27.88,9.44H459.8a6.68,6.68,0,0,1-3.47-1,7.08,7.08,0,0,1-2.54-2.56,7,7,0,0,1,0-7,7,7,0,0,1,2.53-2.54,6.66,6.66,0,0,1,3.48-.94,7,7,0,0,1,2.8.59,6.75,6.75,0,0,1,2.33,1.69l-1.32,1.19a4.85,4.85,0,0,0-1.71-1.25,5.3,5.3,0,0,0-2.1-.43,5,5,0,0,0-2.6.7,5.19,5.19,0,0,0-1.88,1.9,5,5,0,0,0-.7,2.62,5.25,5.25,0,0,0,2.58,4.53,5,5,0,0,0,2.6.71h3.34v-3.79h-3.81v-1.77h5.6Zm25,.12a6.78,6.78,0,0,1-3.5-.94,7.17,7.17,0,0,1-2.55-2.58,7.1,7.1,0,0,1,2.55-9.67,6.69,6.69,0,0,1,3.5-.95,6.87,6.87,0,0,1,2.86.61,6.62,6.62,0,0,1,2.34,1.71l-1.32,1.17a5.43,5.43,0,0,0-1.76-1.27,5.14,5.14,0,0,0-2.12-.45,5,5,0,0,0-2.61.71A5.38,5.38,0,0,0,484.7,467a5.38,5.38,0,0,0,2.61,4.59,5.11,5.11,0,0,0,4.88.19,5,5,0,0,0,1.82-1.46l1.39,1.11a6.76,6.76,0,0,1-2.43,2A6.91,6.91,0,0,1,489.92,474Zm12-.12V460h1.81v12.1h7.05v1.77Zm20.28.12a5.24,5.24,0,0,1-2.07-.41,5.1,5.1,0,0,1-1.74-1.21,5.27,5.27,0,0,1-1.17-1.75,5.5,5.5,0,0,1-.41-2.1V460h1.77v8.52a3.68,3.68,0,0,0,.28,1.43,3.54,3.54,0,0,0,.79,1.19,3.6,3.6,0,0,0,2.55,1.09,3.46,3.46,0,0,0,1.39-.29,3.75,3.75,0,0,0,1.17-.8,3.69,3.69,0,0,0,.79-1.19,3.86,3.86,0,0,0,.27-1.43V460h1.77v8.52a5.42,5.42,0,0,1-1.55,3.85,5.34,5.34,0,0,1-1.75,1.21A5.23,5.23,0,0,1,522.17,474Zm23-4.21a3.63,3.63,0,0,1-.35,1.53,4.24,4.24,0,0,1-1,1.32,4.83,4.83,0,0,1-1.55.92,5.51,5.51,0,0,1-1.86.32h-5.22V460h4.17a4.64,4.64,0,0,1,3.18,1.1,3.59,3.59,0,0,1,.88,1.21,3.55,3.55,0,0,1,.09,2.68,3,3,0,0,1-.63,1l-.17.2a4.53,4.53,0,0,1,1.66,1.27A3.93,3.93,0,0,1,545.12,469.82Zm-8.2-4.14h2.36a4.11,4.11,0,0,0,1.43-.21,1.85,1.85,0,0,0,1.19-1.68,1.73,1.73,0,0,0-.62-1.32,2.74,2.74,0,0,0-2-.64h-2.4Zm5,6.11a2.64,2.64,0,0,0,1-.87,1.92,1.92,0,0,0,.36-1.1,2.1,2.1,0,0,0-.35-1.11,2.21,2.21,0,0,0-1-.85,5.77,5.77,0,0,0-2.26-.41h-2.76v4.67h3.45A3.48,3.48,0,0,0,541.93,471.79Z" fill="#ef463b"/>
      <g>
        <path d="M380.62,433.93a2.13,2.13,0,1,1-2.13,2.13,2.13,2.13,0,0,1,2.13-2.13m0-4.31a6.44,6.44,0,1,0,6.43,6.44,6.44,6.44,0,0,0-6.43-6.44Z" fill="#ef463b"/>
        <path d="M359.32,441.17a7.11,7.11,0,0,1-.68,3,8,8,0,0,1-1.91,2.59,8.88,8.88,0,0,1-3,1.77,10.65,10.65,0,0,1-3.63.62h-10V423h8.18a8.83,8.83,0,0,1,6.14,2.19,7.5,7.5,0,0,1,1.73,2.39,6.78,6.78,0,0,1,.62,2.83,6.57,6.57,0,0,1-1.16,3.75,1.85,1.85,0,0,1-.31.44,8.85,8.85,0,0,1,2.47,2.15A7.25,7.25,0,0,1,359.32,441.17Zm-14.71-8.06h3.55a8.6,8.6,0,0,0,1.41-.08,3.78,3.78,0,0,0,1-.28,3.58,3.58,0,0,0,1.28-1.05,2.29,2.29,0,0,0,.44-1.34,2.51,2.51,0,0,0-.88-1.91,4.31,4.31,0,0,0-3.11-1h-3.67Zm10.25,8.06a2.78,2.78,0,0,0-.64-1.76,3.67,3.67,0,0,0-1.52-1.15,9.48,9.48,0,0,0-3.78-.64h-4.31v7.09h5.5a5.13,5.13,0,0,0,3.59-1.23A3.06,3.06,0,0,0,354.86,441.17Zm50.19,8,11.33-21.73H405.09V423h18.66l-11.32,21.76h11.28v4.47Zm32.18,0V423h16.58v4.5H441.73v6.34h9.09v4.51h-9.09v6.41h12.08v4.47Zm52.35,0V436.54l-9,12.52-9.05-12.56v12.68h-4.47V422.55l13.52,18.82L494,422.55v26.63Zm21.85-3.59-1.68,3.59h-4.94L517,423l11.56,26.23h-4.9l-1.6-3.59Zm5.42-11.76-3.35,7.26H520Zm26.87-.24v15.59h-4.46V422.55l16.18,16.18V423h4.47v26.83ZM394.5,435.72v.34a13.89,13.89,0,0,0-13.88-13.89H381v-2.59h-.67v2.59h.33a13.89,13.89,0,0,0-13.88,13.88v-.33h-2.59v.67h2.59v-.33a13.88,13.88,0,0,0,13.88,13.88h-.33v2.6H381v-2.6h-.33a13.88,13.88,0,0,0,13.88-13.88v.33h2.6v-.67Zm-13.88,9.91a9.58,9.58,0,1,1,9.57-9.57A9.59,9.59,0,0,1,380.62,445.63Z" fill="#006fba"/>
      </g>
    </g>
  </g>
  <text transform="translate(245.57 300.42)" font-size="16.85" fill="#f05253" font-family="Kiona-Bold, Kiona" font-weight="700">45.6925851</text>
  <text transform="translate(541.66 300.42)" font-size="16.85" fill="#f05253" font-family="Kiona-Bold, Kiona" font-weight="700">-111.0515175</text>
</svg>
