<svg id="Layer_1" data-name="Layer 1" xmlns="http://www.w3.org/2000/svg" viewBox="0 0 900 600">
  <title>logo</title>
  <polygon points="122.24 320.12 91.23 294.08 104.92 277.98 119.73 290.42 166.44 235.48 182.64 249.08 122.24 320.12" fill="#22b573"/>
  <polygon points="118.75 338.26 72.85 299.72 111.63 254.11 130.49 269.94 134.14 265.65 110.96 246.19 64.89 300.39 119.42 346.18 153.93 305.6 146.65 305.44 118.75 338.26" fill="#b3b3b3"/>
  <polygon points="186.49 280.66 217.5 306.7 203.81 322.8 189 310.36 142.29 365.3 126.09 351.7 186.49 280.66" fill="#b3b3b3"/>
  <polygon points="189.97 262.52 235.87 301.06 197.09 346.67 178.24 330.83 174.59 335.13 197.76 354.59 243.84 300.39 189.31 254.6 154.8 295.18 162.07 295.33 189.97 262.52" fill="#22b573"/>
  <g>
    <path d="M653.92,260.56c23.1,0,35.49,10.65,35.49,33.62S677,327.79,653.92,327.79H624.61V260.56Zm-7.57,16.12v35h7.17c9.54,0,13.67-5.38,13.67-14.56v-5.87c0-9.18-4.13-14.56-13.67-14.56Z" fill="#b3b3b3"/>
    <path d="M722.34,327.79H700.61V260.56h21.73Z" fill="#b3b3b3"/>
    <path d="M804.85,284.89H784.1c0-5.76-5.9-9.38-12.78-9.38-10.33,0-15.54,5.77-15.54,15.54v6.25c0,9.77,5.21,15.54,15.54,15.54,6.88,0,12.78-3.52,12.78-8.89H768.76V290.27h36.09v37.52H793.64l-2.16-6.64c-6.1,5.17-13.87,7.81-24.19,7.81-22.52,0-33.73-11.82-33.73-34.78s13.47-34.79,36.87-34.79C789.41,259.39,804.85,268,804.85,284.89Z" fill="#b3b3b3"/>
    <g>
      <path d="M322.31,280.1v1.18H302v-.4c0-3.51-2.46-6.84-8.75-6.84-6,0-8.95,2.06-8.95,4.4,0,10.07,39.43,2.15,39.93,27.07,0,16.71-12.79,23.45-29.8,23.45C275.4,329,261,324.17,261,305H281.5c0,7.23,4.23,8.5,10.91,8.5,3.94,0,9.54-.29,9.54-4.49,0-9.68-39.92-2-39.92-28.15,0-15.63,14.35-21.49,30.38-21.49C308.74,259.39,322,265.74,322.31,280.1Z" fill="#22b573"/>
      <path d="M387.05,327.79H371L369.74,320c-4,5.57-11.11,9-18.49,9-12.29,0-18.09-7.13-18.09-19.35V276.2h19.57v31.07c0,4.3,2.26,7.33,6.59,7.33a7.94,7.94,0,0,0,8.16-8.11V276.2h19.57Z" fill="#22b573"/>
      <path d="M433.5,276.1v16.32h-6.29c-8.46,0-11.51,4.59-11.51,12.41v23H396.14V276.2h16l1.28,7.81c2.46-6.15,8.07-9.08,14.26-9.08A13.1,13.1,0,0,1,433.5,276.1Z" fill="#22b573"/>
      <path d="M478.36,327.79H457.8L438.14,276.2h21l9.54,32.14h.69L479,276.2h19.27Z" fill="#22b573"/>
      <path d="M557.4,302v3.32H518.46c0,7.14,2.95,11.24,10.42,11.24,7,0,9.54-3.32,9.54-7.52h19c0,12.31-9.44,19.93-28.13,19.93s-30.38-8.4-30.38-27c0-18.08,11.5-27,29.2-27C546.78,275,557.4,283.43,557.4,302Zm-38.84-5.86h19.07c0-5.38-3.24-8.7-8.75-8.7C522.29,287.43,519.24,290.75,518.56,296.13Z" fill="#22b573"/>
      <path d="M599.71,326.23C595,339,588.6,348.31,573.45,348.31a35.44,35.44,0,0,1-11.31-1.76V334.92H570c6.88,0,8.26-4.59,8.75-7.13L558.11,276.2h21l9.94,34.29h.69l9.14-34.29h19.27Z" fill="#22b573"/>
    </g>
  </g>
  <path d="M836,318.54a10.58,10.58,0,1,1-10.55-10.3A10.34,10.34,0,0,1,836,318.54Zm-18.52,0a8,8,0,0,0,8,8.23,7.89,7.89,0,0,0,7.84-8.17,7.95,7.95,0,1,0-15.88-.06Zm6.34,5.4h-2.39v-10.3a20.78,20.78,0,0,1,4-.31,6.43,6.43,0,0,1,3.58.75,2.88,2.88,0,0,1,1,2.26,2.65,2.65,0,0,1-2.13,2.39v.12a3,3,0,0,1,1.88,2.52,7.72,7.72,0,0,0,.76,2.57H827.9a8.92,8.92,0,0,1-.81-2.51c-.2-1.13-.82-1.63-2.14-1.63h-1.13Zm.06-5.84H825c1.32,0,2.39-.44,2.39-1.51s-.69-1.57-2.2-1.57a5.8,5.8,0,0,0-1.32.13Z" fill="#b3b3b3"/>
</svg>
