<svg id="Layer_1" data-name="Layer 1" xmlns="http://www.w3.org/2000/svg" viewBox="0 0 900 600">
  <title>logo</title>
  <rect width="900" height="600" fill="#fff200"/>
  <path d="M830.32,329c-3.55-6-10.84-13.43-25.48-14.46-2.23-.15-4.56-.23-6.91-.23-14.81,0-31.86,3.05-50.79,9.07-3-11-6.51-22.53-6.77-34,0-1.43-.4-4.29.27-5.58,1.05-2,4.69-3,6.62-4.22,4.4-2.87,12-7.66,11.61-14-.38-5.86-10.49-14-14.85-16.95-7.21-5-15.68-7.3-24-9.09,5-8.33,13.91-13.13,19.45-21.07a51.79,51.79,0,0,0,9.13-25.71,57.34,57.34,0,0,0-12.73-40c-12.46-15.68-32-24.78-55-25.63-1.64-.06-3.29-.09-4.93-.09l-2.25,0c-1.91,0-3.82,0-5.68.23-62,6.79-87.19,50.82-93.17,59.4q-11.34-2.78-23.29-5.77l-1.41-.35c-23.89-6-49.41-12.15-75.68-15.56A336.58,336.58,0,0,0,430.69,162h-2.11c-3.83,0-7.7.13-11.51.29a331.13,331.13,0,0,0-68.87,10.5c-12,3.12-37.42,30-40.67,35.1-1.79-2.38-3.67-4.7-5.65-6.92-17.63-19.85-40.08-30.78-63.22-30.78-2.32,0-4.68.11-7,.32-56.4,5.28-90.94,29.36-110,48.64-2.17,2.2-10.41,10.62-12.29,12.52-20.21,20.47-31.5,44.43-30.74,55.77C79.79,304.66,89,319.8,103.36,328c7.32,4.19,16.19,6.61,24.5,4.93,9.14-1.85,14.36-9.23,20.29-16a12,12,0,0,0,2.92-8.75c-.78-11.63,3.69-26.16,11.81-39.73-3.07,23.48-16.19,59.08-25.36,84-2.38,6.45-4.65,13.64-8.45,19.59-4.06,6.37-10.25,10.51-15.14,16.1-4.61,5.26-6.92,13.25-6.34,21.92,1.66,24.73,37.69,57.28,57.65,57.28.63,0,1.26,0,1.87-.08,19.38-1.82,40-11.53,60.09-27.85a28.08,28.08,0,0,0,.06,7.26c1.2,8.54,5.19,17.6,12.72,21.79,9,5,16,.9,24.61-2q4.85-1.61,9.74-3.06c6.86-2.06,13.78-3.9,20.74-5.59,15.12-3.65,30.4-6.53,45.76-8.83,16.63-2.49,33.35-4.29,50.11-5.52q26.35-1.94,52.81-2h1.6c7.84,0,15.75.12,23.53.37,6.85.22,13.78.54,20.58.94a604,604,0,0,1,65.68,7.43c9.87,1.69,19.69,3.67,29.44,6s25.85,10.27,34.9,3a25.62,25.62,0,0,0,18.23,11.56c.47.06.94.1,1.35.13l1,.05h.81c15.65.47,34.37-18.07,37.21-32,2.26.31,4.5.52,6.67.68,1.31.09,2.64.13,3.95.13,19.5,0,34.44-10.35,46.68-22.8s19.41-24,21-37c5.18-.42,10-.63,14.39-.63,20.57,0,25.83,4.63,26.15,5.93,1,5.28,5.23,8.95,10.32,8.95,4.27,0,11.78-7.32,14.95-10.18C835.59,371.88,839.7,345,830.32,329ZM230,231a13.81,13.81,0,0,1,1.45-.07c13.82,0,29.15,18.53,30.37,36.72,1,15-10.36,41.79-29,68.12A254.58,254.58,0,0,1,213.4,360a171.3,171.3,0,0,1-17.58,14.56c5.16-20.69,15.41-45.36,23.45-64.73,9.31-22.41,13.41-32.61,13-39.37-.92-13.7-14.23-26.82-26.85-34.11A104.66,104.66,0,0,1,230,231Zm64,144.91c2.85,5.19,7.31,9.74,12.34,13.64a281.66,281.66,0,0,0-37.95,8.86q8.26-9.69,16.14-20.83c2.14-3,4.18-6.08,6.19-9.15A49.3,49.3,0,0,0,293.93,375.92ZM491.44,242.15c-5.64-4.06-21.06-11.64-32.82-11.64h-.84c-8.19.12-13.53,7.2-18.79,12.83-2.3,2.47-4.91,4.65-7.17,7.14-.18-.32-.35-.65-.54-1-1.95-3.16-16.86-18.27-24.62-23.06,4.13-.51,8.18-.88,12-1.07,2.22-.11,4.49-.19,6.72-.24,3.07-.08,6.19-.12,9.28-.12H436a465.37,465.37,0,0,1,61.37,4.61c5.92.8,12.22,1.2,18,2.71a53.34,53.34,0,0,0-10,7.49c-.95.86-9,7.67-8.71,8.37A16.34,16.34,0,0,0,491.44,242.15Zm-141,84.15a49.13,49.13,0,0,0,13.39,1.8,145.51,145.51,0,0,1-15.44,27.62C346.65,347,347.64,336.51,350.39,326.3Zm316-148.44c1.46-.06,2.93,0,4.4,0,7.5.42,15.45,2.84,20.8,8.69,2.82,3.08,8.68,13.49,3.45,16.83a9.23,9.23,0,0,1-3.62,1.13,97.86,97.86,0,0,1-28-.13c-2.43-.32-23.91-4.44-24.32-3.57,3.31-6.94,6-13.78,12.39-18.29A26.81,26.81,0,0,1,666.41,177.86Z" fill="#20c"/>
  <g>
    <path d="M326.94,242.55h.13c3,0,6.24-1.81,8.54-4.74,16.28-20.5,61.12-33.55,95-35.21,2.29-.1,4.62-.18,6.92-.24,3.55-.09,7.18-.13,10.78-.12,26.78.09,56.47,3,93.59,9.55,13.12,2.31,26,5,39.1,7.89l3.48.76c25.22,5.5,51.36,11.35,78.68,14,4,.37,7.85.59,11.57.64.9,0,1.79,0,2.68,0,18.41-.13,33.94-4.55,44.84-12.9A41.81,41.81,0,0,0,739,191.93a46.88,46.88,0,0,0-10.48-32.58c-10.73-13.51-27.76-21.25-47.94-22-2.23-.08-4.48-.1-6.68-.06-1.76,0-3.53.1-5.24.21-36.12,2.35-63.6,21.86-82.48,57.14-.2.38,6.83,5,10.82,7.49a.42.42,0,0,1-.32.77c-13.34-3.27-32.63-8.34-47.3-12l-1.41-.36c-26.2-6.58-49.81-12.14-74.62-15.36a326.77,326.77,0,0,0-44.66-2.85c-3.72,0-7.48.12-11.18.28a321.07,321.07,0,0,0-67,10.22c-13,3.36-21.07,15.13-24.71,21.81-6.73,12.37-8.74,26.27-4.89,34A6.69,6.69,0,0,0,326.94,242.55ZM626.4,205.36c.11-.3.23-.6.34-.91,9.44-22,23.52-47.74,51.48-49.35.65,0,1.3-.06,1.95-.07,1.14,0,2.3,0,3.45.08,23,1.28,35.15,16.83,35.14,31.52,0,13.22-10.1,28.84-38.39,29.28-.66,0-1.32,0-2,0h0c-2.5,0-5.11-.15-7.77-.4-16.45-1.56-33.39-4.48-45.15-6.73a.27.27,0,0,1-.2-.37C625.61,207.41,626,206.4,626.4,205.36Z" fill="#fff"/>
    <path d="M319.12,262.14c-2.47-36.95-38.58-85.84-86.62-81.35-101.07,9.45-132.72,81.65-131.93,93.43,2.42,36.15,41.27,40.87,40.86,34.71-2.33-34.81,33.13-94.43,100-100.68,20.62-1.93,40.73,22.59,42.31,46.16,2.48,37.1-51,115.87-100.36,139.35a.29.29,0,0,1-.41-.27c2-39.86,40.42-110.59,39.64-122.32-1.17-17.41-37.89-38-37.2-27.78,2.51,37.49-39.26,125.45-38.44,137.77.35,5.21,10,12.89,17.32,18.36a.28.28,0,0,1-.15.51l-2.89.27c-6.11.57-16-.39-20.46-6.15l0,0c-5-8-2-12.35-3.56-13.34a.31.31,0,0,0-.12,0c-3-.69-8.22,5.71-7.53,16.08,1.29,19.28,34.3,49.06,49,47.68C249.26,437.88,322.8,317,319.12,262.14Z" fill="#fff"/>
    <path d="M804.2,324.8c-19.92-1.4-43.09,4.25-63.26,11.47a.3.3,0,0,1-.37-.19c-8.39-30.75-19.1-61.94,4-73.08a.29.29,0,0,0,.1-.45c-6.82-8-21.52-13.9-26.92-12.32l0,0c-2.9,1.14-8.22,6.11-11.88,14.52-.56,1.46-5.27,10.29-12,22.59h0c-13.1,22.19-26.67,50.4-41.92,86.91-.16-.18-.18-.18,0,.07-5.44,8.09-8.72,10.27-9.79,10.27h-.13c-8.17-.58-11-49-8.65-58.78a.25.25,0,0,0-.21-.32c-3.14-.42-10.6-1.4-14.08-1.82a.28.28,0,0,1,0-.55c24.87-6.3,44.71-21.54,55.52-33.92,7.19-8.21,8.65-16,4.74-25.21-3.17-7.5-8.87-14.57-14.88-18.46a15.44,15.44,0,0,0-8.53-2.48h-.31c-5.72.1-12.2,3-19.25,8.61-17.5,13.89-29.91,31.39-42.32,51.15a.28.28,0,0,1-.52-.22c6.16-21.38,13.29-44,21.72-68.78h0a1.88,1.88,0,0,0-1.44-2.45h-.07c-10.2-1.86-20.41-4.09-30.28-6.24l-8.24-1.79a1.94,1.94,0,0,0-2.25,1.26h0c-5.94,17-10.78,36-15,52.88l-.16.6c-4.49,17.73-7.73,31.51-10.2,43.35a.19.19,0,0,1,0,.07c-8.71,17.94-17.44,30.7-27.46,40.15a7,7,0,0,1-2.15,1.5.27.27,0,0,1-.37-.23,6.24,6.24,0,0,1,.28-2.16c7.63-27.42,24-79.56,37-101.08a9,9,0,0,0,1.58-4.76,6.82,6.82,0,0,0-2.25-4.82c-5.83-6-21.92-10.41-27-10.41h-.27a15.31,15.31,0,0,0-8.77,2.89c-14.63,10.73-29.94,29-47.74,57.15a.28.28,0,0,1-.51-.24c4.56-12.41,9.57-24.6,14.7-35.76.13-.28.3-.59.47-.9s.4-.44.32-.54l.59-1c1.83-3,4.6-7.46.17-10.64-4.93-3.54-18.3-9.87-27.41-9.87h-.57a7.61,7.61,0,0,0-4.5,1.86l-.05,0-.35.32-.41.38c-7.06,6.71-8.31,14.33-25.34,25.39a.29.29,0,0,1-.45-.24c-.26-5.59-1.64-10.1-3.7-13.29a24.12,24.12,0,0,0-6.6-6.75s0,0,0-.05c-4-5.49-20.83-22.21-40.71-19.46-22.19,2.81-44.55,19.25-46.86,32.1a16.65,16.65,0,0,0-.28,3.49v.07c0,.52.06,1.05.12,1.56,0,.12,0,.24.05.37.06.41.12.82.2,1.22,0,.19.09.37.13.55.08.34.16.68.26,1s.12.41.19.62.19.62.3.93.15.4.23.59.24.62.37.93.17.38.25.56.27.59.41.87a45,45,0,0,0,5.78,8.71.28.28,0,0,1-.38.41l-6.35-4.48a1.56,1.56,0,0,0-2.21.42c-14.16,22-26.05,56.38-13.53,79.3,5.87,10.68,22.59,19.13,33,23.31,6.15,2.61,13.37,4.92,18.54,4.23,24.63-3.9,50.48-55,58.58-93.33a.27.27,0,0,1,.17-.19c3.47-1.41,7-2.9,10.55-4.43a.28.28,0,0,1,.38.34c-10.75,34.13-22.76,75.9-22.82,76.27v.14c-.1,2.46,1.17,5.16,3.69,7.81,5.32,5.6,15.47,10.27,22.64,10.4h.37c1.75,0,6.4,0,7.07-5.47,1.35-10.81,10.49-31.66,24.46-55.78,11.46-19.77,23.84-37.43,34.69-49.56a.28.28,0,0,1,.47.29c-11.05,28-21.58,63.4-26.74,90.23a14.54,14.54,0,0,0,3.3,11.76c4.49,5.67,12.31,9.2,20.91,9.45h.87c12,0,24-7.38,35.63-21.95a.28.28,0,0,1,.5.2c-.19,1.88-.33,3.78-.38,5.63-.25,9.14,16.94,18.23,27.46,18.87l.59,0h.24c4,0,6.1-2,6.38-5.81.87-11.58,9.21-30.87,16.79-45.32a.28.28,0,0,1,.52.09c3.06,20.86,14.89,67.25,39.67,69.78.38,0,.76.06,1.14.07h.37c8.55,0,18.39-7.23,26.48-19.4.06.08.06.06,0,0a48.48,48.48,0,0,0,3.28-4.53s0,0,0,.05c-1.48,23.95,8.91,33.7,34.24,35.48,27.84,1.95,48.11-21,49.29-40a84.08,84.08,0,0,0-1.09-16.84.27.27,0,0,1,.24-.32c34.47-5.22,69.2-5.72,72.56,10.84.23,1.35,1.83.8,2.52-.16C824.91,360.66,833.92,326.89,804.2,324.8ZM343.6,370.85c-11.32-19.38-4.57-51.48,8.09-72.87a.29.29,0,0,1,.39-.11A66.16,66.16,0,0,0,362.62,303c8.09,3.07,17.81,2.86,28,.47a.29.29,0,0,1,.34.37c-9.87,29.73-27.92,59.55-47,67.12A.29.29,0,0,1,343.6,370.85Zm52-85.34c-13.46,5.54-27.48,9.21-40.45,7.76a.3.3,0,0,1-.2-.46c6.28-9.39,13.51-15.54,20.4-16.55,4.35-.66-5.3-10.69-15.1-15.78a.28.28,0,0,1,0-.48c10-7.32,23.62-13.1,35.21-14.82a.29.29,0,0,1,.31.17c3.91,9.6,3.31,24.19,0,40A.28.28,0,0,1,395.63,285.51Zm211.48,25.64a.29.29,0,0,1-.4-.4c9.81-15.2,20.13-30.63,33.81-43a10.88,10.88,0,0,1,3.34-2.32.28.28,0,0,1,.36.15c.37.89,1.42,3.53.78,5.35C639.73,285.94,621.86,301.29,607.11,311.15Zm62.51,59.33c10.28-19.71,22.53-50.13,33.09-71.05a.28.28,0,0,1,.52.09c2.52,15.83,8.24,31.57,12.22,46.88a.27.27,0,0,1-.15.33c-9.41,4.18-33.48,13.62-45.24,24.09A.28.28,0,0,1,669.62,370.48Zm50.62,6.22c-.72,11.64-9.24,22.4-18.63,21.74-11.52-.81-18.73-10.93-16.1-24.35a.29.29,0,0,1,.18-.22,277.81,277.81,0,0,1,33.43-9.19.29.29,0,0,1,.35.23A57.29,57.29,0,0,1,720.24,376.7Z" fill="#fff"/>
    <path d="M655.26,414.52l-.91-.09-.51,0a16.55,16.55,0,0,0-16.78,14.87,17.32,17.32,0,0,0,2.52,11.37,16.06,16.06,0,0,0,11.54,7.42l.9.08a5.83,5.83,0,0,0,.59,0c8.45.27,15.65-6.12,16.74-14.86a17.29,17.29,0,0,0-2.51-11.41A16,16,0,0,0,655.26,414.52Z" fill="#fff"/>
    <path d="M606.55,413.18c-36.46-9.54-88-16.67-141.48-19.59-7.63-.41-15.3-.74-22.8-1-71.91-2.29-135,3.65-173.11,16.29-19.45,6.46-20.91,17.62-20.05,23.69,1.11,7.78,7.47,15.76,11.39,16.06h.15a3.34,3.34,0,0,0,.45,0,9.1,9.1,0,0,0,4.1-1.41l.05,0c55.22-20.15,136-30.66,216.21-28.11,7,.23,14,.55,20.85,1,42.66,2.58,82.27,8.95,114.53,18.42a25.19,25.19,0,0,0,5.12,1h.32c2.81.09,4.6-1.15,4.89-3.39C627.9,430.79,618,416.14,606.55,413.18Z" fill="#fff"/>
  </g>
</svg>
