<svg id="Layer_1" data-name="Layer 1" xmlns="http://www.w3.org/2000/svg" viewBox="0 0 900 600">
  <title>logo</title>
  <rect width="900" height="600" fill="#0071ce"/>
  <circle id="White" cx="450" cy="300" r="258" fill="#fff"/>
  <path id="_199cp" data-name="199cp" d="M593,414.51l-52.45-26.22c-.59.61-1.15,1.2-1.71,1.75a127.34,127.34,0,1,1,0-180.08l.34.34L591.81,184a186.11,186.11,0,0,0-60.54-48.68,184.17,184.17,0,0,0-212.68,294.9,184.27,184.27,0,0,0,213.52,34.06A185.79,185.79,0,0,0,593,414.51Z" fill="#ed1c24"/>
  <path d="M539.78,383.89c-1.13,1.22-2.28,2.43-3.47,3.62a123.76,123.76,0,1,1,0-175c.73.72,1.44,1.45,2.14,2.19l58.91-29.46a187.43,187.43,0,0,0-148.55-72.95c-103.69,0-187.74,84.05-187.74,187.73s84.05,187.73,187.74,187.73a187.43,187.43,0,0,0,149.71-74.47Zm-7.67,80.38A184.17,184.17,0,0,1,318.59,169.79a184.26,184.26,0,0,1,212.68-34.48A186.11,186.11,0,0,1,591.81,184L539.19,210.3l-.34-.34a127.34,127.34,0,1,0,0,180.08c.56-.55,1.12-1.14,1.71-1.75L593,414.51A185.79,185.79,0,0,1,532.11,464.27Z" fill="#0071ce"/>
  <path d="M351,267.47h13.9v24.44h24V267.47H402.8v64.78H389V303.84h-24v28.41H351Zm69.51,0h13.7v53h20v11.76H420.54Zm44.9,0h13.75v41.89q0,5.42,1.05,7.65a7.88,7.88,0,0,0,3.48,3.59,11.81,11.81,0,0,0,5.84,1.34,12.47,12.47,0,0,0,6.24-1.49,8.22,8.22,0,0,0,3.62-3.81q1-2.31,1-8.82V267.47h13.75v38.62q0,9.78-1.22,13.56a18.86,18.86,0,0,1-4.67,7.31,21.74,21.74,0,0,1-7.95,5.22,29.7,29.7,0,0,1-10.47,1.7,27.48,27.48,0,0,1-13.63-3.24,19.71,19.71,0,0,1-8.29-8.1q-2.51-4.87-2.5-16.45Zm64.94,64.78V267.47h11.31q9.85,0,14.4,1.14a19.69,19.69,0,0,1,10.29,5.73,14.14,14.14,0,0,1,3.82,9.86,13.29,13.29,0,0,1-1.73,6.72,18,18,0,0,1-5.65,5.66q6.55,2.78,9.58,6.93a16.23,16.23,0,0,1,3,9.84,17,17,0,0,1-3.14,10,19.37,19.37,0,0,1-8.08,6.71q-5,2.24-13.66,2.23Zm13.7-53v13.65h3q5,0,7.44-1.89a6.2,6.2,0,0,0,2.43-5.16,5.79,5.79,0,0,0-2.3-4.82c-1.54-1.19-3.89-1.78-7-1.78Zm0,24.66v16.6h3.43q8.54,0,11.51-1.94a6.33,6.33,0,0,0,3-5.64,7.63,7.63,0,0,0-3.48-6.6q-3.48-2.43-11.58-2.42Zm83.5-27.61-10.15,8.06q-5.34-6.7-10.88-6.7a7.13,7.13,0,0,0-4.41,1.3,3.7,3.7,0,0,0-1.72,2.93,4.69,4.69,0,0,0,1.23,3.08q1.67,1.94,10.05,8.32,7.83,5.91,9.51,7.45a26.19,26.19,0,0,1,5.9,7.24,17.24,17.24,0,0,1-4.38,20.72q-6.12,5.19-16,5.2a25.76,25.76,0,0,1-13.4-3.39,27.82,27.82,0,0,1-9.77-10.66l11.52-6.25q5.19,8.58,11.95,8.58a9.37,9.37,0,0,0,5.93-1.85A5.31,5.31,0,0,0,615.4,316a6.94,6.94,0,0,0-1.82-4.4q-1.82-2.2-8-6.74-11.76-8.62-15.19-13.32a15.8,15.8,0,0,1-3.43-9.36q0-6.74,5.71-11.56a21.07,21.07,0,0,1,14.08-4.82A24.2,24.2,0,0,1,617,268.09Q621.9,270.33,627.58,276.28Zm-377.31,0-10.15,8.06q-5.34-6.7-10.88-6.7a7.13,7.13,0,0,0-4.41,1.3,3.7,3.7,0,0,0-1.72,2.93,4.69,4.69,0,0,0,1.23,3.08q1.66,1.94,10,8.32c5.23,3.94,8.39,6.42,9.51,7.45a26.19,26.19,0,0,1,5.9,7.24,17.24,17.24,0,0,1-4.38,20.72q-6.12,5.19-16,5.2a25.7,25.7,0,0,1-13.39-3.39,27.76,27.76,0,0,1-9.78-10.66l11.52-6.25q5.19,8.58,12,8.58a9.41,9.41,0,0,0,5.93-1.85,5.32,5.32,0,0,0,2.4-4.27,6.94,6.94,0,0,0-1.82-4.4q-1.82-2.2-8-6.74-11.76-8.62-15.19-13.32a15.8,15.8,0,0,1-3.43-9.36q0-6.74,5.71-11.56a21.09,21.09,0,0,1,14.08-4.82,24.2,24.2,0,0,1,10.26,2.25Q244.59,270.33,250.27,276.28Z" fill="#ed1c24"/>
  <path d="M450,53.54c-118.49,0-217.44,83.62-241.08,195.07h45.22a202.22,202.22,0,1,1,0,102.78H208.92C232.56,462.84,331.51,546.46,450,546.46c136.12,0,246.46-110.34,246.46-246.46S586.12,53.54,450,53.54Z" fill="#0071ce"/>
</svg>
