<?xml version="1.0" encoding="utf-8"?>
<svg xmlns="http://www.w3.org/2000/svg" xmlns:xlink="http://www.w3.org/1999/xlink" style="margin: auto; background: rgb(255, 255, 255); display: block; z-index: 1; position: relative; shape-rendering: auto;" width="1024" height="1024" preserveAspectRatio="xMidYMid" viewBox="0 0 1024 1024">
<g transform=""><linearGradient id="lg-0.6590519274487807" x1="0" x2="1" y1="0" y2="0">
  <stop stop-color="#3d5afe" offset="0"></stop>
  <stop stop-color="#4527a0" offset="1"></stop>
</linearGradient><path d="M 964.309 512 C 964.309 581.31 868.735 721.77 824.195 774.31 C 779.655 826.85 636.195 816.195 567.885 828.08 C 499.575 839.965 417.264 813.436 357.839 778.781 C 298.414 744.126 87.3571 739.666 63.5871 675.241 C 39.817 610.816 57.5179 419.379 81.2879 354.954 C 105.058 290.529 274.655 238.931 334.08 204.276 C 393.506 169.621 489.15 242.701 557.46 254.586 C 625.77 266.471 776.563 200.208 821.103 252.748 C 865.643 305.288 964.309 442.69 964.309 512" fill="url(#lg-0.6590519274487807)" opacity="0.8">
  <animate attributeName="d" dur="10s" repeatCount="indefinite" keyTimes="0;0.3333333333333333;0.6666666666666666;1" calcmod="spline" keySplines="0.3 0.1 0.7 0.9;0.3 0.1 0.7 0.9;0.3 0.1 0.7 0.9" begin="-6.666666666666667s" values="M 975 512 C 975 582 870 722 825 775 C 780 828 637 817 568 829 C 499 841 416 817 356 782 C 296 747 80 743 56 678 C 32 613 52 418 76 353 C 100 288 275 241 335 206 C 395 171 488 245 557 257 C 626 269 783 194 828 247 C 873 300 975 442 975 512;M 882 512 C 882 576 859 720 818 769 C 777 818 630 810 567 821 C 504 832 427 786 372 754 C 317 722 144 714 122 654 C 100 594 100 430 122 370 C 144 310 272 223 327 191 C 382 159 498 225 561 236 C 624 247 727 248 768 297 C 809 346 882 448 882 512;M 891 512 C 891 579 827 689 784 740 C 741 791 630 795 564 807 C 498 819 394 850 336 817 C 278 784 143 718 120 655 C 97 592 123 442 146 379 C 169 316 298 274 356 241 C 414 208 506 162 572 174 C 638 186 804 180 847 231 C 890 282 891 445 891 512;M 975 512 C 975 582 870 722 825 775 C 780 828 637 817 568 829 C 499 841 416 817 356 782 C 296 747 80 743 56 678 C 32 613 52 418 76 353 C 100 288 275 241 335 206 C 395 171 488 245 557 257 C 626 269 783 194 828 247 C 873 300 975 442 975 512"></animate>
</path><path d="M 866.921 512 C 866.921 566.265 798.598 681.299 763.794 723.219 C 728.989 765.138 604.874 725.852 551.609 735.081 C 498.345 744.311 399.621 814.828 352.586 787.253 C 305.551 759.679 243.413 667.138 224.953 615.989 C 206.493 564.839 147.816 437.46 166.276 386.31 C 184.735 335.161 333.011 311.126 380.046 283.551 C 427.08 255.977 496.425 287.321 549.69 296.551 C 602.954 305.781 728.425 259.85 763.23 301.77 C 798.035 343.69 866.921 457.736 866.921 512" fill="url(#lg-0.6590519274487807)" opacity="0.8">
  <animate attributeName="d" dur="10s" repeatCount="indefinite" keyTimes="0;0.3333333333333333;0.6666666666666666;1" calcmod="spline" keySplines="0.3 0.1 0.7 0.9;0.3 0.1 0.7 0.9;0.3 0.1 0.7 0.9" begin="-6.666666666666667s" values="M 856 512 C 856 565 794 679 760 720 C 726 761 602 717 550 726 C 498 735 401 810 355 783 C 309 756 251 663 233 613 C 215 563 150 437 168 387 C 186 337 336 314 382 287 C 428 260 497 291 549 300 C 601 309 729 261 763 302 C 797 343 856 459 856 512;M 951 512 C 951 576 834 699 793 748 C 752 797 627 794 564 805 C 501 816 389 852 334 820 C 279 788 185 699 163 639 C 141 579 131 441 153 381 C 175 321 310 289 365 257 C 420 225 492 259 555 270 C 618 281 724 251 765 300 C 806 349 951 448 951 512;M 877 512 C 877 572 796 672 758 718 C 720 764 622 789 563 799 C 504 809 423 787 371 757 C 319 727 165 702 145 646 C 125 590 113 430 133 374 C 153 318 321 302 373 272 C 425 242 493 274 552 284 C 611 294 757 229 795 275 C 833 321 877 452 877 512;M 856 512 C 856 565 794 679 760 720 C 726 761 602 717 550 726 C 498 735 401 810 355 783 C 309 756 251 663 233 613 C 215 563 150 437 168 387 C 186 337 336 314 382 287 C 428 260 497 291 549 300 C 601 309 729 261 763 302 C 797 343 856 459 856 512"></animate>
</path><path d="M 831.864 512 C 831.864 565.839 772.277 659.598 738.012 700.978 C 703.748 742.357 611.184 763.954 558.345 773.299 C 505.506 782.644 436.321 750.116 389.712 723.196 C 343.103 696.277 187.183 687.713 168.608 636.989 C 150.033 586.265 179.723 448.85 198.298 398.126 C 216.873 347.402 315.506 280.035 362.115 253.115 C 408.724 226.195 503.54 252.723 556.379 262.068 C 609.219 271.413 702.058 282.333 736.323 323.712 C 770.587 365.092 831.864 458.161 831.864 512" fill="url(#lg-0.6590519274487807)" opacity="0.8">
  <animate attributeName="d" dur="10s" repeatCount="indefinite" keyTimes="0;0.3333333333333333;0.6666666666666666;1" calcmod="spline" keySplines="0.3 0.1 0.7 0.9;0.3 0.1 0.7 0.9;0.3 0.1 0.7 0.9" begin="-6.666666666666667s" values="M 816 512 C 816 564 764 655 731 695 C 698 735 609 762 558 771 C 507 780 440 740 395 714 C 350 688 195 683 177 634 C 159 585 188 450 206 401 C 224 352 317 279 362 253 C 407 227 504 261 555 270 C 606 279 697 289 730 329 C 763 369 816 460 816 512;M 954 512 C 954 580 836 695 792 747 C 748 799 628 779 561 791 C 494 803 408 828 349 794 C 290 760 127 724 104 660 C 81 596 116 440 139 376 C 162 312 304 288 363 254 C 422 220 500 189 567 201 C 634 213 741 231 785 283 C 829 335 954 444 954 512;M 834 512 C 834 568 791 673 755 716 C 719 759 614 771 559 781 C 504 791 394 829 345 801 C 296 773 189 689 170 636 C 151 583 185 453 204 400 C 223 347 319 290 368 262 C 417 234 499 263 554 273 C 609 283 740 248 776 291 C 812 334 834 456 834 512;M 816 512 C 816 564 764 655 731 695 C 698 735 609 762 558 771 C 507 780 440 740 395 714 C 350 688 195 683 177 634 C 159 585 188 450 206 401 C 224 352 317 279 362 253 C 407 227 504 261 555 270 C 606 279 697 289 730 329 C 763 369 816 460 816 512"></animate>
</path></g>
<style type="text/css">.lded > .content, .lded > .content > .inner { height: 100%; }
.lded > .content > .inner > .viewer { width: 100%; height: 100%; max-width: 100%; }
.lded > .content > .inner > .panel {
  position: absolute;
  bottom: 50px;
  left: 0;
  right: 0;
  opacity: 0.3;
}
.lded > .content > .inner > .panel:hover { opacity: 1; }
.lded > .content > .inner > .ctrl {
  position: absolute;
  bottom: 13px;
  left: 0;
  right: 0;
  margin: auto;
}
.lded > .content > .inner > .ctrl:hover {
  z-index: 10;
}
#editor > .inner > .title {
  position: absolute;
  bottom: 195px;
  left: 0;
  right: 0;
  z-index: 11;
}
#editor > .inner > .title > a:first-child {
  margin-left: 0!important;
#editor .lded .viewer { border-radius: 0 }</style></svg>