<?xml version="1.0" encoding="utf-8"?>
<svg xmlns="http://www.w3.org/2000/svg" xmlns:xlink="http://www.w3.org/1999/xlink" style="margin: auto; background: rgb(241, 242, 243); display: block; z-index: 1; position: relative; shape-rendering: auto;" width="1694" height="709" preserveAspectRatio="xMidYMid" viewBox="0 0 1694 709">
<g transform=""><linearGradient id="lg-0.6590519274487807" x1="0" x2="1" y1="0" y2="0">
  <stop stop-color="#ff00ff" offset="0"></stop>
  <stop stop-color="#00ffff" offset="1"></stop>
</linearGradient><path d="M 1137.57 355 C 1137.57 390 1066.72 454.145 1047.72 483.574 C 1028.72 513.003 972 544.143 940 558.571 C 908 573 856.001 536.852 821.572 531.852 C 787.143 526.852 698.714 579.143 672.285 556.143 C 645.857 533.143 591.426 466.001 581.426 432.572 C 571.426 399.144 594.569 316.856 604.569 283.428 C 614.569 249.999 666.432 199.576 692.861 176.576 C 719.29 153.576 788.428 191.567 822.857 186.567 C 857.285 181.567 899.573 154.139 931.573 168.568 C 963.573 182.996 1037 190.573 1056 220.002 C 1075 249.431 1137.57 320 1137.57 355" fill="url(#lg-0.6590519274487807)" opacity="0.6">
  <animate attributeName="d" dur="4.3478260869565215s" repeatCount="indefinite" keyTimes="0;0.3333333333333333;0.6666666666666666;1" calcmod="spline" keySplines="0.3 0.1 0.7 0.9;0.3 0.1 0.7 0.9;0.3 0.1 0.7 0.9" begin="-2.1739130434782608s" values="M 1133 355 C 1133 390 1085 465 1066 495 C 1047 525 972 543 940 558 C 908 573 860 514 825 509 C 790 504 697 582 670 559 C 643 536 580 470 570 436 C 560 402 582 314 592 280 C 602 246 683 219 710 196 C 737 173 785 171 820 166 C 855 161 907 137 939 152 C 971 167 1025 198 1044 228 C 1063 258 1133 320 1133 355;M 1141 355 C 1141 390 1053 446 1034 475 C 1015 504 972 545 940 559 C 908 573 853 554 819 549 C 785 544 700 577 674 554 C 648 531 600 463 590 430 C 580 397 604 319 614 286 C 624 253 654 185 680 162 C 706 139 791 207 825 202 C 859 197 894 167 926 181 C 958 195 1046 185 1065 214 C 1084 243 1141 320 1141 355;M 1113 355 C 1113 389 1062 452 1043 481 C 1024 510 956 510 925 524 C 894 538 851 569 817 564 C 783 559 702 574 676 552 C 650 530 630 454 620 421 C 610 388 583 313 593 280 C 603 247 662 193 688 171 C 714 149 789 194 823 189 C 857 184 914 125 945 139 C 976 153 1016 205 1034 234 C 1052 263 1113 321 1113 355;M 1133 355 C 1133 390 1085 465 1066 495 C 1047 525 972 543 940 558 C 908 573 860 514 825 509 C 790 504 697 582 670 559 C 643 536 580 470 570 436 C 560 402 582 314 592 280 C 602 246 683 219 710 196 C 737 173 785 171 820 166 C 855 161 907 137 939 152 C 971 167 1025 198 1044 228 C 1063 258 1133 320 1133 355"></animate>
</path><path d="M 1090.29 355 C 1090.29 388.857 1066.57 454.429 1048.14 483.286 C 1029.71 512.143 963.717 527.576 932.859 542.005 C 902.002 556.433 856.285 530.719 822.428 525.719 C 788.57 520.719 708.713 566.002 682.856 543.573 C 656.998 521.144 618.139 457.716 608.71 424.858 C 599.281 392.001 576.141 310.714 585.569 277.856 C 594.998 244.999 658.142 187.428 683.999 165.57 C 709.857 143.713 790.285 201.569 824.143 196.569 C 858 191.569 895.001 167.569 925.858 181.997 C 956.716 196.426 1036 192.287 1054.43 221.144 C 1072.85 250.002 1090.29 321.143 1090.29 355" fill="url(#lg-0.6590519274487807)" opacity="0.6">
  <animate attributeName="d" dur="4.3478260869565215s" repeatCount="indefinite" keyTimes="0;0.3333333333333333;0.6666666666666666;1" calcmod="spline" keySplines="0.3 0.1 0.7 0.9;0.3 0.1 0.7 0.9;0.3 0.1 0.7 0.9" begin="-2.1739130434782608s" values="M 1108 355 C 1108 390 1070 455 1051 485 C 1032 515 974 547 942 562 C 910 577 854 553 819 548 C 784 543 703 574 676 551 C 649 528 601 464 591 430 C 581 396 567 309 577 275 C 587 241 653 184 680 161 C 707 138 788 193 823 188 C 858 183 899 155 931 170 C 963 185 1024 198 1043 228 C 1062 258 1108 320 1108 355;M 1077 355 C 1077 388 1064 454 1046 482 C 1028 510 956 513 926 527 C 896 541 858 514 825 509 C 792 504 713 560 688 538 C 663 516 631 453 622 421 C 613 389 583 312 592 280 C 601 248 662 190 687 169 C 712 148 792 208 825 203 C 858 198 892 177 922 191 C 952 205 1045 188 1063 216 C 1081 244 1077 322 1077 355;M 1080 355 C 1080 388 1055 450 1037 477 C 1019 504 970 545 940 559 C 910 573 858 503 826 498 C 794 493 711 561 686 540 C 661 519 615 456 606 425 C 597 394 576 309 585 278 C 594 247 669 198 694 177 C 719 156 793 203 825 198 C 857 193 908 141 938 155 C 968 169 1035 195 1053 222 C 1071 249 1080 322 1080 355;M 1108 355 C 1108 390 1070 455 1051 485 C 1032 515 974 547 942 562 C 910 577 854 553 819 548 C 784 543 703 574 676 551 C 649 528 601 464 591 430 C 581 396 567 309 577 275 C 587 241 653 184 680 161 C 707 138 788 193 823 188 C 858 183 899 155 931 170 C 963 185 1024 198 1043 228 C 1062 258 1108 320 1108 355"></animate>
</path><path d="M 1117.71 355 C 1117.71 389.143 1064 453.428 1045.43 482.57 C 1026.86 511.713 966.285 532.285 935.143 546.857 C 904 561.428 856.429 531.711 822.286 526.711 C 788.143 521.711 723.719 549.422 697.577 526.851 C 671.434 504.28 609.998 459.857 600.427 426.715 C 590.856 393.572 574.867 310.717 584.438 277.574 C 594.009 244.431 676.431 210.002 702.573 187.431 C 728.716 164.859 789.001 192.576 823.143 187.576 C 857.286 182.576 908.855 135.149 939.997 149.72 C 971.14 164.292 1053.57 180.43 1072.14 209.572 C 1090.71 238.715 1117.71 320.857 1117.71 355" fill="url(#lg-0.6590519274487807)" opacity="0.6">
  <animate attributeName="d" dur="4.3478260869565215s" repeatCount="indefinite" keyTimes="0;0.3333333333333333;0.6666666666666666;1" calcmod="spline" keySplines="0.3 0.1 0.7 0.9;0.3 0.1 0.7 0.9;0.3 0.1 0.7 0.9" begin="-2.1739130434782608s" values="M 1096 355 C 1096 388 1056 450 1038 478 C 1020 506 964 530 934 544 C 904 558 857 518 824 513 C 791 508 746 522 721 500 C 696 478 602 461 593 429 C 584 397 616 321 625 289 C 634 257 685 218 710 196 C 735 174 793 212 826 207 C 859 202 898 162 928 176 C 958 190 1049 185 1067 213 C 1085 241 1096 322 1096 355;M 1134 355 C 1134 390 1070 456 1051 486 C 1032 516 968 534 936 549 C 904 564 856 542 821 537 C 786 532 707 570 680 547 C 653 524 616 459 606 425 C 596 391 544 303 554 269 C 564 235 670 204 697 181 C 724 158 786 178 821 173 C 856 168 917 115 949 130 C 981 145 1057 177 1076 207 C 1095 237 1134 320 1134 355;M 1101 355 C 1101 387 1063 455 1045 482 C 1027 509 955 514 926 527 C 897 540 851 556 819 551 C 787 546 714 558 689 537 C 664 516 637 450 628 419 C 619 388 577 309 586 278 C 595 247 671 200 695 179 C 719 158 788 170 820 165 C 852 160 897 165 927 178 C 957 191 1012 210 1030 237 C 1048 264 1101 323 1101 355;M 1096 355 C 1096 388 1056 450 1038 478 C 1020 506 964 530 934 544 C 904 558 857 518 824 513 C 791 508 746 522 721 500 C 696 478 602 461 593 429 C 584 397 616 321 625 289 C 634 257 685 218 710 196 C 735 174 793 212 826 207 C 859 202 898 162 928 176 C 958 190 1049 185 1067 213 C 1085 241 1096 322 1096 355"></animate>
</path><path d="M 1115.57 355 C 1115.57 388 1054.57 449 1036.57 476.571 C 1018.57 504.143 956.144 515.146 926.144 528.718 C 896.144 542.289 852.286 550.425 819.715 545.425 C 787.143 540.425 724.718 545.568 699.718 523.996 C 674.718 502.425 617.288 456.428 608.288 424.856 C 599.288 393.285 590.139 313.713 599.139 282.142 C 608.139 250.57 667.143 197.715 692.143 176.144 C 717.143 154.572 789.715 186.718 822.286 181.718 C 854.857 176.718 905.999 146.431 935.999 160.431 C 965.999 174.431 1028.14 199.144 1046.14 226.716 C 1064.14 254.287 1115.57 322 1115.57 355" fill="url(#lg-0.6590519274487807)" opacity="0.6">
  <animate attributeName="d" dur="4.3478260869565215s" repeatCount="indefinite" keyTimes="0;0.3333333333333333;0.6666666666666666;1" calcmod="spline" keySplines="0.3 0.1 0.7 0.9;0.3 0.1 0.7 0.9;0.3 0.1 0.7 0.9" begin="-2.1739130434782608s" values="M 1111 355 C 1111 388 1054 449 1036 476 C 1018 503 963 530 933 543 C 903 556 854 535 822 530 C 790 525 739 529 714 508 C 689 487 627 453 618 422 C 609 391 573 308 582 277 C 591 246 670 200 695 179 C 720 158 792 201 824 196 C 856 191 902 155 932 169 C 962 183 1019 206 1037 233 C 1055 260 1111 322 1111 355;M 1119 355 C 1119 388 1055 449 1037 477 C 1019 505 951 504 921 518 C 891 532 851 562 818 557 C 785 552 714 558 689 536 C 664 514 610 459 601 427 C 592 395 603 318 612 286 C 621 254 665 196 690 174 C 715 152 788 176 821 171 C 854 166 909 140 939 154 C 969 168 1035 194 1053 222 C 1071 250 1119 322 1119 355;M 1097 355 C 1097 388 1058 450 1040 478 C 1022 506 954 509 924 523 C 894 537 855 533 822 528 C 789 523 706 568 681 546 C 656 524 601 461 592 429 C 583 397 604 318 613 286 C 622 254 690 224 715 202 C 740 180 790 193 823 188 C 856 183 890 182 920 196 C 950 210 1009 211 1027 239 C 1045 267 1097 322 1097 355;M 1111 355 C 1111 388 1054 449 1036 476 C 1018 503 963 530 933 543 C 903 556 854 535 822 530 C 790 525 739 529 714 508 C 689 487 627 453 618 422 C 609 391 573 308 582 277 C 591 246 670 200 695 179 C 720 158 792 201 824 196 C 856 191 902 155 932 169 C 962 183 1019 206 1037 233 C 1055 260 1111 322 1111 355"></animate>
</path></g>
<style type="text/css">.lded > .content, .lded > .content > .inner { height: 100%; }
.lded > .content > .inner > .viewer { width: 100%; height: 100%; max-width: 100%; }
.lded > .content > .inner > .panel {
  position: absolute;
  bottom: 50px;
  left: 0;
  right: 0;
  opacity: 0.3;
}
.lded > .content > .inner > .panel:hover { opacity: 1; }
.lded > .content > .inner > .ctrl {
  position: absolute;
  bottom: 13px;
  left: 0;
  right: 0;
  margin: auto;
}
.lded > .content > .inner > .ctrl:hover {
  z-index: 10;
}
#editor > .inner > .title {
  position: absolute;
  bottom: 195px;
  left: 0;
  right: 0;
  z-index: 11;
}
#editor > .inner > .title > a:first-child {
  margin-left: 0!important;
#editor .lded .viewer { border-radius: 0 }</style></svg>