<?xml version="1.0" encoding="utf-8"?>
<svg xmlns="http://www.w3.org/2000/svg" xmlns:xlink="http://www.w3.org/1999/xlink" style="margin: auto; background: rgb(69, 39, 160); display: block; z-index: 1; position: relative; shape-rendering: auto;" width="1600" height="569" preserveAspectRatio="xMidYMid" viewBox="0 0 1600 569">
<g transform=""><path id="path0" d="M 1472.502385383694 382.27396954971164
c 0 20.017816231864945 -4.89797631205206 5.7497982793654625 -10.647774591417523 5.7497982793654625
S 1451.2068362008588 402.2917857815766 1451.2068362008588 382.27396954971164
s 4.89797631205206 -5.7497982793654625 10.647774591417523 -5.7497982793654625
S 1472.502385383694 362.25615331784667 1472.502385383694 382.27396954971164
z" fill="none" stroke="none"></path>
<circle cx="0" cy="0" r="9.954311564692684" fill="#4527a0">
  <animateMotion begin="-6.310302079610591s" dur="11.68s" repeatCount="indefinite">
    <mpath xlink:href="#path0"></mpath>
  </animateMotion>
</circle><path id="path1" d="M 1247.7869553070313 250.59121148008757
c 0 30.58252974993728 -7.482959406899546 8.78434365157773 -16.267303058477275 8.78434365157773
S 1215.252349190077 281.17374123002486 1215.252349190077 250.59121148008757
s 7.482959406899546 -8.78434365157773 16.267303058477275 -8.78434365157773
S 1247.7869553070313 220.00868173015027 1247.7869553070313 250.59121148008757
z" fill="none" stroke="none"></path>
<circle cx="0" cy="0" r="11.830043237984915" fill="#4527a0">
  <animateMotion begin="-0.872382685427545s" dur="11.68s" repeatCount="indefinite">
    <mpath xlink:href="#path1"></mpath>
  </animateMotion>
</circle><path id="path2" d="M 1287.8918221511353 475.9790389517703
c 0 31.719898409595036 -7.761251738517934 9.111034649564532 -16.872286388082465 9.111034649564532
S 1254.1472493749702 507.6989373613653 1254.1472493749702 475.9790389517703
s 7.761251738517934 -9.111034649564532 16.872286388082465 -9.111034649564532
S 1287.8918221511353 444.25914054217526 1287.8918221511353 475.9790389517703
z" fill="none" stroke="none"></path>
<circle cx="0" cy="0" r="6.931484857681388" fill="#4527a0">
  <animateMotion begin="-0.17658158535384336s" dur="11.68s" repeatCount="indefinite">
    <mpath xlink:href="#path2"></mpath>
  </animateMotion>
</circle><path id="path3" d="M 822.998889554323 94.0372396100357
c 0 22.360654120299248 -5.471223880498751 6.422741077107231 -11.893964957605982 6.422741077107231
S 799.2109596391111 116.39789373033494 799.2109596391111 94.0372396100357
s 5.471223880498751 -6.422741077107231 11.893964957605982 -6.422741077107231
S 822.998889554323 71.67658548973645 822.998889554323 94.0372396100357
z" fill="none" stroke="none"></path>
<circle cx="0" cy="0" r="11.466313448025481" fill="#00b0ff">
  <animateMotion begin="-9.140886775165892s" dur="11.68s" repeatCount="indefinite">
    <mpath xlink:href="#path3"></mpath>
  </animateMotion>
</circle><path id="path4" d="M 921.4573886437452 289.9971101906826
c 0 37.036017955096774 -9.062004393268358 10.638005157315032 -19.700009550583392 10.638005157315032
S 882.0573695425783 327.03312814577936 882.0573695425783 289.9971101906826
s 9.062004393268358 -10.638005157315032 19.700009550583392 -10.638005157315032
S 921.4573886437452 252.9610922355858 921.4573886437452 289.9971101906826
z" fill="none" stroke="none"></path>
<circle cx="0" cy="0" r="9.368277727398771" fill="#00b0ff">
  <animateMotion begin="-2.942935908465171s" dur="11.68s" repeatCount="indefinite">
    <mpath xlink:href="#path4"></mpath>
  </animateMotion>
</circle><path id="path5" d="M 236.6405589913467 313.3534978663084
c 0 36.54095420882101 -8.940871774498756 10.495805996150716 -19.436677770649474 10.495805996150716
S 197.76720345004773 349.8944520751294 197.76720345004773 313.3534978663084
s 8.940871774498756 -10.495805996150716 19.436677770649474 -10.495805996150716
S 236.6405589913467 276.81254365748737 236.6405589913467 313.3534978663084
z" fill="none" stroke="none"></path>
<circle cx="0" cy="0" r="11.773835717701704" fill="#3d5afe">
  <animateMotion begin="-7.80763919457575s" dur="11.68s" repeatCount="indefinite">
    <mpath xlink:href="#path5"></mpath>
  </animateMotion>
</circle><path id="path6" d="M 1468.952212875751 179.30975642449414
c 0 30.80275218576268 -7.536843619920655 8.84759903208077 -16.384442652001425 8.84759903208077
S 1436.1833275717484 210.1125086102568 1436.1833275717484 179.30975642449414
s 7.536843619920655 -8.84759903208077 16.384442652001425 -8.84759903208077
S 1468.952212875751 148.50700423873147 1468.952212875751 179.30975642449414
z" fill="none" stroke="none"></path>
<circle cx="0" cy="0" r="6.515641902522019" fill="#4527a0">
  <animateMotion begin="-3.192736682296378s" dur="11.68s" repeatCount="indefinite">
    <mpath xlink:href="#path6"></mpath>
  </animateMotion>
</circle><path id="path7" d="M 759.7639842570969 379.5087614607653
c 0 25.338697068736554 -6.199893963627028 7.278136392083904 -13.478030355710933 7.278136392083904
S 732.807923545675 404.84745852950186 732.807923545675 379.5087614607653
s 6.199893963627028 -7.278136392083904 13.478030355710933 -7.278136392083904
S 759.7639842570969 354.17006439202873 759.7639842570969 379.5087614607653
z" fill="none" stroke="none"></path>
<circle cx="0" cy="0" r="10.933970630088588" fill="#00b0ff">
  <animateMotion begin="-8.810936012728178s" dur="11.68s" repeatCount="indefinite">
    <mpath xlink:href="#path7"></mpath>
  </animateMotion>
</circle><path id="path8" d="M 269.74844996471654 61.16306587071566
c 0 23.178973635392506 -5.6714509958939106 6.657790299527634 -12.329241295421545 6.657790299527634
S 245.08996737387346 84.34203950610816 245.08996737387346 61.16306587071566
s 5.6714509958939106 -6.657790299527634 12.329241295421545 -6.657790299527634
S 269.74844996471654 37.98409223532316 269.74844996471654 61.16306587071566
z" fill="none" stroke="none"></path>
<circle cx="0" cy="0" r="6.89433072849674" fill="#3d5afe">
  <animateMotion begin="-5.06999367303703s" dur="11.68s" repeatCount="indefinite">
    <mpath xlink:href="#path8"></mpath>
  </animateMotion>
</circle><path id="path9" d="M 387.2112723965716 401.9249820097555
c 0 22.224503222827753 -5.437910363032322 6.3836339044292485 -11.82154426746157 6.3836339044292485
S 363.5681838616485 424.1494852325833 363.5681838616485 401.9249820097555
s 5.437910363032322 -6.3836339044292485 11.82154426746157 -6.3836339044292485
S 387.2112723965716 379.70047878692776 387.2112723965716 401.9249820097555
z" fill="none" stroke="none"></path>
<circle cx="0" cy="0" r="10.857053459021044" fill="#00b0ff">
  <animateMotion begin="-9.890584407370351s" dur="11.68s" repeatCount="indefinite">
    <mpath xlink:href="#path9"></mpath>
  </animateMotion>
</circle><path id="path10" d="M 135.624553417067 103.6670654777051
c 0 20.069120684009604 -4.91052952906618 5.764534664555951 -10.67506419362213 5.764534664555951
S 114.27442502982275 123.7361861617147 114.27442502982275 103.6670654777051
s 4.91052952906618 -5.764534664555951 10.67506419362213 -5.764534664555951
S 135.624553417067 83.59794479369549 135.624553417067 103.6670654777051
z" fill="none" stroke="none"></path>
<circle cx="0" cy="0" r="10.475240488046923" fill="#aa00ff">
  <animateMotion begin="-3.4373730444689428s" dur="11.68s" repeatCount="indefinite">
    <mpath xlink:href="#path10"></mpath>
  </animateMotion>
</circle><path id="path11" d="M 838.7647080583654 481.75035210146274
c 0 34.39061233935505 -8.414724295799639 9.87815460811262 -18.29287890391226 9.87815460811262
S 802.1789502505408 516.1409644408178 802.1789502505408 481.75035210146274
s 8.414724295799639 -9.87815460811262 18.29287890391226 -9.87815460811262
S 838.7647080583654 447.35973976210767 838.7647080583654 481.75035210146274
z" fill="none" stroke="none"></path>
<circle cx="0" cy="0" r="11.311256871117278" fill="#3d5afe">
  <animateMotion begin="-8.279248162004357s" dur="11.68s" repeatCount="indefinite">
    <mpath xlink:href="#path11"></mpath>
  </animateMotion>
</circle><path id="path12" d="M 406.06620643859867 208.73693175760775
c 0 23.94448418286143 -5.858756768146946 6.877670988694241 -12.736427756841186 6.877670988694241
S 380.5933509249163 232.68141594046918 380.5933509249163 208.73693175760775
s 5.858756768146946 -6.877670988694241 12.736427756841186 -6.877670988694241
S 406.06620643859867 184.79244757474632 406.06620643859867 208.73693175760775
z" fill="none" stroke="none"></path>
<circle cx="0" cy="0" r="9.611897672817364" fill="#4527a0">
  <animateMotion begin="-3.132627102023102s" dur="11.68s" repeatCount="indefinite">
    <mpath xlink:href="#path12"></mpath>
  </animateMotion>
</circle><path id="path13" d="M 1078.787607812144 93.00907591648975
c 0 26.551922715265047 -6.496747047352085 7.626616099065493 -14.123363146417578 7.626616099065493
S 1050.5408815193086 119.5609986317548 1050.5408815193086 93.00907591648975
s 6.496747047352085 -7.626616099065493 14.123363146417578 -7.626616099065493
S 1078.787607812144 66.4571532012247 1078.787607812144 93.00907591648975
z" fill="none" stroke="none"></path>
<circle cx="0" cy="0" r="6.041806035280206" fill="#00b0ff">
  <animateMotion begin="-3.0946195717898286s" dur="11.68s" repeatCount="indefinite">
    <mpath xlink:href="#path13"></mpath>
  </animateMotion>
</circle><path id="path14" d="M 1585.4806007463592 375.1914947816188
c 0 27.37597929983105 -6.698377913788448 7.863313203142962 -14.56169111693141 7.863313203142962
S 1556.3572185124965 402.56747408144986 1556.3572185124965 375.1914947816188
s 6.698377913788448 -7.863313203142962 14.56169111693141 -7.863313203142962
S 1585.4806007463592 347.81551548178777 1585.4806007463592 375.1914947816188
z" fill="none" stroke="none"></path>
<circle cx="0" cy="0" r="10.799167493263864" fill="#3d5afe">
  <animateMotion begin="-3.0906281522129557s" dur="11.68s" repeatCount="indefinite">
    <mpath xlink:href="#path14"></mpath>
  </animateMotion>
</circle><path id="path15" d="M 345.7920457884798 553.7084335482223
c 0 36.73015631275312 -8.987165906311931 10.550151281322703 -19.537317187634635 10.550151281322703
S 306.7174114132105 590.4385898609754 306.7174114132105 553.7084335482223
s 8.987165906311931 -10.550151281322703 19.537317187634635 -10.550151281322703
S 345.7920457884798 516.9782772354691 345.7920457884798 553.7084335482223
z" fill="none" stroke="none"></path>
<circle cx="0" cy="0" r="10.2497033267489" fill="#3d5afe">
  <animateMotion begin="-4.061165432881501s" dur="11.68s" repeatCount="indefinite">
    <mpath xlink:href="#path15"></mpath>
  </animateMotion>
</circle><path id="path16" d="M 31.49752589893477 297.56222540921226
c 0 36.484581709751005 -8.927078503449712 10.479613895354012 -19.406692398803724 10.479613895354012
S -7.315858898672676 334.0468071189633 -7.315858898672676 297.56222540921226
s 8.927078503449712 -10.479613895354012 19.406692398803724 -10.479613895354012
S 31.49752589893477 261.07764369946125 31.49752589893477 297.56222540921226
z" fill="none" stroke="none"></path>
<circle cx="0" cy="0" r="10.127510253555354" fill="#3d5afe">
  <animateMotion begin="-5.432544571305415s" dur="11.68s" repeatCount="indefinite">
    <mpath xlink:href="#path16"></mpath>
  </animateMotion>
</circle><path id="path17" d="M 302.78379598366956 494.52613800991674
c 0 27.205157170761243 -6.656581009867112 7.814247272452698 -14.47082828231981 7.814247272452698
S 273.84213941902993 521.731295180678 273.84213941902993 494.52613800991674
s 6.656581009867112 -7.814247272452698 14.47082828231981 -7.814247272452698
S 302.78379598366956 467.3209808391555 302.78379598366956 494.52613800991674
z" fill="none" stroke="none"></path>
<circle cx="0" cy="0" r="11.040928344983548" fill="#aa00ff">
  <animateMotion begin="-8.23041094468167s" dur="11.68s" repeatCount="indefinite">
    <mpath xlink:href="#path17"></mpath>
  </animateMotion>
</circle><path id="path18" d="M 76.10564754931725 379.3922870106388
c 0 29.887169878152417 -7.31281816167559 8.584612624575694 -15.897430786251284 8.584612624575694
S 44.310785976814685 409.27945688879123 44.310785976814685 379.3922870106388
s 7.31281816167559 -8.584612624575694 15.897430786251284 -8.584612624575694
S 76.10564754931725 349.5051171324864 76.10564754931725 379.3922870106388
z" fill="none" stroke="none"></path>
<circle cx="0" cy="0" r="7.149901271356996" fill="#4527a0">
  <animateMotion begin="-3.437637240487049s" dur="11.68s" repeatCount="indefinite">
    <mpath xlink:href="#path18"></mpath>
  </animateMotion>
</circle><path id="path19" d="M 552.7229891282201 518.1364503409883
c 0 30.16800088761881 -7.381532132076942 8.66527685069902 -16.04680898277596 8.66527685069902
S 520.6293711626682 548.3044512286071 520.6293711626682 518.1364503409883
s 7.381532132076942 -8.66527685069902 16.04680898277596 -8.66527685069902
S 552.7229891282201 487.9684494533695 552.7229891282201 518.1364503409883
z" fill="none" stroke="none"></path>
<circle cx="0" cy="0" r="7.3360741011778465" fill="#3d5afe">
  <animateMotion begin="-8.085819162682704s" dur="11.68s" repeatCount="indefinite">
    <mpath xlink:href="#path19"></mpath>
  </animateMotion>
</circle><path id="path20" d="M 262.8965330567884 424.3864530415289
c 0 37.44732484185728 -9.162643312369333 10.756146497129219 -19.918789809498552 10.756146497129219
S 223.0589534377913 461.8337778833862 223.0589534377913 424.3864530415289
s 9.162643312369333 -10.756146497129219 19.918789809498552 -10.756146497129219
S 262.8965330567884 386.93912819967164 262.8965330567884 424.3864530415289
z" fill="none" stroke="none"></path>
<circle cx="0" cy="0" r="7.814168789485468" fill="#00b0ff">
  <animateMotion begin="-3.252046164618371s" dur="11.68s" repeatCount="indefinite">
    <mpath xlink:href="#path20"></mpath>
  </animateMotion>
</circle><path id="path21" d="M 935.9836128324703 225.383967502133
c 0 34.33444958544051 -8.400982345373741 9.862022753264826 -18.263005098638565 9.862022753264826
S 899.4576026351931 259.7184170875735 899.4576026351931 225.383967502133
s 8.400982345373741 -9.862022753264826 18.263005098638565 -9.862022753264826
S 935.9836128324703 191.04951791669248 935.9836128324703 225.383967502133
z" fill="none" stroke="none"></path>
<circle cx="0" cy="0" r="10.697521577997657" fill="#4527a0">
  <animateMotion begin="-8.933748344779962s" dur="11.68s" repeatCount="indefinite">
    <mpath xlink:href="#path21"></mpath>
  </animateMotion>
</circle><path id="path22" d="M 467.8457300043559 208.74415580166777
c 0 28.261187796624853 -6.914971482152889 8.117575218179478 -15.032546700332368 8.117575218179478
S 437.78063660369116 237.00534359829263 437.78063660369116 208.74415580166777
s 6.914971482152889 -8.117575218179478 15.032546700332368 -8.117575218179478
S 467.8457300043559 180.48296800504292 467.8457300043559 208.74415580166777
z" fill="none" stroke="none"></path>
<circle cx="0" cy="0" r="9.396993234426821" fill="#00b0ff">
  <animateMotion begin="-3.2827856007942353s" dur="11.68s" repeatCount="indefinite">
    <mpath xlink:href="#path22"></mpath>
  </animateMotion>
</circle><path id="path23" d="M 1069.8369074603193 189.9703539505356
c 0 20.201912557872895 -4.94302115777741 5.802677011303916 -10.745698169081326 5.802677011303916
S 1048.3455111221565 210.1722665084085 1048.3455111221565 189.9703539505356
s 4.94302115777741 -5.802677011303916 10.745698169081326 -5.802677011303916
S 1069.8369074603193 169.7684413926627 1069.8369074603193 189.9703539505356
z" fill="none" stroke="none"></path>
<circle cx="0" cy="0" r="11.6096884568728" fill="#3d5afe">
  <animateMotion begin="-1.4987164949928582s" dur="11.68s" repeatCount="indefinite">
    <mpath xlink:href="#path23"></mpath>
  </animateMotion>
</circle><path id="path24" d="M 499.35281873628077 348.14731724417896
c 0 32.652475993971414 -7.9894356155461965 9.378902679119449 -17.368338294665648 9.378902679119449
S 464.61614214694947 380.79979323815036 464.61614214694947 348.14731724417896
s 7.9894356155461965 -9.378902679119449 17.368338294665648 -9.378902679119449
S 499.35281873628077 315.49484125020757 499.35281873628077 348.14731724417896
z" fill="none" stroke="none"></path>
<circle cx="0" cy="0" r="6.309024483624218" fill="#4527a0">
  <animateMotion begin="-8.226108032241743s" dur="11.68s" repeatCount="indefinite">
    <mpath xlink:href="#path24"></mpath>
  </animateMotion>
</circle><path id="path25" d="M 522.3134908707298 469.3683509945072
c 0 28.374834580757934 -6.942778674015238 8.150218443409194 -15.092997117424432 8.150218443409194
S 492.1274966358809 497.7431855752651 492.1274966358809 469.3683509945072
s 6.942778674015238 -8.150218443409194 15.092997117424432 -8.150218443409194
S 522.3134908707298 440.99351641374926 522.3134908707298 469.3683509945072
z" fill="none" stroke="none"></path>
<circle cx="0" cy="0" r="7.315757206918994" fill="#00b0ff">
  <animateMotion begin="-10.028333442274235s" dur="11.68s" repeatCount="indefinite">
    <mpath xlink:href="#path25"></mpath>
  </animateMotion>
</circle><path id="path26" d="M 723.5144801901596 217.0175591318136
c 0 35.42106100309088 -8.666855351820105 10.174134543440996 -18.840989895261103 10.174134543440996
S 685.8325003996373 252.43862013490448 685.8325003996373 217.0175591318136
s 8.666855351820105 -10.174134543440996 18.840989895261103 -10.174134543440996
S 723.5144801901596 181.59649812872274 723.5144801901596 217.0175591318136
z" fill="none" stroke="none"></path>
<circle cx="0" cy="0" r="11.028085086705179" fill="#00b0ff">
  <animateMotion begin="-3.735358855539413s" dur="11.68s" repeatCount="indefinite">
    <mpath xlink:href="#path26"></mpath>
  </animateMotion>
</circle><path id="path27" d="M 763.2579153168136 35.785315121877765
c 0 28.909045473514027 -7.0734898499023675 8.303661997711476 -15.377151847613844 8.303661997711476
S 732.503611621586 64.6943605953918 732.503611621586 35.785315121877765
s 7.0734898499023675 -8.303661997711476 15.377151847613844 -8.303661997711476
S 763.2579153168136 6.876269648363738 763.2579153168136 35.785315121877765
z" fill="none" stroke="none"></path>
<circle cx="0" cy="0" r="10.94001916407425" fill="#00b0ff">
  <animateMotion begin="-4.245995602646833s" dur="11.68s" repeatCount="indefinite">
    <mpath xlink:href="#path27"></mpath>
  </animateMotion>
</circle><path id="path28" d="M 1177.0978239101148 147.780777695673
c 0 19.39566461418629 -4.74574772474771 5.571095155138616 -10.316842879886325 5.571095155138616
S 1156.4641381503423 167.1764423098593 1156.4641381503423 147.780777695673
s 4.74574772474771 -5.571095155138616 10.316842879886325 -5.571095155138616
S 1177.0978239101148 128.3851130814867 1177.0978239101148 147.780777695673
z" fill="none" stroke="none"></path>
<circle cx="0" cy="0" r="7.56030821214115" fill="#3d5afe">
  <animateMotion begin="-8.953195797576182s" dur="11.68s" repeatCount="indefinite">
    <mpath xlink:href="#path28"></mpath>
  </animateMotion>
</circle><path id="path29" d="M 914.229958316792 472.6193556114883
c 0 32.85378799118968 -8.03869280635492 9.436726337894909 -17.475419144249827 9.436726337894909
S 879.2791200282924 505.47314360267796 879.2791200282924 472.6193556114883
s 8.03869280635492 -9.436726337894909 17.475419144249827 -9.436726337894909
S 914.229958316792 439.7655676202986 914.229958316792 472.6193556114883
z" fill="none" stroke="none"></path>
<circle cx="0" cy="0" r="7.148714954507895" fill="#3d5afe">
  <animateMotion begin="-10.449763217217134s" dur="11.68s" repeatCount="indefinite">
    <mpath xlink:href="#path29"></mpath>
  </animateMotion>
</circle><path id="path30" d="M 855.6730757884825 546.1083292093468
c 0 33.48264493665787 -8.192562058969477 9.617355460529389 -17.809917519498867 9.617355460529389
S 820.0532407494848 579.5909741460047 820.0532407494848 546.1083292093468
s 8.192562058969477 -9.617355460529389 17.809917519498867 -9.617355460529389
S 855.6730757884825 512.625684272689 855.6730757884825 546.1083292093468
z" fill="none" stroke="none"></path>
<circle cx="0" cy="0" r="10.780292553459308" fill="#3d5afe">
  <animateMotion begin="-5.877295015578751s" dur="11.68s" repeatCount="indefinite">
    <mpath xlink:href="#path30"></mpath>
  </animateMotion>
</circle><path id="path31" d="M 1364.9622852824214 362.95447706843674
c 0 20.002788803525032 -4.89429938809655 5.7454818903742115 -10.63978127847076 5.7454818903742115
S 1343.6827227254798 382.9572658719618 1343.6827227254798 362.95447706843674
s 4.89429938809655 -5.7454818903742115 10.63978127847076 -5.7454818903742115
S 1364.9622852824214 342.9516882649117 1364.9622852824214 362.95447706843674
z" fill="none" stroke="none"></path>
<circle cx="0" cy="0" r="7.408926600079478" fill="#4527a0">
  <animateMotion begin="-2.0096511471278675s" dur="11.68s" repeatCount="indefinite">
    <mpath xlink:href="#path31"></mpath>
  </animateMotion>
</circle><path id="path32" d="M 770.9307367078588 518.580652631564
c 0 21.919441381950406 -5.363267572179354 6.29600975864533 -11.659277330824684 6.29600975864533
S 747.6121820462095 540.5000940135144 747.6121820462095 518.580652631564
s 5.363267572179354 -6.29600975864533 11.659277330824684 -6.29600975864533
S 770.9307367078588 496.66121124961364 770.9307367078588 518.580652631564
z" fill="none" stroke="none"></path>
<circle cx="0" cy="0" r="11.098743968983523" fill="#aa00ff">
  <animateMotion begin="-5.181340025147561s" dur="11.68s" repeatCount="indefinite">
    <mpath xlink:href="#path32"></mpath>
  </animateMotion>
</circle><path id="path33" d="M 1062.760248623536 237.25005714940872
c 0 26.825168219865283 -6.563604989967036 7.705101509961304 -14.26870649992834 7.705101509961304
S 1034.2228356236792 264.075225369274 1034.2228356236792 237.25005714940872
s 6.563604989967036 -7.705101509961304 14.26870649992834 -7.705101509961304
S 1062.760248623536 210.42488892954344 1062.760248623536 237.25005714940872
z" fill="none" stroke="none"></path>
<circle cx="0" cy="0" r="11.373702280040611" fill="#3d5afe">
  <animateMotion begin="-0.14158222301487555s" dur="11.68s" repeatCount="indefinite">
    <mpath xlink:href="#path33"></mpath>
  </animateMotion>
</circle><path id="path34" d="M 782.1621257793728 219.48323082879008
c 0 36.69984107723633 -8.979748348685483 10.541443713674266 -19.52119206235975 10.541443713674266
S 743.1197416546532 256.1830719060264 743.1197416546532 219.48323082879008
s 8.979748348685483 -10.541443713674266 19.52119206235975 -10.541443713674266
S 782.1621257793728 182.78338975155376 782.1621257793728 219.48323082879008
z" fill="none" stroke="none"></path>
<circle cx="0" cy="0" r="10.955271894694759" fill="#00b0ff">
  <animateMotion begin="-2.2581833380956615s" dur="11.68s" repeatCount="indefinite">
    <mpath xlink:href="#path34"></mpath>
  </animateMotion>
</circle><path id="path35" d="M 1503.4543315877927 528.638179580735
c 0 31.67430058116349 -7.750094823050641 9.097937400972492 -16.848032224023132 9.097937400972492
S 1469.7582671397463 560.3124801618985 1469.7582671397463 528.638179580735
s 7.750094823050641 -9.097937400972492 16.848032224023132 -9.097937400972492
S 1503.4543315877927 496.96387899957153 1503.4543315877927 528.638179580735
z" fill="none" stroke="none"></path>
<circle cx="0" cy="0" r="10.665878452205451" fill="#4527a0">
  <animateMotion begin="-2.359835359944991s" dur="11.68s" repeatCount="indefinite">
    <mpath xlink:href="#path35"></mpath>
  </animateMotion>
</circle><path id="path36" d="M 797.1037690694012 470.2333817557182
c 0 28.587409924894022 -6.994791790133643 8.211277318852538 -15.206069108986181 8.211277318852538
S 766.6916308514288 498.8207916806122 766.6916308514288 470.2333817557182
s 6.994791790133643 -8.211277318852538 15.206069108986181 -8.211277318852538
S 797.1037690694012 441.6459718308242 797.1037690694012 470.2333817557182
z" fill="none" stroke="none"></path>
<circle cx="0" cy="0" r="6.536286522868367" fill="#aa00ff">
  <animateMotion begin="-2.5087465394000192s" dur="11.68s" repeatCount="indefinite">
    <mpath xlink:href="#path36"></mpath>
  </animateMotion>
</circle><path id="path37" d="M 1134.3004253898555 252.8748163562202
c 0 31.40878439598171 -7.68512809688914 9.021672113739427 -16.70680021062857 9.021672113739427
S 1100.8868249685981 284.2836007522019 1100.8868249685981 252.8748163562202
s 7.68512809688914 -9.021672113739427 16.70680021062857 -9.021672113739427
S 1134.3004253898555 221.4660319602385 1134.3004253898555 252.8748163562202
z" fill="none" stroke="none"></path>
<circle cx="0" cy="0" r="7.66849397553153" fill="#3d5afe">
  <animateMotion begin="-10.909650271734703s" dur="11.68s" repeatCount="indefinite">
    <mpath xlink:href="#path37"></mpath>
  </animateMotion>
</circle><path id="path38" d="M 316.9418949370922 153.97876656268625
c 0 26.977172889493747 -6.600797621897406 7.74876242570565 -14.349560047603056 7.74876242570565
S 288.24277484188605 180.95593945218 288.24277484188605 153.97876656268625
s 6.600797621897406 -7.74876242570565 14.349560047603056 -7.74876242570565
S 316.9418949370922 127.0015936731925 316.9418949370922 153.97876656268625
z" fill="none" stroke="none"></path>
<circle cx="0" cy="0" r="11.224555939658291" fill="#4527a0">
  <animateMotion begin="-2.216505118400461s" dur="11.68s" repeatCount="indefinite">
    <mpath xlink:href="#path38"></mpath>
  </animateMotion>
</circle><path id="path39" d="M 854.0636351059518 134.06514829066793
c 0 20.981275778922733 -5.133716413991732 6.026536659903338 -11.16025307389507 6.026536659903338
S 831.7431289581616 155.04642406959067 831.7431289581616 134.06514829066793
s 5.133716413991732 -6.026536659903338 11.16025307389507 -6.026536659903338
S 854.0636351059518 113.0838725117452 854.0636351059518 134.06514829066793
z" fill="none" stroke="none"></path>
<circle cx="0" cy="0" r="9.981799947797679" fill="#3d5afe">
  <animateMotion begin="-11.18551258280966s" dur="11.68s" repeatCount="indefinite">
    <mpath xlink:href="#path39"></mpath>
  </animateMotion>
</circle><path id="path40" d="M 273.41071801014516 428.82765147552925
c 0 29.469554027759525 -7.210635559983713 8.464659135633056 -15.675294695616769 8.464659135633056
S 242.06012861891165 458.29720550328875 242.06012861891165 428.82765147552925
s 7.210635559983713 -8.464659135633056 15.675294695616769 -8.464659135633056
S 273.41071801014516 399.35809744776975 273.41071801014516 428.82765147552925
z" fill="none" stroke="none"></path>
<circle cx="0" cy="0" r="11.884820808360546" fill="#aa00ff">
  <animateMotion begin="-8.72374028006049s" dur="11.68s" repeatCount="indefinite">
    <mpath xlink:href="#path40"></mpath>
  </animateMotion>
</circle><path id="path41" d="M 537.0019413112665 453.1177939069045
c 0 27.63190227273376 -6.7609973646050685 7.936822993232037 -14.697820357837106 7.936822993232037
S 507.60630059559224 480.7496961796383 507.60630059559224 453.1177939069045
s 6.7609973646050685 -7.936822993232037 14.697820357837106 -7.936822993232037
S 537.0019413112665 425.48589163417074 537.0019413112665 453.1177939069045
z" fill="none" stroke="none"></path>
<circle cx="0" cy="0" r="8.753644605210075" fill="#4527a0">
  <animateMotion begin="-3.9783101746967846s" dur="11.68s" repeatCount="indefinite">
    <mpath xlink:href="#path41"></mpath>
  </animateMotion>
</circle><path id="path42" d="M 1000.8278639406182 287.9668097206704
c 0 21.521048343444967 -5.265788424459938 6.181577715670364 -11.447366140130303 6.181577715670364
S 977.9331316603576 309.4878580641154 977.9331316603576 287.9668097206704
s 5.265788424459938 -6.181577715670364 11.447366140130303 -6.181577715670364
S 1000.8278639406182 266.44576137722544 1000.8278639406182 287.9668097206704
z" fill="none" stroke="none"></path>
<circle cx="0" cy="0" r="10.028396629821806" fill="#00b0ff">
  <animateMotion begin="-7.520297836497324s" dur="11.68s" repeatCount="indefinite">
    <mpath xlink:href="#path42"></mpath>
  </animateMotion>
</circle><path id="path43" d="M 1412.260177935486 17.44163248792682
c 0 24.51528921849522 -5.998421830057341 7.0416256265890524 -13.040047456646393 7.0416256265890524
S 1386.1800830221932 41.95692170642204 1386.1800830221932 17.44163248792682
s 5.998421830057341 -7.0416256265890524 13.040047456646393 -7.0416256265890524
S 1412.260177935486 -7.073656730568398 1412.260177935486 17.44163248792682
z" fill="none" stroke="none"></path>
<circle cx="0" cy="0" r="7.541646456912235" fill="#00b0ff">
  <animateMotion begin="-8.463191348537636s" dur="11.68s" repeatCount="indefinite">
    <mpath xlink:href="#path43"></mpath>
  </animateMotion>
</circle><path id="path44" d="M 358.5866896637884 365.978715410013
c 0 32.781092003178486 -8.020905490139416 9.415845575381054 -17.436751065520472 9.415845575381054
S 323.71318753274744 398.75980741319154 323.71318753274744 365.978715410013
s 8.020905490139416 -9.415845575381054 17.436751065520472 -9.415845575381054
S 358.5866896637884 333.1976234068345 358.5866896637884 365.978715410013
z" fill="none" stroke="none"></path>
<circle cx="0" cy="0" r="7.353074582463437" fill="#00b0ff">
  <animateMotion begin="-6.311671132551345s" dur="11.68s" repeatCount="indefinite">
    <mpath xlink:href="#path44"></mpath>
  </animateMotion>
</circle><path id="path45" d="M 1249.927861527278 50.4041840457074
c 0 20.55491875177734 -5.029395013732753 5.904072407425406 -10.93346742115816 5.904072407425406
S 1228.0609266849617 70.95910279748475 1228.0609266849617 50.4041840457074
s 5.029395013732753 -5.904072407425406 10.93346742115816 -5.904072407425406
S 1249.927861527278 29.849265293930063 1249.927861527278 50.4041840457074
z" fill="none" stroke="none"></path>
<circle cx="0" cy="0" r="8.546623058691281" fill="#4527a0">
  <animateMotion begin="-8.687542883788689s" dur="11.68s" repeatCount="indefinite">
    <mpath xlink:href="#path45"></mpath>
  </animateMotion>
</circle><path id="path46" d="M 495.44705303522426 152.21845006124107
c 0 32.38473710220315 -7.923925035645451 9.30199895488814 -17.225923990533587 9.30199895488814
S 460.99520505415705 184.6031871634442 460.99520505415705 152.21845006124107
s 7.923925035645451 -9.30199895488814 17.225923990533587 -9.30199895488814
S 495.44705303522426 119.83371295903792 495.44705303522426 152.21845006124107
z" fill="none" stroke="none"></path>
<circle cx="0" cy="0" r="9.480925750490549" fill="#3d5afe">
  <animateMotion begin="-3.1098660573408727s" dur="11.68s" repeatCount="indefinite">
    <mpath xlink:href="#path46"></mpath>
  </animateMotion>
</circle><path id="path47" d="M 324.79863255262137 345.70679381090173
c 0 25.326030526404963 -6.1967947032692985 7.2744981299248295 -13.471292833194129 7.2744981299248295
S 297.8560468862331 371.0328243373067 297.8560468862331 345.70679381090173
s 6.1967947032692985 -7.2744981299248295 13.471292833194129 -7.2744981299248295
S 324.79863255262137 320.38076328449677 324.79863255262137 345.70679381090173
z" fill="none" stroke="none"></path>
<circle cx="0" cy="0" r="7.446375542335629" fill="#3d5afe">
  <animateMotion begin="-0.8582254716605081s" dur="11.68s" repeatCount="indefinite">
    <mpath xlink:href="#path47"></mpath>
  </animateMotion>
</circle><path id="path48" d="M 480.7808272290691 295.5350570751514
c 0 27.994022116060396 -6.84960115605733 8.040836139719476 -14.890437295776806 8.040836139719476
S 450.9999526375155 323.52907919121185 450.9999526375155 295.5350570751514
s 6.84960115605733 -8.040836139719476 14.890437295776806 -8.040836139719476
S 480.7808272290691 267.541034959091 480.7808272290691 295.5350570751514
z" fill="none" stroke="none"></path>
<circle cx="0" cy="0" r="6.5229364031632455" fill="#3d5afe">
  <animateMotion begin="-6.1941129050988435s" dur="11.68s" repeatCount="indefinite">
    <mpath xlink:href="#path48"></mpath>
  </animateMotion>
</circle><path id="path49" d="M 1180.8433564910863 74.0271565253029
c 0 35.70647578225484 -8.736690882892141 10.256115384264689 -18.99280626715683 10.256115384264689
S 1142.8577439567728 109.73363230755774 1142.8577439567728 74.0271565253029
s 8.736690882892141 -10.256115384264689 18.99280626715683 -10.256115384264689
S 1180.8433564910863 38.32068074304806 1180.8433564910863 74.0271565253029
z" fill="none" stroke="none"></path>
<circle cx="0" cy="0" r="8.44214186375632" fill="#00b0ff">
  <animateMotion begin="-2.0344935834941023s" dur="11.68s" repeatCount="indefinite">
    <mpath xlink:href="#path49"></mpath>
  </animateMotion>
</circle><path id="path50" d="M 1592.329745354919 293.6970183231095
c 0 19.145141380272047 -4.6844494866623085 5.499136353907929 -10.183585840570238 5.499136353907929
S 1571.9625736737785 312.8421597033815 1571.9625736737785 293.6970183231095
s 4.6844494866623085 -5.499136353907929 10.183585840570238 -5.499136353907929
S 1592.329745354919 274.55187694283745 1592.329745354919 293.6970183231095
z" fill="none" stroke="none"></path>
<circle cx="0" cy="0" r="6.502700871565257" fill="#3d5afe">
  <animateMotion begin="-8.683077025739248s" dur="11.68s" repeatCount="indefinite">
    <mpath xlink:href="#path50"></mpath>
  </animateMotion>
</circle><path id="path51" d="M 753.8430686615357 470.0786549366215
c 0 36.40791377016979 -8.90831932674367 10.457592253133877 -19.365911579877547 10.457592253133877
S 715.1112455017806 506.4865687067913 715.1112455017806 470.0786549366215
s 8.90831932674367 -10.457592253133877 19.365911579877547 -10.457592253133877
S 753.8430686615357 433.6707411664517 753.8430686615357 470.0786549366215
z" fill="none" stroke="none"></path>
<circle cx="0" cy="0" r="7.998570118018351" fill="#aa00ff">
  <animateMotion begin="-6.836890379288545s" dur="11.68s" repeatCount="indefinite">
    <mpath xlink:href="#path51"></mpath>
  </animateMotion>
</circle><path id="path52" d="M 699.1029645981704 532.9021968614346
c 0 27.368309668234094 -6.696501301801959 7.8611102238544746 -14.557611525656434 7.8611102238544746
S 669.9877415468576 560.2705065296688 669.9877415468576 532.9021968614346
s 6.696501301801959 -7.8611102238544746 14.557611525656434 -7.8611102238544746
S 699.1029645981704 505.53388719320054 699.1029645981704 532.9021968614346
z" fill="none" stroke="none"></path>
<circle cx="0" cy="0" r="7.214228516043018" fill="#3d5afe">
  <animateMotion begin="-3.752306951459387s" dur="11.68s" repeatCount="indefinite">
    <mpath xlink:href="#path52"></mpath>
  </animateMotion>
</circle><path id="path53" d="M 574.0209048047802 248.8501712374524
c 0 27.970305059864756 -6.843798046562652 8.034023793790942 -14.877821840353594 8.034023793790942
S 544.265261124073 276.82047629731716 544.265261124073 248.8501712374524
s 6.843798046562652 -8.034023793790942 14.877821840353594 -8.034023793790942
S 574.0209048047802 220.87986617758764 574.0209048047802 248.8501712374524
z" fill="none" stroke="none"></path>
<circle cx="0" cy="0" r="6.0250014633928375" fill="#3d5afe">
  <animateMotion begin="-0.05256983682789316s" dur="11.68s" repeatCount="indefinite">
    <mpath xlink:href="#path53"></mpath>
  </animateMotion>
</circle><path id="path54" d="M 678.3905464441382 467.44360741023974
c 0 27.23320833424828 -6.663444592422451 7.822304521539399 -14.48574911396185 7.822304521539399
S 649.4190482162144 494.676815744488 649.4190482162144 467.44360741023974
s 6.663444592422451 -7.822304521539399 14.48574911396185 -7.822304521539399
S 678.3905464441382 440.21039907599146 678.3905464441382 467.44360741023974
z" fill="none" stroke="none"></path>
<circle cx="0" cy="0" r="8.654310993734905" fill="#00b0ff">
  <animateMotion begin="-0.01669838772552987s" dur="11.68s" repeatCount="indefinite">
    <mpath xlink:href="#path54"></mpath>
  </animateMotion>
</circle><path id="path55" d="M 134.33738452336104 442.4259636991742
c 0 35.48150653844876 -8.681645216854484 10.191496558916135 -18.87314177577062 10.191496558916135
S 96.59110097181978 477.90747023762293 96.59110097181978 442.4259636991742
s 8.681645216854484 -10.191496558916135 18.87314177577062 -10.191496558916135
S 134.33738452336104 406.94445716072545 134.33738452336104 442.4259636991742
z" fill="none" stroke="none"></path>
<circle cx="0" cy="0" r="7.098472795360321" fill="#3d5afe">
  <animateMotion begin="-8.89125598862809s" dur="11.68s" repeatCount="indefinite">
    <mpath xlink:href="#path55"></mpath>
  </animateMotion>
</circle></g>
<style type="text/css">.lded > .content, .lded > .content > .inner { height: 100%; }
.lded > .content > .inner > .viewer { width: 100%; height: 100%; max-width: 100%; }
.lded > .content > .inner > .panel {
  position: absolute;
  bottom: 50px;
  left: 0;
  right: 0;
  opacity: 0.3;
}
.lded > .content > .inner > .panel:hover { opacity: 1; }
.lded > .content > .inner > .ctrl {
  position: absolute;
  bottom: 13px;
  left: 0;
  right: 0;
  margin: auto;
}
.lded > .content > .inner > .ctrl:hover {
  z-index: 10;
}
#editor > .inner > .title {
  position: absolute;
  bottom: 195px;
  left: 0;
  right: 0;
  z-index: 11;
}
#editor > .inner > .title > a:first-child {
  margin-left: 0!important;
#editor .lded .viewer { border-radius: 0 }</style></svg>