<?xml version="1.0" encoding="utf-8"?>
<svg xmlns="http://www.w3.org/2000/svg" xmlns:xlink="http://www.w3.org/1999/xlink" style="margin: auto;  display: block; z-index: 1; position: relative; shape-rendering: auto;" width="1000" height="1000" preserveAspectRatio="xMidYMid" viewBox="0 0 1000 1000">
<g transform=""><linearGradient id="lg-0.6590519274487807" x1="0" x2="1" y1="0" y2="0">
  <stop stop-color="#ffff00" offset="0"></stop>
  <stop stop-color="#f44336" offset="1"></stop>
</linearGradient><path d="M 943.385 500 C 943.385 543.502 905.588 647.077 886.516 686.222 C 867.443 725.367 761.593 757.38 727.448 784.81 C 693.303 812.24 612.928 798.842 570.425 808.557 C 527.923 818.271 475.706 801.19 433.204 791.475 C 390.701 781.76 278.706 847.729 244.561 820.299 C 210.416 792.869 157.692 713.299 138.62 674.154 C 119.548 635.009 100.986 543.502 100.986 500 C 100.986 456.498 90.4118 350.923 109.484 311.778 C 128.557 272.633 225.272 225.629 259.416 198.199 C 293.561 170.769 387.643 205.294 430.145 195.579 C 472.647 185.864 527.647 181.543 570.149 191.258 C 612.652 200.973 713.443 162.335 747.588 189.765 C 781.733 217.195 852.566 282.357 871.638 321.502 C 890.71 360.647 943.385 456.498 943.385 500" fill="url(#lg-0.6590519274487807)" opacity="0.58">
  <animate attributeName="d" dur="20s" repeatCount="indefinite" keyTimes="0;0.3333333333333333;0.6666666666666666;1" calcmod="spline" keySplines="0.3 0.1 0.7 0.9;0.3 0.1 0.7 0.9;0.3 0.1 0.7 0.9" begin="-10s" values="M 998 500 C 998 548 939 658 918 701 C 897 744 804 803 766 833 C 728 863 611 768 564 779 C 517 790 459 895 412 884 C 365 873 262 876 224 846 C 186 816 114 739 93 696 C 72 653 74 548 74 500 C 74 452 57 340 78 297 C 99 254 197 198 235 168 C 273 138 387 222 434 211 C 481 200 536 125 583 136 C 630 147 743 118 781 148 C 819 178 841 283 862 326 C 883 369 998 452 998 500;M 978 500 C 978 546 958 669 938 711 C 918 753 781 778 745 807 C 709 836 608 767 563 777 C 518 787 466 857 421 847 C 376 837 323 797 287 768 C 251 739 156 717 136 675 C 116 633 36 546 36 500 C 36 454 77 348 97 306 C 117 264 219 221 255 192 C 291 163 389 222 434 212 C 479 202 519 209 564 219 C 609 229 742 122 778 151 C 814 180 924 244 944 286 C 964 328 978 454 978 500;M 913 500 C 913 541 887 641 869 678 C 851 715 738 732 706 758 C 674 784 614 816 574 825 C 534 834 485 749 445 740 C 405 731 288 832 256 806 C 224 780 182 699 164 662 C 146 625 116 541 116 500 C 116 459 109 357 127 320 C 145 283 241 241 273 215 C 305 189 388 196 428 187 C 468 178 523 213 563 222 C 603 231 697 187 729 213 C 761 239 859 282 877 319 C 895 356 913 459 913 500;M 998 500 C 998 548 939 658 918 701 C 897 744 804 803 766 833 C 728 863 611 768 564 779 C 517 790 459 895 412 884 C 365 873 262 876 224 846 C 186 816 114 739 93 696 C 72 653 74 548 74 500 C 74 452 57 340 78 297 C 99 254 197 198 235 168 C 273 138 387 222 434 211 C 481 200 536 125 583 136 C 630 147 743 118 781 148 C 819 178 841 283 862 326 C 883 369 998 452 998 500"></animate>
</path><path d="M 916.136 500 C 916.136 543.928 855.353 622.285 836.068 662.213 C 816.783 702.14 768.697 766.837 734.412 794.122 C 700.127 821.407 603.14 754.421 560.213 764.063 C 517.285 773.706 478.285 793.57 435.357 783.928 C 392.43 774.285 321.57 794.643 286.643 767.357 C 251.715 740.072 154.014 716.063 134.728 676.136 C 115.443 636.208 28.1538 543.928 28.1538 500 C 28.1538 456.072 77.5339 345.801 96.819 305.873 C 116.104 265.946 218.077 217.077 253.005 189.792 C 287.932 162.507 388.855 210.701 431.783 201.059 C 474.71 191.416 523.425 200.303 566.353 209.946 C 609.281 219.588 691.204 190.086 725.489 217.371 C 759.774 244.656 882.778 266.362 902.063 306.29 C 921.348 346.217 916.136 456.072 916.136 500" fill="url(#lg-0.6590519274487807)" opacity="0.58">
  <animate attributeName="d" dur="20s" repeatCount="indefinite" keyTimes="0;0.3333333333333333;0.6666666666666666;1" calcmod="spline" keySplines="0.3 0.1 0.7 0.9;0.3 0.1 0.7 0.9;0.3 0.1 0.7 0.9" begin="-10s" values="M 902 500 C 902 542 847 621 829 659 C 811 697 734 727 701 753 C 668 779 598 739 557 748 C 516 757 477 791 436 782 C 395 773 319 794 286 768 C 253 742 181 700 163 662 C 145 624 50 542 50 500 C 50 458 145 376 163 338 C 181 300 229 228 262 202 C 295 176 385 185 426 176 C 467 167 517 235 558 244 C 599 253 670 219 703 245 C 736 271 868 276 886 314 C 904 352 902 458 902 500;M 869 500 C 869 541 848 622 830 659 C 812 696 773 778 741 803 C 709 828 594 727 554 736 C 514 745 468 825 428 816 C 388 807 316 796 284 771 C 252 746 136 721 118 684 C 100 647 77 541 77 500 C 77 459 153 379 171 342 C 189 305 232 229 264 204 C 296 179 394 221 434 212 C 474 203 518 238 558 247 C 598 256 675 216 707 241 C 739 266 810 305 828 342 C 846 379 869 459 869 500;M 924 500 C 924 545 860 623 840 664 C 820 705 788 789 753 817 C 718 845 606 763 562 773 C 518 783 479 795 435 785 C 391 775 323 795 287 767 C 251 739 139 725 119 684 C 99 643 16 545 16 500 C 16 455 40 329 60 288 C 80 247 212 211 248 183 C 284 155 391 225 435 215 C 479 205 527 181 571 191 C 615 201 703 174 738 202 C 773 230 891 261 911 302 C 931 343 924 455 924 500;M 902 500 C 902 542 847 621 829 659 C 811 697 734 727 701 753 C 668 779 598 739 557 748 C 516 757 477 791 436 782 C 395 773 319 794 286 768 C 253 742 181 700 163 662 C 145 624 50 542 50 500 C 50 458 145 376 163 338 C 181 300 229 228 262 202 C 295 176 385 185 426 176 C 467 167 517 235 558 244 C 599 253 670 219 703 245 C 736 271 868 276 886 314 C 904 352 902 458 902 500"></animate>
</path><path d="M 945.367 500 C 945.367 541.357 855.932 625.43 837.932 662.787 C 819.932 700.145 738.149 731.579 705.792 757.579 C 673.434 783.579 616.357 822.643 576 831.643 C 535.643 840.643 469.715 817.855 429.357 808.855 C 389 799.855 320.869 791.271 288.511 765.271 C 256.154 739.271 167.281 706.217 149.281 668.86 C 131.281 631.502 73.2941 541.357 73.2941 500 C 73.2941 458.643 118.579 362.647 136.579 325.29 C 154.579 287.932 224.068 220.71 256.425 194.71 C 288.783 168.71 391.14 208.919 431.498 199.919 C 471.855 190.919 518.285 232.86 558.643 241.86 C 599 250.86 690.511 193.914 722.869 219.914 C 755.226 245.914 832.371 294.136 850.371 331.493 C 868.371 368.851 945.367 458.643 945.367 500" fill="url(#lg-0.6590519274487807)" opacity="0.58">
  <animate attributeName="d" dur="20s" repeatCount="indefinite" keyTimes="0;0.3333333333333333;0.6666666666666666;1" calcmod="spline" keySplines="0.3 0.1 0.7 0.9;0.3 0.1 0.7 0.9;0.3 0.1 0.7 0.9" begin="-10s" values="M 964 500 C 964 542 863 628 845 666 C 827 704 751 747 718 773 C 685 799 617 822 576 831 C 535 840 471 814 430 805 C 389 796 344 763 311 737 C 278 711 157 712 139 674 C 121 636 90 542 90 500 C 90 458 134 371 152 333 C 170 295 217 213 250 187 C 283 161 386 189 427 180 C 468 171 517 238 558 247 C 599 256 713 165 746 191 C 779 217 860 280 878 318 C 896 356 964 458 964 500;M 962 500 C 962 547 895 637 874 680 C 853 723 754 743 717 772 C 680 801 624 833 578 843 C 532 853 478 810 432 800 C 386 790 275 858 238 829 C 201 800 104 743 84 700 C 64 657 64 547 64 500 C 64 453 91 356 111 313 C 131 270 181 177 218 147 C 255 117 375 166 421 155 C 467 144 523 186 569 197 C 615 208 721 147 758 176 C 795 205 864 271 885 314 C 906 357 962 453 962 500;M 935 500 C 935 541 852 624 834 661 C 816 698 731 723 699 749 C 667 775 616 823 576 832 C 536 841 469 820 429 811 C 389 802 308 807 276 781 C 244 755 173 703 155 666 C 137 629 64 541 64 500 C 64 459 110 358 128 321 C 146 284 228 225 260 199 C 292 173 394 220 434 211 C 474 202 519 230 559 239 C 599 248 678 210 710 236 C 742 262 817 302 835 339 C 853 376 935 459 935 500;M 964 500 C 964 542 863 628 845 666 C 827 704 751 747 718 773 C 685 799 617 822 576 831 C 535 840 471 814 430 805 C 389 796 344 763 311 737 C 278 711 157 712 139 674 C 121 636 90 542 90 500 C 90 458 134 371 152 333 C 170 295 217 213 250 187 C 283 161 386 189 427 180 C 468 171 517 238 558 247 C 599 256 713 165 746 191 C 779 217 860 280 878 318 C 896 356 964 458 964 500"></animate>
</path><path d="M 913.145 500 C 913.145 541.357 874.38 634.796 856.38 672.154 C 838.38 709.511 765.715 766.357 733.357 792.357 C 701 818.357 600.43 752.647 560.072 761.647 C 519.715 770.647 475.005 796.267 434.647 787.267 C 394.29 778.267 324.425 786.362 292.068 760.362 C 259.71 734.362 203.068 689.145 185.068 651.787 C 167.068 614.43 126.145 541.357 126.145 500 C 126.145 458.643 128.719 367.217 146.719 329.86 C 164.719 292.502 230.86 229.29 263.217 203.29 C 295.575 177.29 387.715 192.29 428.072 183.29 C 468.43 174.29 524.502 207.131 564.86 216.131 C 605.217 225.131 703.43 178.855 735.787 204.855 C 768.145 230.855 846.557 287.507 864.557 324.864 C 882.557 362.222 913.145 458.643 913.145 500" fill="url(#lg-0.6590519274487807)" opacity="0.58">
  <animate attributeName="d" dur="20s" repeatCount="indefinite" keyTimes="0;0.3333333333333333;0.6666666666666666;1" calcmod="spline" keySplines="0.3 0.1 0.7 0.9;0.3 0.1 0.7 0.9;0.3 0.1 0.7 0.9" begin="-10s" values="M 917 500 C 917 542 920 656 902 694 C 884 732 767 767 734 793 C 701 819 603 761 562 770 C 521 779 484 759 443 750 C 402 741 318 796 285 770 C 252 744 196 693 178 655 C 160 617 130 542 130 500 C 130 458 139 373 157 335 C 175 297 236 237 269 211 C 302 185 389 200 430 191 C 471 182 529 184 570 193 C 611 202 706 175 739 201 C 772 227 817 301 835 339 C 853 377 917 458 917 500;M 959 500 C 959 543 921 655 902 694 C 883 733 739 731 706 758 C 673 785 609 784 567 794 C 525 804 467 838 425 828 C 383 818 310 807 277 780 C 244 753 163 710 144 671 C 125 632 95 543 95 500 C 95 457 139 374 158 335 C 177 296 215 211 248 184 C 281 157 384 183 426 174 C 468 165 524 201 566 211 C 608 221 664 226 697 253 C 730 280 836 290 855 329 C 874 368 959 457 959 500;M 911 500 C 911 541 849 623 831 660 C 813 697 765 766 733 792 C 701 818 599 748 559 757 C 519 766 470 817 430 808 C 390 799 328 781 296 755 C 264 729 207 687 189 650 C 171 613 124 541 124 500 C 124 459 123 364 141 327 C 159 290 228 225 260 199 C 292 173 387 188 427 179 C 467 170 522 220 562 229 C 602 238 702 181 734 207 C 766 233 863 280 881 317 C 899 354 911 459 911 500;M 917 500 C 917 542 920 656 902 694 C 884 732 767 767 734 793 C 701 819 603 761 562 770 C 521 779 484 759 443 750 C 402 741 318 796 285 770 C 252 744 196 693 178 655 C 160 617 130 542 130 500 C 130 458 139 373 157 335 C 175 297 236 237 269 211 C 302 185 389 200 430 191 C 471 182 529 184 570 193 C 611 202 706 175 739 201 C 772 227 817 301 835 339 C 853 377 917 458 917 500"></animate>
</path></g>
<style type="text/css">.lded > .content, .lded > .content > .inner { height: 100%; }
.lded > .content > .inner > .viewer { width: 100%; height: 100%; max-width: 100%; }
.lded > .content > .inner > .panel {
  position: absolute;
  bottom: 50px;
  left: 0;
  right: 0;
  opacity: 0.3;
}
.lded > .content > .inner > .panel:hover { opacity: 1; }
.lded > .content > .inner > .ctrl {
  position: absolute;
  bottom: 13px;
  left: 0;
  right: 0;
  margin: auto;
}
.lded > .content > .inner > .ctrl:hover {
  z-index: 10;
}
#editor > .inner > .title {
  position: absolute;
  bottom: 195px;
  left: 0;
  right: 0;
  z-index: 11;
}
#editor > .inner > .title > a:first-child {
  margin-left: 0!important;
#editor .lded .viewer { border-radius: 0 }</style></svg>