<?xml version="1.0" encoding="utf-8"?>
<svg xmlns="http://www.w3.org/2000/svg" xmlns:xlink="http://www.w3.org/1999/xlink" style="margin: auto; background: rgb(241, 242, 243); display: block; z-index: 1; position: relative; shape-rendering: auto;" width="900" height="900" preserveAspectRatio="xMidYMid" viewBox="0 0 900 900">
<g transform=""><linearGradient id="lg-0.6590519274487807" x1="0" x2="1" y1="0" y2="0">
  <stop stop-color="#ff000f" offset="0"></stop>
  <stop stop-color="#e9ff00" offset="1"></stop>
</linearGradient><path d="M 826.029 450 C 826.029 534.837 675.634 672.195 602.276 714.114 C 528.919 756.033 362.041 771.354 288.683 729.195 C 215.325 687.037 100.484 534.837 100.484 450 C 100.484 365.163 236.333 248.337 309.691 206.179 C 383.049 164.02 535.598 132.85 608.955 175.528 C 682.313 218.207 826.029 365.163 826.029 450" fill="url(#lg-0.6590519274487807)" opacity="0.4">
  <animate attributeName="d" dur="10s" repeatCount="indefinite" keyTimes="0;0.3333333333333333;0.6666666666666666;1" calcmod="spline" keySplines="0.3 0.1 0.7 0.9;0.3 0.1 0.7 0.9;0.3 0.1 0.7 0.9" begin="-4s" values="M 880 450 C 880 547 703 695 619 743 C 535 791 359 801 275 752 C 191 703 83 547 83 450 C 83 353 174 167 258 118 C 342 69 547 88 631 136 C 715 184 880 353 880 450;M 785 450 C 785 538 683 676 606 720 C 529 764 369 768 292 724 C 215 680 107 538 107 450 C 107 362 207 206 284 162 C 361 118 542 114 619 158 C 696 202 785 362 785 450;M 809 450 C 809 531 667 665 597 705 C 527 745 363 762 293 722 C 223 682 106 531 106 450 C 106 369 256 274 326 234 C 396 194 532 147 602 188 C 672 229 809 369 809 450;M 880 450 C 880 547 703 695 619 743 C 535 791 359 801 275 752 C 191 703 83 547 83 450 C 83 353 174 167 258 118 C 342 69 547 88 631 136 C 715 184 880 353 880 450"></animate>
</path><path d="M 818.65 450 C 818.65 532 656.638 644.317 585.638 685.317 C 514.638 726.317 386.122 724.037 315.122 683.037 C 244.122 642.037 87.5569 532 87.5569 450 C 87.5569 368 235.317 242.435 306.317 201.435 C 377.317 160.435 528.045 150.752 599.045 191.752 C 670.045 232.752 818.65 368 818.65 450" fill="url(#lg-0.6590519274487807)" opacity="0.4">
  <animate attributeName="d" dur="10s" repeatCount="indefinite" keyTimes="0;0.3333333333333333;0.6666666666666666;1" calcmod="spline" keySplines="0.3 0.1 0.7 0.9;0.3 0.1 0.7 0.9;0.3 0.1 0.7 0.9" begin="-4s" values="M 770 450 C 770 532 665 658 594 699 C 523 740 377 740 306 699 C 235 658 102 532 102 450 C 102 368 249 266 320 225 C 391 184 506 188 577 229 C 648 270 770 368 770 450;M 914 450 C 914 548 685 660 600 709 C 515 758 363 796 278 747 C 193 698 17 548 17 450 C 17 352 206 224 291 175 C 376 126 557 69 642 118 C 727 167 914 352 914 450;M 834 450 C 834 532 654 640 583 681 C 512 722 389 719 318 678 C 247 637 83 532 83 450 C 83 368 231 235 302 194 C 373 153 535 139 606 180 C 677 221 834 368 834 450;M 770 450 C 770 532 665 658 594 699 C 523 740 377 740 306 699 C 235 658 102 532 102 450 C 102 368 249 266 320 225 C 391 184 506 188 577 229 C 648 270 770 368 770 450"></animate>
</path><path d="M 828.797 450 C 828.797 544.321 684.398 667.675 602.837 714.715 C 521.276 761.756 362.435 789.931 280.874 742.89 C 199.313 695.85 87 544.321 87 450 C 87 355.679 223.077 245.077 304.638 197.797 C 386.199 150.516 519.122 142.154 600.683 189.195 C 682.244 236.236 828.797 355.679 828.797 450" fill="url(#lg-0.6590519274487807)" opacity="0.4">
  <animate attributeName="d" dur="10s" repeatCount="indefinite" keyTimes="0;0.3333333333333333;0.6666666666666666;1" calcmod="spline" keySplines="0.3 0.1 0.7 0.9;0.3 0.1 0.7 0.9;0.3 0.1 0.7 0.9" begin="-4s" values="M 844 450 C 844 539 692 692 615 736 C 538 780 386 739 309 695 C 232 651 87 539 87 450 C 87 361 236 258 313 213 C 390 168 510 168 587 212 C 664 256 844 361 844 450;M 794 450 C 794 532 656 643 585 684 C 514 725 391 717 320 676 C 249 635 74 532 74 450 C 74 368 249 265 320 224 C 391 183 530 147 601 188 C 672 229 794 368 794 450;M 824 450 C 824 546 682 660 599 708 C 516 756 355 806 272 758 C 189 710 87 546 87 450 C 87 354 219 241 302 193 C 385 145 522 134 605 182 C 688 230 824 354 824 450;M 844 450 C 844 539 692 692 615 736 C 538 780 386 739 309 695 C 232 651 87 539 87 450 C 87 361 236 258 313 213 C 390 168 510 168 587 212 C 664 256 844 361 844 450"></animate>
</path><path d="M 809.398 450 C 809.398 534.837 662.468 649.984 589.11 691.903 C 515.752 733.821 385.004 731.988 311.646 690.069 C 238.289 648.15 108.183 534.837 108.183 450 C 108.183 365.163 231.329 239.65 304.687 197.492 C 378.045 155.333 529.602 143.402 602.959 185.321 C 676.317 227.24 809.398 365.163 809.398 450" fill="url(#lg-0.6590519274487807)" opacity="0.4">
  <animate attributeName="d" dur="10s" repeatCount="indefinite" keyTimes="0;0.3333333333333333;0.6666666666666666;1" calcmod="spline" keySplines="0.3 0.1 0.7 0.9;0.3 0.1 0.7 0.9;0.3 0.1 0.7 0.9" begin="-4s" values="M 817 450 C 817 547 721 726 637 774 C 553 822 366 789 282 741 C 198 693 1 547 1 450 C 1 353 188 191 272 142 C 356 93 522 132 606 180 C 690 228 817 353 817 450;M 865 450 C 865 545 685 664 602 712 C 519 760 375 771 292 723 C 209 675 68 545 68 450 C 68 355 197 203 280 155 C 363 107 520 137 603 185 C 686 233 865 355 865 450;M 807 450 C 807 531 644 626 574 666 C 504 706 391 714 321 674 C 251 634 142 531 142 450 C 142 369 245 255 315 215 C 385 175 532 147 602 187 C 672 227 807 369 807 450;M 817 450 C 817 547 721 726 637 774 C 553 822 366 789 282 741 C 198 693 1 547 1 450 C 1 353 188 191 272 142 C 356 93 522 132 606 180 C 690 228 817 353 817 450"></animate>
</path><path d="M 832.309 450 C 832.309 541.159 698.841 699.606 619.923 744.805 C 541.004 790.004 359.919 787.959 281 742.76 C 202.081 697.561 87.1707 541.159 87.1707 450 C 87.1707 358.841 197.923 194.602 276.841 149.402 C 355.76 104.203 531.923 126.638 610.841 171.837 C 689.76 217.037 832.309 358.841 832.309 450" fill="url(#lg-0.6590519274487807)" opacity="0.4">
  <animate attributeName="d" dur="10s" repeatCount="indefinite" keyTimes="0;0.3333333333333333;0.6666666666666666;1" calcmod="spline" keySplines="0.3 0.1 0.7 0.9;0.3 0.1 0.7 0.9;0.3 0.1 0.7 0.9" begin="-4s" values="M 884 450 C 884 548 692 673 607 722 C 522 771 366 791 281 742 C 196 693 37 548 37 450 C 37 352 185 187 270 138 C 355 89 519 135 604 184 C 689 233 884 352 884 450;M 851 450 C 851 548 702 690 617 739 C 532 788 342 834 257 785 C 172 736 13 548 13 450 C 13 352 221 250 306 201 C 391 152 536 105 621 154 C 706 203 851 352 851 450;M 816 450 C 816 539 701 708 624 752 C 547 796 358 787 281 743 C 204 699 103 539 103 450 C 103 361 202 197 279 153 C 356 109 536 124 613 168 C 690 212 816 361 816 450;M 884 450 C 884 548 692 673 607 722 C 522 771 366 791 281 742 C 196 693 37 548 37 450 C 37 352 185 187 270 138 C 355 89 519 135 604 184 C 689 233 884 352 884 450"></animate>
</path></g>
<style type="text/css">.lded > .content, .lded > .content > .inner { height: 100%; }
.lded > .content > .inner > .viewer { width: 100%; height: 100%; max-width: 100%; }
.lded > .content > .inner > .panel {
  position: absolute;
  bottom: 50px;
  left: 0;
  right: 0;
  opacity: 0.3;
}
.lded > .content > .inner > .panel:hover { opacity: 1; }
.lded > .content > .inner > .ctrl {
  position: absolute;
  bottom: 13px;
  left: 0;
  right: 0;
  margin: auto;
}
.lded > .content > .inner > .ctrl:hover {
  z-index: 10;
}
#editor > .inner > .title {
  position: absolute;
  bottom: 195px;
  left: 0;
  right: 0;
  z-index: 11;
}
#editor > .inner > .title > a:first-child {
  margin-left: 0!important;
#editor .lded .viewer { border-radius: 0 }</style></svg>