<?xml version="1.0" encoding="utf-8"?>
<!-- Generator: Adobe Illustrator 23.0.3, SVG Export Plug-In . SVG Version: 6.00 Build 0)  -->
<svg version="1.1" id="Layer_1" xmlns="http://www.w3.org/2000/svg" xmlns:xlink="http://www.w3.org/1999/xlink" x="0px" y="0px"
	 viewBox="0 0 900 600" style="enable-background:new 0 0 900 600;" xml:space="preserve">
<style type="text/css">
	.st0{fill:#FFFFFF;}
</style>
<g>
	<rect y="303.2" class="st0" width="900" height="7.4"/>
	<rect x="6.7" y="217.6" class="st0" width="3.8" height="186"/>
	<rect x="1.5" y="295" class="st0" width="3.8" height="31.1"/>
	<rect x="11.8" y="248.7" class="st0" width="3.8" height="120.3"/>
	<rect x="16.9" y="256.5" class="st0" width="3.8" height="100.8"/>
	<rect x="22.1" y="179.5" class="st0" width="3.8" height="367.7"/>
	<rect x="27.2" y="140.2" class="st0" width="3.8" height="410.1"/>
	<rect x="32.4" y="205.9" class="st0" width="3.8" height="197.7"/>
	<rect x="37.5" y="202.9" class="st0" width="3.8" height="181.7"/>
	<rect x="42.7" y="161.8" class="st0" width="3.8" height="410.1"/>
	<rect x="47.8" y="227.5" class="st0" width="3.8" height="197.7"/>
	<rect x="53" y="175.2" class="st0" width="3.8" height="261.7"/>
	<rect x="58.1" y="175.6" class="st0" width="3.8" height="261.7"/>
	<rect x="63.3" y="215.9" class="st0" width="3.8" height="221.5"/>
	<rect x="68.4" y="247.4" class="st0" width="3.8" height="154.9"/>
	<rect x="73.6" y="269.1" class="st0" width="3.8" height="78.3"/>
	<rect x="78.7" y="274.7" class="st0" width="3.8" height="72.7"/>
	<rect x="83.8" y="293.7" class="st0" width="3.8" height="31.1"/>
	<rect x="89" y="282" class="st0" width="3.8" height="49.7"/>
	<rect x="94.1" y="276.4" class="st0" width="3.8" height="56.2"/>
	<rect x="99.3" y="290.3" class="st0" width="3.8" height="31.1"/>
	<rect x="123" y="213.7" class="st0" width="3.8" height="186"/>
	<rect x="127.5" y="244.8" class="st0" width="3.8" height="120.3"/>
	<rect x="131.9" y="175.6" class="st0" width="3.8" height="367.7"/>
	<rect x="136.4" y="136.3" class="st0" width="3.8" height="410.1"/>
	<rect x="140.8" y="202" class="st0" width="3.8" height="197.7"/>
	<rect x="145.3" y="199" class="st0" width="3.8" height="181.7"/>
	<rect x="149.7" y="254.8" class="st0" width="3.8" height="106"/>
	<rect x="118.5" y="292.4" class="st0" width="3.8" height="31.1"/>
	<rect x="154.2" y="262.6" class="st0" width="3.8" height="89.1"/>
	<rect x="158.6" y="255.7" class="st0" width="3.8" height="80.9"/>
	<rect x="163.1" y="216.3" class="st0" width="3.8" height="216.3"/>
	<rect x="167.6" y="151" class="st0" width="3.8" height="305.4"/>
	<rect x="172" y="224.9" class="st0" width="3.8" height="231.4"/>
	<rect x="176.5" y="220.2" class="st0" width="3.8" height="198.1"/>
	<rect x="180.9" y="244" class="st0" width="3.8" height="143.2"/>
	<rect x="185.4" y="269.9" class="st0" width="3.8" height="71.4"/>
	<rect x="189.8" y="255.7" class="st0" width="3.8" height="99.9"/>
	<rect x="194.3" y="251.3" class="st0" width="3.8" height="115.5"/>
	<rect x="198.8" y="228" class="st0" width="3.8" height="166.1"/>
	<rect x="203.2" y="182.1" class="st0" width="3.8" height="258.3"/>
	<rect x="207.7" y="254.8" class="st0" width="3.8" height="112.9"/>
	<rect x="212.1" y="274.3" class="st0" width="3.8" height="63.2"/>
	<rect x="216.6" y="280.7" class="st0" width="3.8" height="48"/>
	<rect x="221" y="287.2" class="st0" width="3.8" height="32.9"/>
	<rect x="225.5" y="232.3" class="st0" width="3.8" height="153.6"/>
	<rect x="229.9" y="266.5" class="st0" width="3.8" height="97.8"/>
	<rect x="234.4" y="266.5" class="st0" width="3.8" height="103.8"/>
	<rect x="238.9" y="270.4" class="st0" width="3.8" height="78.7"/>
	<rect x="243.3" y="205.5" class="st0" width="3.8" height="242.7"/>
	<rect x="247.8" y="282.5" class="st0" width="3.8" height="85.7"/>
	<rect x="252.2" y="289" class="st0" width="3.8" height="38.1"/>
	<rect x="256.7" y="185.6" class="st0" width="3.8" height="250.9"/>
	<rect x="261.1" y="282.5" class="st0" width="3.8" height="56.7"/>
	<rect x="265.6" y="282.5" class="st0" width="3.8" height="64.5"/>
	<rect x="270.1" y="173" class="st0" width="3.8" height="298.9"/>
	<rect x="274.5" y="162.2" class="st0" width="3.8" height="282.5"/>
	<rect x="279" y="285.5" class="st0" width="3.8" height="59.7"/>
	<rect x="283.4" y="247" class="st0" width="3.8" height="123.3"/>
	<rect x="287.9" y="247" class="st0" width="3.8" height="126.3"/>
	<rect x="292.3" y="266" class="st0" width="3.8" height="82.6"/>
	<rect x="296.8" y="269.9" class="st0" width="3.8" height="74.4"/>
	<rect x="301.2" y="250.9" class="st0" width="3.8" height="131.5"/>
	<rect x="305.7" y="254.8" class="st0" width="3.8" height="101.2"/>
	<rect x="310.2" y="254.4" class="st0" width="3.8" height="101.2"/>
	<rect x="314.6" y="292.4" class="st0" width="3.8" height="29.4"/>
	<rect x="319.1" y="254.8" class="st0" width="3.8" height="101.2"/>
	<rect x="323.5" y="282" class="st0" width="3.8" height="69.2"/>
	<rect x="328" y="292" class="st0" width="3.8" height="29.4"/>
	<rect x="332.4" y="239.7" class="st0" width="3.8" height="147.5"/>
	<rect x="336.9" y="192.9" class="st0" width="3.8" height="243.5"/>
	<rect x="341.3" y="224.1" class="st0" width="3.8" height="116.8"/>
	<rect x="345.8" y="297.2" class="st0" width="3.8" height="29.4"/>
	<rect x="380.2" y="212" class="st0" width="3.8" height="186"/>
	<rect x="384.7" y="197.3" class="st0" width="3.8" height="268.2"/>
	<rect x="389.2" y="63.2" class="st0" width="3.8" height="527.3"/>
	<rect x="393.7" y="183.4" class="st0" width="3.8" height="327"/>
	<rect x="398.3" y="266" class="st0" width="3.8" height="109"/>
	<rect x="402.8" y="218.9" class="st0" width="3.8" height="202.9"/>
	<rect x="407.7" y="269.9" class="st0" width="3.8" height="80.9"/>
	<rect x="375.6" y="282.5" class="st0" width="3.8" height="50.2"/>
	<rect x="412.2" y="246.6" class="st0" width="3.8" height="120.7"/>
	<rect x="416.8" y="234.9" class="st0" width="3.8" height="152.7"/>
	<rect x="421.3" y="142.3" class="st0" width="3.8" height="337"/>
	<rect x="425.8" y="136.7" class="st0" width="3.8" height="354.7"/>
	<rect x="430.4" y="250.9" class="st0" width="3.8" height="122.9"/>
	<rect x="434.9" y="269.1" class="st0" width="3.8" height="83.1"/>
	<rect x="439.4" y="290.3" class="st0" width="3.8" height="29.4"/>
	<rect x="444" y="264.7" class="st0" width="3.8" height="83.1"/>
	<rect x="448.5" y="271.2" class="st0" width="3.8" height="80"/>
	<rect x="462.1" y="266.5" class="st0" width="3.8" height="89.5"/>
	<rect x="457.6" y="273" class="st0" width="3.8" height="80"/>
	<rect x="453" y="282.5" class="st0" width="3.8" height="46.7"/>
	<rect x="466.6" y="228" class="st0" width="3.8" height="173.5"/>
	<rect x="471.5" y="266.9" class="st0" width="3.8" height="82.6"/>
	<rect x="476" y="147.1" class="st0" width="3.8" height="324.4"/>
	<rect x="480.6" y="220.6" class="st0" width="3.8" height="164"/>
	<rect x="485.1" y="181.3" class="st0" width="3.8" height="237.5"/>
	<rect x="489.6" y="200.7" class="st0" width="3.8" height="237.1"/>
	<rect x="494.2" y="265.2" class="st0" width="3.8" height="89.5"/>
	<rect x="498.7" y="261.7" class="st0" width="3.8" height="89.5"/>
	<rect x="503.2" y="297.6" class="st0" width="3.8" height="29.4"/>
	<rect x="507.8" y="247" class="st0" width="3.8" height="160.9"/>
	<rect x="512.3" y="216.7" class="st0" width="3.8" height="231.4"/>
	<rect x="516.8" y="251.3" class="st0" width="3.8" height="69.6"/>
	<rect x="521.4" y="270.8" class="st0" width="3.8" height="75.3"/>
	<rect x="525.9" y="285.9" class="st0" width="3.8" height="47.2"/>
	<rect x="530.8" y="161.8" class="st0" width="3.8" height="295"/>
	<rect x="535.3" y="109" class="st0" width="3.8" height="385.9"/>
	<rect x="539.8" y="176.9" class="st0" width="3.8" height="237.9"/>
	<rect x="544.4" y="293.3" class="st0" width="3.8" height="35"/>
	<rect x="548.9" y="295.9" class="st0" width="3.8" height="24.2"/>
	<rect x="553.4" y="280.7" class="st0" width="3.8" height="57.1"/>
	<rect x="558" y="289" class="st0" width="3.8" height="35"/>
	<rect x="600.6" y="259.1" class="st0" width="3.8" height="92.1"/>
	<rect x="605.2" y="224.9" class="st0" width="3.8" height="171.7"/>
	<rect x="609.7" y="164" class="st0" width="3.8" height="278.2"/>
	<rect x="614.2" y="256.1" class="st0" width="3.8" height="205"/>
	<rect x="618.8" y="262.6" class="st0" width="3.8" height="114.6"/>
	<rect x="623.3" y="209.8" class="st0" width="3.8" height="190.3"/>
	<rect x="628.2" y="203.7" class="st0" width="3.8" height="237.1"/>
	<rect x="596.1" y="279" class="st0" width="3.8" height="50.2"/>
	<rect x="632.7" y="221.1" class="st0" width="3.8" height="176.1"/>
	<rect x="637.2" y="263.4" class="st0" width="3.8" height="94.3"/>
	<rect x="641.8" y="107.3" class="st0" width="3.8" height="380.2"/>
	<rect x="646.3" y="121.1" class="st0" width="3.8" height="346.5"/>
	<rect x="650.8" y="203.3" class="st0" width="3.8" height="220.2"/>
	<rect x="655.4" y="193.8" class="st0" width="3.8" height="235.8"/>
	<rect x="659.9" y="286.8" class="st0" width="3.8" height="81.3"/>
	<rect x="664.4" y="183" class="st0" width="3.8" height="207.2"/>
	<rect x="669" y="206.3" class="st0" width="3.8" height="257.8"/>
	<rect x="682.6" y="283.8" class="st0" width="3.8" height="50.6"/>
	<rect x="678" y="266.5" class="st0" width="3.8" height="105.1"/>
	<rect x="673.5" y="190.8" class="st0" width="3.8" height="309.3"/>
	<rect x="687.1" y="266.5" class="st0" width="3.8" height="63.6"/>
	<rect x="692" y="243.5" class="st0" width="3.8" height="136.3"/>
	<rect x="696.5" y="266.5" class="st0" width="3.8" height="89.5"/>
	<rect x="701" y="242.2" class="st0" width="3.8" height="138.9"/>
	<rect x="705.6" y="263" class="st0" width="3.8" height="66.2"/>
	<rect x="710.1" y="204.2" class="st0" width="3.8" height="194.2"/>
	<rect x="714.6" y="273.8" class="st0" width="3.8" height="67.1"/>
	<rect x="719.2" y="263.9" class="st0" width="3.8" height="70.9"/>
	<rect x="723.7" y="294.2" class="st0" width="3.8" height="29.4"/>
	<rect x="728.2" y="137.1" class="st0" width="3.8" height="373.3"/>
	<rect x="732.8" y="213.3" class="st0" width="3.8" height="212.8"/>
	<rect x="737.3" y="263.4" class="st0" width="3.8" height="53.6"/>
	<rect x="741.8" y="281.6" class="st0" width="3.8" height="67.5"/>
	<rect x="746.4" y="263" class="st0" width="3.8" height="66.6"/>
	<rect x="751.3" y="297.2" class="st0" width="3.8" height="22.1"/>
	<rect x="755.8" y="299.4" class="st0" width="3.8" height="14.7"/>
	<rect x="760.3" y="299.4" class="st0" width="3.8" height="17.3"/>
	<rect x="764.8" y="289.8" class="st0" width="3.8" height="35"/>
	<rect x="769.4" y="292.4" class="st0" width="3.8" height="24.2"/>
	<rect x="773.9" y="304.1" class="st0" width="3.8" height="11.2"/>
	<rect x="778.4" y="298.9" class="st0" width="3.8" height="16"/>
	<rect x="787.1" y="298.5" class="st0" width="3.8" height="19"/>
	<rect x="790.1" y="99.5" class="st0" width="3.8" height="395.8"/>
	<rect x="795.4" class="st0" width="3.8" height="600"/>
	<rect x="800" y="270.8" class="st0" width="3.8" height="69.2"/>
	<rect x="804.5" y="270.8" class="st0" width="3.8" height="73.5"/>
	<rect x="809" y="248.3" class="st0" width="3.8" height="122.9"/>
	<rect x="813.9" y="266.9" class="st0" width="3.8" height="84.8"/>
	<rect x="820" y="297.2" class="st0" width="3.8" height="16"/>
	<rect x="828.3" y="247" class="st0" width="3.8" height="122"/>
	<rect x="832.8" y="263.9" class="st0" width="3.8" height="84.8"/>
	<rect x="838.1" y="294.2" class="st0" width="3.8" height="24.7"/>
	<rect x="843" y="204.2" class="st0" width="3.8" height="218"/>
	<rect x="848.3" y="199.4" class="st0" width="3.8" height="240.1"/>
	<rect x="853.6" y="254.8" class="st0" width="3.8" height="113.3"/>
	<rect x="857.7" y="167.4" class="st0" width="3.8" height="289"/>
	<rect x="863" y="253.9" class="st0" width="3.8" height="125"/>
	<rect x="867.9" y="258.3" class="st0" width="3.8" height="89.5"/>
	<rect x="872.8" y="273.8" class="st0" width="3.8" height="67.1"/>
	<rect x="877.7" y="295.5" class="st0" width="3.8" height="22.9"/>
</g>
</svg>
