<?xml version="1.0" encoding="utf-8"?>
<!-- Generator: Adobe Illustrator 23.0.3, SVG Export Plug-In . SVG Version: 6.00 Build 0)  -->
<svg version="1.1" id="elements" xmlns="http://www.w3.org/2000/svg" xmlns:xlink="http://www.w3.org/1999/xlink" x="0px" y="0px"
	 viewBox="0 0 1400 980" enable-background="new 0 0 1400 980" xml:space="preserve">
<rect fill="#4A148C" width="1400" height="979.4"/>
<g>
	<g>
		<defs>
			<rect id="SVGID_1_" width="1400" height="979.4"/>
		</defs>
		<clipPath id="SVGID_2_">
			<use xlink:href="#SVGID_1_"  overflow="visible"/>
		</clipPath>
		<polygon clip-path="url(#SVGID_2_)" fill="#555758" points="413.7,111.3 401.4,114.1 411.7,121.3 399.3,119.2 405.9,129.7 
			395.2,123.1 397.3,135.3 390,125.3 387.2,137.3 384.3,125.3 377,135.3 379.1,123.1 368.4,129.7 375.1,119.2 362.7,121.3 
			372.9,114.1 360.7,111.3 372.9,108.5 362.7,101.4 375.1,103.4 368.4,92.9 379.1,99.5 377,87.3 384.3,97.4 387.2,85.3 390,97.4 
			397.3,87.3 395.2,99.5 405.9,92.9 399.3,103.4 411.7,101.4 401.4,108.5 		"/>
	</g>
	<g>
		<defs>
			<rect id="SVGID_3_" width="1400" height="979.4"/>
		</defs>
		<clipPath id="SVGID_4_">
			<use xlink:href="#SVGID_3_"  overflow="visible"/>
		</clipPath>
		<polygon clip-path="url(#SVGID_4_)" fill="#555758" points="628.5,380.1 620.1,382 627.1,386.9 618.6,385.5 623.1,392.6 
			615.8,388.2 617.2,396.5 612.2,389.6 610.3,397.8 608.4,389.6 603.3,396.5 604.8,388.2 597.5,392.6 602,385.5 593.5,386.9 
			600.5,382 592.1,380.1 600.5,378.1 593.5,373.2 602,374.6 597.5,367.5 604.8,372 603.3,363.6 608.4,370.5 610.3,362.3 
			612.2,370.5 617.3,363.6 615.8,372 623.1,367.5 618.6,374.6 627.1,373.2 620,378.1 		"/>
	</g>
	<g>
		<defs>
			<rect id="SVGID_5_" width="1400" height="979.4"/>
		</defs>
		<clipPath id="SVGID_6_">
			<use xlink:href="#SVGID_5_"  overflow="visible"/>
		</clipPath>
		<polygon clip-path="url(#SVGID_6_)" fill="#555758" points="1149.5,119.5 1141.1,121.4 1148.1,126.3 1139.6,124.9 1144.1,132.1 
			1136.8,127.6 1138.3,136 1133.2,129.1 1131.3,137.3 1129.4,129.1 1124.4,136 1125.8,127.6 1118.5,132.1 1123,124.9 1114.5,126.3 
			1121.5,121.4 1113.1,119.5 1121.5,117.6 1114.5,112.7 1123,114.1 1118.5,106.9 1125.8,111.4 1124.4,103.1 1129.4,110 
			1131.3,101.7 1133.2,110 1138.3,103.1 1136.8,111.4 1144.1,106.9 1139.6,114.1 1148.1,112.7 1141.1,117.6 		"/>
	</g>
	<g>
		<defs>
			<rect id="SVGID_7_" width="1400" height="979.4"/>
		</defs>
		<clipPath id="SVGID_8_">
			<use xlink:href="#SVGID_7_"  overflow="visible"/>
		</clipPath>
		<polygon clip-path="url(#SVGID_8_)" fill="#555758" points="469.4,175.7 461,177.6 468,182.5 459.5,181.1 464.1,188.3 
			456.8,183.8 458.2,192.2 453.2,185.3 451.2,193.5 449.3,185.3 444.3,192.1 445.7,183.8 438.4,188.3 443,181.1 434.5,182.5 
			441.5,177.6 433.1,175.7 441.5,173.8 434.5,168.9 443,170.3 438.4,163.1 445.7,167.6 444.3,159.3 449.3,166.2 451.2,157.9 
			453.2,166.2 458.2,159.3 456.8,167.6 464.1,163.1 459.5,170.3 468,168.9 461,173.8 		"/>
	</g>
	<g>
		<defs>
			<rect id="SVGID_9_" width="1400" height="979.4"/>
		</defs>
		<clipPath id="SVGID_10_">
			<use xlink:href="#SVGID_9_"  overflow="visible"/>
		</clipPath>
		<polygon clip-path="url(#SVGID_10_)" fill="#555758" points="1126.6,541.9 1109,545.8 1123.7,556.1 1105.9,553.2 1115.4,568.2 
			1100.1,558.8 1103.1,576.3 1092.6,561.8 1088.6,579.1 1084.5,561.8 1074,576.3 1077,558.8 1061.7,568.2 1071.3,553.2 
			1053.5,556.1 1068.2,545.8 1050.6,541.9 1068.2,537.9 1053.5,527.6 1071.3,530.5 1061.7,515.5 1077,524.9 1074,507.5 
			1084.5,521.9 1088.6,504.6 1092.6,521.9 1103.1,507.5 1100.1,524.9 1115.4,515.5 1105.9,530.5 1123.7,527.6 1109,537.9 		"/>
	</g>
	<g>
		<defs>
			<rect id="SVGID_11_" width="1400" height="979.4"/>
		</defs>
		<clipPath id="SVGID_12_">
			<use xlink:href="#SVGID_11_"  overflow="visible"/>
		</clipPath>
		<polygon clip-path="url(#SVGID_12_)" fill="#555758" points="1459.5,954 1425.7,961.7 1454,981.5 1419.7,975.8 1438.1,1004.7 
			1408.7,986.7 1414.4,1020.2 1394.3,992.5 1386.5,1025.7 1378.6,992.5 1358.5,1020.2 1364.2,986.7 1334.8,1004.7 1353.2,975.8 
			1318.9,981.5 1347.2,961.7 1313.4,954 1347.2,946.4 1318.9,926.6 1353.2,932.3 1334.8,903.4 1364.2,921.4 1358.5,887.9 
			1378.6,915.6 1386.5,882.4 1394.3,915.6 1414.4,887.9 1408.7,921.4 1438.1,903.4 1419.7,932.3 1454,926.6 1425.7,946.4 		"/>
	</g>
	<g>
		<defs>
			<rect id="SVGID_13_" width="1400" height="979.4"/>
		</defs>
		<clipPath id="SVGID_14_">
			<use xlink:href="#SVGID_13_"  overflow="visible"/>
		</clipPath>
		<polygon clip-path="url(#SVGID_14_)" fill="#555758" points="805.3,488.9 776.1,495.5 800.5,512.5 770.9,507.7 786.8,532.6 
			761.4,517 766.3,546 748.9,522.1 742.2,550.7 735.4,522.1 718,546 723,517 697.5,532.6 713.4,507.7 683.8,512.5 708.2,495.5 
			679,488.9 708.2,482.2 683.8,465.2 713.4,470 697.5,445.1 723,460.7 718,431.7 735.4,455.6 742.2,427 748.9,455.6 766.3,431.7 
			761.4,460.7 786.8,445.1 770.9,470 800.5,465.2 776.1,482.2 		"/>
	</g>
	<g>
		<defs>
			<rect id="SVGID_15_" width="1400" height="979.4"/>
		</defs>
		<clipPath id="SVGID_16_">
			<use xlink:href="#SVGID_15_"  overflow="visible"/>
		</clipPath>
		<polygon clip-path="url(#SVGID_16_)" fill="#555758" points="1225.4,478.3 1207.8,482.3 1222.5,492.6 1204.7,489.6 1214.3,504.6 
			1199,495.3 1202,512.7 1191.5,498.3 1187.4,515.5 1183.4,498.3 1172.9,512.7 1175.9,495.3 1160.6,504.6 1170.1,489.6 
			1152.3,492.6 1167,482.3 1149.5,478.3 1167,474.3 1152.3,464.1 1170.1,467 1160.6,452 1175.9,461.4 1172.9,443.9 1183.4,458.3 
			1187.4,441.1 1191.5,458.3 1202,443.9 1199,461.4 1214.3,452 1204.7,467 1222.5,464.1 1207.8,474.3 		"/>
	</g>
	<g>
		<defs>
			<rect id="SVGID_17_" width="1400" height="979.4"/>
		</defs>
		<clipPath id="SVGID_18_">
			<use xlink:href="#SVGID_17_"  overflow="visible"/>
		</clipPath>
		<polygon clip-path="url(#SVGID_18_)" fill="#555758" points="1400.1,157.9 1382.5,161.9 1397.2,172.2 1379.4,169.2 1388.9,184.2 
			1373.6,174.9 1376.6,192.3 1366.1,177.9 1362.1,195.1 1358,177.9 1347.5,192.3 1350.5,174.9 1335.2,184.2 1344.8,169.2 
			1327,172.2 1341.7,161.9 1324.1,157.9 1341.7,153.9 1327,143.7 1344.8,146.6 1335.2,131.6 1350.5,141 1347.5,123.5 1358,137.9 
			1362.1,120.7 1366.1,137.9 1376.6,123.5 1373.6,141 1388.9,131.6 1379.4,146.6 1397.2,143.7 1382.5,153.9 		"/>
	</g>
	<g>
		<defs>
			<rect id="SVGID_19_" width="1400" height="979.4"/>
		</defs>
		<clipPath id="SVGID_20_">
			<use xlink:href="#SVGID_19_"  overflow="visible"/>
		</clipPath>
		<polygon clip-path="url(#SVGID_20_)" fill="#555758" points="1150.8,879.6 1139.6,882.2 1149,888.7 1137.6,886.8 1143.7,896.4 
			1133.9,890.4 1135.8,901.6 1129.2,892.4 1126.6,903.4 1124,892.4 1117.3,901.6 1119.2,890.4 1109.4,896.4 1115.5,886.8 
			1104.1,888.7 1113.5,882.2 1102.3,879.6 1113.5,877.1 1104.1,870.5 1115.5,872.4 1109.4,862.8 1119.2,868.8 1117.3,857.6 
			1124,866.8 1126.6,855.8 1129.2,866.8 1135.8,857.6 1133.9,868.8 1143.7,862.8 1137.6,872.4 1149,870.5 1139.6,877.1 		"/>
	</g>
	<g>
		<defs>
			<rect id="SVGID_21_" width="1400" height="979.4"/>
		</defs>
		<clipPath id="SVGID_22_">
			<use xlink:href="#SVGID_21_"  overflow="visible"/>
		</clipPath>
		<polygon clip-path="url(#SVGID_22_)" fill="#555758" points="1182.9,903.1 1175.4,904.8 1181.7,909.2 1174.1,907.9 1178.2,914.3 
			1171.7,910.3 1172.9,917.8 1168.5,911.6 1166.7,919 1165,911.6 1160.5,917.8 1161.8,910.3 1155.3,914.3 1159.3,907.9 
			1151.7,909.2 1158,904.8 1150.5,903.1 1158,901.4 1151.7,897 1159.3,898.3 1155.3,891.9 1161.8,895.9 1160.5,888.4 1165,894.6 
			1166.7,887.2 1168.5,894.6 1172.9,888.4 1171.7,895.9 1178.2,891.9 1174.1,898.3 1181.7,897 1175.4,901.4 		"/>
	</g>
	<g>
		<defs>
			<rect id="SVGID_23_" width="1400" height="979.4"/>
		</defs>
		<clipPath id="SVGID_24_">
			<use xlink:href="#SVGID_23_"  overflow="visible"/>
		</clipPath>
		<polygon clip-path="url(#SVGID_24_)" fill="#555758" points="789.8,678.2 782.3,679.9 788.6,684.3 781,683.1 785.1,689.5 
			778.5,685.5 779.8,692.9 775.3,686.8 773.6,694.1 771.9,686.8 767.4,692.9 768.7,685.5 762.1,689.5 766.2,683.1 758.6,684.3 
			764.9,679.9 757.4,678.2 764.9,676.5 758.6,672.1 766.2,673.4 762.1,667 768.7,671 767.4,663.6 771.9,669.7 773.6,662.3 
			775.3,669.7 779.8,663.6 778.5,671 785.1,667 781,673.4 788.6,672.1 782.3,676.5 		"/>
	</g>
	<g>
		<defs>
			<rect id="SVGID_25_" width="1400" height="979.4"/>
		</defs>
		<clipPath id="SVGID_26_">
			<use xlink:href="#SVGID_25_"  overflow="visible"/>
		</clipPath>
		<polygon clip-path="url(#SVGID_26_)" fill="#555758" points="333.7,490 300.8,497.5 328.3,516.7 294.9,511.2 312.9,539.4 
			284.2,521.8 289.8,554.5 270.1,527.5 262.5,559.8 254.9,527.5 235.2,554.5 240.8,521.8 212.1,539.4 230.1,511.2 196.7,516.7 
			224.2,497.5 191.3,490 224.2,482.5 196.7,463.3 230.1,468.8 212.1,440.6 240.8,458.2 235.2,425.5 254.9,452.5 262.5,420.2 
			270.1,452.5 289.8,425.5 284.2,458.2 312.9,440.6 294.9,468.8 328.3,463.3 300.8,482.5 		"/>
	</g>
	<g>
		<defs>
			<rect id="SVGID_27_" width="1400" height="979.4"/>
		</defs>
		<clipPath id="SVGID_28_">
			<use xlink:href="#SVGID_27_"  overflow="visible"/>
		</clipPath>
		<polygon clip-path="url(#SVGID_28_)" fill="#3949AB" points="388.8,38.2 377.3,40.8 386.9,47.5 375.2,45.6 381.5,55.5 371.4,49.3 
			373.4,60.8 366.5,51.3 363.9,62.6 361.2,51.3 354.3,60.8 356.3,49.3 346.2,55.5 352.5,45.6 340.8,47.5 350.5,40.8 338.9,38.2 
			350.5,35.5 340.8,28.8 352.5,30.7 346.2,20.9 356.3,27 354.3,15.6 361.2,25 363.9,13.7 366.5,25 373.4,15.6 371.4,27 381.5,20.9 
			375.2,30.7 386.9,28.8 377.3,35.5 		"/>
	</g>
	<g>
		<defs>
			<rect id="SVGID_29_" width="1400" height="979.4"/>
		</defs>
		<clipPath id="SVGID_30_">
			<use xlink:href="#SVGID_29_"  overflow="visible"/>
		</clipPath>
		<polygon clip-path="url(#SVGID_30_)" fill="#555758" points="318.9,17.5 312.7,18.9 317.9,22.5 311.6,21.5 315,26.8 309.6,23.5 
			310.6,29.6 307,24.6 305.5,30.6 304.1,24.6 300.4,29.6 301.5,23.5 296.1,26.8 299.4,21.5 293.2,22.5 298.4,18.9 292.2,17.5 
			298.4,16.1 293.2,12.5 299.4,13.5 296.1,8.3 301.5,11.6 300.4,5.4 304.1,10.5 305.5,4.4 307,10.5 310.6,5.4 309.6,11.6 315,8.3 
			311.6,13.5 317.9,12.5 312.7,16.1 		"/>
	</g>
	<g>
		<defs>
			<rect id="SVGID_31_" width="1400" height="979.4"/>
		</defs>
		<clipPath id="SVGID_32_">
			<use xlink:href="#SVGID_31_"  overflow="visible"/>
		</clipPath>
		<g clip-path="url(#SVGID_32_)">
			<path fill="#5E35B1" d="M343.5,274.8c0,14.6-12.1,26.5-27,26.5s-27-11.8-27-26.5c0-14.6,12.1-26.5,27-26.5
				C331.4,248.3,343.5,260.2,343.5,274.8z"/>
			<path fill="#555758" d="M331,308.3c0,2.5-2.1,4.5-4.6,4.5c-2.6,0-4.6-2-4.6-4.5s2.1-4.5,4.6-4.5C328.9,303.7,331,305.8,331,308.3
				z"/>
			<path fill="#555758" d="M332.8,319.1c0,1.8-1.4,3.2-3.2,3.2c-1.8,0-3.2-1.4-3.2-3.2c0-1.8,1.4-3.2,3.2-3.2
				S332.8,317.4,332.8,319.1z"/>
			<path fill="#555758" d="M340.9,323.8c0,1.4-1.2,2.6-2.6,2.6c-1.5,0-2.6-1.2-2.6-2.6s1.2-2.6,2.6-2.6
				C339.8,321.2,340.9,322.3,340.9,323.8z"/>
		</g>
	</g>
	<g>
		<defs>
			<rect id="SVGID_33_" width="1400" height="979.4"/>
		</defs>
		<clipPath id="SVGID_34_">
			<use xlink:href="#SVGID_33_"  overflow="visible"/>
		</clipPath>
		<g clip-path="url(#SVGID_34_)">
			<path fill="#3949AB" d="M1170.9,768.5c-12.7,7.6-29.3,3.8-37.1-8.7c-7.8-12.5-3.8-28.8,8.9-36.4c12.7-7.6,29.3-3.8,37.1,8.7
				S1183.6,760.9,1170.9,768.5z"/>
			<path fill="#555758" d="M1135.3,775.6c-2.2,1.3-5,0.6-6.4-1.5c-1.3-2.1-0.7-4.9,1.5-6.2s5-0.6,6.4,1.5
				C1138.1,771.5,1137.4,774.3,1135.3,775.6z"/>
			<path fill="#555758" d="M1126.8,782.8c-1.5,0.9-3.5,0.4-4.5-1c-0.9-1.5-0.5-3.4,1.1-4.4c1.5-0.9,3.5-0.5,4.5,1
				C1128.8,780,1128.3,781.9,1126.8,782.8z"/>
			<path fill="#555758" d="M1127,792c-1.2,0.7-2.9,0.4-3.6-0.9c-0.8-1.2-0.4-2.8,0.9-3.6c1.2-0.7,2.9-0.4,3.6,0.8
				C1128.6,789.7,1128.2,791.3,1127,792z"/>
		</g>
	</g>
	<g>
		<defs>
			<rect id="SVGID_35_" width="1400" height="979.4"/>
		</defs>
		<clipPath id="SVGID_36_">
			<use xlink:href="#SVGID_35_"  overflow="visible"/>
		</clipPath>
		<g clip-path="url(#SVGID_36_)">
			<path fill="#555758" d="M1299.1,664c-22.4,13.5-51.7,6.6-65.5-15.3c-13.8-22-6.8-50.7,15.7-64.2c22.4-13.5,51.7-6.6,65.5,15.3
				C1328.5,621.8,1321.5,650.6,1299.1,664z"/>
			<path fill="#555758" d="M1236.2,676.5c-3.8,2.3-8.8,1.1-11.2-2.6c-2.4-3.8-1.2-8.7,2.7-11c3.8-2.3,8.9-1.1,11.2,2.6
				C1241.3,669.2,1240.1,674.2,1236.2,676.5z"/>
			<path fill="#555758" d="M1221.3,689.2c-2.7,1.6-6.2,0.8-7.9-1.8c-1.6-2.6-0.8-6.1,1.9-7.7c2.7-1.6,6.2-0.8,7.9,1.8
				C1224.8,684.2,1224,687.6,1221.3,689.2z"/>
			<path fill="#555758" d="M1221.6,705.4c-2.2,1.3-5.1,0.6-6.4-1.5s-0.7-5,1.5-6.3s5.1-0.6,6.4,1.5
				C1224.5,701.3,1223.8,704.1,1221.6,705.4z"/>
		</g>
	</g>
	<g>
		<defs>
			<rect id="SVGID_37_" width="1400" height="979.4"/>
		</defs>
		<clipPath id="SVGID_38_">
			<use xlink:href="#SVGID_37_"  overflow="visible"/>
		</clipPath>
		<g clip-path="url(#SVGID_38_)">
			<path fill="#5E35B1" d="M1071.2,57.3c-12.7,7.6-29.3,3.8-37.1-8.7c-7.8-12.5-3.8-28.8,8.9-36.4c12.7-7.6,29.3-3.8,37.1,8.7
				C1087.9,33.3,1083.9,49.6,1071.2,57.3z"/>
			<path fill="#555758" d="M1035.6,64.3c-2.2,1.3-5,0.6-6.4-1.5c-1.3-2.1-0.7-4.9,1.5-6.2s5-0.6,6.4,1.5
				C1038.4,60.2,1037.8,63,1035.6,64.3z"/>
			<path fill="#555758" d="M1027.1,71.6c-1.5,0.9-3.5,0.4-4.5-1c-0.9-1.5-0.5-3.4,1.1-4.4c1.5-0.9,3.5-0.4,4.5,1
				C1029.1,68.7,1028.6,70.6,1027.1,71.6z"/>
			<path fill="#555758" d="M1027.3,80.7c-1.2,0.7-2.9,0.4-3.6-0.8c-0.8-1.2-0.4-2.8,0.9-3.6c1.2-0.7,2.9-0.4,3.6,0.8
				C1028.9,78.4,1028.5,80,1027.3,80.7z"/>
		</g>
	</g>
	<g>
		<defs>
			<rect id="SVGID_39_" width="1400" height="979.4"/>
		</defs>
		<clipPath id="SVGID_40_">
			<use xlink:href="#SVGID_39_"  overflow="visible"/>
		</clipPath>
		<g clip-path="url(#SVGID_40_)">
			<ellipse fill="#555758" cx="760.7" cy="230.3" rx="38.9" ry="38.1"/>
			<path fill="#555758" d="M781.5,278.4c0,3.6-3,6.5-6.7,6.5s-6.7-2.9-6.7-6.5s3-6.5,6.7-6.5C778.6,271.9,781.5,274.8,781.5,278.4z"
				/>
			<path fill="#555758" d="M784.2,294.1c0,2.5-2.1,4.6-4.7,4.6c-2.6,0-4.7-2-4.7-4.6c0-2.5,2.1-4.6,4.7-4.6
				C782.1,289.5,784.2,291.6,784.2,294.1z"/>
			<path fill="#555758" d="M795.8,300.8c0,2.1-1.7,3.7-3.8,3.7s-3.8-1.7-3.8-3.7c0-2.1,1.7-3.7,3.8-3.7
				C794.1,297.1,795.8,298.7,795.8,300.8z"/>
		</g>
	</g>
	<g>
		<defs>
			<rect id="SVGID_41_" width="1400" height="979.4"/>
		</defs>
		<clipPath id="SVGID_42_">
			<use xlink:href="#SVGID_41_"  overflow="visible"/>
		</clipPath>
		<g clip-path="url(#SVGID_42_)">
			<ellipse fill="#304FFE" cx="884.7" cy="963.8" rx="67.2" ry="65.9"/>
			<path fill="#555758" d="M920.7,1047c0,6.2-5.1,11.3-11.5,11.3c-6.3,0-11.5-5-11.5-11.3s5.1-11.3,11.5-11.3
				C915.6,1035.7,920.7,1040.8,920.7,1047z"/>
			<path fill="#555758" d="M925.4,1074.1c0,4.4-3.6,7.9-8.1,7.9s-8.1-3.5-8.1-7.9s3.6-7.9,8.1-7.9S925.4,1069.7,925.4,1074.1z"/>
			<path fill="#555758" d="M945.5,1085.6c0,3.6-2.9,6.4-6.6,6.4c-3.6,0-6.6-2.9-6.6-6.4c0-3.6,2.9-6.4,6.6-6.4
				S945.5,1082.1,945.5,1085.6z"/>
		</g>
	</g>
	<g>
		<defs>
			<rect id="SVGID_43_" width="1400" height="979.4"/>
		</defs>
		<clipPath id="SVGID_44_">
			<use xlink:href="#SVGID_43_"  overflow="visible"/>
		</clipPath>
		<g clip-path="url(#SVGID_44_)">
			<path fill="#555758" d="M887.7,537.8c0,21-17.4,38.1-38.9,38.1s-38.9-17.1-38.9-38.1s17.4-38.1,38.9-38.1
				C870.3,499.7,887.7,516.8,887.7,537.8z"/>
			<path fill="#555758" d="M869.7,586c0,3.6-3,6.5-6.7,6.5s-6.7-2.9-6.7-6.5s3-6.5,6.7-6.5C866.7,579.4,869.7,582.4,869.7,586z"/>
			<path fill="#555758" d="M872.3,601.6c0,2.5-2.1,4.6-4.7,4.6c-2.6,0-4.7-2-4.7-4.6c0-2.5,2.1-4.6,4.7-4.6S872.3,599.1,872.3,601.6
				z"/>
			<path fill="#555758" d="M884,608.3c0,2.1-1.7,3.7-3.8,3.7s-3.8-1.7-3.8-3.7c0-2.1,1.7-3.7,3.8-3.7S884,606.3,884,608.3z"/>
		</g>
	</g>
	<g>
		<defs>
			<rect id="SVGID_45_" width="1400" height="979.4"/>
		</defs>
		<clipPath id="SVGID_46_">
			<use xlink:href="#SVGID_45_"  overflow="visible"/>
		</clipPath>
		<g clip-path="url(#SVGID_46_)">
			<path fill="#555758" d="M689,623.4c14.4,18.9,10.6,45.6-8.7,59.8c-19.2,14.2-46.6,10.4-61-8.5c-14.5-18.9-10.6-45.6,8.7-59.8
				C647.3,600.8,674.6,604.6,689,623.4z"/>
			<path fill="#555758" d="M705.9,678.5c2.5,3.2,1.8,7.8-1.5,10.2s-8,1.8-10.4-1.5c-2.5-3.2-1.8-7.8,1.5-10.2
				S703.5,675.2,705.9,678.5z"/>
			<path fill="#555758" d="M719.1,690.7c1.7,2.3,1.3,5.5-1,7.2s-5.6,1.2-7.3-1c-1.7-2.3-1.3-5.5,1-7.2S717.3,688.5,719.1,690.7z"/>
			<path fill="#555758" d="M734.1,689.1c1.4,1.8,1,4.5-0.8,5.8c-1.9,1.4-4.5,1-6-0.8c-1.4-1.8-1-4.5,0.8-5.8
				C730,686.8,732.7,687.2,734.1,689.1z"/>
		</g>
	</g>
	<g>
		<defs>
			<rect id="SVGID_47_" width="1400" height="979.4"/>
		</defs>
		<clipPath id="SVGID_48_">
			<use xlink:href="#SVGID_47_"  overflow="visible"/>
		</clipPath>
		<g clip-path="url(#SVGID_48_)">
			<path fill="#304FFE" d="M92.7,458.6c25.5,33.2,18.6,80.4-15.3,105.3c-33.9,25-82,18.2-107.5-15s-18.6-80.4,15.3-105.4
				C19.1,418.7,67.2,425.4,92.7,458.6z"/>
			<path fill="#555758" d="M122.5,555.6c4.4,5.7,3.2,13.7-2.6,18c-5.8,4.3-14,3.1-18.4-2.6c-4.4-5.7-3.2-13.7,2.6-18
				C109.9,548.8,118.1,549.9,122.5,555.6z"/>
			<path fill="#555758" d="M145.6,577.2c3.1,4,2.2,9.6-1.8,12.6c-4.1,3-9.8,2.2-12.9-1.8c-3.1-4-2.2-9.6,1.8-12.6
				C136.8,572.4,142.6,573.2,145.6,577.2z"/>
			<path fill="#555758" d="M172.1,574.3c2.5,3.2,1.8,7.9-1.5,10.3c-3.3,2.4-8,1.8-10.5-1.5c-2.5-3.2-1.8-7.8,1.5-10.3
				C164.9,570.4,169.6,571,172.1,574.3z"/>
		</g>
	</g>
	<g>
		<defs>
			<rect id="SVGID_49_" width="1400" height="979.4"/>
		</defs>
		<clipPath id="SVGID_50_">
			<use xlink:href="#SVGID_49_"  overflow="visible"/>
		</clipPath>
		<g clip-path="url(#SVGID_50_)">
			<path fill="#555758" d="M604.2,273.8c-20.4-7.3-42.5,1.7-49.4,20.2s4,39.4,24.3,46.7c20.4,7.3,42.5-1.7,49.4-20.2
				C635.5,302,624.6,281.1,604.2,273.8z"/>
			<path fill="#555758" d="M551.9,272.6c-3.5-1.3-7.3,0.3-8.4,3.5c-1.2,3.2,0.7,6.7,4.2,8s7.3-0.3,8.4-3.5
				C557.2,277.4,555.4,273.8,551.9,272.6z"/>
			<path fill="#555758" d="M537.6,264.8c-2.4-0.9-5.1,0.2-5.9,2.4c-0.8,2.2,0.5,4.7,2.9,5.6s5.1-0.2,5.9-2.4
				C541.3,268.2,540,265.7,537.6,264.8z"/>
			<path fill="#555758" d="M534.9,252.5c-2-0.7-4.1,0.2-4.8,2c-0.7,1.8,0.4,3.8,2.4,4.6c2,0.7,4.1-0.2,4.8-2
				C537.9,255.2,536.9,253.2,534.9,252.5z"/>
		</g>
	</g>
	<g>
		<defs>
			<rect id="SVGID_51_" width="1400" height="979.4"/>
		</defs>
		<clipPath id="SVGID_52_">
			<use xlink:href="#SVGID_51_"  overflow="visible"/>
		</clipPath>
		<g clip-path="url(#SVGID_52_)">
			<path fill="#555758" d="M508,163.4c-8.7,17.1-1.6,37.8,15.9,46.4c17.4,8.5,38.6,1.6,47.3-15.5s1.6-37.8-15.9-46.4
				S516.7,146.3,508,163.4z"/>
			<path fill="#555758" d="M502.7,209.6c-1.5,2.9-0.3,6.5,2.7,7.9c3,1.5,6.6,0.3,8.1-2.7c1.5-2.9,0.3-6.5-2.7-7.9
				C507.8,205.5,504.2,206.7,502.7,209.6z"/>
			<path fill="#555758" d="M494.1,221.3c-1,2-0.2,4.5,1.9,5.6c2.1,1,4.6,0.2,5.7-1.9c1-2,0.2-4.5-1.9-5.6
				C497.7,218.4,495.2,219.2,494.1,221.3z"/>
			<path fill="#555758" d="M481.9,222.1c-0.8,1.7-0.2,3.7,1.5,4.5s3.8,0.2,4.6-1.5c0.8-1.7,0.2-3.7-1.5-4.5S482.7,220.5,481.9,222.1
				z"/>
		</g>
	</g>
	<g>
		<defs>
			<rect id="SVGID_53_" width="1400" height="979.4"/>
		</defs>
		<clipPath id="SVGID_54_">
			<use xlink:href="#SVGID_53_"  overflow="visible"/>
		</clipPath>
		<g clip-path="url(#SVGID_54_)">
			<path fill="#555758" d="M749.8,839.1c-8.7,17.1-1.6,37.8,15.9,46.4c17.4,8.5,38.6,1.6,47.3-15.5s1.6-37.8-15.9-46.4
				C779.7,815,758.5,822,749.8,839.1z"/>
			<path fill="#555758" d="M744.6,885.3c-1.5,2.9-0.3,6.5,2.7,7.9c3,1.5,6.6,0.3,8.1-2.7c1.5-2.9,0.3-6.5-2.7-7.9
				C749.7,881.2,746.1,882.4,744.6,885.3z"/>
			<path fill="#555758" d="M736,897c-1,2-0.2,4.5,1.9,5.6c2.1,1,4.6,0.2,5.7-1.9c1-2,0.2-4.5-1.9-5.6C739.5,894.1,737,894.9,736,897
				z"/>
			<path fill="#555758" d="M723.7,897.8c-0.8,1.7-0.2,3.7,1.5,4.5s3.8,0.2,4.6-1.5s0.2-3.7-1.5-4.5
				C726.7,895.4,724.6,896.1,723.7,897.8z"/>
		</g>
	</g>
	<g>
		<defs>
			<rect id="SVGID_55_" width="1400" height="979.4"/>
		</defs>
		<clipPath id="SVGID_56_">
			<use xlink:href="#SVGID_55_"  overflow="visible"/>
		</clipPath>
		<g clip-path="url(#SVGID_56_)">
			<path fill="#0D47A1" d="M461.3,922.6c-8.7,17.1-1.6,37.8,15.9,46.4c17.4,8.5,38.6,1.6,47.3-15.5s1.6-37.8-15.9-46.4
				C491.2,898.5,470,905.5,461.3,922.6z"/>
			<path fill="#555758" d="M456.1,968.8c-1.5,2.9-0.3,6.5,2.7,7.9c3,1.5,6.6,0.3,8.1-2.7c1.5-2.9,0.3-6.5-2.7-7.9
				C461.2,964.7,457.6,965.9,456.1,968.8z"/>
			<path fill="#555758" d="M447.5,980.5c-1,2-0.2,4.5,1.9,5.6c2.1,1,4.6,0.2,5.7-1.9c1-2,0.2-4.5-1.9-5.6
				C451,977.6,448.5,978.4,447.5,980.5z"/>
			<path fill="#555758" d="M435.2,981.3c-0.8,1.7-0.2,3.7,1.5,4.5s3.8,0.2,4.6-1.5c0.8-1.7,0.2-3.7-1.5-4.5
				C438.2,978.9,436.1,979.6,435.2,981.3z"/>
		</g>
	</g>
	<g>
		<defs>
			<rect id="SVGID_57_" width="1400" height="979.4"/>
		</defs>
		<clipPath id="SVGID_58_">
			<use xlink:href="#SVGID_57_"  overflow="visible"/>
		</clipPath>
		<g clip-path="url(#SVGID_58_)">
			<path fill="#555758" d="M979.9,708.4c-11.2,14.4-8.3,35,6.5,45.9c14.7,10.9,35.7,8.1,46.9-6.3c11.2-14.4,8.3-35-6.5-45.9
				S991.1,694,979.9,708.4z"/>
			<path fill="#555758" d="M966.8,750.6c-1.9,2.5-1.4,6,1.1,7.9s6.1,1.4,8-1.1s1.4-6-1.1-7.9C972.3,747.7,968.7,748.2,966.8,750.6z"
				/>
			<path fill="#555758" d="M956.6,760c-1.3,1.7-1,4.2,0.8,5.5s4.3,1,5.6-0.8c1.3-1.7,1-4.2-0.8-5.5C960.5,757.9,958,758.3,956.6,760
				z"/>
			<path fill="#555758" d="M945.1,758.7c-1.1,1.4-0.8,3.4,0.6,4.5c1.4,1.1,3.5,0.8,4.6-0.6c1.1-1.4,0.8-3.4-0.6-4.5
				C948.2,757,946.2,757.3,945.1,758.7z"/>
		</g>
	</g>
	<g>
		<defs>
			<rect id="SVGID_59_" width="1400" height="979.4"/>
		</defs>
		<clipPath id="SVGID_60_">
			<use xlink:href="#SVGID_59_"  overflow="visible"/>
		</clipPath>
		<path clip-path="url(#SVGID_60_)" fill="#3949AB" d="M553.4,137.3l-7.1-49.4c0,0-5-12.8,14.6-17.8c19.7-4.9,10.6-28.9,4-32
			s-24.8,4.8-17.2-14.9c7.6-19.8-6.4-20.3-8.2-23.2s-50.7,0-50.7,0s-4,5.4-6,0s-27.7,0-27.7,0s-1.5,17.3-21.7,3.5
			s-26.8,36.1-19.7,46.9c7.1,10.9-32.3,1.7-5.8,36.4c0,0,36.1-7.7,29,21.9s63.1,10.9,56.7-4.4c0,0,10.8,4.2,16.3,8.1
			c0,0,29.1,4.3,19.8-23.4L553.4,137.3z"/>
	</g>
	<g>
		<defs>
			<rect id="SVGID_61_" width="1400" height="979.4"/>
		</defs>
		<clipPath id="SVGID_62_">
			<use xlink:href="#SVGID_61_"  overflow="visible"/>
		</clipPath>
		<path clip-path="url(#SVGID_62_)" fill="#0D47A1" d="M373.1,1035.6l-7.1-49.4c0,0-5-12.8,14.6-17.8c19.7-4.9,10.6-28.9,4-32
			s-24.8,4.8-17.2-14.9c7.6-19.8-6.4-20.3-8.2-23.2c-1.8-2.9-50.7,0-50.7,0s-4,5.4-6,0s-27.7,0-27.7,0s-1.5,17.3-21.7,3.5
			s-26.8,36.1-19.7,46.9c7.1,10.9-32.3,1.7-5.8,36.4c0,0,36.1-7.7,29,21.9c-7.1,29.6,63.1,10.9,56.7-4.4c0,0,10.8,4.2,16.3,8.1
			c0,0,29.1,4.3,19.8-23.4L373.1,1035.6z"/>
	</g>
	<g>
		<defs>
			<rect id="SVGID_63_" width="1400" height="979.4"/>
		</defs>
		<clipPath id="SVGID_64_">
			<use xlink:href="#SVGID_63_"  overflow="visible"/>
		</clipPath>
		<path clip-path="url(#SVGID_64_)" fill="#555758" d="M944,88.2l-7.1-49.4c0,0-5-12.8,14.6-17.8c19.7-4.9,10.6-28.9,4-32
			s-24.8,4.8-17.2-14.9c7.6-19.8-6.4-20.3-8.2-23.2s-50.7,0-50.7,0s-4,5.4-6,0s-27.7,0-27.7,0s-1.5,17.3-21.7,3.5
			S797.2-9.5,804.3,1.3c7.1,10.9-32.3,1.7-5.8,36.4c0,0,36.1-7.7,29,21.9s63.1,10.9,56.7-4.4c0,0,10.8,4.2,16.3,8.1
			c0,0,29.1,4.3,19.8-23.4L944,88.2z"/>
	</g>
	<g>
		<defs>
			<rect id="SVGID_65_" width="1400" height="979.4"/>
		</defs>
		<clipPath id="SVGID_66_">
			<use xlink:href="#SVGID_65_"  overflow="visible"/>
		</clipPath>
		<path clip-path="url(#SVGID_66_)" fill="#304FFE" d="M740.9,18.3H607.8c0,0-20.2,2-18.6,49.1c0,0-2.5,28.9,20.2,46.2h59l-9.6,17.8
			l23.7-16.3l58.5-0.5c0,0,21.2,1,21.2-45.4C762,69.2,765.6,22.7,740.9,18.3z"/>
	</g>
	<g>
		<defs>
			<rect id="SVGID_67_" width="1400" height="979.4"/>
		</defs>
		<clipPath id="SVGID_68_">
			<use xlink:href="#SVGID_67_"  overflow="visible"/>
		</clipPath>
		<path clip-path="url(#SVGID_68_)" fill="#3949AB" d="M1355.6,2.6l-133-2.6c0,0-20.2,1.6-19.6,48.8c0,0-3.1,28.8,19.2,46.6l59,1.1
			l-9.9,17.6l24-15.8l58.5,0.6c0,0,21.1,1.4,22.1-45C1375.7,53.9,1380.2,7.5,1355.6,2.6z"/>
	</g>
	<g>
		<defs>
			<rect id="SVGID_69_" width="1400" height="979.4"/>
		</defs>
		<clipPath id="SVGID_70_">
			<use xlink:href="#SVGID_69_"  overflow="visible"/>
		</clipPath>
		<path clip-path="url(#SVGID_70_)" fill="#5E35B1" d="M1434.6,481l-141.2-89.5c0,0-22.8-11.5-54.2,39.6c0,0-22.9,29-10.9,62.6
			l62.6,39.7l-22.6,12.4l36.5-1.4l62.4,38.8c0,0,21.8,15.3,54.3-34C1421.4,549.2,1457.7,502.3,1434.6,481z"/>
	</g>
	<g>
		<defs>
			<rect id="SVGID_71_" width="1400" height="979.4"/>
		</defs>
		<clipPath id="SVGID_72_">
			<use xlink:href="#SVGID_71_"  overflow="visible"/>
		</clipPath>
		<path clip-path="url(#SVGID_72_)" fill="#555758" d="M731.3,127.5h38.8c0,0,10.8,3.7,11.2,12.6l-0.3,28.2c0,0-3,8.7-10.6,8.9
			h-44.8c0,0-9.7-0.2-8.6-12.8l-14.2-18l14.6,7.2l0.4-14.1C718,139.4,719.1,129.5,731.3,127.5z"/>
	</g>
	<g>
		<defs>
			<rect id="SVGID_73_" width="1400" height="979.4"/>
		</defs>
		<clipPath id="SVGID_74_">
			<use xlink:href="#SVGID_73_"  overflow="visible"/>
		</clipPath>
		<path clip-path="url(#SVGID_74_)" fill="#555758" d="M122,242.7h49.7c0,0,13.8,4.7,14.4,16.1l-0.4,36.1c0,0-3.9,11.1-13.5,11.4
			h-57.3c0,0-12.5-0.3-11.1-16.4l-18.2-23.1l18.7,9.2l0.7-18C105,258,106.4,245.3,122,242.7z"/>
	</g>
	<g>
		<defs>
			<rect id="SVGID_75_" width="1400" height="979.4"/>
		</defs>
		<clipPath id="SVGID_76_">
			<use xlink:href="#SVGID_75_"  overflow="visible"/>
		</clipPath>
		<path clip-path="url(#SVGID_76_)" fill="#555758" d="M926.6,593.9h38.8c0,0,10.8,3.7,11.2,12.6l-0.3,28.2c0,0-3,8.7-10.6,8.9
			h-44.8c0,0-9.8-0.2-8.6-12.8l-14.2-18l14.6,7.2l0.4-14.1C913.4,605.8,914.4,595.9,926.6,593.9z"/>
	</g>
	<g>
		<defs>
			<rect id="SVGID_77_" width="1400" height="979.4"/>
		</defs>
		<clipPath id="SVGID_78_">
			<use xlink:href="#SVGID_77_"  overflow="visible"/>
		</clipPath>
		<path clip-path="url(#SVGID_78_)" fill="#555758" d="M322,374.1h38.8c0,0,10.8,3.7,11.2,12.6l-0.3,28.2c0,0-3,8.7-10.6,8.9h-44.8
			c0,0-9.8-0.2-8.6-12.8l-14.2-18l14.6,7.2l0.4-14.1C308.7,386,309.8,376.1,322,374.1z"/>
	</g>
	<g>
		<defs>
			<rect id="SVGID_79_" width="1400" height="979.4"/>
		</defs>
		<clipPath id="SVGID_80_">
			<use xlink:href="#SVGID_79_"  overflow="visible"/>
		</clipPath>
		<path clip-path="url(#SVGID_80_)" fill="#58595B" d="M842.5,101.9c0,0-38.5,1.5-37,38.2c0,0,2,25,28.5,25.5l-32,10.1
			c0,0,51.5-5.2,54.5-4.7l198-4.4c0,0,39.5-2.5,40.5-47.1c0,0,2.9-25.9-36.8-31.2c-0.4-0.1-0.8-0.1-1.2-0.2
			C1016,83.3,842.5,101.9,842.5,101.9z"/>
	</g>
	<g>
		<defs>
			<rect id="SVGID_81_" width="1400" height="979.4"/>
		</defs>
		<clipPath id="SVGID_82_">
			<use xlink:href="#SVGID_81_"  overflow="visible"/>
		</clipPath>
		<path clip-path="url(#SVGID_82_)" fill="#5E35B1" d="M146.1,149.2c0,0-38.5,1.5-37,38.2c0,0,2,25,28.5,25.5l-32,10.1
			c0,0,51.5-5.2,54.5-4.7l198-4.4c0,0,39.5-2.5,40.5-47.1c0,0,2.9-25.9-36.8-31.2c-0.4-0.1-0.8-0.1-1.2-0.2
			C319.6,130.5,146.1,149.2,146.1,149.2z"/>
	</g>
	<g>
		<defs>
			<rect id="SVGID_83_" width="1400" height="979.4"/>
		</defs>
		<clipPath id="SVGID_84_">
			<use xlink:href="#SVGID_83_"  overflow="visible"/>
		</clipPath>
		<path clip-path="url(#SVGID_84_)" fill="#0D47A1" d="M419.9,434.4c0,0-38.5,1.5-37,38.2c0,0,2,25,28.5,25.5l-32,10.1
			c0,0,51.5-5.2,54.5-4.7l198-4.4c0,0,39.5-2.5,40.5-47.1c0,0,2.9-25.9-36.8-31.2c-0.4-0.1-0.8-0.1-1.2-0.2
			C593.4,415.8,419.9,434.4,419.9,434.4z"/>
	</g>
	<g>
		<defs>
			<rect id="SVGID_85_" width="1400" height="979.4"/>
		</defs>
		<clipPath id="SVGID_86_">
			<use xlink:href="#SVGID_85_"  overflow="visible"/>
		</clipPath>
		<path clip-path="url(#SVGID_86_)" fill="#58595B" d="M1187,547.1c0,0-0.4-23.8-24.1-23.5c0,0-16.1,0.9-16.8,17.2l-6-20
			c0,0,2.6,31.9,2.2,33.8l-0.2,122.6c0,0,1,24.5,29.7,25.8c0,0,16.6,2.2,20.6-22.3c0-0.3,0.1-0.5,0.1-0.8
			C1196.3,654.7,1187,547.1,1187,547.1z"/>
	</g>
	<g>
		<defs>
			<rect id="SVGID_87_" width="1400" height="979.4"/>
		</defs>
		<clipPath id="SVGID_88_">
			<use xlink:href="#SVGID_87_"  overflow="visible"/>
		</clipPath>
		<path clip-path="url(#SVGID_88_)" fill="#58595B" d="M1215.6,177.8c0,0-0.4-23.8-24.1-23.5c0,0-16.1,0.9-16.8,17.2l-6-20
			c0,0,2.6,31.9,2.2,33.8l-0.2,122.6c0,0,1,24.5,29.7,25.8c0,0,16.6,2.2,20.6-22.3c0-0.3,0.1-0.5,0.1-0.8
			C1225,285.4,1215.6,177.8,1215.6,177.8z"/>
	</g>
	<g>
		<defs>
			<rect id="SVGID_89_" width="1400" height="979.4"/>
		</defs>
		<clipPath id="SVGID_90_">
			<use xlink:href="#SVGID_89_"  overflow="visible"/>
		</clipPath>
		<path clip-path="url(#SVGID_90_)" fill="#9C27B0" d="M865.3,806.9c0,0-38.5,1.5-37,38.2c0,0,2,25,28.5,25.5l-32,10.1
			c0,0,51.5-5.2,54.5-4.7l198-4.4c0,0,39.5-2.5,40.5-47.1c0,0,2.9-25.9-36.8-31.2c-0.4-0.1-0.8-0.1-1.2-0.2
			C1038.8,788.3,865.3,806.9,865.3,806.9z"/>
	</g>
	<g>
		<defs>
			<rect id="SVGID_91_" width="1400" height="979.4"/>
		</defs>
		<clipPath id="SVGID_92_">
			<use xlink:href="#SVGID_91_"  overflow="visible"/>
		</clipPath>
		<path clip-path="url(#SVGID_92_)" fill="#9C27B0" d="M1087.8,347.5c0,0,1.3,27.6,28.7,26.3c0,0,18.6-1.5,18.9-20.5l7.7,22.9
			c0,0-4.1-36.9-3.8-39l-4.2-141.9c0,0-2.1-28.3-35.3-28.8c0,0-19.3-2-23.1,26.5c0,0.3-0.1,0.6-0.1,0.9
			C1073.1,223.2,1087.8,347.5,1087.8,347.5z"/>
	</g>
	<g>
		<defs>
			<rect id="SVGID_93_" width="1400" height="979.4"/>
		</defs>
		<clipPath id="SVGID_94_">
			<use xlink:href="#SVGID_93_"  overflow="visible"/>
		</clipPath>
		<path clip-path="url(#SVGID_94_)" fill="#3949AB" d="M-6.9,385.3c0,0,1.5,32.7,34,31.2c0,0,22.1-1.8,22.4-24.4l9.1,27.1
			c0,0-4.9-43.7-4.5-46.3l-5-168.2c0,0-2.5-33.5-41.9-34.1c0,0-22.9-2.4-27.4,31.4c0,0.3-0.1,0.7-0.1,1.1
			C-24.3,238-6.9,385.3-6.9,385.3z"/>
	</g>
	<g>
		<defs>
			<rect id="SVGID_95_" width="1400" height="979.4"/>
		</defs>
		<clipPath id="SVGID_96_">
			<use xlink:href="#SVGID_95_"  overflow="visible"/>
		</clipPath>
		<path clip-path="url(#SVGID_96_)" fill="#58595B" d="M828,190.1c0,0-11.5,2.9-11,14.2v28.4c0,0,4,11.8,24.5,9.3l31,12.3l-12-11.8
			l26.5-1c0,0,21-2.5,19.5-16.7l0.1-23c0,0-3.1-10.8-23.6-11.8h-55V190.1z"/>
	</g>
	<g>
		<defs>
			<rect id="SVGID_97_" width="1400" height="979.4"/>
		</defs>
		<clipPath id="SVGID_98_">
			<use xlink:href="#SVGID_97_"  overflow="visible"/>
		</clipPath>
		<path clip-path="url(#SVGID_98_)" fill="#58595B" d="M-19.2,12.6c0,0-16.9,4.3-16.1,20.8v41.7c0,0,5.9,17.3,36,13.7l45.5,18
			L28.5,89.5l38.9-1.4c0,0,30.8-3.6,28.6-24.4l0.1-33.8c0,0-4.5-15.8-34.6-17.3C61.5,12.6-19.2,12.6-19.2,12.6z"/>
	</g>
	<g>
		<defs>
			<rect id="SVGID_99_" width="1400" height="979.4"/>
		</defs>
		<clipPath id="SVGID_100_">
			<use xlink:href="#SVGID_99_"  overflow="visible"/>
		</clipPath>
		<path clip-path="url(#SVGID_100_)" fill="#5E35B1" d="M1001.8,674.9c0,0-14.6-3.7-14-18.1v-36.2c0,0,5.1-15,31.2-11.8l39.5-15.6
			l-15.3,15l33.7,1.2c0,0,26.7,3.1,24.8,21.2l0.1,29.3c0,0-3.9,13.7-30,15L1001.8,674.9L1001.8,674.9z"/>
	</g>
	<g>
		<defs>
			<rect id="SVGID_101_" width="1400" height="979.4"/>
		</defs>
		<clipPath id="SVGID_102_">
			<use xlink:href="#SVGID_101_"  overflow="visible"/>
		</clipPath>
		<path clip-path="url(#SVGID_102_)" fill="#58595B" d="M921.5,365.5c0,0-3.5-20.1,3-33.3c0,0,10.5-8.4,0-28.7c0,0-7-27.4-42.5-37.1
			c0,0-44-10.2-68.5,25.6c0,0-17.5,36.7,26.5,64.7c0,0,26.5,11.3,40,2c0,0,21-8.8,28-13.7L921.5,365.5z"/>
	</g>
	<g>
		<defs>
			<rect id="SVGID_103_" width="1400" height="979.4"/>
		</defs>
		<clipPath id="SVGID_104_">
			<use xlink:href="#SVGID_103_"  overflow="visible"/>
		</clipPath>
		<path clip-path="url(#SVGID_104_)" fill="#5E35B1" d="M1311.7,936.4c0,0-3.2-18.4,2.7-30.5c0,0,9.6-7.7,0-26.3
			c0,0-6.4-25.1-38.9-34c0,0-40.3-9.3-62.8,23.5c0,0-16,33.7,24.3,59.3c0,0,24.3,10.3,36.6,1.8c0,0,19.2-8.1,25.7-12.6L1311.7,936.4
			z"/>
	</g>
	<g>
		<defs>
			<rect id="SVGID_105_" width="1400" height="979.4"/>
		</defs>
		<clipPath id="SVGID_106_">
			<use xlink:href="#SVGID_105_"  overflow="visible"/>
		</clipPath>
		<path clip-path="url(#SVGID_106_)" fill="#304FFE" d="M812.8,776.1c0,0,4.4-25.5-3.8-42.3c0,0-13.3-10.6,0-36.4
			c0,0,8.9-34.8,53.9-47.1c0,0,55.8-12.9,86.9,32.5c0,0,22.2,46.6-33.6,82c0,0-33.6,14.3-50.7,2.5c0,0-26.6-11.2-35.5-17.4
			L812.8,776.1z"/>
	</g>
	<g>
		<defs>
			<rect id="SVGID_107_" width="1400" height="979.4"/>
		</defs>
		<clipPath id="SVGID_108_">
			<use xlink:href="#SVGID_107_"  overflow="visible"/>
		</clipPath>
		<path clip-path="url(#SVGID_108_)" fill="#58595B" d="M987.3,1017.7c0,0,4.4-25.5-3.8-42.3c0,0-13.3-10.6,0-36.4
			c0,0,8.9-34.8,53.9-47.1c0,0,55.8-12.9,86.9,32.5c0,0,22.2,46.6-33.6,82c0,0-33.6,14.3-50.7,2.5c0,0-26.6-11.2-35.5-17.4
			L987.3,1017.7z"/>
	</g>
	<g>
		<defs>
			<rect id="SVGID_109_" width="1400" height="979.4"/>
		</defs>
		<clipPath id="SVGID_110_">
			<use xlink:href="#SVGID_109_"  overflow="visible"/>
		</clipPath>
		<path clip-path="url(#SVGID_110_)" fill="#3949AB" d="M239.7,690.7c0,0,4.4-25.5-3.8-42.3c0,0-13.3-10.6,0-36.4
			c0,0,8.9-34.8,53.9-47.1c0,0,55.8-12.9,86.9,32.5c0,0,22.2,46.6-33.6,82c0,0-33.6,14.3-50.7,2.5c0,0-26.6-11.2-35.5-17.4
			L239.7,690.7z"/>
	</g>
	<g>
		<defs>
			<rect id="SVGID_111_" width="1400" height="979.4"/>
		</defs>
		<clipPath id="SVGID_112_">
			<use xlink:href="#SVGID_111_"  overflow="visible"/>
		</clipPath>
		<path clip-path="url(#SVGID_112_)" fill="#D81B60" d="M664.9,429.2c0,0,4.4-25.5-3.8-42.3c0,0-13.3-10.6,0-36.4
			c0,0,8.9-34.8,53.9-47.1c0,0,55.8-12.9,86.9,32.5c0,0,22.2,46.6-33.6,82c0,0-33.6,14.3-50.7,2.5c0,0-26.6-11.2-35.5-17.4
			L664.9,429.2z"/>
	</g>
	<g>
		<defs>
			<rect id="SVGID_113_" width="1400" height="979.4"/>
		</defs>
		<clipPath id="SVGID_114_">
			<use xlink:href="#SVGID_113_"  overflow="visible"/>
		</clipPath>
		<path clip-path="url(#SVGID_114_)" fill="#5E35B1" d="M1239.8,391.1c0,0,6.6-37.6-5.6-62.4c0,0-19.7-15.7,0-53.7
			c0,0,13.1-51.3,79.5-69.4c0,0,82.3-19,128.2,47.9c0,0,32.8,68.8-49.6,121.1c0,0-49.6,21.1-74.9,3.7c0,0-39.3-16.5-52.4-25.7
			L1239.8,391.1z"/>
	</g>
	<g>
		<defs>
			<rect id="SVGID_115_" width="1400" height="979.4"/>
		</defs>
		<clipPath id="SVGID_116_">
			<use xlink:href="#SVGID_115_"  overflow="visible"/>
		</clipPath>
		<path clip-path="url(#SVGID_116_)" fill="#9C27B0" d="M165.4,870.3c0,0,5-28.5-4.3-47.3c0,0-14.9-11.9,0-40.7
			c0,0,9.9-38.9,60.3-52.6c0,0,62.4-14.4,97.2,36.3c0,0,24.8,52.1-37.6,91.7c0,0-37.6,16-56.7,2.8c0,0-29.8-12.5-39.7-19.5
			L165.4,870.3z"/>
	</g>
	<g>
		<defs>
			<rect id="SVGID_117_" width="1400" height="979.4"/>
		</defs>
		<clipPath id="SVGID_118_">
			<use xlink:href="#SVGID_117_"  overflow="visible"/>
		</clipPath>
		<path clip-path="url(#SVGID_118_)" fill="#0D47A1" d="M937.5,348.9l21.5,11.3v-22.5c0,0,2.5-20.6,24.5-20.8h47.5c0,0,18,1,22,21.7
			v42.8c0,0,3.5,15.7-25,17.6h-52c0,0-17-2-17-21.6L937.5,348.9z"/>
	</g>
	<g>
		<defs>
			<rect id="SVGID_119_" width="1400" height="979.4"/>
		</defs>
		<clipPath id="SVGID_120_">
			<use xlink:href="#SVGID_119_"  overflow="visible"/>
		</clipPath>
		<path clip-path="url(#SVGID_120_)" fill="#58595B" d="M325.7,857.4l12.5,6.6v-13.1c0,0,1.5-12,14.3-12.1h27.7
			c0,0,10.5,0.6,12.8,12.6v24.9c0,0,2,9.1-14.6,10.3h-30.3c0,0-9.9-1.1-9.9-12.6L325.7,857.4z"/>
	</g>
	<g>
		<defs>
			<rect id="SVGID_121_" width="1400" height="979.4"/>
		</defs>
		<clipPath id="SVGID_122_">
			<use xlink:href="#SVGID_121_"  overflow="visible"/>
		</clipPath>
		<path clip-path="url(#SVGID_122_)" fill="#58595B" d="M50.8,930.5l17.9,9.4v-18.7c0,0,2.1-17.1,20.4-17.3h39.5c0,0,15,0.8,18.3,18
			v35.6c0,0,2.9,13-20.8,14.7H82.8c0,0-14.1-1.6-14.1-17.9L50.8,930.5z"/>
	</g>
	<g>
		<defs>
			<rect id="SVGID_123_" width="1400" height="979.4"/>
		</defs>
		<clipPath id="SVGID_124_">
			<use xlink:href="#SVGID_123_"  overflow="visible"/>
		</clipPath>
		<path clip-path="url(#SVGID_124_)" fill="#58595B" d="M489.4,671.7l13.6,7.1v-14.2c0,0,1.6-13,15.5-13.2h30
			c0,0,11.4,0.6,13.9,13.7v27c0,0,2.2,9.9-15.8,11.1h-32.9c0,0-10.7-1.2-10.7-13.6L489.4,671.7z"/>
	</g>
	<g>
		<defs>
			<rect id="SVGID_125_" width="1400" height="979.4"/>
		</defs>
		<clipPath id="SVGID_126_">
			<use xlink:href="#SVGID_125_"  overflow="visible"/>
		</clipPath>
		<path clip-path="url(#SVGID_126_)" fill="#9C27B0" d="M481.7,559.1l21.5,15.3v-30.6c0,0,2.5-27.9,24.5-28.3h47.5
			c0,0,18,1.3,22,29.4v58c0,0,3.5,21.3-25,24h-52c0,0-17-2.7-17-29.3L481.7,559.1z"/>
	</g>
	<g>
		<defs>
			<rect id="SVGID_127_" width="1400" height="979.4"/>
		</defs>
		<clipPath id="SVGID_128_">
			<use xlink:href="#SVGID_127_"  overflow="visible"/>
		</clipPath>
		<path clip-path="url(#SVGID_128_)" fill="#9C27B0" d="M173.5,331.1l21.5,15.3v-30.6c0,0,2.5-27.9,24.5-28.3H267
			c0,0,18,1.3,22,29.4v58c0,0,3.5,21.3-25,24h-52c0,0-17-2.7-17-29.3L173.5,331.1z"/>
	</g>
	<g>
		<defs>
			<rect id="SVGID_129_" width="1400" height="979.4"/>
		</defs>
		<clipPath id="SVGID_130_">
			<use xlink:href="#SVGID_129_"  overflow="visible"/>
		</clipPath>
		<path clip-path="url(#SVGID_130_)" fill="#D81B60" d="M602.2,688.5L591,709.7l23-0.4c0,0,21,2.1,21.6,23.7l0.8,46.5
			c0,0-0.7,17.7-21.8,21.9l-43.6,0.7c0,0-15.9,3.7-18.4-24.2l-0.9-51c0,0,1.7-16.7,21.7-17L602.2,688.5z"/>
	</g>
	<g>
		<defs>
			<rect id="SVGID_131_" width="1400" height="979.4"/>
		</defs>
		<clipPath id="SVGID_132_">
			<use xlink:href="#SVGID_131_"  overflow="visible"/>
		</clipPath>
		<path clip-path="url(#SVGID_132_)" fill="#D81B60" d="M155,366.2l-11.1,21.3l23-0.4c0,0,21,2.1,21.6,23.7l0.8,46.5
			c0,0-0.7,17.7-21.8,21.9l-43.6,0.7c0,0-15.9,3.7-18.4-24.2l-0.9-51c0,0,1.7-16.7,21.7-17L155,366.2z"/>
	</g>
	<g>
		<defs>
			<rect id="SVGID_133_" width="1400" height="979.4"/>
		</defs>
		<clipPath id="SVGID_134_">
			<use xlink:href="#SVGID_133_"  overflow="visible"/>
		</clipPath>
		<path clip-path="url(#SVGID_134_)" fill="#D81B60" d="M812.5,414l41.8,23.1v-25.5c0,0,2.8-23.2,27.7-23.5h53.7
			c0,0,20.3,1.1,24.9,24.5V461c0,0,4,17.7-28.2,19.9h-58.7c0,0-19.2-2.2-19.2-24.4L812.5,414z"/>
	</g>
	<g>
		<defs>
			<rect id="SVGID_135_" width="1400" height="979.4"/>
		</defs>
		<clipPath id="SVGID_136_">
			<use xlink:href="#SVGID_135_"  overflow="visible"/>
		</clipPath>
		<path clip-path="url(#SVGID_136_)" fill="#555758" d="M991.5,418.5l56-1.5c0,0,23,0.9,28,17.6v41.2c0,0-0.7,14.7-22.4,17.6
			L1025,494l12,17.1l-32.5-15.7c0,0-21,2-27-9.8l-2-51C975.5,434.6,979,418.8,991.5,418.5z"/>
	</g>
	<g>
		<defs>
			<rect id="SVGID_137_" width="1400" height="979.4"/>
		</defs>
		<clipPath id="SVGID_138_">
			<use xlink:href="#SVGID_137_"  overflow="visible"/>
		</clipPath>
		<path clip-path="url(#SVGID_138_)" fill="#555758" d="M474.1,330.6l56-1.5c0,0,23,0.9,28,17.6v41.2c0,0-0.7,14.7-22.4,17.6
			l-28.1,0.6l12,17.1l-32.5-15.7c0,0-21,2-27-9.8l-2-51C458.1,346.7,461.6,330.9,474.1,330.6z"/>
	</g>
	<g>
		<defs>
			<rect id="SVGID_139_" width="1400" height="979.4"/>
		</defs>
		<clipPath id="SVGID_140_">
			<use xlink:href="#SVGID_139_"  overflow="visible"/>
		</clipPath>
		<path clip-path="url(#SVGID_140_)" fill="#5E35B1" d="M379.4,240.9l3.1,60.2c0,0,2.9,24.6,22,28.6l46-3.5c0,0,16.4-2,17.8-25.5
			l-1.7-30.2l20.1,11.4l-20.3-33.5c0,0,0.4-22.7-13.2-28.1l-57.2,2.2C396.1,222.4,378.8,227.4,379.4,240.9z"/>
	</g>
	<g>
		<defs>
			<rect id="SVGID_141_" width="1400" height="979.4"/>
		</defs>
		<clipPath id="SVGID_142_">
			<use xlink:href="#SVGID_141_"  overflow="visible"/>
		</clipPath>
		<path clip-path="url(#SVGID_142_)" fill="#555758" d="M1094.5,398.9l32.1-2.5c0,0,9.9-0.5,9.9,18.6s0,35.8,0,35.8
			s1.5,7.8-13.5,7.8l-15.5,13.2l6-13.2l-19-1c0,0-8-5.4-9-18.6C1085.5,439,1080,400,1094.5,398.9z"/>
	</g>
	<g>
		<defs>
			<rect id="SVGID_143_" width="1400" height="979.4"/>
		</defs>
		<clipPath id="SVGID_144_">
			<use xlink:href="#SVGID_143_"  overflow="visible"/>
		</clipPath>
		<path clip-path="url(#SVGID_144_)" fill="#555758" d="M1237.8,134.3l32.1-2.4c0,0,9.9-0.5,9.9,18.6s0,35.8,0,35.8
			s1.5,7.8-13.5,7.8l-15.5,13.2l6-13.2l-19-1c0,0-8-5.4-9-18.6C1228.8,174.5,1223.2,135.4,1237.8,134.3z"/>
	</g>
	<g>
		<defs>
			<rect id="SVGID_145_" width="1400" height="979.4"/>
		</defs>
		<clipPath id="SVGID_146_">
			<use xlink:href="#SVGID_145_"  overflow="visible"/>
		</clipPath>
		<path clip-path="url(#SVGID_146_)" fill="#304FFE" d="M401.5,352.9l32.1-2.4c0,0,9.9-0.5,9.9,18.6s0,35.8,0,35.8s1.5,7.8-13.5,7.8
			l-15.5,13.2l6-13.2l-19-1c0,0-8-5.4-9-18.6C392.5,393.1,387,354,401.5,352.9z"/>
	</g>
	<g>
		<defs>
			<rect id="SVGID_147_" width="1400" height="979.4"/>
		</defs>
		<clipPath id="SVGID_148_">
			<use xlink:href="#SVGID_147_"  overflow="visible"/>
		</clipPath>
		<path clip-path="url(#SVGID_148_)" fill="#555758" d="M60.8,116.3l32.1-2.4c0,0,9.9-0.5,9.9,18.6s0,35.8,0,35.8s1.5,7.8-13.5,7.8
			l-15.5,13.2l6-13.2l-19-1c0,0-8-5.4-9-18.6C51.8,156.5,46.3,117.4,60.8,116.3z"/>
	</g>
	<g>
		<defs>
			<rect id="SVGID_149_" width="1400" height="979.4"/>
		</defs>
		<clipPath id="SVGID_150_">
			<use xlink:href="#SVGID_149_"  overflow="visible"/>
		</clipPath>
		<path clip-path="url(#SVGID_150_)" fill="#555758" d="M628,517.8l32.1-2.4c0,0,9.9-0.5,9.9,18.6s0,35.8,0,35.8s1.5,7.8-13.5,7.8
			L641,590.8l6-13.2l-19-1c0,0-8-5.4-9-18.6C619,557.9,613.5,518.9,628,517.8z"/>
	</g>
	<g>
		<defs>
			<rect id="SVGID_151_" width="1400" height="979.4"/>
		</defs>
		<clipPath id="SVGID_152_">
			<use xlink:href="#SVGID_151_"  overflow="visible"/>
		</clipPath>
		<path clip-path="url(#SVGID_152_)" fill="#555758" d="M417.1,529.8l32.1-2.5c0,0,9.9-0.5,9.9,18.6s0,35.8,0,35.8s1.5,7.8-13.5,7.8
			l-15.5,13.2l6-13.2l-19-1c0,0-8-5.4-9-18.6C408.1,570,402.5,530.9,417.1,529.8z"/>
	</g>
	<g>
		<defs>
			<rect id="SVGID_153_" width="1400" height="979.4"/>
		</defs>
		<clipPath id="SVGID_154_">
			<use xlink:href="#SVGID_153_"  overflow="visible"/>
		</clipPath>
		<path clip-path="url(#SVGID_154_)" fill="#555758" d="M173.2,626.4l32.1-2.5c0,0,9.9-0.5,9.9,18.6s0,35.8,0,35.8s1.5,7.8-13.5,7.8
			l-15.5,13.2l6-13.2l-19-1c0,0-8-5.4-9-18.6C164.2,666.6,158.7,627.5,173.2,626.4z"/>
	</g>
	<g>
		<defs>
			<rect id="SVGID_155_" width="1400" height="979.4"/>
		</defs>
		<clipPath id="SVGID_156_">
			<use xlink:href="#SVGID_155_"  overflow="visible"/>
		</clipPath>
		<path clip-path="url(#SVGID_156_)" fill="#9C27B0" d="M391,754.5l32.1-2.5c0,0,9.9-0.5,9.9,18.6s0,35.8,0,35.8s1.5,7.8-13.5,7.8
			L404,827.5l6-13.2l-19-1c0,0-8-5.4-9-18.6C382,794.7,376.5,755.6,391,754.5z"/>
	</g>
	<g>
		<defs>
			<rect id="SVGID_157_" width="1400" height="979.4"/>
		</defs>
		<clipPath id="SVGID_158_">
			<use xlink:href="#SVGID_157_"  overflow="visible"/>
		</clipPath>
		<path clip-path="url(#SVGID_158_)" fill="#5E35B1" d="M2.4,728.3l73.5-5.6c0,0,22.8-1.1,22.8,42.7s0,82.1,0,82.1s3.4,18-31,18
			l-35.6,30.3L46,865.4l-43.6-2.2c0,0-18.4-12.4-20.6-42.7C-18.2,820.5-30.9,730.8,2.4,728.3z"/>
	</g>
	<g>
		<defs>
			<rect id="SVGID_159_" width="1400" height="979.4"/>
		</defs>
		<clipPath id="SVGID_160_">
			<use xlink:href="#SVGID_159_"  overflow="visible"/>
		</clipPath>
		<path clip-path="url(#SVGID_160_)" fill="#D81B60" d="M456.5,831c0,0,36.5-22.5,112.5-7.8c0,0,23,6.4,11,46.1
			c0,0-12,18.1-63.5,17.1c0,0-43,3.9-99-13.7l36.5-1c0,0,11.5-1.2,2-19.2C456,852.5,449.5,840.3,456.5,831z"/>
	</g>
	<g>
		<defs>
			<rect id="SVGID_161_" width="1400" height="979.4"/>
		</defs>
		<clipPath id="SVGID_162_">
			<use xlink:href="#SVGID_161_"  overflow="visible"/>
		</clipPath>
		<path clip-path="url(#SVGID_162_)" fill="#5E35B1" d="M1006.3,520.7c0,0-29-17.9-89.5-6.2c0,0-18.3,5.1-8.7,36.6
			c0,0,9.5,14.4,50.5,13.6c0,0,34.2,3.1,78.7-10.9l-29-0.8c0,0-9.1-0.9-1.6-15.3C1006.7,537.8,1011.9,528.1,1006.3,520.7z"/>
	</g>
	<g>
		<defs>
			<rect id="SVGID_163_" width="1400" height="979.4"/>
		</defs>
		<clipPath id="SVGID_164_">
			<use xlink:href="#SVGID_163_"  overflow="visible"/>
		</clipPath>
		<path clip-path="url(#SVGID_164_)" fill="#D81B60" d="M264.2,53.5c0,0-38.7-23.9-119.2-8.3c0,0-24.4,6.8-11.7,48.8
			c0,0,12.7,19.2,67.3,18.2c0,0,45.6,4.2,104.9-14.5l-38.7-1c0,0-12.2-1.2-2.1-20.4C264.7,76.3,271.6,63.4,264.2,53.5z"/>
	</g>
	<g>
		<defs>
			<rect id="SVGID_165_" width="1400" height="979.4"/>
		</defs>
		<clipPath id="SVGID_166_">
			<use xlink:href="#SVGID_165_"  overflow="visible"/>
		</clipPath>
		<path clip-path="url(#SVGID_166_)" fill="#0D47A1" d="M109.9,637.8c0,0-41.8-25.8-128.7-9c0,0-26.3,7.3-12.6,52.7
			c0,0,13.7,20.7,72.6,19.6c0,0,49.2,4.5,113.2-15.7l-41.8-1.1c0,0-13.2-1.3-2.3-22C110.4,662.3,117.9,648.4,109.9,637.8z"/>
	</g>
	<g>
		<defs>
			<rect id="SVGID_167_" width="1400" height="979.4"/>
		</defs>
		<clipPath id="SVGID_168_">
			<use xlink:href="#SVGID_167_"  overflow="visible"/>
		</clipPath>
		<path clip-path="url(#SVGID_168_)" fill="#3949AB" d="M373.5,656.1c0,0,28.5-44.1,83-12.7c0,0,13.5,16.2,15.5,37.2
			c0,0,5.5,39.7,33,41.7c0,0,31-2,32,0s-1,6.4-28.5,14.7c0,0-72,23-125.5,0C383,737,337,720.8,373.5,656.1z"/>
	</g>
	<g>
		<defs>
			<rect id="SVGID_169_" width="1400" height="979.4"/>
		</defs>
		<clipPath id="SVGID_170_">
			<use xlink:href="#SVGID_169_"  overflow="visible"/>
		</clipPath>
		<path clip-path="url(#SVGID_170_)" fill="#9C27B0" d="M563.6,905.2c0,0,41.5-64.2,120.8-18.5c0,0,19.6,23.5,22.6,54.2
			c0,0,8,57.8,48,60.6c0,0,45.1-2.9,46.6,0s-1.5,9.3-41.5,21.4c0,0-104.8,33.5-182.7,0C577.4,1022.9,510.5,999.4,563.6,905.2z"/>
	</g>
	<g>
		<defs>
			<rect id="SVGID_171_" width="1400" height="979.4"/>
		</defs>
		<clipPath id="SVGID_172_">
			<use xlink:href="#SVGID_171_"  overflow="visible"/>
		</clipPath>
		<path clip-path="url(#SVGID_172_)" fill="#3949AB" d="M731.3,575.9c0,0,78.7-1.8,86.7,0s41.5,37.1-14,64.5h-53l-7,21.9l-3-22.4
			c0,0-20.2-0.5-26.1-33.6C714.9,606.4,706,582,731.3,575.9z"/>
	</g>
	<g>
		<defs>
			<rect id="SVGID_173_" width="1400" height="979.4"/>
		</defs>
		<clipPath id="SVGID_174_">
			<use xlink:href="#SVGID_173_"  overflow="visible"/>
		</clipPath>
		<path clip-path="url(#SVGID_174_)" fill="#555758" d="M1211.3,759.5c0,0,78.7-1.8,86.7,0s41.5,37.1-14,64.5h-53l-7,21.9l-3-22.4
			c0,0-20.2-0.5-26.1-33.6C1194.9,790,1186.1,765.6,1211.3,759.5z"/>
	</g>
	<g>
		<defs>
			<rect id="SVGID_175_" width="1400" height="979.4"/>
		</defs>
		<clipPath id="SVGID_176_">
			<use xlink:href="#SVGID_175_"  overflow="visible"/>
		</clipPath>
		<path clip-path="url(#SVGID_176_)" fill="#0D47A1" d="M642,165.8c0,0,16.3-16.8,33.6-9.2s21.2,19,16.2,24.4s-3,14.7,10.9,13.3
			c14-1.4,9.6,25.5,0.1,25.9c-9.4,0.4-17.2,9-7.8,22.1l16,24.9c0,0,1.7,2.1-7.2-4.4l-23.3-28.2c0,0-2.8,1.1-1.1,14.6
			c0,0-12.7,11.1-21.6,2.9c0,0-5-11.3-16,7c0,0-18.8,8.3-35.4-7c0,0,4.2-23.5-17.6-17.5c0,0-17.9-1.5-11.2-21.3
			c0,0,19.9-3.7,8.3-21.2c0,0-7.2-20.4,14.4-25.8c0,0,25.5,8.7,20.5-6.5C621,159.9,634.8,137.6,642,165.8z"/>
	</g>
	<g>
		<defs>
			<rect id="SVGID_177_" width="1400" height="979.4"/>
		</defs>
		<clipPath id="SVGID_178_">
			<use xlink:href="#SVGID_177_"  overflow="visible"/>
		</clipPath>
		<path clip-path="url(#SVGID_178_)" fill="#555758" d="M997.3,186.6c0,0-16.3-16.8-33.6-9.2s-21.2,19-16.2,24.4s3,14.7-10.9,13.3
			c-14-1.4-9.6,25.5-0.1,25.9c9.4,0.4,17.2,9,7.8,22.1l-16,24.9c0,0-1.7,2.1,7.2-4.4l23.3-28.2c0,0,2.8,1.1,1.1,14.6
			c0,0,12.7,11.1,21.6,2.9c0,0,5-11.3,16,7c0,0,18.8,8.3,35.4-7c0,0-4.2-23.5,17.6-17.5c0,0,17.9-1.5,11.2-21.3
			c0,0-19.9-3.7-8.3-21.2c0,0,7.2-20.4-14.4-25.8c0,0-25.5,8.7-20.5-6.5C1018.3,180.6,1004.5,158.4,997.3,186.6z"/>
	</g>
	<g>
		<defs>
			<rect id="SVGID_179_" width="1400" height="979.4"/>
		</defs>
		<clipPath id="SVGID_180_">
			<use xlink:href="#SVGID_179_"  overflow="visible"/>
		</clipPath>
		<path clip-path="url(#SVGID_180_)" fill="#555758" d="M715.4,728.7c0,0-16.3-16.8-33.6-9.2s-21.2,19-16.2,24.4s3,14.7-10.9,13.3
			c-14-1.4-9.6,25.5-0.1,25.9c9.4,0.4,17.2,9,7.8,22.1l-16,24.9c0,0-1.7,2.1,7.2-4.4l23.3-28.2c0,0,2.8,1.1,1.1,14.6
			c0,0,12.7,11.1,21.6,2.9c0,0,5-11.3,16,7c0,0,18.8,8.3,35.4-7c0,0-4.2-23.5,17.6-17.5c0,0,17.9-1.5,11.2-21.3
			c0,0-19.9-3.7-8.3-21.2c0,0,7.2-20.4-14.4-25.8c0,0-25.5,8.7-20.5-6.5C736.4,722.8,722.6,700.5,715.4,728.7z"/>
	</g>
	<g>
		<defs>
			<rect id="SVGID_181_" width="1400" height="979.4"/>
		</defs>
		<clipPath id="SVGID_182_">
			<use xlink:href="#SVGID_181_"  overflow="visible"/>
		</clipPath>
		<path clip-path="url(#SVGID_182_)" fill="#555758" d="M1402.6,634.7c0,0-21.2-21.9-43.7-12s-27.5,24.7-21.1,31.7
			c6.5,7.1,3.9,19.1-14.2,17.3s-12.4,33.2-0.2,33.7c12.2,0.5,22.3,11.7,10.1,28.7l-20.9,32.4c0,0-2.2,2.7,9.3-5.7l30.2-36.6
			c0,0,3.6,1.4,1.4,19c0,0,16.5,14.5,28.1,3.7c0,0,6.5-14.7,20.9,9.1c0,0,24.5,10.8,46-9.1c0,0-5.4-30.5,22.8-22.8
			c0,0,23.2-1.9,14.6-27.7c0,0-25.8-4.7-10.8-27.6c0,0,9.4-26.5-18.7-33.5c0,0-33.1,11.3-26.6-8.5
			C1429.9,627,1411.9,598.1,1402.6,634.7z"/>
	</g>
</g>
<linearGradient id="SVGID_183_" gradientUnits="userSpaceOnUse" x1="1314.7352" y1="72.4552" x2="-65.5371" y2="1009.9735">
	<stop  offset="2.787438e-02" style="stop-color:#304FFE"/>
	<stop  offset="1" style="stop-color:#E91E63"/>
</linearGradient>
<rect opacity="0.7" fill="url(#SVGID_183_)" width="1400" height="980"/>
</svg>
