<?xml version="1.0" encoding="utf-8"?>
<!-- Generator: Adobe Illustrator 23.0.3, SVG Export Plug-In . SVG Version: 6.00 Build 0)  -->
<svg version="1.1" id="Layer_1" xmlns="http://www.w3.org/2000/svg" xmlns:xlink="http://www.w3.org/1999/xlink" x="0px" y="0px"
	 viewBox="0 0 900 600" enable-background="new 0 0 900 600" xml:space="preserve">
<g>
	<radialGradient id="SVGID_1_" cx="238.7952" cy="-79.2576" r="862.1631" gradientUnits="userSpaceOnUse">
		<stop  offset="0.4844" style="stop-color:#000060"/>
		<stop  offset="0.5804" style="stop-color:#00005B"/>
		<stop  offset="0.6908" style="stop-color:#00004D"/>
		<stop  offset="0.8082" style="stop-color:#000036"/>
		<stop  offset="0.9297" style="stop-color:#000016"/>
		<stop  offset="1" style="stop-color:#000000"/>
	</radialGradient>
	<rect fill="url(#SVGID_1_)" width="900" height="600"/>
	<g>
		<defs>
			<rect id="SVGID_2_" width="900" height="600"/>
		</defs>
		<clipPath id="SVGID_3_">
			<use xlink:href="#SVGID_2_"  overflow="visible"/>
		</clipPath>
		<g clip-path="url(#SVGID_3_)">
			<g>
				<radialGradient id="SVGID_4_" cx="-76.167" cy="259.2058" r="470.4" gradientUnits="userSpaceOnUse">
					<stop  offset="0" style="stop-color:#B414A6"/>
					<stop  offset="4.736565e-02" style="stop-color:#9F1292"/>
					<stop  offset="0.1543" style="stop-color:#750D6C"/>
					<stop  offset="0.2672" style="stop-color:#51094A"/>
					<stop  offset="0.385" style="stop-color:#33062F"/>
					<stop  offset="0.5094" style="stop-color:#1D031A"/>
					<stop  offset="0.6434" style="stop-color:#0D010C"/>
					<stop  offset="0.7937" style="stop-color:#030003"/>
					<stop  offset="0.9946" style="stop-color:#000000"/>
				</radialGradient>
				<circle fill="url(#SVGID_4_)" cx="70.2" cy="334.8" r="470.4"/>
				<radialGradient id="SVGID_5_" cx="195.039" cy="788.3997" r="470.4013" gradientUnits="userSpaceOnUse">
					<stop  offset="0" style="stop-color:#B414A6"/>
					<stop  offset="0.137" style="stop-color:#8F1083"/>
					<stop  offset="0.3469" style="stop-color:#5C0A55"/>
					<stop  offset="0.5447" style="stop-color:#340630"/>
					<stop  offset="0.7245" style="stop-color:#180316"/>
					<stop  offset="0.8803" style="stop-color:#060106"/>
					<stop  offset="0.9946" style="stop-color:#000000"/>
				</radialGradient>
				<circle fill="url(#SVGID_5_)" cx="271.8" cy="627.6" r="470.4"/>
				<radialGradient id="SVGID_6_" cx="1081.8322" cy="349.2097" r="470.3995" gradientUnits="userSpaceOnUse">
					<stop  offset="0" style="stop-color:#008BAC"/>
					<stop  offset="0.1097" style="stop-color:#00748F"/>
					<stop  offset="0.3263" style="stop-color:#004B5C"/>
					<stop  offset="0.5303" style="stop-color:#002A34"/>
					<stop  offset="0.7158" style="stop-color:#001318"/>
					<stop  offset="0.8767" style="stop-color:#000506"/>
					<stop  offset="0.9946" style="stop-color:#000000"/>
				</radialGradient>
				<circle fill="url(#SVGID_6_)" cx="921" cy="282" r="470.4"/>
				<radialGradient id="SVGID_7_" cx="465.938" cy="334.8245" r="332.0846" gradientUnits="userSpaceOnUse">
					<stop  offset="0" style="stop-color:#0046D8"/>
					<stop  offset="3.289408e-02" style="stop-color:#0042CA;stop-opacity:0.9669"/>
					<stop  offset="0.1717" style="stop-color:#003195;stop-opacity:0.8274"/>
					<stop  offset="0.3122" style="stop-color:#002267;stop-opacity:0.6861"/>
					<stop  offset="0.4519" style="stop-color:#001642;stop-opacity:0.5456"/>
					<stop  offset="0.5906" style="stop-color:#000C25;stop-opacity:0.4062"/>
					<stop  offset="0.7279" style="stop-color:#000511;stop-opacity:0.2682"/>
					<stop  offset="0.8633" style="stop-color:#000104;stop-opacity:0.1321"/>
					<stop  offset="0.9946" style="stop-color:#000000;stop-opacity:0"/>
				</radialGradient>
				<circle fill="url(#SVGID_7_)" cx="462.6" cy="334.8" r="332.4"/>
				<radialGradient id="SVGID_8_" cx="326.738" cy="296.4245" r="332.0846" gradientUnits="userSpaceOnUse">
					<stop  offset="0" style="stop-color:#0046D8"/>
					<stop  offset="3.289408e-02" style="stop-color:#0042CA;stop-opacity:0.9669"/>
					<stop  offset="0.1717" style="stop-color:#003195;stop-opacity:0.8274"/>
					<stop  offset="0.3122" style="stop-color:#002267;stop-opacity:0.6861"/>
					<stop  offset="0.4519" style="stop-color:#001642;stop-opacity:0.5456"/>
					<stop  offset="0.5906" style="stop-color:#000C25;stop-opacity:0.4062"/>
					<stop  offset="0.7279" style="stop-color:#000511;stop-opacity:0.2682"/>
					<stop  offset="0.8633" style="stop-color:#000104;stop-opacity:0.1321"/>
					<stop  offset="0.9946" style="stop-color:#000000;stop-opacity:0"/>
				</radialGradient>
				<circle fill="url(#SVGID_8_)" cx="323.4" cy="296.4" r="332.4"/>
				<radialGradient id="SVGID_9_" cx="497.138" cy="298.8245" r="332.0846" gradientUnits="userSpaceOnUse">
					<stop  offset="0" style="stop-color:#0046D8"/>
					<stop  offset="3.289408e-02" style="stop-color:#0042CA;stop-opacity:0.9669"/>
					<stop  offset="0.1717" style="stop-color:#003195;stop-opacity:0.8274"/>
					<stop  offset="0.3122" style="stop-color:#002267;stop-opacity:0.6861"/>
					<stop  offset="0.4519" style="stop-color:#001642;stop-opacity:0.5456"/>
					<stop  offset="0.5906" style="stop-color:#000C25;stop-opacity:0.4062"/>
					<stop  offset="0.7279" style="stop-color:#000511;stop-opacity:0.2682"/>
					<stop  offset="0.8633" style="stop-color:#000104;stop-opacity:0.1321"/>
					<stop  offset="0.9946" style="stop-color:#000000;stop-opacity:0"/>
				</radialGradient>
				<circle fill="url(#SVGID_9_)" cx="493.8" cy="298.8" r="332.4"/>
				<radialGradient id="SVGID_10_" cx="619.538" cy="334.8245" r="332.0846" gradientUnits="userSpaceOnUse">
					<stop  offset="0" style="stop-color:#0084FF"/>
					<stop  offset="0.1115" style="stop-color:#0069CA;stop-opacity:0.8879"/>
					<stop  offset="0.2389" style="stop-color:#004D95;stop-opacity:0.7598"/>
					<stop  offset="0.368" style="stop-color:#003667;stop-opacity:0.63"/>
					<stop  offset="0.4963" style="stop-color:#002242;stop-opacity:0.501"/>
					<stop  offset="0.6236" style="stop-color:#001325;stop-opacity:0.373"/>
					<stop  offset="0.7497" style="stop-color:#000911;stop-opacity:0.2462"/>
					<stop  offset="0.874" style="stop-color:#000204;stop-opacity:0.1212"/>
					<stop  offset="0.9946" style="stop-color:#000000;stop-opacity:0"/>
				</radialGradient>
				<circle fill="url(#SVGID_10_)" cx="616.2" cy="334.8" r="332.4"/>
			</g>
			<g>
				<g>
					<path fill="none" stroke="#FFFFFF" stroke-width="0.25" stroke-miterlimit="10" d="M-57.5,314.5c0,0,54-36,113.4-14.4
						c59.4,21.6,77.4,27,118.8,12.6c41.4-14.4,39.6-18,61.2-5.4c21.6,12.6,32.4,19.8,109.8-7.2c77.4-27,95.4,32.4,160.2,21.6
						c64.8-10.8,66.6-46.8,122.4-21.6c55.8,25.2,66.6,25.2,84.6,21.6c18-3.6,19.8-18,46.8-12.6c27,5.4,30.6,10.8,55.8,0
						c25.2-10.8,34.2-18,81,1.8c46.8,19.8,100.8-1.8,100.8-1.8"/>
					<path fill="none" stroke="#FFFFFF" stroke-width="0.25" stroke-miterlimit="10" d="M996.5,309.8c0,0-54,18.9-101.4,1
						c-47.4-17.8-56.8-10.7-82.8-1.1c-26,9.6-29.3,4.3-56.1-0.3c-26.7-4.5-29,9.5-49.8,11.7c-20.8,2.1-32,5-88.2-19.5
						c-56.2-24.5-58,8.1-122.4,19.5c-64.4,11.5-82-45.1-156.6-19.5c-74.6,25.5-84.9,18-106.8,6.3c-21.9-11.7-20.3-8.1-60.9,5.1
						c-40.6,13.2-58.2,7.7-117-11.9c-58.8-19.6-112.8,13.6-112.8,13.6"/>
					<path fill="none" stroke="#FFFFFF" stroke-width="0.25" stroke-miterlimit="10" d="M995.7,310.5c0,0-54,16.1-102,0.3
						c-48-15.9-57.9-8.8-84.6-0.4c-26.7,8.4-29.8,3.2-56.3-0.5c-26.5-3.7-29.1,10-52.8,10.7c-23.7,0.7-35.1,6.3-91.8-17.5
						c-56.7-23.8-58.5,5.3-122.4,17.5c-63.9,12.2-81.3-41.6-153-17.5c-71.7,24.1-81.7,16.2-103.8,5.3c-22.1-10.9-20.8-7.1-60.7,4.9
						c-39.9,12-57,6.4-115.2-11.2c-58.2-17.7-112.2,12.9-112.2,12.9"/>
					<path fill="none" stroke="#FFFFFF" stroke-width="0.25" stroke-miterlimit="10" d="M994.9,311.3c0,0-54,13.4-102.6-0.5
						c-48.6-13.9-58.9-6.9-86.4,0.3c-27.5,7.2-30.3,2.1-56.6-0.8c-26.2-2.8-29.3,10.5-55.8,9.8c-26.5-0.8-38.3,7.7-95.4-15.4
						c-57.1-23.1-58.9,2.6-122.4,15.4c-63.5,12.9-80.5-38.1-149.4-15.4c-68.9,22.6-78.4,14.4-100.8,4.4c-22.4-10-21.3-6.2-60.4,4.6
						c-39.1,10.8-55.8,5.1-113.4-10.5c-57.6-15.7-111.6,12.1-111.6,12.1"/>
					<path fill="none" stroke="#FFFFFF" stroke-width="0.25" stroke-miterlimit="10" d="M994.1,312c0,0-54,10.6-103.2-1.3
						c-49.2-11.9-59.9-5.1-88.2,0.9c-28.3,6-30.9,0.9-56.8-1c-26-2-29.5,11.1-58.8,8.8c-29.3-2.2-41.5,9.1-99-13.4
						c-57.5-22.5-59.3-0.2-122.4,13.4c-63.1,13.5-79.7-34.5-145.8-13.4c-66.1,21.2-75.2,12.6-97.8,3.4c-22.6-9.2-21.9-5.2-60.2,4.4
						c-38.3,9.6-54.6,3.9-111.6-9.9s-111,11.3-111,11.3"/>
					<path fill="none" stroke="#FFFFFF" stroke-width="0.25" stroke-miterlimit="10" d="M993.3,312.7c0,0-54,7.9-103.8-2.1
						c-49.8-9.9-60.9-3.2-90,1.6c-29.1,4.8-31.4-0.2-57.1-1.3c-25.7-1.1-29.7,11.6-61.8,7.9c-32.1-3.7-44.7,10.5-102.6-11.3
						c-57.9-21.8-59.7-2.9-122.4,11.3c-62.7,14.2-78.9-31-142.2-11.3c-63.3,19.7-71.9,10.8-94.8,2.5c-22.9-8.3-22.4-4.3-59.9,4.1
						c-37.5,8.4-53.4,2.6-109.8-9.2c-56.4-11.7-110.4,10.5-110.4,10.5"/>
					<path fill="none" stroke="#FFFFFF" stroke-width="0.25" stroke-miterlimit="10" d="M992.5,313.4c0,0-54,5.1-104.4-2.8
						c-50.4-8-62-1.3-91.8,2.3c-29.8,3.6-31.9-1.3-57.3-1.5c-25.5-0.3-29.8,12.1-64.8,6.9c-35-5.1-47.8,11.8-106.2-9.3
						c-58.4-21.1-60.2-5.7-122.4,9.3c-62.2,14.9-78.2-27.5-138.6-9.3c-60.4,18.3-68.7,9-91.8,1.5c-23.1-7.5-22.9-3.3-59.7,3.9
						c-36.8,7.2-52.2,1.3-108-8.5s-109.8,9.8-109.8,9.8"/>
					<path fill="none" stroke="#FFFFFF" stroke-width="0.25" stroke-miterlimit="10" d="M991.7,314.1c0,0-54,2.4-105-3.6
						c-51-6-63,0.6-93.6,3c-30.6,2.4-32.4-2.4-57.6-1.8c-25.2,0.6-30,12.6-67.8,6c-37.8-6.6-51,13.2-109.8-7.2
						c-58.8-20.4-60.6-8.4-122.4,7.2c-61.8,15.6-77.4-24-135-7.2c-57.6,16.8-65.4,7.2-88.8,0.6c-23.4-6.6-23.4-2.4-59.4,3.6
						c-36,6-51,0-106.2-7.8c-55.2-7.8-109.2,9-109.2,9"/>
					<path fill="none" stroke="#FFFFFF" stroke-width="0.25" stroke-miterlimit="10" d="M990.9,314.8c0,0-54-0.3-105.6-4.4
						c-51.6-4-64,2.5-95.4,3.7c-31.4,1.2-32.9-3.5-57.9-2.1c-24.9,1.5-30.2,13.1-70.8,5.1c-40.6-8.1-54.2,14.6-113.4-5.1
						c-59.2-19.7-61-11.1-122.4,5.1c-61.4,16.3-76.6-20.5-131.4-5.1c-54.8,15.3-62.1,5.4-85.8-0.3c-23.7-5.7-23.9-1.5-59.1,3.3
						c-35.2,4.8-49.8-1.3-104.4-7.1c-54.6-5.8-108.6,8.2-108.6,8.2"/>
					<path fill="none" stroke="#FFFFFF" stroke-width="0.25" stroke-miterlimit="10" d="M990.1,315.5c0,0-54-3.1-106.2-5.1
						c-52.2-2.1-65.1,4.4-97.2,4.4c-32.1,0-33.4-4.6-58.1-2.3c-24.7,2.3-30.3,13.6-73.8,4.1c-43.5-9.5-57.3,15.9-117-3.1
						c-59.7-19-61.5-13.9-122.4,3.1c-60.9,17-75.9-17-127.8-3.1c-51.9,13.9-58.9,3.6-82.8-1.3c-23.9-4.9-24.4-0.5-58.9,3.1
						c-34.5,3.6-48.6-2.6-102.6-6.4s-108,7.5-108,7.5"/>
					<path fill="none" stroke="#FFFFFF" stroke-width="0.25" stroke-miterlimit="10" d="M989.3,316.3c0,0-54-5.8-106.8-5.9
						c-52.8-0.1-66.1,6.3-99,5.1c-32.9-1.2-33.9-5.7-58.4-2.6c-24.4,3.2-30.5,14.1-76.8,3.2c-46.3-11-60.5,17.3-120.6-1
						c-60.1-18.3-61.9-16.6-122.4,1c-60.5,17.7-75.1-13.5-124.2-1c-49.1,12.4-55.6,1.8-79.8-2.2c-24.2-4-24.9,0.4-58.6,2.8
						c-33.7,2.4-47.4-3.9-100.8-5.7c-53.4-1.9-107.4,6.7-107.4,6.7"/>
					<path fill="none" stroke="#FFFFFF" stroke-width="0.25" stroke-miterlimit="10" d="M988.5,317c0,0-54-8.6-107.4-6.7
						c-53.4,1.9-67.1,8.1-100.8,5.7c-33.7-2.4-34.5-6.9-58.6-2.8c-24.2,4-30.7,14.7-79.8,2.2c-49.1-12.4-63.7,18.7-124.2,1
						c-60.5-17.7-62.3-19.4-122.4-1c-60.1,18.3-74.3-9.9-120.6,1c-46.3,11-52.4,0-76.8-3.2s-25.5,1.4-58.4,2.6
						c-32.9,1.2-46.2-5.1-99-5.1c-52.8,0.1-106.8,5.9-106.8,5.9"/>
					<path fill="none" stroke="#FFFFFF" stroke-width="0.25" stroke-miterlimit="10" d="M987.7,317.7c0,0-54-11.3-108-7.5
						c-54,3.9-68.1,10-102.6,6.4c-34.5-3.6-35-8-58.9-3.1c-23.9,4.9-30.9,15.2-82.8,1.3c-51.9-13.9-66.9,20.1-127.8,3.1
						c-60.9-17-62.7-22.1-122.4-3.1c-59.7,19-73.5-6.4-117,3.1c-43.5,9.5-49.1-1.8-73.8-4.1s-26,2.3-58.1,2.3
						c-32.1,0-45-6.4-97.2-4.4c-52.2,2.1-106.2,5.1-106.2,5.1"/>
					<path fill="none" stroke="#FFFFFF" stroke-width="0.25" stroke-miterlimit="10" d="M986.9,318.4c0,0-54-14.1-108.6-8.2
						c-54.6,5.8-69.2,11.9-104.4,7.1c-35.2-4.8-35.5-9.1-59.1-3.3c-23.7,5.7-31,15.7-85.8,0.3c-54.8-15.3-70,21.4-131.4,5.1
						c-61.4-16.3-63.2-24.9-122.4-5.1c-59.2,19.7-72.8-2.9-113.4,5.1c-40.6,8.1-45.9-3.6-70.8-5.1c-24.9-1.5-26.5,3.3-57.9,2.1
						c-31.4-1.2-43.8-7.7-95.4-3.7c-51.6,4-105.6,4.4-105.6,4.4"/>
					<path fill="none" stroke="#FFFFFF" stroke-width="0.25" stroke-miterlimit="10" d="M986.1,319.1c0,0-54-16.8-109.2-9
						c-55.2,7.8-70.2,13.8-106.2,7.8c-36-6-36-10.2-59.4-3.6c-23.4,6.6-31.2,16.2-88.8-0.6c-57.6-16.8-73.2,22.8-135,7.2
						c-61.8-15.6-63.6-27.6-122.4-7.2c-58.8,20.4-72,0.6-109.8,7.2c-37.8,6.6-42.6-5.4-67.8-6c-25.2-0.6-27,4.2-57.6,1.8
						c-30.6-2.4-42.6-9-93.6-3c-51,6-105,3.6-105,3.6"/>
					<path fill="none" stroke="#FFFFFF" stroke-width="0.25" stroke-miterlimit="10" d="M985.3,319.8c0,0-54-19.5-109.8-9.8
						c-55.8,9.8-71.2,15.7-108,8.5c-36.8-7.2-36.5-11.3-59.7-3.9c-23.1,7.5-31.4,16.7-91.8-1.5c-60.4-18.3-76.4,24.2-138.6,9.3
						c-62.2-14.9-64-30.3-122.4-9.3c-58.4,21.1-71.2,4.1-106.2,9.3c-35,5.1-39.3-7.2-64.8-6.9c-25.5,0.3-27.5,5.1-57.3,1.5
						c-29.8-3.6-41.4-10.3-91.8-2.3c-50.4,8-104.4,2.8-104.4,2.8"/>
					<path fill="none" stroke="#FFFFFF" stroke-width="0.25" stroke-miterlimit="10" d="M984.5,320.5c0,0-54-22.3-110.4-10.5
						c-56.4,11.7-72.3,17.6-109.8,9.2c-37.5-8.4-37-12.4-59.9-4.1c-22.9,8.3-31.5,17.2-94.8-2.5c-63.3-19.7-79.5,25.5-142.2,11.3
						c-62.7-14.2-64.5-33.1-122.4-11.3c-57.9,21.8-70.5,7.6-102.6,11.3c-32.1,3.7-36.1-9-61.8-7.9c-25.7,1.1-28,6.1-57.1,1.3
						c-29.1-4.8-40.2-11.6-90-1.6c-49.8,9.9-103.8,2.1-103.8,2.1"/>
					<path fill="none" stroke="#FFFFFF" stroke-width="0.25" stroke-miterlimit="10" d="M983.7,321.3c0,0-54-25-111-11.3
						s-73.3,19.5-111.6,9.9c-38.3-9.6-37.5-13.5-60.2-4.4c-22.6,9.2-31.7,17.7-97.8-3.4c-66.1-21.2-82.7,26.9-145.8,13.4
						c-63.1-13.5-64.9-35.8-122.4-13.4c-57.5,22.5-69.7,11.1-99,13.4c-29.3,2.2-32.8-10.8-58.8-8.8c-26,2-28.5,7-56.8,1
						c-28.3-6-39-12.9-88.2-0.9c-49.2,11.9-103.2,1.3-103.2,1.3"/>
					<path fill="none" stroke="#FFFFFF" stroke-width="0.25" stroke-miterlimit="10" d="M982.9,322c0,0-54-27.8-111.6-12.1
						c-57.6,15.7-74.3,21.3-113.4,10.5c-39.1-10.8-38.1-14.7-60.4-4.6c-22.4,10-31.9,18.3-100.8-4.4
						c-68.9-22.6-85.9,28.3-149.4,15.4c-63.5-12.9-65.3-38.6-122.4-15.4c-57.1,23.1-68.9,14.7-95.4,15.4
						c-26.5,0.8-29.6-12.6-55.8-9.8c-26.2,2.8-29.1,8-56.6,0.8c-27.5-7.2-37.8-14.1-86.4-0.3c-48.6,13.9-102.6,0.5-102.6,0.5"/>
					<path fill="none" stroke="#FFFFFF" stroke-width="0.25" stroke-miterlimit="10" d="M982.1,322.7c0,0-54-30.5-112.2-12.9
						c-58.2,17.7-75.3,23.2-115.2,11.2c-39.9-12-38.6-15.8-60.7-4.9c-22.1,10.9-32.1,18.8-103.8-5.3c-71.7-24.1-89.1,29.7-153,17.5
						c-63.9-12.2-65.7-41.3-122.4-17.5c-56.7,23.8-68.1,18.2-91.8,17.5c-23.7-0.7-26.3-14.4-52.8-10.7c-26.5,3.7-29.6,8.9-56.3,0.5
						c-26.7-8.4-36.6-15.4-84.6,0.4c-48,15.9-102-0.3-102-0.3"/>
					<path fill="none" stroke="#FFFFFF" stroke-width="0.25" stroke-miterlimit="10" d="M981.3,323.4c0,0-54-33.3-112.8-13.6
						c-58.8,19.6-76.4,25.1-117,11.9c-40.6-13.2-39.1-16.9-60.9-5.1c-21.9,11.7-32.2,19.3-106.8-6.3c-74.6-25.5-92.2,31-156.6,19.5
						c-64.4-11.5-66.2-44.1-122.4-19.5c-56.2,24.5-67.4,21.7-88.2,19.5c-20.8-2.1-23.1-16.2-49.8-11.7c-26.7,4.5-30.1,9.9-56.1,0.3
						c-26-9.6-35.4-16.7-82.8,1.1c-47.4,17.8-101.4-1-101.4-1"/>
					<path fill="none" stroke="#FFFFFF" stroke-width="0.25" stroke-miterlimit="10" d="M980.5,324.1c0,0-54-36-113.4-14.4
						c-59.4,21.6-77.4,27-118.8,12.6c-41.4-14.4-39.6-18-61.2-5.4c-21.6,12.6-32.4,19.8-109.8-7.2c-77.4-27-95.4,32.4-160.2,21.6
						c-64.8-10.8-66.6-46.8-122.4-21.6c-55.8,25.2-66.6,25.2-84.6,21.6c-18-3.6-19.8-18-46.8-12.6c-27,5.4-30.6,10.8-55.8,0
						c-25.2-10.8-34.2-18-81,1.8c-46.8,19.8-100.8-1.8-100.8-1.8"/>
				</g>
				<g>
					<path fill="none" stroke="#FFFFFF" stroke-width="0.25" stroke-miterlimit="10" d="M-191.9,324.9c0,0,67.2-141.3,141.2-56.5
						c74,84.8,96.4,105.9,147.9,49.4c51.5-56.5,49.3-70.6,76.2-21.2s40.3,77.7,136.7-28.3s118.8,127.1,199.5,84.8
						c80.7-42.4,82.9-183.6,152.4-84.8c69.5,98.9,82.9,98.9,105.3,84.8s24.7-70.6,58.3-49.4c33.6,21.2,38.1,42.4,69.5,0
						c31.4-42.4,42.6-70.6,100.9,7.1c58.3,77.7,125.5-7.1,125.5-7.1"/>
					<path fill="none" stroke="#FFFFFF" stroke-width="0.25" stroke-miterlimit="10" d="M1120.4,306.5c0,0-67.2,74-126.3,4
						c-59-70-70.8-42-103.1-4.4c-32.3,37.7-36.5,16.8-69.8-1c-33.3-17.8-36.1,37.3-62,45.7c-25.9,8.4-39.8,19.5-109.8-76.7
						c-70-96.2-72.3,31.6-152.4,76.7c-80.1,45.1-102.1-176.9-195-76.7s-105.8,70.6-133,24.6s-25.3-31.6-75.9,20.2
						c-50.6,51.8-72.5,30.3-145.7-46.8c-73.2-77-140.4,53.5-140.4,53.5"/>
					<path fill="none" stroke="#FFFFFF" stroke-width="0.25" stroke-miterlimit="10" d="M1119.4,309.4c0,0-67.2,63.2-127,1
						c-59.8-62.2-72-34.6-105.3-1.7c-33.3,33-37.1,12.4-70.1-2c-33-14.5-36.3,39.4-65.7,42s-43.8,24.9-114.3-68.6
						c-70.5-93.5-72.8,20.9-152.4,68.6c-79.6,47.8-101.2-163.1-190.5-68.6s-101.7,63.6-129.2,20.9s-25.9-27.9-75.6,19.2
						c-49.6,47.1-71,25.2-143.4-44.1c-72.5-69.3-139.7,50.4-139.7,50.4"/>
					<path fill="none" stroke="#FFFFFF" stroke-width="0.25" stroke-miterlimit="10" d="M1118.5,312.2c0,0-67.2,52.5-127.7-2
						c-60.5-54.5-73.3-27.2-107.6,1c-34.3,28.3-37.8,8.1-70.4-3c-32.7-11.1-36.5,41.4-69.5,38.3c-33-3-47.7,30.3-118.8-60.5
						c-71.1-90.8-73.3,10.1-152.4,60.5c-79.1,50.4-100.2-149.3-186-60.5s-97.7,56.5-125.5,17.2s-26.6-24.2-75.2,18.2
						c-48.7,42.4-69.5,20.2-141.2-41.4c-71.7-61.5-139,47.4-139,47.4"/>
					<path fill="none" stroke="#FFFFFF" stroke-width="0.25" stroke-miterlimit="10" d="M1117.5,315c0,0-67.2,41.7-128.5-5
						c-61.3-46.8-74.6-19.8-109.8,3.7c-35.2,23.5-38.4,3.7-70.8-4c-32.3-7.7-36.7,43.4-73.2,34.6s-51.7,35.7-123.3-52.5
						c-71.6-88.1-73.9-0.7-152.4,52.5C381,397.4,360.2,208.7,278,291.8s-93.6,49.4-121.8,13.5s-27.2-20.5-74.9,17.2
						c-47.7,37.7-68,15.1-139-38.7c-71-53.8-138.2,44.4-138.2,44.4"/>
					<path fill="none" stroke="#FFFFFF" stroke-width="0.25" stroke-miterlimit="10" d="M1116.5,317.8c0,0-67.2,30.9-129.2-8.1
						c-62-39-75.9-12.4-112.1,6.4c-36.2,18.8-39.1-0.7-71.1-5c-32-4.4-36.9,45.4-76.9,30.9c-40-14.5-55.6,41-127.7-44.4
						C527.2,212.2,525,286.1,447,342c-78,55.8-98.3-121.8-177.1-44.4s-89.5,42.4-118,9.8s-27.9-16.8-74.6,16.1
						c-46.7,33-66.5,10.1-136.7-36s-137.5,41.4-137.5,41.4"/>
					<path fill="none" stroke="#FFFFFF" stroke-width="0.25" stroke-miterlimit="10" d="M1115.5,320.6c0,0-67.2,20.2-130-11.1
						c-62.8-31.3-77.2-5-114.3,9.1c-37.1,14.1-39.7-5-71.4-6.1c-31.7-1-37.1,47.4-80.7,27.2c-43.5-20.2-59.6,46.4-132.2-36.3
						c-72.7-82.7-74.9-22.2-152.4,36.3c-77.5,58.5-97.3-108-172.6-36.3s-85.5,35.3-114.3,6.1s-28.5-13.1-74.3,15.1
						c-45.8,28.3-65,5-134.5-33.3c-69.5-38.3-136.7,38.3-136.7,38.3"/>
					<path fill="none" stroke="#FFFFFF" stroke-width="0.25" stroke-miterlimit="10" d="M1114.5,323.4c0,0-67.2,9.4-130.7-14.1
						c-63.5-23.5-78.4,2.4-116.5,11.8c-38.1,9.4-40.3-9.4-71.7-7.1c-31.4,2.4-37.4,49.4-84.4,23.5c-47.1-25.9-63.5,51.8-136.7-28.3
						c-73.2-80-75.5-33-152.4,28.3c-76.9,61.2-96.4-94.2-168.1-28.3s-81.4,28.3-110.6,2.4s-29.1-9.4-74,14.1
						c-44.8,23.5-63.5,0-132.2-30.6s-136,35.3-136,35.3"/>
					<path fill="none" stroke="#FFFFFF" stroke-width="0.25" stroke-miterlimit="10" d="M1113.5,326.2c0,0-67.2-1.3-131.5-17.2
						c-64.2-15.8-79.7,9.8-118.8,14.5c-39.1,4.7-41-13.8-72-8.1c-31.1,5.7-37.6,51.5-88.2,19.8s-67.4,57.2-141.2-20.2
						c-73.7-77.4-76-43.7-152.4,20.2c-76.4,63.9-95.4-80.4-163.6-20.2s-77.4,21.2-106.8-1.3s-29.8-5.7-73.6,13.1
						c-43.9,18.8-62-5-130-27.9c-68-22.9-135.2,32.3-135.2,32.3"/>
					<path fill="none" stroke="#FFFFFF" stroke-width="0.25" stroke-miterlimit="10" d="M1112.5,329c0,0-67.2-12.1-132.2-20.2
						c-65-8.1-81,17.2-121,17.2c-40,0-41.6-18.2-72.4-9.1c-30.7,9.1-37.8,53.5-91.9,16.1c-54.1-37.3-71.4,62.6-145.7-12.1
						c-74.3-74.7-76.5-54.5-152.4,12.1c-75.9,66.6-94.5-66.6-159.1-12.1s-73.3,14.1-103.1-5s-30.4-2-73.3,12.1
						c-42.9,14.1-60.5-10.1-127.7-25.2S-200.9,332-200.9,332"/>
					<path fill="none" stroke="#FFFFFF" stroke-width="0.25" stroke-miterlimit="10" d="M1111.5,331.8c0,0-67.2-22.9-133-23.2
						c-65.7-0.3-82.3,24.6-123.3,19.8c-41-4.7-42.3-22.5-72.7-10.1c-30.4,12.4-38,55.5-95.6,12.4c-57.6-43.1-75.3,67.9-150.2-4
						c-74.8-72-77.1-65.2-152.4,4c-75.3,69.3-93.5-52.8-154.6-4s-69.3,7.1-99.4-8.7c-30.1-15.8-31.1,1.7-73,11.1
						c-41.9,9.4-59-15.1-125.5-22.5s-133.7,26.2-133.7,26.2"/>
					<path fill="none" stroke="#FFFFFF" stroke-width="0.25" stroke-miterlimit="10" d="M1110.5,334.6c0,0-67.2-33.6-133.7-26.2
						c-66.5,7.4-83.6,32-125.5,22.5c-41.9-9.4-42.9-26.9-73-11.1c-30.1,15.8-38.2,57.5-99.4,8.7c-61.2-48.8-79.3,73.3-154.6,4
						c-75.3-69.3-77.6-76-152.4-4c-74.8,72-92.5-39-150.2,4s-65.2,0-95.6-12.4c-30.4-12.4-31.7,5.4-72.7,10.1
						c-41,4.7-57.5-20.2-123.3-19.8c-65.7,0.3-133,23.2-133,23.2"/>
					<path fill="none" stroke="#FFFFFF" stroke-width="0.25" stroke-miterlimit="10" d="M1109.5,337.4c0,0-67.2-44.4-134.5-29.3
						c-67.2,15.1-84.8,39.4-127.7,25.2c-42.9-14.1-43.5-31.3-73.3-12.1c-29.8,19.2-38.4,59.5-103.1,5
						c-64.7-54.5-83.2,78.7-159.1,12.1c-75.9-66.6-78.1-86.8-152.4-12.1c-74.3,74.7-91.6-25.2-145.7,12.1s-61.2-7.1-91.9-16.1
						c-30.7-9.1-32.3,9.1-72.4,9.1c-40,0-56-25.2-121-17.2s-132.2,20.2-132.2,20.2"/>
					<path fill="none" stroke="#FFFFFF" stroke-width="0.25" stroke-miterlimit="10" d="M1108.5,340.2c0,0-67.2-55.2-135.2-32.3
						c-68,22.9-86.1,46.8-130,27.9c-43.9-18.8-44.2-35.7-73.6-13.1c-29.5,22.5-38.6,61.5-106.8,1.3c-68.2-60.2-87.2,84.1-163.6,20.2
						c-76.4-63.9-78.7-97.5-152.4-20.2c-73.7,77.4-90.6-11.4-141.2,20.2s-57.1-14.1-88.2-19.8c-31.1-5.7-33,12.8-72,8.1
						C6.4,327.7-9.1,302.2-73.4,318s-131.5,17.2-131.5,17.2"/>
					<path fill="none" stroke="#FFFFFF" stroke-width="0.25" stroke-miterlimit="10" d="M1107.5,343c0,0-67.2-65.9-136-35.3
						c-68.7,30.6-87.4,54.1-132.2,30.6c-44.8-23.5-44.8-40-74-14.1c-29.1,25.9-38.8,63.6-110.6-2.4c-71.7-65.9-91.1,89.5-168.1,28.3
						c-76.9-61.2-79.2-108.3-152.4-28.3c-73.2,80-89.6,2.4-136.7,28.3s-53-21.2-84.4-23.5c-31.4-2.4-33.6,16.5-71.7,7.1
						c-38.1-9.4-53-35.3-116.5-11.8c-63.5,23.5-130.7,14.1-130.7,14.1"/>
					<path fill="none" stroke="#FFFFFF" stroke-width="0.25" stroke-miterlimit="10" d="M1106.5,345.8c0,0-67.2-76.7-136.7-38.3
						c-69.5,38.3-88.7,61.5-134.5,33.3c-45.8-28.3-45.5-44.4-74.3-15.1c-28.8,29.3-39.1,65.6-114.3-6.1
						c-75.2-71.6-95.1,94.8-172.6,36.3c-77.5-58.5-79.7-119.1-152.4-36.3c-72.7,82.7-88.7,16.1-132.2,36.3
						c-43.5,20.2-49-28.3-80.7-27.2s-34.3,20.2-71.4,6.1c-37.1-14.1-51.5-40.4-114.3-9.1c-62.8,31.3-130,11.1-130,11.1"/>
					<path fill="none" stroke="#FFFFFF" stroke-width="0.25" stroke-miterlimit="10" d="M1105.5,348.6c0,0-67.2-87.4-137.5-41.4
						c-70.2,46.1-90,68.9-136.7,36c-46.7-33-46.1-48.8-74.6-16.1c-28.5,32.6-39.3,67.6-118-9.8s-99,100.2-177.1,44.4
						c-78-55.8-80.3-129.8-152.4-44.4c-72.1,85.4-87.7,29.9-127.7,44.4s-44.9-35.3-76.9-30.9s-34.9,23.9-71.1,5
						c-36.2-18.8-50.1-45.4-112.1-6.4c-62,39-129.2,8.1-129.2,8.1"/>
					<path fill="none" stroke="#FFFFFF" stroke-width="0.25" stroke-miterlimit="10" d="M1104.5,351.4c0,0-67.2-98.2-138.2-44.4
						c-71,53.8-91.2,76.3-139,38.7c-47.7-37.7-46.7-53.1-74.9-17.2c-28.2,36-39.5,69.6-121.8-13.5s-103,105.6-181.5,52.5
						c-78.5-53.1-80.8-140.6-152.4-52.5c-71.6,88.1-86.8,43.7-123.3,52.5c-36.5,8.7-40.9-42.4-73.2-34.6s-35.5,27.6-70.8,4
						c-35.2-23.5-48.6-50.4-109.8-3.7c-61.3,46.8-128.5,5-128.5,5"/>
					<path fill="none" stroke="#FFFFFF" stroke-width="0.25" stroke-miterlimit="10" d="M1103.5,354.2c0,0-67.2-109-139-47.4
						c-71.7,61.5-92.5,83.7-141.2,41.4c-48.7-42.4-47.4-57.5-75.2-18.2c-27.9,39.4-39.7,71.6-125.5-17.2
						c-85.8-88.8-106.9,111-186,60.5c-79.1-50.4-81.3-151.3-152.4-60.5c-71.1,90.8-85.8,57.5-118.8,60.5s-36.8-49.4-69.5-38.3
						s-36.2,31.3-70.4,3c-34.3-28.3-47.1-55.5-107.6-1c-60.5,54.5-127.7,2-127.7,2"/>
					<path fill="none" stroke="#FFFFFF" stroke-width="0.25" stroke-miterlimit="10" d="M1102.5,357c0,0-67.2-119.7-139.7-50.4
						c-72.5,69.3-93.8,91.1-143.4,44.1c-49.6-47.1-48-61.9-75.6-19.2c-27.5,42.7-39.9,73.7-129.2-20.9
						c-89.3-94.5-110.9,116.4-190.5,68.6c-79.6-47.8-81.9-162.1-152.4-68.6c-70.5,93.5-84.8,71.3-114.3,68.6s-32.8-56.5-65.7-42
						s-36.8,35-70.1,2c-33.3-33-45.6-60.5-105.3,1.7c-59.8,62.2-127-1-127-1"/>
					<path fill="none" stroke="#FFFFFF" stroke-width="0.25" stroke-miterlimit="10" d="M1101.5,359.8c0,0-67.2-130.5-140.4-53.5
						c-73.2,77-95.1,98.5-145.7,46.8c-50.6-51.8-48.7-66.3-75.9-20.2c-27.2,46.1-40.1,75.7-133-24.6
						c-92.8-100.2-114.8,121.8-195,76.7c-80.1-45.1-82.4-172.9-152.4-76.7c-70,96.2-83.9,85.1-109.8,76.7
						c-25.9-8.4-28.7-63.6-62-45.7s-37.5,38.7-69.8,1c-32.3-37.7-44.1-65.6-103.1,4.4c-59,70-126.3-4-126.3-4"/>
					<path fill="none" stroke="#FFFFFF" stroke-width="0.25" stroke-miterlimit="10" d="M1100.5,362.6c0,0-67.2-141.3-141.2-56.5
						c-74,84.8-96.4,105.9-147.9,49.4c-51.5-56.5-49.3-70.6-76.2-21.2c-26.9,49.4-40.3,77.7-136.7-28.3
						C502.1,200.2,479.7,433.2,399,390.9c-80.7-42.4-82.9-183.6-152.4-84.8c-69.5,98.9-82.9,98.9-105.3,84.8
						c-22.4-14.1-24.7-70.6-58.3-49.4s-38.1,42.4-69.5,0C-17.8,299-29,270.8-87.3,348.5c-58.3,77.7-125.5-7.1-125.5-7.1"/>
				</g>
				<g>
					<path fill="none" stroke="#FFFFFF" stroke-width="0.25" stroke-miterlimit="10" d="M-191.9,324.9c0,0,67.2-141.3,141.2-56.5
						c74,84.8,96.4,105.9,147.9,49.4c51.5-56.5,49.3-70.6,76.2-21.2s40.3,77.7,136.7-28.3s118.8,127.1,199.5,84.8
						c80.7-42.4,82.9-183.6,152.4-84.8c69.5,98.9,82.9,98.9,105.3,84.8s24.7-70.6,58.3-49.4c33.6,21.2,38.1,42.4,69.5,0
						c31.4-42.4,42.6-70.6,100.9,7.1c58.3,77.7,125.5-7.1,125.5-7.1"/>
					<path fill="none" stroke="#FFFFFF" stroke-width="0.25" stroke-miterlimit="10" d="M1120.4,306.5c0,0-67.2,74-126.3,4
						c-59-70-70.8-42-103.1-4.4c-32.3,37.7-36.5,16.8-69.8-1c-33.3-17.8-36.1,37.3-62,45.7c-25.9,8.4-39.8,19.5-109.8-76.7
						c-70-96.2-72.3,31.6-152.4,76.7c-80.1,45.1-102.1-176.9-195-76.7s-105.8,70.6-133,24.6s-25.3-31.6-75.9,20.2
						c-50.6,51.8-72.5,30.3-145.7-46.8c-73.2-77-140.4,53.5-140.4,53.5"/>
					<path fill="none" stroke="#FFFFFF" stroke-width="0.25" stroke-miterlimit="10" d="M1119.4,309.4c0,0-67.2,63.2-127,1
						c-59.8-62.2-72-34.6-105.3-1.7c-33.3,33-37.1,12.4-70.1-2c-33-14.5-36.3,39.4-65.7,42s-43.8,24.9-114.3-68.6
						c-70.5-93.5-72.8,20.9-152.4,68.6c-79.6,47.8-101.2-163.1-190.5-68.6s-101.7,63.6-129.2,20.9s-25.9-27.9-75.6,19.2
						c-49.6,47.1-71,25.2-143.4-44.1c-72.5-69.3-139.7,50.4-139.7,50.4"/>
					<path fill="none" stroke="#FFFFFF" stroke-width="0.25" stroke-miterlimit="10" d="M1118.5,312.2c0,0-67.2,52.5-127.7-2
						c-60.5-54.5-73.3-27.2-107.6,1c-34.3,28.3-37.8,8.1-70.4-3c-32.7-11.1-36.5,41.4-69.5,38.3c-33-3-47.7,30.3-118.8-60.5
						c-71.1-90.8-73.3,10.1-152.4,60.5c-79.1,50.4-100.2-149.3-186-60.5s-97.7,56.5-125.5,17.2s-26.6-24.2-75.2,18.2
						c-48.7,42.4-69.5,20.2-141.2-41.4c-71.7-61.5-139,47.4-139,47.4"/>
					<path fill="none" stroke="#FFFFFF" stroke-width="0.25" stroke-miterlimit="10" d="M1117.5,315c0,0-67.2,41.7-128.5-5
						c-61.3-46.8-74.6-19.8-109.8,3.7c-35.2,23.5-38.4,3.7-70.8-4c-32.3-7.7-36.7,43.4-73.2,34.6s-51.7,35.7-123.3-52.5
						c-71.6-88.1-73.9-0.7-152.4,52.5C381,397.4,360.2,208.7,278,291.8s-93.6,49.4-121.8,13.5s-27.2-20.5-74.9,17.2
						c-47.7,37.7-68,15.1-139-38.7c-71-53.8-138.2,44.4-138.2,44.4"/>
					<path fill="none" stroke="#FFFFFF" stroke-width="0.25" stroke-miterlimit="10" d="M1116.5,317.8c0,0-67.2,30.9-129.2-8.1
						c-62-39-75.9-12.4-112.1,6.4c-36.2,18.8-39.1-0.7-71.1-5c-32-4.4-36.9,45.4-76.9,30.9c-40-14.5-55.6,41-127.7-44.4
						C527.2,212.2,525,286.1,447,342c-78,55.8-98.3-121.8-177.1-44.4s-89.5,42.4-118,9.8s-27.9-16.8-74.6,16.1
						c-46.7,33-66.5,10.1-136.7-36s-137.5,41.4-137.5,41.4"/>
					<path fill="none" stroke="#FFFFFF" stroke-width="0.25" stroke-miterlimit="10" d="M1115.5,320.6c0,0-67.2,20.2-130-11.1
						c-62.8-31.3-77.2-5-114.3,9.1c-37.1,14.1-39.7-5-71.4-6.1c-31.7-1-37.1,47.4-80.7,27.2c-43.5-20.2-59.6,46.4-132.2-36.3
						c-72.7-82.7-74.9-22.2-152.4,36.3c-77.5,58.5-97.3-108-172.6-36.3s-85.5,35.3-114.3,6.1s-28.5-13.1-74.3,15.1
						c-45.8,28.3-65,5-134.5-33.3c-69.5-38.3-136.7,38.3-136.7,38.3"/>
					<path fill="none" stroke="#FFFFFF" stroke-width="0.25" stroke-miterlimit="10" d="M1114.5,323.4c0,0-67.2,9.4-130.7-14.1
						c-63.5-23.5-78.4,2.4-116.5,11.8c-38.1,9.4-40.3-9.4-71.7-7.1c-31.4,2.4-37.4,49.4-84.4,23.5c-47.1-25.9-63.5,51.8-136.7-28.3
						c-73.2-80-75.5-33-152.4,28.3c-76.9,61.2-96.4-94.2-168.1-28.3s-81.4,28.3-110.6,2.4s-29.1-9.4-74,14.1
						c-44.8,23.5-63.5,0-132.2-30.6s-136,35.3-136,35.3"/>
					<path fill="none" stroke="#FFFFFF" stroke-width="0.25" stroke-miterlimit="10" d="M1113.5,326.2c0,0-67.2-1.3-131.5-17.2
						c-64.2-15.8-79.7,9.8-118.8,14.5c-39.1,4.7-41-13.8-72-8.1c-31.1,5.7-37.6,51.5-88.2,19.8s-67.4,57.2-141.2-20.2
						c-73.7-77.4-76-43.7-152.4,20.2c-76.4,63.9-95.4-80.4-163.6-20.2s-77.4,21.2-106.8-1.3s-29.8-5.7-73.6,13.1
						c-43.9,18.8-62-5-130-27.9c-68-22.9-135.2,32.3-135.2,32.3"/>
					<path fill="none" stroke="#FFFFFF" stroke-width="0.25" stroke-miterlimit="10" d="M1112.5,329c0,0-67.2-12.1-132.2-20.2
						c-65-8.1-81,17.2-121,17.2c-40,0-41.6-18.2-72.4-9.1c-30.7,9.1-37.8,53.5-91.9,16.1c-54.1-37.3-71.4,62.6-145.7-12.1
						c-74.3-74.7-76.5-54.5-152.4,12.1c-75.9,66.6-94.5-66.6-159.1-12.1s-73.3,14.1-103.1-5s-30.4-2-73.3,12.1
						c-42.9,14.1-60.5-10.1-127.7-25.2S-200.9,332-200.9,332"/>
					<path fill="none" stroke="#FFFFFF" stroke-width="0.25" stroke-miterlimit="10" d="M1111.5,331.8c0,0-67.2-22.9-133-23.2
						c-65.7-0.3-82.3,24.6-123.3,19.8c-41-4.7-42.3-22.5-72.7-10.1c-30.4,12.4-38,55.5-95.6,12.4c-57.6-43.1-75.3,67.9-150.2-4
						c-74.8-72-77.1-65.2-152.4,4c-75.3,69.3-93.5-52.8-154.6-4s-69.3,7.1-99.4-8.7c-30.1-15.8-31.1,1.7-73,11.1
						c-41.9,9.4-59-15.1-125.5-22.5s-133.7,26.2-133.7,26.2"/>
					<path fill="none" stroke="#FFFFFF" stroke-width="0.25" stroke-miterlimit="10" d="M1110.5,334.6c0,0-67.2-33.6-133.7-26.2
						c-66.5,7.4-83.6,32-125.5,22.5c-41.9-9.4-42.9-26.9-73-11.1c-30.1,15.8-38.2,57.5-99.4,8.7c-61.2-48.8-79.3,73.3-154.6,4
						c-75.3-69.3-77.6-76-152.4-4c-74.8,72-92.5-39-150.2,4s-65.2,0-95.6-12.4c-30.4-12.4-31.7,5.4-72.7,10.1
						c-41,4.7-57.5-20.2-123.3-19.8c-65.7,0.3-133,23.2-133,23.2"/>
					<path fill="none" stroke="#FFFFFF" stroke-width="0.25" stroke-miterlimit="10" d="M1109.5,337.4c0,0-67.2-44.4-134.5-29.3
						c-67.2,15.1-84.8,39.4-127.7,25.2c-42.9-14.1-43.5-31.3-73.3-12.1c-29.8,19.2-38.4,59.5-103.1,5
						c-64.7-54.5-83.2,78.7-159.1,12.1c-75.9-66.6-78.1-86.8-152.4-12.1c-74.3,74.7-91.6-25.2-145.7,12.1s-61.2-7.1-91.9-16.1
						c-30.7-9.1-32.3,9.1-72.4,9.1c-40,0-56-25.2-121-17.2s-132.2,20.2-132.2,20.2"/>
					<path fill="none" stroke="#FFFFFF" stroke-width="0.25" stroke-miterlimit="10" d="M1108.5,340.2c0,0-67.2-55.2-135.2-32.3
						c-68,22.9-86.1,46.8-130,27.9c-43.9-18.8-44.2-35.7-73.6-13.1c-29.5,22.5-38.6,61.5-106.8,1.3c-68.2-60.2-87.2,84.1-163.6,20.2
						c-76.4-63.9-78.7-97.5-152.4-20.2c-73.7,77.4-90.6-11.4-141.2,20.2s-57.1-14.1-88.2-19.8c-31.1-5.7-33,12.8-72,8.1
						C6.4,327.7-9.1,302.2-73.4,318s-131.5,17.2-131.5,17.2"/>
					<path fill="none" stroke="#FFFFFF" stroke-width="0.25" stroke-miterlimit="10" d="M1107.5,343c0,0-67.2-65.9-136-35.3
						c-68.7,30.6-87.4,54.1-132.2,30.6c-44.8-23.5-44.8-40-74-14.1c-29.1,25.9-38.8,63.6-110.6-2.4c-71.7-65.9-91.1,89.5-168.1,28.3
						c-76.9-61.2-79.2-108.3-152.4-28.3c-73.2,80-89.6,2.4-136.7,28.3s-53-21.2-84.4-23.5c-31.4-2.4-33.6,16.5-71.7,7.1
						c-38.1-9.4-53-35.3-116.5-11.8c-63.5,23.5-130.7,14.1-130.7,14.1"/>
					<path fill="none" stroke="#FFFFFF" stroke-width="0.25" stroke-miterlimit="10" d="M1106.5,345.8c0,0-67.2-76.7-136.7-38.3
						c-69.5,38.3-88.7,61.5-134.5,33.3c-45.8-28.3-45.5-44.4-74.3-15.1c-28.8,29.3-39.1,65.6-114.3-6.1
						c-75.2-71.6-95.1,94.8-172.6,36.3c-77.5-58.5-79.7-119.1-152.4-36.3c-72.7,82.7-88.7,16.1-132.2,36.3
						c-43.5,20.2-49-28.3-80.7-27.2s-34.3,20.2-71.4,6.1c-37.1-14.1-51.5-40.4-114.3-9.1c-62.8,31.3-130,11.1-130,11.1"/>
					<path fill="none" stroke="#FFFFFF" stroke-width="0.25" stroke-miterlimit="10" d="M1105.5,348.6c0,0-67.2-87.4-137.5-41.4
						c-70.2,46.1-90,68.9-136.7,36c-46.7-33-46.1-48.8-74.6-16.1c-28.5,32.6-39.3,67.6-118-9.8s-99,100.2-177.1,44.4
						c-78-55.8-80.3-129.8-152.4-44.4c-72.1,85.4-87.7,29.9-127.7,44.4s-44.9-35.3-76.9-30.9s-34.9,23.9-71.1,5
						c-36.2-18.8-50.1-45.4-112.1-6.4c-62,39-129.2,8.1-129.2,8.1"/>
					<path fill="none" stroke="#FFFFFF" stroke-width="0.25" stroke-miterlimit="10" d="M1104.5,351.4c0,0-67.2-98.2-138.2-44.4
						c-71,53.8-91.2,76.3-139,38.7c-47.7-37.7-46.7-53.1-74.9-17.2c-28.2,36-39.5,69.6-121.8-13.5s-103,105.6-181.5,52.5
						c-78.5-53.1-80.8-140.6-152.4-52.5c-71.6,88.1-86.8,43.7-123.3,52.5c-36.5,8.7-40.9-42.4-73.2-34.6s-35.5,27.6-70.8,4
						c-35.2-23.5-48.6-50.4-109.8-3.7c-61.3,46.8-128.5,5-128.5,5"/>
					<path fill="none" stroke="#FFFFFF" stroke-width="0.25" stroke-miterlimit="10" d="M1103.5,354.2c0,0-67.2-109-139-47.4
						c-71.7,61.5-92.5,83.7-141.2,41.4c-48.7-42.4-47.4-57.5-75.2-18.2c-27.9,39.4-39.7,71.6-125.5-17.2
						c-85.8-88.8-106.9,111-186,60.5c-79.1-50.4-81.3-151.3-152.4-60.5c-71.1,90.8-85.8,57.5-118.8,60.5s-36.8-49.4-69.5-38.3
						s-36.2,31.3-70.4,3c-34.3-28.3-47.1-55.5-107.6-1c-60.5,54.5-127.7,2-127.7,2"/>
					<path fill="none" stroke="#FFFFFF" stroke-width="0.25" stroke-miterlimit="10" d="M1102.5,357c0,0-67.2-119.7-139.7-50.4
						c-72.5,69.3-93.8,91.1-143.4,44.1c-49.6-47.1-48-61.9-75.6-19.2c-27.5,42.7-39.9,73.7-129.2-20.9
						c-89.3-94.5-110.9,116.4-190.5,68.6c-79.6-47.8-81.9-162.1-152.4-68.6c-70.5,93.5-84.8,71.3-114.3,68.6s-32.8-56.5-65.7-42
						s-36.8,35-70.1,2c-33.3-33-45.6-60.5-105.3,1.7c-59.8,62.2-127-1-127-1"/>
					<path fill="none" stroke="#FFFFFF" stroke-width="0.25" stroke-miterlimit="10" d="M1101.5,359.8c0,0-67.2-130.5-140.4-53.5
						c-73.2,77-95.1,98.5-145.7,46.8c-50.6-51.8-48.7-66.3-75.9-20.2c-27.2,46.1-40.1,75.7-133-24.6
						c-92.8-100.2-114.8,121.8-195,76.7c-80.1-45.1-82.4-172.9-152.4-76.7c-70,96.2-83.9,85.1-109.8,76.7
						c-25.9-8.4-28.7-63.6-62-45.7s-37.5,38.7-69.8,1c-32.3-37.7-44.1-65.6-103.1,4.4c-59,70-126.3-4-126.3-4"/>
					<path fill="none" stroke="#FFFFFF" stroke-width="0.25" stroke-miterlimit="10" d="M1100.5,362.6c0,0-67.2-141.3-141.2-56.5
						c-74,84.8-96.4,105.9-147.9,49.4c-51.5-56.5-49.3-70.6-76.2-21.2c-26.9,49.4-40.3,77.7-136.7-28.3
						C502.1,200.2,479.7,433.2,399,390.9c-80.7-42.4-82.9-183.6-152.4-84.8c-69.5,98.9-82.9,98.9-105.3,84.8
						c-22.4-14.1-24.7-70.6-58.3-49.4s-38.1,42.4-69.5,0C-17.8,299-29,270.8-87.3,348.5c-58.3,77.7-125.5-7.1-125.5-7.1"/>
				</g>
			</g>
		</g>
	</g>
</g>
<rect opacity="0.3" fill="#000060" width="900" height="600"/>
</svg>
