<?xml version="1.0" encoding="utf-8"?>
<!-- Generator: Adobe Illustrator 23.0.3, SVG Export Plug-In . SVG Version: 6.00 Build 0)  -->
<svg version="1.1" id="Layer_1" xmlns="http://www.w3.org/2000/svg" xmlns:xlink="http://www.w3.org/1999/xlink" x="0px" y="0px"
	 viewBox="0 0 600 300" style="enable-background:new 0 0 600 300;" xml:space="preserve">
<style type="text/css">
	.st0{fill:#ECEFF1;}
</style>
<g>
	<path class="st0" d="M78.2,225.6c-3.2,0-6.2-0.8-8.9-2.4c-2.7-1.6-4.9-3.9-6.5-6.7s-2.4-5.9-2.4-9.2s0.8-6.4,2.4-9.2
		c1.6-2.8,3.7-5,6.5-6.7c2.7-1.6,5.7-2.4,8.9-2.4c2.5,0,4.9,0.5,7.2,1.6c2.3,1,4.3,2.5,5.9,4.4l-3.4,3c-1.3-1.4-2.7-2.5-4.5-3.3
		c-1.7-0.8-3.5-1.2-5.4-1.2c-2.4,0-4.6,0.6-6.6,1.8s-3.6,2.9-4.8,5c-1.2,2.1-1.8,4.4-1.8,6.9s0.6,4.7,1.8,6.9c1.2,2.1,2.8,3.8,4.8,5
		s4.2,1.8,6.6,1.8c2,0,3.9-0.4,5.8-1.3c1.8-0.9,3.4-2.2,4.6-3.8l3.5,2.9c-1.7,2.2-3.7,3.9-6.2,5.1C83.6,225,81,225.6,78.2,225.6z
		 M121.6,225.6c-1.8,0-3.6-0.4-5.3-1.1c-1.7-0.7-3.1-1.8-4.4-3.1s-2.3-2.8-3-4.5s-1-3.5-1-5.4v-22h4.5v22c0,1.3,0.2,2.5,0.7,3.7
		s1.1,2.2,2,3.1c1.9,1.9,4.1,2.8,6.5,2.8c1.2,0,2.4-0.2,3.5-0.7s2.1-1.2,3-2.1c0.9-0.9,1.5-1.9,2-3.1c0.5-1.2,0.7-2.4,0.7-3.7v-22
		h4.5v22c0,1.9-0.3,3.7-1,5.4s-1.7,3.2-2.9,4.5c-1.3,1.4-2.8,2.4-4.4,3.1C125.3,225.3,123.5,225.6,121.6,225.6z M179.4,225.3h-5.7
		l-13.4-19.2h5.1c1.4,0,2.6-0.1,3.6-0.3s1.7-0.4,2.2-0.6c1.2-0.5,2-1.3,2.7-2.3c0.6-1,0.9-2,0.9-2.9c0-1-0.3-2-0.9-2.9
		c-0.6-0.9-1.5-1.6-2.6-2.2c-1.2-0.6-2.5-0.9-4-0.9H159l0.1,31.2h-4.6v-35.8h12.6c1.7,0,3.3,0.3,4.8,0.8c1.5,0.6,2.8,1.3,3.9,2.4
		c1.1,1,1.9,2.1,2.5,3.4c0.6,1.3,0.9,2.6,0.9,4c0,2.2-0.6,4.1-1.9,5.8c-0.5,0.7-1.2,1.4-2,2s-1.6,1.1-2.4,1.5
		c-1.3,0.5-2.6,0.8-3.7,0.8L179.4,225.3z M197,225.3v-35.8h4.6v31.3h17.9v4.6H197V225.3z M236.5,225.3v-35.8h4.5v35.8H236.5z
		 M265.3,200.9v24.4h-4.5v-36.4l22.9,25.1v-24.6h4.5v36.7L265.3,200.9z M336,225.3h-13c-3.2,0-6.1-0.8-8.8-2.4
		c-2.7-1.6-4.8-3.8-6.4-6.6s-2.4-5.8-2.4-9.1s0.8-6.3,2.4-9.1s3.7-5,6.4-6.6c2.7-1.6,5.6-2.4,8.8-2.4c2.5,0,4.8,0.5,7.1,1.5
		c2.3,1,4.3,2.5,5.9,4.3l-3.4,3.1c-1.2-1.4-2.6-2.5-4.4-3.2c-1.7-0.8-3.5-1.1-5.3-1.1c-2.4,0-4.6,0.6-6.6,1.8s-3.6,2.8-4.8,4.9
		c-1.2,2.1-1.8,4.3-1.8,6.8s0.6,4.7,1.8,6.8c1.2,2.1,2.8,3.7,4.8,4.9s4.2,1.8,6.6,1.8h8.5v-9.8h-9.7v-4.6H336V225.3z M399.4,225.6
		c-3.2,0-6.2-0.8-8.9-2.4c-2.7-1.6-4.9-3.9-6.5-6.7s-2.4-5.9-2.4-9.2s0.8-6.4,2.4-9.2s3.7-5,6.5-6.7c2.7-1.6,5.7-2.4,8.9-2.4
		c2.5,0,4.9,0.5,7.2,1.6c2.3,1,4.3,2.5,5.9,4.4l-3.4,3c-1.3-1.4-2.7-2.5-4.5-3.3c-1.7-0.8-3.5-1.2-5.4-1.2c-2.4,0-4.6,0.6-6.6,1.8
		s-3.6,2.9-4.8,5c-1.2,2.1-1.8,4.4-1.8,6.9s0.6,4.7,1.8,6.9c1.2,2.1,2.8,3.8,4.8,5s4.2,1.8,6.6,1.8c2,0,3.9-0.4,5.8-1.3
		c1.8-0.9,3.4-2.2,4.6-3.8l3.5,2.9c-1.7,2.2-3.7,3.9-6.2,5.1C404.8,225,402.2,225.6,399.4,225.6z M429.8,225.3v-35.8h4.6v31.3h17.9
		v4.6h-22.5V225.3z M481.3,225.6c-1.8,0-3.6-0.4-5.3-1.1c-1.7-0.7-3.1-1.8-4.4-3.1s-2.3-2.8-3-4.5s-1-3.5-1-5.4v-22h4.5v22
		c0,1.3,0.2,2.5,0.7,3.7s1.1,2.2,2,3.1c1.9,1.9,4.1,2.8,6.5,2.8c1.2,0,2.4-0.2,3.5-0.7s2.1-1.2,3-2.1c0.9-0.9,1.5-1.9,2-3.1
		c0.5-1.2,0.7-2.4,0.7-3.7v-22h4.5v22c0,1.9-0.3,3.7-1,5.4s-1.7,3.2-2.9,4.5c-1.3,1.4-2.8,2.4-4.4,3.1
		C484.9,225.3,483.1,225.6,481.3,225.6z M539.5,214.7c0,1.4-0.3,2.7-0.9,4c-0.6,1.3-1.4,2.4-2.5,3.4s-2.4,1.8-3.9,2.4
		c-1.5,0.5-3.1,0.8-4.7,0.8h-13.2v-35.8h10.6c3.3,0,6,1,8.1,2.9c1,0.9,1.7,1.9,2.2,3.1c0.5,1.2,0.8,2.4,0.8,3.7
		c0,1.1-0.2,2.2-0.6,3.2c-0.4,1-0.9,1.9-1.6,2.6l-0.4,0.5c1.6,0.7,3,1.8,4.2,3.3C538.8,210.7,539.5,212.6,539.5,214.7z M518.7,204.1
		h6c1.5,0,2.7-0.2,3.6-0.5c2-1,3-2.5,3-4.3c0-1.3-0.5-2.5-1.6-3.4c-1.2-1.1-2.8-1.7-5-1.7h-6.1L518.7,204.1L518.7,204.1z
		 M531.4,219.8c1.1-0.6,2-1.3,2.6-2.2s0.9-1.9,0.9-2.9s-0.3-1.9-0.9-2.9c-0.6-1-1.5-1.7-2.6-2.2c-1.6-0.7-3.5-1-5.7-1h-7v12.1h8.8
		C528.9,220.7,530.3,220.4,531.4,219.8z"/>
	<g>
		<path class="st0" d="M122.6,117.2c3,0,5.4,2.5,5.4,5.5s-2.4,5.5-5.4,5.5s-5.4-2.5-5.4-5.5C117.1,119.7,119.6,117.2,122.6,117.2
			 M122.6,106.2c-9.1,0-16.5,7.4-16.5,16.5s7.4,16.5,16.5,16.5s16.5-7.4,16.5-16.5S131.7,106.2,122.6,106.2L122.6,106.2z"/>
		<g>
			<path class="st0" d="M57.8,118.9c0.3-0.3,0.6-0.7,0.8-1.1c2-2.9,3-6.1,3-9.6c0-2.5-0.5-4.9-1.6-7.2c-1.1-2.3-2.5-4.3-4.4-6.1
				c-4.1-3.7-9.4-5.6-15.7-5.6H19v67h25.6c3.3,0,6.4-0.5,9.3-1.6c2.9-1.1,5.5-2.6,7.6-4.5s3.7-4.1,4.9-6.6s1.7-5.1,1.7-7.7
				c0-4.1-1.3-7.9-4-11.4C62.5,122.2,60.4,120.4,57.8,118.9z M30.5,100.7h9.4c3.5,0,6.2,0.8,8,2.5c1.5,1.4,2.2,3,2.2,4.9
				c0,1.2-0.4,2.4-1.1,3.4c-0.7,1.1-1.8,2-3.3,2.7c-0.8,0.3-1.6,0.6-2.5,0.7s-2.1,0.2-3.6,0.2h-9.1
				C30.5,115.1,30.5,100.7,30.5,100.7z M53.8,141.7c-2.3,2.1-5.4,3.2-9.2,3.2H30.5v-18.1h11c3.9,0,7.2,0.5,9.7,1.6
				c1.5,0.6,2.8,1.6,3.9,3c1.1,1.4,1.6,2.9,1.6,4.5C56.7,137.9,55.7,139.9,53.8,141.7z"/>
			<polygon class="st0" points="569.6,89.2 569.6,129.5 528.2,88.2 528.2,156.2 539.6,156.2 539.6,116.4 581,157.8 581,89.2 			"/>
			<path class="st0" d="M440.1,156.2h12.6l4.3-9.2h27.1l4.1,9.2h12.5l-29.6-67L440.1,156.2z M462.3,135.6l8.6-18.5l8.2,18.5H462.3z"
				/>
			<path class="st0" d="M157.9,119.5c-1.5-17.1-15.1-30.8-32.1-32.3v-8.4h-6.4v8.4c-17,1.5-30.6,15.2-32.1,32.3H80v6.4h7.2
				c1.5,17.1,15.1,30.8,32.2,32.3v7.3h6.4v-7.3c17.1-1.5,30.6-15.2,32.2-32.3h7.2v-6.4C165.2,119.5,157.9,119.5,157.9,119.5z
				 M122.6,147.3c-13.5,0-24.5-11-24.5-24.6s11-24.6,24.5-24.6s24.5,11,24.5,24.6S136.1,147.3,122.6,147.3z"/>
			<polygon class="st0" points="267.3,156.2 309.7,156.2 309.7,144.8 278.8,144.8 278.8,128.4 302.1,128.4 302.1,116.9 278.8,116.9 
				278.8,100.7 309.7,100.7 309.7,89.2 267.3,89.2 			"/>
			<polygon class="st0" points="185.2,89.2 185.2,100.7 214,100.7 185.1,156.2 232.8,156.2 232.8,144.8 203.9,144.8 232.9,89.2 			
				"/>
			<polygon class="st0" points="343.7,88.2 343.7,156.2 355.1,156.2 355.1,123.8 378.2,155.9 401.2,123.9 401.2,156.2 412.6,156.2 
				412.6,88.2 378.2,136.3 			"/>
		</g>
	</g>
</g>
<g id="Layer_3">
</g>
<g id="Layer_4">
</g>
</svg>
