<?xml version="1.0" encoding="utf-8"?>
<!-- Generator: Adobe Illustrator 23.0.3, SVG Export Plug-In . SVG Version: 6.00 Build 0)  -->
<svg version="1.1" xmlns="http://www.w3.org/2000/svg" xmlns:xlink="http://www.w3.org/1999/xlink" x="0px" y="0px"
	 viewBox="0 0 600 300" style="enable-background:new 0 0 600 300;" xml:space="preserve">
<style type="text/css">
	.st0{display:none;}
	.st1{display:inline;}
	.st2{fill:#ECEFF1;}
</style>
<g id="Layer_1" class="st0">
	<g class="st1">
		<path class="st2" d="M78.2,225.6c-3.2,0-6.2-0.8-8.9-2.4c-2.7-1.6-4.9-3.9-6.5-6.7s-2.4-5.9-2.4-9.2s0.8-6.4,2.4-9.2
			c1.6-2.8,3.7-5,6.5-6.7c2.7-1.6,5.7-2.4,8.9-2.4c2.5,0,4.9,0.5,7.2,1.6c2.3,1,4.3,2.5,5.9,4.4l-3.4,3c-1.3-1.4-2.7-2.5-4.5-3.3
			c-1.7-0.8-3.5-1.2-5.4-1.2c-2.4,0-4.6,0.6-6.6,1.8s-3.6,2.9-4.8,5c-1.2,2.1-1.8,4.4-1.8,6.9s0.6,4.7,1.8,6.9
			c1.2,2.1,2.8,3.8,4.8,5s4.2,1.8,6.6,1.8c2,0,3.9-0.4,5.8-1.3c1.8-0.9,3.4-2.2,4.6-3.8l3.5,2.9c-1.7,2.2-3.7,3.9-6.2,5.1
			C83.6,225,81,225.6,78.2,225.6z M121.6,225.6c-1.8,0-3.6-0.4-5.3-1.1c-1.7-0.7-3.1-1.8-4.4-3.1s-2.3-2.8-3-4.5s-1-3.5-1-5.4v-22
			h4.5v22c0,1.3,0.2,2.5,0.7,3.7s1.1,2.2,2,3.1c1.9,1.9,4.1,2.8,6.5,2.8c1.2,0,2.4-0.2,3.5-0.7s2.1-1.2,3-2.1c0.9-0.9,1.5-1.9,2-3.1
			c0.5-1.2,0.7-2.4,0.7-3.7v-22h4.5v22c0,1.9-0.3,3.7-1,5.4s-1.7,3.2-2.9,4.5c-1.3,1.4-2.8,2.4-4.4,3.1
			C125.3,225.3,123.5,225.6,121.6,225.6z M179.4,225.3h-5.7l-13.4-19.2h5.1c1.4,0,2.6-0.1,3.6-0.3s1.7-0.4,2.2-0.6
			c1.2-0.5,2-1.3,2.7-2.3c0.6-1,0.9-2,0.9-2.9c0-1-0.3-2-0.9-2.9c-0.6-0.9-1.5-1.6-2.6-2.2c-1.2-0.6-2.5-0.9-4-0.9H159l0.1,31.2
			h-4.6v-35.8h12.6c1.7,0,3.3,0.3,4.8,0.8c1.5,0.6,2.8,1.3,3.9,2.4c1.1,1,1.9,2.1,2.5,3.4c0.6,1.3,0.9,2.6,0.9,4
			c0,2.2-0.6,4.1-1.9,5.8c-0.5,0.7-1.2,1.4-2,2s-1.6,1.1-2.4,1.5c-1.3,0.5-2.6,0.8-3.7,0.8L179.4,225.3z M197,225.3v-35.8h4.6v31.3
			h17.9v4.6H197V225.3z M236.5,225.3v-35.8h4.5v35.8H236.5z M265.3,200.9v24.4h-4.5v-36.4l22.9,25.1v-24.6h4.5v36.7L265.3,200.9z
			 M336,225.3h-13c-3.2,0-6.1-0.8-8.8-2.4c-2.7-1.6-4.8-3.8-6.4-6.6s-2.4-5.8-2.4-9.1s0.8-6.3,2.4-9.1s3.7-5,6.4-6.6
			c2.7-1.6,5.6-2.4,8.8-2.4c2.5,0,4.8,0.5,7.1,1.5c2.3,1,4.3,2.5,5.9,4.3l-3.4,3.1c-1.2-1.4-2.6-2.5-4.4-3.2
			c-1.7-0.8-3.5-1.1-5.3-1.1c-2.4,0-4.6,0.6-6.6,1.8s-3.6,2.8-4.8,4.9c-1.2,2.1-1.8,4.3-1.8,6.8s0.6,4.7,1.8,6.8
			c1.2,2.1,2.8,3.7,4.8,4.9s4.2,1.8,6.6,1.8h8.5v-9.8h-9.7v-4.6H336V225.3z M399.4,225.6c-3.2,0-6.2-0.8-8.9-2.4
			c-2.7-1.6-4.9-3.9-6.5-6.7s-2.4-5.9-2.4-9.2s0.8-6.4,2.4-9.2s3.7-5,6.5-6.7c2.7-1.6,5.7-2.4,8.9-2.4c2.5,0,4.9,0.5,7.2,1.6
			c2.3,1,4.3,2.5,5.9,4.4l-3.4,3c-1.3-1.4-2.7-2.5-4.5-3.3c-1.7-0.8-3.5-1.2-5.4-1.2c-2.4,0-4.6,0.6-6.6,1.8s-3.6,2.9-4.8,5
			c-1.2,2.1-1.8,4.4-1.8,6.9s0.6,4.7,1.8,6.9c1.2,2.1,2.8,3.8,4.8,5s4.2,1.8,6.6,1.8c2,0,3.9-0.4,5.8-1.3c1.8-0.9,3.4-2.2,4.6-3.8
			l3.5,2.9c-1.7,2.2-3.7,3.9-6.2,5.1C404.8,225,402.2,225.6,399.4,225.6z M429.8,225.3v-35.8h4.6v31.3h17.9v4.6h-22.5V225.3z
			 M481.3,225.6c-1.8,0-3.6-0.4-5.3-1.1c-1.7-0.7-3.1-1.8-4.4-3.1s-2.3-2.8-3-4.5s-1-3.5-1-5.4v-22h4.5v22c0,1.3,0.2,2.5,0.7,3.7
			s1.1,2.2,2,3.1c1.9,1.9,4.1,2.8,6.5,2.8c1.2,0,2.4-0.2,3.5-0.7s2.1-1.2,3-2.1c0.9-0.9,1.5-1.9,2-3.1c0.5-1.2,0.7-2.4,0.7-3.7v-22
			h4.5v22c0,1.9-0.3,3.7-1,5.4s-1.7,3.2-2.9,4.5c-1.3,1.4-2.8,2.4-4.4,3.1C484.9,225.3,483.1,225.6,481.3,225.6z M539.5,214.7
			c0,1.4-0.3,2.7-0.9,4c-0.6,1.3-1.4,2.4-2.5,3.4s-2.4,1.8-3.9,2.4c-1.5,0.5-3.1,0.8-4.7,0.8h-13.2v-35.8h10.6c3.3,0,6,1,8.1,2.9
			c1,0.9,1.7,1.9,2.2,3.1c0.5,1.2,0.8,2.4,0.8,3.7c0,1.1-0.2,2.2-0.6,3.2c-0.4,1-0.9,1.9-1.6,2.6l-0.4,0.5c1.6,0.7,3,1.8,4.2,3.3
			C538.8,210.7,539.5,212.6,539.5,214.7z M518.7,204.1h6c1.5,0,2.7-0.2,3.6-0.5c2-1,3-2.5,3-4.3c0-1.3-0.5-2.5-1.6-3.4
			c-1.2-1.1-2.8-1.7-5-1.7h-6.1L518.7,204.1L518.7,204.1z M531.4,219.8c1.1-0.6,2-1.3,2.6-2.2s0.9-1.9,0.9-2.9s-0.3-1.9-0.9-2.9
			c-0.6-1-1.5-1.7-2.6-2.2c-1.6-0.7-3.5-1-5.7-1h-7v12.1h8.8C528.9,220.7,530.3,220.4,531.4,219.8z"/>
		<g>
			<path class="st2" d="M122.6,117.2c3,0,5.4,2.5,5.4,5.5s-2.4,5.5-5.4,5.5s-5.4-2.5-5.4-5.5C117.1,119.7,119.6,117.2,122.6,117.2
				 M122.6,106.2c-9.1,0-16.5,7.4-16.5,16.5s7.4,16.5,16.5,16.5s16.5-7.4,16.5-16.5S131.7,106.2,122.6,106.2L122.6,106.2z"/>
			<g>
				<path class="st2" d="M57.8,118.9c0.3-0.3,0.6-0.7,0.8-1.1c2-2.9,3-6.1,3-9.6c0-2.5-0.5-4.9-1.6-7.2c-1.1-2.3-2.5-4.3-4.4-6.1
					c-4.1-3.7-9.4-5.6-15.7-5.6H19v67h25.6c3.3,0,6.4-0.5,9.3-1.6c2.9-1.1,5.5-2.6,7.6-4.5s3.7-4.1,4.9-6.6s1.7-5.1,1.7-7.7
					c0-4.1-1.3-7.9-4-11.4C62.5,122.2,60.4,120.4,57.8,118.9z M30.5,100.7h9.4c3.5,0,6.2,0.8,8,2.5c1.5,1.4,2.2,3,2.2,4.9
					c0,1.2-0.4,2.4-1.1,3.4c-0.7,1.1-1.8,2-3.3,2.7c-0.8,0.3-1.6,0.6-2.5,0.7s-2.1,0.2-3.6,0.2h-9.1
					C30.5,115.1,30.5,100.7,30.5,100.7z M53.8,141.7c-2.3,2.1-5.4,3.2-9.2,3.2H30.5v-18.1h11c3.9,0,7.2,0.5,9.7,1.6
					c1.5,0.6,2.8,1.6,3.9,3c1.1,1.4,1.6,2.9,1.6,4.5C56.7,137.9,55.7,139.9,53.8,141.7z"/>
				<polygon class="st2" points="569.6,89.2 569.6,129.5 528.2,88.2 528.2,156.2 539.6,156.2 539.6,116.4 581,157.8 581,89.2 				
					"/>
				<path class="st2" d="M440.1,156.2h12.6l4.3-9.2h27.1l4.1,9.2h12.5l-29.6-67L440.1,156.2z M462.3,135.6l8.6-18.5l8.2,18.5H462.3z
					"/>
				<path class="st2" d="M157.9,119.5c-1.5-17.1-15.1-30.8-32.1-32.3v-8.4h-6.4v8.4c-17,1.5-30.6,15.2-32.1,32.3H80v6.4h7.2
					c1.5,17.1,15.1,30.8,32.2,32.3v7.3h6.4v-7.3c17.1-1.5,30.6-15.2,32.2-32.3h7.2v-6.4C165.2,119.5,157.9,119.5,157.9,119.5z
					 M122.6,147.3c-13.5,0-24.5-11-24.5-24.6s11-24.6,24.5-24.6s24.5,11,24.5,24.6S136.1,147.3,122.6,147.3z"/>
				<polygon class="st2" points="267.3,156.2 309.7,156.2 309.7,144.8 278.8,144.8 278.8,128.4 302.1,128.4 302.1,116.9 
					278.8,116.9 278.8,100.7 309.7,100.7 309.7,89.2 267.3,89.2 				"/>
				<polygon class="st2" points="185.2,89.2 185.2,100.7 214,100.7 185.1,156.2 232.8,156.2 232.8,144.8 203.9,144.8 232.9,89.2 
									"/>
				<polygon class="st2" points="343.7,88.2 343.7,156.2 355.1,156.2 355.1,123.8 378.2,155.9 401.2,123.9 401.2,156.2 412.6,156.2 
					412.6,88.2 378.2,136.3 				"/>
			</g>
		</g>
	</g>
	<g id="Layer_3" class="st1">
	</g>
	<g id="Layer_4" class="st1">
	</g>
</g>
<g id="Layer_2">
	<g>
		<g id="XMLID_1_">
			<path class="st2" d="M506.5,105c0.8,26.8,33.1,44.3,33.1,44.3s-32.3,17.5-33.1,44.3c-0.5,14.9-0.9,30.2-7.2,42.8l-5.6,2.7
				c-122.5-18.6-182.2,30.2-189.9,37l-4.6,6.6l-4.6-6.5c-3.5-3.1-18.2-15.4-44.9-25.6c-28.5-10.9-76.7-21.7-144.9-11.4l-5.6-2.7
				c-6.3-12.6-6.8-28-7.2-42.8c-0.8-26.8-33.1-44.3-33.1-44.3S91,131.8,91.8,105c0.5-14.8,0.9-30.2,7.2-42.8l5.6-1.9
				C224.8,78.5,284.6,32,294,23.8l5.1-8.3l5.1,8.3c4.3,3.7,18.9,15.3,44.4,25.2c28.4,10.9,76.7,21.7,144.9,11.4l5.6,1.9
				C505.5,74.8,506,90.2,506.5,105z M508.3,149.3c-11.4-8.9-12-27.2-12.6-44c-0.4-11.9-0.8-24.1-4.3-34c-18.5,2.6-35.6,3.8-51.3,3.8
				c-42.6,0-74.6-8.3-96-16.5c-23.9-9.3-38.6-19.9-45-25.2c-6.4,5.3-21.2,15.9-45,25.2c-21.4,8.3-53.4,16.5-96,16.5
				c-15.7,0-32.8-1.1-51.3-3.8c-3.5,9.9-3.9,22.1-4.3,34c-0.5,16.7-1.1,35.1-12.6,44c11.4,8.9,12,27.2,12.6,44
				c0.4,12.2,0.8,24.7,4.5,34.7c3-0.4,6.1-0.8,9.1-1.2c2.1-0.2,4.3-0.5,6.4-0.7c60.8-6.2,104.7,4.3,131.6,14.7
				c23.9,9.3,38.6,19.9,45,25.2c6.4-5.3,21.2-15.9,45-25.2c0.9-0.4,1.9-0.7,2.9-1.1c1.4-0.5,2.9-1.1,4.5-1.6
				c1.5-0.5,3.1-1.1,4.7-1.6c0.2-0.1,0.5-0.2,0.8-0.2c2.9-0.9,6-1.8,9.2-2.7c29.6-8,71.2-13.2,125-5.6c3.8-10,4.2-22.5,4.5-34.7
				C496.3,176.6,496.9,158.2,508.3,149.3z"/>
			<path class="st2" d="M457.9,146.2l1,1.2c-2.9,3.7-6.2,5.5-10,5.5c-2.8,0-5.1-0.9-6.9-2.7c-1.8-1.8-2.7-4.1-2.7-6.9v-22.2h-6.2
				v-1.6c4.6-2.3,8.2-6.3,11-12h1.6v11.1h11.5v2.4h-11.5v21.3c0,2.2,0.5,3.9,1.6,5.1c1,1.2,2.5,1.8,4.4,1.8
				C454,149.4,456,148.4,457.9,146.2z"/>
			<path class="st2" d="M430.4,150.4v1.5h-17.7v-1.5c2.2,0,3.7-0.3,4.5-0.9c0.8-0.6,1.2-1.6,1.2-3.3V129c0-2.3-0.7-4.2-2.1-5.5
				c-1.4-1.4-3.2-2.1-5.3-2.1c-2.5,0-5.1,1.4-7.6,4.3l-1.8-1.1c3.9-4.4,7.8-6.6,12-6.6c3.2,0,5.8,1.1,8,3.3c2.1,2.2,3.2,5,3.2,8.6
				v14.9c0,2.3,0.4,3.8,1.1,4.5C426.7,150,428.2,150.4,430.4,150.4z"/>
			<path class="st2" d="M408.4,186.1c0,0-1.7-1.2-3.8,0.7c-2.1,1.9-4.4,6.4-7.9,5.2c0,0,0.9,3.1-1.8,5c0,0,0.5-1.9-0.7-3.2
				c-1.2-1.4-3.8-2.6-1.9-5.7c0,0-2.9-1.4-4.4-0.5c0,0,1.7,2.7-1.2,5.5c0.1-0.1-0.6-1.2-0.7-1.2c-0.5-0.7-1.2-1.1-1.9-1
				c-0.5,0.1-1,0.4-1.5,0.9c0.7,1.6,1.3,4,0,5.4c-2.2,2.4-6.1,0.4-8.3-1.7l-0.1-0.1c-1.1-0.2-2.4-0.4-3.9-0.8
				c-3.3-0.9-5.1-1.6-6.6-2.3c-2.4,1-5.5,1.3-8.6-0.8c-0.5,0.4-1.1,0.7-1.8,0.6c-1.5-0.1-2.4-0.4-2.4-0.4s0.9,2.1,0,2.7
				c-1,0.5-3.5-1.2-4-1.5c-0.4-0.2-3-1.6-5.1-2.2v-1.4h1.7c1.7-0.6,3.7-1.5,5.3-2.6c3.4-2.3,2.7,1.4,2.6,1.8c0,0,2.7-0.3,4.1,0.8
				c1.9-1.6,5.7-3.4,11-0.2c2.2-0.5,5.1-1.8,8-4.4c2.8-2.6,4.3-2.6,4.3-2.6c3.5,0,6.1,2.3,3.9,6.3c0.5-0.6,3.8-4.3,9.5-2.3
				c7.5,2.5,8.9,0.2,12-1.2C407.3,183.3,408.4,186.1,408.4,186.1z"/>
			<path class="st2" d="M407.2,150.4v1.5h-17.4v-1.5c2.5,0,4.1-0.4,4.7-1.2c0.6-0.8,0.9-2.5,0.9-5.2v-18.7c0-2-0.3-3.3-1-3.9
				c-0.7-0.6-2.2-0.9-4.5-0.9v-1.6l10.3-1h1.6v6.6l1.8,1.1c-0.6,0.7-1.2,1.4-1.8,2.2V144c0,2.7,0.4,4.5,1.1,5.2
				C403.4,150,404.9,150.4,407.2,150.4z"/>
			<path class="st2" d="M386.9,150.4v1.5h-18.1v-1.5c2.7,0,4.4-0.3,5.1-0.9c0.8-0.6,1.1-1.8,1.1-3.7v-20.4c0-2-0.4-3.3-1-4
				c-0.7-0.6-2.4-1-5.2-1v-1.6l11-1h1.6v27.9c0,1.8,0.4,3,1.2,3.7C383.3,150.1,384.8,150.4,386.9,150.4z"/>
			<path class="st2" d="M380.5,106.5c0,2-1.3,3-3.8,3c-2.6,0-3.8-0.7-3.8-2c0-2.6,1.2-5.9,3.6-9.9
				C379.1,102.1,380.5,105.1,380.5,106.5z"/>
			<path class="st2" d="M364.9,146.2h1.6c-0.1,2.1-0.8,3.7-1.9,4.9c-1.1,1.2-2.6,1.8-4.5,1.8c-2.7,0-4.6-1.6-5.6-4.7
				c-1.6,1.8-3.1,3-4.4,3.7c-1.3,0.7-2.8,1-4.5,1c-2.6,0-4.8-0.9-6.7-2.6c-1.9-1.7-2.8-3.8-2.8-6.2c0-2.3,0.8-4.2,2.4-5.7
				c1.6-1.5,4.8-2.9,9.7-4.3c3.1-0.9,5.1-1.6,6.2-2.2v-2.5c0-2.4-0.7-4.3-2-5.8c-1.3-1.5-3.1-2.2-5.4-2.2c-2,0-3.8,0.6-5.4,1.9
				c-1.6,1.3-2.7,3-3.3,5.2l-1.7-0.5c0.7-3.1,2.1-5.5,4.4-7.4c2.2-1.9,4.9-2.8,7.9-2.8c3.6,0,6.4,1.1,8.6,3.2
				c2.2,2.1,3.3,5.1,3.3,8.9v14.2c0,2,0.1,3.4,0.4,4.1c0.3,0.7,0.7,1.1,1.5,1.1c0.5,0,0.9-0.2,1.2-0.6
				C364.2,148.4,364.5,147.5,364.9,146.2z M354.4,145.2V134c-0.9,0.4-2.3,0.9-4.1,1.5c-3.3,1.1-5.4,2.3-6.4,3.4
				c-0.9,1.1-1.4,2.6-1.4,4.5c0,1.6,0.5,3.1,1.5,4.3c1,1.2,2.2,1.8,3.5,1.8c1.2,0,2.6-0.4,3.9-1.2
				C352.9,147.4,353.9,146.4,354.4,145.2z"/>
			<path class="st2" d="M341.9,189.2v1.4c-1.3,0-2.5,0-3.8,0c-3.8,0.1-7.9,0.1-12,0.2c-19.1,0.1-38.8,0.3-41.2,0.3h-30.3
				c-1.7,0.6-3.7,1.5-5.3,2.6c-3.4,2.3-2.7-1.4-2.6-1.8c0,0-2.7,0.3-4.1-0.8c-1.9,1.6-5.7,3.4-11,0.2c-2.2,0.5-5.1,1.8-8,4.4
				c-2.7,2.6-4.3,2.6-4.3,2.6c-3.4,0-6.1-2.3-3.9-6.3c-0.5,0.6-3.8,4.3-9.5,2.4c-7.5-2.5-8.9-0.2-12,1.2c-2.9,1.4-4.1-1.1-4.2-1.4
				c0.1,0.1,1.8,1.1,3.8-0.7c2.1-1.9,4.4-6.4,7.9-5.2c0,0-0.9-3.1,1.8-5c0,0-0.5,1.9,0.7,3.2c1.2,1.4,3.8,2.6,1.9,5.7
				c0,0,2.9,1.4,4.4,0.5c0,0-1.7-2.7,1.2-5.5c-0.1,0.1,0.6,1.2,0.7,1.2c0.5,0.7,1.2,1.1,1.9,1c0.5-0.1,1-0.4,1.5-0.9
				c-0.7-1.6-1.3-4,0-5.4c2.2-2.4,6.1-0.4,8.3,1.7l0.1,0.1c1.1,0.2,2.4,0.5,3.9,0.9c3.3,0.9,5.1,1.6,6.6,2.3c2.4-1,5.5-1.4,8.7,0.8
				c0.5-0.4,1.1-0.7,1.7-0.6c1.5,0.1,2.4,0.4,2.4,0.4s-0.9-2.1,0-2.7c1-0.5,3.5,1.2,4,1.5c0.4,0.2,3,1.6,5.1,2.2c1.3,0,2.5,0,3.8,0
				c3.9-0.1,7.9-0.1,12-0.2c19.1-0.1,38.8-0.3,41.2-0.3H341.9z"/>
			<path class="st2" d="M330.9,218.6v0.8h-2.5v3.4h-1v-3.4h-4.1v-0.3l4.9-6.7h0.3v6.2H330.9z M327.4,218.6v-4.3l-3.2,4.3H327.4z"/>
			<path class="st2" d="M325.7,122.9c2.8,3.3,4.3,7.4,4.3,12.3c0,5.1-1.6,9.4-4.7,12.7c-3.1,3.4-7,5.1-11.8,5.1
				c-3.3,0-6.6-1.3-10-3.9l1-1.4c2.4,2.1,5.1,3.1,8.2,3.1c3,0,5.4-1.4,7.4-4.1c2-2.8,3-6.2,3-10.3c0-4.4-1-8.1-3-11
				c-2-2.9-4.5-4.3-7.6-4.3c-2.7,0-5.4,1.3-7.9,3.8l-1.1-1.3c2.1-2,4-3.5,5.7-4.3c1.7-0.8,3.6-1.3,5.8-1.3
				C319.3,118,322.9,119.6,325.7,122.9z"/>
			<path class="st2" d="M320.8,222.5v0.3h-3.2v-0.3c0.4,0,0.7-0.1,0.9-0.2c0.1-0.1,0.2-0.4,0.2-0.9v-6.9c0-0.2-0.1-0.4-0.1-0.4
				c0,0-0.1,0-0.2,0.1c-0.4,0.2-0.8,0.3-1.1,0.3v-0.3c1.3-0.7,2.1-1.2,2.4-1.7h0.3v8.9c0,0.5,0.1,0.8,0.2,0.9
				C320.1,222.4,320.4,222.5,320.8,222.5z"/>
			<path class="st2" d="M314.1,215c0.3,0.8,0.4,1.7,0.4,2.7c0,1-0.1,1.9-0.4,2.7c-0.3,0.8-0.7,1.4-1.3,1.9c-0.5,0.4-1.1,0.7-1.8,0.7
				c-0.6,0-1.2-0.2-1.8-0.7c-0.5-0.4-1-1.1-1.3-1.9c-0.3-0.8-0.4-1.7-0.4-2.7c0-1,0.1-1.9,0.4-2.7c0.3-0.8,0.7-1.4,1.3-1.8
				c0.5-0.5,1.1-0.7,1.8-0.7c0.6,0,1.2,0.2,1.8,0.7C313.4,213.6,313.8,214.2,314.1,215z M313.2,217.7c0-1.5-0.2-2.7-0.5-3.5
				c-0.4-0.8-0.9-1.3-1.6-1.3c-0.7,0-1.2,0.4-1.6,1.3c-0.4,0.9-0.6,2-0.6,3.5c0,1.5,0.2,2.7,0.6,3.5c0.4,0.8,0.9,1.3,1.6,1.3
				c0.7,0,1.2-0.4,1.6-1.2C313,220.4,313.2,219.2,313.2,217.7z"/>
			<path class="st2" d="M309.1,176.3v1.6h-17.7v-1.6c2.3,0,3.8-0.3,4.6-1c0.8-0.6,1.2-1.9,1.2-3.7v-46.1c0-2.2-0.3-3.6-1-4.3
				c-0.7-0.6-2.3-0.9-4.8-0.9v-1.6l10.6-1h1.6v5.6l1.1,1.3c-0.4,0.4-0.7,0.7-1.1,1.2v20.7c0.3,0.3,0.7,0.7,1,1l-1,1.4v21.8
				c0,2.3,0.4,3.7,1.2,4.5C305.5,176,306.9,176.3,309.1,176.3z"/>
			<path class="st2" d="M305.8,222v0.7h-5.8v-0.3c1.6-1.6,2.7-2.9,3.3-3.9c0.7-1,1-1.9,1-2.7c0-0.7-0.2-1.3-0.5-1.7
				c-0.3-0.4-0.8-0.6-1.3-0.6c-0.5,0-0.9,0.2-1.3,0.5c-0.3,0.3-0.5,0.8-0.6,1.3h-0.3c0-0.4,0.1-0.9,0.4-1.3c0.2-0.5,0.6-0.8,1-1.1
				c0.4-0.3,0.8-0.4,1.3-0.4c0.7,0,1.3,0.3,1.8,0.8c0.5,0.5,0.7,1.2,0.7,2c0,0.9-0.4,1.9-1.1,2.9c-0.7,1-1.9,2.3-3.6,3.9H305.8z"/>
			<path class="st2" d="M293.8,221.7c0.2,0.2,0.2,0.3,0.2,0.6c0,0.2-0.1,0.4-0.2,0.6c-0.2,0.2-0.4,0.2-0.6,0.2
				c-0.2,0-0.4-0.1-0.6-0.2c-0.2-0.2-0.2-0.4-0.2-0.6c0-0.2,0.1-0.4,0.2-0.6c0.2-0.2,0.4-0.2,0.6-0.2
				C293.5,221.5,293.6,221.6,293.8,221.7z"/>
			<path class="st2" d="M292.5,212.3v2.3h-0.2c-0.1-0.6-0.4-0.9-0.7-1.1c-0.3-0.2-0.8-0.3-1.5-0.3h-1.5v7.7c0,0.6,0.1,1,0.2,1.2
				c0.2,0.2,0.4,0.3,0.9,0.3v0.3h-3.5v-0.3c0.4,0,0.7-0.1,0.9-0.4c0.2-0.2,0.2-0.7,0.2-1.2v-7.7h-1.5c-0.7,0-1.2,0.1-1.5,0.3
				c-0.3,0.2-0.5,0.6-0.5,1.1h-0.3v-2.3h0.3c0.3,0.2,0.8,0.4,1.5,0.4h5.3c0.8,0,1.3-0.1,1.6-0.4H292.5z"/>
			<path class="st2" d="M289,150.4v1.5h-17.1v-1.5c1.9,0,3.2-0.4,4-1.2c0.8-0.8,1.2-2.1,1.2-3.8v-19.9c-1.3-1.7-2.8-3.1-4.5-4.1
				c-0.6-0.4-1.3-0.7-1.9-0.9l0.5-1.6c1.9,0.7,3.8,1.7,5.9,3v-20.3c0-2.2-0.3-3.7-0.9-4.5c-0.6-0.8-1.8-1.2-3.5-1.2h-1.9v-1.5
				l11-1.1h1.6v52.3c0,1.8,0.4,3.1,1.2,3.8C285.5,150,286.9,150.4,289,150.4z"/>
			<path class="st2" d="M282,218.5c0.4,0.5,0.5,1,0.5,1.6c0,0.8-0.3,1.5-0.8,2c-0.6,0.6-1.2,0.8-2,0.8c-0.5,0-1-0.1-1.7-0.4
				c-0.3-0.1-0.5-0.2-0.6-0.2c-0.2,0-0.3,0.1-0.4,0.4h-0.3v-2.7h0.3c0,0.8,0.2,1.3,0.7,1.8c0.5,0.4,1,0.7,1.7,0.7
				c0.6,0,1.1-0.2,1.5-0.5c0.4-0.3,0.5-0.8,0.5-1.3c0-0.4-0.2-0.8-0.5-1.2c-0.3-0.4-0.9-0.9-1.9-1.4c-0.8-0.5-1.3-0.9-1.6-1.2
				c-0.3-0.3-0.5-0.6-0.6-0.9c-0.1-0.3-0.2-0.7-0.2-1.1c0-0.8,0.2-1.4,0.8-1.9c0.5-0.5,1.2-0.7,2-0.7c0.4,0,0.9,0.1,1.5,0.3
				c0.2,0.1,0.4,0.1,0.5,0.1c0.1,0,0.1,0,0.2-0.1c0,0,0.1-0.1,0.1-0.2h0.3v2.4h-0.3c-0.1-0.7-0.3-1.2-0.7-1.5
				c-0.4-0.4-0.9-0.5-1.5-0.5c-0.5,0-1,0.1-1.3,0.4c-0.3,0.3-0.5,0.6-0.5,1.1c0,0.4,0.1,0.8,0.4,1.2c0.3,0.3,0.9,0.8,1.8,1.3
				C280.9,217.5,281.6,218,282,218.5z"/>
			<path class="st2" d="M275.1,220.8l-0.5,1.9h-7.2v-0.3c0.5,0,0.8-0.1,0.9-0.3c0.2-0.2,0.2-0.6,0.2-1.2v-6.3c0-0.6-0.1-1-0.2-1.3
				c-0.2-0.2-0.5-0.3-0.9-0.3v-0.3h7.2v1.7h-0.2c-0.1-0.5-0.2-0.8-0.4-1c-0.2-0.2-0.6-0.2-1.2-0.2h-2.9v4.3h2.8
				c0.4,0,0.6-0.1,0.8-0.2c0.1-0.1,0.2-0.4,0.3-0.8h0.3v2.4h-0.3c-0.1-0.4-0.2-0.7-0.4-0.8c-0.2-0.1-0.5-0.2-1-0.2h-2.5v3.6
				c0,0.3,0.1,0.4,0.2,0.5c0.1,0.1,0.3,0.2,0.6,0.2h1.8c0.6,0,1.1,0,1.3-0.1c0.2-0.1,0.4-0.2,0.6-0.4c0.2-0.2,0.3-0.5,0.5-0.9H275.1
				z"/>
			<path class="st2" d="M271.9,150.4v1.5h-2.1c-5.9,0-10.6-1.6-14.1-4.9c-3.4-3.2-5.2-7.4-5.2-12.3c0-4.7,1.5-8.6,4.5-11.9
				c3-3.3,6.7-4.9,11-4.9c1.7,0,3.4,0.3,5.2,1l-0.5,1.6c-1.1-0.4-2.1-0.6-3.2-0.6c-3,0-5.4,1.2-7.3,3.7c-1.9,2.5-2.8,5.7-2.8,9.7
				c0,5.1,1.3,9.3,3.8,12.4C263.8,148.9,267.4,150.4,271.9,150.4z"/>
			<path class="st2" d="M246.6,150.4v1.5l-12,0.6v-6.1h-0.2c-0.2,0.3-0.4,0.5-0.6,0.8l-2.3-0.4c1.1-0.8,2.1-1.9,3.1-3.3v-17.9
				c0-2.3-0.3-3.7-1-4.3c-0.7-0.6-2.5-0.9-5.4-1v-1.6l11.2-1h1.6v27.8c0,1.8,0.4,3.1,1.2,3.7C242.8,150.1,244.4,150.4,246.6,150.4z"
				/>
			<path class="st2" d="M231.5,146.9l2.3,0.4c-3.2,3.8-6.8,5.7-11,5.7c-3.2,0-5.8-1.1-7.8-3.2c-2-2.1-3-4.8-3-8v-17
				c0-1.7-0.4-2.9-1.3-3.5c-0.9-0.6-2.4-0.9-4.6-0.9v-1.6l10.6-1h1.6v23.6c0,2.3,0.7,4.1,2,5.5c1.3,1.3,3.2,2,5.5,2
				C227.8,149.1,229.7,148.4,231.5,146.9z"/>
			<path class="st2" d="M203.7,150.3v1.6h-17.5v-1.6c2.4,0,3.9-0.4,4.6-1.2c0.7-0.8,1-2.5,1-5.2v-15.7c0-2.1-0.6-3.8-1.9-5
				c-1.3-1.2-3-1.8-5.2-1.8c-3,0-5.8,1.6-8.3,4.9l-1.6-1c3.5-5,7.6-7.4,12.2-7.4c3.2,0,5.9,1,8,3c2.1,2,3.2,4.7,3.2,8.2v16.6
				c0,1.8,0.4,3,1.2,3.6C200.2,150,201.6,150.3,203.7,150.3z"/>
			<path class="st2" d="M180.8,150.3v1.6h-17.4v-1.6c2.5,0,4-0.4,4.6-1.2c0.6-0.8,0.9-2.5,0.9-5.2v-15.3c0-2.2-0.7-3.9-2-5.2
				c-1.3-1.3-3-2-5.1-2c-1.8,0-3.6,0.6-5.3,1.7c-1.1,0.7-2,1.6-2.9,2.6l-1.2-1c1.4-2.1,3.1-3.8,5.3-5c2.1-1.2,4.3-1.9,6.5-1.9
				c2.4,0,4.5,0.7,6.4,2c1.9,1.3,3.2,3.1,4,5.5l1.6,1c-0.4,0.5-0.7,1-1,1.5v17.7c0,1.9,0.4,3.1,1.2,3.8
				C177.3,150,178.7,150.3,180.8,150.3z"/>
			<path class="st2" d="M158,150.4v1.5h-17.6v-1.6c2.4,0,4-0.4,4.6-1.1c0.7-0.8,1-2.2,1-4.2v-19.6c0-1.7-0.4-2.9-1.1-3.7
				c-0.7-0.8-1.9-1.1-3.5-1.1h-2.1v-1.6l11.4-1h1.6v6.9h0.2l1.2,1c-0.5,0.6-1,1.3-1.4,2v18c0,1.7,0.4,2.9,1.2,3.5
				C154.5,150.1,155.9,150.4,158,150.4z"/>
		</g>
	</g>
</g>
<g id="Layer_3_1_">
</g>
<g id="Layer_4_1_">
</g>
<g id="Layer_5">
</g>
<g id="Layer_6">
</g>
</svg>
