<?xml version="1.0" encoding="utf-8"?>
<!-- Generator: Adobe Illustrator 23.0.3, SVG Export Plug-In . SVG Version: 6.00 Build 0)  -->
<svg version="1.1" xmlns="http://www.w3.org/2000/svg" xmlns:xlink="http://www.w3.org/1999/xlink" x="0px" y="0px"
	 viewBox="0 0 600 300" style="enable-background:new 0 0 600 300;" xml:space="preserve">
<style type="text/css">
	.st0{display:none;}
	.st1{display:inline;}
	.st2{fill:#ECEFF1;}
</style>
<g id="Layer_1" class="st0">
	<g class="st1">
		<path class="st2" d="M78.2,225.6c-3.2,0-6.2-0.8-8.9-2.4c-2.7-1.6-4.9-3.9-6.5-6.7s-2.4-5.9-2.4-9.2s0.8-6.4,2.4-9.2
			c1.6-2.8,3.7-5,6.5-6.7c2.7-1.6,5.7-2.4,8.9-2.4c2.5,0,4.9,0.5,7.2,1.6c2.3,1,4.3,2.5,5.9,4.4l-3.4,3c-1.3-1.4-2.7-2.5-4.5-3.3
			c-1.7-0.8-3.5-1.2-5.4-1.2c-2.4,0-4.6,0.6-6.6,1.8s-3.6,2.9-4.8,5c-1.2,2.1-1.8,4.4-1.8,6.9s0.6,4.7,1.8,6.9
			c1.2,2.1,2.8,3.8,4.8,5s4.2,1.8,6.6,1.8c2,0,3.9-0.4,5.8-1.3c1.8-0.9,3.4-2.2,4.6-3.8l3.5,2.9c-1.7,2.2-3.7,3.9-6.2,5.1
			C83.6,225,81,225.6,78.2,225.6z M121.6,225.6c-1.8,0-3.6-0.4-5.3-1.1c-1.7-0.7-3.1-1.8-4.4-3.1s-2.3-2.8-3-4.5s-1-3.5-1-5.4v-22
			h4.5v22c0,1.3,0.2,2.5,0.7,3.7s1.1,2.2,2,3.1c1.9,1.9,4.1,2.8,6.5,2.8c1.2,0,2.4-0.2,3.5-0.7s2.1-1.2,3-2.1c0.9-0.9,1.5-1.9,2-3.1
			c0.5-1.2,0.7-2.4,0.7-3.7v-22h4.5v22c0,1.9-0.3,3.7-1,5.4s-1.7,3.2-2.9,4.5c-1.3,1.4-2.8,2.4-4.4,3.1
			C125.3,225.3,123.5,225.6,121.6,225.6z M179.4,225.3h-5.7l-13.4-19.2h5.1c1.4,0,2.6-0.1,3.6-0.3s1.7-0.4,2.2-0.6
			c1.2-0.5,2-1.3,2.7-2.3c0.6-1,0.9-2,0.9-2.9c0-1-0.3-2-0.9-2.9c-0.6-0.9-1.5-1.6-2.6-2.2c-1.2-0.6-2.5-0.9-4-0.9H159l0.1,31.2
			h-4.6v-35.8h12.6c1.7,0,3.3,0.3,4.8,0.8c1.5,0.6,2.8,1.3,3.9,2.4c1.1,1,1.9,2.1,2.5,3.4c0.6,1.3,0.9,2.6,0.9,4
			c0,2.2-0.6,4.1-1.9,5.8c-0.5,0.7-1.2,1.4-2,2s-1.6,1.1-2.4,1.5c-1.3,0.5-2.6,0.8-3.7,0.8L179.4,225.3z M197,225.3v-35.8h4.6v31.3
			h17.9v4.6H197V225.3z M236.5,225.3v-35.8h4.5v35.8H236.5z M265.3,200.9v24.4h-4.5v-36.4l22.9,25.1v-24.6h4.5v36.7L265.3,200.9z
			 M336,225.3h-13c-3.2,0-6.1-0.8-8.8-2.4c-2.7-1.6-4.8-3.8-6.4-6.6s-2.4-5.8-2.4-9.1s0.8-6.3,2.4-9.1s3.7-5,6.4-6.6
			c2.7-1.6,5.6-2.4,8.8-2.4c2.5,0,4.8,0.5,7.1,1.5c2.3,1,4.3,2.5,5.9,4.3l-3.4,3.1c-1.2-1.4-2.6-2.5-4.4-3.2
			c-1.7-0.8-3.5-1.1-5.3-1.1c-2.4,0-4.6,0.6-6.6,1.8s-3.6,2.8-4.8,4.9c-1.2,2.1-1.8,4.3-1.8,6.8s0.6,4.7,1.8,6.8
			c1.2,2.1,2.8,3.7,4.8,4.9s4.2,1.8,6.6,1.8h8.5v-9.8h-9.7v-4.6H336V225.3z M399.4,225.6c-3.2,0-6.2-0.8-8.9-2.4
			c-2.7-1.6-4.9-3.9-6.5-6.7s-2.4-5.9-2.4-9.2s0.8-6.4,2.4-9.2s3.7-5,6.5-6.7c2.7-1.6,5.7-2.4,8.9-2.4c2.5,0,4.9,0.5,7.2,1.6
			c2.3,1,4.3,2.5,5.9,4.4l-3.4,3c-1.3-1.4-2.7-2.5-4.5-3.3c-1.7-0.8-3.5-1.2-5.4-1.2c-2.4,0-4.6,0.6-6.6,1.8s-3.6,2.9-4.8,5
			c-1.2,2.1-1.8,4.4-1.8,6.9s0.6,4.7,1.8,6.9c1.2,2.1,2.8,3.8,4.8,5s4.2,1.8,6.6,1.8c2,0,3.9-0.4,5.8-1.3c1.8-0.9,3.4-2.2,4.6-3.8
			l3.5,2.9c-1.7,2.2-3.7,3.9-6.2,5.1C404.8,225,402.2,225.6,399.4,225.6z M429.8,225.3v-35.8h4.6v31.3h17.9v4.6h-22.5V225.3z
			 M481.3,225.6c-1.8,0-3.6-0.4-5.3-1.1c-1.7-0.7-3.1-1.8-4.4-3.1s-2.3-2.8-3-4.5s-1-3.5-1-5.4v-22h4.5v22c0,1.3,0.2,2.5,0.7,3.7
			s1.1,2.2,2,3.1c1.9,1.9,4.1,2.8,6.5,2.8c1.2,0,2.4-0.2,3.5-0.7s2.1-1.2,3-2.1c0.9-0.9,1.5-1.9,2-3.1c0.5-1.2,0.7-2.4,0.7-3.7v-22
			h4.5v22c0,1.9-0.3,3.7-1,5.4s-1.7,3.2-2.9,4.5c-1.3,1.4-2.8,2.4-4.4,3.1C484.9,225.3,483.1,225.6,481.3,225.6z M539.5,214.7
			c0,1.4-0.3,2.7-0.9,4c-0.6,1.3-1.4,2.4-2.5,3.4s-2.4,1.8-3.9,2.4c-1.5,0.5-3.1,0.8-4.7,0.8h-13.2v-35.8h10.6c3.3,0,6,1,8.1,2.9
			c1,0.9,1.7,1.9,2.2,3.1c0.5,1.2,0.8,2.4,0.8,3.7c0,1.1-0.2,2.2-0.6,3.2c-0.4,1-0.9,1.9-1.6,2.6l-0.4,0.5c1.6,0.7,3,1.8,4.2,3.3
			C538.8,210.7,539.5,212.6,539.5,214.7z M518.7,204.1h6c1.5,0,2.7-0.2,3.6-0.5c2-1,3-2.5,3-4.3c0-1.3-0.5-2.5-1.6-3.4
			c-1.2-1.1-2.8-1.7-5-1.7h-6.1L518.7,204.1L518.7,204.1z M531.4,219.8c1.1-0.6,2-1.3,2.6-2.2s0.9-1.9,0.9-2.9s-0.3-1.9-0.9-2.9
			c-0.6-1-1.5-1.7-2.6-2.2c-1.6-0.7-3.5-1-5.7-1h-7v12.1h8.8C528.9,220.7,530.3,220.4,531.4,219.8z"/>
		<g>
			<path class="st2" d="M122.6,117.2c3,0,5.4,2.5,5.4,5.5s-2.4,5.5-5.4,5.5s-5.4-2.5-5.4-5.5C117.1,119.7,119.6,117.2,122.6,117.2
				 M122.6,106.2c-9.1,0-16.5,7.4-16.5,16.5s7.4,16.5,16.5,16.5s16.5-7.4,16.5-16.5S131.7,106.2,122.6,106.2L122.6,106.2z"/>
			<g>
				<path class="st2" d="M57.8,118.9c0.3-0.3,0.6-0.7,0.8-1.1c2-2.9,3-6.1,3-9.6c0-2.5-0.5-4.9-1.6-7.2c-1.1-2.3-2.5-4.3-4.4-6.1
					c-4.1-3.7-9.4-5.6-15.7-5.6H19v67h25.6c3.3,0,6.4-0.5,9.3-1.6c2.9-1.1,5.5-2.6,7.6-4.5s3.7-4.1,4.9-6.6s1.7-5.1,1.7-7.7
					c0-4.1-1.3-7.9-4-11.4C62.5,122.2,60.4,120.4,57.8,118.9z M30.5,100.7h9.4c3.5,0,6.2,0.8,8,2.5c1.5,1.4,2.2,3,2.2,4.9
					c0,1.2-0.4,2.4-1.1,3.4c-0.7,1.1-1.8,2-3.3,2.7c-0.8,0.3-1.6,0.6-2.5,0.7s-2.1,0.2-3.6,0.2h-9.1
					C30.5,115.1,30.5,100.7,30.5,100.7z M53.8,141.7c-2.3,2.1-5.4,3.2-9.2,3.2H30.5v-18.1h11c3.9,0,7.2,0.5,9.7,1.6
					c1.5,0.6,2.8,1.6,3.9,3c1.1,1.4,1.6,2.9,1.6,4.5C56.7,137.9,55.7,139.9,53.8,141.7z"/>
				<polygon class="st2" points="569.6,89.2 569.6,129.5 528.2,88.2 528.2,156.2 539.6,156.2 539.6,116.4 581,157.8 581,89.2 				
					"/>
				<path class="st2" d="M440.1,156.2h12.6l4.3-9.2h27.1l4.1,9.2h12.5l-29.6-67L440.1,156.2z M462.3,135.6l8.6-18.5l8.2,18.5H462.3z
					"/>
				<path class="st2" d="M157.9,119.5c-1.5-17.1-15.1-30.8-32.1-32.3v-8.4h-6.4v8.4c-17,1.5-30.6,15.2-32.1,32.3H80v6.4h7.2
					c1.5,17.1,15.1,30.8,32.2,32.3v7.3h6.4v-7.3c17.1-1.5,30.6-15.2,32.2-32.3h7.2v-6.4C165.2,119.5,157.9,119.5,157.9,119.5z
					 M122.6,147.3c-13.5,0-24.5-11-24.5-24.6s11-24.6,24.5-24.6s24.5,11,24.5,24.6S136.1,147.3,122.6,147.3z"/>
				<polygon class="st2" points="267.3,156.2 309.7,156.2 309.7,144.8 278.8,144.8 278.8,128.4 302.1,128.4 302.1,116.9 
					278.8,116.9 278.8,100.7 309.7,100.7 309.7,89.2 267.3,89.2 				"/>
				<polygon class="st2" points="185.2,89.2 185.2,100.7 214,100.7 185.1,156.2 232.8,156.2 232.8,144.8 203.9,144.8 232.9,89.2 
									"/>
				<polygon class="st2" points="343.7,88.2 343.7,156.2 355.1,156.2 355.1,123.8 378.2,155.9 401.2,123.9 401.2,156.2 412.6,156.2 
					412.6,88.2 378.2,136.3 				"/>
			</g>
		</g>
	</g>
	<g id="Layer_3" class="st1">
	</g>
	<g id="Layer_4" class="st1">
	</g>
</g>
<g id="Layer_2" class="st0">
	<g class="st1">
		<g id="XMLID_1_">
			<path class="st2" d="M506.5,105c0.8,26.8,33.1,44.3,33.1,44.3s-32.3,17.5-33.1,44.3c-0.5,14.9-0.9,30.2-7.2,42.8l-5.6,2.7
				c-122.5-18.6-182.2,30.2-189.9,37l-4.6,6.6l-4.6-6.5c-3.5-3.1-18.2-15.4-44.9-25.6c-28.5-10.9-76.7-21.7-144.9-11.4l-5.6-2.7
				c-6.3-12.6-6.8-28-7.2-42.8c-0.8-26.8-33.1-44.3-33.1-44.3S91,131.8,91.8,105c0.5-14.8,0.9-30.2,7.2-42.8l5.6-1.9
				C224.8,78.5,284.6,32,294,23.8l5.1-8.3l5.1,8.3c4.3,3.7,18.9,15.3,44.4,25.2c28.4,10.9,76.7,21.7,144.9,11.4l5.6,1.9
				C505.5,74.8,506,90.2,506.5,105z M508.3,149.3c-11.4-8.9-12-27.2-12.6-44c-0.4-11.9-0.8-24.1-4.3-34c-18.5,2.6-35.6,3.8-51.3,3.8
				c-42.6,0-74.6-8.3-96-16.5c-23.9-9.3-38.6-19.9-45-25.2c-6.4,5.3-21.2,15.9-45,25.2c-21.4,8.3-53.4,16.5-96,16.5
				c-15.7,0-32.8-1.1-51.3-3.8c-3.5,9.9-3.9,22.1-4.3,34c-0.5,16.7-1.1,35.1-12.6,44c11.4,8.9,12,27.2,12.6,44
				c0.4,12.2,0.8,24.7,4.5,34.7c3-0.4,6.1-0.8,9.1-1.2c2.1-0.2,4.3-0.5,6.4-0.7c60.8-6.2,104.7,4.3,131.6,14.7
				c23.9,9.3,38.6,19.9,45,25.2c6.4-5.3,21.2-15.9,45-25.2c0.9-0.4,1.9-0.7,2.9-1.1c1.4-0.5,2.9-1.1,4.5-1.6
				c1.5-0.5,3.1-1.1,4.7-1.6c0.2-0.1,0.5-0.2,0.8-0.2c2.9-0.9,6-1.8,9.2-2.7c29.6-8,71.2-13.2,125-5.6c3.8-10,4.2-22.5,4.5-34.7
				C496.3,176.6,496.9,158.2,508.3,149.3z"/>
			<path class="st2" d="M457.9,146.2l1,1.2c-2.9,3.7-6.2,5.5-10,5.5c-2.8,0-5.1-0.9-6.9-2.7c-1.8-1.8-2.7-4.1-2.7-6.9v-22.2h-6.2
				v-1.6c4.6-2.3,8.2-6.3,11-12h1.6v11.1h11.5v2.4h-11.5v21.3c0,2.2,0.5,3.9,1.6,5.1c1,1.2,2.5,1.8,4.4,1.8
				C454,149.4,456,148.4,457.9,146.2z"/>
			<path class="st2" d="M430.4,150.4v1.5h-17.7v-1.5c2.2,0,3.7-0.3,4.5-0.9c0.8-0.6,1.2-1.6,1.2-3.3V129c0-2.3-0.7-4.2-2.1-5.5
				c-1.4-1.4-3.2-2.1-5.3-2.1c-2.5,0-5.1,1.4-7.6,4.3l-1.8-1.1c3.9-4.4,7.8-6.6,12-6.6c3.2,0,5.8,1.1,8,3.3c2.1,2.2,3.2,5,3.2,8.6
				v14.9c0,2.3,0.4,3.8,1.1,4.5C426.7,150,428.2,150.4,430.4,150.4z"/>
			<path class="st2" d="M408.4,186.1c0,0-1.7-1.2-3.8,0.7c-2.1,1.9-4.4,6.4-7.9,5.2c0,0,0.9,3.1-1.8,5c0,0,0.5-1.9-0.7-3.2
				c-1.2-1.4-3.8-2.6-1.9-5.7c0,0-2.9-1.4-4.4-0.5c0,0,1.7,2.7-1.2,5.5c0.1-0.1-0.6-1.2-0.7-1.2c-0.5-0.7-1.2-1.1-1.9-1
				c-0.5,0.1-1,0.4-1.5,0.9c0.7,1.6,1.3,4,0,5.4c-2.2,2.4-6.1,0.4-8.3-1.7l-0.1-0.1c-1.1-0.2-2.4-0.4-3.9-0.8
				c-3.3-0.9-5.1-1.6-6.6-2.3c-2.4,1-5.5,1.3-8.6-0.8c-0.5,0.4-1.1,0.7-1.8,0.6c-1.5-0.1-2.4-0.4-2.4-0.4s0.9,2.1,0,2.7
				c-1,0.5-3.5-1.2-4-1.5c-0.4-0.2-3-1.6-5.1-2.2v-1.4h1.7c1.7-0.6,3.7-1.5,5.3-2.6c3.4-2.3,2.7,1.4,2.6,1.8c0,0,2.7-0.3,4.1,0.8
				c1.9-1.6,5.7-3.4,11-0.2c2.2-0.5,5.1-1.8,8-4.4c2.8-2.6,4.3-2.6,4.3-2.6c3.5,0,6.1,2.3,3.9,6.3c0.5-0.6,3.8-4.3,9.5-2.3
				c7.5,2.5,8.9,0.2,12-1.2C407.3,183.3,408.4,186.1,408.4,186.1z"/>
			<path class="st2" d="M407.2,150.4v1.5h-17.4v-1.5c2.5,0,4.1-0.4,4.7-1.2c0.6-0.8,0.9-2.5,0.9-5.2v-18.7c0-2-0.3-3.3-1-3.9
				c-0.7-0.6-2.2-0.9-4.5-0.9v-1.6l10.3-1h1.6v6.6l1.8,1.1c-0.6,0.7-1.2,1.4-1.8,2.2V144c0,2.7,0.4,4.5,1.1,5.2
				C403.4,150,404.9,150.4,407.2,150.4z"/>
			<path class="st2" d="M386.9,150.4v1.5h-18.1v-1.5c2.7,0,4.4-0.3,5.1-0.9c0.8-0.6,1.1-1.8,1.1-3.7v-20.4c0-2-0.4-3.3-1-4
				c-0.7-0.6-2.4-1-5.2-1v-1.6l11-1h1.6v27.9c0,1.8,0.4,3,1.2,3.7C383.3,150.1,384.8,150.4,386.9,150.4z"/>
			<path class="st2" d="M380.5,106.5c0,2-1.3,3-3.8,3c-2.6,0-3.8-0.7-3.8-2c0-2.6,1.2-5.9,3.6-9.9
				C379.1,102.1,380.5,105.1,380.5,106.5z"/>
			<path class="st2" d="M364.9,146.2h1.6c-0.1,2.1-0.8,3.7-1.9,4.9c-1.1,1.2-2.6,1.8-4.5,1.8c-2.7,0-4.6-1.6-5.6-4.7
				c-1.6,1.8-3.1,3-4.4,3.7c-1.3,0.7-2.8,1-4.5,1c-2.6,0-4.8-0.9-6.7-2.6c-1.9-1.7-2.8-3.8-2.8-6.2c0-2.3,0.8-4.2,2.4-5.7
				c1.6-1.5,4.8-2.9,9.7-4.3c3.1-0.9,5.1-1.6,6.2-2.2v-2.5c0-2.4-0.7-4.3-2-5.8c-1.3-1.5-3.1-2.2-5.4-2.2c-2,0-3.8,0.6-5.4,1.9
				c-1.6,1.3-2.7,3-3.3,5.2l-1.7-0.5c0.7-3.1,2.1-5.5,4.4-7.4c2.2-1.9,4.9-2.8,7.9-2.8c3.6,0,6.4,1.1,8.6,3.2
				c2.2,2.1,3.3,5.1,3.3,8.9v14.2c0,2,0.1,3.4,0.4,4.1c0.3,0.7,0.7,1.1,1.5,1.1c0.5,0,0.9-0.2,1.2-0.6
				C364.2,148.4,364.5,147.5,364.9,146.2z M354.4,145.2V134c-0.9,0.4-2.3,0.9-4.1,1.5c-3.3,1.1-5.4,2.3-6.4,3.4
				c-0.9,1.1-1.4,2.6-1.4,4.5c0,1.6,0.5,3.1,1.5,4.3c1,1.2,2.2,1.8,3.5,1.8c1.2,0,2.6-0.4,3.9-1.2
				C352.9,147.4,353.9,146.4,354.4,145.2z"/>
			<path class="st2" d="M341.9,189.2v1.4c-1.3,0-2.5,0-3.8,0c-3.8,0.1-7.9,0.1-12,0.2c-19.1,0.1-38.8,0.3-41.2,0.3h-30.3
				c-1.7,0.6-3.7,1.5-5.3,2.6c-3.4,2.3-2.7-1.4-2.6-1.8c0,0-2.7,0.3-4.1-0.8c-1.9,1.6-5.7,3.4-11,0.2c-2.2,0.5-5.1,1.8-8,4.4
				c-2.7,2.6-4.3,2.6-4.3,2.6c-3.4,0-6.1-2.3-3.9-6.3c-0.5,0.6-3.8,4.3-9.5,2.4c-7.5-2.5-8.9-0.2-12,1.2c-2.9,1.4-4.1-1.1-4.2-1.4
				c0.1,0.1,1.8,1.1,3.8-0.7c2.1-1.9,4.4-6.4,7.9-5.2c0,0-0.9-3.1,1.8-5c0,0-0.5,1.9,0.7,3.2c1.2,1.4,3.8,2.6,1.9,5.7
				c0,0,2.9,1.4,4.4,0.5c0,0-1.7-2.7,1.2-5.5c-0.1,0.1,0.6,1.2,0.7,1.2c0.5,0.7,1.2,1.1,1.9,1c0.5-0.1,1-0.4,1.5-0.9
				c-0.7-1.6-1.3-4,0-5.4c2.2-2.4,6.1-0.4,8.3,1.7l0.1,0.1c1.1,0.2,2.4,0.5,3.9,0.9c3.3,0.9,5.1,1.6,6.6,2.3c2.4-1,5.5-1.4,8.7,0.8
				c0.5-0.4,1.1-0.7,1.7-0.6c1.5,0.1,2.4,0.4,2.4,0.4s-0.9-2.1,0-2.7c1-0.5,3.5,1.2,4,1.5c0.4,0.2,3,1.6,5.1,2.2c1.3,0,2.5,0,3.8,0
				c3.9-0.1,7.9-0.1,12-0.2c19.1-0.1,38.8-0.3,41.2-0.3H341.9z"/>
			<path class="st2" d="M330.9,218.6v0.8h-2.5v3.4h-1v-3.4h-4.1v-0.3l4.9-6.7h0.3v6.2H330.9z M327.4,218.6v-4.3l-3.2,4.3H327.4z"/>
			<path class="st2" d="M325.7,122.9c2.8,3.3,4.3,7.4,4.3,12.3c0,5.1-1.6,9.4-4.7,12.7c-3.1,3.4-7,5.1-11.8,5.1
				c-3.3,0-6.6-1.3-10-3.9l1-1.4c2.4,2.1,5.1,3.1,8.2,3.1c3,0,5.4-1.4,7.4-4.1c2-2.8,3-6.2,3-10.3c0-4.4-1-8.1-3-11
				c-2-2.9-4.5-4.3-7.6-4.3c-2.7,0-5.4,1.3-7.9,3.8l-1.1-1.3c2.1-2,4-3.5,5.7-4.3c1.7-0.8,3.6-1.3,5.8-1.3
				C319.3,118,322.9,119.6,325.7,122.9z"/>
			<path class="st2" d="M320.8,222.5v0.3h-3.2v-0.3c0.4,0,0.7-0.1,0.9-0.2c0.1-0.1,0.2-0.4,0.2-0.9v-6.9c0-0.2-0.1-0.4-0.1-0.4
				c0,0-0.1,0-0.2,0.1c-0.4,0.2-0.8,0.3-1.1,0.3v-0.3c1.3-0.7,2.1-1.2,2.4-1.7h0.3v8.9c0,0.5,0.1,0.8,0.2,0.9
				C320.1,222.4,320.4,222.5,320.8,222.5z"/>
			<path class="st2" d="M314.1,215c0.3,0.8,0.4,1.7,0.4,2.7c0,1-0.1,1.9-0.4,2.7c-0.3,0.8-0.7,1.4-1.3,1.9c-0.5,0.4-1.1,0.7-1.8,0.7
				c-0.6,0-1.2-0.2-1.8-0.7c-0.5-0.4-1-1.1-1.3-1.9c-0.3-0.8-0.4-1.7-0.4-2.7c0-1,0.1-1.9,0.4-2.7c0.3-0.8,0.7-1.4,1.3-1.8
				c0.5-0.5,1.1-0.7,1.8-0.7c0.6,0,1.2,0.2,1.8,0.7C313.4,213.6,313.8,214.2,314.1,215z M313.2,217.7c0-1.5-0.2-2.7-0.5-3.5
				c-0.4-0.8-0.9-1.3-1.6-1.3c-0.7,0-1.2,0.4-1.6,1.3c-0.4,0.9-0.6,2-0.6,3.5c0,1.5,0.2,2.7,0.6,3.5c0.4,0.8,0.9,1.3,1.6,1.3
				c0.7,0,1.2-0.4,1.6-1.2C313,220.4,313.2,219.2,313.2,217.7z"/>
			<path class="st2" d="M309.1,176.3v1.6h-17.7v-1.6c2.3,0,3.8-0.3,4.6-1c0.8-0.6,1.2-1.9,1.2-3.7v-46.1c0-2.2-0.3-3.6-1-4.3
				c-0.7-0.6-2.3-0.9-4.8-0.9v-1.6l10.6-1h1.6v5.6l1.1,1.3c-0.4,0.4-0.7,0.7-1.1,1.2v20.7c0.3,0.3,0.7,0.7,1,1l-1,1.4v21.8
				c0,2.3,0.4,3.7,1.2,4.5C305.5,176,306.9,176.3,309.1,176.3z"/>
			<path class="st2" d="M305.8,222v0.7h-5.8v-0.3c1.6-1.6,2.7-2.9,3.3-3.9c0.7-1,1-1.9,1-2.7c0-0.7-0.2-1.3-0.5-1.7
				c-0.3-0.4-0.8-0.6-1.3-0.6c-0.5,0-0.9,0.2-1.3,0.5c-0.3,0.3-0.5,0.8-0.6,1.3h-0.3c0-0.4,0.1-0.9,0.4-1.3c0.2-0.5,0.6-0.8,1-1.1
				c0.4-0.3,0.8-0.4,1.3-0.4c0.7,0,1.3,0.3,1.8,0.8c0.5,0.5,0.7,1.2,0.7,2c0,0.9-0.4,1.9-1.1,2.9c-0.7,1-1.9,2.3-3.6,3.9H305.8z"/>
			<path class="st2" d="M293.8,221.7c0.2,0.2,0.2,0.3,0.2,0.6c0,0.2-0.1,0.4-0.2,0.6c-0.2,0.2-0.4,0.2-0.6,0.2
				c-0.2,0-0.4-0.1-0.6-0.2c-0.2-0.2-0.2-0.4-0.2-0.6c0-0.2,0.1-0.4,0.2-0.6c0.2-0.2,0.4-0.2,0.6-0.2
				C293.5,221.5,293.6,221.6,293.8,221.7z"/>
			<path class="st2" d="M292.5,212.3v2.3h-0.2c-0.1-0.6-0.4-0.9-0.7-1.1c-0.3-0.2-0.8-0.3-1.5-0.3h-1.5v7.7c0,0.6,0.1,1,0.2,1.2
				c0.2,0.2,0.4,0.3,0.9,0.3v0.3h-3.5v-0.3c0.4,0,0.7-0.1,0.9-0.4c0.2-0.2,0.2-0.7,0.2-1.2v-7.7h-1.5c-0.7,0-1.2,0.1-1.5,0.3
				c-0.3,0.2-0.5,0.6-0.5,1.1h-0.3v-2.3h0.3c0.3,0.2,0.8,0.4,1.5,0.4h5.3c0.8,0,1.3-0.1,1.6-0.4H292.5z"/>
			<path class="st2" d="M289,150.4v1.5h-17.1v-1.5c1.9,0,3.2-0.4,4-1.2c0.8-0.8,1.2-2.1,1.2-3.8v-19.9c-1.3-1.7-2.8-3.1-4.5-4.1
				c-0.6-0.4-1.3-0.7-1.9-0.9l0.5-1.6c1.9,0.7,3.8,1.7,5.9,3v-20.3c0-2.2-0.3-3.7-0.9-4.5c-0.6-0.8-1.8-1.2-3.5-1.2h-1.9v-1.5
				l11-1.1h1.6v52.3c0,1.8,0.4,3.1,1.2,3.8C285.5,150,286.9,150.4,289,150.4z"/>
			<path class="st2" d="M282,218.5c0.4,0.5,0.5,1,0.5,1.6c0,0.8-0.3,1.5-0.8,2c-0.6,0.6-1.2,0.8-2,0.8c-0.5,0-1-0.1-1.7-0.4
				c-0.3-0.1-0.5-0.2-0.6-0.2c-0.2,0-0.3,0.1-0.4,0.4h-0.3v-2.7h0.3c0,0.8,0.2,1.3,0.7,1.8c0.5,0.4,1,0.7,1.7,0.7
				c0.6,0,1.1-0.2,1.5-0.5c0.4-0.3,0.5-0.8,0.5-1.3c0-0.4-0.2-0.8-0.5-1.2c-0.3-0.4-0.9-0.9-1.9-1.4c-0.8-0.5-1.3-0.9-1.6-1.2
				c-0.3-0.3-0.5-0.6-0.6-0.9c-0.1-0.3-0.2-0.7-0.2-1.1c0-0.8,0.2-1.4,0.8-1.9c0.5-0.5,1.2-0.7,2-0.7c0.4,0,0.9,0.1,1.5,0.3
				c0.2,0.1,0.4,0.1,0.5,0.1c0.1,0,0.1,0,0.2-0.1c0,0,0.1-0.1,0.1-0.2h0.3v2.4h-0.3c-0.1-0.7-0.3-1.2-0.7-1.5
				c-0.4-0.4-0.9-0.5-1.5-0.5c-0.5,0-1,0.1-1.3,0.4c-0.3,0.3-0.5,0.6-0.5,1.1c0,0.4,0.1,0.8,0.4,1.2c0.3,0.3,0.9,0.8,1.8,1.3
				C280.9,217.5,281.6,218,282,218.5z"/>
			<path class="st2" d="M275.1,220.8l-0.5,1.9h-7.2v-0.3c0.5,0,0.8-0.1,0.9-0.3c0.2-0.2,0.2-0.6,0.2-1.2v-6.3c0-0.6-0.1-1-0.2-1.3
				c-0.2-0.2-0.5-0.3-0.9-0.3v-0.3h7.2v1.7h-0.2c-0.1-0.5-0.2-0.8-0.4-1c-0.2-0.2-0.6-0.2-1.2-0.2h-2.9v4.3h2.8
				c0.4,0,0.6-0.1,0.8-0.2c0.1-0.1,0.2-0.4,0.3-0.8h0.3v2.4h-0.3c-0.1-0.4-0.2-0.7-0.4-0.8c-0.2-0.1-0.5-0.2-1-0.2h-2.5v3.6
				c0,0.3,0.1,0.4,0.2,0.5c0.1,0.1,0.3,0.2,0.6,0.2h1.8c0.6,0,1.1,0,1.3-0.1c0.2-0.1,0.4-0.2,0.6-0.4c0.2-0.2,0.3-0.5,0.5-0.9H275.1
				z"/>
			<path class="st2" d="M271.9,150.4v1.5h-2.1c-5.9,0-10.6-1.6-14.1-4.9c-3.4-3.2-5.2-7.4-5.2-12.3c0-4.7,1.5-8.6,4.5-11.9
				c3-3.3,6.7-4.9,11-4.9c1.7,0,3.4,0.3,5.2,1l-0.5,1.6c-1.1-0.4-2.1-0.6-3.2-0.6c-3,0-5.4,1.2-7.3,3.7c-1.9,2.5-2.8,5.7-2.8,9.7
				c0,5.1,1.3,9.3,3.8,12.4C263.8,148.9,267.4,150.4,271.9,150.4z"/>
			<path class="st2" d="M246.6,150.4v1.5l-12,0.6v-6.1h-0.2c-0.2,0.3-0.4,0.5-0.6,0.8l-2.3-0.4c1.1-0.8,2.1-1.9,3.1-3.3v-17.9
				c0-2.3-0.3-3.7-1-4.3c-0.7-0.6-2.5-0.9-5.4-1v-1.6l11.2-1h1.6v27.8c0,1.8,0.4,3.1,1.2,3.7C242.8,150.1,244.4,150.4,246.6,150.4z"
				/>
			<path class="st2" d="M231.5,146.9l2.3,0.4c-3.2,3.8-6.8,5.7-11,5.7c-3.2,0-5.8-1.1-7.8-3.2c-2-2.1-3-4.8-3-8v-17
				c0-1.7-0.4-2.9-1.3-3.5c-0.9-0.6-2.4-0.9-4.6-0.9v-1.6l10.6-1h1.6v23.6c0,2.3,0.7,4.1,2,5.5c1.3,1.3,3.2,2,5.5,2
				C227.8,149.1,229.7,148.4,231.5,146.9z"/>
			<path class="st2" d="M203.7,150.3v1.6h-17.5v-1.6c2.4,0,3.9-0.4,4.6-1.2c0.7-0.8,1-2.5,1-5.2v-15.7c0-2.1-0.6-3.8-1.9-5
				c-1.3-1.2-3-1.8-5.2-1.8c-3,0-5.8,1.6-8.3,4.9l-1.6-1c3.5-5,7.6-7.4,12.2-7.4c3.2,0,5.9,1,8,3c2.1,2,3.2,4.7,3.2,8.2v16.6
				c0,1.8,0.4,3,1.2,3.6C200.2,150,201.6,150.3,203.7,150.3z"/>
			<path class="st2" d="M180.8,150.3v1.6h-17.4v-1.6c2.5,0,4-0.4,4.6-1.2c0.6-0.8,0.9-2.5,0.9-5.2v-15.3c0-2.2-0.7-3.9-2-5.2
				c-1.3-1.3-3-2-5.1-2c-1.8,0-3.6,0.6-5.3,1.7c-1.1,0.7-2,1.6-2.9,2.6l-1.2-1c1.4-2.1,3.1-3.8,5.3-5c2.1-1.2,4.3-1.9,6.5-1.9
				c2.4,0,4.5,0.7,6.4,2c1.9,1.3,3.2,3.1,4,5.5l1.6,1c-0.4,0.5-0.7,1-1,1.5v17.7c0,1.9,0.4,3.1,1.2,3.8
				C177.3,150,178.7,150.3,180.8,150.3z"/>
			<path class="st2" d="M158,150.4v1.5h-17.6v-1.6c2.4,0,4-0.4,4.6-1.1c0.7-0.8,1-2.2,1-4.2v-19.6c0-1.7-0.4-2.9-1.1-3.7
				c-0.7-0.8-1.9-1.1-3.5-1.1h-2.1v-1.6l11.4-1h1.6v6.9h0.2l1.2,1c-0.5,0.6-1,1.3-1.4,2v18c0,1.7,0.4,2.9,1.2,3.5
				C154.5,150.1,155.9,150.4,158,150.4z"/>
		</g>
	</g>
</g>
<g id="Layer_3_1_" class="st0">
	<g class="st1">
		<g>
			<path class="st2" d="M76.7,100.1l-6.4,0.1h-2.9v21.8H47.5V52.6h29.6c19.1,0,30,9.4,30,24c0,10.5-5.4,16.8-11.8,19.6l15.9,25.9H90
				L76.7,100.1z M78.3,85.2c5.8,0,8.5-2.7,8.5-7.4c0-4.6-2.6-7.4-8.5-7.4H67.4v14.9H78.3z"/>
			<path class="st2" d="M209.8,52.6h19.1v69.5h-19.1V52.6z"/>
			<path class="st2" d="M526.1,70.8v51.3h-20V70.8h-22.3V52.6h64.6v18.2H526.1z"/>
		</g>
		<g>
			<path class="st2" d="M98.3,254.5c0-4.5,0.1-4.9,0.1-5.6h-0.2c-3.5,3.6-10.5,6.9-19.5,6.9c-19.2,0-34.7-14.3-34.7-34.9
				c0-19.9,14.7-34.6,36.4-34.6c14.7,0,26.9,6.8,32.4,19.7l-17.3,4.7c-2.9-4.8-8.6-7.3-15-7.3c-10.6,0-17.2,6.3-17.2,17.7
				c0,10.6,6.9,17.6,19.6,17.6c5.7,0,12.9-1.9,15.4-3.7v-3.7H80.9v-16.6h34.3v39.9H98.3z"/>
			<path class="st2" d="M197.2,186.3h54.7v18.2h-35.1v8.4h24.1v15.4h-24.1v9.2h35.7v18.2h-55.3V186.3z"/>
			<path class="st2" d="M358.9,243.6l-3.8,12.2h-20l24.7-69.5h24.7l24.7,69.5h-20.3l-3.8-12.2H358.9z M376.9,218
				c-3.5-10.9-4.7-15.6-4.7-15.9h-0.5c-0.1,0.2-1.7,5.5-5.2,16.6l-2.5,8.1h15.8L376.9,218z"/>
			<path class="st2" d="M521.8,233.8l-6.3,0.1h-2.9v21.8H493v-69.5h29.3c18.9,0,29.7,9.4,29.7,24c0,10.5-5.3,16.8-11.7,19.6
				l15.8,25.9h-21.1L521.8,233.8z M523.4,218.9c5.7,0,8.4-2.7,8.4-7.4c0-4.6-2.6-7.4-8.4-7.4h-10.8v14.9H523.4z"/>
		</g>
	</g>
	<g class="st1">
		<path class="st2" d="M380.4,102.7c6-2.9,10.3-9.1,11.1-15.8c0.8-7.6-3.1-15.4-9.4-19c2,5.6,0.7,13.3-14.1,19.4
			c-6,2.5-7.1,10.4-3.2,16.1c0,0,0,0,0,0c0,0,0,0,0,0c2.2-6,8.5-4,10.1-10.7c3.5,4-0.2,7.8,1.3,11.4
			C377.6,103.8,379,103.3,380.4,102.7z"/>
		<path class="st2" d="M379.7,50.8l-2.9-6.7c-1.8-0.2-3.5-0.4-5.4-0.4c-2.1,0-4.2,0.2-6.2,0.5l-3.2,7.4c-2.9,0.8-5.7,2-8.4,3.5
			l-7.4-2.9c-3.1,2.4-5.9,5.2-8.2,8.4l2.9,7.2c-1.5,2.7-2.7,5.5-3.4,8.4l-7.1,3.1c-0.2,1.8-0.4,3.7-0.4,5.5c0,2.1,0.2,4.2,0.5,6.2
			l7.1,3c0.8,2.9,2,5.7,3.5,8.4l-2.8,7.1c2.4,3.2,5.2,6,8.4,8.3l7.1-2.9c2.7,1.5,5.5,2.7,8.5,3.4l3.1,7.1c1.9,0.3,3.9,0.4,5.9,0.4
			c2,0,3.9-0.1,5.9-0.4l3.1-7.2c2.9-0.8,5.7-2,8.4-3.5l7.5,2.9c3.1-2.3,5.9-5.1,8.2-8.2l-3-7.5c1.5-2.7,2.7-5.5,3.4-8.4l7.5-3.3
			c0.2-1.8,0.4-3.7,0.4-5.6c0-2-0.1-3.9-0.4-5.8l-6.2-2.6c-0.9-8.4-0.5-16.5,11.2-20.7c-7-0.1-13.6,3.2-17,9.5
			c-3.6,6.6-2.9,13.8-3.2,21c-0.5,10.2-8,19.1-17.7,22.1c-8.2,2.5-17.6,0.4-24-5.1c-6.4-5.6-9.7-14.5-8.4-22.9
			c1.6-10.1,9.5-18.6,19.6-20.8c-2.4,4.5-4.2,9.8-2.6,13.3c5.6-18.4,40.8,3.1,61.2-44.6C402.1,56.5,380.4,50.9,379.7,50.8z"/>
	</g>
</g>
<g id="Layer_4_1_" class="st0">
	<g id="Runner_Logo" class="st1">
		<path id="EDQ" class="st2" d="M89.1,234.5v4.4H73.7v10.1H86v4.2H73.7v10.3h15.4l0,4.4H68.3v-33.4H89.1z M92.6,267.9v-23.6h3
			c0.7,0,1.1,0.3,1.3,1l0.3,2.2c0.5-0.5,1-1,1.6-1.4c0.5-0.4,1.1-0.8,1.7-1.1c0.6-0.3,1.3-0.5,2-0.7c0.7-0.2,1.5-0.3,2.3-0.3
			c1.3,0,2.4,0.2,3.4,0.6c1,0.4,1.8,1,2.5,1.8c0.7,0.8,1.2,1.7,1.5,2.8c0.3,1.1,0.5,2.3,0.5,3.7v15h-5v-15c0-1.6-0.4-2.8-1.1-3.7
			c-0.7-0.9-1.9-1.3-3.3-1.3c-1.1,0-2.1,0.3-3.1,0.8c-1,0.5-1.8,1.2-2.7,2.1v17.2H92.6z M124.8,268.3c-2,0-3.5-0.6-4.5-1.7
			c-1.1-1.1-1.6-2.7-1.6-4.7v-13.8h-2.6c-0.3,0-0.5-0.1-0.7-0.3c-0.2-0.2-0.3-0.4-0.3-0.8v-2l3.8-0.6l1.1-6.8
			c0.1-0.3,0.2-0.5,0.4-0.6c0.2-0.2,0.4-0.2,0.7-0.2h2.5v7.8h6.6v3.6h-6.6v13.4c0,0.8,0.2,1.5,0.6,1.9c0.4,0.4,1,0.7,1.7,0.7
			c0.4,0,0.7,0,1-0.2c0.3-0.1,0.5-0.2,0.7-0.3c0.2-0.1,0.4-0.2,0.5-0.3c0.1-0.1,0.3-0.2,0.4-0.2c0.3,0,0.5,0.2,0.7,0.5l1.5,2.4
			c-0.8,0.7-1.7,1.2-2.7,1.6C127,268.1,125.9,268.3,124.8,268.3z M142.8,243.9c1.5,0,2.8,0.2,4,0.7c1.2,0.5,2.3,1.2,3.2,2.1
			c0.9,0.9,1.6,2,2.1,3.3c0.5,1.3,0.8,2.8,0.8,4.5c0,0.8-0.1,1.3-0.3,1.6c-0.2,0.3-0.5,0.4-0.9,0.4h-15.2c0.1,1.3,0.3,2.5,0.6,3.5
			c0.4,1,0.8,1.8,1.4,2.4c0.6,0.6,1.3,1.1,2.1,1.4c0.8,0.3,1.7,0.5,2.8,0.5c1,0,1.8-0.1,2.5-0.3c0.7-0.2,1.3-0.5,1.9-0.7
			c0.5-0.3,1-0.5,1.3-0.7c0.4-0.2,0.7-0.3,1-0.3c0.4,0,0.7,0.2,0.9,0.5l1.4,1.8c-0.6,0.7-1.3,1.3-2,1.8c-0.7,0.5-1.5,0.9-2.4,1.2
			c-0.8,0.3-1.7,0.5-2.6,0.6c-0.9,0.1-1.7,0.2-2.6,0.2c-1.6,0-3.2-0.3-4.6-0.8c-1.4-0.5-2.6-1.4-3.6-2.4c-1-1.1-1.8-2.4-2.4-4
			c-0.6-1.6-0.9-3.4-0.9-5.4c0-1.6,0.3-3.2,0.8-4.6c0.5-1.4,1.3-2.7,2.2-3.7c1-1.1,2.1-1.9,3.5-2.5
			C139.5,244.2,141,243.9,142.8,243.9z M142.9,247.5c-1.8,0-3.2,0.5-4.3,1.6c-1,1-1.7,2.5-2,4.4h11.8c0-0.8-0.1-1.6-0.4-2.3
			c-0.2-0.7-0.6-1.3-1.1-1.9c-0.5-0.5-1-1-1.7-1.3C144.6,247.6,143.8,247.5,142.9,247.5z M156.8,267.9v-23.6h2.9
			c0.5,0,0.9,0.1,1.1,0.3c0.2,0.2,0.3,0.5,0.4,1l0.3,3.1c0.8-1.5,1.7-2.7,2.7-3.5c1.1-0.9,2.3-1.3,3.8-1.3c0.5,0,1,0.1,1.4,0.2
			c0.4,0.1,0.8,0.3,1.2,0.5l-0.3,3.8c-0.1,0.3-0.2,0.4-0.3,0.5c-0.1,0.1-0.3,0.2-0.5,0.2c-0.2,0-0.6,0-1-0.1
			c-0.4-0.1-0.9-0.1-1.4-0.1c-0.7,0-1.3,0.1-1.9,0.3c-0.5,0.2-1,0.5-1.4,0.9c-0.4,0.4-0.8,0.9-1.1,1.4c-0.3,0.6-0.6,1.2-0.9,1.9
			v14.7H156.8z M173.2,275.7v-31.5h3c0.7,0,1.1,0.3,1.3,1l0.4,2.5c0.5-0.6,1-1.1,1.6-1.6c0.6-0.5,1.2-0.9,1.8-1.2
			c0.6-0.3,1.3-0.6,2.1-0.8c0.7-0.2,1.5-0.3,2.4-0.3c1.3,0,2.5,0.3,3.6,0.8c1.1,0.5,2,1.3,2.8,2.3c0.8,1,1.4,2.3,1.8,3.8
			c0.4,1.5,0.6,3.2,0.6,5.2c0,1.7-0.2,3.4-0.7,4.9c-0.5,1.5-1.1,2.8-2,3.9c-0.9,1.1-1.9,2-3.2,2.6c-1.3,0.6-2.7,0.9-4.2,0.9
			c-1.4,0-2.6-0.2-3.5-0.7c-1-0.4-1.8-1.1-2.6-1.8v10H173.2z M184,247.8c-1.3,0-2.4,0.3-3.3,0.8c-0.9,0.5-1.8,1.3-2.5,2.4v11
			c0.7,0.9,1.5,1.5,2.3,1.9c0.8,0.4,1.7,0.5,2.7,0.5c1.9,0,3.5-0.7,4.6-2.1s1.6-3.5,1.6-6.4c0-1.5-0.1-2.7-0.4-3.7
			c-0.2-1-0.6-1.9-1.1-2.5c-0.5-0.6-1-1.1-1.7-1.4C185.6,248,184.9,247.8,184,247.8z M198.6,267.9v-23.6h2.9c0.5,0,0.9,0.1,1.1,0.3
			c0.2,0.2,0.3,0.5,0.4,1l0.3,3.1c0.8-1.5,1.7-2.7,2.7-3.5c1.1-0.9,2.3-1.3,3.8-1.3c0.5,0,1,0.1,1.4,0.2c0.4,0.1,0.8,0.3,1.2,0.5
			l-0.3,3.8c-0.1,0.3-0.2,0.4-0.3,0.5c-0.1,0.1-0.3,0.2-0.5,0.2c-0.2,0-0.6,0-1-0.1c-0.4-0.1-0.9-0.1-1.4-0.1
			c-0.7,0-1.3,0.1-1.9,0.3c-0.5,0.2-1,0.5-1.4,0.9c-0.4,0.4-0.8,0.9-1.1,1.4c-0.3,0.6-0.6,1.2-0.9,1.9v14.7H198.6z M221,237.1
			c0,0.4-0.1,0.9-0.3,1.3c-0.2,0.4-0.4,0.8-0.7,1.1c-0.3,0.3-0.7,0.5-1.1,0.7c-0.4,0.2-0.8,0.3-1.3,0.3c-0.4,0-0.9-0.1-1.3-0.3
			c-0.4-0.2-0.7-0.4-1-0.7c-0.3-0.3-0.5-0.7-0.7-1.1c-0.2-0.4-0.3-0.8-0.3-1.3c0-0.5,0.1-0.9,0.3-1.3c0.2-0.4,0.4-0.8,0.7-1.1
			c0.3-0.3,0.6-0.5,1-0.7c0.4-0.2,0.8-0.3,1.3-0.3c0.5,0,0.9,0.1,1.3,0.3c0.4,0.2,0.8,0.4,1.1,0.7c0.3,0.3,0.6,0.7,0.7,1.1
			C220.9,236.2,221,236.6,221,237.1z M220.1,244.2v23.6h-5v-23.6H220.1z M239.5,248.5c-0.1,0.2-0.3,0.4-0.4,0.5
			c-0.2,0.1-0.3,0.1-0.6,0.1c-0.3,0-0.5-0.1-0.9-0.2c-0.3-0.2-0.7-0.3-1.1-0.5c-0.4-0.2-0.9-0.4-1.5-0.5c-0.6-0.2-1.2-0.2-2-0.2
			c-0.6,0-1.2,0.1-1.7,0.2c-0.5,0.1-0.9,0.4-1.3,0.6c-0.3,0.3-0.6,0.6-0.8,1c-0.2,0.4-0.3,0.8-0.3,1.2c0,0.6,0.2,1,0.5,1.4
			c0.3,0.4,0.8,0.7,1.3,1c0.6,0.3,1.2,0.5,1.9,0.7c0.7,0.2,1.4,0.4,2.2,0.7c0.7,0.2,1.5,0.5,2.2,0.9c0.7,0.3,1.3,0.7,1.9,1.2
			c0.6,0.5,1,1,1.3,1.7c0.3,0.7,0.5,1.5,0.5,2.4c0,1.1-0.2,2.1-0.6,3.1c-0.4,0.9-1,1.8-1.8,2.5c-0.8,0.7-1.7,1.2-2.9,1.6
			c-1.2,0.4-2.5,0.6-4,0.6c-0.8,0-1.6-0.1-2.4-0.2c-0.8-0.1-1.5-0.3-2.2-0.6c-0.7-0.3-1.3-0.6-1.9-0.9c-0.6-0.4-1.1-0.7-1.6-1.2
			l1.2-1.9c0.1-0.2,0.3-0.4,0.5-0.5c0.2-0.1,0.5-0.2,0.8-0.2c0.3,0,0.6,0.1,1,0.3c0.3,0.2,0.7,0.4,1.1,0.7c0.4,0.2,0.9,0.5,1.5,0.7
			c0.6,0.2,1.4,0.3,2.2,0.3c0.7,0,1.4-0.1,1.9-0.3c0.5-0.2,1-0.4,1.3-0.7c0.4-0.3,0.6-0.7,0.8-1.1c0.2-0.4,0.3-0.8,0.3-1.3
			c0-0.6-0.2-1.1-0.5-1.5c-0.3-0.4-0.8-0.7-1.4-1c-0.6-0.3-1.2-0.5-1.9-0.7c-0.7-0.2-1.4-0.4-2.2-0.7s-1.5-0.5-2.2-0.9
			s-1.4-0.7-1.9-1.2c-0.6-0.5-1-1.1-1.4-1.8s-0.5-1.6-0.5-2.6c0-0.9,0.2-1.8,0.6-2.7c0.4-0.8,0.9-1.6,1.7-2.2
			c0.7-0.6,1.6-1.2,2.7-1.5c1.1-0.4,2.3-0.6,3.7-0.6c1.6,0,3,0.3,4.3,0.8c1.3,0.5,2.4,1.2,3.3,2.1L239.5,248.5z M254.6,243.9
			c1.5,0,2.8,0.2,4,0.7c1.2,0.5,2.3,1.2,3.2,2.1c0.9,0.9,1.6,2,2.1,3.3c0.5,1.3,0.8,2.8,0.8,4.5c0,0.8-0.1,1.3-0.3,1.6
			c-0.2,0.3-0.5,0.4-0.9,0.4h-15.2c0.1,1.3,0.3,2.5,0.6,3.5c0.4,1,0.8,1.8,1.4,2.4c0.6,0.6,1.3,1.1,2.1,1.4c0.8,0.3,1.8,0.5,2.8,0.5
			c1,0,1.8-0.1,2.5-0.3c0.7-0.2,1.3-0.5,1.9-0.7c0.5-0.3,1-0.5,1.3-0.7c0.4-0.2,0.7-0.3,1-0.3c0.4,0,0.7,0.2,0.9,0.5l1.4,1.8
			c-0.6,0.7-1.3,1.3-2,1.8c-0.7,0.5-1.5,0.9-2.4,1.2c-0.8,0.3-1.7,0.5-2.6,0.6c-0.9,0.1-1.7,0.2-2.6,0.2c-1.6,0-3.2-0.3-4.6-0.8
			c-1.4-0.5-2.6-1.4-3.6-2.4c-1-1.1-1.8-2.4-2.4-4c-0.6-1.6-0.9-3.4-0.9-5.4c0-1.6,0.3-3.2,0.8-4.6c0.5-1.4,1.3-2.7,2.2-3.7
			c1-1.1,2.1-1.9,3.5-2.5C251.3,244.2,252.9,243.9,254.6,243.9z M254.7,247.5c-1.8,0-3.2,0.5-4.3,1.6c-1,1-1.7,2.5-2,4.4h11.8
			c0-0.8-0.1-1.6-0.4-2.3c-0.2-0.7-0.6-1.3-1.1-1.9c-0.5-0.5-1-1-1.7-1.3C256.4,247.6,255.6,247.5,254.7,247.5z M311.1,251.2
			c0,2.5-0.4,4.7-1.2,6.8c-0.8,2-1.9,3.8-3.4,5.3s-3.2,2.6-5.3,3.4c-2,0.8-4.3,1.2-6.8,1.2h-12.6v-33.4h12.6c2.5,0,4.8,0.4,6.8,1.2
			c2,0.8,3.8,2,5.3,3.4c1.5,1.5,2.6,3.2,3.4,5.3C310.7,246.5,311.1,248.7,311.1,251.2z M305.6,251.2c0-1.9-0.3-3.6-0.8-5.2
			c-0.5-1.5-1.3-2.8-2.2-3.9c-1-1.1-2.1-1.9-3.5-2.4c-1.4-0.6-2.9-0.8-4.6-0.8h-7.2v24.6h7.2c1.7,0,3.3-0.3,4.6-0.8
			c1.4-0.6,2.5-1.4,3.5-2.4s1.7-2.3,2.2-3.9C305.3,254.9,305.6,253.1,305.6,251.2z M330.2,267.9c-0.5,0-0.8-0.1-1.1-0.2
			c-0.2-0.1-0.5-0.4-0.6-0.9l-0.5-1.9c-0.6,0.6-1.2,1-1.8,1.5c-0.6,0.4-1.2,0.8-1.8,1.1c-0.6,0.3-1.3,0.5-2,0.7
			c-0.7,0.1-1.5,0.2-2.4,0.2c-1,0-1.9-0.1-2.7-0.4c-0.8-0.3-1.5-0.7-2.1-1.2c-0.6-0.5-1.1-1.2-1.4-2c-0.3-0.8-0.5-1.7-0.5-2.8
			c0-0.9,0.2-1.8,0.7-2.7c0.5-0.9,1.3-1.6,2.4-2.3c1.1-0.7,2.6-1.3,4.4-1.7c1.8-0.4,4.1-0.7,6.8-0.8v-1.6c0-1.7-0.4-3-1.1-3.8
			s-1.8-1.3-3.2-1.3c-1,0-1.8,0.1-2.4,0.4c-0.6,0.2-1.2,0.5-1.7,0.8c-0.5,0.3-0.9,0.5-1.3,0.8c-0.4,0.2-0.8,0.4-1.2,0.4
			c-0.3,0-0.6-0.1-0.9-0.3c-0.2-0.2-0.4-0.4-0.6-0.7l-0.9-1.6c2.7-2.5,5.9-3.7,9.5-3.7c1.4,0,2.6,0.2,3.6,0.7
			c1.1,0.4,1.9,1.1,2.7,1.9c0.7,0.8,1.3,1.8,1.6,2.9c0.4,1.1,0.6,2.3,0.6,3.7v15H330.2z M321.6,264.8c1.3,0,2.4-0.2,3.3-0.7
			c0.9-0.5,1.8-1.2,2.7-2.1v-4.4c-1.8,0.1-3.3,0.2-4.5,0.4c-1.2,0.2-2.2,0.5-3,0.9c-0.8,0.4-1.3,0.8-1.6,1.2c-0.3,0.5-0.5,1-0.5,1.6
			c0,0.6,0.1,1,0.3,1.4c0.2,0.4,0.4,0.7,0.7,1c0.3,0.3,0.7,0.4,1.1,0.6C320.6,264.7,321,264.8,321.6,264.8z M344.5,268.3
			c-2,0-3.5-0.6-4.5-1.7c-1.1-1.1-1.6-2.7-1.6-4.7v-13.8h-2.6c-0.3,0-0.5-0.1-0.7-0.3c-0.2-0.2-0.3-0.4-0.3-0.8v-2l3.8-0.6l1.1-6.8
			c0.1-0.3,0.2-0.5,0.4-0.6c0.2-0.2,0.4-0.2,0.7-0.2h2.5v7.8h6.6v3.6h-6.6v13.4c0,0.8,0.2,1.5,0.6,1.9c0.4,0.4,1,0.7,1.7,0.7
			c0.4,0,0.7,0,1-0.2c0.3-0.1,0.5-0.2,0.7-0.3c0.2-0.1,0.4-0.2,0.5-0.3c0.1-0.1,0.3-0.2,0.4-0.2c0.3,0,0.5,0.2,0.7,0.5l1.5,2.4
			c-0.8,0.7-1.7,1.2-2.7,1.6S345.6,268.3,344.5,268.3z M368.8,267.9c-0.5,0-0.8-0.1-1.1-0.2c-0.2-0.1-0.5-0.4-0.6-0.9l-0.5-1.9
			c-0.6,0.6-1.2,1-1.8,1.5c-0.6,0.4-1.2,0.8-1.8,1.1c-0.6,0.3-1.3,0.5-2,0.7c-0.7,0.1-1.5,0.2-2.4,0.2c-1,0-1.9-0.1-2.7-0.4
			c-0.8-0.3-1.5-0.7-2.1-1.2c-0.6-0.5-1.1-1.2-1.4-2c-0.3-0.8-0.5-1.7-0.5-2.8c0-0.9,0.2-1.8,0.7-2.7c0.5-0.9,1.3-1.6,2.4-2.3
			c1.1-0.7,2.6-1.3,4.4-1.7c1.8-0.4,4.1-0.7,6.8-0.8v-1.6c0-1.7-0.4-3-1.1-3.8s-1.8-1.3-3.2-1.3c-1,0-1.8,0.1-2.4,0.4
			c-0.6,0.2-1.2,0.5-1.7,0.8c-0.5,0.3-0.9,0.5-1.3,0.8c-0.4,0.2-0.8,0.4-1.2,0.4c-0.3,0-0.6-0.1-0.9-0.3c-0.2-0.2-0.4-0.4-0.6-0.7
			l-0.9-1.6c2.7-2.5,5.9-3.7,9.5-3.7c1.4,0,2.6,0.2,3.6,0.7c1.1,0.4,1.9,1.1,2.7,1.9c0.7,0.8,1.3,1.8,1.6,2.9
			c0.4,1.1,0.6,2.3,0.6,3.7v15H368.8z M360.2,264.8c1.3,0,2.4-0.2,3.3-0.7c0.9-0.5,1.8-1.2,2.7-2.1v-4.4c-1.8,0.1-3.3,0.2-4.5,0.4
			c-1.2,0.2-2.2,0.5-3,0.9c-0.8,0.4-1.3,0.8-1.6,1.2c-0.3,0.5-0.5,1-0.5,1.6c0,0.6,0.1,1,0.3,1.4c0.2,0.4,0.4,0.7,0.7,1
			c0.3,0.3,0.7,0.4,1.1,0.6C359.2,264.7,359.6,264.8,360.2,264.8z M420.7,251.2c0,1.5-0.2,3-0.5,4.4c-0.3,1.4-0.8,2.7-1.3,3.9
			c-0.6,1.2-1.3,2.3-2.2,3.3c-0.8,1-1.8,1.9-2.9,2.6l8.5,9.2h-4.5c-0.7,0-1.3-0.1-1.8-0.3c-0.5-0.2-1-0.5-1.4-1l-5.4-5.9
			c-0.8,0.2-1.7,0.4-2.6,0.6s-1.8,0.2-2.8,0.2c-2.5,0-4.8-0.4-6.8-1.3c-2-0.8-3.8-2-5.3-3.5c-1.5-1.5-2.6-3.3-3.4-5.4
			c-0.8-2.1-1.2-4.4-1.2-6.8c0-2.5,0.4-4.8,1.2-6.8c0.8-2.1,1.9-3.9,3.4-5.4c1.5-1.5,3.2-2.7,5.3-3.5s4.3-1.3,6.8-1.3
			c2.5,0,4.8,0.4,6.8,1.3s3.8,2,5.3,3.5c1.5,1.5,2.6,3.3,3.4,5.4C420.3,246.4,420.7,248.7,420.7,251.2z M415.2,251.2
			c0-1.9-0.3-3.6-0.8-5.2c-0.5-1.5-1.3-2.8-2.2-3.9c-1-1.1-2.1-1.9-3.5-2.5c-1.4-0.6-2.9-0.9-4.6-0.9c-1.7,0-3.2,0.3-4.6,0.9
			c-1.4,0.6-2.5,1.4-3.5,2.5c-1,1.1-1.7,2.4-2.2,3.9c-0.5,1.5-0.8,3.3-0.8,5.2c0,1.9,0.3,3.7,0.8,5.2c0.5,1.5,1.3,2.8,2.2,3.9
			c1,1.1,2.1,1.9,3.5,2.4c1.4,0.6,2.9,0.8,4.6,0.8c1.7,0,3.3-0.3,4.6-0.8s2.5-1.4,3.5-2.4c1-1.1,1.7-2.4,2.2-3.9
			C414.9,254.9,415.2,253.1,415.2,251.2z M429.8,244.2v15c0,1.6,0.4,2.8,1.1,3.7c0.7,0.9,1.9,1.3,3.3,1.3c1.1,0,2.1-0.3,3.1-0.8
			c1-0.5,1.8-1.2,2.7-2.1v-17.2h5v23.6h-3c-0.7,0-1.1-0.3-1.3-1l-0.4-2.2c-1,1.1-2.1,1.9-3.3,2.5c-1.2,0.6-2.6,1-4.2,1
			c-1.3,0-2.4-0.2-3.4-0.6s-1.8-1-2.5-1.8c-0.7-0.8-1.2-1.7-1.5-2.8c-0.3-1.1-0.5-2.3-0.5-3.7v-15H429.8z M465.5,267.9
			c-0.5,0-0.8-0.1-1.1-0.2c-0.2-0.1-0.5-0.4-0.6-0.9l-0.5-1.9c-0.6,0.6-1.2,1-1.8,1.5c-0.6,0.4-1.2,0.8-1.8,1.1
			c-0.6,0.3-1.3,0.5-2,0.7s-1.5,0.2-2.4,0.2c-1,0-1.9-0.1-2.7-0.4c-0.8-0.3-1.5-0.7-2.1-1.2c-0.6-0.5-1.1-1.2-1.4-2
			c-0.3-0.8-0.5-1.7-0.5-2.8c0-0.9,0.2-1.8,0.7-2.7c0.5-0.9,1.3-1.6,2.4-2.3c1.1-0.7,2.6-1.3,4.4-1.7c1.8-0.4,4.1-0.7,6.8-0.8v-1.6
			c0-1.7-0.4-3-1.1-3.8s-1.8-1.3-3.2-1.3c-1,0-1.8,0.1-2.4,0.4c-0.6,0.2-1.2,0.5-1.7,0.8c-0.5,0.3-0.9,0.5-1.3,0.8
			c-0.4,0.2-0.8,0.4-1.2,0.4c-0.3,0-0.6-0.1-0.9-0.3c-0.2-0.2-0.4-0.4-0.6-0.7l-0.9-1.6c2.7-2.5,5.9-3.7,9.5-3.7
			c1.4,0,2.6,0.2,3.6,0.7c1.1,0.4,1.9,1.1,2.7,1.9c0.7,0.8,1.3,1.8,1.6,2.9c0.4,1.1,0.6,2.3,0.6,3.7v15H465.5z M456.8,264.8
			c1.3,0,2.4-0.2,3.3-0.7c0.9-0.5,1.8-1.2,2.7-2.1v-4.4c-1.8,0.1-3.3,0.2-4.5,0.4c-1.2,0.2-2.2,0.5-3,0.9c-0.8,0.4-1.3,0.8-1.6,1.2
			c-0.3,0.5-0.5,1-0.5,1.6c0,0.6,0.1,1,0.3,1.4c0.2,0.4,0.4,0.7,0.7,1c0.3,0.3,0.7,0.4,1.1,0.6C455.9,264.7,456.3,264.8,456.8,264.8
			z M477.8,233.6v34.3h-5v-34.3H477.8z M489,237.1c0,0.4-0.1,0.9-0.3,1.3c-0.2,0.4-0.4,0.8-0.7,1.1c-0.3,0.3-0.7,0.5-1.1,0.7
			c-0.4,0.2-0.8,0.3-1.3,0.3c-0.4,0-0.9-0.1-1.3-0.3c-0.4-0.2-0.7-0.4-1-0.7c-0.3-0.3-0.5-0.7-0.7-1.1c-0.2-0.4-0.3-0.8-0.3-1.3
			c0-0.5,0.1-0.9,0.3-1.3c0.2-0.4,0.4-0.8,0.7-1.1c0.3-0.3,0.6-0.5,1-0.7c0.4-0.2,0.8-0.3,1.3-0.3c0.5,0,0.9,0.1,1.3,0.3
			c0.4,0.2,0.8,0.4,1.1,0.7c0.3,0.3,0.6,0.7,0.7,1.1C488.9,236.2,489,236.6,489,237.1z M488.2,244.2v23.6h-5v-23.6H488.2z
			 M500.9,268.3c-2,0-3.5-0.6-4.5-1.7c-1.1-1.1-1.6-2.7-1.6-4.7v-13.8h-2.6c-0.3,0-0.5-0.1-0.7-0.3c-0.2-0.2-0.3-0.4-0.3-0.8v-2
			l3.8-0.6l1.1-6.8c0.1-0.3,0.2-0.5,0.4-0.6c0.2-0.2,0.4-0.2,0.7-0.2h2.5v7.8h6.6v3.6h-6.6v13.4c0,0.8,0.2,1.5,0.6,1.9
			c0.4,0.4,1,0.7,1.7,0.7c0.4,0,0.7,0,1-0.2c0.3-0.1,0.5-0.2,0.7-0.3c0.2-0.1,0.4-0.2,0.5-0.3c0.1-0.1,0.3-0.2,0.4-0.2
			c0.3,0,0.5,0.2,0.7,0.5l1.5,2.4c-0.8,0.7-1.7,1.2-2.7,1.6C503.1,268.1,502,268.3,500.9,268.3z M518.7,274.6
			c-0.2,0.4-0.4,0.6-0.6,0.8c-0.2,0.2-0.6,0.3-1.1,0.3h-3.7l4.4-9.5l-9.6-22h4.3c0.4,0,0.7,0.1,1,0.3c0.2,0.2,0.4,0.4,0.5,0.7
			l5.6,13.4c0.3,0.8,0.5,1.5,0.7,2.3c0.1-0.4,0.3-0.8,0.4-1.2c0.1-0.4,0.3-0.8,0.4-1.2l5.4-13.4c0.1-0.3,0.3-0.5,0.5-0.7
			c0.3-0.2,0.5-0.3,0.8-0.3h4L518.7,274.6z"/>
		<path id="Runner" class="st2" d="M192.9,114.4c7.4-2.5,14.5-9.1,14.5-21c0-13.9-9.4-22.2-25.2-22.2h-24c-1.6,0-2.8,1.3-2.8,2.8
			v67.6c0,1.6,1.3,2.8,2.8,2.8h5.3c1.6,0,2.8-1.3,2.8-2.8v-25.3h15.1l17.3,26.8c0.5,0.8,1.4,1.3,2.4,1.3h6.1c1,0,2-0.6,2.5-1.5
			c0.5-0.9,0.4-2-0.1-2.9L192.9,114.4z M166.3,105.7v-24h15.6c13.1,0,14.6,6.9,14.6,12c0,5.2-1.5,12-14.6,12H166.3z M258,90.5v29.8
			c0,15.4-9,24.7-24,24.7c-15.3,0-24-9-24-24.7V90.5c0-1.6,1.3-2.8,2.8-2.8h5.3c1.6,0,2.8,1.3,2.8,2.8v30.2c0,9.7,4.1,14,13.2,14
			c9,0,13.2-4.4,13.2-14V90.5c0-1.6,1.3-2.8,2.8-2.8h5.3C256.7,87.7,258,89,258,90.5z M309.9,108.3v33.2c0,1.6-1.3,2.8-2.8,2.8h-5.3
			c-1.6,0-2.8-1.3-2.8-2.8v-33.2c0-5.5-1.5-10.6-12.2-10.6c-4.3,0-8.8,0.8-13.4,2.4v41.4c0,1.6-1.3,2.8-2.8,2.8h-5.1
			c-1.6,0-2.8-1.3-2.8-2.8V95c0-1,0.6-2,1.5-2.5c2.6-1.4,11.8-5.8,23.2-5.8C301.6,86.8,309.9,94.6,309.9,108.3z M361.9,108.3v33.2
			c0,1.6-1.3,2.8-2.8,2.8h-5.3c-1.6,0-2.8-1.3-2.8-2.8v-33.2c0-5.5-1.5-10.6-12.2-10.6c-4.3,0-8.8,0.8-13.4,2.4v41.4
			c0,1.6-1.3,2.8-2.8,2.8h-5.1c-1.5,0-2.8-1.3-2.8-2.8V95c0-1,0.6-2,1.5-2.5c2.6-1.4,11.8-5.8,23.2-5.8
			C353.7,86.8,361.9,94.6,361.9,108.3z M390.2,86.9c-18.8,0-25.5,15.6-25.5,30.1c0,24.4,16.9,28,27,28c6.7,0,13.5-1.3,18.2-3.5
			c1-0.5,1.6-1.5,1.6-2.5v-5.4c0-1-0.5-1.9-1.4-2.4c-0.9-0.5-1.9-0.5-2.8,0c-3.7,2-9.4,3.2-15.3,3.2c-12.4,0-14.8-6.4-15.5-11.3
			c0-0.2-0.1-0.5-0.2-0.7c-0.1-0.2-0.2-0.4-0.2-0.6H412c1.5,0,2.7-1.1,2.8-2.6c0-0.3,0.1-1,0.1-3C414.9,102.1,408.4,86.9,390.2,86.9
			z M375.9,111.6c1.1-9.5,5.7-14.1,14-14.1c10.8,0,13.3,9.1,13.9,14.1H375.9z M446.7,89.7v5c0,1.5-1.2,2.8-2.7,2.8
			c-6.4,0.2-12,1.4-16.1,2.5v41.5c0,1.6-1.3,2.8-2.8,2.8h-5.1c-1.6,0-2.8-1.3-2.8-2.8v-47c0-1.1,0.7-2.1,1.7-2.6
			c2.7-1.2,12.5-4.9,25-5.1c0.8,0.1,1.5,0.3,2,0.8C446.4,88.2,446.7,88.9,446.7,89.7z M449,138.6H447v-1.4h5.5v1.4h-2v5.8H449V138.6
			z M459.6,144.4h1.6l-0.4-7.2h-2.1l-0.8,2.4c-0.2,0.8-0.5,1.8-0.7,2.6h0c-0.2-0.8-0.4-1.7-0.6-2.6l-0.7-2.4h-2.2l-0.5,7.2h1.5
			l0.1-2.7c0-0.9,0.1-2,0.1-3h0c0.2,0.9,0.4,2,0.7,2.8l0.8,2.8h1.3l0.9-2.8c0.3-0.8,0.6-1.9,0.8-2.8h0c0,1,0,2.1,0.1,3L459.6,144.4z
			"/>
		<path id="Blue_Swoosh" class="st2" d="M488.6,171c0,0,81.4-136.5-249-144.7c0,0,106.4-10.8,208.8,17.4
			C549.2,71.6,573,130.6,488.6,171"/>
		<path id="RED_Swoosh" class="st2" d="M111.4,58.2c0,0-81.4,136.5,249,144.7c0,0-106.4,10.8-208.8-17.4
			C50.8,157.6,27,98.7,111.4,58.2"/>
	</g>
</g>
<g id="Layer_5">
	<path id="XMLID_79_" class="st2" d="M442.3,209.2v-28.4h-3.9V213h22.1v-3.8H442.3z M395.8,188.5l-7.4,13.2h14.9L395.8,188.5z
		 M414,213h-4.4l-4.2-7.5h-19.1l-4.2,7.5h-4.3l18.1-32.2L414,213z M345,184.3c3.5,0,6.7,1.3,9.1,3.6l0.5,0.5l0.5-0.4l1.6-1.4
		l0.6-0.5l-0.6-0.6c-3.1-3-7.3-4.7-11.8-4.7c-5,0-9.2,1.6-12.2,4.6c-2.9,3-4.5,7.1-4.5,11.6c0,7.9,5.2,15.9,16.6,15.9
		c4.5,0,8.6-1.7,11.8-4.7l0.6-0.6l-0.6-0.5l-1.6-1.5l-0.5-0.5l-0.5,0.5c-2.4,2.3-5.7,3.6-9.1,3.6c-9.3,0-12.7-6.7-12.8-12.4
		c0-3.6,1.2-6.9,3.4-9.1C337.9,185.5,341.2,184.3,345,184.3 M297.3,213h4v-32.2h-4V213z M257.4,184.5H250v24.6h7.5
		c3.8,0,7.1-1.2,9.4-3.6c2.2-2.3,3.5-5.6,3.4-9C270.1,190.5,266.1,184.5,257.4,184.5 M274.2,196.5c0.1,4.5-1.5,8.8-4.4,11.8
		c-3,3.1-7.3,4.7-12.3,4.7h-10.7H246v-0.8v-30.7v-0.8h0.8h10.7C268.7,180.7,274,188.6,274.2,196.5 M201,209.1v-10.5h14.5v-3.7H201
		v-10.4h19.6v-3.8H197V213h24.2v-3.8H201z M170.4,180.7V213h-4v-20.8l-12.1,15.7l-12.1-15.8V213h-4v-32.2l16.1,20.5L170.4,180.7z"/>
	<g id="XMLID_15_">
		<path id="XMLID_101_" class="st2" d="M179.4,97.1h-30V87c27.3,0,50.4,0,77.8,0v10.1h-30v49h-17.8V97.1z"/>
		<path id="XMLID_103_" class="st2" d="M316,135h-49.5l-8.1,11.2h-19.3L281.6,87H301l42.4,59.2H324L316,135z M291.3,99.4l-17.6,25.2
			h35.1L291.3,99.4z"/>
		<path id="XMLID_106_" class="st2" d="M432.6,86.9h17.8v59.3h-11.1v0.1l-49.7-40v39.9h-17.8V87h14.5l46.4,36.7V86.9z"/>
		<path id="XMLID_108_" class="st2" d="M510.2,97.1h-30V87c27.3,0,50.4,0,77.8,0v10.1h-30v49h-17.8V97.1z"/>
		<line id="XMLID_70_" class="st2" x1="91.4" y1="116.5" x2="91.4" y2="116.5"/>
		<line id="XMLID_75_" class="st2" x1="65.3" y1="146.1" x2="65.3" y2="146.1"/>
		<polygon id="XMLID_76_" class="st2" points="55.7,87 66,87 97.7,116.5 66,146.1 55.7,146.1 87.4,116.5 		"/>
		<polygon id="XMLID_93_" class="st2" points="40.7,87 51,87 82.7,116.5 51,146.1 40.7,146.1 72.4,116.5 		"/>
		<g id="XMLID_118_">
			<polygon id="XMLID_119_" class="st2" points="90.3,127.4 110.4,146.1 129.2,146.1 99.7,118.6 			"/>
			<polygon id="XMLID_120_" class="st2" points="99.7,114.5 129.2,87 110.4,87 90.3,105.7 			"/>
		</g>
	</g>
</g>
<g id="Layer_6">
</g>
</svg>
