<?xml version="1.0" encoding="utf-8"?>
<!-- Generator: Adobe Illustrator 23.0.3, SVG Export Plug-In . SVG Version: 6.00 Build 0)  -->
<svg version="1.1" id="Layer_1" xmlns="http://www.w3.org/2000/svg" xmlns:xlink="http://www.w3.org/1999/xlink" x="0px" y="0px"
	 viewBox="0 0 600 600" style="enable-background:new 0 0 600 600;" xml:space="preserve">
<style type="text/css">
	.st0{fill:#DEF4FC;}
	.st1{fill:#E9F6FF;}
	.st2{fill:none;stroke:#C8DFF5;stroke-width:4;stroke-miterlimit:10;}
	.st3{fill:none;stroke:#C8DFF5;stroke-width:4;stroke-miterlimit:10;stroke-dasharray:4,4;}
	.st4{fill:#AFD8F9;}
	.st5{fill:#C8DFF5;}
	.st6{fill:none;stroke:#2481D7;stroke-width:8;stroke-linecap:round;stroke-linejoin:round;stroke-miterlimit:10;}
	.st7{fill:#FFFFFF;}
	.st8{fill:#5BA1E1;}
	.st9{fill:#288DE8;}
	.st10{fill:#2481D7;}
	.st11{fill:none;stroke:#2481D7;stroke-width:4;stroke-linecap:round;stroke-linejoin:round;stroke-miterlimit:10;}
	.st12{fill:none;stroke:#2481D7;stroke-width:6;stroke-linecap:round;stroke-linejoin:round;stroke-miterlimit:10;}
	.st13{fill:#6AB0E5;}
</style>
<g>
	<g>
		<g>
			<g>
				<polygon class="st0" points="548.1,52.9 394.8,52.9 86.2,554.5 279,554.2 548.1,285.1 				"/>
				<polygon class="st1" points="316,517.2 548.1,285.1 548.1,52.9 547,52.9 316,517.2 				"/>
			</g>
			<g>
				<polygon class="st0" points="47.9,552.1 200.9,552.1 548.1,52.9 316.6,51.5 47.9,320.3 				"/>
				<polygon class="st1" points="228.5,139.6 47.9,320.3 47.9,552.1 49,552.1 313.7,54.5 				"/>
			</g>
		</g>
		<g>
			<g>
				<g>
					<path class="st2" d="M184,184.2L184,184.2c34-34,79.3-49.9,123.8-47.6"/>
					<path class="st2" d="M299.3,299.5"/>
					<path class="st2" d="M414.5,414.7L414.5,414.7c-63.7,63.7-166.9,63.7-230.6,0"/>
					<path class="st2" d="M299.3,299.5"/>
				</g>
				<g>
					<path class="st3" d="M414.5,184.2L414.5,184.2c63.7,63.7,63.7,166.9,0,230.6"/>
					<path class="st3" d="M299.3,299.5"/>
					<path class="st3" d="M184,414.8L184,414.8c-63.7-63.7-63.7-166.9,0-230.6"/>
					<path class="st3" d="M299.3,299.5"/>
				</g>
				<g>
					<path class="st0" d="M299.3,299.5"/>
					<path class="st0" d="M299.3,299.5"/>
				</g>
				<g>
					<g>
						<g>
							<line class="st2" x1="196.8" y1="197" x2="183.3" y2="183.5"/>
							<line class="st2" x1="192.4" y1="201.4" x2="201.2" y2="192.6"/>
						</g>
						<g>
							<line class="st2" x1="401.7" y1="402" x2="415.2" y2="415.4"/>
							<line class="st2" x1="406.1" y1="397.6" x2="397.4" y2="406.3"/>
						</g>
					</g>
					<g>
						<g>
							<line class="st2" x1="196.8" y1="402" x2="183.3" y2="415.4"/>
							<line class="st2" x1="201.2" y1="406.3" x2="192.4" y2="397.6"/>
						</g>
						<g>
							<line class="st2" x1="401.7" y1="197" x2="415.2" y2="183.5"/>
							<line class="st2" x1="397.4" y1="192.6" x2="406.1" y2="201.4"/>
						</g>
					</g>
				</g>
				<g>
					<g>
						<g>
							<path class="st2" d="M135.3,299.5"/>
							<line class="st2" x1="154.3" y1="299.5" x2="135.3" y2="299.5"/>
						</g>
						<g>
							<line class="st2" x1="444.2" y1="299.5" x2="463.2" y2="299.5"/>
						</g>
					</g>
					<g>
						<g>
							<line class="st2" x1="299.3" y1="444.4" x2="299.3" y2="463.5"/>
							<line class="st2" x1="305.5" y1="444.4" x2="293.1" y2="444.4"/>
						</g>
						<g>
							<line class="st2" x1="299.3" y1="154.6" x2="299.3" y2="135.5"/>
							<line class="st2" x1="293.1" y1="154.6" x2="305.4" y2="154.6"/>
						</g>
					</g>
				</g>
			</g>
			<g>
				<g>
					<path class="st2" d="M125.3,473.5L125.3,473.5c-96.2-96.1-96.2-251.9,0-348"/>
					<path class="st2" d="M299.3,299.5"/>
					<path class="st2" d="M473.2,125.5L473.2,125.5c96.2,96.1,96.2,251.9,0,348"/>
					<path class="st2" d="M299.3,299.5"/>
				</g>
				<g>
					<path class="st3" d="M125.2,125.5L125.2,125.5c96.1-96.2,251.9-96.2,348,0"/>
					<path class="st3" d="M299.3,299.5"/>
					<path class="st3" d="M473.3,473.5L473.3,473.5c-96.1,96.2-251.9,96.2-348,0"/>
					<path class="st3" d="M299.3,299.5"/>
				</g>
				<g>
					<path class="st0" d="M299.3,299.5"/>
					<path class="st0" d="M299.3,299.5"/>
				</g>
				<g>
					<g>
						<g>
							<line class="st2" x1="144.6" y1="454.2" x2="124.2" y2="474.5"/>
							<line class="st2" x1="151.2" y1="460.8" x2="138" y2="447.6"/>
						</g>
						<g>
							<line class="st2" x1="454" y1="144.8" x2="474.3" y2="124.5"/>
							<line class="st2" x1="447.4" y1="138.2" x2="460.6" y2="151.4"/>
						</g>
					</g>
					<g>
						<g>
							<line class="st2" x1="454" y1="454.2" x2="474.3" y2="474.5"/>
							<line class="st2" x1="460.6" y1="447.6" x2="447.4" y2="460.8"/>
						</g>
						<g>
							<line class="st2" x1="144.6" y1="144.8" x2="124.2" y2="124.5"/>
							<line class="st2" x1="138" y1="151.4" x2="151.2" y2="138.2"/>
						</g>
					</g>
				</g>
				<g>
					<g>
						<g>
							<path class="st2" d="M299.3,547"/>
							<line class="st2" x1="299.3" y1="518.2" x2="299.3" y2="547"/>
						</g>
						<g>
							<line class="st2" x1="299.3" y1="80.7" x2="299.3" y2="52"/>
						</g>
					</g>
					<g>
						<g>
							<line class="st2" x1="518" y1="299.5" x2="546.8" y2="299.5"/>
							<line class="st2" x1="518" y1="290.1" x2="518" y2="308.8"/>
						</g>
						<g>
							<line class="st2" x1="80.5" y1="299.5" x2="51.7" y2="299.5"/>
							<line class="st2" x1="80.5" y1="308.8" x2="80.5" y2="290.1"/>
						</g>
					</g>
				</g>
			</g>
		</g>
		<g>
			<g>
				<rect x="52.8" y="434.3" class="st4" width="492.9" height="32.2"/>
				<g>
					<rect x="73.3" y="466.6" class="st4" width="41.2" height="80.4"/>
					<rect x="484.1" y="466.6" class="st4" width="41.2" height="80.4"/>
				</g>
				<rect x="114.4" y="466.6" class="st4" width="369.7" height="52.2"/>
				<rect x="114.4" y="466.6" class="st5" width="369.7" height="33.2"/>
			</g>
			<g>
				<rect x="52.8" y="434.3" class="st6" width="492.9" height="32.2"/>
				<g>
					<polyline class="st6" points="73.3,547 73.3,466.6 114.4,466.6 114.4,547 					"/>
					<polyline class="st6" points="484.1,547 484.1,466.6 525.3,466.6 525.3,547 					"/>
				</g>
				<rect x="114.4" y="466.6" class="st6" width="369.7" height="53.2"/>
				<line class="st6" x1="280.8" y1="494.6" x2="317.8" y2="494.6"/>
			</g>
		</g>
		<g>
			<g>
				<g>
					<path class="st5" d="M236.7,421.3v-31.3h-57.5v31.3c0,7.2-5.8,13.1-13.1,13.1h83.6C242.6,434.3,236.7,428.5,236.7,421.3z"/>
					<rect x="179.3" y="389.9" class="st4" width="57.5" height="24.2"/>
					<path class="st6" d="M236.7,421.3v-31.3h-57.5v31.3c0,7.2-5.8,13.1-13.1,13.1h83.6C242.6,434.3,236.7,428.5,236.7,421.3z"/>
					<line class="st6" x1="133.6" y1="434.3" x2="282.4" y2="434.3"/>
					<g>
						<g>
							<line class="st6" x1="122.3" y1="434.3" x2="122.3" y2="434.3"/>
							<line class="st6" x1="111.4" y1="434.3" x2="111.4" y2="434.3"/>
							<line class="st6" x1="100.5" y1="434.3" x2="100.5" y2="434.3"/>
						</g>
						<g>
							<line class="st6" x1="315.5" y1="434.3" x2="315.5" y2="434.3"/>
							<line class="st6" x1="304.6" y1="434.3" x2="304.6" y2="434.3"/>
							<line class="st6" x1="293.8" y1="434.3" x2="293.8" y2="434.3"/>
						</g>
					</g>
				</g>
				<path class="st7" d="M361.7,376.9c0,7.2-5.8,13.1-13.1,13.1H65.9c-7.2,0-13.1-5.8-13.1-13.1V190.4c0-7.2,5.8-13.1,13.1-13.1
					h282.7c7.2,0,13.1,5.8,13.1,13.1V376.9z"/>
				<path class="st8" d="M348.6,177.4H65.9c-7.2,0-13.1,5.8-13.1,13.1v168.3h308.8V190.4C361.7,183.2,355.8,177.4,348.6,177.4z"/>
				<path class="st5" d="M348.6,185.6H65.9c-7.2,0-13.1,5.8-13.1,13.1v178.2c0,7.2,5.8,13.1,13.1,13.1h282.7
					c7.2,0,13.1-5.8,13.1-13.1V198.7C361.7,191.5,355.8,185.6,348.6,185.6z"/>
				<path class="st4" d="M361.7,358.9V191.3c0-7.2-5.8-13.1-13.1-13.1H65.9c-7.2,0-13.1,5.8-13.1,13.1v167.6"/>
				<polyline class="st8" points="52.8,198.7 52.8,358.7 361.7,358.7 361.7,198.7 				"/>
				<path class="st6" d="M361.7,376.9c0,7.2-5.8,13.1-13.1,13.1H65.9c-7.2,0-13.1-5.8-13.1-13.1V190.4c0-7.2,5.8-13.1,13.1-13.1
					h282.7c7.2,0,13.1,5.8,13.1,13.1V376.9z"/>
				<g>
					<line class="st6" x1="361.7" y1="358.7" x2="54.3" y2="358.7"/>
				</g>
				<g>
					<path class="st8" d="M213,377c-0.2-0.1-1.6-0.7-1.7-2.6c0-1.4,1-2.2,1.4-2.4c0.1,0,0.1-0.1,0.1-0.2c0-0.1,0-0.2-0.1-0.2
						c-0.9-1.4-2.4-1.5-2.8-1.5c-0.7-0.1-1.4,0.2-2,0.4c-0.3,0.1-0.6,0.2-0.7,0.2c-0.2,0-0.4-0.1-0.7-0.2c-0.4-0.2-1-0.4-1.6-0.4h0
						c-1.3,0-2.5,0.8-3.1,1.9c-1.2,2.2-0.5,5.5,0.9,7.5c0.5,0.8,1.3,1.9,2.4,1.9l0.1,0c0.5,0,0.8-0.2,1.1-0.3
						c0.3-0.1,0.6-0.3,1.1-0.3c0.5,0,0.8,0.1,1.1,0.3c0.3,0.1,0.7,0.3,1.2,0.3h0c1.1,0,1.8-1.1,2.4-1.9c0.6-0.9,0.9-1.7,1-2.1
						C213.2,377.2,213.2,377,213,377z"/>
					<path class="st8" d="M209.2,368.1c0.4-0.5,0.7-1.2,0.7-1.9c-0.6,0.1-1.2,0.5-1.6,1c-0.3,0.4-0.7,1.1-0.7,1.8
						C208.1,369,208.8,368.6,209.2,368.1z"/>
				</g>
			</g>
			<g>
				<path class="st2" d="M207.2,245c-22.8,0-42.5,13.1-52.2,32.2c9.6,19.1,29.4,32.2,52.2,32.2c22.8,0,42.6-13.1,52.2-32.2
					C249.8,258.1,230.1,245,207.2,245z"/>
				<g>
					<path class="st2" d="M219,277.2c0,6.5-5.3,11.8-11.8,11.8c-6.5,0-11.8-5.3-11.8-11.8c0-6.5,5.3-11.7,11.8-11.7
						C213.7,265.5,219,270.7,219,277.2z"/>
				</g>
			</g>
		</g>
		<g>
			<g>
				<path class="st2" d="M521.8,133.5c-0.7,2.3-3.2,3.5-5.5,2.8c-2.3-0.7-3.5-3.2-2.8-5.5c0.7-2.3,3.2-3.5,5.5-2.8
					C521.3,128.8,522.5,131.3,521.8,133.5z"/>
				<line class="st2" x1="530.6" y1="106.3" x2="521.8" y2="133.5"/>
			</g>
			<g>
				<path class="st2" d="M528.8,133.5c0.7,2.3,3.2,3.5,5.5,2.8c2.3-0.7,3.5-3.2,2.8-5.5c-0.7-2.3-3.2-3.5-5.5-2.8
					C529.3,128.8,528,131.3,528.8,133.5z"/>
				<line class="st2" x1="519.9" y1="106.3" x2="528.8" y2="133.5"/>
			</g>
		</g>
		<g>
			<g>
				<path class="st2" d="M416.2,150.3c-0.7,2.3-3.2,3.5-5.5,2.8c-2.3-0.7-3.5-3.2-2.8-5.5c0.7-2.3,3.2-3.5,5.5-2.8
					C415.7,145.6,416.9,148,416.2,150.3z"/>
				<line class="st2" x1="425" y1="123.1" x2="416.2" y2="150.3"/>
			</g>
			<g>
				<path class="st2" d="M423.2,150.3c0.7,2.3,3.2,3.5,5.5,2.8c2.3-0.7,3.5-3.2,2.8-5.5c-0.7-2.3-3.2-3.5-5.5-2.8
					C423.7,145.6,422.4,148,423.2,150.3z"/>
				<line class="st2" x1="414.3" y1="123.1" x2="423.2" y2="150.3"/>
			</g>
		</g>
		<g>
			<line class="st2" x1="66.1" y1="70.5" x2="120.6" y2="70.5"/>
			<line class="st2" x1="66.1" y1="81.1" x2="107" y2="81.1"/>
			<line class="st2" x1="66.1" y1="91.6" x2="120.6" y2="91.6"/>
			<line class="st2" x1="66.1" y1="102.1" x2="107" y2="102.1"/>
			<line class="st2" x1="66.1" y1="112.7" x2="120.6" y2="112.7"/>
		</g>
		<g>
			<g>
				<line class="st2" x1="388.3" y1="268.1" x2="377.8" y2="268.1"/>
				<line class="st2" x1="388.3" y1="254.3" x2="383.9" y2="254.3"/>
			</g>
			<g>
				<line class="st2" x1="388.3" y1="241.3" x2="377.8" y2="241.3"/>
				<line class="st2" x1="388.3" y1="227.4" x2="383.9" y2="227.4"/>
			</g>
			<g>
				<line class="st2" x1="388.3" y1="214.5" x2="377.8" y2="214.5"/>
				<line class="st2" x1="388.3" y1="200.6" x2="383.9" y2="200.7"/>
			</g>
			<g>
				<line class="st2" x1="388.3" y1="187.7" x2="377.8" y2="187.7"/>
				<line class="st2" x1="388.3" y1="173.8" x2="383.9" y2="173.8"/>
			</g>
			<g>
				<line class="st2" x1="388.3" y1="160.9" x2="377.8" y2="160.9"/>
				<line class="st2" x1="388.3" y1="147.1" x2="383.9" y2="147"/>
			</g>
			<g>
				<line class="st2" x1="388.3" y1="134.1" x2="377.8" y2="134.1"/>
				<line class="st2" x1="388.3" y1="120.2" x2="383.9" y2="120.3"/>
			</g>
		</g>
		<g>
			<polyline class="st2" points="310.4,104.5 314.6,108.8 328,95.5 			"/>
			<polyline class="st2" points="337.9,104.5 342.2,108.8 355.5,95.5 			"/>
			<polyline class="st2" points="365.4,104.5 369.7,108.8 383,95.5 			"/>
		</g>
		<g>
			<g>
				<g>
					<path class="st2" d="M208.2,94.3h-17.1v43.2h17.1c6.7,0,12.1,1.4,12.1,8v-39.2C220.3,99.7,214.9,94.3,208.2,94.3z"/>
					<path class="st2" d="M232.3,94.3h17.1v43.2h-17.1c-6.7,0-12.1,1.4-12.1,8v-39.2C220.3,99.7,225.7,94.3,232.3,94.3z"/>
					<g>
						<line class="st2" x1="233.7" y1="125.1" x2="240" y2="125.1"/>
						<line class="st2" x1="233.7" y1="116.2" x2="240" y2="116.2"/>
						<line class="st2" x1="233.7" y1="107.3" x2="240" y2="107.3"/>
					</g>
					<rect x="199.6" y="107.3" class="st2" width="8.5" height="10.2"/>
				</g>
			</g>
		</g>
		<g>
			<g>
				<line class="st2" x1="544.6" y1="58.4" x2="528.7" y2="74.3"/>
				<line class="st2" x1="532.4" y1="58.4" x2="516.6" y2="74.3"/>
				<line class="st2" x1="520.3" y1="58.4" x2="504.5" y2="74.3"/>
				<line class="st2" x1="508.2" y1="58.4" x2="492.3" y2="74.3"/>
				<line class="st2" x1="496.1" y1="58.4" x2="480.2" y2="74.3"/>
				<line class="st2" x1="484" y1="58.4" x2="468.1" y2="74.3"/>
				<line class="st2" x1="471.9" y1="58.4" x2="456" y2="74.3"/>
				<line class="st2" x1="459.8" y1="58.4" x2="443.9" y2="74.3"/>
				<line class="st2" x1="447.7" y1="58.4" x2="431.8" y2="74.3"/>
				<line class="st2" x1="435.5" y1="58.4" x2="419.7" y2="74.3"/>
				<line class="st2" x1="423.4" y1="58.4" x2="407.6" y2="74.3"/>
			</g>
			<polyline class="st2" points="544.6,69.3 544.6,74.3 539.6,74.3 			"/>
			<polyline class="st2" points="407.6,63.3 407.6,58.4 412.5,58.4 			"/>
		</g>
		<g>
			<path class="st9" d="M525.2,411.9V292.7c0-4.3-3.5-7.8-7.8-7.8H336.1c-4.3,0-7.8,3.5-7.8,7.8v119.2H525.2z"/>
			<path class="st9" d="M525.2,411.9V292.7c0-4.3-3.5-7.8-7.8-7.8H336.1c-4.3,0-7.8,3.5-7.8,7.8v119.2H525.2z"/>
			<path class="st10" d="M525.2,426.4V307.2c0-4.3-3.5-7.8-7.8-7.8H336.1c-4.3,0-7.8,3.5-7.8,7.8v119.2H525.2z"/>
			<path class="st7" d="M307.9,411.9v14.7c0,4.3,3.5,7.8,7.8,7.8h222.3c4.3,0,7.8-3.5,7.8-7.8v-14.7H307.9z"/>
			<path class="st1" d="M395.3,412.4v1.5c0,4.3,3.5,7.8,7.8,7.8h47.5c4.3,0,7.8-3.5,7.8-7.8v-1.5H395.3z"/>
			<path class="st11" d="M395.3,412.4v1.5c0,4.3,3.5,7.8,7.8,7.8h47.5c4.3,0,7.8-3.5,7.8-7.8v-1.5H395.3z"/>
			<path class="st1" d="M307.9,426.6c0,4.3,3.5,7.8,7.8,7.8h222.3c4.3,0,7.8-3.5,7.8-7.8v-0.1L307.9,426.6L307.9,426.6z"/>
			<path class="st6" d="M307.9,411.9v14.7c0,4.3,3.5,7.8,7.8,7.8h222.3c4.3,0,7.8-3.5,7.8-7.8v-14.7H307.9z"/>
			<path class="st6" d="M525.2,411.9V292.7c0-4.3-3.5-7.8-7.8-7.8H336.1c-4.3,0-7.8,3.5-7.8,7.8v119.2H525.2z"/>
		</g>
		<g>
			<g>
				<g>
					<g>
						<g>
							<polygon class="st7" points="404.1,373 390.1,342.9 426.8,274.9 463.5,342.9 449.5,373 							"/>
							<polygon class="st0" points="415.3,373 405.1,342.9 426.8,274.9 448.5,342.9 438.3,373 							"/>
							<path class="st4" d="M433.7,339.3c0,3.8-3.1,6.9-6.9,6.9c-3.8,0-6.9-3.1-6.9-6.9c0-3.8,3.1-6.9,6.9-6.9
								C430.6,332.4,433.7,335.5,433.7,339.3z"/>
						</g>
						<line class="st4" x1="426.8" y1="332.4" x2="426.8" y2="274.2"/>
					</g>
				</g>
				<polygon class="st8" points="453.1,391.3 400.5,391.3 404.1,373 449.5,373 				"/>
				<polygon class="st9" points="439.2,391.3 414.4,391.3 416.1,373 437.4,373 				"/>
			</g>
			<g>
				<g>
					<g>
						<g>
							<polygon class="st6" points="404.1,373 390.1,342.9 426.8,274.9 463.5,342.9 449.5,373 							"/>
							<path class="st12" d="M433.7,339.3c0,3.8-3.1,6.9-6.9,6.9c-3.8,0-6.9-3.1-6.9-6.9c0-3.8,3.1-6.9,6.9-6.9
								C430.6,332.4,433.7,335.5,433.7,339.3z"/>
						</g>
						<line class="st11" x1="426.8" y1="332.4" x2="426.8" y2="274.2"/>
					</g>
				</g>
				<polygon class="st6" points="453.1,391.3 400.5,391.3 404.1,373 449.5,373 				"/>
			</g>
		</g>
	</g>
	<g>
		<polyline class="st0" points="494.7,276.5 480.2,315.9 465.8,276.5 		"/>
		<polyline class="st4" points="494.7,276.5 480.2,315.9 477.1,276.5 		"/>
		<polyline class="st12" points="494.7,276.5 480.2,315.9 465.8,276.5 		"/>
		<g>
			<g>
				<g>
					<g>
						<polygon class="st4" points="494.7,276.5 465.7,276.5 465.7,86.6 494.7,86.6 						"/>
						<g>
							<path class="st4" d="M480.2,269.8c5.8-4.5,10.4-12.2,8.1-18.2c-1.3-3.5-4.5-7.7-8.1-11.8L480.2,269.8z"/>
						</g>
						<path class="st0" d="M465.7,100.5l0-21.4c0-8,6.5-14.5,14.5-14.5l0,0c8,0,14.5,6.5,14.5,14.5l0,21.4"/>
					</g>
				</g>
			</g>
			<g>
				<g>
					<g>
						<polygon class="st13" points="477.1,276.5 494.7,276.5 494.7,86.6 477.1,86.6 						"/>
						<path class="st4" d="M477,79.1l0,21.4l17.7,0l0-21.4c0-6-3.6-11.1-8.8-13.4C480.7,68,477.1,73.1,477,79.1z"/>
					</g>
				</g>
			</g>
			<g>
				<g>
					<g>
						<polyline class="st6" points="494.7,86.6 494.7,276.5 465.7,276.5 465.7,86.6 						"/>
						<path class="st6" d="M465.7,100.5l0-21.4c0-8,6.5-14.5,14.5-14.5l0,0c8,0,14.5,6.5,14.5,14.5l0,21.4"/>
					</g>
				</g>
			</g>
		</g>
	</g>
	<g>
		<g>
			<path class="st7" d="M243.9,466.1c-4,0-7.2-3.2-7.2-7.2V352.1c0-3.9,3.2-7.2,7.2-7.2h99.3c4,0,7.2,3.2,7.2,7.2V459
				c0,4-3.2,7.2-7.2,7.2H243.9z"/>
			<g>
				<path class="st5" d="M350.1,451.9"/>
				<polyline class="st5" points="287,431.8 273,417.8 238.9,451.9 				"/>
				<polyline class="st5" points="282.9,438.9 325.6,396.3 349.9,420.6 				"/>
			</g>
			<path class="st5" d="M277,385.9c0-0.2,0.1-0.3,0.1-0.4c0-5.4-4.4-9.8-9.8-9.8c-5.4,0-9.8,4.4-9.8,9.8h-0.5
				c-4.7,0-8.6,3.8-8.6,8.6c0,4.7,3.8,8.6,8.6,8.6h17.4c4.7,0,8.6-3.8,8.6-8.6C283,390.2,280.5,387,277,385.9z"/>
			<path class="st5" d="M318.8,371.6c0,5.1-4.2,9.3-9.3,9.3c-5.1,0-9.3-4.2-9.3-9.3c0-5.1,4.1-9.3,9.3-9.3
				C314.7,362.3,318.8,366.4,318.8,371.6z"/>
		</g>
		<g>
			<path class="st6" d="M243.9,466.1c-4,0-7.2-3.2-7.2-7.2V352.1c0-3.9,3.2-7.2,7.2-7.2h99.3c4,0,7.2,3.2,7.2,7.2V459
				c0,4-3.2,7.2-7.2,7.2H243.9z"/>
			<g>
				<path class="st6" d="M350.1,451.9"/>
				<polyline class="st6" points="287,431.8 273,417.8 238.9,451.9 				"/>
				<polyline class="st6" points="282.9,438.9 325.6,396.3 349.9,420.6 				"/>
			</g>
			<path class="st6" d="M277,385.9c0-0.2,0.1-0.3,0.1-0.4c0-5.4-4.4-9.8-9.8-9.8c-5.4,0-9.8,4.4-9.8,9.8h-0.5
				c-4.7,0-8.6,3.8-8.6,8.6c0,4.7,3.8,8.6,8.6,8.6h17.4c4.7,0,8.6-3.8,8.6-8.6C283,390.2,280.5,387,277,385.9z"/>
			<path class="st6" d="M318.8,371.6c0,5.1-4.2,9.3-9.3,9.3c-5.1,0-9.3-4.2-9.3-9.3c0-5.1,4.1-9.3,9.3-9.3
				C314.7,362.3,318.8,366.4,318.8,371.6z"/>
		</g>
	</g>
</g>
</svg>
