<?xml version="1.0" encoding="utf-8"?>
<!-- Generator: Adobe Illustrator 23.0.3, SVG Export Plug-In . SVG Version: 6.00 Build 0)  -->
<svg version="1.1" id="Layer_1" xmlns="http://www.w3.org/2000/svg" xmlns:xlink="http://www.w3.org/1999/xlink" x="0px" y="0px"
	 viewBox="0 0 600 600" style="enable-background:new 0 0 600 600;" xml:space="preserve">
<style type="text/css">
	.st0{fill:#DEF4FC;}
	.st1{fill:#6AB0E5;}
	.st2{fill:#AFD8F9;}
	.st3{fill:#5BA1E1;}
	.st4{fill:#288DE8;}
	.st5{fill:#E9F6FF;}
	.st6{fill:#C8DFF5;}
	.st7{fill:#2481D7;}
	.st8{fill:#FFFFFF;}
	.st9{fill:none;stroke:#C8DFF5;stroke-width:4;stroke-miterlimit:10;}
	.st10{fill:none;stroke:#2481D7;stroke-width:8;stroke-linecap:round;stroke-linejoin:round;stroke-miterlimit:10;}
	.st11{fill:none;stroke:#2481D7;stroke-width:4;stroke-linecap:round;stroke-linejoin:round;stroke-miterlimit:10;}
	.st12{fill:none;stroke:#2481D7;stroke-width:6;stroke-linecap:round;stroke-linejoin:round;stroke-miterlimit:10;}
	.st13{fill:none;stroke:#2481D7;stroke-width:4;stroke-linejoin:round;stroke-miterlimit:10;}
	.st14{fill:none;stroke:#FFFFFF;stroke-width:4;stroke-linecap:round;stroke-linejoin:round;stroke-miterlimit:10;}
	.st15{fill:none;stroke:#C8DFF5;stroke-width:4;stroke-linecap:round;stroke-miterlimit:10;}
</style>
<g>
	<g>
		<g>
			<path class="st0" d="M-4193,662.8v318C-4105.1,893-4105.1,750.6-4193,662.8z"/>
		</g>
	</g>
	<g>
		<g>
			<path class="st0" d="M-4511,662.8c-87.9,87.8-87.9,230.2,0,318L-4511,662.8z"/>
		</g>
	</g>
	<g>
		<g>
			<path class="st1" d="M-4164.9,768.8h-374.2c-8.9,0-16,7.2-16,16v246h406.3v-246C-4148.8,776-4156,768.8-4164.9,768.8z"/>
		</g>
	</g>
	<g>
		<g>
			<polygon class="st2" points="-4597.7,586.7 -4432.7,1030.9 -4271.3,1030.9 -4106.3,586.7 			"/>
		</g>
	</g>
	<g>
		<g>
			<polygon class="st3" points="-4530.1,768.8 -4432.7,1030.9 -4271.3,1030.9 -4173.9,768.8 			"/>
		</g>
	</g>
	<g>
		<g>
			<rect x="-4555.2" y="814.4" class="st3" width="405.1" height="21.3"/>
		</g>
	</g>
	<g>
		<g>
			<polygon class="st4" points="-4513.2,814.4 -4505.2,835.7 -4198.8,835.7 -4190.8,814.4 			"/>
		</g>
	</g>
	<g>
		<g>
			<polygon class="st0" points="-4473,586.7 -4391.8,1030.9 -4312.2,1030.9 -4231,586.7 			"/>
		</g>
	</g>
	<g>
		<g>
			<polygon class="st5" points="-4386.6,586.7 -4363.4,1030.9 -4340.6,1030.9 -4317.4,586.7 			"/>
		</g>
	</g>
	<g>
		<g>
			<path class="st6" d="M-4352,594.9c-60.6,0-117.6,23.6-160.4,66.5l2.8,2.8c42.1-42.1,98.1-65.3,157.6-65.3
				c59.5,0,115.5,23.2,157.6,65.3l2.8-2.8C-4234.4,618.5-4291.4,594.9-4352,594.9z"/>
		</g>
	</g>
	<g>
	</g>
	<g>
		<g>
			<path class="st6" d="M-4194.4,979.4c-42.1,42.1-98.1,65.3-157.6,65.3c-59.5,0-115.5-23.2-157.6-65.3l-2.8,2.8
				c42.8,42.9,99.8,66.5,160.4,66.5c60.6,0,117.6-23.6,160.4-66.5L-4194.4,979.4z"/>
		</g>
	</g>
	<g>
	</g>
	<g>
		<g>
			<path class="st6" d="M-4158.3,711.4l3.5-2c-0.7-1.2-1.3-2.3-2-3.5l-3.4,2C-4159.6,709.1-4159,710.2-4158.3,711.4z M-4162.4,704.5
				l3.4-2.1c-0.7-1.1-1.4-2.3-2.2-3.4l-3.4,2.2C-4163.8,702.3-4163.1,703.4-4162.4,704.5z M-4147.6,732.6l3.7-1.6
				c-0.5-1.2-1.1-2.5-1.6-3.7l-3.6,1.7C-4148.7,730.2-4148.2,731.4-4147.6,732.6z M-4154.5,718.3l3.5-1.9c-0.6-1.2-1.3-2.4-1.9-3.6
				l-3.5,1.9C-4155.7,716-4155.1,717.2-4154.5,718.3z M-4166.7,697.9l3.3-2.2c-0.8-1.1-1.5-2.2-2.3-3.3l-3.3,2.3
				C-4168.2,695.7-4167.4,696.8-4166.7,697.9z M-4171.2,691.3l3.2-2.3c-0.8-1.1-1.6-2.2-2.4-3.3l-3.2,2.4
				C-4172.8,689.2-4172,690.3-4171.2,691.3z M-4188.8,664.2c-0.9-1-1.9-1.9-2.8-2.9l-2.8,2.8c0.9,0.9,1.9,1.9,2.8,2.8L-4188.8,664.2
				z M-4186.2,672.8l3-2.7c-0.9-1-1.8-2-2.7-3l-2.9,2.7C-4188,670.9-4187.1,671.8-4186.2,672.8z M-4176,685l3.2-2.5
				c-0.8-1.1-1.7-2.1-2.5-3.2l-3.1,2.5C-4177.6,682.9-4176.8,683.9-4176,685z M-4181,678.8l3.1-2.6c-0.9-1-1.7-2.1-2.6-3.1l-3,2.6
				C-4182.7,676.8-4181.9,677.8-4181,678.8z M-4129.1,817.4l4-0.1c0-1.3-0.1-2.7-0.1-4l-4,0.2
				C-4129.2,814.7-4129.2,816-4129.1,817.4z M-4132,785.8l3.9-0.6c-0.2-1.3-0.4-2.7-0.7-4l-3.9,0.7
				C-4132.4,783.2-4132.2,784.5-4132,785.8z M-4130.9,793.6l4-0.5c-0.2-1.3-0.4-2.7-0.5-4l-4,0.6
				C-4131.2,791-4131,792.3-4130.9,793.6z M-4130,801.5l4-0.4c-0.1-1.3-0.3-2.7-0.4-4l-4,0.4C-4130.3,798.9-4130.1,800.2-4130,801.5
				z M-4194.4,979.4l2.8,2.8l1-1l-2.8-2.8L-4194.4,979.4z M-4129.4,809.4l4-0.2c-0.1-1.3-0.2-2.7-0.3-4l-4,0.3
				C-4129.6,806.8-4129.5,808.1-4129.4,809.4z M-4137.1,762.5l3.9-1.1c-0.4-1.3-0.7-2.6-1.1-3.9l-3.8,1.1
				C-4137.8,760-4137.4,761.3-4137.1,762.5z M-4133.4,778l3.9-0.8c-0.3-1.3-0.5-2.6-0.8-4l-3.9,0.9
				C-4133.9,775.4-4133.7,776.7-4133.4,778z M-4141.8,747.4l3.8-1.3c-0.4-1.3-0.9-2.5-1.4-3.8l-3.7,1.4
				C-4142.7,744.9-4142.3,746.2-4141.8,747.4z M-4139.3,754.9l3.8-1.2c-0.4-1.3-0.8-2.6-1.2-3.8l-3.8,1.3
				C-4140.1,752.4-4139.7,753.7-4139.3,754.9z M-4135.1,770.2l3.9-0.9c-0.3-1.3-0.6-2.6-1-3.9l-3.9,1
				C-4135.7,767.7-4135.4,768.9-4135.1,770.2z M-4144.6,740l3.7-1.5c-0.5-1.3-1-2.5-1.5-3.7l-3.7,1.5
				C-4145.6,737.5-4145.1,738.7-4144.6,740z M-4150.9,725.4l3.6-1.7c-0.6-1.2-1.2-2.4-1.8-3.6l-3.6,1.8
				C-4152.1,723-4151.5,724.2-4150.9,725.4z M-4134.9,872.4l3.9,0.9c0.3-1.3,0.6-2.6,0.9-3.9l-3.9-0.8
				C-4134.3,869.8-4134.6,871.1-4134.9,872.4z M-4136.8,880.1l3.9,1c0.4-1.3,0.7-2.6,1-3.9l-3.9-1
				C-4136.1,877.5-4136.5,878.8-4136.8,880.1z M-4133.2,864.6l3.9,0.8c0.3-1.3,0.5-2.6,0.7-4l-3.9-0.7
				C-4132.7,862.1-4133,863.4-4133.2,864.6z M-4139,887.7l3.8,1.2c0.4-1.3,0.8-2.6,1.2-3.9l-3.8-1.1
				C-4138.2,885.2-4138.6,886.4-4139,887.7z M-4144.2,902.6l3.7,1.4c0.5-1.3,1-2.5,1.4-3.8l-3.8-1.4
				C-4143.3,900.2-4143.7,901.4-4144.2,902.6z M-4141.5,895.2l3.8,1.3c0.4-1.3,0.9-2.5,1.3-3.8l-3.8-1.2
				C-4140.6,892.7-4141,894-4141.5,895.2z M-4129.4,833.2l4,0.2c0.1-1.3,0.1-2.7,0.2-4l-4-0.1
				C-4129.3,830.6-4129.3,831.9-4129.4,833.2z M-4131.9,856.8l4,0.6c0.2-1.3,0.4-2.7,0.6-4l-4-0.6
				C-4131.4,854.2-4131.6,855.5-4131.9,856.8z M-4125.1,821.3l-4,0l0,0.5c0,1.2,0,2.3,0,3.5l4,0.1c0-1.2,0-2.4,0-3.6L-4125.1,821.3z
				 M-4129.9,841.1l4,0.3c0.1-1.3,0.2-2.7,0.3-4l-4-0.3C-4129.7,838.5-4129.8,839.8-4129.9,841.1z M-4130.7,849l4,0.5
				c0.2-1.3,0.3-2.7,0.5-4l-4-0.4C-4130.4,846.4-4130.6,847.7-4130.7,849z M-4185.3,969.8l3,2.7c0.9-1,1.8-2,2.7-3l-3-2.6
				C-4183.6,967.8-4184.4,968.8-4185.3,969.8z M-4147.2,910l3.7,1.6c0.5-1.2,1.1-2.5,1.6-3.7l-3.7-1.5
				C-4146.2,907.5-4146.7,908.8-4147.2,910z M-4170.5,951.2l3.3,2.3c0.8-1.1,1.6-2.2,2.3-3.3l-3.3-2.3
				C-4169,949.1-4169.7,950.2-4170.5,951.2z M-4180.2,963.7l3.1,2.6c0.9-1,1.7-2.1,2.5-3.1l-3.1-2.5
				C-4178.5,961.7-4179.3,962.7-4180.2,963.7z M-4190.7,975.6l2.9,2.8c0.9-1,1.8-2,2.8-2.9l-2.9-2.7
				C-4188.9,973.7-4189.8,974.6-4190.7,975.6z M-4166,944.7l3.3,2.2c0.7-1.1,1.5-2.2,2.2-3.4l-3.4-2.2
				C-4164.6,942.5-4165.3,943.6-4166,944.7z M-4175.2,957.6l3.2,2.4c0.8-1.1,1.6-2.1,2.4-3.2l-3.2-2.4
				C-4173.6,955.5-4174.4,956.5-4175.2,957.6z M-4154,924.3l3.6,1.8c0.6-1.2,1.2-2.4,1.8-3.6l-3.6-1.8
				C-4152.8,921.9-4153.4,923.1-4154,924.3z M-4161.8,938l3.4,2.1c0.7-1.1,1.4-2.3,2.1-3.5l-3.4-2
				C-4160.4,935.8-4161.1,936.9-4161.8,938z M-4150.5,917.2l3.6,1.7c0.6-1.2,1.1-2.4,1.7-3.7l-3.6-1.6
				C-4149.4,914.8-4149.9,916-4150.5,917.2z M-4157.8,931.2l3.5,2c0.7-1.2,1.3-2.3,1.9-3.5l-3.5-1.9
				C-4156.5,928.9-4157.1,930.1-4157.8,931.2z"/>
		</g>
	</g>
	<g>
	</g>
	<g>
		<g>
			<path class="st6" d="M-4556.8,733.6l-3.7-1.6c-0.5,1.2-1.1,2.5-1.6,3.7l3.7,1.5C-4557.8,736-4557.3,734.8-4556.8,733.6z
				 M-4569.1,771.2l-3.9-0.9c-0.3,1.3-0.6,2.6-0.9,3.9l3.9,0.8C-4569.7,773.8-4569.4,772.5-4569.1,771.2z M-4567.2,763.5l-3.9-1
				c-0.4,1.3-0.7,2.6-1,3.9l3.9,1C-4567.9,766.1-4567.5,764.8-4567.2,763.5z M-4562.5,748.4l-3.8-1.3c-0.4,1.3-0.9,2.5-1.3,3.8
				l3.8,1.2C-4563.4,750.9-4563,749.6-4562.5,748.4z M-4559.8,740.9l-3.7-1.4c-0.5,1.3-1,2.5-1.4,3.8l3.8,1.4
				C-4560.7,743.4-4560.3,742.2-4559.8,740.9z M-4565,755.9l-3.8-1.2c-0.4,1.3-0.8,2.6-1.2,3.9l3.8,1.1
				C-4565.8,758.4-4565.4,757.2-4565,755.9z M-4574.1,802.5l-4-0.3c-0.1,1.3-0.2,2.7-0.3,4l4,0.3
				C-4574.3,805.1-4574.2,803.8-4574.1,802.5z M-4570.8,778.9l-3.9-0.8c-0.3,1.3-0.5,2.6-0.7,4l3.9,0.7
				C-4571.3,781.5-4571,780.2-4570.8,778.9z M-4574.6,810.4l-4-0.2c-0.1,1.3-0.1,2.7-0.2,4l4,0.1
				C-4574.7,813-4574.7,811.7-4574.6,810.4z M-4573.3,794.6l-4-0.5c-0.2,1.3-0.3,2.7-0.5,4l4,0.4
				C-4573.6,797.2-4573.4,795.9-4573.3,794.6z M-4538,698.9l-3.3-2.2c-0.7,1.1-1.5,2.2-2.2,3.4l3.4,2.2
				C-4539.4,701.1-4538.7,700-4538,698.9z M-4518.7,673.8l-3-2.7c-0.9,1-1.8,2-2.7,3l3,2.6C-4520.4,675.8-4519.6,674.8-4518.7,673.8
				z M-4523.9,679.8l-3.1-2.6c-0.9,1-1.7,2.1-2.5,3.1l3.1,2.5C-4525.5,681.9-4524.7,680.8-4523.9,679.8z M-4553.5,726.4l-3.6-1.7
				c-0.6,1.2-1.1,2.4-1.7,3.7l3.6,1.6C-4554.6,728.8-4554.1,727.6-4553.5,726.4z M-4509.6,664.2l-2.8-2.8l-1,1l2.8,2.8
				L-4509.6,664.2z M-4528.8,686l-3.2-2.4c-0.8,1.1-1.6,2.1-2.4,3.2l3.2,2.4C-4530.4,688.1-4529.6,687.1-4528.8,686z M-4513.3,668
				l-2.9-2.8c-0.9,1-1.8,2-2.8,2.9l2.9,2.7C-4515.1,669.9-4514.2,669-4513.3,668z M-4550,719.3l-3.5-1.8c-0.6,1.2-1.2,2.4-1.8,3.6
				l3.6,1.8C-4551.2,721.7-4550.6,720.5-4550,719.3z M-4546.2,712.4l-3.5-2c-0.7,1.2-1.3,2.3-1.9,3.5l3.5,1.9
				C-4547.5,714.7-4546.9,713.5-4546.2,712.4z M-4574.9,821.8c0-1.2,0-2.3,0-3.5l-4-0.1c0,1.2,0,2.4,0,3.6l0,0.5l4,0L-4574.9,821.8z
				 M-4533.5,692.4l-3.3-2.3c-0.8,1.1-1.6,2.2-2.3,3.3l3.3,2.3C-4535,694.5-4534.3,693.4-4533.5,692.4z M-4542.2,705.5l-3.4-2.1
				c-0.7,1.1-1.4,2.3-2.1,3.5l3.4,2C-4543.6,707.8-4542.9,706.7-4542.2,705.5z M-4572.2,786.7l-4-0.6c-0.2,1.3-0.4,2.7-0.6,4l4,0.6
				C-4572.6,789.3-4572.4,788-4572.2,786.7z M-4537.3,945.7l-3.3,2.2c0.8,1.1,1.5,2.2,2.3,3.3l3.3-2.3
				C-4535.8,947.9-4536.6,946.8-4537.3,945.7z M-4541.6,939l-3.4,2.1c0.7,1.1,1.4,2.3,2.2,3.4l3.4-2.2
				C-4540.2,941.3-4540.9,940.2-4541.6,939z M-4545.7,932.2l-3.5,2c0.7,1.2,1.3,2.3,2,3.5l3.4-2
				C-4544.4,934.5-4545,933.4-4545.7,932.2z M-4549.5,925.3l-3.5,1.9c0.6,1.2,1.3,2.4,1.9,3.6l3.5-1.9
				C-4548.3,927.6-4548.9,926.4-4549.5,925.3z M-4553.1,918.2l-3.6,1.7c0.6,1.2,1.2,2.4,1.8,3.6l3.6-1.8
				C-4551.9,920.5-4552.5,919.4-4553.1,918.2z M-4532.8,952.2l-3.2,2.3c0.8,1.1,1.6,2.2,2.4,3.3l3.2-2.4
				C-4531.2,954.4-4532,953.3-4532.8,952.2z M-4556.4,910.9l-3.7,1.6c0.5,1.2,1.1,2.5,1.6,3.7l3.6-1.7
				C-4555.3,913.4-4555.8,912.2-4556.4,910.9z M-4512.4,976.6l-2.9,2.8c0.9,1,1.9,1.9,2.8,2.9l2.8-2.8
				C-4510.5,978.5-4511.5,977.5-4512.4,976.6z M-4517.8,970.8l-3,2.7c0.9,1,1.8,2,2.7,3l2.9-2.7
				C-4516,972.7-4516.9,971.8-4517.8,970.8z M-4523,964.8l-3.1,2.6c0.9,1,1.7,2.1,2.6,3.1l3-2.6
				C-4521.3,966.8-4522.1,965.8-4523,964.8z M-4528,958.6l-3.2,2.5c0.8,1.1,1.7,2.1,2.5,3.2l3.1-2.5
				C-4526.3,960.7-4527.2,959.6-4528,958.6z M-4562.2,896.2l-3.8,1.3c0.4,1.3,0.9,2.5,1.4,3.8l3.7-1.4
				C-4561.3,898.7-4561.7,897.4-4562.2,896.2z M-4573.1,849.9l-4,0.5c0.2,1.3,0.4,2.7,0.5,4l4-0.6
				C-4572.8,852.6-4573,851.3-4573.1,849.9z M-4572,857.8l-3.9,0.6c0.2,1.3,0.4,2.7,0.7,4l3.9-0.7
				C-4571.6,860.4-4571.8,859.1-4572,857.8z M-4570.6,865.6l-3.9,0.8c0.3,1.3,0.5,2.6,0.8,4l3.9-0.9
				C-4570.1,868.2-4570.3,866.9-4570.6,865.6z M-4574,842.1l-4,0.4c0.1,1.3,0.3,2.7,0.4,4l4-0.4
				C-4573.7,844.7-4573.9,843.4-4574,842.1z M-4574.6,834.2l-4,0.2c0.1,1.3,0.2,2.7,0.3,4l4-0.3
				C-4574.4,836.8-4574.5,835.5-4574.6,834.2z M-4574.9,826.2l-4,0.1c0,1.3,0.1,2.7,0.1,4l4-0.2
				C-4574.8,828.9-4574.8,827.5-4574.9,826.2z M-4559.4,903.6l-3.7,1.5c0.5,1.3,1,2.5,1.5,3.7l3.7-1.5
				C-4558.4,906.1-4558.9,904.8-4559.4,903.6z M-4568.9,873.3l-3.9,0.9c0.3,1.3,0.6,2.6,1,3.9l3.9-1
				C-4568.3,875.9-4568.6,874.6-4568.9,873.3z M-4564.7,888.6l-3.8,1.2c0.4,1.3,0.8,2.6,1.2,3.8l3.8-1.3
				C-4563.9,891.2-4564.3,889.9-4564.7,888.6z M-4566.9,881l-3.9,1.1c0.4,1.3,0.7,2.6,1.1,3.9l3.8-1.1
				C-4566.2,883.6-4566.6,882.3-4566.9,881z"/>
		</g>
	</g>
	<g>
	</g>
	<g>
	</g>
	<g>
	</g>
	<g>
		<g>
			
				<rect x="-4504.7" y="658" transform="matrix(0.7071 -0.7071 0.7071 0.7071 -1793.3656 -2987.2854)" class="st6" width="4" height="26.3"/>
		</g>
	</g>
	<g>
		<g>
			
				<rect x="-4501.9" y="678.4" transform="matrix(0.7071 -0.7071 0.7071 0.7071 -1797.2307 -2978.0105)" class="st6" width="17.1" height="4"/>
		</g>
	</g>
	<g>
		<g>
			
				<rect x="-4203.3" y="959.3" transform="matrix(0.7071 -0.7071 0.7071 0.7071 -1918.1731 -2685.9753)" class="st6" width="4" height="26.3"/>
		</g>
	</g>
	<g>
		<g>
			
				<rect x="-4219.2" y="961.2" transform="matrix(0.707 -0.7072 0.7072 0.707 -1914.6211 -2695.449)" class="st6" width="17.1" height="4"/>
		</g>
	</g>
	<g>
		<g>
			
				<rect x="-4515.8" y="970.5" transform="matrix(0.7071 -0.7071 0.7071 0.7071 -2006.4247 -2899.0334)" class="st6" width="26.3" height="4"/>
		</g>
	</g>
	<g>
		<g>
			
				<rect x="-4495.4" y="954.6" transform="matrix(0.7071 -0.7071 0.7071 0.7071 -1997.1356 -2895.1858)" class="st6" width="4" height="17.1"/>
		</g>
	</g>
	<g>
		<g>
			
				<rect x="-4214.5" y="669.1" transform="matrix(0.7072 -0.707 0.707 0.7072 -1704.8353 -2774.0269)" class="st6" width="26.3" height="4"/>
		</g>
	</g>
	<g>
		<g>
			
				<rect x="-4212.6" y="671.9" transform="matrix(0.7071 -0.7071 0.7071 0.7071 -1714.4375 -2778.1016)" class="st6" width="4" height="17.1"/>
		</g>
	</g>
	<g>
	</g>
	<g>
		<g>
			<rect x="-4578.2" y="819.8" class="st6" width="26.3" height="4"/>
		</g>
	</g>
	<g>
		<g>
			<rect x="-4152.1" y="819.8" class="st6" width="26.3" height="4"/>
		</g>
	</g>
	<g>
		<g>
			<rect x="-4354" y="1021.7" class="st6" width="4" height="26.3"/>
		</g>
	</g>
	<g>
		<g>
			<rect x="-4360.5" y="1019.7" class="st6" width="17.1" height="4"/>
		</g>
	</g>
	<g>
		<g>
			<rect x="-4354" y="595.6" class="st6" width="4" height="26.3"/>
		</g>
	</g>
	<g>
		<g>
			<rect x="-4360.5" y="619.9" class="st6" width="17.1" height="4"/>
		</g>
	</g>
	<g>
		<g>
			<path class="st6" d="M-4415.9,887.9l-3.9,0.7l0.7,3.9l3.9-0.7L-4415.9,887.9z M-4411.6,911.6l-3.9,0.7l0.7,3.9l3.9-0.7
				L-4411.6,911.6z M-4414.4,895.8l-3.9,0.7l0.7,3.9l3.9-0.7L-4414.4,895.8z M-4413,903.7l-3.9,0.7l0.7,3.9l3.9-0.7L-4413,903.7z
				 M-4410.1,919.4l-3.9,0.7l0.7,3.9l3.9-0.7L-4410.1,919.4z M-4408.7,927.3l-3.9,0.7l0.7,3.9l3.9-0.7L-4408.7,927.3z
				 M-4417.3,880.1l-3.9,0.7l0.7,3.9l3.9-0.7L-4417.3,880.1z M-4423.1,848.6l-3.9,0.7l0.7,3.9l3.9-0.7L-4423.1,848.6z
				 M-4424.5,840.7l-3.9,0.7l0.7,3.9l3.9-0.7L-4424.5,840.7z M-4426,832.9l-3.9,0.7l0.7,3.9l3.9-0.7L-4426,832.9z M-4418.8,872.2
				l-3.9,0.7l0.7,3.9l3.9-0.7L-4418.8,872.2z M-4421.6,856.5l-3.9,0.7l0.7,3.9l3.9-0.7L-4421.6,856.5z M-4407.2,935.2l-3.9,0.7
				l0.7,3.9l3.9-0.7L-4407.2,935.2z M-4420.2,864.3l-3.9,0.7l0.7,3.9l3.9-0.7L-4420.2,864.3z M-4394.3,1006l-3.9,0.7l0.7,3.9
				l3.9-0.7L-4394.3,1006z M-4391.4,1021.7l-3.9,0.7l0.7,3.9l3.9-0.7L-4391.4,1021.7z M-4427.4,825l-3.9,0.7l0.7,3.9l3.9-0.7
				L-4427.4,825z M-4391.8,1029.9l-2.1,0.4l0.5,2.6h4.7v-4h-3.1V1029.9z M-4392.8,1013.9l-3.9,0.7l0.7,3.9l3.9-0.7L-4392.8,1013.9z
				 M-4368.7,1032.9h4v-4h-4V1032.9z M-4376.7,1032.9h4v-4h-4V1032.9z M-4384.7,1032.9h4v-4h-4V1032.9z M-4397.2,990.2l-3.9,0.7
				l0.7,3.9l3.9-0.7L-4397.2,990.2z M-4360.7,1032.9h4v-4h-4V1032.9z M-4395.7,998.1l-3.9,0.7l0.7,3.9l3.9-0.7L-4395.7,998.1z
				 M-4404.4,950.9l-3.9,0.7l0.7,3.9l3.9-0.7L-4404.4,950.9z M-4401.5,966.6l-3.9,0.7l0.7,3.9l3.9-0.7L-4401.5,966.6z M-4405.8,943
				l-3.9,0.7l0.7,3.9l3.9-0.7L-4405.8,943z M-4400,974.5l-3.9,0.7l0.7,3.9l3.9-0.7L-4400,974.5z M-4398.6,982.4l-3.9,0.7l0.7,3.9
				l3.9-0.7L-4398.6,982.4z M-4402.9,958.8l-3.9,0.7l0.7,3.9l3.9-0.7L-4402.9,958.8z M-4457.6,659.7l-3.9,0.7l0.7,3.9l3.9-0.7
				L-4457.6,659.7z M-4459.1,651.9l-3.9,0.7l0.7,3.9l3.9-0.7L-4459.1,651.9z M-4460.5,644l-3.9,0.7l0.7,3.9l3.9-0.7L-4460.5,644z
				 M-4456.2,667.6l-3.9,0.7l0.7,3.9l3.9-0.7L-4456.2,667.6z M-4451.9,691.2l-3.9,0.7l0.7,3.9l3.9-0.7L-4451.9,691.2z
				 M-4454.8,675.5l-3.9,0.7l0.7,3.9l3.9-0.7L-4454.8,675.5z M-4453.3,683.3l-3.9,0.7l0.7,3.9l3.9-0.7L-4453.3,683.3z
				 M-4467.7,604.6l-3.9,0.7l0.7,3.9l3.9-0.7L-4467.7,604.6z M-4428.8,817.1l-3.9,0.7l0.7,3.9l3.9-0.7L-4428.8,817.1z
				 M-4469.2,596.8l-3.9,0.7l0.7,3.9l3.9-0.7L-4469.2,596.8z M-4470.6,588.9l-3.9,0.7l0.7,3.9l3.9-0.7L-4470.6,588.9z
				 M-4466.3,612.5l-3.9,0.7l0.7,3.9l3.9-0.7L-4466.3,612.5z M-4463.4,628.3l-3.9,0.7l0.7,3.9l3.9-0.7L-4463.4,628.3z
				 M-4464.8,620.4l-3.9,0.7l0.7,3.9l3.9-0.7L-4464.8,620.4z M-4462,636.1l-3.9,0.7l0.7,3.9l3.9-0.7L-4462,636.1z M-4450.4,699.1
				l-3.9,0.7l0.7,3.9l3.9-0.7L-4450.4,699.1z M-4438.9,762l-3.9,0.7l0.7,3.9l3.9-0.7L-4438.9,762z M-4436,777.8l-3.9,0.7l0.7,3.9
				l3.9-0.7L-4436,777.8z M-4437.5,769.9l-3.9,0.7l0.7,3.9l3.9-0.7L-4437.5,769.9z M-4434.6,785.6l-3.9,0.7l0.7,3.9l3.9-0.7
				L-4434.6,785.6z M-4433.2,793.5l-3.9,0.7l0.7,3.9l3.9-0.7L-4433.2,793.5z M-4430.3,809.2l-3.9,0.7l0.7,3.9l3.9-0.7L-4430.3,809.2
				z M-4431.7,801.4l-3.9,0.7l0.7,3.9l3.9-0.7L-4431.7,801.4z M-4444.7,730.6l-3.9,0.7l0.7,3.9l3.9-0.7L-4444.7,730.6z M-4449,706.9
				l-3.9,0.7l0.7,3.9l3.9-0.7L-4449,706.9z M-4446.1,722.7l-3.9,0.7l0.7,3.9l3.9-0.7L-4446.1,722.7z M-4447.6,714.8l-3.9,0.7
				l0.7,3.9l3.9-0.7L-4447.6,714.8z M-4441.8,746.3l-3.9,0.7l0.7,3.9l3.9-0.7L-4441.8,746.3z M-4443.2,738.4l-3.9,0.7l0.7,3.9
				l3.9-0.7L-4443.2,738.4z M-4440.4,754.2l-3.9,0.7l0.7,3.9l3.9-0.7L-4440.4,754.2z M-4258.1,724.1l3.9,0.7l0.7-3.9l-3.9-0.7
				L-4258.1,724.1z M-4262.5,747.7l3.9,0.7l0.7-3.9l-3.9-0.7L-4262.5,747.7z M-4263.9,755.5l3.9,0.7l0.7-3.9l-3.9-0.7L-4263.9,755.5
				z M-4261,739.8l3.9,0.7l0.7-3.9l-3.9-0.7L-4261,739.8z M-4259.6,731.9l3.9,0.7l0.7-3.9l-3.9-0.7L-4259.6,731.9z M-4255.3,708.3
				l3.9,0.7l0.7-3.9l-3.9-0.7L-4255.3,708.3z M-4265.3,763.4l3.9,0.7l0.7-3.9l-3.9-0.7L-4265.3,763.4z M-4256.7,716.2l3.9,0.7
				l0.7-3.9l-3.9-0.7L-4256.7,716.2z M-4272.5,802.8l3.9,0.7l0.7-3.9l-3.9-0.7L-4272.5,802.8z M-4274,810.6l3.9,0.7l0.7-3.9
				l-3.9-0.7L-4274,810.6z M-4253.8,700.5l3.9,0.7l0.7-3.9l-3.9-0.7L-4253.8,700.5z M-4275.4,818.5l3.9,0.7l0.7-3.9l-3.9-0.7
				L-4275.4,818.5z M-4269.6,787l3.9,0.7l0.7-3.9l-3.9-0.7L-4269.6,787z M-4268.2,779.2l3.9,0.7l0.7-3.9l-3.9-0.7L-4268.2,779.2z
				 M-4266.8,771.3l3.9,0.7l0.7-3.9l-3.9-0.7L-4266.8,771.3z M-4271.1,794.9l3.9,0.7l0.7-3.9l-3.9-0.7L-4271.1,794.9z
				 M-4243.7,645.4l3.9,0.7l0.7-3.9l-3.9-0.7L-4243.7,645.4z M-4238,613.9l3.9,0.7l0.7-3.9l-3.9-0.7L-4238,613.9z M-4239.4,621.8
				l3.9,0.7l0.7-3.9l-3.9-0.7L-4239.4,621.8z M-4240.9,629.6l3.9,0.7l0.7-3.9l-3.9-0.7L-4240.9,629.6z M-4235.1,598.2l3.9,0.7
				l0.7-3.9l-3.9-0.7L-4235.1,598.2z M-4236.5,606l3.9,0.7l0.7-3.9l-3.9-0.7L-4236.5,606z M-4232.9,586.4l-0.7,3.9l3.9,0.7l0.7-3.9
				L-4232.9,586.4z M-4242.3,637.5l3.9,0.7l0.7-3.9l-3.9-0.7L-4242.3,637.5z M-4252.4,692.6l3.9,0.7l0.7-3.9l-3.9-0.7L-4252.4,692.6
				z M-4276.8,826.4l3.9,0.7l0.7-3.9l-3.9-0.7L-4276.8,826.4z M-4248.1,669l3.9,0.7l0.7-3.9l-3.9-0.7L-4248.1,669z M-4250.9,684.7
				l3.9,0.7l0.7-3.9l-3.9-0.7L-4250.9,684.7z M-4249.5,676.9l3.9,0.7l0.7-3.9l-3.9-0.7L-4249.5,676.9z M-4246.6,661.1l3.9,0.7
				l0.7-3.9l-3.9-0.7L-4246.6,661.1z M-4245.2,653.2l3.9,0.7l0.7-3.9l-3.9-0.7L-4245.2,653.2z M-4301.3,960.1l3.9,0.7l0.7-3.9
				l-3.9-0.7L-4301.3,960.1z M-4307.1,991.6l3.9,0.7l0.7-3.9l-3.9-0.7L-4307.1,991.6z M-4299.9,952.3l3.9,0.7l0.7-3.9l-3.9-0.7
				L-4299.9,952.3z M-4308.5,999.5l3.9,0.7l0.7-3.9l-3.9-0.7L-4308.5,999.5z M-4304.2,975.9l3.9,0.7l0.7-3.9l-3.9-0.7L-4304.2,975.9
				z M-4352.7,1032.9h4v-4h-4V1032.9z M-4302.8,968l3.9,0.7l0.7-3.9l-3.9-0.7L-4302.8,968z M-4310,1007.4l3.9,0.7l0.7-3.9l-3.9-0.7
				L-4310,1007.4z M-4305.6,983.8l3.9,0.7l0.7-3.9l-3.9-0.7L-4305.6,983.8z M-4336.7,1032.9h4v-4h-4V1032.9z M-4311.4,1015.2
				l3.9,0.7l0.7-3.9l-3.9-0.7L-4311.4,1015.2z M-4328.7,1032.9h4v-4h-4V1032.9z M-4344.7,1032.9h4v-4h-4V1032.9z M-4312.8,1023.1
				l3.9,0.7l0.7-3.9l-3.9-0.7L-4312.8,1023.1z M-4314.2,1030.5l1.5,0.3v2.1h2.1l0.9-5.1l-3.9-0.7L-4314.2,1030.5z M-4320.7,1032.9h4
				v-4h-4V1032.9z M-4291.2,905.1l3.9,0.7l0.7-3.9l-3.9-0.7L-4291.2,905.1z M-4284,865.7l3.9,0.7l0.7-3.9l-3.9-0.7L-4284,865.7z
				 M-4298.4,944.4l3.9,0.7l0.7-3.9l-3.9-0.7L-4298.4,944.4z M-4286.9,881.5l3.9,0.7l0.7-3.9l-3.9-0.7L-4286.9,881.5z
				 M-4279.7,842.1l3.9,0.7l0.7-3.9l-3.9-0.7L-4279.7,842.1z M-4288.4,889.3l3.9,0.7l0.7-3.9l-3.9-0.7L-4288.4,889.3z M-4281.2,850
				l3.9,0.7l0.7-3.9l-3.9-0.7L-4281.2,850z M-4282.6,857.8l3.9,0.7l0.7-3.9l-3.9-0.7L-4282.6,857.8z M-4285.5,873.6l3.9,0.7l0.7-3.9
				l-3.9-0.7L-4285.5,873.6z M-4295.6,928.7l3.9,0.7l0.7-3.9l-3.9-0.7L-4295.6,928.7z M-4294.1,920.8l3.9,0.7l0.7-3.9l-3.9-0.7
				L-4294.1,920.8z M-4289.8,897.2l3.9,0.7l0.7-3.9l-3.9-0.7L-4289.8,897.2z M-4297,936.5l3.9,0.7l0.7-3.9l-3.9-0.7L-4297,936.5z
				 M-4292.7,912.9l3.9,0.7l0.7-3.9l-3.9-0.7L-4292.7,912.9z M-4278.3,834.2l3.9,0.7l0.7-3.9l-3.9-0.7L-4278.3,834.2z"/>
		</g>
	</g>
	<g>
		<g>
			<polygon class="st6" points="-4108.2,586 -4272.7,1028.9 -4431.3,1028.9 -4595.8,586 -4599.6,587.4 -4434.1,1032.9 
				-4269.9,1032.9 -4104.4,587.4 			"/>
		</g>
	</g>
	<g>
		<g>
			<path class="st2" d="M-4164.9,768.8h-374.2c-8.9,0-16,7.2-16,16v29.5h406.3v-29.5C-4148.8,776-4156,768.8-4164.9,768.8z"/>
		</g>
	</g>
	<g>
		<g>
			<path class="st6" d="M-4164.9,768.8h-374.2c-8.9,0-16,7.2-16,16v17h406.3v-17C-4148.8,776-4156,768.8-4164.9,768.8z"/>
		</g>
	</g>
	<g>
		<g>
			<path class="st7" d="M-4164.9,766.8h-374.2c-9.9,0-18,8.1-18,18v29.5c0,1.1,0.9,2,2,2h406.3c1.1,0,2-0.9,2-2v-29.5
				C-4146.8,774.9-4154.9,766.8-4164.9,766.8z M-4150.8,812.4h-402.3v-27.5c0-7.7,6.3-14,14-14h374.2c7.7,0,14,6.3,14,14V812.4z"/>
		</g>
	</g>
	<g>
		<g>
			<path class="st8" d="M-4597.4,1030.9v30.4c0,8.9,7.2,16,16,16h458.7c8.9,0,16-7.2,16-16v-30.4H-4597.4z"/>
		</g>
	</g>
	<g>
		<g>
			<path class="st5" d="M-4417.1,1032v3.2c0,8.9,7.2,16,16,16h98.1c8.9,0,16-7.2,16-16v-3.2H-4417.1z"/>
		</g>
	</g>
	<g>
		<g>
			<path class="st7" d="M-4286.9,1030h-130.2c-1.1,0-2,0.9-2,2v3.2c0,10,8.1,18,18,18h98.1c10,0,18-8.1,18-18v-3.2
				C-4284.9,1030.9-4285.8,1030-4286.9,1030z M-4288.9,1035.2c0,7.7-6.3,14-14,14h-98.1c-7.7,0-14-6.3-14-14v-1.2h126.2V1035.2z"/>
		</g>
	</g>
	<g>
		<g>
			<path class="st5" d="M-4597.4,1061.1v0.2c0,8.9,7.2,16,16,16h458.7c8.9,0,16-7.2,16-16v-0.2H-4597.4z"/>
		</g>
	</g>
	<g>
		<g>
			<path class="st7" d="M-4106.6,1026.9h-490.8c-2.2,0-4,1.8-4,4v30.4c0,11.1,9,20,20,20h458.7c11.1,0,20-9,20-20v-30.4
				C-4102.6,1028.7-4104.4,1026.9-4106.6,1026.9z M-4110.6,1061.2c0,6.6-5.4,12-12,12h-458.7c-6.6,0-12-5.4-12-12v-26.4h482.8
				V1061.2z"/>
		</g>
	</g>
	<g>
		<g>
			<path class="st7" d="M-4164.9,764.8h-374.2c-11.1,0-20,9-20,20v246c0,2.2,1.8,4,4,4h406.3c2.2,0,4-1.8,4-4v-246
				C-4144.8,773.8-4153.8,764.8-4164.9,764.8z M-4152.8,1026.9h-398.3v-242c0-6.6,5.4-12,12-12h374.2c6.6,0,12,5.4,12,12V1026.9z"/>
		</g>
	</g>
	<g>
		<g>
			<path class="st8" d="M-4206.9,784.5h-290.2c-2.6,0-4.8,2.1-4.8,4.7v6.9c0,2.6,2.1,4.7,4.8,4.7h290.2c2.6,0,4.8-2.1,4.8-4.7v-6.9
				C-4202.2,786.6-4204.3,784.5-4206.9,784.5z"/>
		</g>
	</g>
	<g>
		<g>
			<path class="st2" d="M-4206.9,784.5h-290.2c-2.2,0-4,1.5-4.6,3.5c0.5,2,2.4,3.5,4.6,3.5h290.2c2.2,0,4-1.5,4.6-3.5
				C-4202.9,786-4204.7,784.5-4206.9,784.5z"/>
		</g>
	</g>
	<g>
		<g>
			<path class="st7" d="M-4206.9,782.5h-290.2c-3.7,0-6.8,3-6.8,6.7v6.9c0,3.7,3,6.7,6.8,6.7h290.2c3.7,0,6.8-3,6.8-6.7v-6.9
				C-4200.2,785.6-4203.2,782.5-4206.9,782.5z M-4204.2,796.2c0,1.5-1.2,2.7-2.8,2.7h-290.2c-1.5,0-2.8-1.2-2.8-2.7v-6.9
				c0-1.5,1.2-2.7,2.8-2.7h290.2c1.5,0,2.8,1.2,2.8,2.7V796.2z"/>
		</g>
	</g>
	<g>
		<g>
			<path class="st7" d="M-4176.6,783.2c-1.6-1.6-3.7-2.5-6-2.5c0,0,0,0,0,0c-2.3,0-4.4,0.9-6,2.5c-3.3,3.3-3.3,8.7,0,12
				c1.7,1.7,3.8,2.5,6,2.5s4.3-0.8,6-2.5c1.6-1.6,2.5-3.7,2.5-6C-4174.2,786.9-4175,784.8-4176.6,783.2z M-4179.5,792.4
				c-1.7,1.7-4.6,1.7-6.3,0c-1.7-1.7-1.7-4.6,0-6.3c0.8-0.8,2-1.3,3.2-1.3h0c1.2,0,2.3,0.5,3.2,1.3c0.8,0.8,1.3,2,1.3,3.2
				C-4178.2,790.4-4178.6,791.5-4179.5,792.4z"/>
		</g>
	</g>
	<g>
		<g>
			<path class="st7" d="M-4169.9,799.1l-6.7-6.7c-0.8-0.8-2-0.8-2.8,0c-0.8,0.8-0.8,2,0,2.8l6.7,6.7c0.4,0.4,0.9,0.6,1.4,0.6
				s1-0.2,1.4-0.6C-4169.1,801.1-4169.1,799.9-4169.9,799.1z"/>
		</g>
	</g>
	<g>
		<g>
			<path class="st7" d="M-4515,790.8c-0.2-0.7-0.8-1.2-1.5-1.3l-3.2-0.5l-1.4-2.9c-0.3-0.6-1-1.1-1.7-1.1c-0.7,0-1.4,0.4-1.7,1.1
				l-1.4,2.9l-3.2,0.5c-0.7,0.1-1.3,0.6-1.5,1.3c-0.2,0.7,0,1.4,0.5,1.9l2.3,2.2l-0.5,3.2c-0.1,0.7,0.2,1.4,0.7,1.8
				c0.3,0.2,0.7,0.4,1.1,0.4c0.3,0,0.6-0.1,0.9-0.2l2.8-1.5l2.8,1.5c0.6,0.3,1.4,0.3,2-0.1c0.6-0.4,0.9-1.1,0.8-1.8l-0.5-3.2
				l2.3-2.2C-4515,792.2-4514.8,791.5-4515,790.8z"/>
		</g>
	</g>
	<g>
		<g>
			<polygon class="st1" points="-4490.3,635.4 -4490.3,723.7 -4382.4,695.1 -4382.4,664 			"/>
		</g>
	</g>
	<g>
		<g>
			<rect x="-4514.3" y="626.5" class="st2" width="24" height="106.2"/>
		</g>
	</g>
	<g>
		<g>
			<polygon class="st3" points="-4490.3,656.7 -4490.3,723.7 -4382.4,695.1 -4382.4,685.4 			"/>
		</g>
	</g>
	<g>
		<g>
			<rect x="-4514.3" y="647.8" class="st6" width="24" height="84.8"/>
		</g>
	</g>
	<g>
	</g>
	<g>
	</g>
	<g>
	</g>
	<g>
		<g>
			<path class="st7" d="M-4381.4,660.1l-107.8-28.6c-2.1-0.6-4.3,0.7-4.9,2.8c-0.6,2.1,0.7,4.3,2.8,4.9l104.9,27.8V692l-104.9,27.8
				c-2.1,0.6-3.4,2.8-2.8,4.9c0.5,1.8,2.1,3,3.9,3c0.3,0,0.7,0,1-0.1l107.8-28.6c1.8-0.5,3-2.1,3-3.9V664
				C-4378.4,662.2-4379.6,660.6-4381.4,660.1z"/>
		</g>
	</g>
	<g>
		<g>
			<path class="st7" d="M-4487.4,623.6c-0.8-0.8-1.8-1.2-2.8-1.2h0l-24,0c-2.2,0-4,1.8-4,4v106.2c0,1.1,0.4,2.1,1.2,2.8
				c0.8,0.8,1.8,1.2,2.8,1.2l24,0c2.2,0,4-1.8,4-4V626.5C-4486.3,625.4-4486.7,624.4-4487.4,623.6z M-4494.3,728.6l-16,0v-98.2l16,0
				V728.6z"/>
		</g>
	</g>
	<g>
		<g>
			<path class="st7" d="M-4382.4,652.8c-2.2,0-4,1.8-4,4v45.5c0,2.2,1.8,4,4,4s4-1.8,4-4v-45.5
				C-4378.4,654.6-4380.2,652.8-4382.4,652.8z"/>
		</g>
	</g>
	<g>
		<g>
			<path class="st7" d="M-4362.3,652.8c-2.2,0-4,1.8-4,4v45.5c0,2.2,1.8,4,4,4s4-1.8,4-4v-45.5
				C-4358.3,654.6-4360.1,652.8-4362.3,652.8z"/>
		</g>
	</g>
	<g>
		<g>
			<path class="st7" d="M-4401.6,696.9c-2.2,0-4,1.8-4,4v7.8c0,6.1-5,11-11,11c-6.1,0-11-4.9-11-11c0-2.2-1.8-4-4-4c0,0,0,0,0,0
				c-2.2,0-4,1.8-4,4c0,10.5,8.5,19,19,19c10.5,0,19-8.5,19-19v-7.8C-4397.6,698.7-4399.4,696.9-4401.6,696.9z"/>
		</g>
	</g>
	<g>
		<g>
			<path class="st7" d="M-4431.6,646.9c-2.2,0-4,1.8-4,4v57.7c0,2.2,1.8,4,4,4s4-1.8,4-4v-57.7
				C-4427.6,648.7-4429.4,646.9-4431.6,646.9z"/>
		</g>
	</g>
	<g>
		<g>
			<polygon class="st1" points="-4321.6,664 -4321.6,695.1 -4213.7,723.7 -4213.7,635.4 			"/>
		</g>
	</g>
	<g>
		<g>
			<rect x="-4213.7" y="626.5" class="st2" width="24" height="106.2"/>
		</g>
	</g>
	<g>
		<g>
			<polygon class="st3" points="-4321.6,685.4 -4321.6,695.1 -4213.7,723.7 -4213.7,656.7 			"/>
		</g>
	</g>
	<g>
		<g>
			<rect x="-4213.7" y="647.8" class="st6" width="24" height="84.8"/>
		</g>
	</g>
	<g>
	</g>
	<g>
	</g>
	<g>
	</g>
	<g>
		<g>
			<path class="st7" d="M-4212.7,719.8l-104.9-27.8v-24.9l104.9-27.8c2.1-0.6,3.4-2.8,2.8-4.9c-0.6-2.1-2.8-3.4-4.9-2.8l-107.8,28.6
				c-1.8,0.5-3,2.1-3,3.9v31.1c0,1.8,1.2,3.4,3,3.9l107.8,28.6c0.3,0.1,0.7,0.1,1,0.1c1.8,0,3.4-1.2,3.9-3
				C-4209.3,722.6-4210.6,720.4-4212.7,719.8z"/>
		</g>
	</g>
	<g>
		<g>
			<path class="st7" d="M-4189.7,622.5l-24,0h0c-1.1,0-2.1,0.4-2.8,1.2c-0.8,0.8-1.2,1.8-1.2,2.8v106.2c0,2.2,1.8,4,4,4l24,0h0
				c1.1,0,2.1-0.4,2.8-1.2c0.8-0.8,1.2-1.8,1.2-2.8V626.5C-4185.7,624.2-4187.5,622.5-4189.7,622.5z M-4193.7,728.6l-16,0v-98.2
				l16,0V728.6z"/>
		</g>
	</g>
	<g>
		<g>
			<path class="st7" d="M-4321.6,652.8c-2.2,0-4,1.8-4,4v45.5c0,2.2,1.8,4,4,4s4-1.8,4-4v-45.5
				C-4317.6,654.6-4319.4,652.8-4321.6,652.8z"/>
		</g>
	</g>
	<g>
		<g>
			<path class="st7" d="M-4341.7,652.8c-2.2,0-4,1.8-4,4v45.5c0,2.2,1.8,4,4,4s4-1.8,4-4v-45.5
				C-4337.7,654.6-4339.5,652.8-4341.7,652.8z"/>
		</g>
	</g>
	<g>
		<g>
			<path class="st7" d="M-4272.4,704.7C-4272.4,704.7-4272.4,704.7-4272.4,704.7c-2.2,0-4,1.8-4,4c0,6.1-4.9,11-11,11
				c-6.1,0-11-5-11-11v-7.8c0-2.2-1.8-4-4-4s-4,1.8-4,4v7.8c0,10.5,8.5,19,19,19c10.5,0,19-8.5,19-19
				C-4268.4,706.5-4270.2,704.7-4272.4,704.7z"/>
		</g>
	</g>
	<g>
		<g>
			<path class="st7" d="M-4272.4,646.9c-2.2,0-4,1.8-4,4v57.7c0,2.2,1.8,4,4,4s4-1.8,4-4v-57.7
				C-4268.4,648.7-4270.2,646.9-4272.4,646.9z"/>
		</g>
	</g>
	<g>
		<g>
			<path class="st8" d="M-4283.3,732.6h-137.4c-6.3,0-11.3,5.1-11.3,11.3v275.6c0,6.3,5.1,11.3,11.3,11.3h137.4
				c6.3,0,11.3-5.1,11.3-11.3V743.9C-4272,737.7-4277,732.6-4283.3,732.6z"/>
		</g>
	</g>
	<g>
		<g>
			<path class="st0" d="M-4296.8,732.6h-110.4c-5,0-9.1,5.1-9.1,11.3v275.6c0,6.3,4.1,11.3,9.1,11.3h110.4c5,0,9.1-5.1,9.1-11.3
				V743.9C-4287.7,737.7-4291.8,732.6-4296.8,732.6z"/>
		</g>
	</g>
	<g>
		<g>
			<path class="st7" d="M-4283.3,728.6h-137.4c-8.4,0-15.3,6.9-15.3,15.3v275.6c0,8.4,6.9,15.3,15.3,15.3h137.4
				c8.4,0,15.3-6.9,15.3-15.3V743.9C-4268,735.5-4274.8,728.6-4283.3,728.6z M-4276,1019.6c0,4-3.3,7.3-7.3,7.3h-137.4
				c-4,0-7.3-3.3-7.3-7.3V743.9c0-4,3.3-7.3,7.3-7.3h137.4c4,0,7.3,3.3,7.3,7.3V1019.6z"/>
		</g>
	</g>
	<g>
		<g>
			<rect x="-4432" y="768.8" class="st1" width="160.1" height="226"/>
		</g>
	</g>
	<g>
		<g>
			<rect x="-4416.3" y="768.8" class="st3" width="128.6" height="226"/>
		</g>
	</g>
	<g>
		<g>
			<polygon class="st3" points="-4432,768.8 -4430.6,857.2 -4293,994.7 -4272,994.7 -4272,768.8 			"/>
		</g>
	</g>
	<g>
		<g>
			<polygon class="st4" points="-4338.9,768.8 -4416.3,768.8 -4416.3,871.5 -4293,994.7 -4287.7,994.7 -4287.7,769.1 			"/>
		</g>
	</g>
	<g>
		<g>
			<path class="st7" d="M-4272,764.8H-4432c-2.2,0-4,1.8-4,4v226c0,2.2,1.8,4,4,4h160.1c2.2,0,4-1.8,4-4v-226
				C-4268,766.5-4269.7,764.8-4272,764.8z M-4276,990.7H-4428v-218h152.1V990.7z"/>
		</g>
	</g>
	<g>
		<g>
			<path class="st6" d="M-4340.7,1006.8h-22.7c-3.4,0-6.2,2.8-6.2,6.2v4.2c0,3.4,2.8,6.2,6.2,6.2h22.7c3.4,0,6.2-2.8,6.2-6.2v-4.2
				C-4334.4,1009.6-4337.2,1006.8-4340.7,1006.8z"/>
		</g>
	</g>
	<g>
		<g>
			<path class="st2" d="M-4340.7,1005h-22.7c-3.4,0-6.2,2.8-6.2,6.2v4.2c0,3.4,2.8,6.2,6.2,6.2h22.7c3.4,0,6.2-2.8,6.2-6.2v-4.2
				C-4334.4,1007.8-4337.2,1005-4340.7,1005z"/>
		</g>
	</g>
	<g>
		<g>
			<path class="st4" d="M-4325.8,748.7h-52.3c-1.3,0-2.4,1.1-2.4,2.4c0,1.3,1.1,2.4,2.4,2.4h52.3c1.3,0,2.4-1.1,2.4-2.4
				C-4323.5,749.8-4324.5,748.7-4325.8,748.7z"/>
		</g>
	</g>
	<g>
		<g>
			<path class="st4" d="M-4296.9,747.3c-2.1,0-3.9,1.7-3.9,3.9c0,2.1,1.7,3.9,3.9,3.9s3.9-1.7,3.9-3.9
				C-4293,749-4294.7,747.3-4296.9,747.3z"/>
		</g>
	</g>
	<g>
		<g>
			<path class="st6" d="M-4529.1,893.1c-1.7,0-3.1,1.4-3.1,3.1c0,1.7,1.4,3.1,3.1,3.1c1.7,0,3.1-1.4,3.1-3.1
				C-4526.1,894.5-4527.4,893.1-4529.1,893.1z M-4529.1,897.1c-0.5,0-0.9-0.4-0.9-0.9c0-0.5,0.4-0.9,0.9-0.9c0.5,0,0.9,0.4,0.9,0.9
				C-4528.2,896.7-4528.6,897.1-4529.1,897.1z"/>
		</g>
	</g>
	<g>
		<g>
			<rect x="-4523.7" y="894.2" class="st6" width="24.7" height="4"/>
		</g>
	</g>
	<g>
		<g>
			<path class="st6" d="M-4529.1,906c-1.7,0-3.1,1.4-3.1,3.1c0,1.7,1.4,3.1,3.1,3.1c1.7,0,3.1-1.4,3.1-3.1
				C-4526.1,907.3-4527.4,906-4529.1,906z M-4529.1,910c-0.5,0-0.9-0.4-0.9-0.9c0-0.5,0.4-0.9,0.9-0.9c0.5,0,0.9,0.4,0.9,0.9
				C-4528.2,909.5-4528.6,910-4529.1,910z"/>
		</g>
	</g>
	<g>
		<g>
			<rect x="-4523.7" y="907" class="st6" width="24.7" height="4"/>
		</g>
	</g>
	<g>
		<g>
			<path class="st6" d="M-4529.1,918.8c-1.7,0-3.1,1.4-3.1,3.1c0,1.7,1.4,3.1,3.1,3.1c1.7,0,3.1-1.4,3.1-3.1
				C-4526.1,920.2-4527.4,918.8-4529.1,918.8z M-4529.1,922.8c-0.5,0-0.9-0.4-0.9-0.9c0-0.5,0.4-0.9,0.9-0.9c0.5,0,0.9,0.4,0.9,0.9
				C-4528.2,922.4-4528.6,922.8-4529.1,922.8z"/>
		</g>
	</g>
	<g>
		<g>
			<rect x="-4523.7" y="919.9" class="st6" width="24.7" height="4"/>
		</g>
	</g>
	<g>
		<g>
			<path class="st6" d="M-4204,893.1c-1.7,0-3.1,1.4-3.1,3.1c0,1.7,1.4,3.1,3.1,3.1c1.7,0,3.1-1.4,3.1-3.1
				C-4200.9,894.5-4202.3,893.1-4204,893.1z M-4204,897.1c-0.5,0-0.9-0.4-0.9-0.9c0-0.5,0.4-0.9,0.9-0.9c0.5,0,0.9,0.4,0.9,0.9
				C-4203,896.7-4203.4,897.1-4204,897.1z"/>
		</g>
	</g>
	<g>
		<g>
			<rect x="-4198.5" y="894.2" class="st6" width="24.7" height="4"/>
		</g>
	</g>
	<g>
		<g>
			<path class="st6" d="M-4204,906c-1.7,0-3.1,1.4-3.1,3.1c0,1.7,1.4,3.1,3.1,3.1c1.7,0,3.1-1.4,3.1-3.1
				C-4200.9,907.3-4202.3,906-4204,906z M-4204,910c-0.5,0-0.9-0.4-0.9-0.9c0-0.5,0.4-0.9,0.9-0.9c0.5,0,0.9,0.4,0.9,0.9
				C-4203,909.5-4203.4,910-4204,910z"/>
		</g>
	</g>
	<g>
		<g>
			<rect x="-4198.5" y="907" class="st6" width="24.7" height="4"/>
		</g>
	</g>
	<g>
		<g>
			<path class="st6" d="M-4204,918.8c-1.7,0-3.1,1.4-3.1,3.1c0,1.7,1.4,3.1,3.1,3.1c1.7,0,3.1-1.4,3.1-3.1
				C-4200.9,920.2-4202.3,918.8-4204,918.8z M-4204,922.8c-0.5,0-0.9-0.4-0.9-0.9c0-0.5,0.4-0.9,0.9-0.9c0.5,0,0.9,0.4,0.9,0.9
				C-4203,922.4-4203.4,922.8-4204,922.8z"/>
		</g>
	</g>
	<g>
		<g>
			<rect x="-4198.5" y="919.9" class="st6" width="24.7" height="4"/>
		</g>
	</g>
	<g>
		<g>
			<path class="st6" d="M-4302.5,821.4h-99c-4.6,0-8.3,3.7-8.3,8.3v71.9c0,4.6,3.7,8.3,8.3,8.3h99c4.6,0,8.3-3.7,8.3-8.3v-71.9
				C-4294.2,825.2-4297.9,821.4-4302.5,821.4z M-4298.2,901.6c0,2.4-1.9,4.3-4.3,4.3h-99c-2.4,0-4.3-1.9-4.3-4.3v-71.9
				c0-2.4,1.9-4.3,4.3-4.3h99c2.4,0,4.3,1.9,4.3,4.3V901.6z"/>
		</g>
	</g>
	<g>
		<g>
			<rect x="-4407.8" y="841" class="st6" width="111.6" height="4"/>
		</g>
	</g>
	<g>
		<g>
			<path class="st6" d="M-4397.5,830.6c-1.3,0-2.4,1.1-2.4,2.4c0,1.3,1.1,2.4,2.4,2.4s2.4-1.1,2.4-2.4
				C-4395,831.7-4396.1,830.6-4397.5,830.6z M-4397.5,834.6c-0.9,0-1.6-0.7-1.6-1.6c0-0.9,0.7-1.6,1.6-1.6s1.6,0.7,1.6,1.6
				C-4395.9,833.9-4396.6,834.6-4397.5,834.6z"/>
		</g>
	</g>
	<g>
		<g>
			<path class="st6" d="M-4387.8,830.6c-1.3,0-2.4,1.1-2.4,2.4c0,1.3,1.1,2.4,2.4,2.4s2.4-1.1,2.4-2.4
				C-4385.4,831.7-4386.5,830.6-4387.8,830.6z M-4387.8,834.6c-0.9,0-1.6-0.7-1.6-1.6c0-0.9,0.7-1.6,1.6-1.6s1.6,0.7,1.6,1.6
				C-4386.2,833.9-4387,834.6-4387.8,834.6z"/>
		</g>
	</g>
	<g>
		<g>
			<path class="st6" d="M-4378.2,830.6c-1.3,0-2.4,1.1-2.4,2.4c0,1.3,1.1,2.4,2.4,2.4c1.3,0,2.4-1.1,2.4-2.4
				C-4375.7,831.7-4376.8,830.6-4378.2,830.6z M-4378.2,834.6c-0.9,0-1.6-0.7-1.6-1.6c0-0.9,0.7-1.6,1.6-1.6c0.9,0,1.6,0.7,1.6,1.6
				C-4376.6,833.9-4377.3,834.6-4378.2,834.6z"/>
		</g>
	</g>
	<g>
		<g>
			<path class="st6" d="M-4313.9,874c-8.4-13-22.7-20.7-38.1-20.7c-15.4,0-29.6,7.7-38.1,20.7l-0.7,1.1l0.7,1.1
				c8.4,13,22.7,20.7,38.1,20.7c15.4,0,29.6-7.7,38.1-20.7l0.7-1.1L-4313.9,874z M-4352,892.9c-13.6,0-26.2-6.6-34-17.8
				c7.8-11.2,20.4-17.8,34-17.8c13.6,0,26.2,6.6,34,17.8C-4325.8,886.2-4338.4,892.9-4352,892.9z"/>
		</g>
	</g>
	<g>
		<g>
			<path class="st6" d="M-4352,862.6c-6.9,0-12.5,5.6-12.5,12.5c0,6.9,5.6,12.5,12.5,12.5s12.5-5.6,12.5-12.5
				C-4339.5,868.2-4345.1,862.6-4352,862.6z M-4352,883.5c-4.7,0-8.5-3.8-8.5-8.5c0-4.7,3.8-8.5,8.5-8.5s8.5,3.8,8.5,8.5
				C-4343.5,879.7-4347.3,883.5-4352,883.5z"/>
		</g>
	</g>
	<g>
		<g>
			<path class="st6" d="M-4352,872.5c-1.4,0-2.6,1.2-2.6,2.6c0,1.4,1.2,2.6,2.6,2.6c1.4,0,2.6-1.2,2.6-2.6
				C-4349.4,873.6-4350.6,872.5-4352,872.5z M-4352,876.5c-0.8,0-1.4-0.6-1.4-1.4c0-0.8,0.6-1.4,1.4-1.4c0.8,0,1.4,0.6,1.4,1.4
				C-4350.6,875.8-4351.2,876.5-4352,876.5z"/>
		</g>
	</g>
	<g>
		<g>
			<rect x="-4585.2" y="898.3" class="st6" width="9.7" height="4"/>
		</g>
	</g>
	<g>
		<g>
			<rect x="-4585.2" y="908" class="st6" width="3.5" height="4"/>
		</g>
	</g>
	<g>
		<g>
			<rect x="-4585.2" y="919.8" class="st6" width="9.7" height="4"/>
		</g>
	</g>
	<g>
		<g>
			<rect x="-4585.2" y="929.4" class="st6" width="3.5" height="4"/>
		</g>
	</g>
	<g>
		<g>
			<rect x="-4585.2" y="941.2" class="st6" width="9.7" height="4"/>
		</g>
	</g>
	<g>
		<g>
			<rect x="-4585.2" y="950.9" class="st6" width="3.5" height="4"/>
		</g>
	</g>
	<g>
		<g>
			<rect x="-4585.2" y="962.7" class="st6" width="9.7" height="4"/>
		</g>
	</g>
	<g>
		<g>
			<rect x="-4585.2" y="972.3" class="st6" width="3.5" height="4"/>
		</g>
	</g>
	<g>
		<g>
			<rect x="-4585.2" y="984.1" class="st6" width="9.7" height="4"/>
		</g>
	</g>
	<g>
		<g>
			<rect x="-4585.2" y="993.7" class="st6" width="3.5" height="4"/>
		</g>
	</g>
	<g>
		<g>
			<rect x="-4585.2" y="1005.5" class="st6" width="9.7" height="4"/>
		</g>
	</g>
	<g>
		<g>
			<rect x="-4585.2" y="1015.2" class="st6" width="3.5" height="4"/>
		</g>
	</g>
	<g>
		<g>
			<rect x="-4128.5" y="898.3" class="st6" width="9.7" height="4"/>
		</g>
	</g>
	<g>
		<g>
			<rect x="-4122.3" y="908" class="st6" width="3.5" height="4"/>
		</g>
	</g>
	<g>
		<g>
			<rect x="-4128.5" y="919.8" class="st6" width="9.7" height="4"/>
		</g>
	</g>
	<g>
		<g>
			<rect x="-4122.3" y="929.4" class="st6" width="3.5" height="4"/>
		</g>
	</g>
	<g>
		<g>
			<rect x="-4128.5" y="941.2" class="st6" width="9.7" height="4"/>
		</g>
	</g>
	<g>
		<g>
			<rect x="-4122.3" y="950.9" class="st6" width="3.5" height="4"/>
		</g>
	</g>
	<g>
		<g>
			<rect x="-4128.5" y="962.7" class="st6" width="9.7" height="4"/>
		</g>
	</g>
	<g>
		<g>
			<rect x="-4122.3" y="972.3" class="st6" width="3.5" height="4"/>
		</g>
	</g>
	<g>
		<g>
			<rect x="-4128.5" y="984.1" class="st6" width="9.7" height="4"/>
		</g>
	</g>
	<g>
		<g>
			<rect x="-4122.3" y="993.7" class="st6" width="3.5" height="4"/>
		</g>
	</g>
	<g>
		<g>
			<rect x="-4128.5" y="1005.5" class="st6" width="9.7" height="4"/>
		</g>
	</g>
	<g>
		<g>
			<rect x="-4122.3" y="1015.2" class="st6" width="3.5" height="4"/>
		</g>
	</g>
</g>
<g>
	<g>
		<g>
			<g>
				<g>
					<line class="st9" x1="60" y1="520.6" x2="67.7" y2="520.6"/>
					<line class="st9" x1="72" y1="520.6" x2="72.8" y2="520.6"/>
					<line class="st9" x1="76" y1="520.6" x2="76.9" y2="520.6"/>
					<line class="st9" x1="80.1" y1="520.6" x2="81" y2="520.6"/>
				</g>
				<g>
					<line class="st9" x1="144.4" y1="520.6" x2="136.6" y2="520.6"/>
					<line class="st9" x1="132.4" y1="520.6" x2="131.6" y2="520.6"/>
					<line class="st9" x1="128.3" y1="520.6" x2="127.5" y2="520.6"/>
					<line class="st9" x1="124.2" y1="520.6" x2="123.4" y2="520.6"/>
				</g>
			</g>
			<g>
				<g>
					<line class="st9" x1="72.4" y1="490.8" x2="77.8" y2="496.3"/>
					<line class="st9" x1="80.8" y1="499.2" x2="81.4" y2="499.8"/>
					<line class="st9" x1="83.7" y1="502.1" x2="84.3" y2="502.7"/>
					<line class="st9" x1="86.6" y1="505" x2="87.2" y2="505.6"/>
				</g>
				<g>
					<line class="st9" x1="132" y1="550.4" x2="126.5" y2="545"/>
					<line class="st9" x1="123.6" y1="542" x2="123" y2="541.4"/>
					<line class="st9" x1="120.7" y1="539.1" x2="120.1" y2="538.5"/>
					<line class="st9" x1="117.8" y1="536.2" x2="117.2" y2="535.6"/>
				</g>
			</g>
			<g>
				<g>
					<line class="st9" x1="102.2" y1="478.5" x2="102.2" y2="486.2"/>
					<line class="st9" x1="102.2" y1="490.4" x2="102.2" y2="491.2"/>
					<line class="st9" x1="102.2" y1="494.5" x2="102.2" y2="495.3"/>
					<line class="st9" x1="102.2" y1="498.6" x2="102.2" y2="499.4"/>
				</g>
				<g>
					<line class="st9" x1="102.2" y1="562.8" x2="102.2" y2="555.1"/>
					<line class="st9" x1="102.2" y1="550.9" x2="102.2" y2="550"/>
					<line class="st9" x1="102.2" y1="546.8" x2="102.2" y2="545.9"/>
					<line class="st9" x1="102.2" y1="542.7" x2="102.2" y2="541.8"/>
				</g>
			</g>
			<g>
				<g>
					<line class="st9" x1="132" y1="490.8" x2="126.5" y2="496.3"/>
					<line class="st9" x1="123.6" y1="499.2" x2="123" y2="499.8"/>
					<line class="st9" x1="120.7" y1="502.1" x2="120.1" y2="502.7"/>
					<line class="st9" x1="117.8" y1="505" x2="117.2" y2="505.6"/>
				</g>
				<g>
					<line class="st9" x1="72.4" y1="550.4" x2="77.8" y2="545"/>
					<line class="st9" x1="80.8" y1="542" x2="81.4" y2="541.4"/>
					<line class="st9" x1="83.7" y1="539.1" x2="84.3" y2="538.5"/>
					<line class="st9" x1="86.6" y1="536.2" x2="87.2" y2="535.6"/>
				</g>
			</g>
			<g>
				<path class="st9" d="M102.2,482c21.3,0,38.6,17.3,38.6,38.6"/>
				<path class="st9" d="M102.2,559.2c-21.3,0-38.6-17.3-38.6-38.6"/>
			</g>
			<g>
				<path class="st9" d="M119.7,520.6c0,9.7-7.8,17.5-17.5,17.5"/>
				<path class="st9" d="M84.7,520.6c0-9.7,7.8-17.5,17.5-17.5"/>
			</g>
		</g>
		<g>
			<g>
				<g>
					<line class="st9" x1="453.6" y1="520.6" x2="461.4" y2="520.6"/>
					<line class="st9" x1="465.6" y1="520.6" x2="466.4" y2="520.6"/>
					<line class="st9" x1="469.7" y1="520.6" x2="470.5" y2="520.6"/>
					<line class="st9" x1="473.8" y1="520.6" x2="474.6" y2="520.6"/>
				</g>
				<g>
					<line class="st9" x1="538" y1="520.6" x2="530.3" y2="520.6"/>
					<line class="st9" x1="526" y1="520.6" x2="525.2" y2="520.6"/>
					<line class="st9" x1="522" y1="520.6" x2="521.1" y2="520.6"/>
					<line class="st9" x1="517.9" y1="520.6" x2="517" y2="520.6"/>
				</g>
			</g>
			<g>
				<g>
					<line class="st9" x1="466" y1="490.8" x2="471.5" y2="496.3"/>
					<line class="st9" x1="474.4" y1="499.2" x2="475" y2="499.8"/>
					<line class="st9" x1="477.3" y1="502.1" x2="477.9" y2="502.7"/>
					<line class="st9" x1="480.2" y1="505" x2="480.8" y2="505.6"/>
				</g>
				<g>
					<line class="st9" x1="525.6" y1="550.4" x2="520.2" y2="545"/>
					<line class="st9" x1="517.2" y1="542" x2="516.6" y2="541.4"/>
					<line class="st9" x1="514.3" y1="539.1" x2="513.7" y2="538.5"/>
					<line class="st9" x1="511.4" y1="536.2" x2="510.8" y2="535.6"/>
				</g>
			</g>
			<g>
				<g>
					<line class="st9" x1="495.8" y1="478.5" x2="495.8" y2="486.2"/>
					<line class="st9" x1="495.8" y1="490.4" x2="495.8" y2="491.2"/>
					<line class="st9" x1="495.8" y1="494.5" x2="495.8" y2="495.3"/>
					<line class="st9" x1="495.8" y1="498.6" x2="495.8" y2="499.4"/>
				</g>
				<g>
					<line class="st9" x1="495.8" y1="562.8" x2="495.8" y2="555.1"/>
					<line class="st9" x1="495.8" y1="550.9" x2="495.8" y2="550"/>
					<line class="st9" x1="495.8" y1="546.8" x2="495.8" y2="545.9"/>
					<line class="st9" x1="495.8" y1="542.7" x2="495.8" y2="541.8"/>
				</g>
			</g>
			<g>
				<g>
					<line class="st9" x1="525.6" y1="490.8" x2="520.2" y2="496.3"/>
					<line class="st9" x1="517.2" y1="499.2" x2="516.6" y2="499.8"/>
					<line class="st9" x1="514.3" y1="502.1" x2="513.7" y2="502.7"/>
					<line class="st9" x1="511.4" y1="505" x2="510.8" y2="505.6"/>
				</g>
				<g>
					<line class="st9" x1="466" y1="550.4" x2="471.5" y2="545"/>
					<line class="st9" x1="474.4" y1="542" x2="475" y2="541.4"/>
					<line class="st9" x1="477.3" y1="539.1" x2="477.9" y2="538.5"/>
					<line class="st9" x1="480.2" y1="536.2" x2="480.8" y2="535.6"/>
				</g>
			</g>
			<g>
				<path class="st9" d="M495.8,482c21.3,0,38.6,17.3,38.6,38.6"/>
				<path class="st9" d="M495.8,559.2c-21.3,0-38.6-17.3-38.6-38.6"/>
			</g>
			<g>
				<path class="st9" d="M513.3,520.6c0,9.7-7.8,17.5-17.5,17.5"/>
				<path class="st9" d="M478.3,520.6c0-9.7,7.8-17.5,17.5-17.5"/>
			</g>
		</g>
	</g>
	<g>
		<g>
			<path class="st6" d="M346,544.9v-50h-91.7v50c0,11.5-9.3,20.8-20.8,20.8h133.3C355.4,565.7,346,556.4,346,544.9z"/>
			<rect x="254.4" y="494.9" class="st2" width="91.7" height="38.5"/>
			<path class="st10" d="M346,544.9v-50h-91.7v50c0,11.5-9.3,20.8-20.8,20.8h133.3C355.4,565.7,346,556.4,346,544.9z"/>
			<line class="st10" x1="181.5" y1="565.7" x2="419" y2="565.7"/>
			<g>
				<g>
					<line class="st10" x1="163.4" y1="565.7" x2="163.4" y2="565.7"/>
					<line class="st10" x1="146" y1="565.7" x2="146" y2="565.7"/>
					<line class="st10" x1="128.7" y1="565.7" x2="128.7" y2="565.7"/>
				</g>
				<g>
					<line class="st10" x1="471.8" y1="565.7" x2="471.8" y2="565.7"/>
					<line class="st10" x1="454.4" y1="565.7" x2="454.4" y2="565.7"/>
					<line class="st10" x1="437" y1="565.7" x2="437" y2="565.7"/>
				</g>
			</g>
		</g>
		<path class="st8" d="M545.4,474.1c0,11.5-9.3,20.8-20.8,20.8H73.5c-11.5,0-20.8-9.3-20.8-20.8V176.6c0-11.5,9.3-20.8,20.8-20.8
			h451.1c11.5,0,20.8,9.3,20.8,20.8V474.1z"/>
		<path class="st3" d="M524.5,155.7H73.5c-11.5,0-20.8,9.3-20.8,20.8V445h492.7V176.6C545.4,165.1,536,155.7,524.5,155.7z"/>
		<path class="st6" d="M524.5,168.9H73.5c-11.5,0-20.8,9.3-20.8,20.8v284.3c0,11.5,9.3,20.8,20.8,20.8h451.1
			c11.5,0,20.8-9.3,20.8-20.8V189.8C545.4,178.3,536,168.9,524.5,168.9z"/>
		<path class="st0" d="M524.5,168.9H73.5c-11.5,0-20.8,9.3-20.8,20.8v267.4c0,11.5,9.3,20.8,20.8,20.8h451.1
			c11.5,0,20.8-9.3,20.8-20.8V189.8C545.4,178.3,536,168.9,524.5,168.9z"/>
		<path class="st4" d="M524.5,168.9H73.5c-11.5,0-20.8,9.3-20.8,20.8V445h492.7V189.8C545.4,178.3,536,168.9,524.5,168.9z"/>
		<path class="st10" d="M545.4,474.1c0,11.5-9.3,20.8-20.8,20.8H73.5c-11.5,0-20.8-9.3-20.8-20.8V176.6c0-11.5,9.3-20.8,20.8-20.8
			h451.1c11.5,0,20.8,9.3,20.8,20.8V474.1z"/>
		<g>
			<path class="st8" d="M519.7,425.7c0,10.7-8.7,19.4-19.4,19.4H97.6c-10.7,0-19.4-8.7-19.4-19.4V200.8c0-10.7,8.7-19.4,19.4-19.4
				h402.7c10.7,0,19.4,8.7,19.4,19.4V425.7z"/>
			<g>
				<path class="st6" d="M500.4,181.5H97.6c-10.7,0-19.4,8.7-19.4,19.4v4.9h441.5v-4.9C519.7,190.1,511.1,181.5,500.4,181.5z"/>
				<path class="st11" d="M500.4,181.5H97.6c-10.7,0-19.4,8.7-19.4,19.4v4.9h441.5v-4.9C519.7,190.1,511.1,181.5,500.4,181.5z"/>
			</g>
			<path class="st12" d="M519.7,425.7c0,10.7-8.7,19.4-19.4,19.4H97.6c-10.7,0-19.4-8.7-19.4-19.4V200.8c0-10.7,8.7-19.4,19.4-19.4
				h402.7c10.7,0,19.4,8.7,19.4,19.4V425.7z"/>
			<line class="st10" x1="545.4" y1="445" x2="55.1" y2="445"/>
		</g>
		<g>
			<path class="st3" d="M308.2,474.2c-0.3-0.1-2.6-1.2-2.6-4.1c0-2.3,1.6-3.5,2.2-3.8c0.1-0.1,0.2-0.2,0.2-0.3c0-0.1,0-0.3-0.1-0.4
				c-1.5-2.2-3.8-2.4-4.4-2.5c-1.2-0.1-2.3,0.3-3.2,0.7c-0.5,0.2-0.9,0.4-1.1,0.4c-0.3,0-0.7-0.2-1.2-0.4c-0.7-0.3-1.5-0.6-2.5-0.6
				h0c-2,0-4,1.2-5,3.1c-2,3.5-0.7,8.7,1.4,11.9c0.8,1.2,2.1,3.1,3.8,3.1c0,0,0.1,0,0.1,0c0.7,0,1.3-0.3,1.8-0.5
				c0.5-0.2,1-0.4,1.8-0.4c0.8,0,1.2,0.2,1.7,0.4c0.5,0.2,1.1,0.5,1.9,0.5h0c1.8,0,2.9-1.7,3.8-3c1-1.4,1.4-2.8,1.6-3.3
				C308.6,474.6,308.4,474.3,308.2,474.2z"/>
			<path class="st3" d="M302.1,460c0.7-0.9,1.1-1.9,1.1-3c-0.9,0.2-2,0.8-2.6,1.6c-0.6,0.7-1.2,1.8-1.2,2.9
				C300.4,461.4,301.4,460.9,302.1,460z"/>
		</g>
	</g>
	<g>
		<rect x="208.4" y="238.1" class="st6" width="275.3" height="25.1"/>
		<rect x="451.4" y="238.1" class="st3" width="32.3" height="25.1"/>
		<line class="st13" x1="208.8" y1="355.1" x2="283.3" y2="355.1"/>
		<line class="st13" x1="208.8" y1="367.9" x2="283.3" y2="367.9"/>
		<line class="st13" x1="208.8" y1="380.8" x2="283.3" y2="380.8"/>
		<line class="st13" x1="208.8" y1="393.6" x2="283.3" y2="393.6"/>
		<line class="st13" x1="208.8" y1="406.4" x2="246" y2="406.4"/>
		<line class="st13" x1="300.9" y1="406.4" x2="338.1" y2="406.4"/>
		<line class="st13" x1="354" y1="406.4" x2="391.2" y2="406.4"/>
		<line class="st13" x1="343.9" y1="406.4" x2="348.2" y2="406.4"/>
		<line class="st13" x1="300.9" y1="393.6" x2="338.1" y2="393.6"/>
		<line class="st13" x1="354" y1="393.6" x2="391.2" y2="393.6"/>
		<line class="st13" x1="343.9" y1="393.6" x2="348.2" y2="393.6"/>
		<g>
			<line class="st13" x1="483.7" y1="292.4" x2="409.2" y2="292.4"/>
			<line class="st13" x1="483.7" y1="305.3" x2="409.2" y2="305.3"/>
			<line class="st13" x1="483.7" y1="318.1" x2="409.2" y2="318.1"/>
			<line class="st13" x1="483.7" y1="330.9" x2="409.2" y2="330.9"/>
			<line class="st13" x1="483.7" y1="343.7" x2="446.5" y2="343.7"/>
		</g>
		<rect x="208.4" y="290.4" class="st6" width="75.3" height="47.3"/>
		<polygon class="st3" points="283.7,323.6 269.8,309.7 260.5,319 247.4,305.9 223.1,330.3 215.1,322.3 208.4,329.1 208.4,337.8 
			283.7,337.8 		"/>
		<circle class="st8" cx="225.8" cy="304.8" r="6.9"/>
		<g>
			<path class="st14" d="M468.9,245.8c1.7,1.7,1.7,4.5,0,6.2c-1.7,1.7-4.5,1.7-6.2,0c-1.7-1.7-1.7-4.5,0-6.2
				C464.4,244.1,467.2,244.1,468.9,245.8z"/>
			<line class="st14" x1="468.9" y1="252" x2="473.7" y2="256.8"/>
		</g>
		<path class="st3" d="M391.2,335.6c0,24.9-20.2,45.2-45.2,45.2c-24.9,0-45.2-20.2-45.2-45.2c0-24.9,20.2-45.2,45.2-45.2
			C371,290.4,391.2,310.6,391.2,335.6z"/>
		<path class="st4" d="M346,290.4v45.2h45.2C391.2,310.6,371,290.4,346,290.4z"/>
		<g>
			<rect x="409.2" y="368.6" class="st4" width="32.8" height="39.2"/>
			<g>
				<g>
					<path class="st3" d="M434.3,396.2H433c-1.9,0-3.4-1.5-3.4-3.4v-0.5c1.4-0.8,2.4-2.2,2.4-3.9v-5.5c0-2.5-2-4.5-4.5-4.5h-3.6
						c-2.5,0-4.5,2-4.5,4.5v5.5c0,1.7,0.9,3.2,2.3,3.9v0.5c0,1.9-1.5,3.4-3.4,3.4H417c-3.1,0-5.6,2.5-5.6,5.6v3.9h28.4v-3.9
						C439.8,398.7,437.4,396.2,434.3,396.2z"/>
				</g>
			</g>
		</g>
		<g>
			<rect x="450.9" y="368.6" class="st4" width="32.8" height="39.2"/>
			<g>
				<g>
					<path class="st3" d="M476,396.2h-1.3c-1.9,0-3.4-1.5-3.4-3.4v-0.5c1.4-0.8,2.4-2.2,2.4-3.9v-5.5c0-2.5-2-4.5-4.5-4.5h-3.6
						c-2.5,0-4.5,2-4.5,4.5v5.5c0,1.7,0.9,3.2,2.3,3.9v0.5c0,1.9-1.5,3.4-3.4,3.4h-1.3c-3.1,0-5.6,2.5-5.6,5.6v3.9h28.4v-3.9
						C481.5,398.7,479,396.2,476,396.2z"/>
				</g>
			</g>
		</g>
	</g>
	<g>
		<g>
			<path class="st8" d="M219.9,374c0,6.5-5.3,11.8-11.8,11.8H64.5c-6.5,0-11.8-5.3-11.8-11.8V86.1c0-6.5,5.3-11.8,11.8-11.8h143.6
				c6.5,0,11.8,5.3,11.8,11.8V374z"/>
			<path class="st0" d="M203.4,374c0,6.5-4.3,11.8-9.5,11.8H78.6c-5.2,0-9.5-5.3-9.5-11.8V86.1c0-6.5,4.3-11.8,9.5-11.8h115.3
				c5.2,0,9.5,5.3,9.5,11.8V374z"/>
			<path class="st10" d="M219.9,374c0,6.5-5.3,11.8-11.8,11.8H64.5c-6.5,0-11.8-5.3-11.8-11.8V86.1c0-6.5,5.3-11.8,11.8-11.8h143.6
				c6.5,0,11.8,5.3,11.8,11.8V374z"/>
			<rect x="52.6" y="112" class="st6" width="167.2" height="236.1"/>
			<rect x="69.1" y="112" class="st0" width="134.3" height="236.1"/>
			<polygon class="st0" points="219.9,112 52.6,112 54.2,204.4 197.9,348.1 219.9,348.1 219.9,181.9 			"/>
			<polygon class="st8" points="150,112 146.6,112 69.1,112 69.1,219.3 197.9,348.1 203.4,348.1 203.4,112.3 			"/>
			<rect x="52.6" y="112" class="st10" width="167.2" height="236.1"/>
			<path class="st2" d="M154.6,369c0,3.6-2.9,6.5-6.5,6.5h-23.7c-3.6,0-6.5-2.9-6.5-6.5v-4.4c0-3.6,2.9-6.5,6.5-6.5h23.7
				c3.6,0,6.5,2.9,6.5,6.5V369z"/>
			<path class="st4" d="M166.1,93.6c0,1.4-1.1,2.5-2.5,2.5h-54.6c-1.4,0-2.5-1.1-2.5-2.5l0,0c0-1.4,1.1-2.5,2.5-2.5h54.6
				C165,91.1,166.1,92.2,166.1,93.6L166.1,93.6z"/>
			<path class="st4" d="M197.9,93.6c0,2.2-1.8,4-4,4c-2.2,0-4-1.8-4-4c0-2.2,1.8-4,4-4C196.1,89.6,197.9,91.4,197.9,93.6z"/>
		</g>
	</g>
	<g>
		<rect x="69.1" y="152.7" class="st6" width="134.3" height="16.3"/>
		<rect x="182.4" y="152.7" class="st3" width="21" height="16.3"/>
		<g>
			<path class="st14" d="M193.5,158.7c0.8,0.8,0.8,2,0,2.8c-0.8,0.8-2,0.8-2.8,0c-0.8-0.8-0.8-2,0-2.8
				C191.5,158,192.8,158,193.5,158.7z"/>
			<line class="st14" x1="193.5" y1="161.5" x2="195.6" y2="163.6"/>
		</g>
	</g>
	<line class="st13" x1="69.1" y1="126.4" x2="80.7" y2="126.4"/>
	<line class="st13" x1="69.1" y1="133.4" x2="80.7" y2="133.4"/>
	<line class="st13" x1="69.1" y1="140.4" x2="80.7" y2="140.4"/>
	<g>
		<line class="st13" x1="90.4" y1="263.5" x2="182.2" y2="263.5"/>
		<line class="st13" x1="90.4" y1="277" x2="182.2" y2="277"/>
		<line class="st13" x1="90.4" y1="290.4" x2="182.2" y2="290.4"/>
		<line class="st13" x1="90.4" y1="303.9" x2="182.2" y2="303.9"/>
		<line class="st13" x1="90.4" y1="317.3" x2="136.3" y2="317.3"/>
		<rect x="89.8" y="189.2" class="st6" width="92.8" height="58.3"/>
		<polygon class="st3" points="182.7,230.1 165.5,212.9 154,224.4 137.9,208.3 107.9,238.3 98.2,228.6 89.8,236.9 89.8,247.6 
			182.7,247.6 		"/>
		<circle class="st8" cx="111.3" cy="206.9" r="8.5"/>
	</g>
	<g>
		<g>
			<g>
				<g>
					<g>
						<g>
							<line class="st15" x1="251.2" y1="127.3" x2="241.7" y2="136.8"/>
							<line class="st15" x1="259.1" y1="119.5" x2="258.5" y2="120"/>
							<polyline class="st15" points="251.1,136.8 241.7,136.8 241.7,127.5 							"/>
						</g>
						<g>
							<line class="st15" x1="283.8" y1="94.7" x2="293.3" y2="85.2"/>
							<line class="st15" x1="276" y1="102.6" x2="276.5" y2="102"/>
							<polyline class="st15" points="284,85.2 293.3,85.2 293.3,94.6 							"/>
						</g>
					</g>
				</g>
				<g>
					<g>
						<g>
							<line class="st15" x1="283.8" y1="127.3" x2="293.3" y2="136.8"/>
							<line class="st15" x1="276" y1="119.5" x2="276.5" y2="120"/>
							<polyline class="st15" points="284,136.8 293.3,136.8 293.3,127.5 							"/>
						</g>
						<g>
							<line class="st15" x1="251.2" y1="94.7" x2="241.7" y2="85.2"/>
							<line class="st15" x1="259.1" y1="102.6" x2="258.5" y2="102"/>
							<polyline class="st15" points="251.1,85.2 241.7,85.2 241.7,94.6 							"/>
						</g>
					</g>
				</g>
			</g>
		</g>
		<rect x="263.8" y="107.3" class="st15" width="7.4" height="7.4"/>
	</g>
	<g>
		<g>
			<line class="st9" x1="304.6" y1="136.8" x2="304.6" y2="129.1"/>
			<line class="st9" x1="314.7" y1="136.8" x2="314.7" y2="133.6"/>
		</g>
		<g>
			<line class="st9" x1="324.2" y1="136.8" x2="324.2" y2="129.1"/>
			<line class="st9" x1="334.3" y1="136.8" x2="334.3" y2="133.6"/>
		</g>
		<g>
			<line class="st9" x1="343.8" y1="136.8" x2="343.8" y2="129.1"/>
			<line class="st9" x1="353.9" y1="136.8" x2="353.9" y2="133.6"/>
		</g>
		<g>
			<line class="st9" x1="363.4" y1="136.8" x2="363.4" y2="129.1"/>
			<line class="st9" x1="373.5" y1="136.8" x2="373.5" y2="133.6"/>
		</g>
		<g>
			<line class="st9" x1="382.9" y1="136.8" x2="382.9" y2="129.1"/>
			<line class="st9" x1="393.1" y1="136.8" x2="393.1" y2="133.6"/>
		</g>
		<g>
			<line class="st9" x1="402.6" y1="136.8" x2="402.5" y2="129.1"/>
			<line class="st9" x1="412.7" y1="136.8" x2="412.7" y2="133.6"/>
		</g>
	</g>
	<g>
		<g>
			<line class="st9" x1="423.1" y1="136.8" x2="423.1" y2="129.1"/>
			<line class="st9" x1="433.2" y1="136.8" x2="433.2" y2="133.6"/>
		</g>
		<g>
			<line class="st9" x1="442.7" y1="136.8" x2="442.7" y2="129.1"/>
			<line class="st9" x1="452.8" y1="136.8" x2="452.8" y2="133.6"/>
		</g>
		<g>
			<line class="st9" x1="462.2" y1="136.8" x2="462.2" y2="129.1"/>
			<line class="st9" x1="472.4" y1="136.8" x2="472.4" y2="133.6"/>
		</g>
		<g>
			<line class="st9" x1="481.8" y1="136.8" x2="481.8" y2="129.1"/>
			<line class="st9" x1="492" y1="136.8" x2="492" y2="133.6"/>
		</g>
		<g>
			<line class="st9" x1="501.4" y1="136.8" x2="501.4" y2="129.1"/>
			<line class="st9" x1="511.5" y1="136.8" x2="511.5" y2="133.6"/>
		</g>
		<g>
			<line class="st9" x1="521" y1="136.8" x2="521" y2="129.1"/>
			<line class="st9" x1="531.1" y1="136.8" x2="531.1" y2="133.6"/>
		</g>
	</g>
	<g>
		<g>
			<line class="st9" x1="165.4" y1="517.2" x2="223.5" y2="517.2"/>
			<line class="st9" x1="165.4" y1="529.4" x2="223.5" y2="529.4"/>
			<line class="st9" x1="165.4" y1="541.6" x2="223.5" y2="541.6"/>
		</g>
		<g>
			<line class="st9" x1="374.5" y1="517.2" x2="432.6" y2="517.2"/>
			<line class="st9" x1="374.5" y1="529.4" x2="432.6" y2="529.4"/>
			<line class="st9" x1="374.5" y1="541.6" x2="432.6" y2="541.6"/>
		</g>
	</g>
	<polyline class="st9" points="350,102.6 356.3,108.9 376,89.2 	"/>
	<polyline class="st9" points="390.5,102.6 396.8,108.9 416.6,89.2 	"/>
	<polyline class="st9" points="431.1,102.6 437.4,108.9 457.1,89.2 	"/>
	<polyline class="st9" points="471.7,102.6 478,108.9 497.7,89.2 	"/>
</g>
</svg>
