<?xml version="1.0" encoding="utf-8"?>
<!-- Generator: Adobe Illustrator 23.0.3, SVG Export Plug-In . SVG Version: 6.00 Build 0)  -->
<svg version="1.1" id="Layer_1" xmlns="http://www.w3.org/2000/svg" xmlns:xlink="http://www.w3.org/1999/xlink" x="0px" y="0px"
	 viewBox="0 0 900 765" style="enable-background:new 0 0 900 765;" xml:space="preserve">
<style type="text/css">
	.st0{fill:#2962FF;}
	.st1{fill:#C9300A;}
	.st2{fill:#D4EDFF;}
	.st3{fill:#FF3D0D;}
	.st4{fill:#ACD4F8;}
	.st5{fill:#7DC2F5;}
	.st6{fill:#E9F6FF;}
	.st7{fill:#FFFFFF;}
	.st8{fill:#F4FF81;}
	.st9{fill:#CDDC39;}
	.st10{fill:#3D7AA8;}
	.st11{fill:#F4DA80;}
	.st12{fill:#34688F;}
	.st13{fill:#E9D6B8;}
	.st14{fill:#163F59;}
	.st15{fill:#0253A2;}
	.st16{fill:#E2C59C;}
	.st17{fill:#FF5931;}
	.st18{fill:#161711;}
	.st19{fill:#B0BFDE;}
	.st20{fill:#593446;}
	.st21{fill:#081832;}
	.st22{fill:#194866;}
	.st23{fill:#73A9FF;}
	.st24{fill:#BCD0E2;}
	.st25{fill:#FBC02D;}
	.st26{fill:#FFD600;}
	.st27{fill:#484F59;}
	.st28{fill:#282723;}
	.st29{fill:#D1DBEA;}
	.st30{fill:#FFAB01;}
	.st31{fill:#CDD5D7;}
	.st32{fill:#E5E8EC;}
	.st33{fill:#596273;}
	.st34{fill:#F99B1C;}
	.st35{fill:#FEC00F;}
	.st36{fill:#B6C2C9;}
	.st37{fill:#8DCFFF;}
</style>
<path class="st0" d="M744,679.4c-123.6-51.9-594.2,21.8-649.6-47.9c-58.3-73.2,369.9-122.4,221.9-165.7
	c-125.5-36.8-135.7-23.5-204.1-86.5S-30.4,167.9,24.3,81.6c17.6-27.8,50.3-42.3,82.9-37.8c528,89.9,618.9-36.5,795,109.5v590.4
	C817.6,738.8,814.4,708.9,744,679.4z"/>
<g>
	<g>
		<rect x="194.4" y="170" class="st1" width="472.4" height="223.4"/>
		<rect x="429.4" y="393.3" class="st2" width="237.4" height="239.4"/>
		<rect x="215.3" y="191.3" class="st3" width="430.6" height="180.9"/>
		<rect x="194.4" y="139.9" class="st4" width="472.4" height="31"/>
		<g>
			<rect x="204.3" y="149.8" class="st5" width="8.9" height="10.5"/>
		</g>
		<g>
			<rect x="221.6" y="149.8" class="st5" width="8.9" height="10.5"/>
		</g>
		<g>
			<rect x="238.8" y="149.8" class="st5" width="8.9" height="10.5"/>
		</g>
		<rect x="194.4" y="393.3" class="st6" width="235.1" height="239.4"/>
		<rect x="217.7" y="417" class="st2" width="188.6" height="192"/>
		<path class="st6" d="M287.4,476.2c0,9.4-7.5,17.1-16.8,17.1c-9.3,0-16.8-7.7-16.8-17.1c0-9.4,7.5-17.1,16.8-17.1
			C279.9,459.1,287.4,466.8,287.4,476.2z"/>
		<g>
			<polygon class="st6" points="332.2,511.8 362.3,550.6 392.4,589.3 332.2,589.3 271.9,589.3 302,550.6 			"/>
			<polygon class="st6" points="275.6,534.9 296.7,562.1 317.9,589.3 275.6,589.3 233.3,589.3 254.5,562.1 			"/>
		</g>
		<rect x="265.2" y="273.8" class="st7" width="108" height="11.5"/>
		<rect x="493.2" y="273.8" class="st7" width="108" height="11.5"/>
		<rect x="475.8" y="465.2" class="st4" width="108" height="11.5"/>
		<rect x="475.8" y="497.3" class="st4" width="148" height="5.8"/>
		<rect x="475.8" y="511.4" class="st4" width="148" height="5.8"/>
		<rect x="475.8" y="525.6" class="st4" width="148" height="5.8"/>
		<rect x="475.8" y="539.8" class="st4" width="148" height="5.8"/>
		<rect x="475.8" y="554" class="st4" width="94.1" height="5.8"/>
		<g>
			<polygon class="st7" points="455,269.4 455,286.6 474.4,303.8 474.4,252.3 			"/>
			<path class="st7" d="M452,247h-49.5c-3.2,0-5.7,2.6-5.7,5.8v50.3c0,3.2,2.6,5.8,5.7,5.8H452c3.2,0,5.7-2.6,5.7-5.8v-50.3
				C457.7,249.6,455.1,247,452,247z M422.6,289.9v-23.8L439,278L422.6,289.9z"/>
		</g>
		<polygon class="st4" points="666.8,632.7 630.2,632.7 666.8,595.5 		"/>
	</g>
	<g>
		<path class="st8" d="M617,526.4c-49.7-18.9-101.2-3.7-121.5,51.6c-20.2,55.3,8.9,101,58.7,119.9c38.8,14.7,62.4-7.9,103.2-19.2
			c8.1-2.2,31.4,11.9,31.4,11.9l25.3-69.1c0,0-26.7-4.8-31.4-11.9C659.1,574,655.8,541.2,617,526.4z"/>
		<path class="st9" d="M682.8,655.5c-56.4,15.6-89,46.8-142.6,26.5c-11.5-4.4-22.3-9.8-32-16.2c11.4,13.9,27.2,24.9,46.1,32.1
			c38.8,14.7,62.4-7.9,103.2-19.2c8.1-2.2,31.4,11.9,31.4,11.9l11.6-31.7C693.4,656.2,686.7,654.4,682.8,655.5z"/>
		<path class="st10" d="M688.4,691.8l9.4,3.5c15.5,5.9,32.8-2.1,38.5-17.9l5.2-14.3c5.8-15.8-2.1-33.4-17.6-39.2l-9.4-3.5
			L688.4,691.8z"/>
		<g>
			<polygon class="st11" points="565.6,650.9 553,630.5 571.1,624.9 561,608.6 579.1,603 569.1,586.7 587.1,581.1 577.1,564.8 
				599.8,557.6 602,564.9 588.6,569.1 598.6,585.4 580.6,591 590.6,607.3 572.6,612.9 582.6,629.2 564.6,634.8 572,646.9 			"/>
		</g>
		<g>
			<polygon class="st11" points="695.5,668.6 637.2,646.5 585.6,644.7 585.9,637.2 638.7,639 698.2,661.5 			"/>
		</g>
		<g>
			<polygon class="st11" points="703.5,646.7 644,624.1 602.9,590.3 607.8,584.4 647.9,617.5 706.2,639.6 			"/>
		</g>
		<polygon class="st12" points="723.9,632.3 707.6,677 700.3,674.2 716.7,629.6 		"/>
		<polygon class="st12" points="732.5,649.8 720.8,682 713.5,679.2 725.2,647.1 		"/>
	</g>
	<g>
		<g>
			<path class="st13" d="M576.9,515.5c0.3,3.2,2,6,3.8,6.2c1.7,0,3.4,0,5.1,0c1.8-0.1,3.5-2.9,3.8-6.2c0.4-5.3,0.8-10.7,1.3-16
				c0.3-3.2-1-9.6-3.7-11.5c-2.5-1.7-5.3-1.7-7.8,0c-2.7,1.9-4,8.3-3.7,11.5C576,504.8,576.5,510.1,576.9,515.5z"/>
			<g>
				<path class="st14" d="M582.5,484.2v-3.7H581h-4h-2.4c-2.6,0-4.8,2.2-4.8,4.9v3.7h1.5h4h2.4C580.3,489,582.5,486.9,582.5,484.2z"
					/>
				<path class="st13" d="M590,506.7c0,2.4-1.9,4.3-4.3,4.3h-9.7c-2.4,0-4.3-1.9-4.3-4.3V487c0-2.4,1.9-4.3,4.3-4.3h9.7
					c2.4,0,4.3,1.9,4.3,4.3V506.7z"/>
				<path class="st14" d="M582.8,480.5c1.7,0,3.1,0.9,4,2.2h1.6c2,0,3.7,1.7,3.7,3.8v9.3h-2.6V492c0-1.5-1.2-2.7-2.6-2.7h-1.5h-4
					H579c-2.6,0-4.8-2.2-4.8-4.9v-4H582.8z"/>
				<path class="st13" d="M588.7,498.2c0-1.3,1-2.3,2.3-2.3h0.2c1.3,0,2.3,1,2.3,2.3v2.8c0,1.3-1,2.3-2.3,2.3H591
					c-0.9,0-1.7-0.6-2.1-1.4L588.7,498.2z"/>
			</g>
			<g>
				<path class="st15" d="M614.8,706.4l-0.2,6.6l5.2,0.4c0,0,0.4-0.8,0.8-0.8c0.4,0,0.8,0.9,1.3,0.9c1.1,0.1,2.3,0.2,2.8,0.2
					c1,0.1,10.5,0.9,10.5,0.9s0.3-1.2,0.1-1.6c-0.1-0.2-1-0.7-1.6-0.9c-2.6-1.1-10.2-4.4-11.3-7.4
					C621.1,701.1,614.8,706.4,614.8,706.4z"/>
				<path class="st5" d="M635.4,713.3c0.1,0.5-0.2,1.4-0.2,1.4s-9.5-0.8-10.5-0.9c-0.5,0-1.7-0.1-2.8-0.2c-0.5,0-0.9-0.9-1.3-0.9
					c-0.4,0-0.8,0.8-0.8,0.8l-5.2-0.4l-0.1-1.4L635.4,713.3z"/>
				<g>
					<path class="st5" d="M625.9,710c0.1,0.2,0.4,0,0.8-0.3c1-0.7,0.9-0.7,0.7-0.8c-0.2-0.1-0.4-0.2-1,0.2
						C626.1,709.4,625.8,709.8,625.9,710z"/>
					<path class="st5" d="M624.6,709.2c0.1,0.2,0.4,0,0.8-0.3c1-0.7,0.9-0.7,0.7-0.8c-0.2-0.1-0.4-0.2-1,0.2
						C624.7,708.6,624.5,709,624.6,709.2z"/>
					<path class="st5" d="M623.3,708.2c0.1,0.2,0.4,0,0.8-0.3c1-0.7,0.9-0.7,0.7-0.8c-0.2-0.1-0.4-0.2-1,0.2
						C623.5,707.7,623.2,708.1,623.3,708.2z"/>
				</g>
			</g>
			<g>
				<path class="st15" d="M562.8,711.1c-0.5,0.7-0.3,2.4-0.3,2.4s8.6,1.8,11.4,1.3c0.7-0.1,2-0.7,3.2-1.4c0.2-0.1,0.6-0.8,0.8-0.9
					c0.4-0.2,0.5,0.2,0.8,0c0.8-0.5,1.4-0.9,1.4-0.9c1.1-4.4,0.2-6.3,0.2-6.3s-5.3-3.2-6.9-1.4C569.9,708.1,564.1,709,562.8,711.1z"
					/>
				<path class="st5" d="M562.4,712c2.6,0.6,8.2,1.8,9.3,1.7c4.3-0.5,7-2.8,8.9-4.2c-0.1,0.6-0.2,1.3-0.4,2.1c0,0.1-0.6,0.4-1.4,0.9
					c-0.3,0.2-0.5-0.2-0.8,0c-0.2,0.1-0.6,0.8-0.8,0.9c-1.2,0.6-2.5,1.3-3.2,1.4c-2.8,0.5-11.4-1.3-11.4-1.3S562.3,712.7,562.4,712z
					"/>
				<g>
					<path class="st5" d="M567.5,708.1c-0.1,0.2,0.3,0.3,0.8,0.3c1,0,2,0.2,3,0.4c0.5,0.1,0.9,0.1,1-0.1c0-0.2-0.3-0.5-0.8-0.6
						c-1-0.2-2-0.4-2.9-0.4C568,707.8,567.5,708,567.5,708.1z"/>
					<path class="st5" d="M569.3,707c0,0.2,0.3,0.4,0.8,0.4c1,0.1,1.9,0.4,2.9,0.7c0.5,0.2,0.9,0.2,0.9,0c0-0.2-0.3-0.5-0.8-0.7
						c-1-0.3-1.9-0.5-2.9-0.6C569.7,706.6,569.3,706.8,569.3,707z"/>
					<path class="st5" d="M571,705.9c0,0.2,0.3,0.4,0.8,0.5c1,0.2,1.9,0.5,2.8,0.9c0.5,0.2,0.9,0.2,0.9,0c0-0.2-0.3-0.6-0.8-0.8
						c-0.9-0.4-1.9-0.7-2.8-0.9C571.4,705.6,571,705.7,571,705.9z"/>
				</g>
			</g>
			<polygon class="st14" points="604.5,578 613.1,635.8 624.9,706.7 613.6,710.2 600.6,643.4 585.9,577.5 			"/>
			<path class="st14" d="M591.2,578.7l-18.1,2.4l-0.7,69.2l-0.8,54.4c0,0,3.7,1.1,6.3,2.7c0.9,0.5,3.2,2.1,3.2,2.1l3.4-62
				L591.2,578.7z"/>
			<path class="st16" d="M556,514.4c0,0-7.2,1.4-10.1,2.3c-8.1,2.5-10.9,4.2-12.9,6.4c-2,2.2,2.4,2.5,4.6,4.5
				c2.2,2,19.7-0.9,23.5-3.6C564.8,521.4,558.4,514.4,556,514.4z"/>
			<path class="st13" d="M586.3,507.7c0,0,2,7.4,6.8,8.7c4.8,1.3-7.5,7.1-13.8,5.4c-6.4-1.8-6.6-7.4-6.6-7.4s4.8,0.4,4.4-2.9
				C576.6,508.2,584.5,504.4,586.3,507.7z"/>
			<path class="st17" d="M577.7,518.5c-1.6-1-3.7-4.5-4.6-5.8c-0.9-1.3-7.7-1.1-14.5,0.4c-6.8,1.6-9.9,2.4-10.5,2.6
				c-0.7,0.2,5.3,0.9,7.2,7.9c2,6.9,2.5,8,2.5,8l4.6-0.7c0,0,7.6,64.8,8.7,70.1c1.1,5.4,28.1,8.9,37.6,3.6c0,0-6.6-61.2-7.7-65.9
				l0.4-22.4c0,0-8.7-1.4-11.1-1.4C590.3,515.1,588.1,525,577.7,518.5z"/>
		</g>
		<path class="st16" d="M613.9,533.8c0,0,9.8,22.8,10.7,29.4c0.9,6.6-3.5,6.6-7.5,4.4c-3.2-1.8-9.8-17.9-11.5-20.6
			C603.8,544.4,613.5,530.7,613.9,533.8z"/>
		<path class="st13" d="M624.6,563.2c-0.9-6.6-10.7-29.4-10.7-29.4c-0.2-1.6-2.9,1.3-5.2,4.8c1.1-1.1,1.9-1.6,2.1-0.7
			c0,0,9.8,22.8,10.7,29.4c0.2,1.2,0.2,2.2,0.2,3C624.2,569.4,625.2,568.3,624.6,563.2z"/>
		<path class="st13" d="M533.9,521.4c2.7-1.9,4.8-1.8,13.2,1.3c11.2,4.1,14.9,5.7,16.6,6.6c1.7,0.9,1.5,3.7,2.4,7
			c0.9,3.3,0.6,7.5,0.6,8.1s-4.1,3.1-4.1,3.1l-1.7-2.4l-0.6-4c0,0,2.2-0.2,3,0c0.9,0.2-2.4-1.8-2.2-5.3c0.2-4-1.7-4.6-4.8-4.4
			c-3,0.2-16.9,0.9-19.5,0.4c-2.6-0.4-6.3-2.2-5.4-5.5C532.4,523.2,532.7,522.2,533.9,521.4z"/>
		<path class="st13" d="M615,564.9l-14.4,16.9c0,0,30.2-11.6,22.6-16.2C617.4,562,615,564.9,615,564.9z"/>
		<path class="st17" d="M597.9,517.4c0,0,6.6-4.3,11.8,5.4c3.1,5.8,5.7,11.7,7.8,17c0,0-10.9,13.6-14.4,8c-1-1.6-3.7-5.5-4.4-7.2
			C594.1,529.9,597.9,517.4,597.9,517.4z"/>
		<g>
			<path class="st13" d="M605.8,574c-1.2,0.5-1.2,0.4-1.2,0.4s0.2,1.7-0.7,3c-0.5,0.6-2.2,2.5-2.2,2.5l-2.5,2.8l-1.3,1.2
				c0,0-0.8,0.6-0.8,0.9c-0.2,0.9,0.5,0.7,0.5,0.7l5.3-4.2l-3.9,5.2c0,0-0.4,0.8-0.1,1.1c0.3,0.3,0.4,0.1,0.4,0.1l5.7-4.8l-1.7,2.9
				c0,0-0.4,0.7-0.1,1.1c0.3,0.4,0.4,0.5,0.4,0.5l4.3-5.4C607.9,581.9,607,573.6,605.8,574z"/>
			<path class="st13" d="M603.6,582.3l-2.5,3.8c0,0-0.7,0.8-0.7,1.4c-0.1,0.6,0.4,0.7,0.4,0.7l4.3-5.4L603.6,582.3z"/>
		</g>
	</g>
	<g>
		<g>
			<polygon class="st13" points="71,672.7 68,695.3 82.1,699 89.6,699.2 75.1,691.8 78.9,672.5 			"/>
			<path class="st14" d="M64,561.8c0,0,28.2,53.5,28.2,57.1c0,3.6-12.7,56.6-12.7,56.6l-10.9,1.4c0,0,6.7-46.7,5.5-51.4
				c-1.5-6.3-37.3-49.6-31.8-62.9C47.8,549.3,64,561.8,64,561.8z"/>
			<path class="st18" d="M67.8,699l3,0.2l1.6-2.1l12.5,3.8l8,0.6c0,0-0.6-1.3-1.1-1.7c-1.4-1.2-7.2-3.4-7.2-3.4s0.1,1.9-0.8,2.1
				c-0.9,0.2-9.5-2.2-11.6-3c-3.5-1.4-4.3-2.5-4.6-2.3C67,693.7,67.8,699,67.8,699z"/>
			<g>
				<path class="st16" d="M141.6,598c0,0,0.6-0.6,1.1-0.1c0.8,0.8,1.6,2.9,1.9,3.7c0.3,0.9,1,5.1,1,5.1s-1.2-1-1.5-2.8
					C143.7,601.4,141.6,598,141.6,598z"/>
				<path class="st16" d="M141.8,598.5c1.1,1.2,1.3,3.1,1,5.4c-0.3,2.2,0.7,3.1,0.7,3.1s0.3-1.4,0.5-4.8c0-1,0-2-0.3-2.9
					C142.7,596.7,139,595.5,141.8,598.5z"/>
				<path class="st13" d="M107.9,562c2.7,8.7,24.9,26.8,24.9,26.8s10.1,4.4-14.7-24.7C110.6,555.4,107.2,559.8,107.9,562z"/>
				<path class="st13" d="M142.3,600.3l0.5-0.6l-0.4-2.8c0,0-2.6-4.4-4.2-5.6c-1.6-1.3-5.4-8.1-6.1-8.7c-0.7-0.7-4.9,0.7-4.9,0.7
					s5.5,5.9,7.5,8.4c2,2.5,3.6,7.1,4.3,8.1c1.3,1.7,1.8,2.7,1.8,2.7s0.8-0.8-1-3.6c-0.5-0.7,0.6-0.9,0.6-0.9L142.3,600.3z"/>
				<path class="st13" d="M141.5,596.8c0,0,1.5,2.1,1.4,3.5c0,0.9-0.8,5.2-0.8,5.2s-0.8-1.4-0.5-3.1
					C142.1,599.8,141.5,596.8,141.5,596.8z"/>
			</g>
			<g>
				<path class="st19" d="M127.4,572.3l-8.9-12.6c0,0-10.4-32.4-14.3-34.1c-4.6-2-12.4-2.4-12.4-2.4l13.2,39.1l8,15.7L127.4,572.3z"
					/>
			</g>
		</g>
		<path class="st3" d="M58.2,580.6c0,0,12.3,2.5,15.2,0c3.8-3.3,1.6-11.2,7.6-18.8c6-7.5,8.4-9.5,10.9-11c2.5-1.6,6-2.8,7.1-6.5
			c1.2-3.6,3.2-9.5,2.8-10.7c-0.7-1.9-1.5-4-1.3-6.2C100.4,526.3,58.2,580.6,58.2,580.6z"/>
		<g>
			<path class="st13" d="M281.1,546.4l36,21c0,0-1.7,2.7-4.1,2.7c-6.4-0.1-20.4-3.6-26.8-6.6c-8.7-4.1-16.5-10-16.5-10L281.1,546.4z
				"/>
			<g>
				<g>
					<path class="st13" d="M310,569.8l4.3,2.7c0,0,2,1.4,4.8,2.2c2.8,0.8,4.8-0.8,6.1-3.5c1.2-2.6,1-4.2,1-4.2s-2.4-2.8-5.1-1.4
						c-2.7,1.3-9.9,0.5-10,1.7C310.9,568.6,310,569.8,310,569.8z"/>
					<polygon class="st13" points="325.1,565.8 330.3,568.3 334.9,570.8 334,571.6 330.5,570.3 324.1,571 324.5,569.3 					"/>
					<polygon class="st13" points="329.4,572 332.8,575.4 332.1,576.4 328.2,573.7 323.4,572.4 324.5,569.3 					"/>
					<polygon class="st13" points="330.6,577.7 328.1,574.9 326.7,572.8 324.1,571.9 322.5,574.1 325.3,574.9 329.2,578.1 					"/>
					<polygon class="st13" points="327.3,579.6 323.7,573.8 321.9,573.3 320.7,574.7 323.2,576.7 326.2,579.5 					"/>
				</g>
				<path class="st13" d="M308.8,566c2.7,1.4,5.6-0.1,5.6-0.1s7.3-3.4,8.9-2.7c1.6,0.7,5.1,0.4,5.1,0.4s1.5,0.6-1.4,2
					c-1.9,0.9-3.8,1.1-3.8,1.1s-3.5,3.4-4.9,3.7c-2.9,0.6-9.3-2.9-9.3-2.9S308.5,565.8,308.8,566z"/>
			</g>
			<g>
				<polygon class="st19" points="268.6,535.2 292.8,553.2 288.1,564.1 269.9,559.9 				"/>
			</g>
			<path class="st19" d="M271.7,542.2c0,0-8-19-11.1-24.6c-2.2-3.9-9.8-12.9-9.8-12.9s-5.7,3.1-7,6.5c-3.5,9.8,1.5,21.1,1.5,21.1
				l24.5,27.6l5.5-5.4L271.7,542.2z"/>
		</g>
		<g>
			<g>
				<path class="st13" d="M452,540.1l5.3-0.1c0,0,2.5,0.1,5.4-0.8c2.9-0.9,3.8-3.5,3.4-6.5c-0.3-3-1.4-4.2-1.4-4.2s-3.7-1-5.3,1.7
					c-1.6,2.7-8.4,6.1-7.8,7.2C452.2,538.5,452,540.1,452,540.1z"/>
				<polygon class="st13" points="463.2,528 469,527.2 474.5,526.8 474.1,528 470.3,528.9 465.2,533.1 464.5,531.4 				"/>
				<polygon class="st13" points="470.4,531 475.1,532 475.1,533.3 470.2,533.1 465.3,534.8 464.5,531.4 				"/>
				<polygon class="st13" points="474.5,535.3 470.8,534.3 468.4,533.2 465.6,533.9 465.4,536.7 468.3,535.9 473.5,536.5 				"/>
				<polygon class="st13" points="472.7,538.8 466.3,535.8 464.4,536.4 464.1,538.3 467.5,538.6 471.6,539.4 				"/>
			</g>
			<path class="st13" d="M449,537.4c3.1-0.3,4.8-3.2,4.8-3.2s4.5-7.1,6.3-7.4c1.8-0.3,4.7-2.6,4.7-2.6s1.6-0.4-0.2,2.5
				c-1.2,1.9-2.7,3.2-2.7,3.2s-1.2,5-2.2,6c-2.2,2.1-9.7,2.8-9.7,2.8S448.6,537.5,449,537.4z"/>
			<path class="st13" d="M429.7,520.9c0,0,6.4,20.2,27,14.5c6.1-1.7,0.8,2-4.6,5.2c-5.4,3.2-22.6,5.3-32.2-3.2
				c-9.7-8.5-12.6-12.6-11.2-17.7C410,514.5,429.7,520.9,429.7,520.9z"/>
			<rect x="402" y="701" class="st20" width="8.7" height="13.5"/>
			<rect x="340.4" y="701" class="st20" width="7" height="13.5"/>
			<path class="st21" d="M402.4,718.4h6.3v-2l2.8,2h16c0,0-0.3-2.7-11-3.1c-2.8-0.1-4.7-3.9-4.7-3.9s-1.4-1.3-3.4,1.7
				c-0.5,0.8-6.3-0.7-6.3-0.7S401.5,716.3,402.4,718.4z"/>
			<path class="st14" d="M410.5,552.5l0.8,72.9l-15.1,8.5c0,0-9.1-17.4-10.2-39.6C384.7,572.1,410.5,552.5,410.5,552.5z"/>
			<path class="st22" d="M410.5,552.5l-33.3,80l-6.1,8.5l-23,70.9l-8.7-4c0,0,3.3-50.4,11.9-66.2c5.9-10.8,7.7-12.9,7.7-12.9
				l20.1-78.5L410.5,552.5z"/>
			<path class="st14" d="M401.3,710.2c-2.7-14.3-8.8-40.7-9-49.9c-0.4-17,2.3-28.9,2.3-28.9l16.7-5.9l0.1,84.8H401.3z"/>
			<path class="st21" d="M348.4,720.9h-4.3l-1.4-1.4l-0.6-3.4l-1.4,1.4l-4.5-4.6c0.8-2.2,3.9-4.6,3.9-4.6s3.1,5.2,4,5.1
				c3.5-0.6,3.6,1.3,3.6,1.3S346.5,718.8,348.4,720.9z"/>
			<path class="st21" d="M344,715.9c0.8,0.9,2,1.9,3.3,1.9c10.7,0.4,11,3.1,11,3.1H344V715.9z"/>
			<path class="st5" d="M399.9,481.1c0,0-9.3,2.4-2.4,31c6.9,28.6,13,25.9,13,25.9l7.3,0.1l15-15.8l-7-7.7l-1.6,0.5c0,0-1.9-1.1-2-3
				c-0.1-1.9-0.9-10.8-6.5-26.8C409.3,466.6,401.7,480.7,399.9,481.1z"/>
			<path class="st11" d="M415.6,516.2l4.8-2.6l2-0.9c0.4,1.5,1.8,2.3,1.8,2.3l-3.9,1.2l-4.3,2.4l-4.7,5L415.6,516.2z"/>
			<path class="st23" d="M411.6,553.6l-35.2,2.2l-12.6-50.7c0,0-9.1-28.9,8.3-29.3c17.4-0.4,37.5-0.4,37.5-0.4
				S421.4,485.8,411.6,553.6z"/>
			<path class="st13" d="M380.9,439.6c0,0,17.7,16.8,15.5,22.6c-0.1,0.3-2.9,3-3.2,5.7c-0.3,2.6,0.9,4.1,0.9,5.2
				c0,0.3,0.9,2.6,1,3.2c0.4,3-1.1,5.5-2.3,5.2c-1.5-0.4-7.9-3-9-3.6c-0.8-0.4-1.5-0.5-1.7-1.7c-0.4-2.6-1.8-7.1-3.1-8.4
				c-3.8-3.7-14.6-7.3-11.6-18.1C368.3,446.5,379.4,438.9,380.9,439.6z"/>
			<polygon class="st5" points="392.3,481.4 391.5,487.4 380.8,478.3 382,476.1 			"/>
			<polygon class="st5" points="395.5,477.6 395.2,475.6 397.1,479.1 397.2,485.3 393,481.6 			"/>
			<path class="st16" d="M396.2,461.9c0,0-0.8,0.2-2.4,0.4c-0.5,0.1-2.1,0.3-2.8,0.6c-3.1,1.4-2.8,1.6-4.9,2.1
				c-2.3,0.6-7.5,0.7-7.5,0.7s2.6,1,3.6,1.4c1.9,0.8,3.6,0.5,4.9,0.1c5.7-2,5.7-1.4,6.3-1.9C393.5,465.3,393.7,464.9,396.2,461.9z"
				/>
			<path class="st13" d="M387.2,447.3c0.3,0.4,4,2.2,4.7,2.6c0.7,0.4,1.6,0.8,1.7,1.1c0.1,0.3,0,1.3-0.1,1.8
				c-0.1,0.4-0.3,2.1-1.7,0.8C390.5,452.3,387.2,447.3,387.2,447.3z"/>
			<path class="st14" d="M366.5,449.2c1-5.7,8.4-11,16.9-10.7c0,0,0.8,1.3-0.1,3.6c0,0-5.7-1.1-9.6,3.3c-4.1,4.6,1,4.1,0.9,6.2
				c-0.1,1.8-0.2,3.3-0.2,3.3l1.6,3.2l-1.1,1.2c0,0-3-2.2-2.9-0.8c0.1,1.7,2.3,3.5,2.5,3.7c0.3,0.3,0.7,0.7,0.7,0.9
				c-0.1,0.2,1.6,1.5,3.7,4.5c-0.6,0.5-1.9,0.3-3.8-1.1C370.8,463.3,365.2,456.1,366.5,449.2z"/>
			<path class="st13" d="M372,458c-1.1,0.9-1.2,2.5-0.4,3.6c0.9,1.1,2.4,1.3,3.5,0.4L372,458z"/>
			<path class="st16" d="M390.2,453.9c0,0,1.7-2.5,2-2.6c0.3-0.1,0.9-0.6,1.1-0.4c0.2,0.2,0.4,1.1-0.2,2.7
				C393,454,392.6,453.3,390.2,453.9z"/>
		</g>
		<g>
			<polygon class="st13" points="236.8,499.6 245.3,491.4 256.1,494.2 251.1,503.2 245.3,509.8 			"/>
			<g>
				<g>
					<g>
						<path class="st14" d="M267.7,484.5c-0.7,2.3-3,3.6-5.2,2.9l-15.2-4.6c-2.2-0.7-3.5-3.1-2.8-5.3l0,0c0.7-2.3,3-3.6,5.2-2.9
							l15.2,4.6C267.1,479.9,268.3,482.3,267.7,484.5L267.7,484.5z"/>
						<path class="st14" d="M262.8,490.8c-1.2,4.2-5.5,6.6-9.7,5.3l-7.9-2.4c-4.1-1.2-6.5-5.6-5.2-9.8l0,0c1.2-4.2,5.5-6.6,9.7-5.3
							l7.9,2.4C261.7,482.2,264,486.6,262.8,490.8L262.8,490.8z"/>
						<path class="st13" d="M265.3,504.8l6.9-23.7c1.1-3.8-3-0.9-6.7-2l-3.6-1.1c-3.7-1.1-7.6,1-8.7,4.8l-4.9,16.9L265.3,504.8z"/>
						<path class="st13" d="M254.6,488.9c-0.5,1.7-2.2,2.6-3.8,2.1l0,0c-1.6-0.5-2.6-2.2-2.1-3.9l0,0c0.5-1.7,2.2-2.6,3.8-2.1l0,0
							C254.1,485.5,255.1,487.3,254.6,488.9L254.6,488.9z"/>
						<path class="st13" d="M265.5,496.7c-0.3,1,0.2,2,1.1,2.2l1.4,0.4c0.9,0.3,1.9-0.3,2.2-1.2c0,0-0.4-9.9-1.3-10.2
							c0,0-1,0.6-1.3,1.5L265.5,496.7z"/>
						<path class="st14" d="M256.2,500.6c-6.7-2-6.8-4.3-6.3-6.8c0,0-3.5,5.5-4.1,7.4l-0.6,2.2c-1.2,4.2,2,8.8,7.2,10.4l9.4,2.8
							l3.1-10.6l0.7-2.5L256.2,500.6z"/>
						<path class="st14" d="M266.9,499.1l-5.4-1.6c-2.5-0.7-5.1,0.7-5.8,3.2c-0.1,0.4-0.2,0.8-0.2,1.2l9.7,2.9L266.9,499.1z"/>
						<path class="st13" d="M258.6,501.8l-0.4,1.5c-0.1,0.4,0.1,0.9,0.5,1l4.4,1.3c0.4,0.1,0.8-0.1,1-0.5l0.4-1.5L258.6,501.8z"/>
						<path class="st14" d="M271.1,476.1l-13.8-4.2c-1.5-0.4-3,0.4-3.5,1.9l-1.6,5.5l16.5,5L271.1,476.1z"/>
						<path class="st14" d="M278.4,482.8c-0.7,2.3-3,3.6-5.3,2.9l-9.3-2.8c-2.2-0.7-3.5-3.1-2.9-5.4l0,0c0.7-2.3,3-3.6,5.3-2.9
							l9.3,2.8C277.8,478.1,279.1,480.5,278.4,482.8L278.4,482.8z"/>
					</g>
					<polygon class="st14" points="258.1,479 254.4,477.9 251.5,487.9 255.2,489 					"/>
					<polygon class="st14" points="267.8,477.2 256.8,473.9 253.4,485.7 264.3,489 					"/>
					<path class="st13" d="M255.9,486.6c0.9-3.1,4.1-4.9,7.2-4l2.9,0.9c3.1,0.9,4,3.9,3.1,7.1l0,0c-0.9,3.1-4.1,4.9-7.2,4l-2-0.6
						C256.7,493,255,489.7,255.9,486.6L255.9,486.6z"/>
				</g>
			</g>
			<path class="st21" d="M190.7,700.9c0,0-4.1,1.5-5.9,1.8c-1.5,0.2-4-0.7-5.3-1.3c-1.2-0.5-3-1.4-3.7-2.9c-1-2-2.6-8.6-2.6-8.6
				l-1.2,0.8l-2.1-4.5c0,0,2.4-6.1,4.3-6.4c2.5-0.4,8,6.5,8,6.5l0.9,8.1l2.9,4.1c0,0,2.7,0.5,3.5,0.8
				C190.2,699.5,190.7,700.9,190.7,700.9z"/>
			<path class="st21" d="M274.4,698.2l4.5,7.9l6.8-3.4l-0.5-2.2l3.3-1.3l4.6-1l13.1-11.6c0,0-0.5-1.5-1.3-1.6c-2.1-0.3-7.7,4-7.7,4
				l-10.9,2.2L274.4,698.2z"/>
			<polygon class="st14" points="228.5,611.5 223.4,634.4 184.3,690.3 172.5,680.4 205.3,625.2 205.4,579.6 			"/>
			<path class="st22" d="M223,556.4c0,0,28.8,72,37.5,88.7c8.7,16.7,31,43.9,31,43.9l-18,10.4c0,0-37.7-55-46.6-74.5
				c-8.9-19.5-25.6-40-25.6-40s-16-9.1-12.3-30.1C192.9,533.8,223,556.4,223,556.4z"/>
			<path class="st24" d="M253,516.5l-23.4,53.8l-43.4-11.9c0,0,7.7-18.9,11.3-24.6c14.1-22.2,35.4-37.5,35.4-37.5
				S244.1,488.8,253,516.5z"/>
			<polygon class="st19" points="242.3,493.7 238.6,495.9 250.4,510.3 251.6,505.9 			"/>
		</g>
		<g>
			<g>
				<path class="st25" d="M57.9,569.5l11.7,62.8l490.1-94.5L548,475L57.9,569.5z"/>
				<path class="st26" d="M57.4,567l11.7,62.8l490.1-94.5l-11.7-62.8L57.4,567z"/>
				<g>
					<g>
						
							<rect x="73.3" y="564.9" transform="matrix(0.9831 -0.1829 0.1829 0.9831 -104.2082 23.1941)" class="st27" width="0.7" height="23.6"/>
					</g>
					<g>
						
							<rect x="78.7" y="563.8" transform="matrix(0.9832 -0.1828 0.1828 0.9832 -103.0915 24.0687)" class="st27" width="0.7" height="15.1"/>
					</g>
					<g>
						
							<rect x="84.8" y="562.6" transform="matrix(0.9832 -0.1825 0.1825 0.9832 -102.5927 25.1098)" class="st27" width="0.7" height="15.1"/>
					</g>
					<g>
						
							<rect x="91" y="561.4" transform="matrix(0.9831 -0.183 0.183 0.9831 -102.5745 26.3194)" class="st27" width="0.7" height="15.1"/>
					</g>
					<g>
						
							<rect x="97.1" y="560.2" transform="matrix(0.9831 -0.1831 0.1831 0.9831 -102.2828 27.4337)" class="st27" width="0.7" height="15.1"/>
					</g>
					<g>
						
							<rect x="104" y="559" transform="matrix(0.9831 -0.183 0.183 0.9831 -102.6607 28.7316)" class="st27" width="0.7" height="23.6"/>
					</g>
					<g>
						
							<rect x="109.4" y="557.9" transform="matrix(0.9831 -0.1829 0.1829 0.9831 -101.5838 29.6182)" class="st27" width="0.7" height="15.1"/>
					</g>
					<g>
						
							<rect x="115.5" y="556.7" transform="matrix(0.9831 -0.183 0.183 0.9831 -101.3091 30.7415)" class="st27" width="0.7" height="15.1"/>
					</g>
					<g>
						
							<rect x="121.7" y="555.5" transform="matrix(0.9832 -0.1828 0.1828 0.9832 -100.8553 31.7899)" class="st27" width="0.7" height="15.1"/>
					</g>
					<g>
						
							<rect x="127.8" y="554.3" transform="matrix(0.9831 -0.183 0.183 0.9831 -100.642 32.9387)" class="st27" width="0.7" height="15.1"/>
					</g>
					<g>
						
							<rect x="134.7" y="553" transform="matrix(0.9831 -0.1829 0.1829 0.9831 -101.0269 34.2352)" class="st27" width="0.7" height="23.6"/>
					</g>
					<g>
						
							<rect x="140.1" y="551.9" transform="matrix(0.9831 -0.1829 0.1829 0.9831 -99.9325 35.115)" class="st27" width="0.7" height="15.1"/>
					</g>
					<g>
						
							<rect x="146.2" y="550.7" transform="matrix(0.9832 -0.1828 0.1828 0.9832 -99.5601 36.1939)" class="st27" width="0.7" height="15.1"/>
					</g>
					<g>
						
							<rect x="152.4" y="549.6" transform="matrix(0.9831 -0.1829 0.1829 0.9831 -99.3317 37.3428)" class="st27" width="0.7" height="15.1"/>
					</g>
					<g>
						
							<rect x="158.5" y="548.4" transform="matrix(0.9832 -0.1827 0.1827 0.9832 -98.9156 38.3961)" class="st27" width="0.7" height="15.1"/>
					</g>
					<g>
						
							<rect x="165.4" y="547.1" transform="matrix(0.9831 -0.1829 0.1829 0.9831 -99.4374 39.7584)" class="st27" width="0.7" height="23.6"/>
					</g>
					<g>
						
							<rect x="170.8" y="546" transform="matrix(0.9831 -0.183 0.183 0.9831 -98.4355 40.6856)" class="st27" width="0.7" height="15.1"/>
					</g>
					<g>
						
							<rect x="176.9" y="544.8" transform="matrix(0.9831 -0.1832 0.1832 0.9831 -98.1795 41.8252)" class="st27" width="0.7" height="15.1"/>
					</g>
					<g>
						
							<rect x="183.1" y="543.6" transform="matrix(0.9832 -0.1827 0.1827 0.9832 -97.6301 42.8033)" class="st27" width="0.7" height="15.1"/>
					</g>
					<g>
						
							<rect x="189.2" y="542.5" transform="matrix(0.9831 -0.1831 0.1831 0.9831 -97.5124 44.022)" class="st27" width="0.7" height="15.1"/>
					</g>
					<g>
						
							<rect x="196.1" y="541.2" transform="matrix(0.9831 -0.1832 0.1832 0.9831 -97.9552 45.3451)" class="st27" width="0.7" height="23.6"/>
					</g>
					<g>
						
							<rect x="201.5" y="540.1" transform="matrix(0.9831 -0.183 0.183 0.9831 -96.8111 46.1926)" class="st27" width="0.7" height="15.1"/>
					</g>
					<g>
						
							<rect x="207.7" y="538.9" transform="matrix(0.9831 -0.1828 0.1828 0.9831 -96.3897 47.2381)" class="st27" width="0.7" height="15.1"/>
					</g>
					<g>
						
							<rect x="213.8" y="537.7" transform="matrix(0.9832 -0.1827 0.1827 0.9832 -96.032 48.3161)" class="st27" width="0.7" height="15.1"/>
					</g>
					<g>
						
							<rect x="219.9" y="536.5" transform="matrix(0.9832 -0.1828 0.1828 0.9832 -95.7251 49.4282)" class="st27" width="0.7" height="15.1"/>
					</g>
					<g>
						
							<rect x="226.9" y="535.3" transform="matrix(0.9831 -0.183 0.183 0.9831 -96.2767 50.8238)" class="st27" width="0.7" height="23.6"/>
					</g>
					<g>
						
							<rect x="232.2" y="534.2" transform="matrix(0.9831 -0.1832 0.1832 0.9831 -95.3081 51.7806)" class="st27" width="0.7" height="15.1"/>
					</g>
					<g>
						
							<rect x="238.4" y="533" transform="matrix(0.9832 -0.1828 0.1828 0.9832 -94.7747 52.7396)" class="st27" width="0.7" height="15.1"/>
					</g>
					<g>
						
							<rect x="244.5" y="531.8" transform="matrix(0.9831 -0.1829 0.1829 0.9831 -94.5147 53.8855)" class="st27" width="0.7" height="15.1"/>
					</g>
					<g>
						
							<rect x="250.7" y="530.6" transform="matrix(0.9831 -0.1831 0.1831 0.9831 -94.3028 55.0667)" class="st27" width="0.7" height="15.1"/>
					</g>
					<g>
						
							<rect x="257.6" y="529.4" transform="matrix(0.9831 -0.1829 0.1829 0.9831 -94.6397 56.3183)" class="st27" width="0.7" height="23.6"/>
					</g>
					<g>
						
							<rect x="262.9" y="528.2" transform="matrix(0.9831 -0.183 0.183 0.9831 -93.6168 57.2443)" class="st27" width="0.7" height="15.1"/>
					</g>
					<g>
						
							<rect x="269.1" y="527.1" transform="matrix(0.9832 -0.1826 0.1826 0.9832 -93.0877 58.1898)" class="st27" width="0.7" height="15.1"/>
					</g>
					<g>
						
							<rect x="275.2" y="525.9" transform="matrix(0.9832 -0.1826 0.1826 0.9832 -92.7897 59.3064)" class="st27" width="0.7" height="15.1"/>
					</g>
					<g>
						
							<rect x="281.4" y="524.7" transform="matrix(0.9831 -0.1831 0.1831 0.9831 -92.6809 60.5764)" class="st27" width="0.7" height="15.1"/>
					</g>
					<g>
						
							<rect x="288.3" y="523.4" transform="matrix(0.9831 -0.183 0.183 0.9831 -93.0678 61.8586)" class="st27" width="0.7" height="23.6"/>
					</g>
					<g>
						
							<rect x="293.7" y="522.3" transform="matrix(0.9831 -0.1829 0.1829 0.9831 -91.9372 62.7021)" class="st27" width="0.7" height="15.1"/>
					</g>
					<g>
						
							<rect x="299.8" y="521.1" transform="matrix(0.9831 -0.1833 0.1833 0.9831 -91.8004 63.9596)" class="st27" width="0.7" height="15.1"/>
					</g>
					<g>
						
							<rect x="305.9" y="520" transform="matrix(0.9831 -0.1829 0.1829 0.9831 -91.2946 64.9057)" class="st27" width="0.7" height="15.1"/>
					</g>
					<g>
						
							<rect x="312.1" y="518.8" transform="matrix(0.9831 -0.183 0.183 0.9831 -91.0379 66.0642)" class="st27" width="0.7" height="15.1"/>
					</g>
					<g>
						
							<rect x="319" y="517.5" transform="matrix(0.9832 -0.1828 0.1828 0.9832 -91.3528 67.2819)" class="st27" width="0.7" height="23.6"/>
					</g>
					<g>
						
							<rect x="324.4" y="516.4" transform="matrix(0.9831 -0.1829 0.1829 0.9831 -90.3544 68.2345)" class="st27" width="0.7" height="15.1"/>
					</g>
					<g>
						
							<rect x="330.5" y="515.2" transform="matrix(0.9832 -0.1823 0.1823 0.9832 -89.7413 69.0672)" class="st27" width="0.7" height="15.1"/>
					</g>
					<g>
						
							<rect x="336.7" y="514" transform="matrix(0.9831 -0.1829 0.1829 0.9831 -89.719 70.4458)" class="st27" width="0.7" height="15.1"/>
					</g>
					<g>
						
							<rect x="342.8" y="512.9" transform="matrix(0.983 -0.1835 0.1835 0.983 -89.651 71.794)" class="st27" width="0.7" height="15.1"/>
					</g>
					<g>
						
							<rect x="349.7" y="511.6" transform="matrix(0.9832 -0.1827 0.1827 0.9832 -89.7099 72.7508)" class="st27" width="0.7" height="23.6"/>
					</g>
					<g>
						
							<rect x="355.1" y="510.5" transform="matrix(0.9831 -0.1831 0.1831 0.9831 -88.843 73.8427)" class="st27" width="0.7" height="15.1"/>
					</g>
					<g>
						
							<rect x="361.2" y="509.3" transform="matrix(0.9831 -0.1829 0.1829 0.9831 -88.4508 74.8723)" class="st27" width="0.7" height="15.1"/>
					</g>
					<g>
						
							<rect x="367.4" y="508.1" transform="matrix(0.9832 -0.1828 0.1828 0.9832 -88.0509 75.8939)" class="st27" width="0.7" height="15.1"/>
					</g>
					<g>
						
							<rect x="373.5" y="506.9" transform="matrix(0.9831 -0.1829 0.1829 0.9831 -87.7956 77.0643)" class="st27" width="0.7" height="15.1"/>
					</g>
					<g>
						
							<rect x="380.4" y="505.7" transform="matrix(0.9831 -0.1829 0.1829 0.9831 -88.2269 78.3838)" class="st27" width="0.7" height="23.6"/>
					</g>
					<g>
						
							<rect x="385.8" y="504.6" transform="matrix(0.9831 -0.1831 0.1831 0.9831 -87.23 79.3545)" class="st27" width="0.7" height="15.1"/>
					</g>
					<g>
						
							<rect x="391.9" y="503.4" transform="matrix(0.9831 -0.1828 0.1828 0.9831 -86.8063 80.3441)" class="st27" width="0.7" height="15.1"/>
					</g>
					<g>
						
							<rect x="398.1" y="502.2" transform="matrix(0.9832 -0.1828 0.1828 0.9832 -86.4557 81.4122)" class="st27" width="0.7" height="15.1"/>
					</g>
					<g>
						
							<rect x="404.2" y="501" transform="matrix(0.9831 -0.1829 0.1829 0.9831 -86.1763 82.5625)" class="st27" width="0.7" height="15.1"/>
					</g>
					<g>
						
							<rect x="411.1" y="499.8" transform="matrix(0.9831 -0.1832 0.1832 0.9831 -86.7589 84.0573)" class="st27" width="0.7" height="23.6"/>
					</g>
					<g>
						
							<rect x="416.5" y="498.6" transform="matrix(0.983 -0.1833 0.1833 0.983 -85.7402 85.0135)" class="st27" width="0.7" height="15.1"/>
					</g>
					<g>
						
							<rect x="422.7" y="497.5" transform="matrix(0.9831 -0.1831 0.1831 0.9831 -85.3035 85.9808)" class="st27" width="0.7" height="15.1"/>
					</g>
					<g>
						
							<rect x="428.8" y="496.3" transform="matrix(0.9831 -0.183 0.183 0.9831 -84.9454 87.0376)" class="st27" width="0.7" height="15.1"/>
					</g>
					<g>
						
							<rect x="434.9" y="495.1" transform="matrix(0.9831 -0.1829 0.1829 0.9831 -84.5856 88.0925)" class="st27" width="0.7" height="15.1"/>
					</g>
					<g>
						
							<rect x="441.9" y="493.8" transform="matrix(0.9831 -0.1829 0.1829 0.9831 -85.031 89.4308)" class="st27" width="0.7" height="23.6"/>
					</g>
					<g>
						
							<rect x="447.2" y="492.7" transform="matrix(0.9832 -0.1827 0.1827 0.9832 -83.8685 90.2001)" class="st27" width="0.7" height="15.1"/>
					</g>
					<g>
						
							<rect x="453.4" y="491.5" transform="matrix(0.9831 -0.1831 0.1831 0.9831 -83.699 91.5012)" class="st27" width="0.7" height="15.1"/>
					</g>
					<g>
						
							<rect x="459.5" y="490.4" transform="matrix(0.9832 -0.1828 0.1828 0.9832 -83.2606 92.4454)" class="st27" width="0.7" height="15.1"/>
					</g>
					<g>
						
							<rect x="465.6" y="489.2" transform="matrix(0.9831 -0.1828 0.1828 0.9831 -82.9537 93.5677)" class="st27" width="0.7" height="15.1"/>
					</g>
					<g>
						
							<rect x="472.6" y="487.9" transform="matrix(0.9831 -0.1829 0.1829 0.9831 -83.4298 94.9475)" class="st27" width="0.7" height="23.6"/>
					</g>
					<g>
						
							<rect x="477.9" y="486.8" transform="matrix(0.9832 -0.1826 0.1826 0.9832 -82.2336 95.6597)" class="st27" width="0.7" height="15.1"/>
					</g>
					<g>
						
							<rect x="484.1" y="485.6" transform="matrix(0.9831 -0.1828 0.1828 0.9831 -81.9871 96.8675)" class="st27" width="0.7" height="15.1"/>
					</g>
					<g>
						
							<rect x="490.2" y="484.4" transform="matrix(0.9831 -0.1831 0.1831 0.9831 -81.7841 98.1384)" class="st27" width="0.7" height="15.1"/>
					</g>
					<g>
						
							<rect x="496.4" y="483.3" transform="matrix(0.9831 -0.1829 0.1829 0.9831 -81.3974 99.1454)" class="st27" width="0.7" height="15.1"/>
					</g>
					<g>
						
							<rect x="503.3" y="482" transform="matrix(0.9831 -0.1829 0.1829 0.9831 -81.7974 100.4186)" class="st27" width="0.7" height="23.6"/>
					</g>
					<g>
						
							<rect x="508.6" y="480.9" transform="matrix(0.9832 -0.1827 0.1827 0.9832 -80.6799 101.2375)" class="st27" width="0.7" height="15.1"/>
					</g>
					<g>
						
							<rect x="514.8" y="479.7" transform="matrix(0.9832 -0.1827 0.1827 0.9832 -80.3446 102.3161)" class="st27" width="0.7" height="15.1"/>
					</g>
					<g>
						
							<rect x="520.9" y="478.5" transform="matrix(0.9831 -0.1828 0.1828 0.9831 -80.0738 103.4961)" class="st27" width="0.7" height="15.1"/>
					</g>
					<g>
						
							<rect x="527.1" y="477.3" transform="matrix(0.9831 -0.183 0.183 0.9831 -79.8055 104.6798)" class="st27" width="0.7" height="15.1"/>
					</g>
					<g>
						
							<rect x="534" y="476.1" transform="matrix(0.9831 -0.1829 0.1829 0.9831 -80.2077 105.9532)" class="st27" width="0.7" height="23.5"/>
					</g>
				</g>
			</g>
		</g>
		<g>
			<path class="st13" d="M245.8,544l21.2,36.3c0,0-2.8,1.5-4.9,0.3c-5.5-3.4-16-13.4-20.1-19.2c-5.6-8-9.5-17-9.5-17L245.8,544z"/>
			<g>
				<g>
					<path class="st13" d="M260.9,576.5l1,4.4c0,0,0.4,2.1,1.8,4.3c1.4,2.2,3.8,2.1,6.4,1c2.6-1.1,3.5-2.4,3.5-2.4s0.3-3.3-2.5-3.9
						c-2.7-0.6-7-5.3-7.9-4.5C262.3,576.2,260.9,576.5,260.9,576.5z"/>
					<polygon class="st13" points="273.7,582.3 275.5,587 276.9,591.4 275.8,591.4 274.3,588.5 269.5,585.4 270.9,584.4 					"/>
					<polygon class="st13" points="272.4,589.1 272.4,593.4 271.2,593.7 270.5,589.6 268.1,586 270.9,584.4 					"/>
					<polygon class="st13" points="269.3,593.8 269.6,590.4 270.1,588.1 268.9,586 266.4,586.6 267.7,588.9 268.1,593.3 					"/>
					<polygon class="st13" points="265.8,593.3 267.4,587.2 266.5,585.7 264.7,586 265.1,588.9 265.1,592.5 					"/>
				</g>
				<path class="st13" d="M262.7,573.2c0.9,2.5,3.8,3.1,3.8,3.1s7.2,1.7,7.8,3.2c0.6,1.4,3.1,3.1,3.1,3.1s0.6,1.3-2.3,0.6
					c-1.9-0.4-3.3-1.4-3.3-1.4s-4.7,0.5-5.8-0.1c-2.3-1.2-4.3-7.3-4.3-7.3S262.6,572.8,262.7,573.2z"/>
			</g>
			<g>
				<polygon class="st19" points="242.2,531.7 254.5,559.5 245.2,566.6 231.4,553.8 				"/>
			</g>
			<path class="st19" d="M241.6,539.3c0,0,2.3-20.5,2.2-27c0-4.5-2.3-16.1-2.3-16.1s-6.5-0.2-9.2,2.2c-7.8,6.8-8.9,19.1-8.9,19.1
				l8,36.3l7.4-2L241.6,539.3z"/>
		</g>
		<g>
			<path class="st13" d="M343.8,536.2l14.6,41.4c0,0-3.2,1-5-0.7c-5-4.5-13.7-16.9-16.8-23.6c-4.2-9.3-6.4-19.3-6.4-19.3
				L343.8,536.2z"/>
			<path class="st13" d="M354,577.8c0.9,1.7,6.8,3.4,6.8,3.4l4.2-4.8l-1.2-4.5l-3.4,0.1l-5.7,2.2C354.7,574.3,353.5,576.7,354,577.8
				z"/>
			<path class="st23" d="M366.2,503.6l-19.7,30.7l-2.7,0.4l0.8,2.6l-14.3-1.1l-3.2-12.6l27.6-41.5c0,0,8.6-8,22.7-5.9
				C387.7,477.7,367.7,501,366.2,503.6z"/>
			<path class="st5" d="M331.5,528.1c0,0,8.8,4.3,13.5,6.4l-1.2,0.2l0.8,2.6l-4.9-0.4l-6.9-1.7l-0.4-3h2.1L331.5,528.1z"/>
		</g>
		<g>
			<polygon class="st13" points="20.9,681 14.9,705.1 29,708.8 36.5,709 21.9,701.6 29.5,679.6 			"/>
			<path class="st18" d="M14.7,708.8l2.9,0.2l1.6-2.1l11.3,3.2l9.6,0.5c0,0,0-0.8-0.4-1.1c-1.4-1.3-8.5-3.4-8.5-3.4s0.3,2.2-0.6,2.4
				c-0.9,0.2-9.6-2.4-11.7-3.2c-3.5-1.4-4.3-2.5-4.5-2.3C13.9,703.5,14.7,708.8,14.7,708.8z"/>
			<path class="st22" d="M35.4,562.8c-5.9,16.1,3.8,68.1,3.8,68.1s-7.9,14.7-10,22.2c-3.7,13-10.7,29.7-10.7,29.7l11.8,0.5
				c0,0,26.2-47.1,27.2-53.4c1.1-6.3,6-59.2-1-71.8C49.6,545.3,37.7,556.4,35.4,562.8z"/>
			<path class="st28" d="M108.5,519.6c-6.3,5.7-16.1,5.1-21.9-1.5c-5.8-6.6-5.3-16.6,1-22.3c6.3-5.7,16.1-5.1,21.9,1.5
				C115.3,503.8,114.8,513.8,108.5,519.6z"/>
			<path class="st28" d="M92.7,534.2c-6.6,6-16.8,5.3-22.9-1.6c-6-6.9-5.5-17.3,1.1-23.3c6.6-6,16.8-5.3,22.9,1.6
				C99.8,517.7,99.3,528.2,92.7,534.2z"/>
			<path class="st28" d="M125.2,521.1c-4.9,4.4-12.3,4-16.6-1l2.2-6c-4.3-4.9-3.9-12.5,0.9-16.9l3.3-3c4.9-4.4,12.3-4,16.6,1l2,2.2
				c4.3,4.9,3.9,12.5-0.9,16.9L125.2,521.1z"/>
			<path class="st13" d="M135,505.8c-0.8,0.7-1.7,1.4-2.7,2c-6.4,4.2-13.8,4.6-17.7,1.3c-2.7,2.2-5.4,3.8-7.9,4.9
				c-2.8,1.3-7.5,0.8-7.5,0.8c-4.5,2.9,1.7,21.9,2,21c0.4-0.9,2-8.5,5.3-13.5c2.3-3.5,5.6-4.7,8.3-5.1c4.3-0.1,7,3,7,3
				c0.3,0.3,0.6,0.5,1,0.5c0.7-0.3,1.4-0.8,2.1-1.4l7.3-6.6C134.2,510.9,135.2,508.3,135,505.8z"/>
			<path class="st29" d="M57.2,585.5c0,0,14.1-18.4,21.3-27.5c7.3-9.1,20.1-27.5,21.8-29.7c1.7-2.2,3.4-5.9,3.4-5.9s1.1-5.4-2-7.9
				c-3.1-2.5-4.8-2.6-17.5,0.9c-23.1,6.3-52.8,43.2-51.3,49.2c0.1,0.3,6.5,1.5,6.5,1.5S55.5,573.4,57.2,585.5z"/>
			<polygon class="st19" points="103,512.7 103.7,516.6 104.4,522.4 100.1,525.1 100.1,513.1 			"/>
			<g>
				<path class="st13" d="M104.6,593.4c2.9,6.8,7.1,8.3,9.2,10.6c2.1,2.3,4.7,4.3,4.6,4.3c-3.2-0.4-4.2-2.5-5.5-3.2
					c-1.3-0.7-0.8-0.6,0.1,1.9c0.5,1.4,3.7,2.9,5.6,4.1c1.7,1,2.2,1.9,2.2,1.9s-2.9-0.8-5.6-2.2c-3.3-1.8-6.5-4.3-7.1-5
					c-1.1-1.2-3.2-5.7-4.2-9.1C102.8,592.9,102.6,588.6,104.6,593.4z"/>
				<path class="st13" d="M87.5,552.4c0,0,2.7-1,8.3,13.4c5.6,14.4,10.8,36.9,10.8,36.9l-15.8-32.2C90.7,570.6,85.2,558,87.5,552.4z
					"/>
				<path class="st19" d="M97.2,560.6c0,0-5.3-13.4-12.3-10c-3.9,1.9-4.3,5.5-2.7,9.6c3.1,7.5,7,15.9,7,15.9l12.6,0.1L97.2,560.6z"
					/>
				<path class="st19" d="M95.3,552.9l3.1-31.1c0,0-0.9-3.9-3.8-4.6c-4.2-0.9-6.4,0.1-7.5,2.4c-2.2,4.6-1.8,2.1-4,19.9
					c-2,16.3-3,23.1,4.6,24.4C94.7,565.2,95.3,552.9,95.3,552.9z"/>
				<path class="st16" d="M110.1,607.3c0,0,3.6,4.5,4.7,5c0.7,0.4,4.4,1.7,4.4,1.7s-1.2-1.7-2.7-2.4
					C115.1,611.1,110.1,607.3,110.1,607.3z"/>
			</g>
		</g>
	</g>
	<g>
		<g>
			<g>
				<g>
					<path class="st15" d="M786.5,503.9c0,6,4.8,10.8,10.6,10.8l2.7-5.1c5.9,0,10.6-9,10.6-15v-4.1c0-6-4.8-10.8-10.6-10.8h-2.7
						c-5.9,0-10.6,4.8-10.6,10.8V503.9z"/>
					<path class="st15" d="M808.7,490.4c0.6,0,1.2,0,1.7,0.1c-0.1,0.7-0.2,1.4-0.2,2.2c0,7.2,5.4,13.1,12.4,14
						c-1.1,6.7-6.9,11.9-13.9,11.9c-7.8,0-14.1-6.3-14.1-14.1C794.6,496.7,800.9,490.4,808.7,490.4z"/>
					<path class="st13" d="M790.7,483.9c0,1,0.1,2,0.3,3c1.1,6.9,5.2,12.2,9.7,12.9c0.1,3.1,0.8,6,1.5,8.4c0.8,2.7,6.6,6.8,6.6,6.8
						c0.8,4.8-18,10.8-17.6,10c0.4-0.8,4.4-6.5,5.7-11.7c0.9-3.6-0.3-6.7-1.6-8.7c-2.5-3-6.2-3-6.2-3c-0.4,0-0.7-0.2-0.9-0.4
						c-0.2-0.7-0.3-1.5-0.3-2.3v-8.9C787.8,487.5,789,485.3,790.7,483.9z"/>
					<path class="st30" d="M797.9,555.1c1.8,4.5,11.4,4.5,13.2,0l10.2-32.3c1.8-4.5-0.2-8.1-4.3-8.1h-8.8c0,0-4.4,7.4-8.1,6.9
						c-3.9-0.5-3.6-6.9-3.6-6.9h-3c-4.2,0-6.1,3.7-4.4,8.1L797.9,555.1z"/>
					<path class="st30" d="M788.6,517.6l-10.2,31.2c0,0-0.7,2.2,1.4,0.7c3-2,9.7-9.3,15.7-23.7C800,515.2,791.3,517,788.6,517.6z"/>
					<path class="st13" d="M786.3,636.1c0.5-1.7,0.8-3.5,1.2-5.2c1.7-2.7,3.2-4.1,4.4-4.2c4.7,0,7.1,16.2-2.4,47.1
						c-0.5,1.7-8.9,32.8-8.9,31.6C780.5,680.3,784.6,642.4,786.3,636.1z"/>
					<path class="st13" d="M814.9,636.4c-0.4-1.8-0.9-3.5-1.3-5.2c0.3-3.1,0.9-5.2,2-5.8c4.1-2.2,13.7,10.9,19.5,42.8
						c0.3,1.8,7.2,33.2,6.6,32.1C830,678.3,816.2,642.8,814.9,636.4z"/>
					<path class="st15" d="M784.2,645.1c-0.2-1.1-0.3-2.3-0.3-3.6c0.2-7.2,0-14.6,1.1-28.3c1.1-13.3,3.7-33.1,9.3-55.9
						c0.5-2.3,1.2-4.3,1.9-6c5-0.7,10.2,2.8,15.4,4.3c1.9,3.6,3.6,8,4.8,13.2c5.7,23.6,8.5,37.3,10,48.7c1.5,11.1,1.7,20,2.5,25.9
						C814.3,668,799.5,622.6,784.2,645.1z"/>
					<g>
						<path class="st13" d="M779.8,548c0,0,2.1-0.6-0.9-12.3c-3.1-11.6-10.1-28-10.1-28l4.8,27.5C773.5,535.2,775.8,545.6,779.8,548
							z"/>
						<path class="st13" d="M771.9,516.6c-1.3-5.6,0.6-8.6,0.9-11c0.3-2.4,0.9-4.9,0.9-4.9c-1.8,1.7-1.5,3.6-2,4.6
							c-0.5,1.1-0.2,0.8-0.8-1.2c-0.3-1.1,1-3.5,1.6-5.2c0.6-1.4,0.5-2.2,0.5-2.2s-1.5,1.9-2.5,4c-1.2,2.6-2.1,5.7-2.1,6.4
							c-0.1,1.3,0.6,5,1.6,7.6C771,517.8,772.8,520.6,771.9,516.6z"/>
						<path class="st13" d="M768.6,507.6c0,0,0-4.5,0.3-5.4c0.2-0.6,1.8-3.3,1.8-3.3s0.1,1.7-0.4,2.8
							C769.7,502.8,768.6,507.6,768.6,507.6z"/>
					</g>
					<path class="st30" d="M771.5,522.2c0,5.8,1.8,14.6,5.3,24c0.4,1.1,0.8,2.2,1.3,3.3c0.7,1.6,3.4-0.6,3.3-3.6
						c-0.3-5.8-2.5-12.4-5.7-20.9c-0.5-1.5-1.1-2.9-1.7-4.3C773.1,521.2,772.3,521.7,771.5,522.2z"/>
				</g>
				<path class="st13" d="M766,705.3c0,0,1.7,0,6,0.9c2.5,0.5,4.3,1.3,5.5,0.8c2-0.9,3.5-9.7,3.8-16.1c0-0.7,4.3-2.4,4.1-1.6
					c-2.6,10.3-2.7,16.9-3,18.3c-0.4,2.4-1.5,4.7-2.7,4.7c-2.3,0.2-13-4.8-13.8-5.3C765,706.6,765.8,704.9,766,705.3z"/>
				<path class="st14" d="M846.5,707.1c1,6.2,0.5,11.5-1.1,11.8c-1.6,0.3-3.7-4.6-4.8-10.8c-1-6.2-0.5-11.5,1.1-11.7
					C843.3,696,845.5,700.9,846.5,707.1z"/>
				<path class="st13" d="M845.2,703.9c1.4,4.4,0.8,8.8-0.8,9.1c-1.6,0.3-3.4-3.1-3.9-7.7c-0.7-5.8-0.3-8.3-2.2-11.5
					c-1.9-3.3-2.2-6.5-1.8-7c0.4-0.5,2.6,0.7,2.9,2.4c0.4,2.4,1.5,4.6,1.9,5.3C842.4,696.3,843.8,699.3,845.2,703.9z"/>
				<path class="st14" d="M768.6,705.5c-1.7,2.4,6.7,4.7,9,4.9c2.2,0.2,3.6,0.5,3.6,0.5c0.1,0,0.2,0.1,0.2,0.1c0,0.1,0,0.1-0.1,0.2
					c-0.6,1.4-0.8,3.6-3,2.7l-14.2-6.1C752.5,702.8,768.6,705.5,768.6,705.5z"/>
			</g>
			<g>
				<g>
					<polygon class="st31" points="773.4,611.7 773.4,611.7 773.9,613.4 773.9,613.4 768.2,615.1 768.2,615.1 767.7,613.3 
						767.7,613.3 					"/>
					<polygon class="st31" points="788.5,607.2 788.5,607.2 789,609 789,609 779.3,611.9 779.3,611.9 778.8,610.1 778.8,610.1 					
						"/>
					<polygon class="st31" points="800,603.9 800,603.9 800.5,605.6 800.5,605.6 791.3,608.4 791.3,608.4 790.8,606.6 790.8,606.6 
											"/>
					<path class="st31" d="M854.8,518.8c5.1-1.5,10.6,1.5,12,6.8l12.9,45.8c1.5,5.2-1.5,10.8-6.7,12.3l-112.8,33.1
						c-5.1,1.5-10.6-1.5-12-6.8l-12.9-45.8c-1.5-5.2,1.5-10.8,6.7-12.3L854.8,518.8z"/>
					<path class="st32" d="M878.5,571.8c1.3,4.5-1.3,9.2-5.7,10.5l-112.8,33.1c-4.4,1.3-9.1-1.3-10.3-5.8l-12.9-45.8
						c-1.3-4.5,1.3-9.2,5.7-10.5l112.8-33.1c4.4-1.3,9.1,1.3,10.3,5.8L878.5,571.8z"/>
					<polygon class="st3" points="849.1,525 865.1,581.4 766.3,610.4 750.4,554 					"/>
					<g>
						<path class="st33" d="M752.9,593.5c0.7-0.2,1.4,0.2,1.6,0.9c0.2,0.7-0.2,1.4-0.9,1.7c-0.7,0.2-1.4-0.2-1.6-0.9
							C751.8,594.5,752.2,593.7,752.9,593.5z"/>
						<path class="st33" d="M745.8,585.1c0.4-0.1,0.9,0.1,1,0.6c0.1,0.5-0.1,0.9-0.6,1.1c-0.4,0.1-0.9-0.1-1-0.6
							C745.1,585.7,745.4,585.2,745.8,585.1z"/>
						<path class="st33" d="M748.9,579.6c0.3-0.1,0.7,0.1,0.8,0.4l2.5,8.8c0.1,0.3-0.1,0.7-0.4,0.8l0,0c-0.3,0.1-0.7-0.1-0.8-0.4
							l-2.5-8.8C748.3,580,748.5,579.7,748.9,579.6L748.9,579.6z"/>
					</g>
					<path class="st31" d="M863.8,545.7c0.6-0.2,1.2,0.2,1.4,0.8l2.3,8.1c0.2,0.6-0.2,1.2-0.8,1.4l-2.2,0.6
						c-0.6,0.2-1.2-0.2-1.4-0.8l-2.3-8.1c-0.2-0.6,0.2-1.2,0.8-1.4L863.8,545.7z"/>
				</g>
				<path class="st7" d="M813.5,564.9c-1.7-6.1-7.9-9.6-13.9-7.8c-6,1.7-9.4,8.1-7.7,14.1c1.7,6.1,7.9,9.6,13.9,7.8
					C811.8,577.3,815.2,570.9,813.5,564.9z M801,569.8l-3-3l4.1-1.2l4.1-1.2l-1,4.2l-1,4.2L801,569.8z"/>
			</g>
			<path class="st30" d="M831.9,553.2c0,0,2.3,0.4,1.5,10.6c-0.3,4.4-1.2,9.2-2,13.4c-1.1,5.6-2.8-1-2.8-1l-0.6-11.6
				C828.1,564.7,828.3,555.6,831.9,553.2z"/>
			<path class="st30" d="M821,515.9c6.4,7.8,12.9,41,12.9,41s-0.3,12.8-15.2-29.4C814.2,514.8,819.4,514,821,515.9z"/>
			<path class="st13" d="M826.5,598.4l2.3-1.8l1.4-1.9l0.9-3.8c0,0,0.5-4.1,0.1-5.7c-0.4-1.6,0.2-7.8,0.1-8.6
				c-0.1-0.8-2.3-1.3-2.3-1.3s-0.3,5.7-0.2,8.3c0,2.6-1.2,6.4-1.2,7.4c0,1.8,0.4,3.2,0.4,3.2s0.5-2.7,0.6-3.4
				c0.1-0.7,0.8-0.3,0.8-0.3s-0.4,3.8-0.9,4.7c-0.5,0.9-1.3,1.6-1.3,1.6L826.5,598.4z"/>
		</g>
	</g>
	<g>
		<path class="st14" d="M503,89.9c-36.3-1.1-19.1-18.3-44.2-30.6c-9.8-4.8-17.4,4.8-21.2,8.6l-3.8,1.6c-4,4-1.9,10.7,2.2,14.7
			l6.2,6.1c7.2,5.7,3.7,15.4,8.3,19.9c5.2,5.1,13.5,5,18.8-0.2c0.2,0.2,0.3,0.3,0.5,0.5c5.2,5.2,30,8.8,35.9,4.1
			C516.7,105.6,509.3,90.1,503,89.9z"/>
		<g>
			<g>
				<g>
					<path class="st16" d="M454.1,130.4c0,0-0.3,2.3-11.3,1.2c-11-1-26.9-5.3-26.9-5.3l25.6,0C441.5,126.4,451.3,126.9,454.1,130.4z
						"/>
					<path class="st16" d="M424.5,128c-5.2-0.3-7.7,2.1-9.8,2.8c-2.1,0.7-4.3,1.8-4.3,1.8c1.3-2.2,3-2.1,3.9-2.8
						c0.9-0.7,0.7-0.3-1.2-0.6c-1.1-0.1-3,1.6-4.5,2.6c-1.2,0.8-2,0.8-2,0.8s1.5-1.8,3.3-3.2c2.2-1.7,4.9-3.1,5.5-3.3
						c1.1-0.4,4.7-0.3,7.1,0.2C425.4,126.9,428.2,128.2,424.5,128z"/>
					<path class="st16" d="M415.8,126.2c0,0-4.1,0.8-4.8,1.2c-0.5,0.3-2.7,2.4-2.7,2.4s1.5-0.1,2.4-0.9
						C411.6,128.2,415.8,126.2,415.8,126.2z"/>
				</g>
				<path class="st34" d="M449.5,125.3c0,0,10.1,1.3,9.1,7.2c-0.6,3.4-3,4.4-6.1,4c-5.7-0.8-12.1-2-12.1-2l-2.3-9.5L449.5,125.3z"/>
			</g>
			<path class="st34" d="M449.8,129.6l4.6-33.1c0,0,0.4-7.1,3-6.7c3.7,0.5,9.3,11.3,9.5,13.5c0.3,4.5-6.3,27.9-7.1,32.5
				c-0.6,3.2-3.4-0.7-6.7-1.3C446.9,133.5,449.8,129.6,449.8,129.6z"/>
		</g>
		<polygon class="st13" points="586.9,88.1 596.7,70.8 608.3,71.5 614,73.2 601.2,75.1 593.1,91.3 		"/>
		<path class="st22" d="M598.3,68.1l1.5,0.5l0.7,1.9l9.3,0.4l7.4,2c0,0-0.2,0.6-0.6,0.7c-1.4,0.6-7.2,0.4-7.2,0.4s0.7-1.6,0.1-2
			c-0.6-0.4-7.8-0.6-9.6-0.5c-3,0.2-4.6,0.8-4.4,0.4C595.7,71.5,598.3,68.1,598.3,68.1z"/>
		<path class="st14" d="M537.7,120.7l27.1,3.1l24.1-42.5l8.1,4l-24.3,51.6c0,0-1.9,3.2-10.1,2.5c-8-0.7-40.3-2.6-43.9-3.9
			C510.2,132.3,538.6,128.2,537.7,120.7z"/>
		<path class="st13" d="M434.3,76.8c0.7,0.6,1.4,1.3,2.2,1.8c5.4,3.9,11.7,4.5,15.2,1.8c2.2,2,4.5,3.4,6.6,4.5c2.4,1.2,6.5,1,6.5,1
			c3.8,2.7,6,13.5-2.6,17.7c-5.2,2.5-6.1-3.5-5.5-7.8c0.3-2,0.5-4.2-0.1-5.1c-1.8-3-3.2-3.1-5.5-3.5c-3.8-0.3-6.2,2.3-6.2,2.3
			c-0.2,0.2-0.6,0.4-0.9,0.3c-0.6-0.3-1.2-0.7-1.7-1.3l-6-5.9C434.7,81.2,434,79,434.3,76.8z"/>
		<polygon class="st13" points="565.2,79 565.5,65.2 568.3,61.8 575.8,57.4 581.3,58.4 571.6,65.8 571,80.3 		"/>
		<path class="st22" d="M565.9,62.1l2.5-1.8l0.8,0.6l6.9-4.5c0,0,6.3-1.7,7.5-0.3c0.4,0.5-0.6,1.2-2,2.3c-1.1,0.8-1.8,1.2-1.8,1.2
			s-0.3-1.1-2.8-1.5c-0.8-0.1-5.7,3.2-7.4,4c-3,1.5-4.2,3.7-4.4,3.5C564.8,65.2,565.9,62.1,565.9,62.1z"/>
		<path class="st22" d="M510.5,143.1l6.1-0.3l49.7-3.5c0,0,4.5,1.3,7.2-5.7c4-10-1.7-60.1-1.7-60.1l-7.4,0.2l-3.6,47.2
			c0,0-34.9-11.1-42.8-8.4c-9.2,3.2-14.6,7.6-26.2,19.7c-5.1,5.3,1.7,10,1.7,10L510.5,143.1z"/>
		<path class="st35" d="M454.5,92.3c0,0,8.4-10.5,15.4-4.2c7,6.3,31.5,25.9,38.9,28.2l1.7,27.6c-20.2,1.3-36.8-9-38.2-11.1
			C467.9,126.2,451.7,100.7,454.5,92.3z"/>
		<path class="st34" d="M478.8,126.3c-2-2.7-6-8.5-10-15c-5-8.2-12.6-6.8-8.5,1.2c4.3,8.5,9.7,16.9,12,20.3
			c1.4,2.1,14.8,12.4,35,11.1l-2-2.8C490.9,139.7,480.1,128.1,478.8,126.3z"/>
		<g>
			<g>
				<path class="st13" d="M466.5,137.3c0,0,3,3.3-10.7,1.9c-9.8-1-9.5-0.3-33.6-6.5l32,0.5C454.1,133.1,463,133.1,466.5,137.3z"/>
				<path class="st13" d="M432.9,134.6c-6.6-0.5-9.6,2.3-12.2,3c-2.7,0.7-5.4,2-5.3,1.9c1.6-2.4,3.7-2.4,4.9-3.1
					c1.1-0.7,0.8-0.4-1.5-0.7c-1.3-0.2-3.8,1.8-5.6,2.8c-1.5,0.9-2.4,0.9-2.4,0.9s1.8-2,4.1-3.6c2.8-1.9,6.1-3.4,6.9-3.6
					c1.4-0.4,5.8-0.2,8.9,0.4C434.1,133.4,437.6,135,432.9,134.6z"/>
				<path class="st16" d="M422,132.5c0,0-5.1,0.8-6,1.3c-0.6,0.4-3.4,2.6-3.4,2.6s1.9-0.1,3-1C416.8,134.6,422,132.5,422,132.5z"/>
			</g>
			<path class="st35" d="M459.3,131.8l-4.5-37.5c0,0,2.9-3.7,5.5-2.4c2.8,1.4,8.3,5.2,8.3,5.2s4.6,13,5.9,24.4
				c2.1,18.9,1.1,19.3-5.9,21c-7.2,1.7-20.3,0-20.3,0l-2.9-10.7L459.3,131.8z"/>
		</g>
		<g>
			<path class="st29" d="M436.9,140.8C436.9,140.8,436.9,140.8,436.9,140.8v-1.5H377v1.4c0,0,0,0,0,0l0.2,0.3
				c0.8,1.3,2.1,1.5,3.7,1.5H433c1.6,0,3-0.2,3.7-1.5L436.9,140.8z"/>
			<path class="st36" d="M422.4,141C422.4,141,422.4,141.1,422.4,141l0.1,0.3c0.2,0.3,0.5,0.6,0.9,0.7h9.1c1.5,0,2.9-0.2,3.6-1.2
				l0.1-0.2c0,0,0,0,0,0l0-0.7h-13.9V141z"/>
			<g>
				<rect x="384.4" y="139.6" class="st36" width="29.9" height="1"/>
			</g>
			<g>
				<path class="st31" d="M422.1,139.3l-7.8-29.4c-0.2-0.8-1-1.4-1.8-1.4h-42c-0.8,0-1.2,0.6-1,1.4l7.8,29.4H422.1z"/>
				<path class="st36" d="M398.3,123.8c0.4,1.5-0.5,2.7-2,2.7c-1.5,0-3-1.2-3.4-2.7c-0.4-1.5,0.5-2.7,2-2.7
					C396.4,121.1,397.9,122.3,398.3,123.8z"/>
			</g>
		</g>
	</g>
	<g>
		<g>
			
				<rect x="754.1" y="205.6" transform="matrix(0.9748 -0.2232 0.2232 0.9748 -28.4651 173.8396)" class="st2" width="1" height="14.4"/>
		</g>
		<g>
			<polygon class="st2" points="758,219.9 754.8,205.9 755.8,205.7 759,219.7 			"/>
		</g>
		<g>
			<polygon class="st2" points="768.8,219.9 767.8,219.7 771,205.7 772,205.9 			"/>
		</g>
		<g>
			<polygon class="st2" points="766.5,219.9 765.5,219.7 768.7,205.7 769.7,205.9 			"/>
		</g>
		<rect x="755.4" y="216.6" class="st37" width="14.3" height="13.1"/>
		<g>
			<g>
				<path class="st5" d="M710.8,117.5c1.6-30.5,22.5-57,51.8-67.4c-31.6,0-60.8,26.5-64.2,59.6c-3.9,29.7,12.9,64.7,50.4,90.7h2.9
					C722.6,175.3,708.9,144.8,710.8,117.5z"/>
				<path class="st5" d="M814.3,117.5c1.8,27.3-11.8,57.8-40.9,82.9h2.9c37.5-26,54.4-61,50.4-90.7c-3.4-33.1-32.6-59.6-64.2-59.6
					C791.8,60.5,812.7,87,814.3,117.5z"/>
				<path class="st6" d="M710.8,117.5c-1.9,27.3,11.8,57.8,40.9,82.9h2.9c-44.6-51.7-37.3-115.8,8-150.3
					C733.3,60.5,712.4,87,710.8,117.5z"/>
				<path class="st5" d="M754.5,200.4h3.2c-26.6-50.7-24-105.9,4.8-150.3C717.2,84.7,710,148.7,754.5,200.4z"/>
				<path class="st6" d="M757.7,200.4h3.2c-9-50.2-8.4-100.9,1.6-150.3C733.7,94.6,731.1,149.7,757.7,200.4z"/>
				<path class="st5" d="M760.9,200.4h3.2c8.4-50.2,7.9-100.8-1.5-150.3C752.5,99.5,751.9,150.2,760.9,200.4z"/>
				<path class="st6" d="M764.1,200.4h3.2c26-50.7,23.5-105.6-4.7-150.3C772,99.6,772.5,150.3,764.1,200.4z"/>
				<path class="st5" d="M767.2,200.4h3.2c44-51.6,36.9-115.4-7.9-150.3C790.8,94.8,793.3,149.8,767.2,200.4z"/>
				<path class="st6" d="M770.4,200.4h3c29.1-25.1,42.8-55.6,40.9-82.9c-1.6-30.5-22.5-57-51.8-67.4
					C807.4,85.1,814.4,148.8,770.4,200.4z"/>
			</g>
			<polygon class="st5" points="753.1,205.8 740.1,192.1 762.5,192.1 785,192.1 772,205.8 			"/>
		</g>
	</g>
</g>
</svg>
