<?xml version="1.0" encoding="utf-8"?>
<svg xmlns="http://www.w3.org/2000/svg" xmlns:xlink="http://www.w3.org/1999/xlink" style="margin: auto; background: rgb(241, 242, 243); display: block; z-index: 1; position: relative; shape-rendering: auto;" width="850" height="850" preserveAspectRatio="xMidYMid" viewBox="0 0 850 850">
<g transform=""><linearGradient id="lg-0.6590519274487807" x1="0" x2="1" y1="0" y2="0">
  <stop stop-color="#3d5afe" offset="0"></stop>
  <stop stop-color="#4527a0" offset="1"></stop>
</linearGradient><path d="M 798.175 425 C 798.175 459.461 774.235 543.156 760.504 574.617 C 746.774 606.078 664.601 639.792 638.87 662.523 C 613.14 685.253 535.313 652.903 502.852 663.634 C 470.391 674.364 431.348 698.053 396.887 694.053 C 362.426 690.053 300.086 710.175 270.356 693.444 C 240.626 676.714 170.383 652.539 149.922 624.809 C 129.461 597.078 102.644 528.348 95.644 494.887 C 88.644 461.426 51 380.461 58 347 C 65 313.539 123.817 249.121 144.278 221.391 C 164.739 193.661 256.226 202.183 285.957 184.722 C 315.687 167.261 362.078 161.391 396.539 157.391 C 431 153.391 481.609 140.06 514.07 150.79 C 546.531 161.521 588.695 191.574 614.426 214.305 C 640.156 237.035 738.288 248.086 752.018 279.547 C 765.749 311.008 798.175 390.539 798.175 425" fill="url(#lg-0.6590519274487807)" opacity="0.58">
  <animate attributeName="d" dur="4.3478260869565215s" repeatCount="indefinite" keyTimes="0;0.3333333333333333;0.6666666666666666;1" calcmod="spline" keySplines="0.3 0.1 0.7 0.9;0.3 0.1 0.7 0.9;0.3 0.1 0.7 0.9" begin="-2.1739130434782608s" values="M 813 425 C 813 460 771 541 757 573 C 743 605 677 653 651 676 C 625 699 531 637 498 648 C 465 659 430 718 395 714 C 360 710 292 725 262 708 C 232 691 172 652 151 624 C 130 596 111 527 104 493 C 97 459 51 381 58 347 C 65 313 116 244 137 216 C 158 188 260 210 290 192 C 320 174 361 156 396 152 C 431 148 487 122 520 133 C 553 144 586 194 612 217 C 638 240 755 240 769 272 C 783 304 813 390 813 425;M 813 425 C 813 458 750 534 736 564 C 722 594 636 609 611 631 C 586 653 545 686 513 696 C 481 706 438 622 405 619 C 372 616 325 666 296 649 C 267 632 175 647 156 620 C 137 593 85 531 78 499 C 71 467 76 384 83 352 C 90 320 159 273 178 246 C 197 219 267 218 296 201 C 325 184 363 156 396 152 C 429 148 486 129 518 139 C 550 149 584 198 609 220 C 634 242 727 255 740 285 C 753 315 813 392 813 425;M 758 425 C 758 458 783 549 770 579 C 757 609 631 604 606 626 C 581 648 547 696 516 706 C 485 716 435 644 402 640 C 369 636 322 670 293 654 C 264 638 166 654 147 627 C 128 600 80 532 73 500 C 66 468 51 379 58 347 C 65 315 145 263 164 236 C 183 209 246 181 275 165 C 304 149 365 176 398 172 C 431 168 467 189 498 199 C 529 209 596 185 621 207 C 646 229 693 270 706 300 C 719 330 758 392 758 425;M 813 425 C 813 460 771 541 757 573 C 743 605 677 653 651 676 C 625 699 531 637 498 648 C 465 659 430 718 395 714 C 360 710 292 725 262 708 C 232 691 172 652 151 624 C 130 596 111 527 104 493 C 97 459 51 381 58 347 C 65 313 116 244 137 216 C 158 188 260 210 290 192 C 320 174 361 156 396 152 C 431 148 487 122 520 133 C 553 144 586 194 612 217 C 638 240 755 240 769 272 C 783 304 813 390 813 425"></animate>
</path><path d="M 703.426 425 C 703.426 454.27 705.617 518.539 693.617 544.809 C 681.617 571.078 626.817 605.356 604.817 624.626 C 582.817 643.895 522.391 629.982 494.391 638.982 C 466.391 647.982 430.539 653.652 401.27 650.652 C 372 647.652 334.922 639.426 309.652 625.156 C 284.383 610.887 200.156 623.922 182.887 600.652 C 165.617 577.383 112.661 520.922 106.661 492.652 C 100.661 464.383 131.792 392.305 137.792 364.035 C 143.792 335.765 194.844 293.652 212.113 270.383 C 229.383 247.113 261.957 200.07 287.226 185.8 C 312.496 171.531 376.922 250.722 406.191 247.722 C 435.461 244.722 462.156 216.722 490.156 225.722 C 518.156 234.722 584.243 205.601 605.512 224.87 C 626.782 244.14 711.844 265.539 723.844 291.809 C 735.844 318.078 703.426 395.73 703.426 425" fill="url(#lg-0.6590519274487807)" opacity="0.58">
  <animate attributeName="d" dur="4.3478260869565215s" repeatCount="indefinite" keyTimes="0;0.3333333333333333;0.6666666666666666;1" calcmod="spline" keySplines="0.3 0.1 0.7 0.9;0.3 0.1 0.7 0.9;0.3 0.1 0.7 0.9" begin="-2.1739130434782608s" values="M 701 425 C 701 454 704 518 692 544 C 680 570 619 597 597 616 C 575 635 517 613 489 622 C 461 631 430 655 401 652 C 372 649 336 637 311 623 C 286 609 198 625 181 602 C 164 579 107 522 101 494 C 95 466 145 395 151 367 C 157 339 197 295 214 272 C 231 249 266 206 291 192 C 316 178 378 258 407 255 C 436 252 460 224 488 233 C 516 242 574 218 595 237 C 616 256 714 265 726 291 C 738 317 701 396 701 425;M 754 425 C 754 453 702 517 691 543 C 680 569 640 621 619 640 C 598 659 525 642 498 651 C 471 660 434 609 406 606 C 378 603 315 671 291 657 C 267 643 211 616 194 593 C 177 570 159 511 153 483 C 147 455 138 393 144 365 C 150 337 197 295 214 272 C 231 249 275 221 299 207 C 323 193 378 247 406 244 C 434 241 455 240 482 249 C 509 258 588 202 609 221 C 630 240 655 292 666 318 C 677 344 754 397 754 425;M 710 425 C 710 455 710 520 698 547 C 686 574 648 628 626 648 C 604 668 537 676 509 685 C 481 694 432 650 402 647 C 372 644 332 646 306 631 C 280 616 206 621 188 597 C 170 573 128 518 122 489 C 116 460 96 385 102 356 C 108 327 189 290 207 266 C 225 242 251 184 277 169 C 303 154 374 231 404 228 C 434 225 468 197 496 206 C 524 215 612 172 634 192 C 656 212 706 267 718 294 C 730 321 710 395 710 425;M 701 425 C 701 454 704 518 692 544 C 680 570 619 597 597 616 C 575 635 517 613 489 622 C 461 631 430 655 401 652 C 372 649 336 637 311 623 C 286 609 198 625 181 602 C 164 579 107 522 101 494 C 95 466 145 395 151 367 C 157 339 197 295 214 272 C 231 249 266 206 291 192 C 316 178 378 258 407 255 C 436 252 460 224 488 233 C 516 242 574 218 595 237 C 616 256 714 265 726 291 C 738 317 701 396 701 425"></animate>
</path><path d="M 742.294 425 C 742.294 454.617 717.72 523.626 705.912 550.243 C 694.103 576.86 626.747 604.208 604.669 624.286 C 582.591 644.364 529.348 652.652 501.73 661.922 C 474.113 671.191 431.348 648.617 401.73 645.348 C 372.113 642.078 334.8 639.017 309.453 624.208 C 284.105 609.399 196.461 626.695 179.383 603.348 C 162.305 580 118.331 520.313 112.062 491.695 C 105.792 463.078 89.7056 383.305 95.9752 354.687 C 102.245 326.07 172.94 277.948 190.018 254.601 C 207.097 231.253 283.566 238.792 308.914 223.983 C 334.261 209.175 377.305 256.14 406.922 253.14 C 436.539 250.14 470.539 190.531 498.156 199.8 C 525.774 209.07 570.852 218.183 592.93 238.261 C 615.008 258.339 686.617 277.035 698.426 303.652 C 710.235 330.27 742.294 395.383 742.294 425" fill="url(#lg-0.6590519274487807)" opacity="0.58">
  <animate attributeName="d" dur="4.3478260869565215s" repeatCount="indefinite" keyTimes="0;0.3333333333333333;0.6666666666666666;1" calcmod="spline" keySplines="0.3 0.1 0.7 0.9;0.3 0.1 0.7 0.9;0.3 0.1 0.7 0.9" begin="-2.1739130434782608s" values="M 721 425 C 721 453 694 515 683 540 C 672 565 613 591 592 610 C 571 629 528 654 502 663 C 476 672 430 647 402 644 C 374 641 341 625 317 611 C 293 597 197 624 181 602 C 165 580 131 516 125 489 C 119 462 111 386 117 359 C 123 332 191 289 207 267 C 223 245 293 252 317 238 C 341 224 380 268 408 265 C 436 262 470 197 496 206 C 522 215 566 226 587 245 C 608 264 685 280 696 305 C 707 330 721 397 721 425;M 745 425 C 745 457 729 524 716 554 C 703 584 675 654 651 676 C 627 698 540 673 509 683 C 478 693 435 640 403 637 C 371 634 309 691 281 675 C 253 659 200 628 181 602 C 162 576 128 522 121 490 C 114 458 63 382 70 350 C 77 318 163 275 182 249 C 201 223 271 223 299 207 C 327 191 365 159 397 156 C 429 153 480 150 511 160 C 542 170 607 175 631 197 C 655 219 707 264 720 294 C 733 324 745 393 745 425;M 800 425 C 800 459 782 547 768 578 C 754 609 664 640 639 663 C 614 686 533 649 501 659 C 469 669 435 653 401 649 C 367 645 318 677 289 660 C 260 643 195 634 175 607 C 155 580 84 532 77 499 C 70 466 32 376 39 343 C 46 310 124 248 144 221 C 164 194 258 203 287 186 C 316 169 370 224 404 221 C 438 218 472 173 504 183 C 536 193 584 197 609 220 C 634 243 691 269 705 300 C 719 331 800 391 800 425;M 721 425 C 721 453 694 515 683 540 C 672 565 613 591 592 610 C 571 629 528 654 502 663 C 476 672 430 647 402 644 C 374 641 341 625 317 611 C 293 597 197 624 181 602 C 165 580 131 516 125 489 C 119 462 111 386 117 359 C 123 332 191 289 207 267 C 223 245 293 252 317 238 C 341 224 380 268 408 265 C 436 262 470 197 496 206 C 522 215 566 226 587 245 C 608 264 685 280 696 305 C 707 330 721 397 721 425"></animate>
</path><path d="M 761.356 425 C 761.356 456.348 748.017 534.852 735.477 563.2 C 722.938 591.547 655.321 634.512 632.243 655.321 C 609.165 676.13 535.695 663.582 505.617 673.121 C 475.539 682.661 433.652 643.955 402.305 640.685 C 370.957 637.416 322.531 665.477 295.453 649.938 C 268.374 634.399 179.844 641.965 161.305 616.887 C 142.765 591.809 81.1398 530.043 74.8703 499.695 C 68.6007 469.348 121.253 392.383 127.523 362.035 C 133.792 331.687 149.479 262.948 168.018 237.87 C 186.558 212.792 251.148 186.339 278.226 170.8 C 305.305 155.261 371.652 220.113 403 216.844 C 434.348 213.574 470.582 181.94 500.661 191.479 C 530.739 201.018 582.156 203.687 605.235 224.496 C 628.313 245.305 700.529 268.601 713.068 296.948 C 725.607 325.296 761.356 393.652 761.356 425" fill="url(#lg-0.6590519274487807)" opacity="0.58">
  <animate attributeName="d" dur="4.3478260869565215s" repeatCount="indefinite" keyTimes="0;0.3333333333333333;0.6666666666666666;1" calcmod="spline" keySplines="0.3 0.1 0.7 0.9;0.3 0.1 0.7 0.9;0.3 0.1 0.7 0.9" begin="-2.1739130434782608s" values="M 753 425 C 753 455 734 530 722 557 C 710 584 644 624 622 644 C 600 664 533 659 504 668 C 475 677 435 617 405 614 C 375 611 329 652 303 637 C 277 622 182 639 164 615 C 146 591 93 526 87 497 C 81 468 135 394 141 365 C 147 336 167 274 185 250 C 203 226 256 192 282 177 C 308 162 373 222 403 219 C 433 216 466 200 495 209 C 524 218 580 208 602 228 C 624 248 676 281 688 308 C 700 335 753 395 753 425;M 823 425 C 823 460 762 537 748 569 C 734 601 639 611 613 634 C 587 657 538 662 505 673 C 472 684 438 638 403 634 C 368 630 304 704 274 687 C 244 670 186 641 166 613 C 146 585 54 539 47 505 C 40 471 83 388 90 354 C 97 320 109 238 129 210 C 149 182 256 201 286 184 C 316 167 369 229 404 225 C 439 221 468 182 501 193 C 534 204 619 158 645 181 C 671 204 765 235 779 267 C 793 299 823 390 823 425;M 784 425 C 784 460 786 548 772 580 C 758 612 686 663 660 686 C 634 709 543 676 510 687 C 477 698 430 717 395 713 C 360 709 305 702 275 685 C 245 668 174 650 154 622 C 134 594 49 541 42 507 C 35 473 84 388 91 354 C 98 320 102 233 122 205 C 142 177 238 171 268 154 C 298 137 368 215 403 211 C 438 207 483 133 516 144 C 549 155 588 192 614 215 C 640 238 767 235 781 267 C 795 299 784 390 784 425;M 753 425 C 753 455 734 530 722 557 C 710 584 644 624 622 644 C 600 664 533 659 504 668 C 475 677 435 617 405 614 C 375 611 329 652 303 637 C 277 622 182 639 164 615 C 146 591 93 526 87 497 C 81 468 135 394 141 365 C 147 336 167 274 185 250 C 203 226 256 192 282 177 C 308 162 373 222 403 219 C 433 216 466 200 495 209 C 524 218 580 208 602 228 C 624 248 676 281 688 308 C 700 335 753 395 753 425"></animate>
</path></g>
<style type="text/css">.lded > .content, .lded > .content > .inner { height: 100%; }
.lded > .content > .inner > .viewer { width: 100%; height: 100%; max-width: 100%; }
.lded > .content > .inner > .panel {
  position: absolute;
  bottom: 50px;
  left: 0;
  right: 0;
  opacity: 0.3;
}
.lded > .content > .inner > .panel:hover { opacity: 1; }
.lded > .content > .inner > .ctrl {
  position: absolute;
  bottom: 13px;
  left: 0;
  right: 0;
  margin: auto;
}
.lded > .content > .inner > .ctrl:hover {
  z-index: 10;
}
#editor > .inner > .title {
  position: absolute;
  bottom: 195px;
  left: 0;
  right: 0;
  z-index: 11;
}
#editor > .inner > .title > a:first-child {
  margin-left: 0!important;
#editor .lded .viewer { border-radius: 0 }</style></svg>