<?xml version="1.0" encoding="utf-8"?>
<svg xmlns="http://www.w3.org/2000/svg" xmlns:xlink="http://www.w3.org/1999/xlink" style="margin: auto; background: rgb(241, 242, 243); display: block; z-index: 1; position: relative; shape-rendering: auto;" width="850" height="850" preserveAspectRatio="xMidYMid" viewBox="0 0 850 850">
<g transform=""><linearGradient id="lg-0.6590519274487807" x1="0" x2="1" y1="0" y2="0">
  <stop stop-color="#ff00ff" offset="0"></stop>
  <stop stop-color="#00ffff" offset="1"></stop>
</linearGradient><path d="M 775.612 425 C 775.612 492.352 661.592 613.241 608.592 655.241 C 555.592 697.241 444.648 642.704 378.648 627.704 C 312.648 612.704 142.296 636.352 112.944 575.352 C 83.5925 514.352 100.354 343.501 129.706 282.501 C 159.057 221.501 313.944 243.37 379.944 228.37 C 445.944 213.37 558.592 148.759 611.592 191.111 C 664.592 233.463 775.612 357.648 775.612 425" fill="url(#lg-0.6590519274487807)" opacity="0.58">
  <animate attributeName="d" dur="4.3478260869565215s" repeatCount="indefinite" keyTimes="0;0.3333333333333333;0.6666666666666666;1" calcmod="spline" keySplines="0.3 0.1 0.7 0.9;0.3 0.1 0.7 0.9;0.3 0.1 0.7 0.9" begin="-2.1739130434782608s" values="M 779 425 C 779 493 662 612 609 655 C 556 698 436 686 369 671 C 302 656 194 613 164 551 C 134 489 65 328 95 266 C 125 204 299 183 366 168 C 433 153 550 159 603 202 C 656 245 779 357 779 425;M 764 425 C 764 492 663 615 610 657 C 557 699 445 642 379 627 C 313 612 143 636 114 575 C 85 514 81 334 110 273 C 139 212 315 249 381 234 C 447 219 560 147 613 189 C 666 231 764 358 764 425;M 797 425 C 797 493 659 610 606 652 C 553 694 444 644 378 629 C 312 614 141 637 111 576 C 81 515 136 361 166 300 C 196 239 312 233 378 218 C 444 203 556 152 609 195 C 662 238 797 357 797 425;M 779 425 C 779 493 662 612 609 655 C 556 698 436 686 369 671 C 302 656 194 613 164 551 C 134 489 65 328 95 266 C 125 204 299 183 366 168 C 433 153 550 159 603 202 C 656 245 779 357 779 425"></animate>
</path><path d="M 760.483 425 C 760.483 493 673.203 627.74 620.203 669.74 C 567.203 711.74 442.129 655.891 376.129 640.891 C 310.129 625.891 134.871 639.889 105.223 578.889 C 75.5745 517.889 118.759 352.704 148.759 291.704 C 178.759 230.704 309.648 223.889 375.648 208.889 C 441.648 193.889 553.443 155.372 606.443 198.02 C 659.443 240.668 760.483 357 760.483 425" fill="url(#lg-0.6590519274487807)" opacity="0.58">
  <animate attributeName="d" dur="4.3478260869565215s" repeatCount="indefinite" keyTimes="0;0.3333333333333333;0.6666666666666666;1" calcmod="spline" keySplines="0.3 0.1 0.7 0.9;0.3 0.1 0.7 0.9;0.3 0.1 0.7 0.9" begin="-2.1739130434782608s" values="M 762 425 C 762 493 645 593 592 635 C 539 677 444 647 378 632 C 312 617 128 644 98 583 C 68 522 69 329 98 268 C 127 207 313 238 379 223 C 445 208 555 154 608 196 C 661 238 762 357 762 425;M 745 425 C 745 493 682 639 629 681 C 576 723 446 639 380 624 C 314 609 131 642 101 581 C 71 520 117 352 147 291 C 177 230 310 226 376 211 C 442 196 564 142 617 185 C 670 228 745 357 745 425;M 789 425 C 789 493 657 607 604 649 C 551 691 435 687 369 672 C 303 657 142 636 113 575 C 84 514 122 354 152 293 C 182 232 309 220 375 205 C 441 190 534 180 587 222 C 640 264 789 357 789 425;M 762 425 C 762 493 645 593 592 635 C 539 677 444 647 378 632 C 312 617 128 644 98 583 C 68 522 69 329 98 268 C 127 207 313 238 379 223 C 445 208 555 154 608 196 C 661 238 762 357 762 425"></animate>
</path><path d="M 755.002 425 C 755.002 492.648 647.278 594.686 594.278 637.334 C 541.278 679.982 433.296 695.759 366.648 680.759 C 300 665.759 178.165 620.038 148.517 558.39 C 118.869 496.741 125.944 356.944 155.592 295.296 C 185.241 233.648 305.833 208.925 372.481 193.925 C 439.129 178.925 568.314 136.149 621.314 178.797 C 674.314 221.445 755.002 357.352 755.002 425" fill="url(#lg-0.6590519274487807)" opacity="0.58">
  <animate attributeName="d" dur="4.3478260869565215s" repeatCount="indefinite" keyTimes="0;0.3333333333333333;0.6666666666666666;1" calcmod="spline" keySplines="0.3 0.1 0.7 0.9;0.3 0.1 0.7 0.9;0.3 0.1 0.7 0.9" begin="-2.1739130434782608s" values="M 725 425 C 725 492 653 603 600 645 C 547 687 441 658 375 643 C 309 628 185 616 156 555 C 127 494 83 335 112 274 C 141 213 311 231 377 216 C 443 201 562 145 615 187 C 668 229 725 358 725 425;M 736 425 C 736 493 642 588 589 631 C 536 674 434 694 367 679 C 300 664 194 613 164 551 C 134 489 127 358 157 296 C 187 234 309 223 376 208 C 443 193 575 127 628 170 C 681 213 736 357 736 425;M 790 425 C 790 492 657 607 604 649 C 551 691 432 699 366 684 C 300 669 149 633 120 572 C 91 511 124 355 153 294 C 182 233 300 183 366 168 C 432 153 556 153 609 195 C 662 237 790 358 790 425;M 725 425 C 725 492 653 603 600 645 C 547 687 441 658 375 643 C 309 628 185 616 156 555 C 127 494 83 335 112 274 C 141 213 311 231 377 216 C 443 201 562 145 615 187 C 668 229 725 358 725 425"></animate>
</path><path d="M 744.298 425 C 744.298 493 648.481 597.425 595.481 639.425 C 542.481 681.425 431.592 700.982 365.592 685.982 C 299.592 670.982 143.539 635.258 114.539 574.258 C 85.5386 513.258 98.6302 342.815 127.63 281.815 C 156.63 220.815 306.425 207.943 372.425 192.943 C 438.425 177.943 554.223 154.074 607.223 196.074 C 660.223 238.074 744.298 357 744.298 425" fill="url(#lg-0.6590519274487807)" opacity="0.58">
  <animate attributeName="d" dur="4.3478260869565215s" repeatCount="indefinite" keyTimes="0;0.3333333333333333;0.6666666666666666;1" calcmod="spline" keySplines="0.3 0.1 0.7 0.9;0.3 0.1 0.7 0.9;0.3 0.1 0.7 0.9" begin="-2.1739130434782608s" values="M 748 425 C 748 493 645 592 592 634 C 539 676 436 680 370 665 C 304 650 181 617 152 556 C 123 495 143 364 172 303 C 201 242 303 196 369 181 C 435 166 533 181 586 223 C 639 265 748 357 748 425;M 726 425 C 726 493 652 602 599 644 C 546 686 433 695 367 680 C 301 665 127 643 98 582 C 69 521 93 340 122 279 C 151 218 311 228 377 213 C 443 198 550 159 603 201 C 656 243 726 357 726 425;M 778 425 C 778 493 642 589 589 631 C 536 673 429 712 363 697 C 297 682 174 621 145 560 C 116 499 109 348 138 287 C 167 226 298 171 364 156 C 430 141 562 145 615 187 C 668 229 778 357 778 425;M 748 425 C 748 493 645 592 592 634 C 539 676 436 680 370 665 C 304 650 181 617 152 556 C 123 495 143 364 172 303 C 201 242 303 196 369 181 C 435 166 533 181 586 223 C 639 265 748 357 748 425"></animate>
</path></g>
<style type="text/css">.lded > .content, .lded > .content > .inner { height: 100%; }
.lded > .content > .inner > .viewer { width: 100%; height: 100%; max-width: 100%; }
.lded > .content > .inner > .panel {
  position: absolute;
  bottom: 50px;
  left: 0;
  right: 0;
  opacity: 0.3;
}
.lded > .content > .inner > .panel:hover { opacity: 1; }
.lded > .content > .inner > .ctrl {
  position: absolute;
  bottom: 13px;
  left: 0;
  right: 0;
  margin: auto;
}
.lded > .content > .inner > .ctrl:hover {
  z-index: 10;
}
#editor > .inner > .title {
  position: absolute;
  bottom: 195px;
  left: 0;
  right: 0;
  z-index: 11;
}
#editor > .inner > .title > a:first-child {
  margin-left: 0!important;
#editor .lded .viewer { border-radius: 0 }</style></svg>