<?xml version="1.0" encoding="utf-8"?>
<svg xmlns="http://www.w3.org/2000/svg" xmlns:xlink="http://www.w3.org/1999/xlink" style="margin: auto; background: rgb(241, 242, 243); display: block; z-index: 1; position: relative; shape-rendering: auto;" width="850" height="850" preserveAspectRatio="xMidYMid" viewBox="0 0 850 850">
<g transform=""><linearGradient id="lg-0.6590519274487807" x1="0" x2="1" y1="0" y2="0">
  <stop stop-color="#009ff5" offset="0"></stop>
  <stop stop-color="#db00ac" offset="1"></stop>
</linearGradient><path d="M 802.81 425 C 802.81 489.163 697.8 606.805 652.303 652.303 C 606.805 697.8 489.163 666.498 425 666.498 C 360.837 666.498 261.972 679.023 216.475 633.525 C 170.977 588.028 33.4177 489.163 33.4177 425 C 33.4177 360.837 134.353 225.349 179.851 179.851 C 225.349 134.353 360.837 200.163 425 200.163 C 489.163 200.163 588.697 170.307 634.195 215.805 C 679.693 261.303 802.81 360.837 802.81 425" fill="url(#lg-0.6590519274487807)" opacity="0.58">
  <animate attributeName="d" dur="4.3478260869565215s" repeatCount="indefinite" keyTimes="0;0.3333333333333333;0.6666666666666666;1" calcmod="spline" keySplines="0.3 0.1 0.7 0.9;0.3 0.1 0.7 0.9;0.3 0.1 0.7 0.9" begin="-2.1739130434782608s" values="M 808 425 C 808 490 705 613 659 659 C 613 705 490 667 425 667 C 360 667 268 674 222 628 C 176 582 15 490 15 425 C 15 360 130 222 176 176 C 222 130 360 201 425 201 C 490 201 582 176 628 222 C 674 268 808 360 808 425;M 777 425 C 777 485 662 576 619 619 C 576 662 485 664 425 664 C 365 664 232 704 189 661 C 146 618 125 485 125 425 C 125 365 156 242 199 199 C 242 156 365 196 425 196 C 485 196 622 142 665 185 C 708 228 777 365 777 425;M 732 425 C 732 484 696 612 654 654 C 612 696 484 599 425 599 C 366 599 274 660 232 618 C 190 576 83 484 83 425 C 83 366 167 251 209 209 C 251 167 366 214 425 214 C 484 214 580 186 622 228 C 664 270 732 366 732 425;M 808 425 C 808 490 705 613 659 659 C 613 705 490 667 425 667 C 360 667 268 674 222 628 C 176 582 15 490 15 425 C 15 360 130 222 176 176 C 222 130 360 201 425 201 C 490 201 582 176 628 222 C 674 268 808 360 808 425"></animate>
</path><path d="M 774.833 425 C 774.833 481.674 687 606.656 646.828 646.828 C 606.656 687 481.674 605.562 425 605.562 C 368.326 605.562 258.475 671.869 218.303 631.697 C 178.131 591.525 87.2797 481.674 87.2797 425 C 87.2797 368.326 191.796 272.14 231.968 231.968 C 272.14 191.796 368.326 192.488 425 192.488 C 481.674 192.488 571.051 198.605 611.223 238.777 C 651.395 278.949 774.833 368.326 774.833 425" fill="url(#lg-0.6590519274487807)" opacity="0.58">
  <animate attributeName="d" dur="4.3478260869565215s" repeatCount="indefinite" keyTimes="0;0.3333333333333333;0.6666666666666666;1" calcmod="spline" keySplines="0.3 0.1 0.7 0.9;0.3 0.1 0.7 0.9;0.3 0.1 0.7 0.9" begin="-2.1739130434782608s" values="M 775 425 C 775 480 687 609 648 648 C 609 687 480 592 425 592 C 370 592 264 664 225 625 C 186 586 99 480 99 425 C 99 370 200 278 239 239 C 278 200 370 195 425 195 C 480 195 560 212 599 251 C 638 290 775 370 775 425;M 774 425 C 774 490 687 595 641 641 C 595 687 490 673 425 673 C 360 673 231 711 185 665 C 139 619 29 490 29 425 C 29 360 151 243 197 197 C 243 151 360 180 425 180 C 490 180 626 132 672 178 C 718 224 774 360 774 425;M 730 425 C 730 481 645 565 605 605 C 565 645 481 596 425 596 C 369 596 288 642 248 602 C 208 562 113 481 113 425 C 113 369 194 274 234 234 C 274 194 369 248 425 248 C 481 248 602 168 642 208 C 682 248 730 369 730 425;M 775 425 C 775 480 687 609 648 648 C 609 687 480 592 425 592 C 370 592 264 664 225 625 C 186 586 99 480 99 425 C 99 370 200 278 239 239 C 278 200 370 195 425 195 C 480 195 560 212 599 251 C 638 290 775 370 775 425"></animate>
</path><path d="M 756.995 425 C 756.995 482.507 690.367 608.358 649.362 649.362 C 608.358 690.367 482.507 606.711 425 606.711 C 367.493 606.711 272.782 659.227 231.777 618.223 C 190.773 577.218 80.6283 482.507 80.6283 425 C 80.6283 367.493 202.131 284.14 243.135 243.135 C 284.14 202.131 367.493 239.266 425 239.266 C 482.507 239.266 579.367 188.624 620.372 229.628 C 661.376 270.633 756.995 367.493 756.995 425" fill="url(#lg-0.6590519274487807)" opacity="0.58">
  <animate attributeName="d" dur="4.3478260869565215s" repeatCount="indefinite" keyTimes="0;0.3333333333333333;0.6666666666666666;1" calcmod="spline" keySplines="0.3 0.1 0.7 0.9;0.3 0.1 0.7 0.9;0.3 0.1 0.7 0.9" begin="-2.1739130434782608s" values="M 758 425 C 758 481 683 603 643 643 C 603 683 481 597 425 597 C 369 597 284 646 244 606 C 204 566 89 481 89 425 C 89 369 210 290 250 250 C 290 210 369 254 425 254 C 481 254 572 198 612 238 C 652 278 758 369 758 425;M 752 425 C 752 490 727 635 681 681 C 635 727 490 655 425 655 C 360 655 217 725 171 679 C 125 633 39 490 39 425 C 39 360 163 255 209 209 C 255 163 360 166 425 166 C 490 166 616 142 662 188 C 708 234 752 360 752 425;M 731 425 C 731 481 652 572 612 612 C 572 652 481 632 425 632 C 369 632 278 652 238 612 C 198 572 147 481 147 425 C 147 369 176 256 216 216 C 256 176 369 254 425 254 C 481 254 571 199 611 239 C 651 279 731 369 731 425;M 758 425 C 758 481 683 603 643 643 C 603 683 481 597 425 597 C 369 597 284 646 244 606 C 204 566 89 481 89 425 C 89 369 210 290 250 250 C 290 210 369 254 425 254 C 481 254 572 198 612 238 C 652 278 758 369 758 425"></animate>
</path><path d="M 733.707 425 C 733.707 479.167 668.819 592.484 630.651 630.651 C 592.484 668.819 479.167 647.805 425 647.805 C 370.833 647.805 257.651 668.684 219.484 630.516 C 181.316 592.349 129.303 479.167 129.303 425 C 129.303 370.833 198.516 274.851 236.684 236.684 C 274.851 198.516 370.833 235.326 425 235.326 C 479.167 235.326 589.493 184.172 627.661 222.339 C 665.828 260.507 733.707 370.833 733.707 425" fill="url(#lg-0.6590519274487807)" opacity="0.58">
  <animate attributeName="d" dur="4.3478260869565215s" repeatCount="indefinite" keyTimes="0;0.3333333333333333;0.6666666666666666;1" calcmod="spline" keySplines="0.3 0.1 0.7 0.9;0.3 0.1 0.7 0.9;0.3 0.1 0.7 0.9" begin="-2.1739130434782608s" values="M 725 425 C 725 479 672 596 634 634 C 596 672 479 654 425 654 C 371 654 261 665 223 627 C 185 589 136 479 136 425 C 136 371 195 271 233 233 C 271 195 371 237 425 237 C 479 237 591 183 629 221 C 667 259 725 371 725 425;M 777 425 C 777 480 653 575 614 614 C 575 653 480 617 425 617 C 370 617 241 687 202 648 C 163 609 96 480 96 425 C 96 370 216 294 255 255 C 294 216 370 227 425 227 C 480 227 582 190 621 229 C 660 268 777 370 777 425;M 788 425 C 788 483 692 610 651 651 C 610 692 483 603 425 603 C 367 603 238 694 197 653 C 156 612 81 483 81 425 C 81 367 159 241 200 200 C 241 159 367 225 425 225 C 483 225 572 196 613 237 C 654 278 788 367 788 425;M 725 425 C 725 479 672 596 634 634 C 596 672 479 654 425 654 C 371 654 261 665 223 627 C 185 589 136 479 136 425 C 136 371 195 271 233 233 C 271 195 371 237 425 237 C 479 237 591 183 629 221 C 667 259 725 371 725 425"></animate>
</path></g>
<style type="text/css">.lded > .content, .lded > .content > .inner { height: 100%; }
.lded > .content > .inner > .viewer { width: 100%; height: 100%; max-width: 100%; }
.lded > .content > .inner > .panel {
  position: absolute;
  bottom: 50px;
  left: 0;
  right: 0;
  opacity: 0.3;
}
.lded > .content > .inner > .panel:hover { opacity: 1; }
.lded > .content > .inner > .ctrl {
  position: absolute;
  bottom: 13px;
  left: 0;
  right: 0;
  margin: auto;
}
.lded > .content > .inner > .ctrl:hover {
  z-index: 10;
}
#editor > .inner > .title {
  position: absolute;
  bottom: 195px;
  left: 0;
  right: 0;
  z-index: 11;
}
#editor > .inner > .title > a:first-child {
  margin-left: 0!important;
#editor .lded .viewer { border-radius: 0 }</style></svg>