<?xml version="1.0" encoding="utf-8"?>
<svg xmlns="http://www.w3.org/2000/svg" xmlns:xlink="http://www.w3.org/1999/xlink" style="margin: auto; background: rgb(241, 242, 243); display: block; z-index: 1; position: relative; shape-rendering: auto;" width="850" height="850" preserveAspectRatio="xMidYMid" viewBox="0 0 850 850">
<g transform=""><linearGradient id="lg-0.6590519274487807" x1="0" x2="1" y1="0" y2="0">
  <stop stop-color="#ff00ff" offset="0"></stop>
  <stop stop-color="#00ffff" offset="1"></stop>
</linearGradient><path d="M 780.854 425 C 780.854 451.428 728.374 506.95 718.897 531.902 C 709.421 556.854 671.708 597.995 654.756 617.948 C 637.804 637.9 577.143 634.859 554.191 648.335 C 531.239 661.811 495.189 671.613 469.237 676.089 C 443.285 680.565 408.144 670.376 382.191 665.9 C 356.239 661.424 317.954 664.091 295.002 650.615 C 272.05 637.139 230.287 622.665 213.335 602.713 C 196.383 582.761 103.524 570.428 94.0478 545.476 C 84.5718 520.524 63.1914 451.428 63.1914 425 C 63.1914 398.572 134.241 347.715 143.718 322.763 C 153.194 297.811 161.529 237.765 178.481 217.813 C 195.433 197.861 254.574 182.909 277.526 169.433 C 300.478 155.957 363.524 229.38 389.476 224.904 C 415.428 220.428 444.048 165.62 470 170.096 C 495.952 174.572 534.139 182.626 557.091 196.103 C 580.043 209.579 669.426 185.574 686.378 205.526 C 703.33 225.478 717.424 289.954 726.9 314.907 C 736.376 339.859 780.854 398.572 780.854 425" fill="url(#lg-0.6590519274487807)" opacity="0.58">
  <animate attributeName="d" dur="4.3478260869565215s" repeatCount="indefinite" keyTimes="0;0.3333333333333333;0.6666666666666666;1" calcmod="spline" keySplines="0.3 0.1 0.7 0.9;0.3 0.1 0.7 0.9;0.3 0.1 0.7 0.9" begin="-2.1739130434782608s" values="M 795 425 C 795 453 764 519 754 545 C 744 571 700 620 682 641 C 664 662 574 627 550 641 C 526 655 502 702 475 707 C 448 712 405 695 378 690 C 351 685 308 684 284 670 C 260 656 224 630 206 609 C 188 588 103 572 93 546 C 83 520 59 453 59 425 C 59 397 118 343 128 317 C 138 291 139 221 157 200 C 175 179 242 163 266 149 C 290 135 363 232 390 227 C 417 222 443 163 470 168 C 497 173 553 147 577 161 C 601 175 682 173 700 194 C 718 215 741 280 751 306 C 761 332 795 397 795 425;M 768 425 C 768 450 696 496 687 520 C 678 544 646 578 630 597 C 614 616 580 642 558 655 C 536 668 489 644 464 648 C 439 652 411 648 386 644 C 361 640 327 646 305 633 C 283 620 236 616 220 597 C 204 578 104 569 95 545 C 86 521 67 450 67 425 C 67 400 149 352 158 328 C 167 304 182 253 198 234 C 214 215 266 201 288 188 C 310 175 364 227 389 223 C 414 219 445 168 470 172 C 495 176 517 215 539 228 C 561 241 658 197 674 216 C 690 235 696 299 705 323 C 714 347 768 400 768 425;M 768 425 C 768 451 744 514 735 538 C 726 562 689 613 673 633 C 657 653 578 639 556 652 C 534 665 492 657 467 661 C 442 665 407 671 382 667 C 357 663 325 650 303 637 C 281 624 223 628 207 608 C 191 588 161 548 152 524 C 143 500 127 451 127 425 C 127 399 147 351 156 327 C 165 303 185 257 201 237 C 217 217 277 220 299 207 C 321 194 365 229 390 225 C 415 221 443 175 468 179 C 493 183 525 202 547 215 C 569 228 650 203 666 223 C 682 243 742 282 751 306 C 760 330 768 399 768 425;M 795 425 C 795 453 764 519 754 545 C 744 571 700 620 682 641 C 664 662 574 627 550 641 C 526 655 502 702 475 707 C 448 712 405 695 378 690 C 351 685 308 684 284 670 C 260 656 224 630 206 609 C 188 588 103 572 93 546 C 83 520 59 453 59 425 C 59 397 118 343 128 317 C 138 291 139 221 157 200 C 175 179 242 163 266 149 C 290 135 363 232 390 227 C 417 222 443 163 470 168 C 497 173 553 147 577 161 C 601 175 682 173 700 194 C 718 215 741 280 751 306 C 761 332 795 397 795 425"></animate>
</path><path d="M 715.761 425 C 715.761 450.524 746.952 515 737.952 539 C 728.952 563 643.667 575.62 627.667 595.143 C 611.667 614.667 567.62 620.715 545.62 633.715 C 523.62 646.715 484.428 617.189 459.428 621.189 C 434.428 625.189 409.144 661.615 384.144 657.615 C 359.144 653.615 317.235 662.816 295.235 649.816 C 273.235 636.816 187.285 657.715 171.285 638.191 C 155.285 618.667 129.141 560.143 120.141 536.143 C 111.141 512.143 97.0524 450.524 97.0524 425 C 97.0524 399.476 111.287 338.096 120.287 314.096 C 129.287 290.096 190.665 261.237 206.665 241.713 C 222.665 222.189 260.572 191.62 282.572 178.62 C 304.572 165.62 362.62 217.194 387.62 213.194 C 412.62 209.194 440.763 189.993 465.763 193.993 C 490.763 197.993 528.524 193.952 550.524 206.952 C 572.524 219.952 627.335 222.713 643.335 242.237 C 659.335 261.761 735.718 284.237 744.718 308.237 C 753.718 332.237 715.761 399.476 715.761 425" fill="url(#lg-0.6590519274487807)" opacity="0.58">
  <animate attributeName="d" dur="4.3478260869565215s" repeatCount="indefinite" keyTimes="0;0.3333333333333333;0.6666666666666666;1" calcmod="spline" keySplines="0.3 0.1 0.7 0.9;0.3 0.1 0.7 0.9;0.3 0.1 0.7 0.9" begin="-2.1739130434782608s" values="M 721 425 C 721 450 748 515 739 539 C 730 563 640 573 624 592 C 608 611 565 616 543 629 C 521 642 486 624 461 628 C 436 632 406 681 381 677 C 356 673 334 634 312 621 C 290 608 192 653 176 634 C 160 615 137 557 128 533 C 119 509 74 450 74 425 C 74 400 105 336 114 312 C 123 288 198 267 214 248 C 230 229 259 189 281 176 C 303 163 360 202 385 198 C 410 194 435 223 460 227 C 485 231 528 195 550 208 C 572 221 620 229 636 248 C 652 267 720 290 729 314 C 738 338 721 400 721 425;M 711 425 C 711 451 746 515 737 539 C 728 563 647 578 631 598 C 615 618 570 625 548 638 C 526 651 483 611 458 615 C 433 619 412 644 387 640 C 362 636 302 689 280 676 C 258 663 183 662 167 642 C 151 622 122 563 113 539 C 104 515 118 451 118 425 C 118 399 117 340 126 316 C 135 292 184 256 200 236 C 216 216 262 194 284 181 C 306 168 365 231 390 227 C 415 223 446 160 471 164 C 496 168 529 193 551 206 C 573 219 634 217 650 237 C 666 257 750 279 759 303 C 768 327 711 399 711 425;M 726 425 C 726 452 752 516 743 541 C 734 566 680 604 663 625 C 646 646 583 644 560 658 C 537 672 500 691 473 696 C 446 701 406 693 379 688 C 352 683 322 657 299 643 C 276 629 176 669 159 648 C 142 627 101 571 92 546 C 83 521 53 452 53 425 C 53 398 104 336 113 311 C 122 286 188 261 205 240 C 222 219 282 232 305 218 C 328 204 354 182 381 177 C 408 172 436 203 463 208 C 490 213 549 157 572 171 C 595 185 654 197 671 218 C 688 239 710 293 719 318 C 728 343 726 398 726 425;M 721 425 C 721 450 748 515 739 539 C 730 563 640 573 624 592 C 608 611 565 616 543 629 C 521 642 486 624 461 628 C 436 632 406 681 381 677 C 356 673 334 634 312 621 C 290 608 192 653 176 634 C 160 615 137 557 128 533 C 119 509 74 450 74 425 C 74 400 105 336 114 312 C 123 288 198 267 214 248 C 230 229 259 189 281 176 C 303 163 360 202 385 198 C 410 194 435 223 460 227 C 485 231 528 195 550 208 C 572 221 620 229 636 248 C 652 267 720 290 729 314 C 738 338 721 400 721 425"></animate>
</path><path d="M 761.28 425 C 761.28 451 733.187 509.713 724.187 533.713 C 715.187 557.713 666.811 593.763 649.811 613.763 C 632.811 633.763 592.335 663.574 570.335 676.574 C 548.335 689.574 490.144 643.242 464.62 648.242 C 439.096 653.242 414.952 631.859 389.428 627.859 C 363.904 623.859 316.098 664.471 294.098 651.471 C 272.098 638.471 222.333 629.143 205.333 609.143 C 188.333 589.143 160.667 548.428 151.667 524.428 C 142.667 500.428 95.8178 451 95.8178 425 C 95.8178 399 110.861 337.811 119.861 313.811 C 128.861 289.811 171.904 246.428 188.904 226.428 C 205.904 206.428 267.189 201.95 289.189 188.95 C 311.189 175.95 357 186.62 382.524 182.62 C 408.048 178.62 442 179.856 467.524 183.856 C 493.048 187.856 536.902 179.529 558.902 192.529 C 580.902 205.529 634.141 215.287 651.141 235.287 C 668.141 255.287 724.052 288.617 733.052 312.617 C 742.052 336.617 761.28 399 761.28 425" fill="url(#lg-0.6590519274487807)" opacity="0.58">
  <animate attributeName="d" dur="4.3478260869565215s" repeatCount="indefinite" keyTimes="0;0.3333333333333333;0.6666666666666666;1" calcmod="spline" keySplines="0.3 0.1 0.7 0.9;0.3 0.1 0.7 0.9;0.3 0.1 0.7 0.9" begin="-2.1739130434782608s" values="M 788 425 C 788 451 751 516 742 540 C 733 564 660 588 643 608 C 626 628 585 651 563 664 C 541 677 487 627 462 632 C 437 637 416 624 391 620 C 366 616 303 687 281 674 C 259 661 226 626 209 606 C 192 586 157 550 148 526 C 139 502 56 451 56 425 C 56 399 92 331 101 307 C 110 283 174 248 191 228 C 208 208 274 214 296 201 C 318 188 357 184 382 180 C 407 176 442 183 467 187 C 492 191 550 157 572 170 C 594 183 642 209 659 229 C 676 249 701 297 710 321 C 719 345 788 399 788 425;M 737 425 C 737 451 717 504 708 528 C 699 552 673 599 656 619 C 639 639 599 675 577 688 C 555 701 493 658 467 663 C 441 668 414 639 388 635 C 362 631 328 644 306 631 C 284 618 219 632 202 612 C 185 592 164 547 155 523 C 146 499 132 451 132 425 C 132 399 128 344 137 320 C 146 296 170 245 187 225 C 204 205 261 191 283 178 C 305 165 357 189 383 185 C 409 181 442 177 468 181 C 494 185 525 200 547 213 C 569 226 627 221 644 241 C 661 261 745 281 754 305 C 763 329 737 399 737 425;M 748 425 C 748 453 758 517 749 543 C 740 569 712 629 694 650 C 676 671 589 654 565 668 C 541 682 492 648 465 653 C 438 658 413 653 386 648 C 359 643 318 666 294 652 C 270 638 171 674 153 653 C 135 632 84 578 75 552 C 66 526 76 453 76 425 C 76 397 131 347 140 321 C 149 295 170 247 188 226 C 206 205 274 220 298 206 C 322 192 355 188 382 183 C 409 178 436 202 463 207 C 490 212 554 146 578 160 C 602 174 636 212 654 233 C 672 254 761 273 770 299 C 779 325 748 397 748 425;M 788 425 C 788 451 751 516 742 540 C 733 564 660 588 643 608 C 626 628 585 651 563 664 C 541 677 487 627 462 632 C 437 637 416 624 391 620 C 366 616 303 687 281 674 C 259 661 226 626 209 606 C 192 586 157 550 148 526 C 139 502 56 451 56 425 C 56 399 92 331 101 307 C 110 283 174 248 191 228 C 208 208 274 214 296 201 C 318 188 357 184 382 180 C 407 176 442 183 467 187 C 492 191 550 157 572 170 C 594 183 642 209 659 229 C 676 249 701 297 710 321 C 719 345 788 399 788 425"></animate>
</path><path d="M 742.863 425 C 742.863 450.476 716.811 504.144 707.811 527.62 C 698.811 551.096 680.859 606.859 664.859 626.335 C 648.859 645.811 583.046 647.711 561.046 660.187 C 539.046 672.663 493.428 666.665 468.428 670.665 C 443.428 674.665 414.62 629.426 389.62 625.426 C 364.62 621.426 303.476 686.048 281.476 673.572 C 259.476 661.096 202.859 644.665 186.859 625.189 C 170.859 605.713 141.383 555.333 132.383 531.857 C 123.383 508.38 105.581 450.476 105.581 425 C 105.581 399.524 121.239 341.048 130.239 317.572 C 139.239 294.096 189.62 260.096 205.62 240.62 C 221.62 221.144 260.048 190.572 282.048 178.096 C 304.048 165.62 363.428 221.665 388.428 217.665 C 413.428 213.665 439.809 194.052 464.809 198.052 C 489.809 202.052 529.998 192.909 551.998 205.385 C 573.998 217.861 610.761 236.239 626.761 255.715 C 642.761 275.191 738.191 284.476 746.667 307.952 C 755.143 331.428 742.863 399.524 742.863 425" fill="url(#lg-0.6590519274487807)" opacity="0.58">
  <animate attributeName="d" dur="4.3478260869565215s" repeatCount="indefinite" keyTimes="0;0.3333333333333333;0.6666666666666666;1" calcmod="spline" keySplines="0.3 0.1 0.7 0.9;0.3 0.1 0.7 0.9;0.3 0.1 0.7 0.9" begin="-2.1739130434782608s" values="M 713 425 C 713 451 710 501 701 525 C 692 549 673 599 657 619 C 641 639 593 665 571 678 C 549 691 495 674 470 678 C 445 682 412 642 387 638 C 362 634 304 685 282 672 C 260 659 195 652 179 632 C 163 612 133 559 124 535 C 115 511 60 451 60 425 C 60 399 116 340 125 316 C 134 292 187 258 203 238 C 219 218 259 189 281 176 C 303 163 365 229 390 225 C 415 221 444 171 469 175 C 494 179 541 173 563 186 C 585 199 616 231 632 251 C 648 271 734 285 743 309 C 752 333 713 399 713 425;M 770 425 C 770 450 723 507 714 530 C 705 553 688 614 672 633 C 656 652 574 632 552 644 C 530 656 492 660 467 664 C 442 668 417 618 392 614 C 367 610 303 687 281 675 C 259 663 210 638 194 619 C 178 600 149 552 140 529 C 131 506 147 450 147 425 C 147 400 126 342 135 319 C 144 296 192 262 208 243 C 224 224 261 192 283 180 C 305 168 362 215 387 211 C 412 207 436 215 461 219 C 486 223 520 211 542 223 C 564 235 606 241 622 260 C 638 279 742 284 750 307 C 758 330 770 400 770 425;M 811 425 C 811 452 790 529 781 555 C 772 581 666 591 648 612 C 630 633 595 664 571 678 C 547 692 497 672 470 677 C 443 682 416 631 389 626 C 362 621 308 683 284 669 C 260 655 177 669 159 648 C 141 627 138 559 129 533 C 120 507 49 452 49 425 C 49 398 95 334 104 308 C 113 282 179 254 197 233 C 215 212 251 179 275 165 C 299 151 357 198 384 193 C 411 188 446 146 473 151 C 500 156 536 178 560 192 C 584 206 662 190 680 211 C 698 232 766 272 775 298 C 784 324 811 398 811 425;M 713 425 C 713 451 710 501 701 525 C 692 549 673 599 657 619 C 641 639 593 665 571 678 C 549 691 495 674 470 678 C 445 682 412 642 387 638 C 362 634 304 685 282 672 C 260 659 195 652 179 632 C 163 612 133 559 124 535 C 115 511 60 451 60 425 C 60 399 116 340 125 316 C 134 292 187 258 203 238 C 219 218 259 189 281 176 C 303 163 365 229 390 225 C 415 221 444 171 469 175 C 494 179 541 173 563 186 C 585 199 616 231 632 251 C 648 271 734 285 743 309 C 752 333 713 399 713 425"></animate>
</path></g>
<style type="text/css">.lded > .content, .lded > .content > .inner { height: 100%; }
.lded > .content > .inner > .viewer { width: 100%; height: 100%; max-width: 100%; }
.lded > .content > .inner > .panel {
  position: absolute;
  bottom: 50px;
  left: 0;
  right: 0;
  opacity: 0.3;
}
.lded > .content > .inner > .panel:hover { opacity: 1; }
.lded > .content > .inner > .ctrl {
  position: absolute;
  bottom: 13px;
  left: 0;
  right: 0;
  margin: auto;
}
.lded > .content > .inner > .ctrl:hover {
  z-index: 10;
}
#editor > .inner > .title {
  position: absolute;
  bottom: 195px;
  left: 0;
  right: 0;
  z-index: 11;
}
#editor > .inner > .title > a:first-child {
  margin-left: 0!important;
#editor .lded .viewer { border-radius: 0 }</style></svg>