<?xml version="1.0" encoding="utf-8"?>
<!-- Generator: Adobe Illustrator 23.0.3, SVG Export Plug-In . SVG Version: 6.00 Build 0)  -->
<svg version="1.1" id="Layer_1" xmlns="http://www.w3.org/2000/svg" xmlns:xlink="http://www.w3.org/1999/xlink" x="0px" y="0px"
	 viewBox="0 0 200 200" style="enable-background:new 0 0 200 200;" xml:space="preserve">
<style type="text/css">
	.st0{fill:#FF4081;}
	.st1{fill:#304FFE;}
	.st2{fill:#263357;}
	.st3{fill:#00E5FF;}
	.st4{fill:#ACACBD;}
	.st5{fill:#7A7A91;}
	.st6{fill:#27F5D1;}
	.st7{fill:#EAE7F7;}
	.st8{fill:#D1CDDF;}
	.st9{fill:#9595A6;}
	.st10{fill:#1976D2;}
	.st11{fill:#EEF3FA;}
	.st12{fill:#C0C0D3;}
	.st13{fill:#3AD6FF;}
	.st14{fill:#FFDAAA;}
	.st15{fill:#1E88E5;}
	.st16{fill:#FFEA00;}
	.st17{fill:#FFB680;}
	.st18{fill:#00262F;}
</style>
<g>
	<g>
		<ellipse class="st0" cx="-142.3" cy="23.1" rx="8.3" ry="8.6"/>
	</g>
	<g>
		<ellipse class="st1" cx="-105.1" cy="23.1" rx="8.3" ry="8.6"/>
	</g>
	<g>
		<ellipse class="st1" cx="-179.5" cy="23.1" rx="8.3" ry="8.6"/>
	</g>
	<g id="gear-5-icon_57_">
		<path class="st0" d="M-85,134.6l-1.9-5.3l-5.1,0.1c-0.7-1-1.5-1.9-2.4-2.7l0.4-5.3l-5-2.3l-3.5,3.8c-1.2-0.2-2.4-0.2-3.6-0.1
			l-3.3-4l-5.1,2l0.1,5.3c-1,0.7-1.8,1.6-2.6,2.5l-5.1-0.4l-2.2,5.1l3.7,3.7c-0.2,1.2-0.2,2.4-0.1,3.7l-3.9,3.4l1.9,5.3l5.1-0.1
			c0.7,1,1.5,1.9,2.4,2.7l-0.4,5.3l5,2.3l3.5-3.8c1.2,0.2,2.4,0.2,3.6,0.1l3.3,4l5.1-2l-0.1-5.3c1-0.7,1.8-1.6,2.6-2.5l5.1,0.4
			l2.2-5.1l-3.7-3.7c0.2-1.2,0.2-2.4,0.1-3.7L-85,134.6z M-102.1,146.6c-3.8,1.5-8.1-0.5-9.6-4.4c-1.5-4,0.5-8.4,4.3-9.9
			s8.1,0.5,9.6,4.4C-96.4,140.6-98.3,145.1-102.1,146.6z"/>
	</g>
	<g id="gear-5-icon_56_">
		<path class="st2" d="M-104.5,158.4c-0.5,0-1.1,0-1.6,0c-2.6,2.8-3.5,4.4-5.4,3.5c-7.4-3.4-6.6-2.1-6.1-8.8
			c-0.4-0.4-0.7-0.8-1.1-1.2c-3.8,0.1-5.5,0.5-6.2-1.5c-2.9-7.8-3.2-6.3,1.7-10.7c0-0.5,0-1.1,0-1.6c-2.7-2.6-4.3-3.6-3.4-5.6
			c3.3-7.7,2.1-6.8,8.5-6.3c0.4-0.4,0.8-0.8,1.1-1.1c-0.1-3.8-0.5-5.7,1.4-6.5c7.6-3,6.1-3.3,10.3,1.8c0.5,0,1.1,0,1.6,0
			c2.6-2.8,3.5-4.4,5.4-3.5c7.4,3.4,6.6,2.2,6.1,8.8c0.4,0.4,0.7,0.8,1.1,1.2c3.8-0.1,5.5-0.6,6.2,1.5c2.9,7.8,3.2,6.3-1.7,10.7
			c0,0.5,0,1.1,0,1.6c2.7,2.6,4.3,3.6,3.4,5.6c-3.3,7.6-2.1,6.8-8.5,6.3c-0.4,0.4-0.8,0.8-1.1,1.1c0.1,6.8,0.9,5.5-6.5,8.5
			C-101.3,163.1-102.2,161.3-104.5,158.4z M-99.4,157l1.9-0.8c-0.1-3.6-0.4-4.6,0.9-5.6c4.1-3.2,1.1-3.3,7.6-2.7l0.8-1.9
			c-2.5-2.5-3.4-3-3.2-4.6c0.7-5.3-1.5-3.1,3.5-7.5l-0.7-2c-6.6,0.2-3.5,0.3-7.5-3.2c-1.2-1-0.8-2.1-0.6-5.6l-1.9-0.9
			c-4.6,5-2.3,2.8-7.5,3.2c-1.5,0.2-2-0.9-4.3-3.6l-1.9,0.8c0.2,6.9,0.3,3.6-3.1,7.7c-1,1.2-2.1,0.9-5.4,0.6l-0.8,1.9
			c4.8,4.7,2.7,2.4,3.1,7.7c0.1,1.6-0.8,2.1-3.4,4.4l0.7,2c6.6-0.2,3.5-0.3,7.5,3.2c1.2,1.1,0.8,2.2,0.6,5.6l1.9,0.9
			c4.6-5,2.3-2.8,7.5-3.2C-102.1,153.3-101.6,154.3-99.4,157z M-113.7,135.3c2.2-5.1,8-7.4,12.9-5.1c8,3.7,7.6,15.5-0.5,18.7l0,0
			C-109.4,152.1-117.3,143.6-113.7,135.3z M-109.5,141.3c1,2.7,3.9,4,6.5,3l0,0c4.1-1.6,4.3-7.7,0.3-9.6
			C-106.8,132.8-111.1,136.9-109.5,141.3z"/>
	</g>
	<g>
		<path class="st2" d="M-43.8,142.1h-3.6c-3.2,0-3.2-5,0-5h3.6C-40.6,137.1-40.6,142.1-43.8,142.1z M-59.3,142.1h-3.6
			c-3.2,0-3.2-5,0-5h3.6C-56.2,137.1-56.2,142.1-59.3,142.1z M-74.9,142.1h-3.6c-3.2,0-3.2-5,0-5h3.6
			C-71.7,137.1-71.7,142.1-74.9,142.1z"/>
	</g>
	<g>
		<path class="st2" d="M-132.4,142.1h-3.6c-3.2,0-3.2-5,0-5h3.6C-129.3,137.1-129.3,142.1-132.4,142.1z M-148,142.1h-3.6
			c-3.2,0-3.2-5,0-5h3.6C-144.8,137.1-144.8,142.1-148,142.1z M-163.5,142.1h-3.6c-3.2,0-3.2-5,0-5h3.6
			C-160.4,137.1-160.4,142.1-163.5,142.1z"/>
	</g>
	<g>
		<path class="st1" d="M-188.5,169.5V59.6c0-4.6,3.6-8.3,8-8.3h50.6l-0.4,10.3h-48.8l0.8,107.8h-10.2V169.5z"/>
	</g>
	<g>
		<path class="st1" d="M-21.3,169.5V59.6c0-4.6-3.6-8.3-8-8.3h-47.2l0.3,10.3h44.7v107.8h10.2V169.5z"/>
	</g>
	<g>
		<path class="st1" d="M-104.7,178.2h-79.5c-4.6,0-8.4-3.9-8.4-8.7v-1.2h75.8c1.8,3.3,3.5,2.5,19.5,2.5c1.8,0,3.3-1,4.1-2.5h75.8
			v1.2c0,4.8-3.7,8.7-8.4,8.7h-79.5H-104.7z"/>
	</g>
	<g>
		<path class="st2" d="M-24.5,167.7V58.3c0-2.3-1.8-4.1-3.9-4.1h-46c-3.2,0-3.2-5,0-5h46c4.8,0,8.7,4.1,8.7,9v109.3
			C-19.8,170.9-24.5,171-24.5,167.7z"/>
	</g>
	<g>
		<path class="st2" d="M-190.2,167.7V58.3c0-5,3.9-9,8.7-9h49c3.2,0,3.2,5,0,5h-49c-2.2,0-3.9,1.8-3.9,4.1v109.3
			C-185.4,170.9-190.2,171-190.2,167.7z"/>
	</g>
	<g>
		<path class="st2" d="M-34.1,168.3V64.2h-40c-3.2,0-3.2-5,0-5h41.8c1.7,0,3,1.4,3,3.1v105.9C-29.3,171.5-34.1,171.5-34.1,168.3z
			 M-32.4,64.2L-32.4,64.2L-32.4,64.2z"/>
	</g>
	<g>
		<path class="st2" d="M-180.6,168.3V62.4c0-1.7,1.4-3.1,3-3.1h45.5c3.2,0,3.2,5,0,5h-43.7v104.1
			C-175.8,171.5-180.6,171.5-180.6,168.3z"/>
	</g>
	<g>
		<path class="st2" d="M-25.7,180.7h-158.5c-5.4,0-10.8-4.1-10.8-12.4c0-1.4,1.1-2.5,2.4-2.5h75.8c2.3,0,1.8,2.5,4.1,2.5
			c16.4,0,16.5,0.4,17.4-1.2c1-1.8-3.6-1.2,77.9-1.2c1.3,0,2.4,1.1,2.4,2.5C-15,176.5-20.3,180.7-25.7,180.7z M-25.7,175.7
			c2.9,0,5.3-2.1,5.9-5H-92c-2.8,3.2-4.7,2.5-20.7,2.5c-2,0-4-0.9-5.3-2.5h-72.1c0.6,2.8,3,5,5.9,5
			C-177.1,175.7-32.5,175.7-25.7,175.7z"/>
	</g>
	<g>
		<path class="st2" d="M-37.2,190.6c-3.2,0-3.2-5,0-5C-34.1,185.6-34.1,190.6-37.2,190.6z"/>
	</g>
	<g>
		<path class="st2" d="M-46.1,190.6h-122c-3.2,0-3.2-5,0-5h122c1.3,0,2.4,1.1,2.4,2.5C-43.7,189.5-44.8,190.6-46.1,190.6z"/>
	</g>
	<g>
		<path class="st2" d="M-119.7,112.2c-1.4-0.1-0.2,0.9-18.7-22.1c-0.7-0.9-0.7-2.2,0-3.1l15.7-20.1c2-2.5,5.7,0.6,3.7,3.1
			l-14.5,18.5l14.3,17.8l5-4.3l-9.6-12c-0.7-0.9-0.7-2.2,0-3.1l9.1-11.7c2-2.5,5.7,0.6,3.7,3.1l-7.9,10.1l9.9,12.3
			c0.8,1.1,0.7,2.6-0.3,3.5C-118.6,112.3-118.4,112.3-119.7,112.2z"/>
	</g>
	<g>
		<path class="st2" d="M-100.4,104.2c-1-0.9-1.2-2.4-0.3-3.5l9.9-12.3L-99.3,78c-2-2.5,1.6-5.7,3.7-3.2l9.7,12
			c0.7,0.9,0.8,2.3,0,3.2l-9.6,12l5,4.3l14.3-17.8L-91.5,69c-2-2.5,1.7-5.7,3.7-3.1L-71.3,87c0.7,0.9,0.7,2.2,0,3.1
			c-18.5,23-17.3,22-18.7,22.1C-91.3,112.3-91,112.2-100.4,104.2z"/>
	</g>
	<g>
		<path class="st3" d="M-161.6,90.1h-3.6c-3.2,0-3.2-5,0-5h3.6C-158.5,85.2-158.5,90.1-161.6,90.1z"/>
	</g>
	<g>
		<path class="st3" d="M-145.2,90.1h-6.9c-3.2,0-3.2-5,0-5h6.9C-142,85.2-142,90.1-145.2,90.1z"/>
	</g>
	<g>
		<path class="st3" d="M-161.6,106.4h-3.6c-3.2,0-3.2-5,0-5h3.6C-158.5,101.4-158.5,106.4-161.6,106.4z"/>
	</g>
	<g>
		<path class="st3" d="M-140,106.4h-12c-3.2,0-3.2-5,0-5h12C-136.9,101.4-136.9,106.4-140,106.4z"/>
	</g>
	<g>
		<path class="st3" d="M-127.7,121.7H-166c-3.2,0-3.2-5,0-5h38.3C-124.5,116.7-124.5,121.7-127.7,121.7z"/>
	</g>
	<g>
		<path class="st3" d="M-41.8,121.7h-38.3c-3.2,0-3.2-5,0-5h38.3C-38.6,116.7-38.6,121.7-41.8,121.7z"/>
	</g>
	<g>
		<path class="st3" d="M-43.2,90.1h-19.4c-3.2,0-3.2-5,0-5h19.4C-40,85.2-40,90.1-43.2,90.1z"/>
	</g>
	<g>
		<path class="st3" d="M-43.2,106.4h-27.1c-3.2,0-3.2-5,0-5h27.1C-40,101.4-40,106.4-43.2,106.4z"/>
	</g>
	<g>
		<path class="st2" d="M-105.8,83.9c-21.6-22.4-20.6-21-20.6-22.4s-1,0,20.6-22.4c0.9-1,2.4-1,3.4,0l19.9,20.7c0.9,1,0.9,2.5,0,3.5
			L-102.4,84C-103.4,84.9-104.9,84.9-105.8,83.9z M-120.7,61.5l16.6,17.1l16.6-17.1l-16.6-17.1L-120.7,61.5z"/>
	</g>
	<g>
		<path class="st2" d="M-98.6,43.1l30.8-31.9c0.9-0.9,2.5-0.9,3.4,0l29.1,30.2c2.2,2.3-1.1,5.8-3.4,3.5l-27.4-28.4l-29.1,30.1
			C-97.4,48.9-100.8,45.4-98.6,43.1z"/>
	</g>
	<g>
		<path class="st2" d="M-88.9,53.9l22-22.8c0.9-1,2.4-1,3.4,0l9.8,10.2c2.2,2.3-1.1,5.8-3.4,3.5l-8.1-8.4l-20.3,21
			C-87.7,59.7-91.1,56.2-88.9,53.9z"/>
	</g>
	<g>
		<path class="st2" d="M-179.5,34.2c-5.9,0-10.7-5-10.7-11s4.8-11,10.7-11s10.7,5,10.7,11S-173.7,34.2-179.5,34.2z M-179.5,17
			c-3.2,0-5.9,2.7-5.9,6.1s2.6,6.1,5.9,6.1s5.9-2.7,5.9-6.1C-173.7,19.8-176.3,17-179.5,17z"/>
	</g>
	<g>
		<path class="st2" d="M-142.3,34.2c-5.9,0-10.7-5-10.7-11s4.8-11,10.7-11s10.7,5,10.7,11S-136.5,34.2-142.3,34.2z M-142.3,17
			c-3.2,0-5.9,2.7-5.9,6.1s2.6,6.1,5.9,6.1c3.2,0,5.9-2.7,5.9-6.1C-136.5,19.8-139.1,17-142.3,17z"/>
	</g>
	<g>
		<path class="st2" d="M-105.1,34.2c-5.9,0-10.7-5-10.7-11s4.8-11,10.7-11c5.9,0,10.7,5,10.7,11S-99.3,34.2-105.1,34.2z M-105.1,17
			c-3.2,0-5.9,2.7-5.9,6.1s2.6,6.1,5.9,6.1c3.2,0,5.9-2.7,5.9-6.1C-99.3,19.8-101.9,17-105.1,17z"/>
	</g>
	<g>
		<path class="st2" d="M-113.4,25.6h-20.7c-3.2,0-3.2-5,0-5h20.7C-110.3,20.7-110.2,25.6-113.4,25.6z"/>
	</g>
	<g>
		<path class="st2" d="M-150.6,25.6h-20.7c-3.2,0-3.2-5,0-5h20.7C-147.4,20.7-147.4,25.6-150.6,25.6z"/>
	</g>
	<g>
		<path class="st2" d="M-181.9,43.5V31.7c0-3.3,4.8-3.3,4.8,0v11.8C-177.1,46.8-181.9,46.8-181.9,43.5z"/>
	</g>
</g>
<g>
	<g>
		<g>
			<g>
				<g>
					<g>
						<g>
							<g>
								<g>
									<g>
										<polygon class="st4" points="127.5,174.3 72.5,174.3 78,152.3 122,152.3 										"/>
									</g>
									<g id="XMLID_14_">
										<g>
											<path class="st5" d="M61.5,182.6c0,1.5,1.2,2.8,2.8,2.8h71.6c1.5,0,2.8-1.2,2.8-2.8v-5.5c0-1.5-1.2-2.8-2.8-2.8H64.2
												c-1.5,0-2.8,1.2-2.8,2.8V182.6z"/>
										</g>
									</g>
								</g>
								<g>
									<g>
										<rect x="14.7" y="31.2" class="st6" width="170.7" height="121.1"/>
									</g>
									<g>
										<rect x="14.7" y="135.8" class="st7" width="170.7" height="16.5"/>
									</g>
									<g>
										<rect x="14.7" y="135.8" class="st8" width="170.7" height="5.5"/>
									</g>
								</g>
							</g>
						</g>
						<g>
							<g>
								<polygon class="st9" points="122,152.3 78,152.3 76.6,157.8 123.4,157.8 								"/>
							</g>
						</g>
					</g>
				</g>
				<g>
					<rect x="174.3" y="31.2" class="st10" width="11" height="104.6"/>
				</g>
				<g>
					<rect x="14.7" y="31.2" class="st10" width="11" height="104.6"/>
				</g>
			</g>
			<g>
				<g>
					<g>
						<path class="st11" d="M155.8,14.7H31.2v121.1h137.7V27.7C163.8,22.6,160.9,19.7,155.8,14.7z"/>
					</g>
					<g>
						<polygon class="st12" points="168.8,50.4 133,50.4 133,14.7 						"/>
					</g>
				</g>
			</g>
		</g>
		<g>
			<g>
				<g>
					<g>
						<polygon class="st13" points="75.2,72.5 89,65.6 89,79.4 						"/>
					</g>
					<g>
						<polygon class="st12" points="155.1,61.5 166.1,61.5 166.1,83.5 155.1,83.5 155.1,72.5 						"/>
					</g>
					<g>
						<polygon class="st14" points="89,65.6 97.2,61.5 108.3,72.5 97.2,83.5 89,79.4 						"/>
					</g>
					<g>
						<polygon class="st15" points="97.2,61.5 155.1,61.5 155.1,72.5 108.3,72.5 						"/>
					</g>
					<g>
						<polygon class="st15" points="108.3,72.5 155.1,72.5 155.1,83.5 97.2,83.5 						"/>
					</g>
				</g>
				<g>
					<path class="st16" d="M185.3,65.5v14c0,2.2-1.8,4-4,4h-15.3v-22h15.3C183.6,61.5,185.3,63.2,185.3,65.5z"/>
				</g>
				<g>
					<path class="st17" d="M166.1,65.6h4.1c6.1,0,11,4.9,11,11c0,2-0.6,3.8-1.5,5.4c3.3-1.9,5.6-5.4,5.6-9.5c0-6.1-4.9-11-11-11
						h-8.3V65.6z"/>
				</g>
				<g>
					<g>
						<polygon class="st17" points="89,65.6 89,72.5 108.3,72.5 97.2,61.5 						"/>
					</g>
				</g>
			</g>
			<g>
				<g>
					<rect x="14.7" y="94.5" class="st15" width="88.1" height="22"/>
				</g>
				<g>
					<rect x="14.7" y="108.3" class="st10" width="88.1" height="8.3"/>
				</g>
			</g>
			<g>
				<g>
					<rect x="42.2" y="25.7" class="st15" width="27.5" height="27.5"/>
				</g>
				<g>
					<circle class="st16" cx="69.7" cy="53.2" r="16.5"/>
				</g>
			</g>
		</g>
	</g>
	<g>
		<path class="st18" d="M185.3,28.4h-24.8v5.5h22v27.6c-2.3-1.7-5.1-2.8-8.3-2.8h-2.8v-8.3h0c0-0.7-0.3-1.4-0.8-1.9L135,12.7
			c-0.2-0.2-0.5-0.4-0.8-0.5c-0.1,0-0.2-0.1-0.3-0.1c-0.2-0.1-0.5-0.1-0.7-0.1c-0.1,0-0.1,0-0.2,0H31.2c-1.5,0-2.8,1.2-2.8,2.8v71.6
			h5.5V17.4h96.4v33c0,1.5,1.2,2.8,2.8,2.8h33v5.5H97.2c-0.4,0-0.8,0.1-1.2,0.3l0,0L74,70c-0.9,0.5-1.5,1.4-1.5,2.5s0.6,2,1.5,2.5
			l22,11l0,0c0.4,0.2,0.8,0.3,1.2,0.3h77.1c3.1,0,6-1.1,8.3-2.8V133h-11V91.7h-5.5V133H33.9v-8.3h-5.5v8.3h-11v-8.3h-5.5v11v16.5
			c0,1.5,1.2,2.8,2.8,2.8h59.8l-4.1,16.5h-6.1c-3,0-5.5,2.5-5.5,5.5v5.5c0,3,2.5,5.5,5.5,5.5h71.6c3,0,5.5-2.5,5.5-5.5v-5.5
			c0-3-2.5-5.5-5.5-5.5h-6.1l-4.1-16.5h59.8c1.5,0,2.8-1.2,2.8-2.8v-16.5V31.2C188.1,29.7,186.9,28.4,185.3,28.4z M135.8,47.7V21.3
			l26.4,26.4H135.8z M86.2,74.9l-4.9-2.4l4.9-2.4V74.9z M96.7,80.1l-5-2.5V67.3l5-2.5l7.7,7.7L96.7,80.1z M152.3,80.7h-48.4l5.5-5.5
			h42.9V80.7z M152.3,69.7h-42.9l-5.5-5.5h48.4V69.7z M163.3,80.7h-5.5V64.2h5.5V80.7z M127.5,177.1h8.3v5.5l-71.6,0v-5.5h8.3H127.5
			z M76,171.6l4.1-16.5h39.7l4.1,16.5H76z M182.6,149.6H122H78H17.4v-11h165.2V149.6z M174.3,80.7h-5.5V64.2h5.5
			c4.6,0,8.3,3.7,8.3,8.3C182.6,77,178.9,80.7,174.3,80.7z"/>
		<path class="st18" d="M17.4,33.9h8.3v-5.5h-11c-1.5,0-2.8,1.2-2.8,2.8v55.1h5.5V33.9z"/>
		<rect x="155.1" y="122" class="st18" width="5.5" height="5.5"/>
		<rect x="133" y="122" class="st18" width="16.5" height="5.5"/>
		<rect x="138.5" y="111" class="st18" width="22" height="5.5"/>
		<path class="st18" d="M14.7,119.3h88.1c1.5,0,2.8-1.2,2.8-2.8v-22c0-1.5-1.2-2.8-2.8-2.8H14.7c-1.5,0-2.8,1.2-2.8,2.8v22
			C11.9,118,13.1,119.3,14.7,119.3z M17.4,97.2h5.5v8.3h5.5v-8.3h5.5v5.5h5.5v-5.5h5.5v8.3h5.5v-8.3h5.5v5.5h5.5v-5.5H67v8.3h5.5
			v-8.3H78v5.5h5.5v-5.5H89v8.3h5.5v-8.3h5.5v16.5H17.4V97.2z"/>
		<path class="st18" d="M69.7,22.9H42.2c-1.5,0-2.8,1.2-2.8,2.8v27.5c0,1.5,1.2,2.8,2.8,2.8h8.5C52,65.3,60,72.5,69.7,72.5V67
			c-6.6,0-12.2-4.7-13.5-11h13.5c1.5,0,2.8-1.2,2.8-2.8V39.7c6.3,1.3,11,6.8,11,13.5H89c0-9.7-7.2-17.7-16.5-19.1v-8.5
			C72.5,24.1,71.2,22.9,69.7,22.9z M67,50.4H56.2c1.1-5.4,5.3-9.6,10.7-10.7V50.4z M67,34.1c-8.4,1.2-15.1,7.9-16.3,16.3h-5.7v-22
			h22V34.1z"/>
	</g>
</g>
</svg>
