<?xml version="1.0" encoding="utf-8"?>
<!-- Generator: Adobe Illustrator 23.0.3, SVG Export Plug-In . SVG Version: 6.00 Build 0)  -->
<svg version="1.1" id="Layer_1" xmlns="http://www.w3.org/2000/svg" xmlns:xlink="http://www.w3.org/1999/xlink" x="0px" y="0px"
	 viewBox="0 0 200 200" style="enable-background:new 0 0 200 200;" xml:space="preserve">
<style type="text/css">
	.st0{fill:#FF4081;}
	.st1{fill:#304FFE;}
	.st2{fill:#263357;}
	.st3{fill:#00E5FF;}
</style>
<g>
	<g>
		<ellipse class="st0" cx="62.7" cy="23.1" rx="8.3" ry="8.6"/>
	</g>
	<g>
		<ellipse class="st1" cx="99.9" cy="23.1" rx="8.3" ry="8.6"/>
	</g>
	<g>
		<ellipse class="st1" cx="25.5" cy="23.1" rx="8.3" ry="8.6"/>
	</g>
	<g id="gear-5-icon_57_">
		<path class="st0" d="M120,134.6l-1.9-5.3l-5.1,0.1c-0.7-1-1.5-1.9-2.4-2.7l0.4-5.3l-5-2.3l-3.5,3.8c-1.2-0.2-2.4-0.2-3.6-0.1
			l-3.3-4l-5.1,2l0.1,5.3c-1,0.7-1.8,1.6-2.6,2.5l-5.1-0.4l-2.2,5.1l3.7,3.7c-0.2,1.2-0.2,2.4-0.1,3.7l-3.9,3.4l1.9,5.3l5.1-0.1
			c0.7,1,1.5,1.9,2.4,2.7l-0.4,5.3l5,2.3l3.5-3.8c1.2,0.2,2.4,0.2,3.6,0.1l3.3,4l5.1-2l-0.1-5.3c1-0.7,1.8-1.6,2.6-2.5l5.1,0.4
			l2.2-5.1l-3.7-3.7c0.2-1.2,0.2-2.4,0.1-3.7L120,134.6z M102.9,146.6c-3.8,1.5-8.1-0.5-9.6-4.4c-1.5-4,0.5-8.4,4.3-9.9
			c3.8-1.5,8.1,0.5,9.6,4.4C108.6,140.6,106.7,145.1,102.9,146.6z"/>
	</g>
	<g id="gear-5-icon_56_">
		<path class="st2" d="M100.5,158.4c-0.5,0-1.1,0-1.6,0c-2.6,2.8-3.5,4.4-5.4,3.5c-7.4-3.4-6.6-2.1-6.1-8.8
			c-0.4-0.4-0.7-0.8-1.1-1.2c-3.8,0.1-5.5,0.5-6.2-1.5c-2.9-7.8-3.2-6.3,1.7-10.7c0-0.5,0-1.1,0-1.6c-2.7-2.6-4.3-3.6-3.4-5.6
			c3.3-7.7,2.1-6.8,8.5-6.3c0.4-0.4,0.8-0.8,1.1-1.1c-0.1-3.8-0.5-5.7,1.4-6.5c7.6-3,6.1-3.3,10.3,1.8c0.5,0,1.1,0,1.6,0
			c2.6-2.8,3.5-4.4,5.4-3.5c7.4,3.4,6.6,2.2,6.1,8.8c0.4,0.4,0.7,0.8,1.1,1.2c3.8-0.1,5.5-0.6,6.2,1.5c2.9,7.8,3.2,6.3-1.7,10.7
			c0,0.5,0,1.1,0,1.6c2.7,2.6,4.3,3.6,3.4,5.6c-3.3,7.6-2.1,6.8-8.5,6.3c-0.4,0.4-0.8,0.8-1.1,1.1c0.1,6.8,0.9,5.5-6.5,8.5
			C103.7,163.1,102.8,161.3,100.5,158.4z M105.6,157l1.9-0.8c-0.1-3.6-0.4-4.6,0.9-5.6c4.1-3.2,1.1-3.3,7.6-2.7l0.8-1.9
			c-2.5-2.5-3.4-3-3.2-4.6c0.7-5.3-1.5-3.1,3.5-7.5l-0.7-2c-6.6,0.2-3.5,0.3-7.5-3.2c-1.2-1-0.8-2.1-0.6-5.6l-1.9-0.9
			c-4.6,5-2.3,2.8-7.5,3.2c-1.5,0.2-2-0.9-4.3-3.6l-1.9,0.8c0.2,6.9,0.3,3.6-3.1,7.7c-1,1.2-2.1,0.9-5.4,0.6l-0.8,1.9
			c4.8,4.7,2.7,2.4,3.1,7.7c0.1,1.6-0.8,2.1-3.4,4.4l0.7,2c6.6-0.2,3.5-0.3,7.5,3.2c1.2,1.1,0.8,2.2,0.6,5.6l1.9,0.9
			c4.6-5,2.3-2.8,7.5-3.2C102.9,153.3,103.4,154.3,105.6,157z M91.3,135.3c2.2-5.1,8-7.4,12.9-5.1c8,3.7,7.6,15.5-0.5,18.7l0,0
			C95.6,152.1,87.7,143.6,91.3,135.3z M95.5,141.3c1,2.7,3.9,4,6.5,3c0,0,0,0,0,0c4.1-1.6,4.3-7.7,0.3-9.6
			C98.2,132.8,93.9,136.9,95.5,141.3z"/>
	</g>
	<g>
		<path class="st2" d="M161.2,142.1h-3.6c-3.2,0-3.2-5,0-5h3.6C164.4,137.1,164.4,142.1,161.2,142.1z M145.7,142.1h-3.6
			c-3.2,0-3.2-5,0-5h3.6C148.8,137.1,148.8,142.1,145.7,142.1z M130.1,142.1h-3.6c-3.2,0-3.2-5,0-5h3.6
			C133.3,137.1,133.3,142.1,130.1,142.1z"/>
	</g>
	<g>
		<path class="st2" d="M72.6,142.1H69c-3.2,0-3.2-5,0-5h3.6C75.7,137.1,75.7,142.1,72.6,142.1z M57,142.1h-3.6c-3.2,0-3.2-5,0-5H57
			C60.2,137.1,60.2,142.1,57,142.1z M41.5,142.1h-3.6c-3.2,0-3.2-5,0-5h3.6C44.6,137.1,44.6,142.1,41.5,142.1z"/>
	</g>
	<g>
		<path class="st1" d="M16.5,169.5V59.6c0-4.6,3.6-8.3,8-8.3h50.6l-0.4,10.3H25.9l0.8,107.8H16.5z"/>
	</g>
	<g>
		<path class="st1" d="M183.7,169.5V59.6c0-4.6-3.6-8.3-8-8.3h-47.2l0.3,10.3h44.7v107.8H183.7z"/>
	</g>
	<g>
		<path class="st1" d="M100.3,178.2H20.8c-4.6,0-8.4-3.9-8.4-8.7v-1.2h75.8c1.8,3.3,3.5,2.5,19.5,2.5c1.8,0,3.3-1,4.1-2.5h75.8v1.2
			c0,4.8-3.7,8.7-8.4,8.7H99.8H100.3z"/>
	</g>
	<g>
		<path class="st2" d="M180.5,167.7V58.3c0-2.3-1.8-4.1-3.9-4.1h-46c-3.2,0-3.2-5,0-5h46c4.8,0,8.7,4.1,8.7,9v109.3
			C185.2,170.9,180.5,171,180.5,167.7z"/>
	</g>
	<g>
		<path class="st2" d="M14.8,167.7V58.3c0-5,3.9-9,8.7-9h49c3.2,0,3.2,5,0,5h-49c-2.2,0-3.9,1.8-3.9,4.1v109.3
			C19.6,170.9,14.8,171,14.8,167.7z"/>
	</g>
	<g>
		<path class="st2" d="M170.9,168.3V64.2h-40c-3.2,0-3.2-5,0-5h41.8c1.7,0,3,1.4,3,3.1v105.9C175.7,171.5,170.9,171.5,170.9,168.3z
			 M172.6,64.2L172.6,64.2L172.6,64.2z"/>
	</g>
	<g>
		<path class="st2" d="M24.4,168.3V62.4c0-1.7,1.4-3.1,3-3.1h45.5c3.2,0,3.2,5,0,5H29.2v104.1C29.2,171.5,24.4,171.5,24.4,168.3z"/>
	</g>
	<g>
		<path class="st2" d="M179.3,180.7H20.8c-5.4,0-10.8-4.1-10.8-12.4c0-1.4,1.1-2.5,2.4-2.5h75.8c2.3,0,1.8,2.5,4.1,2.5
			c16.4,0,16.5,0.4,17.4-1.2c1-1.8-3.6-1.2,77.9-1.2c1.3,0,2.4,1.1,2.4,2.5C190,176.5,184.7,180.7,179.3,180.7z M179.3,175.7
			c2.9,0,5.3-2.1,5.9-5H113c-2.8,3.2-4.7,2.5-20.7,2.5c-2,0-4-0.9-5.3-2.5H14.9c0.6,2.8,3,5,5.9,5
			C27.9,175.7,172.5,175.7,179.3,175.7z"/>
	</g>
	<g>
		<path class="st2" d="M167.8,190.6c-3.2,0-3.2-5,0-5C170.9,185.6,170.9,190.6,167.8,190.6z"/>
	</g>
	<g>
		<path class="st2" d="M158.9,190.6h-122c-3.2,0-3.2-5,0-5h122c1.3,0,2.4,1.1,2.4,2.5C161.3,189.5,160.2,190.6,158.9,190.6z"/>
	</g>
	<g>
		<path class="st2" d="M85.3,112.2c-1.4-0.1-0.2,0.9-18.7-22.1c-0.7-0.9-0.7-2.2,0-3.1l15.7-20.1c2-2.5,5.7,0.6,3.7,3.1L71.5,88.5
			l14.3,17.8l5-4.3l-9.6-12c-0.7-0.9-0.7-2.2,0-3.1l9.1-11.7c2-2.5,5.7,0.6,3.7,3.1l-7.9,10.1l9.9,12.3c0.8,1.1,0.7,2.6-0.3,3.5
			C86.4,112.3,86.6,112.3,85.3,112.2z"/>
	</g>
	<g>
		<path class="st2" d="M104.6,104.2c-1-0.9-1.2-2.4-0.3-3.5l9.9-12.3L105.7,78c-2-2.5,1.6-5.7,3.7-3.2l9.7,12c0.7,0.9,0.8,2.3,0,3.2
			l-9.6,12l5,4.3l14.3-17.8l-15.3-19.5c-2-2.5,1.7-5.7,3.7-3.1l16.5,21.1c0.7,0.9,0.7,2.2,0,3.1c-18.5,23-17.3,22-18.7,22.1
			C113.7,112.3,114,112.2,104.6,104.2z"/>
	</g>
	<g>
		<path class="st3" d="M43.4,90.1h-3.6c-3.2,0-3.2-5,0-5h3.6C46.5,85.2,46.5,90.1,43.4,90.1z"/>
	</g>
	<g>
		<path class="st3" d="M59.8,90.1H53c-3.2,0-3.2-5,0-5h6.9C63,85.2,63,90.1,59.8,90.1z"/>
	</g>
	<g>
		<path class="st3" d="M43.4,106.4h-3.6c-3.2,0-3.2-5,0-5h3.6C46.5,101.4,46.5,106.4,43.4,106.4z"/>
	</g>
	<g>
		<path class="st3" d="M65,106.4H53c-3.2,0-3.2-5,0-5h12C68.1,101.4,68.1,106.4,65,106.4z"/>
	</g>
	<g>
		<path class="st3" d="M77.3,121.7H39c-3.2,0-3.2-5,0-5h38.3C80.5,116.7,80.5,121.7,77.3,121.7z"/>
	</g>
	<g>
		<path class="st3" d="M163.2,121.7h-38.3c-3.2,0-3.2-5,0-5h38.3C166.4,116.7,166.4,121.7,163.2,121.7z"/>
	</g>
	<g>
		<path class="st3" d="M161.8,90.1h-19.4c-3.2,0-3.2-5,0-5h19.4C165,85.2,165,90.1,161.8,90.1z"/>
	</g>
	<g>
		<path class="st3" d="M161.8,106.4h-27.1c-3.2,0-3.2-5,0-5h27.1C165,101.4,165,106.4,161.8,106.4z"/>
	</g>
	<g>
		<path class="st2" d="M99.2,83.9c-21.6-22.4-20.6-21-20.6-22.4c0-1.4-1,0,20.6-22.4c0.9-1,2.4-1,3.4,0l19.9,20.7
			c0.9,1,0.9,2.5,0,3.5l-19.9,20.7C101.6,84.9,100.1,84.9,99.2,83.9z M84.3,61.5l16.6,17.1l16.6-17.1l-16.6-17.1L84.3,61.5z"/>
	</g>
	<g>
		<path class="st2" d="M106.4,43.1l30.8-31.9c0.9-0.9,2.5-0.9,3.4,0l29.1,30.2c2.2,2.3-1.1,5.8-3.4,3.5l-27.4-28.4l-29.1,30.1
			C107.6,48.9,104.2,45.4,106.4,43.1z"/>
	</g>
	<g>
		<path class="st2" d="M116.1,53.9l22-22.8c0.9-1,2.4-1,3.4,0l9.8,10.2c2.2,2.3-1.1,5.8-3.4,3.5l-8.1-8.4l-20.3,21
			C117.3,59.7,113.9,56.2,116.1,53.9z"/>
	</g>
	<g>
		<path class="st2" d="M25.5,34.2c-5.9,0-10.7-5-10.7-11s4.8-11,10.7-11s10.7,5,10.7,11S31.3,34.2,25.5,34.2z M25.5,17
			c-3.2,0-5.9,2.7-5.9,6.1c0,3.4,2.6,6.1,5.9,6.1s5.9-2.7,5.9-6.1C31.3,19.8,28.7,17,25.5,17z"/>
	</g>
	<g>
		<path class="st2" d="M62.7,34.2c-5.9,0-10.7-5-10.7-11s4.8-11,10.7-11s10.7,5,10.7,11S68.5,34.2,62.7,34.2z M62.7,17
			c-3.2,0-5.9,2.7-5.9,6.1c0,3.4,2.6,6.1,5.9,6.1c3.2,0,5.9-2.7,5.9-6.1C68.5,19.8,65.9,17,62.7,17z"/>
	</g>
	<g>
		<path class="st2" d="M99.9,34.2c-5.9,0-10.7-5-10.7-11s4.8-11,10.7-11c5.9,0,10.7,5,10.7,11S105.7,34.2,99.9,34.2z M99.9,17
			c-3.2,0-5.9,2.7-5.9,6.1c0,3.4,2.6,6.1,5.9,6.1c3.2,0,5.9-2.7,5.9-6.1C105.7,19.8,103.1,17,99.9,17z"/>
	</g>
	<g>
		<path class="st2" d="M91.6,25.6H70.9c-3.2,0-3.2-5,0-5h20.7C94.7,20.7,94.8,25.6,91.6,25.6z"/>
	</g>
	<g>
		<path class="st2" d="M54.4,25.6H33.7c-3.2,0-3.2-5,0-5h20.7C57.6,20.7,57.6,25.6,54.4,25.6z"/>
	</g>
	<g>
		<path class="st2" d="M23.1,43.5V31.7c0-3.3,4.8-3.3,4.8,0v11.8C27.9,46.8,23.1,46.8,23.1,43.5z"/>
	</g>
</g>
</svg>
