<?xml version="1.0" encoding="utf-8"?>
<!-- Generator: Adobe Illustrator 23.0.3, SVG Export Plug-In . SVG Version: 6.00 Build 0)  -->
<svg version="1.1" id="Layer_1" xmlns="http://www.w3.org/2000/svg" xmlns:xlink="http://www.w3.org/1999/xlink" x="0px" y="0px"
	 viewBox="0 0 200 200" style="enable-background:new 0 0 200 200;" xml:space="preserve">
<style type="text/css">
	.st0{fill:#FF4081;}
	.st1{fill:#304FFE;}
	.st2{fill:#263357;}
	.st3{fill:#00E5FF;}
	.st4{fill:#AFAFAF;}
	.st5{fill:none;stroke:#455A64;stroke-miterlimit:10;}
	.st6{fill:#3B3B3B;}
	.st7{fill:#454545;}
	.st8{fill:none;stroke:#37474F;stroke-miterlimit:10;}
	.st9{fill:#ECF0F1;}
	.st10{fill:none;stroke:#ECEFF1;stroke-miterlimit:10;}
	.st11{fill:none;stroke:#2196F3;stroke-miterlimit:10;}
	.st12{fill:none;stroke:#666A73;stroke-miterlimit:10;}
	.st13{fill:none;stroke:#333333;stroke-miterlimit:10;}
</style>
<g>
	<g>
		<path class="st4" d="M73.9,182.1l-0.2,0c-1.5-0.4-2.5-1.5-2.5-2.9v-2.4l0.9-0.6c2.8-1.8,5.9-3.9,6.5-4.3c0.2-0.3,0.5-0.7,0.7-1
			c0.2-0.4,0.6-1.6,0.6-2.6v-0.1l1.8-17.6h36.9l1.8,17.6v0.1c0,1,0.4,2.2,0.6,2.6c0.2,0.3,0.4,0.7,0.7,1c0.6,0.5,3.7,2.5,6.5,4.3
			l0.9,0.6v2.4c0,1.4-1,2.5-2.5,2.9l-0.2,0H73.9z"/>
		<path class="st5" d="M120.3,173.2c-0.4-0.4-0.8-1-1-1.5c-0.3-0.5-0.8-2-0.8-3.5l-1.6-15.8H100H83.2l-1.6,15.8c0,1.5-0.6,3-0.8,3.5
			c-0.3,0.5-0.7,1.1-1,1.5c-0.4,0.4-6.8,4.6-6.8,4.6v1.3c0,0.7,1.1,1,1.1,1H100h25.9c0,0,1.1-0.3,1.1-1v-1.3
			C127.1,177.8,120.7,173.6,120.3,173.2z"/>
		<path class="st4" d="M73.8,183.4l-0.3-0.1c-1.2-0.4-2.3-1.7-2.3-3.4v-4h57.7v4c0,1.7-1.2,2.9-2.3,3.4l-0.3,0.1H73.8z"/>
		<path class="st5" d="M100,177.9H72.9v2c0,1.1,1.1,1.5,1.1,1.5H100h25.9c0,0,1.1-0.4,1.1-1.5v-2H100z"/>
	</g>
	<path class="st4" d="M9,146.1V24.8c0-4.5,3.7-8.2,8.2-8.2h165.6c4.5,0,8.2,3.7,8.2,8.2v121.3c0,4.5-3.7,8.2-8.2,8.2H17.2
		C12.7,154.3,9,150.7,9,146.1z"/>
	<path class="st5" d="M183.5,152.4H16.5c-3.2,0-5.8-2.6-5.8-5.8V24.3c0-3.2,2.6-5.8,5.8-5.8h166.9c3.2,0,5.8,2.6,5.8,5.8v122.3
		C189.2,149.8,186.6,152.4,183.5,152.4z"/>
	<g>
		<path class="st6" d="M191,23.2h-3.5c0-1.5-1.1-2.7-2.4-2.7v-3.9C188.3,16.6,191,19.5,191,23.2z"/>
		<path class="st7" d="M185,18.5c2.3,0,4.2,2.1,4.2,4.6"/>
		<path class="st6" d="M12.5,23.2H9c0-3.6,2.7-6.6,6-6.6v3.9C13.6,20.5,12.5,21.7,12.5,23.2z"/>
		<path class="st7" d="M10.8,23.2c0-2.5,1.9-4.6,4.2-4.6"/>
		<path class="st6" d="M9,136.5V23.2c0-3.6,2.7-6.6,6-6.6H185c3.3,0,6,2.9,6,6.6v113.3H9z"/>
		<path class="st8" d="M185,18.5H15c-2.3,0-4.2,2.1-4.2,4.6v111.4h178.5V23.2C189.2,20.6,187.3,18.5,185,18.5z"/>
	</g>
	<rect x="17.9" y="26.4" class="st9" width="164" height="99.1"/>
	<rect x="17.9" y="26.4" class="st10" width="164" height="99.7"/>
	<rect x="63" y="41.6" class="st11" width="74" height="21.4"/>
	<rect x="63" y="34.5" class="st12" width="74" height="4.2"/>
	<rect x="63" y="65" class="st11" width="74" height="0.3"/>
	
		<rect x="66.9" y="69.1" transform="matrix(-1.836970e-16 1 -1 -1.836970e-16 150.3499 1.4672)" class="st11" width="15" height="13.6"/>
	
		<rect x="118.1" y="69.1" transform="matrix(-1.836970e-16 1 -1 -1.836970e-16 201.4672 -49.6501)" class="st11" width="15" height="13.6"/>
	<rect x="101.9" y="68.7" class="st11" width="13.1" height="14.5"/>
	
		<rect x="84" y="69.1" transform="matrix(-1.836970e-16 1 -1 -1.836970e-16 167.389 -15.5719)" class="st11" width="15" height="13.6"/>
	
		<rect x="66.9" y="87.9" transform="matrix(-1.836970e-16 1 -1 -1.836970e-16 169.1107 20.228)" class="st11" width="15" height="13.6"/>
	
		<rect x="118.1" y="87.9" transform="matrix(-1.836970e-16 1 -1 -1.836970e-16 220.228 -30.8893)" class="st11" width="15" height="13.6"/>
	
		<rect x="101" y="87.9" transform="matrix(-1.836970e-16 1 -1 -1.836970e-16 203.1889 -13.8502)" class="st11" width="15" height="13.6"/>
	
		<rect x="84" y="87.9" transform="matrix(-1.836970e-16 1 -1 -1.836970e-16 186.1498 3.1889)" class="st11" width="15" height="13.6"/>
	<rect x="67.6" y="112.4" class="st13" width="17.3" height="1.6"/>
	<rect x="107.6" y="112.4" class="st13" width="6.5" height="1.6"/>
	<rect x="98.6" y="112.4" class="st13" width="6.5" height="1.6"/>
	<rect x="116.6" y="112.4" class="st13" width="6.5" height="1.6"/>
	<rect x="125.6" y="112.4" class="st13" width="6.5" height="1.6"/>
	<rect x="63" y="109.3" class="st12" width="74" height="7.8"/>
</g>
</svg>
