<?xml version="1.0" encoding="utf-8"?>
<!-- Generator: Adobe Illustrator 23.0.3, SVG Export Plug-In . SVG Version: 6.00 Build 0)  -->
<svg version="1.1" id="Layer_1" xmlns="http://www.w3.org/2000/svg" xmlns:xlink="http://www.w3.org/1999/xlink" x="0px" y="0px"
	 viewBox="0 0 900 600" style="enable-background:new 0 0 900 600;" xml:space="preserve">
<style type="text/css">
	.st0{fill:#FFEB3B;}
	.st1{opacity:0.45;fill:#E8F5E9;}
	.st2{fill:#387BFF;}
	.st3{fill:#0253A2;}
	.st4{fill:#FEC00F;}
	.st5{fill:#FFFFFF;}
	.st6{fill:#7DC2F5;}
	.st7{fill:#795548;}
	.st8{fill:#8D6E63;}
	.st9{fill:#0E2537;}
	.st10{fill:#3A395B;}
	.st11{fill:#536DFE;}
	.st12{fill:#3D5AFE;}
	.st13{fill:#163F59;}
	.st14{fill:#E9D6B8;}
	.st15{fill:#BA68C8;}
	.st16{fill:#7B1FA2;}
	.st17{fill:#194866;}
	.st18{fill:#FEEBC1;}
	.st19{fill:#0063CB;}
	.st20{fill:#E91E63;}
	.st21{fill:#2196F3;}
	.st22{fill:#161711;}
	.st23{fill:#F6EFE3;}
	.st24{fill:#FFA000;}
	.st25{fill:#8DCFFF;}
</style>
<path class="st0" d="M900,181.9c-6.3,1-13.3,2.3-21,3.7c-41.1,7.6-106.9,12.1-192.2-9.1c-84.7-18.5-188.9-62.7-293.6-90.3
	C287.4,56.9,201.9,64.7,142.5,98.7C82.8,131.2,49.2,190,38.8,228.5c-12.1,43.2-1.3,65.1,22.6,78.7c24,14,61.1,19.6,103.4,38.3
	c87.6,34.7,165.5,102.3,214.3,147.1c51.6,46.9,74.5,68.6,116.5,75.7c40.1,5.3,101.3,2.3,184.9-22.5c40.3-13.7,85.9-35,127.3-72.9
	c35-31.1,67.2-74,92.2-120.7V181.9z"/>
<rect x="276" y="163.3" class="st1" width="550.3" height="302.5"/>
<g>
	<g>
		<g>
			<path class="st2" d="M828.9,468.4H273.4V160.7h555.5V468.4z M276,465.8h550.3V163.3H276V465.8z"/>
		</g>
		<rect x="274.8" y="423.4" class="st2" width="552.9" height="43.7"/>
		<rect x="275.7" y="423.4" class="st3" width="552.3" height="5.8"/>
		<rect x="275.7" y="423.4" class="st4" width="258" height="5.8"/>
		<g>
			<rect x="375" y="443.2" class="st3" width="29.7" height="4.1"/>
			<rect x="375" y="443.2" class="st4" width="12.9" height="4.1"/>
			<g>
				<g>
					<g>
						<path class="st5" d="M368.4,451.1c-0.1,0-0.3-0.1-0.4-0.2l-2.9-2.3h-1.8c-0.3,0-0.6-0.3-0.6-0.6v-5.5c0-0.4,0.3-0.6,0.6-0.6
							h1.8l2.9-2.3c0.2-0.2,0.4-0.2,0.7-0.1c0.2,0.1,0.4,0.3,0.4,0.6v10.4c0,0.3-0.1,0.5-0.4,0.6
							C368.5,451.1,368.4,451.1,368.4,451.1L368.4,451.1z M364,447.4h1.3c0.2,0,0.3,0.1,0.4,0.1l2,1.6v-7.8l-2,1.6
							c-0.1,0.1-0.3,0.1-0.4,0.1H364V447.4L364,447.4z"/>
					</g>
				</g>
			</g>
		</g>
		<g>
			<g>
				<path class="st5" d="M755.4,449.4h-4.7c-0.2,0-0.4-0.1-0.5-0.3l-1.2-1.9c-0.2-0.3-0.1-0.7,0.2-0.9c0.3-0.2,0.7-0.1,0.9,0.2
					l1.1,1.6h4.3c0.3,0,0.6,0.3,0.6,0.6C756,449.1,755.7,449.4,755.4,449.4L755.4,449.4z"/>
			</g>
			<g>
				<path class="st5" d="M747.7,444.3c-0.2,0-0.4-0.1-0.5-0.3l-1-1.6H742c-0.3,0-0.6-0.3-0.6-0.6c0-0.3,0.3-0.6,0.6-0.6h4.5
					c0.2,0,0.4,0.1,0.5,0.3l1.2,1.9c0.2,0.3,0.1,0.7-0.2,0.9C747.9,444.3,747.8,444.3,747.7,444.3L747.7,444.3z"/>
			</g>
			<g>
				<path class="st5" d="M746.5,449.4H742c-0.3,0-0.6-0.3-0.6-0.6c0-0.3,0.3-0.6,0.6-0.6h4.1l4-6.7c0.1-0.2,0.3-0.3,0.5-0.3h4.7
					c0.3,0,0.6,0.3,0.6,0.6c0,0.4-0.3,0.6-0.6,0.6H751l-4,6.7C746.9,449.3,746.7,449.4,746.5,449.4L746.5,449.4z"/>
			</g>
			<g>
				<path class="st5" d="M753.2,444.8c-0.2,0-0.4-0.1-0.5-0.2c-0.2-0.2-0.2-0.6,0-0.9l2-2l-2-2c-0.2-0.2-0.2-0.6,0-0.9
					c0.2-0.2,0.6-0.2,0.9,0l2.4,2.4c0.2,0.3,0.2,0.6,0,0.9l-2.4,2.4C753.5,444.8,753.3,444.8,753.2,444.8L753.2,444.8z"/>
			</g>
			<g>
				<path class="st5" d="M753.2,451.8c-0.2,0-0.4-0.1-0.5-0.2c-0.2-0.3-0.2-0.6,0-0.9l2-2l-2-2c-0.2-0.3-0.2-0.7,0-0.9
					c0.2-0.2,0.6-0.2,0.9,0l2.4,2.4c0.2,0.3,0.2,0.6,0,0.9l-2.4,2.4C753.5,451.8,753.3,451.8,753.2,451.8L753.2,451.8z"/>
			</g>
		</g>
		<g>
			<g>
				<g>
					<path class="st6" d="M778.2,445.3c-0.2,0-0.3-0.1-0.5-0.2c-0.2-0.3-0.2-0.7,0.1-0.9l2.6-2.3l-2.6-2.3c-0.3-0.2-0.3-0.6-0.1-0.9
						s0.6-0.3,0.9-0.1l3.2,2.8c0.1,0.1,0.2,0.3,0.2,0.5s-0.1,0.3-0.2,0.5l-3.2,2.7C778.5,445.2,778.3,445.3,778.2,445.3L778.2,445.3
						z"/>
				</g>
			</g>
			<g>
				<path class="st6" d="M771.4,449c-0.1,0-0.3-0.1-0.4-0.1c-1-0.8-1.6-2-1.6-3.3c0-2.3,1.9-4.2,4.2-4.2h7.3c0.3,0,0.6,0.3,0.6,0.6
					c0,0.3-0.3,0.6-0.6,0.6h-7.3c-1.6,0-2.9,1.3-2.9,2.9c0,0.9,0.4,1.8,1.2,2.3c0.3,0.2,0.3,0.6,0.1,0.9
					C771.7,448.9,771.5,449,771.4,449L771.4,449z"/>
			</g>
			<g>
				<g>
					<path class="st6" d="M776.6,452.1c-0.2,0-0.3,0-0.4-0.1l-3.2-2.8c-0.1-0.1-0.2-0.3-0.2-0.5s0.1-0.4,0.2-0.5l3.2-2.8
						c0.3-0.2,0.7-0.2,0.9,0.1c0.2,0.2,0.2,0.6-0.1,0.9l-2.7,2.3l2.7,2.3c0.3,0.2,0.3,0.6,0.1,0.9
						C776.9,452,776.8,452.1,776.6,452.1L776.6,452.1z"/>
				</g>
			</g>
			<g>
				<path class="st6" d="M781.2,449.2h-7.3c-0.3,0-0.6-0.3-0.6-0.6c0-0.3,0.3-0.6,0.6-0.6h7.3c1.6,0,2.9-1.3,2.9-2.9
					c0-0.9-0.4-1.8-1.2-2.3c-0.3-0.2-0.3-0.6-0.1-0.9s0.6-0.3,0.9-0.1c1.1,0.8,1.6,2,1.6,3.3C785.4,447.4,783.5,449.2,781.2,449.2
					L781.2,449.2z"/>
			</g>
		</g>
		<g>
			<g>
				<path class="st5" d="M810.6,452.7h-13.7c-0.4,0-0.6-0.3-0.6-0.6v-13.7c0-0.4,0.3-0.6,0.6-0.6h6.8c0.4,0,0.7,0.3,0.7,0.6
					c0,0.3-0.3,0.6-0.7,0.6h-6.2v12.4H810v-6.2c0-0.4,0.3-0.6,0.6-0.6c0.4,0,0.7,0.3,0.7,0.6v6.8
					C811.2,452.5,810.9,452.7,810.6,452.7L810.6,452.7z"/>
			</g>
			<g>
				<g>
					<path class="st5" d="M810.6,442.8c-0.3,0-0.6-0.3-0.6-0.6v-3.1h-3.1c-0.4,0-0.6-0.3-0.6-0.6c0-0.4,0.3-0.6,0.6-0.6l0,0h3.7
						c0.4,0,0.7,0.3,0.7,0.6v3.7C811.2,442.5,810.9,442.8,810.6,442.8L810.6,442.8L810.6,442.8z"/>
				</g>
				<g>
					<path class="st5" d="M804.7,444.9c-0.2,0-0.3-0.1-0.4-0.2c-0.3-0.3-0.3-0.6,0-0.9l5.4-5.4c0.2-0.2,0.6-0.2,0.9,0
						c0.2,0.3,0.2,0.6,0,0.9l-5.4,5.4C805,444.9,804.9,444.9,804.7,444.9L804.7,444.9z"/>
				</g>
			</g>
		</g>
		<g>
			<polygon class="st5" points="337,445.3 333.6,447.7 330.2,450.1 330.2,445.3 330.2,440.4 333.6,442.8 			"/>
			<rect x="337.7" y="439.6" class="st5" width="1.4" height="11.4"/>
		</g>
		<g>
			<polygon class="st5" points="292.4,445.3 295.8,447.7 299.2,450.1 299.2,445.3 299.2,440.4 295.8,442.8 			"/>
			<rect x="290.2" y="439.6" class="st5" width="1.4" height="11.4"/>
		</g>
		<g>
			<g>
				<rect x="310" y="439.6" class="st5" width="2.9" height="11.4"/>
			</g>
			<g>
				<rect x="315.5" y="439.6" class="st5" width="2.9" height="11.4"/>
			</g>
		</g>
		<g>
			<g>
				<g>
					<path class="st5" d="M413.2,446.9h1v-3.2c0-0.1,0-0.2,0-0.3l-0.9,0.7c0,0,0,0-0.1,0c0,0,0,0-0.1,0H413c0,0,0,0-0.1-0.1
						l-0.2-0.3l1.4-1.2h0.5v4.3h0.9v0.5H413v-0.4H413.2z"/>
					<path class="st5" d="M416.5,444.5c0,0,0-0.1,0-0.2s0.1-0.1,0.1-0.1l0.1-0.1c0,0,0.1,0,0.2,0s0.1,0,0.2,0c0,0,0.1,0,0.1,0.1
						l0.1,0.1c0,0,0,0.1,0,0.2s0,0.1,0,0.2s-0.1,0.1-0.1,0.1l-0.1,0.1c-0.1,0-0.1,0-0.2,0s-0.1,0-0.2,0s-0.1-0.1-0.1-0.1
						c0-0.1-0.1-0.1-0.1-0.1S416.5,444.6,416.5,444.5z M416.5,447c0-0.1,0-0.1,0-0.2s0.1-0.1,0.1-0.1l0.1-0.1c0,0,0.1,0,0.2,0
						s0.1,0,0.2,0c0,0,0.1,0,0.1,0.1l0.1,0.1c0,0,0,0.1,0,0.2s0,0.1,0,0.2s-0.1,0.1-0.1,0.1l-0.1,0.1c-0.1,0-0.1,0-0.2,0
						s-0.1,0-0.2,0s-0.1-0.1-0.1-0.1l-0.1-0.1C416.5,447.1,416.5,447.1,416.5,447z"/>
					<path class="st5" d="M419.8,442.6c0.2,0,0.4,0,0.6,0.1s0.3,0.2,0.5,0.3c0.1,0.1,0.2,0.2,0.3,0.4c0.1,0.2,0.1,0.4,0.1,0.6
						s0,0.3-0.1,0.5c-0.1,0.1-0.1,0.3-0.2,0.4s-0.2,0.3-0.3,0.4c-0.1,0.1-0.2,0.3-0.4,0.4l-1.2,1.3c0.1,0,0.2,0,0.3-0.1
						c0.1,0,0.2,0,0.3,0h1.6c0.1,0,0.1,0,0.1,0.1s0.1,0.1,0.1,0.2v0.4h-3.2v-0.2c0-0.1,0-0.1,0-0.1s0-0.1,0.1-0.1l1.5-1.5
						c0.1-0.1,0.2-0.3,0.3-0.4c0.1-0.1,0.2-0.2,0.3-0.4c0.1-0.1,0.1-0.3,0.2-0.4c0-0.1,0.1-0.3,0.1-0.4c0-0.2,0-0.3-0.1-0.4
						c0-0.1-0.1-0.2-0.2-0.3c-0.1-0.1-0.2-0.1-0.3-0.2c-0.1,0-0.2,0-0.3,0c-0.1,0-0.2,0-0.3,0.1c-0.1,0-0.2,0.1-0.3,0.1
						c-0.1,0.1-0.1,0.1-0.2,0.2s-0.1,0.2-0.1,0.3c0,0.1,0,0.1-0.1,0.1h-0.1l0,0l0,0h-0.3c0-0.2,0.1-0.4,0.2-0.6s0.2-0.3,0.3-0.4
						c0.1-0.1,0.3-0.2,0.5-0.3C419.4,442.6,419.5,442.6,419.8,442.6z"/>
					<path class="st5" d="M423.6,442.6c0.2,0,0.4,0,0.6,0.1s0.3,0.1,0.4,0.2s0.2,0.2,0.3,0.4c0.1,0.1,0.1,0.3,0.1,0.5s0,0.3-0.1,0.4
						c0,0.1-0.1,0.2-0.2,0.3c-0.1,0.1-0.2,0.2-0.3,0.2c-0.1,0.1-0.2,0.1-0.3,0.1c0.3,0.1,0.5,0.2,0.7,0.4c0.2,0.2,0.2,0.4,0.2,0.7
						c0,0.2,0,0.4-0.1,0.6s-0.2,0.3-0.3,0.4c-0.1,0.1-0.3,0.2-0.5,0.3c-0.2,0.1-0.4,0.1-0.6,0.1c-0.3,0-0.5,0-0.6-0.1
						c-0.2-0.1-0.3-0.2-0.5-0.3c-0.1-0.1-0.2-0.2-0.3-0.4c-0.1-0.1-0.1-0.3-0.2-0.5l0.3-0.1h0.1h0.1l0.1,0.1l0,0l0,0
						c0,0.1,0.1,0.1,0.1,0.2s0.1,0.2,0.2,0.2c0.1,0.1,0.2,0.1,0.3,0.2c0.1,0,0.3,0.1,0.4,0.1c0.2,0,0.3,0,0.4-0.1s0.2-0.1,0.3-0.2
						c0.1-0.1,0.1-0.2,0.2-0.3c0-0.1,0.1-0.2,0.1-0.3c0-0.1,0-0.2,0-0.4c0-0.1-0.1-0.2-0.2-0.3c-0.1-0.1-0.2-0.1-0.4-0.2
						c-0.2,0-0.4-0.1-0.6-0.1v-0.4c0.2,0,0.4,0,0.5-0.1c0.1,0,0.3-0.1,0.4-0.2s0.2-0.2,0.2-0.3c0-0.1,0.1-0.2,0.1-0.3
						c0-0.1,0-0.3-0.1-0.4c0-0.1-0.1-0.2-0.2-0.2c-0.1-0.1-0.2-0.1-0.3-0.2c-0.1,0-0.2,0-0.3,0c-0.1,0-0.2,0-0.3,0.1
						c-0.1,0-0.2,0.1-0.3,0.1c-0.1,0.1-0.1,0.1-0.2,0.2s-0.1,0.2-0.1,0.3c0,0.1,0,0.1-0.1,0.1h-0.1l0,0l0,0h-0.3
						c0-0.2,0.1-0.4,0.2-0.6s0.2-0.3,0.3-0.4c0.1-0.1,0.3-0.2,0.5-0.3C423.3,442.6,423.4,442.6,423.6,442.6z"/>
				</g>
			</g>
			<g>
				<g>
					<path class="st5" d="M413.2,446.9h1v-3.2c0-0.1,0-0.2,0-0.3l-0.9,0.7c0,0,0,0-0.1,0c0,0,0,0-0.1,0H413c0,0,0,0-0.1-0.1
						l-0.2-0.3l1.4-1.2h0.5v4.3h0.9v0.5H413v-0.4H413.2z"/>
					<path class="st5" d="M416.5,444.5c0,0,0-0.1,0-0.2s0.1-0.1,0.1-0.1l0.1-0.1c0,0,0.1,0,0.2,0s0.1,0,0.2,0c0,0,0.1,0,0.1,0.1
						l0.1,0.1c0,0,0,0.1,0,0.2s0,0.1,0,0.2s-0.1,0.1-0.1,0.1l-0.1,0.1c-0.1,0-0.1,0-0.2,0s-0.1,0-0.2,0s-0.1-0.1-0.1-0.1
						c0-0.1-0.1-0.1-0.1-0.1S416.5,444.6,416.5,444.5z M416.5,447c0-0.1,0-0.1,0-0.2s0.1-0.1,0.1-0.1l0.1-0.1c0,0,0.1,0,0.2,0
						s0.1,0,0.2,0c0,0,0.1,0,0.1,0.1l0.1,0.1c0,0,0,0.1,0,0.2s0,0.1,0,0.2s-0.1,0.1-0.1,0.1l-0.1,0.1c-0.1,0-0.1,0-0.2,0
						s-0.1,0-0.2,0s-0.1-0.1-0.1-0.1l-0.1-0.1C416.5,447.1,416.5,447.1,416.5,447z"/>
					<path class="st5" d="M419.8,442.6c0.2,0,0.4,0,0.6,0.1s0.3,0.2,0.5,0.3c0.1,0.1,0.2,0.2,0.3,0.4c0.1,0.2,0.1,0.4,0.1,0.6
						s0,0.3-0.1,0.5c-0.1,0.1-0.1,0.3-0.2,0.4s-0.2,0.3-0.3,0.4c-0.1,0.1-0.2,0.3-0.4,0.4l-1.2,1.3c0.1,0,0.2,0,0.3-0.1
						c0.1,0,0.2,0,0.3,0h1.6c0.1,0,0.1,0,0.1,0.1s0.1,0.1,0.1,0.2v0.4h-3.2v-0.2c0-0.1,0-0.1,0-0.1s0-0.1,0.1-0.1l1.5-1.5
						c0.1-0.1,0.2-0.3,0.3-0.4c0.1-0.1,0.2-0.2,0.3-0.4c0.1-0.1,0.1-0.3,0.2-0.4c0-0.1,0.1-0.3,0.1-0.4c0-0.2,0-0.3-0.1-0.4
						c0-0.1-0.1-0.2-0.2-0.3c-0.1-0.1-0.2-0.1-0.3-0.2c-0.1,0-0.2,0-0.3,0c-0.1,0-0.2,0-0.3,0.1c-0.1,0-0.2,0.1-0.3,0.1
						c-0.1,0.1-0.1,0.1-0.2,0.2s-0.1,0.2-0.1,0.3c0,0.1,0,0.1-0.1,0.1h-0.1l0,0l0,0h-0.3c0-0.2,0.1-0.4,0.2-0.6s0.2-0.3,0.3-0.4
						c0.1-0.1,0.3-0.2,0.5-0.3C419.4,442.6,419.5,442.6,419.8,442.6z"/>
					<path class="st5" d="M423.6,442.6c0.2,0,0.4,0,0.6,0.1s0.3,0.1,0.4,0.2s0.2,0.2,0.3,0.4c0.1,0.1,0.1,0.3,0.1,0.5s0,0.3-0.1,0.4
						c0,0.1-0.1,0.2-0.2,0.3c-0.1,0.1-0.2,0.2-0.3,0.2c-0.1,0.1-0.2,0.1-0.3,0.1c0.3,0.1,0.5,0.2,0.7,0.4c0.2,0.2,0.2,0.4,0.2,0.7
						c0,0.2,0,0.4-0.1,0.6s-0.2,0.3-0.3,0.4c-0.1,0.1-0.3,0.2-0.5,0.3c-0.2,0.1-0.4,0.1-0.6,0.1c-0.3,0-0.5,0-0.6-0.1
						c-0.2-0.1-0.3-0.2-0.5-0.3c-0.1-0.1-0.2-0.2-0.3-0.4c-0.1-0.1-0.1-0.3-0.2-0.5l0.3-0.1h0.1h0.1l0.1,0.1l0,0l0,0
						c0,0.1,0.1,0.1,0.1,0.2s0.1,0.2,0.2,0.2c0.1,0.1,0.2,0.1,0.3,0.2c0.1,0,0.3,0.1,0.4,0.1c0.2,0,0.3,0,0.4-0.1s0.2-0.1,0.3-0.2
						c0.1-0.1,0.1-0.2,0.2-0.3c0-0.1,0.1-0.2,0.1-0.3c0-0.1,0-0.2,0-0.4c0-0.1-0.1-0.2-0.2-0.3c-0.1-0.1-0.2-0.1-0.4-0.2
						c-0.2,0-0.4-0.1-0.6-0.1v-0.4c0.2,0,0.4,0,0.5-0.1c0.1,0,0.3-0.1,0.4-0.2s0.2-0.2,0.2-0.3c0-0.1,0.1-0.2,0.1-0.3
						c0-0.1,0-0.3-0.1-0.4c0-0.1-0.1-0.2-0.2-0.2c-0.1-0.1-0.2-0.1-0.3-0.2c-0.1,0-0.2,0-0.3,0c-0.1,0-0.2,0-0.3,0.1
						c-0.1,0-0.2,0.1-0.3,0.1c-0.1,0.1-0.1,0.1-0.2,0.2s-0.1,0.2-0.1,0.3c0,0.1,0,0.1-0.1,0.1h-0.1l0,0l0,0h-0.3
						c0-0.2,0.1-0.4,0.2-0.6s0.2-0.3,0.3-0.4c0.1-0.1,0.3-0.2,0.5-0.3C423.3,442.6,423.4,442.6,423.6,442.6z"/>
				</g>
			</g>
		</g>
	</g>
	<g>
		<path class="st7" d="M764.2,279.8c-0.2-0.9-0.5-3.3-0.5-3.8s-4.5-1-5,1.3s-1.3,8-1.4,9.8c-0.1,1.8,1.7,3,3.1,4.2
			C761.8,292.6,764.4,280.5,764.2,279.8z"/>
		<path class="st7" d="M773.7,339.6c0,0,0.6,1.4-1.4,3.9c-2.1,2.4-3.4,4.6-2.1,7.3c1.2,2.6,3.4,3.8,4.9,10.1
			c0.6,2.4,3.4,4.7,4.7,2.4c2.7-4.4,3.3-7,2.4-8.4c-0.9-1.4-5-5.7-4.1-8.6C778.9,343.4,773.7,339.6,773.7,339.6z"/>
		<path class="st7" d="M676.8,208.2l-4.4,2.2c0,0-6.3,0.6-6.9,1.6c-0.6,1.1,5,0.7,5,0.7l7.2-1.3L676.8,208.2z"/>
		<path class="st7" d="M677.2,210.4l-4.4,2.2c0,0-6.3,0.6-6.9,1.6c-0.6,1.1,5,0.7,5,0.7l7.2-1.3L677.2,210.4z"/>
		<path class="st7" d="M679.4,206.3l-4.4,2.2c0,0-6.3,0.6-6.9,1.6c-0.6,1.1,5,0.7,5,0.7l7.2-1.3L679.4,206.3z"/>
		<path class="st8" d="M688.1,204.2c0,0-2.2-3.2-7.9-1.7c-5.8,1.5-10,3.9-6,3.7s2.6-0.4,1.4,3.4c-1.2,3.8-1.2,3.8-1.2,3.8
			s-3.8,1.8-4.9,2.6c-1.1,0.8-0.5,2-0.5,2l6.9-2.3c0,0,4.9-3.7,6.7-4.1c1.8-0.5,6.5,0.2,6.5,0.2L688.1,204.2z"/>
		<path class="st7" d="M793.5,151l3.7-3.3c0,0,2.8-5.7,4-5.9s-1.2,4.9-1.2,4.9l-3.8,6.2L793.5,151z"/>
		<path class="st7" d="M795.4,152.2l3.7-3.3c0,0,2.8-5.7,4-5.9s-1.2,4.9-1.2,4.9l-3.8,6.2L795.4,152.2z"/>
		<path class="st7" d="M790.8,152.7l3.7-3.3c0,0,2.8-5.7,4-5.9s-1.2,4.9-1.2,4.9l-3.8,6.2L790.8,152.7z"/>
		<path class="st8" d="M788,159.3c0,0-3.2-4-0.9-7.2c3.5-4.8,7.2-7.9,5.6-4.3c-1.6,3.6-1.3,2.3,2.7,2.5c4,0.3,4,0.3,4,0.3
			s3-2.9,4.2-3.7s2.1,0.2,2.1,0.2l-4.6,5.6c0,0-5.2,3.3-6.3,4.8s-6.8,5.4-6.8,5.4V159.3z"/>
		<path class="st9" d="M723.6,178.5c0,0-2.8,7.1-4.1,15.7c-1.6,10.4-4.5,14.4,2.1,24.5c6.5,10.1,12.7,17.4,3.5,20.5
			s-27.4,11.4-19.7,17.6c7.7,6.2,18.6,2.7,26.7,3.8c8.1,1.1,8.4-0.7,10.4,4.1c2,4.8,13.5-7.1,15.8-10.5c9.5-14.3,0.2-24,9.2-29.2
			s16-22.4,10.3-33.4c-5.7-11-13.4-14.4-14.1-21.4c-0.7-7-4.8-10.2-11.6-7.7c-6.9,2.5-7.8,4.2-11.7,8.7
			C736.5,175.9,726.1,178.6,723.6,178.5z"/>
		<path class="st9" d="M764.7,311.9c0,0-4.4,0.8-5.6-13.2c-1.1-14,0.4-20.5,3.2-20.8c2.8-0.4,8.2,5.4,8.2,20.4
			C770.4,313.2,766.4,310.3,764.7,311.9z"/>
		<path class="st9" d="M785.4,293.3c-1.6,7.7-4.8,23.2-7.2,29.4c-3.2,8.3-4.8,15.4-5.6,21.3c-0.4,3.1,1.8,8.3,5.3,3.8
			s9.7-17.5,11.7-23.8c2-6.2,13.1-33.4,12.5-42.9c-0.4-5.9-13-13-17.2-8.9C782.4,274.6,788,281.2,785.4,293.3z"/>
		<path class="st9" d="M787.7,275.5c0,0-11,26.4-13.2,33.1c-2.2,6.6-4.1,7.5-7.5,6.9s-5.1-3.3-5.8-5.7c-0.6-2.3,10.9-40.7,10.9-42.1
			C772.1,266.3,786.7,271.5,787.7,275.5z"/>
		<path class="st10" d="M770.2,300c2.1-4.9,8.6-21.1,12-29.1c-4.5-2.3-10.1-4-10.1-3.1c0,1-5.2,18.8-8.5,31
			C762.8,302.1,762.4,318.2,770.2,300z"/>
		<path class="st10" d="M771,266.3c0,0,25.4,1.6,30.4,0c4.9-1.6,2.4,16.2-3.8,32.1s-11.6,30.9-12.2,21.8c-0.6-9.1,3.1-32.6,2.3-39.9
			c-0.2-1.5,5.9-4.7,4.9-5.9c-1-1.2-10.7,0.5-12.1-0.5C776.6,271,772,269,771,266.3z"/>
		<path class="st11" d="M768.2,253.8c0,0,4.5,6.3,4,14c-0.5,7.6,30.1-1,30.5,1.7c0.4,2.8,3.4-11.6-3.5-28.7
			C792.1,223.6,772.7,241.2,768.2,253.8z"/>
		<path class="st11" d="M767,201.2c0,0,3.6-16.3,7.5-24.8s10.6-19.6,10.6-19.6s5.4,0,6.1,4.1c0.7,4.1-1.3,4.6-4.2,12.9
			c-2.9,8.2-9.3,27.4-5.5,36.5C785.3,219.3,767.6,202.1,767,201.2z"/>
		<path class="st8" d="M743.2,178.1c0,0-13.6,12.5-12.2,16.4c1.4,3.9,6,3.8,7,5s-1.7,1.9-1.3,3.2c0.3,1.3,5.9,2,8.4,0.7
			c1.3-0.7-0.3-2.4,14.7,7.3c7.3,4.7,4.9-5.9,5.2-11.7s1.1-16.4-0.8-18.4c-1.9-2-4.2-2.5-6-5.2C756.4,172.5,751.8,182.3,743.2,178.1
			z"/>
		<path class="st7" d="M765.4,198.8c0-2.7,0.1-6.4,0-9.9c-1.4,2.6-1.4,5.8-4.2,8.1c-3.8,3.1-8.2,2.8-8.2,2.8c-13.1,0.5,1,4.2-1,6.7
			c2.6,1.2,5.8,2.5,9.2,3.6C768.7,212.6,765.3,204.5,765.4,198.8z"/>
		<path class="st12" d="M737.9,214.1c0,0,8.3-6.5,11.5-8s13.5,2.6,14.2,3.8c1.3,2.2-3.1-9.2-3.1-9.2l9.6-2.9c0,0,10.2,6.3,22.1,23.2
			c11.9,16.9,14.8,19.8,15.1,23.6c0,0,0.3-4.4-10.7-2.6c-9.3,1.5-14.5,1.9-23.4,13.2c-15.8,20.2-9.7,3.9-13.3-4.4
			c-3-6.9-7.4-12-11-14.7C745.4,233.6,751.7,224.8,737.9,214.1z"/>
		<path class="st11" d="M739.7,214.4c0,0-21.1-4.2-28-6s-25.4-7-25.4-7s-0.8,8.1,0.4,9.9c1.2,1.8,31.8,12.5,45.6,16
			c13.8,3.6,17.2,11.3,17.8,7.9C750.7,231.9,749.6,222.2,739.7,214.4z"/>
		<path class="st10" d="M762.8,281c0,0-0.8,5.8-0.8,8.7c0,2.9,1.6-1.6,4.4-3.8C769.1,283.7,762.2,278,762.8,281z"/>
	</g>
	<g>
		<path class="st13" d="M350.7,295.4c0,0,4.4,9.4,6.2,22.9c1.7,13.3-7.5,14.9-11.1,12.9s5.6,10.1,10.5,9.1s9.3-3.2,10.5-13.5
			c1.1-10.3-9.6,31.9,16,34.4c0,0-12.6-3.7-2.8-28.3c5.1-12.7,1.8,23.9,15.3,22.8c0,0-11.4-4-2.4-24c6.2-13.7,12.6-28.2,10.8-32.5
			C391.7,270.6,350.2,282,350.7,295.4z"/>
		<g>
			<path class="st13" d="M379.2,144.3c0,0-1.1-7-2.7-9.4s-4.2-3.7-6-2.3s-3.9,8.5-3,13.4C368.5,151,379.7,146.9,379.2,144.3z"/>
			<path class="st13" d="M353,143.3c0,0,3.3-8.2,5.1-9.3c1.8-1.1,3.3-1.9,4.7-1.8c1.4,0.1,2.5,3,2.6,5.9c0.1,3.8-0.7,7.5-2.2,8.3
				S353.2,144.7,353,143.3z"/>
			<path class="st3" d="M335.4,198.2c0,0-6-18.2-0.7-25.8c5.3-7.5,11.4-13.6,11.4-13.6s-3.5-5.7-1.3-8.7c2.2-3.1,8.5-12.6,15-10.8
				c6.6,1.8,12.1,7.3,13.3,11.4c1.2,4.1-7.9,35.2-8.2,36.6C364.5,188.7,336.7,206.9,335.4,198.2z"/>
			<path class="st3" d="M391.8,163.8c0,0,0.4-8.4-0.6-9.9c-4.5-6.3-8.7-10-12.4-12.2c-3.6-2.2-6.9-0.4-9.3,0.4
				c-2.4,0.7-4,4.1-1.9,8.9c2.1,4.7,6.1,10.2,4.6,12.4c-1.6,2.2-7.2,16.1-7.8,21.6c-0.6,5.5,4.9,11.2,9.4,8
				C378.4,189.7,389.9,168,391.8,163.8z"/>
			<path class="st14" d="M399.1,220c0,0,0.2-10.1,1.6-13.5c1.3-3.4,4-16.6,4-22.1s1.2-22.5,2.5-25.3s-4.2-2.5-4.2-2.5l-3,0.4
				l-2.1,1.3l-0.4,2.9l-1.5,1.1c0,0,0.2,2,1,2.9s3.1,2.2-2.6,17.2c-2.6,6.8-2.4,7.4-3.8,12.8c-1.4,5.4-1.8,12.6-2.4,17.8
				S396.6,223.9,399.1,220z"/>
			<path class="st15" d="M384.7,224.1c0,0,1.8-12.6,3.3-13.1s4,1.1,7.7,3s4.7,3.7,3.9,9.5c-0.9,5.7-3,18.4-12.4,21.6
				C377.6,248.4,384.7,224.1,384.7,224.1z"/>
			<path class="st16" d="M335.8,200.8c0,0,6.7-17,22.5-15.6s17.8-2.7,18.9,8.5c1.4,12.8,10.1,11.2,10.2,21.9c0,10.7,2.7,9.7,3,15.8
				c0.3,7.8,2,12.2-6,15c-7.4,2.6-33.1,2.9-35.4,2.5s0.7-8.9,0-17.1C348.3,223.7,331.8,211,335.8,200.8z"/>
			<path class="st17" d="M365,263.9c0,0-6.7,0.5-10.6,8.4s-8.4,17.2-3.5,29.6s8.8,15.5,8.4,23s-0.7,7.5-4.5,8.4c-3.8,1,6,2,7.5-4.8
				c1.5-6.9,0.1-2,5.3,10.4c5.1,12.4,7.1,13.9,7.5,6.7c1.5-27.6,18.9-30.8,20.6-34.8s2.3,1,2.4,3.3c0.2,2.3,3.7-15.1,1.9-20.7
				c-1.7-5.6-1.5-9.9,0.5-15.6C402.5,272.2,380.6,240.7,365,263.9z"/>
			<path class="st18" d="M377.8,239.4c0,0-4.6-1.1-7.8-0.4c-5.6,1.2-6.5,3.4-7.6,6.6c-1,3.1-1,3.1-1,3.1s0.4-2.6,2.4,3
				s0.5,6.7-1.1,9.2s-2.6,5.7-2.5,8.3c0.2,2.6-2.2-1.6-1.9,3.7c0.3,5.2,1.8,4.7,2.6,6.2c0.8,1.5-0.4,13.6,12.1,11.9
				s13.7-7.7,14.5-11.7s0.6-6.9,0.6-6.9s2.3,1,1.3-3.4c-0.6-2.8-3.1-2.5-3.1-2.5s-1.6-7.6-3.3-9.1c-3.7-3.4-6.3-2.1-6.5-3.8
				s1.9-8.3,3.6-9.1C383.6,243.1,378.9,240.6,377.8,239.4z"/>
			<path class="st14" d="M341.4,216.4c0,0-1.1-7.3-1.5-10.5s-2.2-12.6-3.7-17.3s-7.9-15.4-8.6-18.4c-0.7-2.9,2-6,2.7-8.2
				c0.7-2.3-3.5-4.5-4.7-4.9c-1.1-0.3-4-0.8-4-0.8l-2.6-0.1c0,0-2-0.4-2.3,0.5c-0.3,0.8-2.9-0.4-3.2,0.4c-0.3,0.9-2.2,3.1-0.2,3.8
				s3.6,2.2,3.6,3.4c-0.1,1.2-0.8,3.7,1.4,6.1c2.2,2.4,2.6,0.4,2.7,10s1.7,12.5,5.2,17.6s5.8,21.4,7.6,27
				C335.5,230.6,342.3,220.5,341.4,216.4z"/>
			<path class="st15" d="M349,248.9c0,0,1.7-15.5,1.3-20.2c-0.3-4.6-6.7-15.4-6.7-15.4s-7.4,4-8.7,5.9c-1.3,2-2.8,4.8-2.9,5.6
				C331.9,225.8,335.7,242.2,349,248.9z"/>
			<path class="st19" d="M377.2,187.7c0,0,4.7-6.2,7.9-13.3c3.3-7.1,6.3-10.4,4.8-15.4s-4-6-7.8-5.9s-3.3,3.3-5.4,3.8
				c-2,0.5-2.2,2.8,1,3.2c3.2,0.5,5.4,1.7,2.4,3.6c-3,1.9-6.9,4.3-5,6.4c1.9,2.1,0.4,4.1-1.2,6.3
				C372.4,178.7,379.5,181.8,377.2,187.7z"/>
			<path class="st19" d="M363.8,140.3c0,0-0.3,0.6-2.4,2.2c-2.1,1.6-1.5,1.1-4.4,0.6c-2.9-0.4-0.7,2.6,0.6,4.4
				c1.4,1.8-2.3,0.5-4.6,0.3c-2.3-0.1-2.8,3.6,1.8,5.3c4.5,1.7,8,1.9,5.9,3.8c-2.1,1.9-5.2,5.2-8,9.4s-10.2,7-4.2,14.5
				c2.8,3.6,14.5-6.5,13.2-3.4s8.8-9.5,10.6-14.2c3.3-8.8-0.4-8.4-1.8-10.5c-1.3-2.1-3.5,0.1-3.3-3.6c0.1-2.3-0.6-5.5-0.6-5.5
				L363.8,140.3z"/>
		</g>
	</g>
	<g>
		<path class="st14" d="M543.9,313.1c0,0-2.5,8.1-15.8,5.1c-6.9-1.5-16.4-8.7-20.9-12.7c0,0,5.4,8.7,4.9,11.6s-6.4,0.8-9.2-3.6
			c-1.6-2.6-3.7-10.3-5-13.9c-1.3-3.5,3.2-4.3,4.9-3.2c1.7,1.1,1.8,1.4,4.1,1.6c2.8,0.2,15-1.2,19.3,4.5
			C530.4,308.3,552.5,306.6,543.9,313.1z"/>
		<path class="st14" d="M547.1,330.1c0,0-2.5,6.6-6.8,36.5c-1.4,9.3-2.9,13.5-5.1,13.6c-2.2,0.1-0.3,3.7,1.2,9.4
			c1.5,5.7,2.6,12.3,4,15s2.2,1.6,3.1,1.9c0.9,0.3-1.9-7.2-2.6-12.3c-0.7-5.1,1.2-9.9,1.8-12.6s14-36.7,15.3-43.5
			C559.1,331.1,550.3,327.1,547.1,330.1z"/>
		<path class="st13" d="M507,249.9c0,0,4.3-22.6,11.7-22.3s44.3,57.6,46.5,63.6c2.1,6.1-0.4,24.5-1.3,33.4
			c-0.9,8.9,0.2,12.5-0.2,14.9s-8.9,3.8-12.5,4.1c-3.6,0.2-8.6-4.7-8.3-10.6c0.3-6.3,4.6-16.2-0.9-28.8S509.1,259.4,507,249.9z"/>
		<path class="st17" d="M505.6,242.5c0,0,25.3,30.6,32.7,45.2c8.4,16.2,8.3,23.5,7.3,24.9s-8.9,3.8-14.4,2.4s-8.6-8.9-9.1-10.7
			c-0.5-1.8-42.7-30.9-44.9-52.1C475,231.1,491.9,236.9,505.6,242.5z"/>
		<path class="st14" d="M524.2,135.3c0,0,3.8-18.8,5.2-24.2c1.4-5.5,7.2-19.5,7.4-34.4s2.1-23.6-1.9-11.7c-4,11.8-6.3,21.5-8.1,32.1
			s-5.9,16.4-9.4,23.3C514,127.2,517.6,142.1,524.2,135.3z"/>
		<path class="st13" d="M519.2,133.6c2.6-2.2,9.8-3.9,13.7-0.6c5.3,4.5,4.6,7.7,2.6,11.9s4.2,4.8,9.1-0.5c0,0-10.9,16.2-14.5,4.1
			c-3.5-11.8-8.5-12.2-12.4-12.6C517.7,136,518.6,134,519.2,133.6z"/>
		<path class="st20" d="M515.7,127.3c0,0,11.6,7.7,12.6,10.2s-3.3,11.3-6.2,15.6c-2.9,4.2,1.1,0.8-2.1,19.7
			c-3.2,18.9-0.6,28.9-3.3,37.5s8.8,18.2,8.8,18.2c2.5,2.9-11.4-2.4-15.2,14.7c-2,9.1-3.7,1.7-18.8,5.2
			c-15.2,3.5-16.1,11.6-20.4,4.5c-4.4-7.1,2.8-16.5-2.3-23.1c-5.1-6.6,3.2-25.3,7.6-38.4c4.4-13.1-2.6-21.3-7.5-30.2
			C463.9,152.2,502.6,117.5,515.7,127.3z"/>
		<path class="st14" d="M461.6,135.3c0,0-14.3-14.9-18-18.6c-3.6-3.7-10.2-12.3-16.2-16.3c-6-4.1-9.4-9.7-8-12.4
			c1.4-2.7,2.2-6.2,2.8-7.3c0,0-1.5-0.4-2.6,1.6s-3.2,4.2-4.6,3.2s-7-6.1-9.7-8.1c-2.3-1.7-2.1-1.4-2-0.1c0.1,1.4,4.2,4.1,6,5.9
			c0.6,0.6,1.2,2.1-1.6,1.1c-2.8-1.1-5.2-2.5-8.8-4.9c-0.6-0.4-3.3,0.2-0.2,2c3.1,1.9,9.8,6.4,9.1,7.7c-0.7,1.3-2.8,1.4-6.8,1
			c-4.1-0.4-1.4,1.5,1.1,1.9c2.7,0.5,4.9,0.6,4.9,0.6s0.8,1.3-1.8,1.8c-1.9,0.4-2.7,2.1,1.1,1.2c2.6-0.6,6.5-2,10,1.2
			c3.5,3.1,10.9,12.1,14.8,15.6c3.9,3.6,3.4,2,6.1,5.4s15.8,24.3,15.8,24.3S462.5,138.4,461.6,135.3z"/>
		<path class="st13" d="M493.1,87.5c0,0,9.3-3.7,18,1.7c6.9,4.4,14.7,23.5,9.6,34.3s-7,17.5-2.7,18.7s11.2,6.4,6,11.6
			c-5.1,5.2-7,7.2-9.3,7.3c-2.2,0.1,8.8-4.9,1.8-9.8c-7.1-4.8-10.9,2.8-15.3-2.4c-4.3-5.1-5.9,13-9,14.5c-3.2,1.5-10.1,4.8-15.7-1.1
			c-0.8-0.9,8,4.3,5.9-5.4s0.7-3.3-3.3-1.5c-3.9,1.8-5.7,15.8-18.4,11.2c-6.3-2.3-7.1-4.8-7.1-4.8s7.8,4.4,7-2.7
			c-0.7-7-2.6-8.5-2.6-8.5s-0.2,7.3-6.8,7.9c-4.1,0.4-8.1-2.8-7.1-6.8c0,0-0.6,1.8,2.8,3.6c1,0.5,5.3,1.8,3.3-3
			c-2-4.7-7.5-10,2.4-17c9.9-6.9,15.2-4.3,12.6-15.6C462.7,108.7,459.8,84.4,493.1,87.5z"/>
		<path class="st14" d="M496.8,99.6c0,0,7.2,10,14.6,16.1c7.3,6.2,6.6,17.7,0.8,23.3c-5.9,5.6-5.6,9.2-2,9.8
			c3.5,0.6,0.4,16.6-5.1,19.2c-5.5,2.5-19.8-1.1-17.2-12.4c1.4-6-0.7-7.8-0.7-7.8c3.6,2.1,6,7.4,4.6,9.5c-1.5,2.1,10.7-4.9-0.8-13.6
			c-11.5-8.7-13.1-8.6-13.5-16.9s7.5-9.8,12.8-14.4C495.5,107.9,497.4,104.4,496.8,99.6z"/>
		<path class="st14" d="M535.8,66.5c-4.1-3.4-1.9-7.5-3.3-9.8c-1.8-3.1-6.1-3.9-6.6-4.2c-1.3-0.6,1.8-2.5,3.5-1.3
			c1.7,1.1,3.5,1,3.7,0.3c0.7-2.9,0.1-13,0.7-15.1c0.4-1.1,1.7-0.9,1.8,4.1s-0.3,9.1,0.8,9.1c2.2,0.1,5.5-10.6,6.9-12.4
			c0.5-0.7,2.9-1.6,1.2,3c-2.1,5.5-4.1,9.6-3.7,10.9c0.4,1.3,3.7,1,6.8-0.7c4.2-2.3,5-1.8,3.8-0.3c-0.9,1.1-7.4,4.3-6.6,5.1
			c1.5,1.4,4.6,0.5,6.5,0.3c1.9-0.3,2,1.1-1.9,2s-2.8,0-5.2,2.1C541.9,61.7,540,70,535.8,66.5z"/>
		<path class="st5" d="M501.2,130c2.5,0,5,0.1,7.5,0.2c-0.4,4.7-4.6,8.3-9.6,8.3c-4.9,0-9-3.6-9.5-8.1
			C493.3,130.1,497.2,130,501.2,130z"/>
	</g>
	<path class="st21" d="M551.2,277.7c-16.2,0-29.3,13.1-29.3,29.3c0,16.2,13.1,29.3,29.3,29.3s29.3-13.1,29.3-29.3
		C580.5,290.8,567.4,277.7,551.2,277.7z M553.1,314l-8.1,7v-14v-14l8.1,7l8.1,7L553.1,314z"/>
	<g>
		<path class="st22" d="M683.8,347.6c0,0-2.1,8.9-13.1,8c-11-0.8-10.2-8.5-13.1-8C654.6,348,682.1,343.4,683.8,347.6z"/>
		<path class="st22" d="M630.3,367.5c0,0-21.4,0.6-21.7,9c-0.3,8.5,26.5,16.9,32.1,1.1C645.1,365.3,633.6,368.3,630.3,367.5z"/>
		<path class="st23" d="M617.7,369.2c0,0-5.1,3.9-4.8,13.8s9.3,64.6,11.8,73.1s0,17.2,1.7,23.1s-4,5.6-3.7,7.9s6.5,4.8,9.3,2.5
			s0.3-12.7,2.8-16.9c2.5-4.2,5.9-6.8,3.9-12.4s-9-14.9-7.9-27.4c1.1-12.4,2-25.4,1.7-29.1s-2.8-18.1,0.3-22.8
			c3.1-4.8,5.1-11.6,2-13.3C631.8,366.1,617.7,369.2,617.7,369.2z"/>
		<path class="st13" d="M638.3,326c0,0-20.6,36.4-25.7,43.2c-5.1,6.8-5.2,5.8,5.6,2.8c10.2-2.8,22.3,6.8,20,9.9s5.4-6.8,6.2-11.8
			c3.1-18.8,5.9-47.7,10.4-53.6C659.4,310.5,640,318.7,638.3,326z"/>
		<path class="st22" d="M650.6,320.5c-2.2-2.2-4.1-3.5-5.7-4c-2.3,1.3-4.6,3-6.3,4.8c-0.1,0.7-0.2,1.5-0.2,2.3
			c0,6.5-0.6,7.1-0.8,16.6c-0.3,9.6,2.5,4.8-0.3,8.7c-2.8,3.9,0,9,1.4,14.9c0.7,3,1.2,7,1.9,10c0.8-1.6,1.5-3.3,1.7-4.6
			C645,353.6,647.3,331.1,650.6,320.5z"/>
		<path class="st23" d="M664.6,329.4c0,0-18.8,7.3-22.8,21.2c-2.8,9.7,2.2,13.1,23.4,31.7c14.9,13.1,18.3,14.2,21.4,20.2
			c3.1,5.9,9.3,13.8,10.4,16.9c1.1,3.1,4.2-2.8,2.5-7.6c-1.7-4.8-7.1-10.4-6.5-14.1s0.2-6.4-3.9-8.5c-9.6-4.8-12.8-16.5-15.1-22.1
			s-7.5-10.9-8.9-12.3s16.1-3.7,18.3-13C685.8,332.5,664.6,329.4,664.6,329.4z"/>
		<path class="st13" d="M640.2,352.7c0,0,2.5-16.2,15.2-13.1c11.9,2.9,23.3,6.9,23.3,14.4c0,1.7,7.6-6.3,11.3-16.1
			c2.6-6.8,2.3-14.1-2.5-18.9s-4.2-7.6-4.2-11.3c0-3.7-34.4,7.6-38.6,9.6c-4.2,2,0.4,2.5-1.7,9.6
			C641.9,330.3,640.2,330.7,640.2,352.7z"/>
		<path class="st22" d="M691.6,329.8c0-4.1-1.2-7.9-4.1-10.8c-4.8-4.8-4.2-7.6-4.2-11.3c0-3.7-34.4,7.6-38.6,9.6
			c-0.3,0.1-7.5,0.6-7.8,0.7c-0.9,3.4,2.5,11.4,5,8.5c0.3,0.1,0.7,0.3,1.1,0.4c1,0.3,1.8,0.7,2.4,1.1c2.9-2.7,8.3-6.8,18.5-4
			C674.6,326.8,684.2,354,691.6,329.8z"/>
		<path class="st23" d="M682.1,143.3c0,0,4.5-0.6,5.9-3.1s4.5-9,5.9-10.2c1.4-1.1-1.1-2.5-2.5-0.3c-1.4,2.3-6.5,3.9-7.6,0.8
			c-1.1-3.1-2.3-14.1-4.8-15.2s2.3,10.7,1.7,13.8s-1.7,1.4-4.5-0.8c-2.8-2.3-9.9-10.2-9.9-10.2s-2.3,0.8-0.3,3.4
			c2,2.5,0,1.1-0.8,1.4s8.7,7.3,9.9,10.4c1.1,3.1,1.4,3.4,0,3.7s-5.6-0.3-7,0s-1.7,0.8-1.4,1.7c0.3,0.8,11.3,0.3,11.8,1.4
			C679,141.3,682.1,143.3,682.1,143.3z"/>
		<path class="st23" d="M583.4,315.3c0,0-3.1,0.8-3.1-5.6c0-6.5,0.6-13.8,0.6-13.8s-2.3,0.3-2,3.4s-0.3,8.5-0.8,9.9
			c-0.6,1.4-2.3-9-1.7-12.4s-1.7,0-1.7,2.3s-0.3,5.6-0.6,8.7s-3.9-2.3-4.2-7.9s-0.8-4.5-0.8-4.5s-3.7,2.5-0.3,8.7s3.1,12.7,4.2,14.7
			c1.1,2-2,3.4-3.1,3.4s-5.4,5.1-2,4.8c3.4-0.3,9.9-5.6,13-5.9C584,320.7,583.4,315.3,583.4,315.3z"/>
		<path class="st23" d="M644.5,199.1c10.8-17.5,13.8-17,17.1-25.1c2.3-5.6,3.3-14.4,10-22.3c6.8-8,8.9-11.4,10.3-16.6
			c0.2-0.9,3.9,0.9,2.4,6.9c-2.5,9.6-11.1,26-14.2,30.9c-5.1,7.9-14.7,27.6-15.2,34.4C654.2,214.1,642.8,208.7,644.5,199.1z"/>
		<path class="st23" d="M614.9,278.2c0,0-8,7.5-14.2,18.8s-11.3,18.6-13,22s-13.5,4.5-8.5-2.3c5.1-6.8,11.3-19.7,15.2-23.7
			c3.9-3.9,6.2-18.1,9-22.6C606.2,266,614.9,278.2,614.9,278.2z"/>
		<path class="st19" d="M621.5,238.9c0,0-11.8,12.4-14.7,17.5c-2.8,5.1-7.3,18.6-7.3,18.6s11,13.2,15.8,15.2c0.5,0.2,3.1-0.1,3.7-4
			c0,0,7.1,2.3,11,8.5s2.3,30.5,5.1,35s1.1-10.7,19.2-11.8c18.1-1.1,34.4-1.7,35-9.6s-8.5-13-10.7-21.4c-2.3-8.5-21.4-44-25.4-50.8
			c-3.9-6.8,4-19.2,5.6-23.7c1.7-4.5-1.7-3.9-5.1-11.3c-3.4-7.3-6.8-10.2-8.5-10.2C643.5,190.9,629.4,234.4,621.5,238.9z"/>
		<path class="st24" d="M631.1,201.7c0,0,1.1-13.5-5.1-19.2c-6.2-5.6-14.7-7.9-11.3-3.4s6.8,7.3-2.8,3.4c-9.6-3.9-21.4-4.5-19.7,1.7
			s-5.6,4.5-11.3,10.7c-5.6,6.2-7.9,7.9-3.9,12.4c3.9,4.5-1.7,4.5-6.2,4.5s3.9,5.1,10.2,5.1c6.2,0,0.6,7.3-2.3,9
			c-2.8,1.7,0,7.9,19.7,7.3C618.1,232.7,631.1,211.8,631.1,201.7z"/>
		<path class="st23" d="M614.9,251.7c0.6-2.9,4.9-5.5,4.9-10.6s-5.8-3-10.7-1.7c-5.4,1.5-10.7,0.6-12.4-0.6c-1.7-1.1-2.9,2-7.3,0.6
			c-1.7-0.6-3.9-5.6-1.7-7.3c2.3-1.7-3.4-22.6,0-29.9c3.4-7.3,2.3,1.7,12.4-1.7c10.2-3.4,8.5-8.5,18.1-9c9.6-0.6,7.9,4.5,10.2,4.5
			s1.7-2.8,2.8-4.5s3.9-0.6,4.5,2.8c0.6,3.4-1.7,9.6-1.7,9.6s0.6,7.9-1.1,13.5c-1.7,5.6-5.6,13.5-1.7,10.7c3.9-2.8,5.6-4.2,6.5-4.2
			c3.7,0,12.7,17.1,3.7,23.9C632.2,254.7,613.5,258.7,614.9,251.7z"/>
	</g>
	<rect x="620.5" y="35.7" class="st25" width="12.2" height="12.2"/>
	<rect x="409.3" y="33.3" class="st4" width="6.8" height="6.8"/>
	<rect x="730.9" y="93" class="st2" width="6.8" height="6.8"/>
	<g>
		<path class="st2" d="M320.5,120.8c-3.4,0-6.1-2.8-6.1-6.1c0-3.4,2.8-6.1,6.1-6.1c3.4,0,6.1,2.8,6.1,6.1
			C326.6,118.1,323.9,120.8,320.5,120.8z M320.5,110.2c-2.5,0-4.5,2-4.5,4.5s2,4.5,4.5,4.5s4.5-2,4.5-4.5S323,110.2,320.5,110.2z"/>
	</g>
	<g>
		<path class="st4" d="M608.4,120.5c-3.4,0-6.1-2.8-6.1-6.1c0-3.4,2.8-6.1,6.1-6.1c3.4,0,6.1,2.8,6.1,6.1S611.8,120.5,608.4,120.5z
			 M608.4,109.8c-2.5,0-4.5,2-4.5,4.5s2,4.5,4.5,4.5s4.5-2,4.5-4.5C612.9,111.9,610.8,109.8,608.4,109.8z"/>
	</g>
	<g>
		<path class="st2" d="M720.2,45.1c-3.4,0-6.1-2.8-6.1-6.1c0-3.4,2.8-6.1,6.1-6.1c3.4,0,6.1,2.8,6.1,6.1
			C726.3,42.4,723.6,45.1,720.2,45.1z M720.2,34.5c-2.5,0-4.5,2-4.5,4.5s2,4.5,4.5,4.5s4.5-2,4.5-4.5S722.7,34.5,720.2,34.5z"/>
	</g>
	<polygon class="st4" points="285.9,224.6 271.4,233 256.9,241.4 256.9,224.6 256.9,207.9 271.4,216.3 	"/>
	<polygon class="st2" points="467.2,53.3 459.9,57.6 452.5,61.8 452.5,53.3 452.5,44.9 459.9,49.1 	"/>
	<polygon class="st25" points="855.5,76.9 832.2,90.4 808.8,103.9 808.8,76.9 808.8,50 832.2,63.4 	"/>
	<g>
		<rect x="774.1" y="66.9" class="st2" width="26.5" height="1.7"/>
	</g>
	<g>
		<rect x="797.3" y="76.8" class="st2" width="26.5" height="1.7"/>
	</g>
	<g>
		<path class="st4" d="M499,345.9c-2.6,0-3.9-2.6-5-4.9c-1.1-2.4-2-3.9-3.5-3.9s-2.3,1.6-3.5,3.9c-1.1,2.3-2.3,4.9-5,4.9
			c-2.6,0-3.9-2.6-5-4.9c-1.1-2.4-2-3.9-3.5-3.9s-2.3,1.6-3.5,3.9c-1.1,2.3-2.3,4.9-5,4.9c-2.6,0-3.9-2.6-5-4.9
			c-1.1-2.4-2-3.9-3.5-3.9s-2.3,1.6-3.5,3.9c-1.1,2.3-2.3,4.9-5,4.9c-2.6,0-3.9-2.6-5-4.9c-1.1-2.4-2-3.9-3.5-3.9s-2.3,1.6-3.5,3.9
			c-1.1,2.3-2.3,4.9-5,4.9c-2.6,0-3.9-2.6-5-4.9c-1.1-2.4-2-3.9-3.5-3.9v-1.7c2.6,0,3.9,2.6,5,4.9c1.1,2.4,2,3.9,3.5,3.9
			s2.3-1.6,3.5-3.9c1.1-2.3,2.3-4.9,5-4.9c2.6,0,3.9,2.6,5,4.9c1.1,2.4,2,3.9,3.5,3.9s2.3-1.6,3.5-3.9c1.1-2.3,2.3-4.9,5-4.9
			c2.6,0,3.9,2.6,5,4.9c1.1,2.4,2,3.9,3.5,3.9s2.3-1.6,3.5-3.9c1.1-2.3,2.3-4.9,5-4.9c2.6,0,3.9,2.6,5,4.9c1.1,2.4,2,3.9,3.5,3.9
			s2.3-1.6,3.5-3.9c1.1-2.3,2.3-4.9,5-4.9c2.6,0,3.9,2.6,5,4.9c1.1,2.4,2,3.9,3.5,3.9V345.9z"/>
	</g>
	<g>
		<path class="st4" d="M897.6,136.7c-10.8,0-16.5-5.8-21-10.5c-4.2-4.3-7.2-7.4-13.7-7.4s-9.5,3.1-13.7,7.4
			c-4.5,4.7-10.2,10.5-21,10.5s-16.5-5.8-21-10.5c-4.2-4.3-7.2-7.4-13.7-7.4s-9.5,3.1-13.7,7.4c-4.5,4.7-10.2,10.5-21,10.5
			s-16.5-5.8-21-10.5c-4.2-4.3-7.2-7.4-13.7-7.4v-10.2c10.8,0,16.5,5.8,21,10.5c4.2,4.3,7.2,7.4,13.7,7.4s9.5-3.1,13.7-7.4
			c4.5-4.7,10.2-10.5,21-10.5s16.5,5.8,21,10.5c4.2,4.3,7.2,7.4,13.7,7.4s9.5-3.1,13.7-7.4c4.5-4.7,10.2-10.5,21-10.5
			s16.5,5.8,21,10.5c4.2,4.3,7.2,7.4,13.7,7.4V136.7z"/>
	</g>
</g>
</svg>
