<svg xmlns="http://www.w3.org/2000/svg" viewBox="0 0 895.65 679.38">
  <title>av</title>
  <g style="isolation: isolate">
    <g id="Layer_1" data-name="Layer 1">
      <g>
        <path d="M900,667.53,570.1,739.12c-116,25.15-237.8,13.91-346.1-32-24.2-10.23-281-105-164.4-204,124.3-105.49,71.4-159.38-3-227.83C-25.3,200-46.9,19.49,266.1,88.13c159.5,35,186.6,113.22,463.2,113.22,79.2,0,121.5,79.42,170.7,109.18Z" transform="translate(-4.35 -72.85)" fill="#fff176"/>
        <g>
          <g>
            <path d="M108.82,553.79h-52a1.55,1.55,0,1,0,0,3.09h15.4A10.62,10.62,0,0,1,82.8,567.5V606h3.3V567.5a10.62,10.62,0,0,1,10.62-10.62h12.1a1.55,1.55,0,1,0,0-3.09Z" transform="translate(-4.35 -72.85)" fill="#002ca7"/>
            <path d="M77.26,531.49h5.68a4.58,4.58,0,0,1,4.58,4.58v2a4.57,4.57,0,0,1-4.57,4.57H77.26a4.58,4.58,0,0,1-4.58-4.58v-2A4.58,4.58,0,0,1,77.26,531.49Z" fill="#002ca7"/>
            <path d="M105.35,657.32H87.85V613.78h-6.8v43.54H63.55a1.28,1.28,0,0,0,0,2.56h17.5v23.67h6.8V659.88h17.5a1.28,1.28,0,1,0,0-2.56Z" transform="translate(-4.35 -72.85)" fill="#002ca7"/>
            <path d="M103.21,687.09l-15.15-5.68a1.31,1.31,0,0,0-.43-.08H81.27a1.31,1.31,0,0,0-.43.08l-15.15,5.68a1.23,1.23,0,0,0,.43,2.38h36.66A1.23,1.23,0,0,0,103.21,687.09Z" transform="translate(-4.35 -72.85)" fill="#002ca7"/>
            <path d="M118.17,541.55H48a6.12,6.12,0,1,0,0,12.24h70.13a6.12,6.12,0,0,0,0-12.24Z" transform="translate(-4.35 -72.85)" fill="#fe5d89"/>
          </g>
          <path d="M173,515.59C143,505.32,69.6,493.62,57.13,496.28c-13.46,2.86-11.78,35.06,12.28,40.31,27.38,6,67.67,10.68,100.71,2.68C182.49,536.28,185.72,520,173,515.59Z" transform="translate(-4.35 -72.85)" fill="#002ca7"/>
          <path d="M163.18,641.92a28.8,28.8,0,0,1-.09-4.6l-8-1s-.9,1.77-1.63,3.54c-.86,2.05-4.59,3.64-3.39,6.59.47,1.14,4.41,2,6.55,3,1.67.73,6.87,2.85,9.63,4,3,1.23,7.48,1.84,8.13.25C175.81,650.36,163.68,645,163.18,641.92Z" transform="translate(-4.35 -72.85)"/>
          <path d="M155.69,634.63s-1.49,3.5-2.19,5.28c0,0,6.92,3.68,8.36,3.42,1.76-.32,1.32-1.41,1.32-1.41a14.82,14.82,0,0,1,.26-4.8Z" transform="translate(-4.35 -72.85)" fill="#fe5d89"/>
          <path d="M159.1,528.22C132,511.92,62.6,485.14,49.85,485.13c-13.76,0-22.58,43.77-.15,53.93,25.53,11.56,67.68,12.64,101.66,11.72C164.09,550.44,170.65,535.15,159.1,528.22Z" transform="translate(-4.35 -72.85)" fill="#164bcd"/>
          <path d="M137.1,549.63c7.53,48.26,15.58,90.63,15.58,90.63,3.76.6,8.34.56,11-1.21,0,0,1-41.32,2.25-96.82C166.45,519.59,132.13,517.81,137.1,549.63Z" transform="translate(-4.35 -72.85)" fill="#164bcd"/>
          <path d="M170.08,487.36a15.62,15.62,0,0,1-4.61.51c1.7.35,1.32,1.35,3,2,.73,0,3.57-1.43,3.38-2.14C171.68,486.58,170.88,487.1,170.08,487.36Z" transform="translate(-4.35 -72.85)" fill="#fe5d89"/>
          <path d="M176.06,492.05c-.3-.15-4.66-2.26-6.7-3a39.47,39.47,0,0,0-5.16-1.5,38.52,38.52,0,0,0-3.76,6.8c2.85,1.08,12,3.7,12.17,3.81,3.38,1.73,4.72,1,4.44,0-.07-.25,2.55.15,2.5-.91a1.21,1.21,0,0,0,1-.93,4.08,4.08,0,0,0-.78-2.32A26.78,26.78,0,0,0,176.06,492.05Z" transform="translate(-4.35 -72.85)" fill="#fe5d89"/>
          <path d="M105.33,412.47c-.74-1.34-16.43,6.76-18.48,9.08-4.74,5.36,16,37.48,25.25,47.58,3.53,3.84,16.35,4.37,9.5-10.51C116,446.5,109.44,419.9,105.33,412.47Z" transform="translate(-4.35 -72.85)" fill="#fe5d89"/>
          <path d="M117.91,459.68c-2.86-.4-7,.83-7.28,6.65-.26,6.36,35.87,23.32,51,28.44a30.51,30.51,0,0,1,3.16-7.08c-9.23-2.92-37-23.41-45.17-27.52A5.68,5.68,0,0,0,117.91,459.68Z" transform="translate(-4.35 -72.85)" fill="#fe5d89"/>
          <path d="M123.33,460.29c-.31-1-.68-1.92-1.12-2.93-2.59-5.84-5.36-15.13-8-24.12S109,415.86,107,412.05a2.17,2.17,0,0,0-1.62-1.11c-3.1-.49-17.41,7-19.55,9.31-6.38,7,16.58,41,23.82,49.11,6.85,7.93,35.84,21.73,48.72,26.3l4.39-10.38c-5.19-1.73-17.47-10.14-27.33-16.9C130.86,465.29,126.58,462.35,123.33,460.29Z" transform="translate(-4.35 -72.85)" fill="#ff4081"/>
          <path d="M35.9,492.71s-2.18,18.93-1.6,27a231.61,231.61,0,0,0,63.62-9.47L96,504.67l6.6,3.82c7.21-3,8.08-7.92,8.08-7.92l-4.42-5Z" transform="translate(-4.35 -72.85)" fill="#fe5d89"/>
          <path d="M88.87,387.13c-3,.24-11.12-6.63-12.07-7.44.31,4.05-1.6,15.11-3.12,17.11,2.81,7.59,14.85,8.38,16,4.09C88.06,396.09,88.79,388,88.87,387.13Z" transform="translate(-4.35 -72.85)" fill="#ffc400"/>
          <path d="M108.64,424.29c1.41-5.91.35-13.39-6.8-18.22-1.84-1.25-12.18-5.18-12.18-5.18s-2.71,3-5.63,2.58c-4.26-.61-10.35-6.67-10.35-6.67s-9.31,1.89-12.43,2.41c-9.39,1.59-14.24,9.66-16.92,17.27-7,19.92-14.72,91.84-14.72,91.84,37.44,8.71,79.57-9.09,79.57-9.09S103.72,444.91,108.64,424.29Z" transform="translate(-4.35 -72.85)" fill="#ff4081"/>
          <path d="M101.81,395.38c.78-6.19-.54-12.73-2.14-17.66-2.54-4-11.27-2.08-12.47.81-1.62,3.87,2,16.39,1,21.4s-1.17,5.28,1.56,16.85c3.92,16.62-5.1,34.16-1.63,36.15,3.16,1.8,14.08-6.9,15.78-25.19.3-3.13.25-9.75-2.2-14.63C100.21,410.18,100.6,405,101.81,395.38Z" transform="translate(-4.35 -72.85)"/>
          <path d="M89.62,365.15c-5.88,0-10.7,5.74-10.7,11.57v6c0,4.4,6.77,11.32,10.6,10.51,9.06-1.92,11-18.51,10.69-20.39C99.35,367.66,95.1,365.15,89.62,365.15Z" transform="translate(-4.35 -72.85)" fill="#ffc400"/>
          <path d="M200.74,626.87a28.36,28.36,0,0,1-1.46-4.36L191.4,624s-.33,2-.5,3.86c-.2,2.21-3.29,4.85-1.25,7.3.78,1,4.81.62,7.13.87,1.81.19,7.41.66,10.38.93,3.21.28,7.69-.48,7.84-2.19C215.32,631.14,202.15,629.67,200.74,626.87Z" transform="translate(-4.35 -72.85)"/>
          <path d="M199.55,622.21l-8.14-.06s-.37,3.79-.51,5.7c0,0,7.71,1.43,9,.76,1.58-.83.83-1.74.83-1.74A14.82,14.82,0,0,1,199.55,622.21Z" transform="translate(-4.35 -72.85)" fill="#fe5d89"/>
          <path d="M155.93,541.1C173.37,586.72,189.47,625,189.47,625c3.76,1.33,8.89.3,11.11-2,0,0-7.68-40.61-18-95.16C178.35,505.59,144.42,511,155.93,541.1Z" transform="translate(-4.35 -72.85)" fill="#002ca7"/>
          <g>
            <path d="M79,512.42h0a2.17,2.17,0,0,0,2.17,2.17h51.07a2.17,2.17,0,0,0,2.17-2.17H79Z" transform="translate(-4.35 -72.85)"/>
            <path d="M140,467.39l-10.64,44.46c-.18.71,0,2.75,2.63,2.75l43.26-.54V464.47H143.88A4,4,0,0,0,140,467.39Z" transform="translate(-4.35 -72.85)"/>
            <path d="M198.75,464.46H143.44a1.28,1.28,0,0,0-1.23.93L130.82,513a1.28,1.28,0,0,0,1.23,1.61h51.5a6.29,6.29,0,0,0,6.06-4.6L200,466.07A1.28,1.28,0,0,0,198.75,464.46Z" transform="translate(-4.35 -72.85)" fill="#d9e2ff"/>
          </g>
          <path d="M75.41,444.38c-5.7-10.21-13.2-18.8-17.27-29.2a10.78,10.78,0,0,1-1.74,3.49c-14,13.77,5.76,48.77,14.71,57.28,6.24,5.92,19.76,10.54,33.61,13.18C91.88,479.34,83.34,458.58,75.41,444.38Z" transform="translate(-4.35 -72.85)" fill="#880e4f"/>
          <g>
            <path d="M132.85,490.43a15,15,0,0,1-4.63.29c1.67.44,1.26,1.42,2.94,2.12.72.08,3.64-1.26,3.48-2C134.48,489.74,133.66,490.21,132.85,490.43Z" transform="translate(-4.35 -72.85)" fill="#ffc400"/>
            <path d="M138.59,495.41c-.29-.17-4.54-2.48-6.54-3.3a38.28,38.28,0,0,0-5.09-1.74,38.47,38.47,0,0,0-4.08,6.6c2.79,1.22,11.78,4.28,12,4.39,3.28,1.9,4.65,1.27,4.42.21-.05-.25,2.54.27,2.55-.79a1.23,1.23,0,0,0,1.06-.88,4.17,4.17,0,0,0-.68-2.36A26.83,26.83,0,0,0,138.59,495.41Z" transform="translate(-4.35 -72.85)" fill="#ffc400"/>
            <path d="M71.78,412.52c-.68-1.38-16.74,6-18.9,8.18-5,5.12,14.14,38.2,22.93,48.74,3.34,4,16.13,5.14,10-10C80.81,447,75.52,420.14,71.78,412.52Z" transform="translate(-4.35 -72.85)" fill="#fe5d89"/>
            <path d="M82.07,460.28c-2.83-.54-7.07.48-7.59,6.29-.57,6.34,34.7,25,49.53,30.85a30.76,30.76,0,0,1,3.49-6.91c-9.08-3.36-35.79-25.16-43.79-29.66A5.25,5.25,0,0,0,82.07,460.28Z" transform="translate(-4.35 -72.85)" fill="#fe5d89"/>
            <path d="M86.57,461a29.37,29.37,0,0,0-1-3c-2.31-6-11.21-42.09-13.06-46A2.15,2.15,0,0,0,71,410.82c-3.08-.64-17.73,6.12-20,8.36-6.71,6.69,14.59,41.71,21.43,50.19,6.46,8.26,34.75,23.44,47.39,28.62l4.89-10.16c-5.1-2-17-11-26.49-18.19C93.85,466.33,89.72,463.19,86.57,461Z" transform="translate(-4.35 -72.85)" fill="#ff4081"/>
          </g>
          <path d="M98.19,361a8.69,8.69,0,0,0-5.59-1.16s-.07-1-5.27-3.39c-4.15-1.9-11.84-2-17.67,4.19S60,376.37,63,386.56a23.37,23.37,0,0,1-3.47,21c-4.11,5.39-4.6,12.91-4.34,16.49,1.52,20.89,18,31.46,23,29.6,5.52-2-7.43-22.53-.29-41.18,5-13,3-15.69,1.83-21.29-1.58-7.34-.93-15.26,2.61-20.28,3-4.18,10.21-5.64,10.21-5.64s9.59,2.76,5.74,18.06C103.49,379,104.42,364.68,98.19,361Z" transform="translate(-4.35 -72.85)"/>
        </g>
        <g>
          <g>
            <path d="M337.48,602.89c-5.23-2.07-9.88,2.52-12.5,7-2,3.46-3.68,7.24-7.19,9.53a7.93,7.93,0,0,1-4.51,1.37c-5.88-.15-7.49-6.74-5.59-11.26,1.6-3.8,4.91-6.56,7.83-9.48a63.93,63.93,0,0,0,16.29-27.65c1.86-6.56,2.53-14.12-2.51-19.42a9.43,9.43,0,0,0-10.2-2.5c-4.35,1.74-5.17,5.93-5.86,9.79-.57,3.22-1.29,6.68-4.07,8.68a4.85,4.85,0,0,1-5.94,0c-1.69-1.44-1.49-3.59-1.38-5.55a47.49,47.49,0,0,0-11.79-34c-4.47-5.05-12.14-9.31-17.64-4.74a9.41,9.41,0,0,0-2.92,4.54c-1.28,4.21-.32,8.42.64,12.53l5.25,22.48a2.42,2.42,0,0,1-3.74,2.51L256,556a9.8,9.8,0,0,0-4.9-1.79c-5.79-.36-7.43,4.62-7.5,8.88-.15,9.37,4.86,18.24,11.54,24.89s14.94,11.47,23,16.39c2.51,1.53,5.13,3.2,6,6.15a4.5,4.5,0,0,1-1.17,4.73c-2.24,1.94-5.38.6-7.7-.93-7.2-4.75-13.19-11.44-22-13.44a15.7,15.7,0,0,0-9.37.61c-9.2,3.73-8.72,13.54-4.36,19.84,4.6,6.64,11.45,11,18,15.59,13.06,9.23,31.23,25.88,48.77,20.6,10.27-3.08,19.29-10.87,25.81-19.1a51.25,51.25,0,0,0,9.95-20.67c.84-3.81,1.23-7.88-.79-11.46A7.74,7.74,0,0,0,337.48,602.89Z" transform="translate(-4.35 -72.85)" fill="#164bcd"/>
            <g>
              <path d="M288.11,555.38a.45.45,0,0,0-.36.53,469,469,0,0,1,7,124.49.45.45,0,0,0,.42.49h0a.47.47,0,0,0,.46-.43,469.55,469.55,0,0,0-7-124.73A.46.46,0,0,0,288.11,555.38Z" transform="translate(-4.35 -72.85)" fill="#4f75e2"/>
              <path d="M322.77,563.43a.46.46,0,0,0-.59.27c-2,5.2-4.25,11.09-7.58,16.17-2.54,3.87-6.9,9-13.25,11.39-7.88,3-18.05,1.11-26.54-4.9-7.76-5.51-13.41-13.33-18.87-20.89a.45.45,0,0,0-.64-.11.46.46,0,0,0-.1.64c5.5,7.62,11.19,15.51,19.09,21.1a33.54,33.54,0,0,0,19.08,6.48,23.36,23.36,0,0,0,8.31-1.46c6.57-2.49,11.07-7.77,13.68-11.75,3.39-5.16,5.66-11.1,7.67-16.34A.47.47,0,0,0,322.77,563.43Z" transform="translate(-4.35 -72.85)" fill="#4f75e2"/>
              <path d="M329.92,619.91a.47.47,0,0,0-.63.18C325,627.75,318,638.35,307.07,642c-9.34,3.12-20.77.71-30.58-6.45l-1.87-1.36c-8.32-6.06-16.18-11.77-24.41-20.22a.46.46,0,0,0-.64,0,.45.45,0,0,0,0,.65c8.28,8.5,16.17,14.24,24.52,20.32l1.87,1.36c7.15,5.21,15.15,8,22.64,8a27.58,27.58,0,0,0,8.77-1.39c11.24-3.75,18.36-14.54,22.73-22.33A.46.46,0,0,0,329.92,619.91Z" transform="translate(-4.35 -72.85)" fill="#4f75e2"/>
            </g>
          </g>
          <g>
            <path d="M347.72,608.43a5.89,5.89,0,0,0-3.2-.07L333.18,611a1.49,1.49,0,0,1-1.56-2.29L339.67,597c1.47-2.15,3-4.35,3.19-7.06a5.87,5.87,0,0,0-.64-3.27c-2.1-3.85-7.43-3.12-11.11-1.22a29.54,29.54,0,0,0-14.38,16.92c-.37,1.15-.74,2.43-2,2.88a2.93,2.93,0,0,1-3.37-1.36c-1.14-1.77-.77-3.92-.37-5.9.48-2.37.24-5.83-1.12-6.94s-4.88-1.42-6.38-.84c-2.81,1.1-5.38,6.42-5.8,10.61a39.66,39.66,0,0,0,3,19.54c1,2.33,2.27,4.66,2.32,7.2.07,3-2.33,6.45-5.71,5.22a4.74,4.74,0,0,1-2.26-1.79c-1.48-2.1-1.58-4.65-1.95-7.09-.48-3.17-2.09-6.85-5.54-6.82a4.65,4.65,0,0,0-2.93,1.11c-2,1.61-2.65,4-3,6.42a32.09,32.09,0,0,0,1,14.11c1.86,6.19,5.24,12.69,10.4,16.76,8.79,6.95,22.66,3.57,32.18,1.19,4.74-1.19,9.85-4.29,14-7.08,3.9-2.64,6.39-8.18,2-12.38a9.55,9.55,0,0,0-5.2-2.45c-5.44-.81-10.36,1.7-15.53,2.81-1.66.37-3.76.43-4.59-1.18a2.8,2.8,0,0,1,.39-3c1.18-1.5,3.05-1.87,4.82-2.19,5.7-1,11.49-2,16.79-4.28S348,620.63,350,615.21C350.91,612.74,351.09,609.51,347.72,608.43Z" transform="translate(-4.35 -72.85)" fill="#002ca7"/>
            <g>
              <path d="M326.54,600.54a.57.57,0,0,0-.8.19A292.71,292.71,0,0,0,293.62,671a.59.59,0,0,0,.38.73l.1,0a.58.58,0,0,0,.63-.41,291.79,291.79,0,0,1,32-69.95A.58.58,0,0,0,326.54,600.54Z" transform="translate(-4.35 -72.85)" fill="#4f75e2"/>
              <path d="M342.25,613.54c-4.79,3.12-9.74,6.34-15.36,7.75-6.09,1.54-12.19.37-15.94-3a17.5,17.5,0,0,1-4.88-9.36,52.35,52.35,0,0,1-.66-10.93.57.57,0,0,0-.58-.58.57.57,0,0,0-.58.57,52.33,52.33,0,0,0,.69,11.18,18.55,18.55,0,0,0,5.23,10,16,16,0,0,0,8.74,3.83,22.08,22.08,0,0,0,8.27-.52c5.8-1.47,10.84-4.74,15.71-7.91a.58.58,0,0,0,.17-.8A.59.59,0,0,0,342.25,613.54Z" transform="translate(-4.35 -72.85)" fill="#4f75e2"/>
              <path d="M334.63,642.69a106.9,106.9,0,0,1-18.41,6.15l-1.37.37c-7.1,1.89-14.06.74-18.59-3.07-5.33-4.48-6.9-12.07-7.61-17.38a.59.59,0,0,0-.66-.5.57.57,0,0,0-.49.65c.74,5.51,2.38,13.38,8,18.12a18.58,18.58,0,0,0,9.58,4,26,26,0,0,0,10.06-.73l1.36-.36a108.58,108.58,0,0,0,18.6-6.22.58.58,0,0,0-.48-1.06Z" transform="translate(-4.35 -72.85)" fill="#4f75e2"/>
            </g>
          </g>
          <g>
            <path d="M302.72,637a2.67,2.67,0,0,0-1.73-.46c-1.94.18-2.64,2.36-2.73,4.18a8.88,8.88,0,0,1-.68,4.11,2.74,2.74,0,0,1-1.17,1.14c-1.84.89-3.4-.9-3.54-2.61a11.23,11.23,0,0,1,.9-4.2,22.55,22.55,0,0,0,.58-11.21c-.48-2.34-1.49-4.81-3.9-5.65a3.24,3.24,0,0,0-3.55.84c-1.06,1.24-.64,2.67-.23,4a4.46,4.46,0,0,1,.14,3.36,1.68,1.68,0,0,1-1.83,1c-.75-.17-1-.88-1.31-1.51a16.76,16.76,0,0,0-9.1-8.71c-2.19-.86-5.25-1-6.21,1.34a3.26,3.26,0,0,0-.17,1.88,8.51,8.51,0,0,0,2.21,3.8l5.24,6.16a.85.85,0,0,1-.76,1.39l-6.56-.86a3.36,3.36,0,0,0-1.8.23c-1.84.81-1.54,2.62-.88,4A12.45,12.45,0,0,0,273.2,645a41.82,41.82,0,0,0,9.73,1.44,4.14,4.14,0,0,1,2.84,1,1.57,1.57,0,0,1,.4,1.66c-.38,1-1.56,1-2.52.94-3-.33-5.91-1.46-8.94-.69a5.43,5.43,0,0,0-2.79,1.69c-2.24,2.62-.51,5.61,1.84,6.87s5.31,1.6,8.05,2c5.51.79,13.79,3.08,18.35-1.36,2.68-2.6,4.21-6.47,4.9-10.07a18.15,18.15,0,0,0-.26-8A5.57,5.57,0,0,0,302.72,637Z" transform="translate(-4.35 -72.85)"/>
            <g>
              <path d="M278.6,629.41a.47.47,0,0,0-.66-.08.47.47,0,0,0-.08.66A165.5,165.5,0,0,1,300,667.6a.45.45,0,0,0,.44.28.33.33,0,0,0,.17,0,.45.45,0,0,0,.25-.61A166,166,0,0,0,278.6,629.41Z" transform="translate(-4.35 -72.85)" fill="#4f75e2"/>
              <path d="M290.08,626.25a.48.48,0,0,0-.42.52,29.3,29.3,0,0,1,.26,6.18,9.72,9.72,0,0,1-2.17,5.49c-1.88,2.11-5.21,3.11-8.7,2.6-3.22-.47-6.2-2-9.08-3.47a.47.47,0,0,0-.43.84c2.95,1.51,6,3.07,9.38,3.56a12.52,12.52,0,0,0,2.19.14,9.9,9.9,0,0,0,7.34-3,10.63,10.63,0,0,0,2.41-6,29.71,29.71,0,0,0-.26-6.38A.49.49,0,0,0,290.08,626.25Z" transform="translate(-4.35 -72.85)" fill="#4f75e2"/>
              <path d="M301.41,642.71a.46.46,0,0,0-.49.45c-.09,3-.53,7.36-3.24,10.17-2.31,2.38-6.12,3.42-10.2,2.77l-.8-.13A60.46,60.46,0,0,1,276,653.58a.47.47,0,0,0-.6.3.47.47,0,0,0,.3.59,61,61,0,0,0,10.87,2.43l.8.13a15.34,15.34,0,0,0,2.76.2,11.65,11.65,0,0,0,8.26-3.25c2.94-3,3.41-7.61,3.51-10.79A.46.46,0,0,0,301.41,642.71Z" transform="translate(-4.35 -72.85)" fill="#4f75e2"/>
            </g>
          </g>
          <g>
            <path d="M315.89,659.13H282.2a1.91,1.91,0,0,0-1.86,2.34l1.24,5.49a1.92,1.92,0,0,0,1.87,1.49h31.19a1.92,1.92,0,0,0,1.87-1.49l1.24-5.49A1.91,1.91,0,0,0,315.89,659.13Z" transform="translate(-4.35 -72.85)" fill="#fe5d89"/>
            <path d="M286.62,687.25a2.6,2.6,0,0,0,2.57,2.22H308.9a2.6,2.6,0,0,0,2.57-2.22l2.71-18.8H283.91Z" transform="translate(-4.35 -72.85)" fill="#fe5d89"/>
          </g>
        </g>
        <g>
          <path d="M775.35,267.8H345.64a28,28,0,0,0-27.91,25.58L293.8,567.5A28,28,0,0,0,321.71,598H751.43a28,28,0,0,0,27.91-25.58l23.92-274.12A28,28,0,0,0,775.35,267.8Z" transform="translate(-4.35 -72.85)"/>
          <path d="M764.14,267.79H334.21a28,28,0,0,0-27.81,25.5L282.46,567.63a27.24,27.24,0,0,0,.45,8.06,27.91,27.91,0,0,0,27.36,22.25H740.19A27.91,27.91,0,0,0,768,572.48l23.94-274.34A27.94,27.94,0,0,0,764.14,267.79Z" transform="translate(-4.35 -72.85)" fill="#d9e2ff"/>
          <path d="M772.39,288.12a11.2,11.2,0,0,0-8.29-3.63H334.21a11.15,11.15,0,0,0-10.88,8.4,10.87,10.87,0,0,0-.31,1.84l-1.27,14.43L299.08,569.07a11.21,11.21,0,0,0,11.16,12.17H740.16A11.18,11.18,0,0,0,751.37,571s17.86-205.31,22.71-261.84c.77-9,1.21-14.24,1.21-14.42a6.7,6.7,0,0,0-.08-.77A11.41,11.41,0,0,0,772.39,288.12Z" transform="translate(-4.35 -72.85)" fill="#fff"/>
          <path d="M433.07,681.12a8.35,8.35,0,0,0,8.35,8.35h94.47v-16.7H441.42A8.35,8.35,0,0,0,433.07,681.12Z" transform="translate(-4.35 -72.85)" fill="#d9e2ff"/>
          <path d="M583.19,597.65H487.85l-3.07,31.78a16.21,16.21,0,0,0,4.67,13l30.27,30.33h92.41L582,636.43Z" transform="translate(-4.35 -72.85)" fill="#8aa5f8"/>
          <polygon points="482.16 538.74 578.4 538.74 578.84 524.81 483.5 524.81 482.16 538.74" fill="#002ca8"/>
          <path d="M592.24,630.64l3.37-33H578.85l-3.08,31.78a16.21,16.21,0,0,0,4.67,13l30.34,30.33H532.41a8.35,8.35,0,0,0,0,16.7H612a16.19,16.19,0,0,0,15.86-12.91,16.84,16.84,0,0,0-4.9-15.21Z" transform="translate(-4.35 -72.85)"/>
          <path d="M772.39,288.12a11.2,11.2,0,0,0-8.29-3.63H334.21a11.15,11.15,0,0,0-10.88,8.4,10.87,10.87,0,0,0-.31,1.84l-1.27,14.43H774.08c.77-9,1.21-14.24,1.21-14.42a6.7,6.7,0,0,0-.08-.77A11.41,11.41,0,0,0,772.39,288.12Z" transform="translate(-4.35 -72.85)" fill="#002ca7"/>
          <polygon points="426.39 230.71 675.9 230.71 677.11 216.83 427.6 216.83 426.39 230.71" fill="#fff"/>
          <g>
            <polygon points="328.86 220.06 343.16 220.06 343.4 217.38 329.1 217.38 328.86 220.06" fill="#fff"/>
            <polygon points="328.42 225.11 342.72 225.11 342.95 222.43 328.65 222.43 328.42 225.11" fill="#fff"/>
            <polygon points="327.98 230.16 342.28 230.16 342.52 227.48 328.21 227.48 327.98 230.16" fill="#fff"/>
          </g>
          <path d="M367.74,291.67h-7.11a5.53,5.53,0,0,0-5.38,4.95,4.48,4.48,0,0,0,4.52,4.95h7.1a5.52,5.52,0,0,0,5.38-4.95A4.47,4.47,0,0,0,367.74,291.67Z" transform="translate(-4.35 -72.85)" fill="#fff"/>
          <path d="M676.74,298.43a4.79,4.79,0,0,0,.94-2.46,4.11,4.11,0,0,0-4.16-4.56,5.08,5.08,0,0,0-5,4.56,4.12,4.12,0,0,0,4.17,4.57,4.81,4.81,0,0,0,2.52-.73l1.58,1.73a1,1,0,0,0,1.5-1.38Zm-3.91.81a2.94,2.94,0,0,1-3-3.27,3.62,3.62,0,0,1,3.54-3.26,2.94,2.94,0,0,1,3,3.26A3.63,3.63,0,0,1,672.83,299.24Z" transform="translate(-4.35 -72.85)" fill="#d9e2ff"/>
          <path d="M765.15,294.44a14.71,14.71,0,0,0,.83-1.74l-.9-1a16,16,0,0,0-1.8.7l-.75-.31a11.7,11.7,0,0,0-.63-1.7h-1.38a13.77,13.77,0,0,0-.88,1.7l-.8.32a14,14,0,0,0-1.72-.67l-1.06,1a11,11,0,0,0,.56,1.71l-.39.76a15.23,15.23,0,0,0-1.79.76l-.12,1.36A12.67,12.67,0,0,0,756,298l.25.76a15.3,15.3,0,0,0-.82,1.73l.89,1a13.88,13.88,0,0,0,1.81-.7l.74.32a12.87,12.87,0,0,0,.63,1.69h1.39a13.77,13.77,0,0,0,.88-1.7l.8-.31a12.39,12.39,0,0,0,1.71.66l1.07-1a12.56,12.56,0,0,0-.57-1.7l.39-.76a16.11,16.11,0,0,0,1.8-.76l.12-1.36a12.79,12.79,0,0,0-1.68-.71Zm-4.63,4.16a1.81,1.81,0,0,1-1.85-2,2.23,2.23,0,0,1,2.2-2,1.8,1.8,0,0,1,1.85,2A2.23,2.23,0,0,1,760.52,298.6Z" transform="translate(-4.35 -72.85)" fill="#fff"/>
          <g>
            <g>
              <path d="M754.59,321.69H341.82a6.76,6.76,0,0,0-6.61,6.09L314.76,562.07a5.73,5.73,0,0,0,5.52,6.4H733.05c3.2,0,5.76-2.88,6.07-6.4l20.44-234.29C759.87,324.26,757.79,321.69,754.59,321.69Z" transform="translate(-4.35 -72.85)" fill="#002ca7"/>
              <path d="M754.14,326.84H341.37a1.06,1.06,0,0,0-1,.94L319.91,562.07a1.17,1.17,0,0,0,.82,1.26H733.47a2,2,0,0,0,.5-1.26l20.45-234.29a1.31,1.31,0,0,0-.16-.93Z" transform="translate(-4.35 -72.85)" fill="#ff5252"/>
            </g>
            <g>
              <polygon points="315.2 495.63 728.86 495.63 732.28 456.44 318.62 456.44 315.2 495.63" fill="#002ca7"/>
              <g>
                <polygon points="328.33 463.12 719.35 463.12 719.51 461.33 328.49 461.33 328.33 463.12" fill="#d9e2ff"/>
                <polygon points="328.33 463.12 459.74 463.12 459.9 461.33 328.49 461.33 328.33 463.12" fill="#fe5d89"/>
                <g>
                  <polygon points="388.21 483.3 397.25 477.3 389.25 471.31 388.21 483.3" fill="#fff"/>
                  <polygon points="398.21 483.3 400.2 483.3 401.25 471.31 399.25 471.31 398.21 483.3" fill="#fff"/>
                </g>
                <polygon points="364.03 483.3 373.07 477.3 365.07 471.31 364.03 483.3" fill="#fff"/>
                <g>
                  <polygon points="348.37 483.3 349.42 471.31 340.37 477.3 348.37 483.3" fill="#fff"/>
                  <polygon points="336.38 483.3 338.37 483.3 339.42 471.31 337.42 471.31 336.38 483.3" fill="#fff"/>
                </g>
                <path d="M661.76,547a19.21,19.21,0,0,0,1-2.14l-1.11-1.18a18.27,18.27,0,0,0-2.22.86l-.92-.39a14.77,14.77,0,0,0-.78-2.09H656a17.43,17.43,0,0,0-1.08,2.1l-1,.38a16.08,16.08,0,0,0-2.12-.81l-1.31,1.18a14.76,14.76,0,0,0,.69,2.1l-.47.94a19.8,19.8,0,0,0-2.22.93l-.15,1.67a14.77,14.77,0,0,0,2.07.88l.31.93a19.21,19.21,0,0,0-1,2.14l1.11,1.19a18.93,18.93,0,0,0,2.22-.86l.92.38a16,16,0,0,0,.77,2.09h1.71a17.32,17.32,0,0,0,1.08-2.09l1-.39a17.63,17.63,0,0,0,2.12.82l1.31-1.19a14.77,14.77,0,0,0-.7-2.1l.48-.93a18.19,18.19,0,0,0,2.22-.94l.14-1.67a15.86,15.86,0,0,0-2.06-.87Zm-5.7,5.12a2.23,2.23,0,0,1-2.29-2.44,2.76,2.76,0,0,1,2.71-2.44,2.24,2.24,0,0,1,2.29,2.44A2.75,2.75,0,0,1,656.06,552.13Z" transform="translate(-4.35 -72.85)" fill="#fff"/>
                <path d="M674.59,555.43h17.76l1-11.68H675.61Zm2.21-10.37H692l-.79,9.06H676Z" transform="translate(-4.35 -72.85)" fill="#fff"/>
                <g>
                  <polygon points="708.11 470.97 712.62 470.97 712.22 475.48 713.53 475.48 714.04 469.66 708.22 469.66 708.11 470.97" fill="#fff"/>
                  <polygon points="699.36 475.48 700.67 475.48 701.06 470.97 705.57 470.97 705.69 469.66 699.87 469.66 699.36 475.48" fill="#fff"/>
                  <polygon points="711.61 482.52 707.1 482.52 706.99 483.82 712.8 483.82 713.31 478.01 712 478.01 711.61 482.52" fill="#fff"/>
                  <polygon points="700.45 478.01 699.14 478.01 698.63 483.82 704.45 483.82 704.56 482.52 700.05 482.52 700.45 478.01" fill="#fff"/>
                </g>
                <path d="M464.57,531.93a3.44,3.44,0,0,0-3.36,3.09,2.79,2.79,0,0,0,2.82,3.09,3.43,3.43,0,0,0,3.36-3.09A2.78,2.78,0,0,0,464.57,531.93Z" transform="translate(-4.35 -72.85)" fill="#fe5d89"/>
              </g>
            </g>
          </g>
        </g>
        <g>
          <g>
            <path d="M814,358.64H632.49a11.46,11.46,0,0,0-11.2,10.29l-2.57,29.48a9.29,9.29,0,0,0,9.4,10.3h181.5a11.47,11.47,0,0,0,11.2-10.3l2.58-29.48A9.29,9.29,0,0,0,814,358.64Z" transform="translate(-4.35 -72.85)" fill="#fe5d89"/>
            <path d="M664.83,365.76H642.59a15.11,15.11,0,0,0-14.76,13.58l-.76,8.66a12.25,12.25,0,0,0,12.4,13.58H661.7A15.12,15.12,0,0,0,676.47,388l.75-8.66A12.24,12.24,0,0,0,664.83,365.76Z" transform="translate(-4.35 -72.85)" fill="#fff"/>
            <g style="mix-blend-mode: screen">
              <polygon points="684.45 319.98 801.08 319.98 802.68 301.67 686.04 301.67 684.45 319.98" fill="#fe5d89"/>
            </g>
            <path d="M647.17,391l13.16-7.35-11.87-7.35C648,381.21,647.6,386.06,647.17,391Z" transform="translate(-4.35 -72.85)" fill="#fe5d89"/>
          </g>
          <polygon points="687.17 330.17 684.45 353 690.55 348.5 693.02 356.61 696.96 355.12 694.49 347 701.78 346.43 687.17 330.17"/>
        </g>
        <g>
          <g>
            <path d="M752.64,453.18a90.19,90.19,0,0,0-16,8.86c-8.5,6.26-15.38,17.67-5.61,25.56,26.12,21.11,46.26-31.07,76.55-61.08-3.93,3.52-28.15,15.56-35,18.34S758.86,450.36,752.64,453.18Z" transform="translate(-4.35 -72.85)" fill="#164bcd"/>
            <path d="M805.73,501c.48.19,1,.37,1.42.57A8.1,8.1,0,0,0,805.73,501Z" transform="translate(-4.35 -72.85)" fill="#164bcd"/>
            <path d="M765.75,496.49c-7.08,1.22-13.6,3.79-18.62,8.25-7.48,7.33-14.64,22.85-6.28,25.24,8.36,3.58,13.13-3.58,19.1-7.16,9.55-8.36,19.1-17.91,32.17-20.47,5.43-1.66,10.16-2.38,13.61-1.33a81.48,81.48,0,0,0-18-4.61A70.91,70.91,0,0,0,765.75,496.49Z" transform="translate(-4.35 -72.85)" fill="#164bcd"/>
            <path d="M707.42,513.28c-4.38-1.5-16.49-1.51-24.27,2.26-17.14,8.3-22.29,21.75-21.09,32.94,22.68-22.48,50.13.27,57.29-10.48C726.51,529.65,721.08,518,707.42,513.28Z" transform="translate(-4.35 -72.85)" fill="#164bcd"/>
            <path d="M771.89,539.53c-13.13,3.58-31,19.1-21.49,31S767.11,561,775,552.09c7.62-8.08,16.6-14.19,26-9.56C792.18,537.14,781.44,537.14,771.89,539.53Z" transform="translate(-4.35 -72.85)" fill="#164bcd"/>
            <path d="M720.85,580.09c-3.83-2.42-8.82-3.13-14.58-2.22-11.41,1.82-16.22,7.31-17.95,17.8,6-4.17,11.82-1.71,17.57,1.57s11.61,7.91,17.07,6.38C734.36,600.42,732.14,587.25,720.85,580.09Z" transform="translate(-4.35 -72.85)" fill="#164bcd"/>
            <path d="M761.14,610c0,6,8.36,6,13.13,1.19,6-6,6-14.33,10.39-21.12,4.82-10.5,8.76-19.71,10.43-19.35C771.89,564.6,760,592.06,761.14,610Z" transform="translate(-4.35 -72.85)" fill="#164bcd"/>
            <path d="M727.57,628.62a56.36,56.36,0,0,1-16.12,3c-19.55,1.41-17.16,19.79-17.16,19.79s4.18-7.76,15.52-3.28c11.16,4.4,26.8,4.19,31.47-8.95C744.51,630.13,734.88,625.92,727.57,628.62Z" transform="translate(-4.35 -72.85)" fill="#164bcd"/>
            <path d="M782,501.71c-4.93.5-9.47.65-14.15,2.6-12.66,5.28-34.2,21.94-29.28,66.41,0,0-4.25-17-4.91-23.62s-1.46-13.41-2-20.14c-1.09-13.47-3-25.4.95-38.68,1.9-7.17,19.4-24.18,27.31-28-9.55,2.1-25.52,18.21-29,27.32-5.22,13.88-1.64,37.57.32,53.71.65,5.38,1.45,14.06,2.37,19.41-3.6-3-23.08-56.71-46.56-35.52,18.35-14.47,34.45,20.53,37.45,25.59,11.76,19.06,27.93,67.87,31.52,90.55-9.42-15.24-24.29-38.09-32.3-45.64-4.82-5-11.48-8.9-21.15-10.8A72.38,72.38,0,0,1,719.38,594c15.5,11.24,34.73,51,34.73,51s-24.9-15.48-39.52-3.92c10.74-7.17,34.34-.4,40.39,7.51,4.94,6.46,2.14,21.14,2.14,21.14h10c-15.07-23.58,3.58-60.89,11.94-88.35-8.19,11.25-15.72,42.78-20.59,59.85-3.58-32.24-16.42-77.75,14.62-99.24-7.1,2.6-15.44,14.58-17.36,20.74-4.82,15.5-5.32,30.89-3.93,47.51-6-23.87-18.1-48-9.71-71.53a63.45,63.45,0,0,1,7.64-16.41,55.43,55.43,0,0,1,12.73-13.61A40.29,40.29,0,0,1,782.22,502C782.46,501.9,782.28,501.67,782,501.71Z" transform="translate(-4.35 -72.85)"/>
          </g>
          <g>
            <path d="M812.29,519.19c19.24-.25,35.9-14.45,43.77-30.22,5.23-10.47,13.79-16.06,18.68-17.47C819.74,483,827.59,495.42,812.29,519.19Z" transform="translate(-4.35 -72.85)" fill="#164bcd"/>
            <path d="M826,525c-9.51,1.72-27.13,13.29-17.64,22.93,15.11,15.36,23.21-13.78,40.3-15,4.56-.64,12.72-.28,14.87,2.2C854.13,525.49,839.17,522.58,826,525Z" transform="translate(-4.35 -72.85)" fill="#164bcd"/>
            <path d="M775.07,514.43c-19.56-2.71-18.36,12.48-27.33,17.33,3.38-1.67,12.5-4,16.21-3.34,11.13,2.07,14.63,15.08,22.73,9.71C790.79,535.4,790.47,516.57,775.07,514.43Z" transform="translate(-4.35 -72.85)" fill="#164bcd"/>
            <path d="M824.26,556.86a49.5,49.5,0,0,0-20.32,7.72c-5.85,4-9.3,9-5.76,13.15,4.87,4.45,15.42-4.23,23.74-7.74,9.68-4,19.21-6.17,23.59,1.21C840.83,563.83,834.41,557.24,824.26,556.86Z" transform="translate(-4.35 -72.85)" fill="#164bcd"/>
            <path d="M767.56,552.25c-8.19-3-14.95-.73-20.24,7.3,3.75-4.52,8.88.7,12.74,7s.85,11.05,6.33,14.06c8.31,4.55,12.81-3.3,12.81-10.19S774.77,555.36,767.56,552.25Z" transform="translate(-4.35 -72.85)" fill="#164bcd"/>
            <path d="M793.65,599.08c-4.44,5.08-7.9,16.78-3.38,19.73,8.55,5.56,16.94-2.34,22.59-13.69,4.68-9.38,6.35-12.44,15.23-12.77C816.39,583.73,801.52,590.1,793.65,599.08Z" transform="translate(-4.35 -72.85)" fill="#164bcd"/>
            <path d="M761.33,610.54c-8.86-1.65-22.71-8.52-22.71-8.52s2,18,7.2,22.1,13.77,6.91,20,.52C771.72,618.61,767.27,612.41,761.33,610.54Z" transform="translate(-4.35 -72.85)" fill="#164bcd"/>
            <path d="M845.81,530.87c-20.38-2.22-47.65,20.93-58.23,40.59,7.86-21.57,22.34-51.91,40.65-67.7-17.61,12.08-31.12,40-39.31,59.17,1.88-17.63-2.81-41.3-21-42.39,36.26,9.45,8.12,73,9.27,99-3.22-18.64-.86-49.72-17.54-62.91,17.5,14.31,14.82,72.82,14.82,72.82s.63,11-3.84,2.85C767.14,626,759.81,616,749.4,613.48c31.41,17.92,18.93,51.25,18.93,51.25l4,1c-3.93-15.06,18.48-51.33,40.68-71.91-4.57,1.83-8.81,6-11.87,10.07-8.15,10.77-17.22,22.17-25.19,35,2.32-26.83,20.82-75.37,50.71-77.09-29.5-1.22-40.82,39-46.92,47.06,1.17-35.11,30.84-76.17,66.19-77.79C846.07,531.09,846,530.89,845.81,530.87Z" transform="translate(-4.35 -72.85)"/>
          </g>
          <g>
            <path d="M786,646.82H740.34a2.6,2.6,0,0,0-2.53,3.18l1.69,7.43a2.6,2.6,0,0,0,2.53,2H784.3a2.6,2.6,0,0,0,2.53-2l1.69-7.43A2.6,2.6,0,0,0,786,646.82Z" transform="translate(-4.35 -72.85)" fill="#fe5d89"/>
            <path d="M746.31,686.12a3.87,3.87,0,0,0,3.84,3.35h26a3.89,3.89,0,0,0,3.84-3.35l3.65-26.67h-41Z" transform="translate(-4.35 -72.85)" fill="#fe5d89"/>
          </g>
        </g>
        <g>
          <path d="M611.45,534.89c-1.5-1.2-8.06,4.9-7.52,6.43,1.05,2.95-7,13.48-4.17,15.75,1.34,1.07,5-1.63,7-4.15,1.87-2.33,5.4-6.69,6.52-8.14,1.42-1.84,3.65-4.06,3.5-5.28C616.42,536.33,613.18,536.28,611.45,534.89Z" transform="translate(-4.35 -72.85)" fill="#d9e2ff"/>
          <path d="M606.37,527.77l-7.16,5.9s3.84,5.37,4.72,7.65c0,0,.14,1.17,1.83.6,1.39-.47,5.69-7,5.69-7A18.33,18.33,0,0,1,606.37,527.77Z" transform="translate(-4.35 -72.85)" fill="#fe5d89"/>
          <path d="M502.12,345.52c-1.68,12.64,15.7,84.93,28.27,114,5.35,12.36,21.37,7.87,23.39-4.69,5.4-33.57,5.1-78.77-3-105.61C543.69,325.64,503.93,331.88,502.12,345.52Z" transform="translate(-4.35 -72.85)" fill="#039be5"/>
          <path d="M534.2,465.1c37.6,40.85,65.6,71.25,65.6,71.25,3.16-.42,6.62-3.41,9.05-6.34,0,0-21.92-37.15-48.11-78.37C543.47,424.46,518.86,448.44,534.2,465.1Z" transform="translate(-4.35 -72.85)" fill="#039be5"/>
          <path d="M450.59,516.89c-.93,3-13.69,6.58-12.78,10.1.43,1.66,5,1.69,8.08.88,2.9-.74,8.34-2.12,10.1-2.61,2.25-.62,5.35-1.06,6-2.12,1.61-2.75-.95-4.74-1.5-6.89C460,514.39,451.07,515.34,450.59,516.89Z" transform="translate(-4.35 -72.85)" fill="#d9e2ff"/>
          <path d="M451.4,507.93s-.15,6.6-.81,9c0,0-.59,1,1.11,1.57,1.39.46,8.76-2.21,8.76-2.21a18.33,18.33,0,0,1,.2-8.75Z" transform="translate(-4.35 -72.85)" fill="#fe5d89"/>
          <path d="M533.92,343c-12.58,2-77.26,38.61-101.7,58.74-10.4,8.56-1.65,22.71,11,21.17C477,418.78,520.3,406,543.85,390.78,564.54,377.42,564.37,338.08,533.92,343Z" transform="translate(-4.35 -72.85)" fill="#00b0ff"/>
          <path d="M428.16,416.88c12.61,54.06,22,94.31,22,94.31,2.95,1.19,7.45.29,11-1.07,0,0-.79-43.12-3.28-91.9C456.24,386.06,423,394.82,428.16,416.88Z" transform="translate(-4.35 -72.85)" fill="#00b0ff"/>
          <g>
            <path d="M415.49,215.59c-.64.27-2.12,4-1.88,4.68a2,2,0,0,0,2.61,1.44,14.81,14.81,0,0,1-.15-4.46C416.21,216.46,416.63,215.1,415.49,215.59Z" transform="translate(-4.35 -72.85)" fill="#fe5d89"/>
            <path d="M408.73,214c-.75-.59-2.5-2.16-3.13-2.55a1.77,1.77,0,0,0-2.35.17,1.53,1.53,0,0,0-.45,1.25c-1.47.56.39,2.52.14,2.55-3.46.41,7.58,11.15,9.6,13.26a44.38,44.38,0,0,0,4.9-5.64c-1.41-1.4-2.37-3-3.56-4.24C412.48,217.23,409,214.17,408.73,214Z" transform="translate(-4.35 -72.85)" fill="#fe5d89"/>
            <path d="M500.05,247.87c-15.89-3.24-44.58,1.21-45.56,1.29-3.1-2.2-7.37-5-11.88-8-9.85-6.49-22.1-14.57-25.61-18.66l-5.35,5.31c9,10.05,32.45,31.29,42.25,34.6,10.13,3.57,37.79,6.66,46.76,4C514.6,262.33,508.47,249.58,500.05,247.87Z" transform="translate(-4.35 -72.85)" fill="#fe5d89"/>
          </g>
          <path d="M538.88,202.55c-.06-.71.68-1.53.57-2.23s-1.07-1.25-1.23-1.95.46-1.61.25-2.29-1.25-1.09-1.51-1.75.23-1.66-.08-2.31-1.38-.89-1.73-1.51,0-1.68-.41-2.27-1.5-.69-1.94-1.25-.25-1.66-.72-2.19-1.58-.47-2.1-1-.48-1.6-1-2.06-1.63-.24-2.21-.66-.7-1.52-1.31-1.9-1.64,0-2.28-.34-.91-1.4-1.56-1.69-1.63.23-2.31,0-1.1-1.26-1.79-1.45-1.58.46-2.29.32-1.27-1.08-2-1.17-1.49.68-2.21.64-1.41-.9-2.13-.89-1.4.89-2.11.95-1.53-.69-2.23-.57-1.25,1.07-2,1.23-1.61-.46-2.29-.25-1.09,1.24-1.75,1.5-1.66-.22-2.3.08-.9,1.39-1.52,1.74-1.68,0-2.27.41-.69,1.5-1.25,1.93-1.66.25-2.19.73-.47,1.58-1,2.09-1.6.49-2.06,1-.24,1.63-.66,2.21-1.52.71-1.9,1.31,0,1.65-.34,2.29-1.4.91-1.69,1.56.23,1.63,0,2.31-1.26,1.1-1.45,1.79.46,1.58.32,2.28-1.08,1.27-1.17,2,.68,1.49.64,2.21-.9,1.41-.89,2.13.89,1.4,1,2.1-.69,1.54-.57,2.24,1.07,1.25,1.23,1.94-.46,1.62-.25,2.3,1.24,1.08,1.5,1.75-.22,1.66.08,2.3,1.39.9,1.74,1.52,0,1.67.41,2.27,1.5.68,1.94,1.25.25,1.66.72,2.19,1.58.47,2.1,1,.48,1.6,1,2.06,1.62.24,2.2.66.71,1.52,1.31,1.9,1.65,0,2.29.34.91,1.4,1.56,1.69,1.63-.23,2.31,0,1.1,1.25,1.79,1.45,1.58-.47,2.29-.32,1.26,1.08,2,1.17,1.49-.68,2.21-.64,1.41.89,2.13.89,1.4-.89,2.1-1,1.54.68,2.24.57,1.25-1.07,2-1.23,1.61.46,2.29.25,1.08-1.25,1.75-1.51,1.66.23,2.3-.08.9-1.38,1.52-1.73,1.67,0,2.27-.41.69-1.5,1.25-1.94,1.66-.25,2.19-.72.47-1.58,1-2.1,1.6-.48,2.06-1,.24-1.63.66-2.2,1.52-.71,1.9-1.32,0-1.64.34-2.28,1.4-.91,1.69-1.56-.23-1.63,0-2.31,1.26-1.1,1.45-1.79-.47-1.58-.32-2.29,1.08-1.27,1.17-2-.68-1.49-.64-2.21.9-1.41.89-2.13S538.94,203.26,538.88,202.55Z" transform="translate(-4.35 -72.85)"/>
          <path d="M517.05,222.75c-.93.76-10.62,6.82-13.49,6.53.06.79,2.41,9.05.8,13.63,1,4.14,12.59,3.57,15.41-3.67C518.34,237.29,516.69,226.63,517.05,222.75Z" transform="translate(-4.35 -72.85)" fill="#fe5d89"/>
          <path d="M505.86,209.43c-5.27-.08-10.28,1.4-11.19,6.41-.32,1.8,1.27,17.77,9.94,19.76,3.67.84,10.29-5.7,10.36-9.92,0,0,.1-5.76.1-5.82C515.16,214.26,511.51,209.53,505.86,209.43Z" transform="translate(-4.35 -72.85)" fill="#fe5d89"/>
          <path d="M531.68,241.76c-2.88-1-11.91-2.52-11.91-2.52s-5.91,6.17-10,6.24c-5.67.08-5.37-2.57-5.37-2.57s-7.59,2.28-9.39,3.45c-6.94,4.53-6.13,15.09-6,23,.2,13.28-5.43,68.34-5,98.24,6.46,8.45,33.5,10.87,59-.49L547,350l5.14,33.55c2.4.65,5,.87,6.47-.49C564.3,307.26,557.42,250.68,531.68,241.76Z" transform="translate(-4.35 -72.85)" fill="#304ffe"/>
          <path d="M519.77,239.24S513.33,245,509.2,245s-4.84-2.12-4.84-2.12-6.95,2.05-9.17,3.33c1,8.27,8.5,17.85,8.5,17.85s16.77-16.17,28-22.33a26.37,26.37,0,0,0-5.82-1.62Z" transform="translate(-4.35 -72.85)" fill="#002ca7"/>
          <path d="M515.93,217.58a4.86,4.86,0,0,0-2.46.33,66.09,66.09,0,0,0,1.14,6.81,5,5,0,0,0,3.6-3.32C518.44,220,517.37,217.81,515.93,217.58Z" transform="translate(-4.35 -72.85)" fill="#fe5d89"/>
          <g>
            <path d="M504.82,289c-6.23.1-11.27,6-11.85,13.62l24.1-.36C516.26,294.69,511.05,288.89,504.82,289Z" transform="translate(-4.35 -72.85)" fill="#fff"/>
            <path d="M493.58,309l23.08-.35a19.23,19.23,0,0,0,.49-3.27l-24.16.36A18.06,18.06,0,0,0,493.58,309Z" transform="translate(-4.35 -72.85)" fill="#fff"/>
            <path d="M495.91,314l18.57-.28a15.16,15.16,0,0,0,1.47-2.83l-21.6.32A15.41,15.41,0,0,0,495.91,314Z" transform="translate(-4.35 -72.85)" fill="#fff"/>
            <path d="M505.28,319.35a10.71,10.71,0,0,0,7.51-3.45l-15.13.23A10.73,10.73,0,0,0,505.28,319.35Z" transform="translate(-4.35 -72.85)" fill="#fff"/>
          </g>
          <g>
            <path d="M597,318.73a14.73,14.73,0,0,1-1.57,4.17c-.43.68-1.34,1.77-.1,1.76.7,0,3.5-2.91,3.53-3.6A2,2,0,0,0,597,318.73Z" transform="translate(-4.35 -72.85)" fill="#fe5d89"/>
            <path d="M596.38,317.07c.77,1.83,1,3.64,1.66,5.28.71,1.95,2.78,6.11,2.92,6.41.47.82,1.48,2.95,1.92,3.55a1.78,1.78,0,0,0,2.23.74,1.49,1.49,0,0,0,.89-1c1.58,0,.61-2.48.86-2.42,3.35,1-2.74-13.2-3.8-15.92A43.41,43.41,0,0,0,596.38,317.07Z" transform="translate(-4.35 -72.85)" fill="#fe5d89"/>
            <path d="M577.79,266.69c-8-7.18-32.36-20.62-41.65-21.62-14.46-1.54-13.68,12.58-6.56,17.39,13.44,9.08,41.65,16,42.59,16.25,2,3.22,4.89,7.46,7.92,11.93,6.61,9.77,14.83,21.92,16.51,27.05l7-2.85C599.14,302.12,585.58,273.5,577.79,266.69Z" transform="translate(-4.35 -72.85)" fill="#fe5d89"/>
          </g>
          <g>
            <path d="M396.21,231.87a2.4,2.4,0,0,0,1.27,3.11c1.33.49,2.81.19,3.29-.67l32-49.83-14.1-5.09Z" transform="translate(-4.35 -72.85)" fill="#091676"/>
            <path d="M457.56,147.78l-19.35-7.42L418.5,191.69l19.38,7.43c12.12,4.65,26.35-3.08,31.78-17.27S469.67,152.43,457.56,147.78Z" transform="translate(-4.35 -72.85)" fill="#d9e2ff"/>
            <path d="M438.85,140.57a5,5,0,0,0-.66-.19v0L375.94,89.5l-37.65,98.32,80.21,3.87v0a1.4,1.4,0,0,0,.17.09c7.19,2.87,17.54-6.27,23.11-20.4S446,143.43,438.85,140.57Z" transform="translate(-4.35 -72.85)" fill="#8aa5f8"/>
            <path d="M373.46,88.21c-13.14-5.22-32.57,12.69-43.37,40s-8.93,53.62,4.2,58.86c7.7,3,17.57-1.84,26.58-11.92a86.89,86.89,0,0,0,11.9-17.38,110.09,110.09,0,0,0,4.91-10.72,107.9,107.9,0,0,0,3.73-11.14,83.82,83.82,0,0,0,3.28-23.9C384.39,100,380.59,91,373.46,88.21Z" transform="translate(-4.35 -72.85)" fill="#d9e2ff"/>
            <path d="M376.6,100.44c-10.48-4.16-26,10.11-34.61,31.89s-7.12,42.78,3.36,46.95c4.55,1.79,10,.12,15.52-4.13a86.89,86.89,0,0,0,11.9-17.38,110.09,110.09,0,0,0,4.91-10.72,107.9,107.9,0,0,0,3.73-11.14,83.82,83.82,0,0,0,3.28-23.9C383.41,106.23,380.69,102.06,376.6,100.44Z" transform="translate(-4.35 -72.85)" fill="#002ca7"/>
            <path d="M378.23,132.67c-4.23-1.65-9.94,2.6-12.69,9.58s-1.54,14,2.72,15.66a6,6,0,0,0,4.5-.14A104.76,104.76,0,0,0,377.68,147a107,107,0,0,0,3.73-11.13A6,6,0,0,0,378.23,132.67Z" transform="translate(-4.35 -72.85)" fill="#fe5d89"/>
          </g>
        </g>
      </g>
    </g>
  </g>
</svg>
