<?xml version="1.0" encoding="utf-8"?>
<!-- Generator: Adobe Illustrator 23.0.3, SVG Export Plug-In . SVG Version: 6.00 Build 0)  -->
<svg version="1.1" xmlns="http://www.w3.org/2000/svg" xmlns:xlink="http://www.w3.org/1999/xlink" x="0px" y="0px"
	 viewBox="0 0 900 765" style="enable-background:new 0 0 900 765;" xml:space="preserve">
<style type="text/css">
	.st0{fill:#EA80FC;}
	.st1{fill:#8E2496;}
	.st2{fill:#A12DAA;}
	.st3{fill:#F580DC;}
	.st4{fill:#FFFFFF;}
	.st5{fill:#033A7C;}
	.st6{fill:#DDE8F2;}
	.st7{fill:#125293;}
	.st8{fill:#CEDFEF;}
	.st9{fill:#00C9CB;}
	.st10{fill:#A8C3DD;}
	.st11{fill:#E8F0F9;}
	.st12{fill:#D0DDEA;}
	.st13{fill:#9E25A5;}
	.st14{fill:#F9D5CA;}
	.st15{fill:#EF9AE3;}
	.st16{fill:#06B5B0;}
	.st17{fill:#FFCCF5;}
	.st18{fill:#4377AA;}
	.st19{fill:#EDF0F4;}
	.st20{fill:#383E3F;}
	.st21{fill:#F2C1B3;}
	.st22{fill:#042C66;}
	.st23{fill:#FFCBB9;}
	.st24{fill:#42505B;}
	.st25{fill:#510062;}
	.st26{fill:#262626;}
	.st27{fill:#C6EA2F;}
	.st28{fill:#6FE2DE;}
	.st29{fill:#A0C408;}
	.st30{fill:#B4E012;}
</style>
<g id="Layer_1">
	<path class="st0" d="M900,667.5l-329.9,71.6c-116,25.2-237.8,13.9-346.1-32c-24.2-10.2-281-105-164.4-204
		c124.3-105.5,71.4-159.4-3-227.8C-25.3,200-46.9,19.5,266.1,88.1c159.5,35,186.6,113.2,463.2,113.2c79.2,0,121.5,79.4,170.7,109.2
		V667.5z"/>
</g>
<g id="Layer_2">
	<g>
		<path class="st1" d="M99.6,658c0,2.6-20.8,4.8-46.5,4.8c-25.7,0-46.5-2.1-46.5-4.8c0-2.6,20.8-4.8,46.5-4.8
			C78.8,653.2,99.6,655.3,99.6,658z"/>
		<path class="st1" d="M235.6,634.7c0,2.6-40.8,4.8-91.2,4.8s-91.2-2.1-91.2-4.8c0-2.6,40.8-4.8,91.2-4.8S235.6,632,235.6,634.7z"/>
		<path class="st1" d="M433.3,728.8c0,3.7-57.5,6.7-128.3,6.7c-70.9,0-128.3-3-128.3-6.7c0-3.7,57.4-6.7,128.3-6.7
			C375.8,722.1,433.3,725.1,433.3,728.8z"/>
		<path class="st2" d="M695.7,629.3c0,2.5-20.6,4.5-46,4.5c-25.4,0-46-2-46-4.5c0-2.5,20.6-4.5,46-4.5
			C675.1,624.8,695.7,626.8,695.7,629.3z"/>
		<path class="st2" d="M546.3,561.7c0,3.4-27,6.1-60.4,6.1c-33.4,0-60.4-2.7-60.4-6.1s27-6.1,60.4-6.1
			C519.3,555.6,546.3,558.4,546.3,561.7z"/>
		<ellipse class="st1" cx="352.6" cy="530.2" rx="202" ry="5.1"/>
		<path class="st2" d="M887.9,554.4c0,4.4-119,7.9-265.7,7.9c-146.8,0-265.7-3.5-265.7-7.9c0-4.4,119-7.9,265.7-7.9
			C769,546.5,887.9,550,887.9,554.4z"/>
		<path class="st3" d="M396,102.2l-48.4,2.7l24.5,14.1l-57.6,45.2l-33.9-14.8L204.4,192l-56-22.4l-58.7,38.8c-1.6,1.1-2.1,3.3-1,4.9
			c0.7,1,1.8,1.6,3,1.6c0.7,0,1.4-0.2,2-0.6l55.6-36.7l55.7,22.2l76.1-42.6l34.5,15.1l61.5-48.2l12,26L396,102.2z"/>
		<path class="st4" d="M433.1,314.5v-10l-8.1-0.7c-0.4-2.6-1.1-5-2-7.4l6.6-4.6l-5-8.7l-7.3,3.4c-1.6-2-3.4-3.8-5.4-5.4l3.4-7.3
			l-8.7-5l-4.6,6.6c-2.3-0.9-4.8-1.6-7.4-2l-0.7-8.1h-10l-0.7,8.1c-2.6,0.4-5,1.1-7.4,2l-4.6-6.6l-8.7,5l3.4,7.3
			c-2,1.6-3.8,3.4-5.4,5.4l-7.3-3.4l-5,8.7l6.6,4.6c-0.9,2.3-1.6,4.8-2,7.4l-8.1,0.7v10l8.1,0.7c0.4,2.6,1.1,5,2,7.4l-6.6,4.6l5,8.7
			l7.3-3.4c1.6,2,3.4,3.8,5.4,5.4l-3.4,7.3l8.7,5l4.6-6.6c2.3,0.9,4.8,1.6,7.4,2l0.7,8.1h10l0.7-8.1c2.6-0.4,5-1.1,7.4-2l4.6,6.6
			l8.7-5l-3.4-7.3c2-1.6,3.8-3.4,5.4-5.4l7.3,3.4l5-8.7l-6.6-4.6c0.9-2.3,1.6-4.8,2-7.4L433.1,314.5z M389,332.8
			c-12.9,0-23.4-10.5-23.4-23.4c0-12.9,10.5-23.4,23.4-23.4c12.9,0,23.4,10.5,23.4,23.4C412.3,322.4,401.9,332.8,389,332.8z"/>
		<g>
			<path class="st5" d="M508.6,529H201.5V313.8c0-1.3,1.1-2.4,2.4-2.4h302.3c1.3,0,2.4,1.1,2.4,2.4V529z"/>
			<path class="st6" d="M490.4,496.9H219.8c-1,0-1.8-0.8-1.8-1.8V328.2c0-1,0.8-1.8,1.8-1.8h270.6c1,0,1.8,0.8,1.8,1.8v166.9
				C492.2,496.1,491.4,496.9,490.4,496.9z"/>
			<path class="st4" d="M453.2,440.2H257c-2,0-3.6-1.6-3.6-3.6v-91.1c0-2,1.6-3.6,3.6-3.6h196.2c2,0,3.6,1.6,3.6,3.6v91.1
				C456.8,438.6,455.2,440.2,453.2,440.2z"/>
			<path class="st4" d="M453.2,483.1H257c-2,0-3.6-1.6-3.6-3.6v-23.7c0-2,1.6-3.6,3.6-3.6h196.2c2,0,3.6,1.6,3.6,3.6v23.7
				C456.8,481.5,455.2,483.1,453.2,483.1z"/>
			<path class="st7" d="M166.1,508.1H544l0,0c5.9,10.6-3.6,22.7-17.8,22.7H184C169.7,530.8,160.2,518.7,166.1,508.1L166.1,508.1z"/>
			<g>
				<g>
					<path class="st8" d="M271,463.4h48.6c0.8,0,1.5-0.8,1.5-1.7l0,0c0-1-0.7-1.7-1.5-1.7H271c-0.8,0-1.5,0.8-1.5,1.7l0,0
						C269.5,462.6,270.1,463.4,271,463.4z"/>
					<path class="st8" d="M284.4,469.4h35.2c0.8,0,1.5-0.8,1.5-1.7l0,0c0-1-0.7-1.7-1.5-1.7h-35.2c-0.8,0-1.5,0.8-1.5,1.7l0,0
						C282.8,468.6,283.5,469.4,284.4,469.4z"/>
					<path class="st8" d="M271,475.4h33c0.8,0,1.5-0.8,1.5-1.7l0,0c0-1-0.7-1.7-1.5-1.7h-33c-0.8,0-1.5,0.8-1.5,1.7l0,0
						C269.5,474.6,270.1,475.4,271,475.4z"/>
					<path class="st8" d="M271,469.4h8.4c0.8,0,1.5-0.8,1.5-1.7l0,0c0-1-0.7-1.7-1.5-1.7H271c-0.8,0-1.5,0.8-1.5,1.7l0,0
						C269.5,468.6,270.1,469.4,271,469.4z"/>
					<path class="st8" d="M309,475.4h10.6c0.8,0,1.5-0.8,1.5-1.7l0,0c0-1-0.7-1.7-1.5-1.7H309c-0.8,0-1.5,0.8-1.5,1.7l0,0
						C307.5,474.6,308.2,475.4,309,475.4z"/>
				</g>
				<g>
					<path class="st8" d="M330.8,463.4h48.6c0.8,0,1.5-0.8,1.5-1.7l0,0c0-1-0.7-1.7-1.5-1.7h-48.6c-0.8,0-1.5,0.8-1.5,1.7l0,0
						C329.2,462.6,329.9,463.4,330.8,463.4z"/>
					<path class="st8" d="M344.1,469.4h35.2c0.8,0,1.5-0.8,1.5-1.7l0,0c0-1-0.7-1.7-1.5-1.7h-35.2c-0.8,0-1.5,0.8-1.5,1.7l0,0
						C342.6,468.6,343.3,469.4,344.1,469.4z"/>
					<path class="st8" d="M330.8,475.4h33c0.8,0,1.5-0.8,1.5-1.7l0,0c0-1-0.7-1.7-1.5-1.7h-33c-0.8,0-1.5,0.8-1.5,1.7l0,0
						C329.2,474.6,329.9,475.4,330.8,475.4z"/>
					<path class="st8" d="M330.8,469.4h8.4c0.8,0,1.5-0.8,1.5-1.7l0,0c0-1-0.7-1.7-1.5-1.7h-8.4c-0.8,0-1.5,0.8-1.5,1.7l0,0
						C329.2,468.6,329.9,469.4,330.8,469.4z"/>
					<path class="st8" d="M368.8,475.4h10.6c0.8,0,1.5-0.8,1.5-1.7l0,0c0-1-0.7-1.7-1.5-1.7h-10.6c-0.8,0-1.5,0.8-1.5,1.7l0,0
						C367.3,474.6,367.9,475.4,368.8,475.4z"/>
				</g>
				<g>
					<path class="st8" d="M390.5,463.4h48.6c0.8,0,1.5-0.8,1.5-1.7l0,0c0-1-0.7-1.7-1.5-1.7h-48.6c-0.8,0-1.5,0.8-1.5,1.7l0,0
						C389,462.6,389.7,463.4,390.5,463.4z"/>
					<path class="st8" d="M403.9,469.4h35.2c0.8,0,1.5-0.8,1.5-1.7l0,0c0-1-0.7-1.7-1.5-1.7h-35.2c-0.8,0-1.5,0.8-1.5,1.7l0,0
						C402.4,468.6,403.1,469.4,403.9,469.4z"/>
					<path class="st8" d="M390.5,475.4h33c0.8,0,1.5-0.8,1.5-1.7l0,0c0-1-0.7-1.7-1.5-1.7h-33c-0.8,0-1.5,0.8-1.5,1.7l0,0
						C389,474.6,389.7,475.4,390.5,475.4z"/>
					<path class="st8" d="M390.5,469.4h8.4c0.8,0,1.5-0.8,1.5-1.7l0,0c0-1-0.7-1.7-1.5-1.7h-8.4c-0.8,0-1.5,0.8-1.5,1.7l0,0
						C389,468.6,389.7,469.4,390.5,469.4z"/>
					<path class="st8" d="M428.6,475.4h10.6c0.8,0,1.5-0.8,1.5-1.7l0,0c0-1-0.7-1.7-1.5-1.7h-10.6c-0.8,0-1.5,0.8-1.5,1.7l0,0
						C427,474.6,427.7,475.4,428.6,475.4z"/>
				</g>
			</g>
			<path class="st9" d="M400.8,384.4h-61.5c-2.6-6.4-8.8-10.9-16.1-10.9c-9.6,0-17.3,7.8-17.3,17.3c0,9.6,7.8,17.3,17.3,17.3
				c7.3,0,13.6-4.5,16.1-10.9h6.4l2.3,3.9c0.6,1,2.1,1,2.7,0l2.3-3.9h1l2.3,3.9c0.6,1,2.1,1,2.7,0l2.3-3.9h17.4l2.3,3.9
				c0.6,1,2.1,1,2.7,0l2.3-3.9h1l2.3,3.9c0.6,1,2.1,1,2.7,0l2.3-3.9h0.1l3.2,5.5c0.6,1,2.1,1,2.7,0l6.9-11.9L400.8,384.4z
				 M318.6,398c-4,0-7.2-3.2-7.2-7.2c0-4,3.2-7.2,7.2-7.2c4,0,7.2,3.2,7.2,7.2C325.8,394.8,322.6,398,318.6,398z"/>
			<path class="st10" d="M360.5,318.3c0-2.2-1.8-4-4-4c-2.2,0-4,1.8-4,4c0,2.2,1.8,4,4,4C358.7,322.3,360.5,320.5,360.5,318.3z"/>
		</g>
		<g>
			<path class="st11" d="M876.6,173.9v361.5c0,10.6-8.6,19.1-19.1,19.1H414.1c-10.6,0-19.1-8.6-19.1-19.1V173.9
				c0-17.1,13.8-30.9,30.9-30.9h419.9C862.8,143,876.6,156.8,876.6,173.9z"/>
			<path class="st9" d="M876.6,173.9v33H394.9v-33c0-17.1,13.8-30.9,30.9-30.9h419.9C862.8,143,876.6,156.8,876.6,173.9z"/>
			<g>
				<path class="st4" d="M443.7,175c0-4.2-3.4-7.6-7.6-7.6c-4.2,0-7.6,3.4-7.6,7.6c0,4.2,3.4,7.6,7.6,7.6
					C440.3,182.6,443.7,179.2,443.7,175z"/>
				<path class="st4" d="M478.9,175c0-4.2-3.4-7.6-7.6-7.6c-4.2,0-7.6,3.4-7.6,7.6c0,4.2,3.4,7.6,7.6,7.6
					C475.5,182.6,478.9,179.2,478.9,175z"/>
				<path class="st4" d="M514.1,175c0-4.2-3.4-7.6-7.6-7.6c-4.2,0-7.6,3.4-7.6,7.6c0,4.2,3.4,7.6,7.6,7.6
					C510.7,182.6,514.1,179.2,514.1,175z"/>
			</g>
			<path class="st4" d="M848.8,175c0-12-9.7-21.7-21.7-21.7c-12,0-21.7,9.7-21.7,21.7c0,12,9.7,21.7,21.7,21.7
				C839.1,196.6,848.8,186.9,848.8,175z"/>
			<g>
				<path class="st5" d="M836.7,186.1c-0.4,0-0.8-0.2-1.2-0.5l-18.8-18.8c-0.6-0.6-0.6-1.7,0-2.3c0.6-0.6,1.7-0.6,2.3,0l18.8,18.8
					c0.6,0.6,0.6,1.7,0,2.3C837.5,186,837.1,186.1,836.7,186.1z"/>
				<path class="st5" d="M817.9,186.1c-0.4,0-0.8-0.2-1.2-0.5c-0.6-0.6-0.6-1.7,0-2.3l18.8-18.8c0.6-0.6,1.7-0.6,2.3,0
					c0.6,0.6,0.6,1.7,0,2.3L819,185.6C818.7,186,818.3,186.1,817.9,186.1z"/>
			</g>
			<path class="st4" d="M817.3,301.5H460c-17.4,0-31.5-14.1-31.5-31.5l0,0c0-17.4,14.1-31.5,31.5-31.5h357.3
				c17.4,0,31.5,14.1,31.5,31.5l0,0C848.8,287.3,834.7,301.5,817.3,301.5z"/>
			<path class="st12" d="M817.3,230.9H460c-21.5,0-39,17.5-39,39c0,21.5,17.5,39,39,39h357.3c21.5,0,39-17.5,39-39
				C856.3,248.4,838.8,230.9,817.3,230.9z M817.3,301.5H460c-17.4,0-31.5-14.1-31.5-31.5c0-17.4,14.1-31.5,31.5-31.5h357.3
				c17.4,0,31.5,14.1,31.5,31.5C848.8,287.3,834.7,301.5,817.3,301.5z"/>
			<g>
				<path class="st5" d="M673,275.3l4.9-0.5c0.3,1.6,0.9,2.9,1.8,3.6c0.9,0.8,2.1,1.2,3.7,1.2c1.6,0,2.9-0.3,3.7-1
					c0.8-0.7,1.2-1.5,1.2-2.4c0-0.6-0.2-1.1-0.5-1.5c-0.3-0.4-1-0.8-1.8-1.1c-0.6-0.2-1.9-0.6-4-1.1c-2.7-0.7-4.6-1.5-5.7-2.5
					c-1.5-1.4-2.3-3.1-2.3-5c0-1.3,0.4-2.5,1.1-3.6c0.7-1.1,1.8-2,3.1-2.5c1.4-0.6,3-0.9,4.9-0.9c3.1,0,5.5,0.7,7.1,2.1
					c1.6,1.4,2.4,3.2,2.5,5.5l-5,0.2c-0.2-1.3-0.7-2.2-1.4-2.8c-0.7-0.6-1.8-0.8-3.2-0.8c-1.5,0-2.6,0.3-3.4,0.9
					c-0.5,0.4-0.8,0.9-0.8,1.6c0,0.6,0.2,1.1,0.8,1.5c0.6,0.5,2.2,1.1,4.6,1.7c2.5,0.6,4.3,1.2,5.4,1.8c1.2,0.6,2.1,1.5,2.8,2.5
					c0.7,1.1,1,2.4,1,4c0,1.4-0.4,2.8-1.2,4c-0.8,1.2-1.9,2.2-3.4,2.8c-1.5,0.6-3.3,0.9-5.4,0.9c-3.2,0-5.6-0.7-7.3-2.2
					C674.3,280.2,673.3,278.1,673,275.3z"/>
				<path class="st5" d="M698.3,283.4v-25h18.5v4.2h-13.5v5.5h12.6v4.2h-12.6v6.8h14v4.2H698.3z"/>
				<path class="st5" d="M745.6,283.4h-5.5l-2.2-5.7h-10l-2.1,5.7h-5.4l9.7-25h5.3L745.6,283.4z M736.3,273.5l-3.4-9.3l-3.4,9.3
					H736.3z"/>
				<path class="st5" d="M749.2,283.4v-25h10.6c2.7,0,4.6,0.2,5.8,0.7c1.2,0.4,2.2,1.2,2.9,2.4c0.7,1.1,1.1,2.5,1.1,3.9
					c0,1.9-0.6,3.4-1.7,4.6c-1.1,1.2-2.8,2-4.9,2.3c1.1,0.6,2,1.3,2.7,2.1c0.7,0.8,1.7,2.1,2.9,4.1l3.1,4.9h-6L762,278
					c-1.3-1.9-2.2-3.2-2.7-3.7c-0.5-0.5-1-0.9-1.5-1c-0.5-0.2-1.4-0.3-2.5-0.3h-1v10.4H749.2z M754.2,269h3.7c2.4,0,3.9-0.1,4.5-0.3
					c0.6-0.2,1.1-0.6,1.4-1.1c0.3-0.5,0.5-1.1,0.5-1.9c0-0.8-0.2-1.5-0.7-2c-0.4-0.5-1.1-0.8-1.9-1c-0.4-0.1-1.6-0.1-3.7-0.1h-3.9
					V269z"/>
				<path class="st5" d="M790.7,274.2l4.9,1.6c-0.8,2.7-2,4.8-3.7,6.1c-1.7,1.3-4,2-6.6,2c-3.3,0-6-1.1-8.2-3.4
					c-2.1-2.3-3.2-5.4-3.2-9.3c0-4.2,1.1-7.4,3.2-9.7c2.1-2.3,5-3.5,8.5-3.5c3.1,0,5.5,0.9,7.5,2.7c1.1,1.1,2,2.6,2.6,4.6l-5,1.2
					c-0.3-1.3-0.9-2.3-1.9-3.1c-0.9-0.8-2.1-1.1-3.4-1.1c-1.9,0-3.4,0.7-4.5,2c-1.2,1.3-1.7,3.5-1.7,6.5c0,3.2,0.6,5.4,1.7,6.8
					c1.1,1.3,2.6,2,4.4,2c1.3,0,2.5-0.4,3.5-1.3C789.6,277.4,790.2,276.1,790.7,274.2z"/>
				<path class="st5" d="M800.3,283.4v-25h5v9.8h9.9v-9.8h5v25h-5v-10.9h-9.9v10.9H800.3z"/>
			</g>
			<path class="st4" d="M436.1,442.4h279c2.2,0,3.9-1.8,3.9-3.9V328.1c0-2.2-1.8-3.9-3.9-3.9h-279c-2.2,0-3.9,1.8-3.9,3.9v110.3
				C432.2,440.7,434,442.4,436.1,442.4z"/>
			<path class="st4" d="M436.1,531.7h412.4c2.2,0,3.9-1.8,3.9-3.9v-61.3c0-2.2-1.8-3.9-3.9-3.9H436.1c-2.2,0-3.9,1.8-3.9,3.9v61.3
				C432.2,529.9,434,531.7,436.1,531.7z"/>
			<path class="st4" d="M738.3,442.4h110.3c2.2,0,3.9-1.8,3.9-3.9V328.1c0-2.2-1.8-3.9-3.9-3.9H738.3c-2.2,0-3.9,1.8-3.9,3.9v110.3
				C734.4,440.7,736.2,442.4,738.3,442.4z"/>
			<g>
				<path class="st3" d="M627.8,352.8c-5.3,5.3-9,11.8-10.8,18.6c-2.7,9.8-1.7,20.4,2.8,29.7l11.6-7.7c-3.2-7.6-2.9-16.3,0.9-23.6
					c1.3-2.6,3-5,5.2-7.2c1.6-1.6,3.3-2.9,5-4l-8-11.2C632.2,348.9,629.9,350.7,627.8,352.8z"/>
				<path class="st9" d="M696.7,367.4c-1.8-4.6-4.4-9.1-7.9-13l-9.8,9.8c2.8,3.3,4.8,7.1,5.8,11.1c2.5,9.4,0.1,19.9-7.3,27.3
					c-6.6,6.6-15.7,9.3-24.3,7.9l-6.2,12.8c13.9,3.6,29.3,0,40.3-10.9C699.4,400.2,702.6,382.4,696.7,367.4z"/>
				<path class="st13" d="M619.8,401.1c2,4,4.6,7.8,8,11.2c2.1,2.1,4.5,4,6.9,5.6c3.9,2.5,8,4.3,12.3,5.4l6.2-12.8
					c-3.2-0.5-6.3-1.5-9.3-3.1c-2.3-1.3-4.5-2.9-6.4-4.8c-2.7-2.7-4.7-5.8-6.1-9.2L619.8,401.1z"/>
				<path class="st5" d="M634.6,347.3l8,11.2c6.7-4.2,14.7-5.3,22.1-3.4c4.7,1.2,9.2,3.7,12.9,7.4c0.5,0.5,1,1.1,1.5,1.6l9.8-9.8
					c-0.5-0.5-1-1.1-1.5-1.6c-4.2-4.3-9.2-7.4-14.4-9.4C660.4,338.5,646,339.9,634.6,347.3z"/>
			</g>
			
				<rect x="549.2" y="378.6" transform="matrix(-1.836970e-16 1 -1 -1.836970e-16 967.9641 -196.9898)" class="st8" width="66.6" height="13.7"/>
			
				<rect x="534.3" y="386.7" transform="matrix(-1.836970e-16 1 -1 -1.836970e-16 953.0654 -165.968)" class="st10" width="50.5" height="13.7"/>
			
				<rect x="516.2" y="391.6" transform="matrix(-1.836970e-16 1 -1 -1.836970e-16 934.9513 -138.1584)" class="st8" width="40.8" height="13.7"/>
			
				<rect x="472.8" y="371.2" transform="matrix(-1.836970e-16 1 -1 -1.836970e-16 891.6034 -135.5863)" class="st10" width="81.5" height="13.7"/>
			
				<rect x="474.3" y="395.6" transform="matrix(-1.836970e-16 1 -1 -1.836970e-16 893.0383 -88.2278)" class="st8" width="32.8" height="13.7"/>
			<g>
				<g>
					<g>
						<rect x="491.1" y="475.6" class="st8" width="48.5" height="7.3"/>
						<rect x="476.2" y="475.6" class="st8" width="8.8" height="7.3"/>
						<rect x="528.4" y="487.5" class="st8" width="48.5" height="7.3"/>
						<rect x="513.5" y="487.5" class="st8" width="8.8" height="7.3"/>
						<rect x="546.5" y="475.6" class="st8" width="30.5" height="7.3"/>
						<rect x="476.2" y="487.5" class="st8" width="30.5" height="7.3"/>
					</g>
					<g>
						<rect x="491.1" y="500.6" class="st8" width="48.5" height="7.3"/>
						<rect x="476.2" y="500.6" class="st8" width="8.8" height="7.3"/>
						<rect x="528.4" y="512.6" class="st8" width="48.5" height="7.3"/>
						<rect x="513.5" y="512.6" class="st8" width="8.8" height="7.3"/>
						<rect x="546.5" y="500.6" class="st8" width="30.5" height="7.3"/>
						<rect x="476.2" y="512.6" class="st8" width="30.5" height="7.3"/>
					</g>
				</g>
				<g>
					<g>
						<rect x="614.9" y="475.6" class="st8" width="48.5" height="7.3"/>
						<rect x="599.9" y="475.6" class="st8" width="8.8" height="7.3"/>
						<rect x="652.2" y="487.5" class="st8" width="48.5" height="7.3"/>
						<rect x="637.3" y="487.5" class="st8" width="8.8" height="7.3"/>
						<rect x="670.3" y="475.6" class="st8" width="30.5" height="7.3"/>
						<rect x="599.9" y="487.5" class="st8" width="30.5" height="7.3"/>
					</g>
					<g>
						<rect x="614.9" y="500.6" class="st8" width="48.5" height="7.3"/>
						<rect x="599.9" y="500.6" class="st8" width="8.8" height="7.3"/>
						<rect x="652.2" y="512.6" class="st8" width="48.5" height="7.3"/>
						<rect x="637.3" y="512.6" class="st8" width="8.8" height="7.3"/>
						<rect x="670.3" y="500.6" class="st8" width="30.5" height="7.3"/>
						<rect x="599.9" y="512.6" class="st8" width="30.5" height="7.3"/>
					</g>
				</g>
				<g>
					<g>
						<rect x="738.6" y="475.6" class="st8" width="48.5" height="7.3"/>
						<rect x="723.7" y="475.6" class="st8" width="8.8" height="7.3"/>
						<rect x="776" y="487.5" class="st8" width="48.5" height="7.3"/>
						<rect x="761.1" y="487.5" class="st8" width="8.8" height="7.3"/>
						<rect x="794.1" y="475.6" class="st8" width="30.5" height="7.3"/>
						<rect x="723.7" y="487.5" class="st8" width="30.5" height="7.3"/>
					</g>
					<g>
						<rect x="738.6" y="500.6" class="st8" width="48.5" height="7.3"/>
						<rect x="723.7" y="500.6" class="st8" width="8.8" height="7.3"/>
						<rect x="776" y="512.6" class="st8" width="48.5" height="7.3"/>
						<rect x="761.1" y="512.6" class="st8" width="8.8" height="7.3"/>
						<rect x="794.1" y="500.6" class="st8" width="30.5" height="7.3"/>
						<rect x="723.7" y="512.6" class="st8" width="30.5" height="7.3"/>
					</g>
				</g>
			</g>
			<g>
				<g>
					<rect x="761.9" y="364.1" class="st3" width="10.4" height="57.9"/>
					<rect x="778.5" y="382.5" class="st3" width="10.4" height="39.5"/>
					<rect x="795.2" y="372.5" class="st3" width="10.4" height="49.4"/>
					<rect x="811.9" y="397.3" class="st3" width="10.4" height="24.7"/>
					<rect x="828.5" y="405.3" class="st3" width="10.4" height="16.7"/>
				</g>
				<g>
					<g>
						<path class="st8" d="M753.7,416.4h-6c-0.6,0-1.1-0.5-1.1-1.1c0-0.6,0.5-1.1,1.1-1.1h6c0.6,0,1.1,0.5,1.1,1.1
							C754.8,415.9,754.3,416.4,753.7,416.4z"/>
						<path class="st8" d="M753.7,406.4h-6c-0.6,0-1.1-0.5-1.1-1.1c0-0.6,0.5-1.1,1.1-1.1h6c0.6,0,1.1,0.5,1.1,1.1
							C754.8,405.9,754.3,406.4,753.7,406.4z"/>
						<path class="st8" d="M753.7,396.3h-6c-0.6,0-1.1-0.5-1.1-1.1c0-0.6,0.5-1.1,1.1-1.1h6c0.6,0,1.1,0.5,1.1,1.1
							C754.8,395.9,754.3,396.3,753.7,396.3z"/>
						<path class="st8" d="M753.7,386.3h-6c-0.6,0-1.1-0.5-1.1-1.1c0-0.6,0.5-1.1,1.1-1.1h6c0.6,0,1.1,0.5,1.1,1.1
							C754.8,385.8,754.3,386.3,753.7,386.3z"/>
						<path class="st8" d="M753.7,376.3h-6c-0.6,0-1.1-0.5-1.1-1.1c0-0.6,0.5-1.1,1.1-1.1h6c0.6,0,1.1,0.5,1.1,1.1
							C754.8,375.8,754.3,376.3,753.7,376.3z"/>
						<path class="st8" d="M753.7,366.2h-6c-0.6,0-1.1-0.5-1.1-1.1c0-0.6,0.5-1.1,1.1-1.1h6c0.6,0,1.1,0.5,1.1,1.1
							C754.8,365.8,754.3,366.2,753.7,366.2z"/>
						<path class="st8" d="M753.7,356.2h-6c-0.6,0-1.1-0.5-1.1-1.1c0-0.6,0.5-1.1,1.1-1.1h6c0.6,0,1.1,0.5,1.1,1.1
							C754.8,355.7,754.3,356.2,753.7,356.2z"/>
					</g>
					<path class="st5" d="M840.3,423h-87.6v-74c0-0.6,0.5-1.1,1.1-1.1c0.6,0,1.1,0.5,1.1,1.1v71.9h85.5c0.6,0,1.1,0.5,1.1,1.1
						S840.9,423,840.3,423z"/>
				</g>
			</g>
			<path class="st4" d="M626.2,202.9c-2.6,0-4.7-2.1-4.7-4.7c0-14.7-11.9-26.6-26.6-26.6c-2.6,0-4.7-2.1-4.7-4.7
				c0-2.6,2.1-4.7,4.7-4.7c19.8,0,35.9,16.1,35.9,35.9C630.9,200.8,628.8,202.9,626.2,202.9z"/>
		</g>
		<g>
			<g>
				<path class="st14" d="M335,512.7c0,0,8.2,9.7,9.2,10.2c1,0.5,8.3,0.6,10.7,2.9c1.8,1.8,5,4.6,5.3,5.5c0.3,0.9-2.9-0.5-3.5-1
					c-0.6-0.5-2.9-1.6-3-1.4c-0.2,0.1,4.4,2.9,6.2,4.5c1.8,1.6,2.6,2.8,2.5,3.1c-0.2,0.3-4-1.4-5.2-2.2c-1.1-0.7,3.9,3,4.6,4.5
					c0.7,1.5-5.1-1.6-6.4-2.7c-1.3-1.1,5,3.6,5.1,4.6c0.1,1-6.2-2.3-7.7-3.4c-1.5-1.1,4.7,2.9,4.8,3.6c0.1,0.7-7.6-2.6-10.1-4
					c-2.3-1.3-4.2-2.4-7.4-8.8c-0.6-1.2-9.7-8.9-9.7-8.9L335,512.7z"/>
				<path class="st15" d="M295.4,429.7c-0.2-9.5-7.4-8.1-13.3-0.7c-1.5,1.8-2.7,4.1-3.7,6.9c-5.2,15.7,19.9,56.5,25.7,63.3
					c5.8,6.8,32.7,30.8,32.7,30.8l8.3-10l-27.7-30.8l-11.1-29.3L295.4,429.7z"/>
			</g>
			<g>
				<path class="st5" d="M267.8,714.4c0,0,8.4,10.4,7.7,17.1c-0.7,6.7-16.6-10.6-16.6-10.6s-3.1,3.8-4.1,3.7c-1-0.1,1.1-10,5-12.7
					C263.8,709.2,267.8,714.4,267.8,714.4z"/>
				<path class="st14" d="M270.7,702.7l-4.3,10.5c0,0,4.8,8.4,2.2,10.5c-2.6,2.1-10.4-9.8-10.4-9.8l2.8-12.1L270.7,702.7z"/>
				<path class="st16" d="M308.6,527.4c0,0-5.6,81.6-10.8,109.6c-5.2,28-26.6,71.7-26.6,71.7l-14.2-4.3c0,0,11.2-61.6,11.6-72.6
					c0.9-27.1-6.5-94.8-6.5-94.8l17.3-28.1L308.6,527.4z"/>
			</g>
			<g>
				<path class="st5" d="M318.6,717.5c0,0,11.4,6.9,13.1,13.5c1.6,6.6-19.2-4.4-19.2-4.4s-1.7,4.6-2.6,4.8
					c-0.9,0.2-2.4-9.8,0.4-13.6C313.1,713.9,318.6,717.5,318.6,717.5z"/>
				<path class="st14" d="M317.3,705.5l-0.5,11.3c0,0,7.4,6.3,5.6,9.1c-1.8,2.8-13.1-5.7-13.1-5.7l-1.5-12.4L317.3,705.5z"/>
				<path class="st9" d="M262,536.9c0,0,0.9,14.1,9.8,29.3c4.9,8.3,20.7,40.5,25.9,62.4c7.8,32.4,5.8,83,5.8,83l17.8-0.8
					c0,0,12.6-73.6,12.1-95.6c-0.6-23.2-7.6-43.2-18.1-96.5C303.9,509.1,262,536.9,262,536.9z"/>
			</g>
			<path class="st17" d="M307.1,427c0,0,17.2,17,20.2,36.1c1.1,7.1-6.3,19-6.6,24.6c-0.2,5.6,2.2,32.4,10.9,51.4
				c0,0-32.1,9.3-69.5-2.2c0,0-9.7-99.2,24.1-116L307.1,427z"/>
			<path class="st14" d="M310.2,372.3c0,0,4.6,6.9,3.6,10.8c-1,3.9,3.6,10,3.4,11.2c-0.1,0.6-2.7,1.4-3.1,2.4
				c-1.6,4.2-3.5,9.9-5.4,12.9c-0.7,1-1.8,1.6-3,1.6c-5.7-0.3-3,11.2,1.3,15.8c4.8,5.1,6.3,9,4.7,11.1c-1.6,2.1-23.4-14.1-25.7-17
				c-0.1-9.6-2.4-19.3-2.8-20.1c-0.4-0.8-6.3,0-6.6-5c-0.3-4.3,3-7.2,7.6-4.9c0,0-4.8-14.9,5.3-19.9
				C299.7,366.4,310.2,372.3,310.2,372.3z"/>
			<g>
				<path class="st18" d="M453.5,418l-26.7,34.3c-4.3,5.5-12.1,6.4-17.6,2.2l-13.7-10.7c-5.5-4.3-6.4-12.1-2.2-17.6l26.7-34.3
					c-16.4-3-33.8,2.9-44.8,17v0c-10.9,13.9-12.5,32.2-5.7,47.3l-81.8,115.4c-2.8,3.9-2,9.3,1.8,12.2l9.9,7.7
					c3.8,2.9,9.2,2.4,12.3-1.2l91.9-107.6c16.3,2.9,33.6-3.1,44.4-17.1l0,0C458.9,451.5,460.4,433.1,453.5,418z"/>
				<path class="st19" d="M299.7,580.8L299.7,580.8c-2.5-1.9-2.6-6-0.2-9l71.2-98.1c1.1-1.5,3-2,4.2-1.1l11.3,8.8
					c1.2,0.9,1.2,2.9,0,4.4l-77.7,93.1C306.1,581.9,302.1,582.8,299.7,580.8z"/>
			</g>
			<g>
				<path class="st14" d="M327.3,518.7c0,0,9.8,6.6,10.8,6.8c1.1,0.1,7.6-1.9,10.4-0.4c2.1,1.1,5.6,2.8,6.2,3.5
					c0.5,0.8-2.7,0.4-3.4,0.1s-3-0.6-3.1-0.4c-0.1,0.2,4.7,1.5,6.7,2.4c2,0.9,3.6,2.1,3.5,2.7c-0.1,0.6-4.5-0.7-5.7-1.1
					c-1.2-0.4,5.9,2,6.9,3.1c1,1.1-8.1-0.9-8.1-0.9s5.7,1.4,5.8,2.4c0.1,0.9-7.7-0.5-7.7-0.5s5.1,1,5.4,1.7
					c0.3,0.6-7.7,0.2-10.3-0.4c-2.4-0.6-4.3-1-8.8-6c-0.8-0.9-10.9-5.4-10.9-5.4L327.3,518.7z"/>
				<path class="st15" d="M294.5,441.8c-1-9.4-13.3-12.7-18.6-4.8c-1.3,2-2.4,4.3-3.1,7.2c-3.9,16.1,4.4,53,10.7,59.3
					c6.3,6.3,47.3,28.3,47.3,28.3l7.4-10.7l-38.8-26.4c-2.2-1.5-3.6-3.9-3.7-6.6l-1.3-23.6L294.5,441.8z"/>
			</g>
			<path class="st20" d="M297.1,373.3c0,0,16-0.5,19.5,9.8c0,0,5.9-16-8.2-19.6C298.1,360.9,297.1,373.3,297.1,373.3z"/>
			<path class="st20" d="M283.4,400.8c0,0-2,0.2-3.7-1.6c-2.2-2.4-1.2-9.2,4.9-6.5c0,0,18-4.8,20.5-17.9c0,0,0.1-12.7-17.4-11.6
				c-20.3,1.2-20,28.8-11.8,38.1c3.2,3.7,8.5,4.3,8.5,4.3L283.4,400.8z"/>
			<path class="st20" d="M281.8,369.4c0,0-8.2-18.2-25.1-14.5c-16.9,3.8-14.4,36.8-13,46.4c1.4,9.6-9.6,15.3-18.5,14.1
				c0,0,30.3,15,36.9,0.8c5.8-12.4,2.7-39.5,11.4-39.9C282.2,375.8,281.8,369.4,281.8,369.4z"/>
			<path class="st15" d="M271.9,377.2c3-1.5,8.2-6.5,7.7-11.6c-0.5-5.1-2.2,1.2-3.2,3C275.3,370.4,267.5,379.3,271.9,377.2z"/>
			<path class="st15" d="M286.1,421c0,0,22,17.7,25.2,17c3.2-0.7-4.2-10.9-4.2-10.9s3.1,3.1,3.7,4c0.6,1,4.5,7.2,0.8,7.8
				c-5.8,0.9-26.6-17.3-26.6-17.3L286.1,421z"/>
		</g>
		<g>
			<path class="st21" d="M475.6,324.2c0,0-6.4,6.6-9,9.2c-1.3,1.3-15.4,15-13.8,18.4c1.6,3.4,5.4,4.3,9.3,1.7
				c5.4-5.4,13-17.3,16.3-20.1C481.6,330.5,475.6,324.2,475.6,324.2z"/>
			<g>
				<path class="st22" d="M503.7,553.6c2.3-1.7,6.2-2.5,10.2-5c4-2.4,4.6-4.8,4.6-4.8l5.5-2.3c0,0,3.5,5.8,5,9.3
					c0.5,1.2,0.8,2.2,0.5,2.5c-0.8,1-20.5,6.6-26.2,8.2c-0.8,0.2-1.7-0.3-1.9-1.1c-0.1-0.4-0.2-0.9-0.2-1.3
					C501.1,556.8,502.4,554.6,503.7,553.6z"/>
				<path class="st23" d="M521.8,546.8c0.5-0.1,1-0.4,1.4-0.7c1-0.8,1.5-2.1,1.1-3.4l-0.7-2.6l-1.6-6.4l-7.5,2.1l2.7,7.2l0.7,1.8
					C518.5,546.3,520.2,547.2,521.8,546.8z"/>
			</g>
			<path class="st9" d="M464,333.3c-0.6-0.4-1.4-0.3-1.9,0.2c-1.3,1.4-3.9,4-3.9,4.5c0,0.7,8.9,11.5,9.6,11c0.6-0.4,3.6-4.2,4.5-5.7
				c0.2-0.3,0.1-0.7-0.1-1C470.9,340.6,466.8,335.4,464,333.3z"/>
			<g>
				
					<rect x="537.6" y="278.8" transform="matrix(0.5845 0.8114 -0.8114 0.5845 462.6123 -320.0093)" class="st24" width="12.4" height="25.7"/>
				<path class="st25" d="M433.9,370.1L433.9,370.1c-4-5.6-1.7-14.1,5.2-18.6l93.5-62l9.6,13.4l-89,68.3
					C446.7,376.1,437.9,375.7,433.9,370.1z"/>
				<path class="st13" d="M645.5,218.4c-19.7-27.4-58-33.6-85.4-13.9c-27.4,19.7-33.6,58-13.9,85.4c19.7,27.4,58,33.6,85.4,13.9
					C659.1,284,665.3,245.8,645.5,218.4z M559.9,280c-14.3-19.9-9.8-47.6,10.1-61.9c19.9-14.3,47.6-9.8,61.9,10.1
					c14.3,19.9,9.8,47.6-10.1,61.9C601.9,304.4,574.2,299.9,559.9,280z"/>
			</g>
			<g>
				<path class="st22" d="M436.4,553.6c0.1-0.4,0.2-0.8,0.4-1.3c0.7-2.1,3-3.5,4.6-3.8c2.8-0.5,6.7,0.6,11.3,0.2
					c4.6-0.4,6.3-2.1,6.3-2.1l6,0.4c0,0,0.5,6.8,0.2,10.6c-0.1,1.3-0.3,2.3-0.6,2.5c-1.1,0.6-21.3-3.4-27-4.6
					C436.7,555.3,436.2,554.4,436.4,553.6z"/>
				<path class="st23" d="M460.6,550.7c0.5,0.1,1.1,0.1,1.6,0c1.2-0.3,2.3-1.2,2.6-2.5l0.6-2.6l1.5-6.5l-7.6-1.6l-0.9,7.6l-0.2,1.9
					C457.9,548.7,459,550.3,460.6,550.7z"/>
			</g>
			<path class="st22" d="M461,417.2c0,0-4.3,45.5-6.5,59c-2.2,13.5,0.3,64.6,0.3,64.6l15.6,0.9l8.1-52.1c0.6-4.1,2.1-7.9,4.4-11.4
				c9-13.8,32.3-52.8,22.3-71.6C492.9,383.7,461,417.2,461,417.2z"/>
			<path class="st5" d="M474.2,408.8c0,0,12.2,67.1,14.7,77.6c2.7,10.9,24.1,53.9,24.1,53.9l12.2-5c0,0-11.7-40.7-13.6-45.6
				c-1.8-4.9,4.9-47.8,5.4-68.5C517.6,400.6,474.2,408.8,474.2,408.8z"/>
			<path class="st21" d="M475.6,324.2c0,0,3.9-3.7,6.1-4c2.2-0.3,5.6,2.6,5.3,3.3c-0.3,0.7-0.4,0.7-2.3,0.3c-0.4-0.1-3.2-0.4-4,0.1
				c-0.8,0.5-4.1,2.7-4.1,2.7L475.6,324.2z"/>
			<path class="st9" d="M500.6,337.3c-3.9-4.7-18.9-7.9-26,0c-9.8,10.9-14.2,68-13.6,82.3c0,0,38,0.8,56-1.7
				C516.9,418,510.4,349.4,500.6,337.3z"/>
			<path class="st23" d="M483.8,302.8c-0.3,0.3-0.7,0.9-1.1,1.5c-0.9,1.3-2.4,2-3.9,2.4c-0.2,0-0.3,0.1-0.4,0.3
				c-0.2,0.3,0.2,1.1,0.6,1.8c0.6,1.1,0.6,2.4,0,3.4c-1.1,2.2-2.6,5.6-1.6,6.6c1.4,1.5,6.4,4.5,6.4,4.5l-0.5,9.5
				c0,0,1.3,3.4,10.2,3.4c3,0,4.5-0.9,4.5-0.9l0.9-9.2c0,0,10.2-6.9,7.8-16.4C504.2,300.2,489.8,294.7,483.8,302.8z"/>
			<path class="st16" d="M497.9,335c0,0-9.9,2.1-14.7-2.5l-1.1,0.2c0,0,5.6,6.3,17,2.9C499.1,335.6,498.6,335.1,497.9,335z"/>
			<path class="st23" d="M453.6,349.4c-1.5-2.2-2.3-5.1-2.1-6.2c0.3-1.9,1.3-1.5,1.3-1.5c0-2,1.9-1.5,1.9-1.5
				c0.3-2.2,2.2-1.5,2.2-1.5c0.8-1.7,2.2-0.6,2.2-0.6c-0.3,0.8,0,2.1,0,2.1s0.8-0.4,1.2-1.5c0.3-0.8,0.3-2.5,1.5-3.3
				c0.8-0.6,0.6,5.3,0,7.5c-0.5,1.8-3.1,5.1-3.1,5.1l7.3,13.9l-6.5,5.3L453.6,349.4z"/>
			<path class="st16" d="M485.1,346.5c-3.2,6.3-8.8,17.1-10.9,19.8c-2.6,3.4-8-5.7-8-5.7l-8.6,7c0,0,10.6,14.9,15.1,13.8
				c7.1-1.8,23.6-14.6,29.1-25.5c3.8-7.4-0.9-16.7-7.3-16.3C490,339.9,486,344.8,485.1,346.5z"/>
			<path class="st9" d="M454.6,364.6c-0.5,0.5-0.6,1.3-0.1,1.9c1.2,1.5,3.2,4.6,3.7,4.6c0.7,0.1,12.9-6.7,12.6-7.5
				c-0.3-0.7-3.5-4.3-4.8-5.4c-0.3-0.2-0.7-0.3-1-0.1C463,359.1,457.1,362.3,454.6,364.6z"/>
			<path class="st26" d="M501.8,312.6c-0.4-2.7-6.4-7.2-11.8-8.9c-5.4-1.7-12.2-9.3-9.1-11.4c3.1-2.1,9.1-1.7,10.7-0.8
				c1.6,0.9-0.1-4,2.7-3.8c2.8,0.3,18.5,7.9,18.1,17.3c-0.5,10.7-6.8,18.7-13.6,20.9l1.1-4.3c0,0,5.5-1.2,5.4-4.1
				c-0.1-1.8-2.4-1.7-3.6-0.9C501.7,316.7,501.9,313.6,501.8,312.6z"/>
		</g>
		<g>
			<g>
				<path class="st8" d="M219.6,496.1v118.3c0,11.1-10.4,20.3-23.2,20.3H73.6c-12.8,0-23.2-9.1-23.2-20.3V496.1
					c0-11.2,10.4-20.3,23.2-20.3h122.9C209.2,475.8,219.6,484.8,219.6,496.1z"/>
				<path class="st4" d="M219.5,497.5V613c0,2.2-0.4,4.3-1.2,6.2c-0.4,1.1-1,2.2-1.6,3.3c-1.4,2.2-3.3,4.2-5.6,5.8
					c-0.5,0.4-1.1,0.7-1.6,1.1c-1.7,1-3.6,1.8-5.5,2.4c-0.5,0.2-1.1,0.3-1.6,0.4c-1.7,0.4-3.6,0.6-5.5,0.6H77c-0.8,0-1.5,0-2.3-0.1
					c-0.6,0-1.1-0.1-1.6-0.2c-2-0.3-3.8-0.8-5.6-1.5c-0.6-0.2-1.1-0.4-1.6-0.7c-2.1-1-3.9-2.3-5.5-3.9c-0.6-0.5-1.1-1.1-1.6-1.7
					c-2.7-3.3-4.3-7.3-4.3-11.6V497.5c0-10.9,10.1-19.8,22.6-19.8h119.9C209.4,477.7,219.5,486.5,219.5,497.5z"/>
				<g>
					<path class="st11" d="M66.9,507.5h87c1.5,0,2.7-1.2,2.7-2.7l0,0c0-1.5-1.2-2.7-2.7-2.7h-87c-1.5,0-2.7,1.2-2.7,2.7l0,0
						C64.2,506.2,65.4,507.5,66.9,507.5z"/>
					<path class="st11" d="M90.9,516.9h63.1c1.5,0,2.7-1.2,2.7-2.7l0,0c0-1.5-1.2-2.7-2.7-2.7H90.9c-1.5,0-2.7,1.2-2.7,2.7l0,0
						C88.1,515.7,89.4,516.9,90.9,516.9z"/>
					<path class="st11" d="M66.9,526.3H126c1.5,0,2.7-1.2,2.7-2.7l0,0c0-1.5-1.2-2.7-2.7-2.7H66.9c-1.5,0-2.7,1.2-2.7,2.7l0,0
						C64.2,525.1,65.4,526.3,66.9,526.3z"/>
					<path class="st11" d="M66.9,516.9h15c1.5,0,2.7-1.2,2.7-2.7l0,0c0-1.5-1.2-2.7-2.7-2.7h-15c-1.5,0-2.7,1.2-2.7,2.7l0,0
						C64.2,515.7,65.4,516.9,66.9,516.9z"/>
					<path class="st11" d="M135,526.3h19c1.5,0,2.7-1.2,2.7-2.7l0,0c0-1.5-1.2-2.7-2.7-2.7h-19c-1.5,0-2.7,1.2-2.7,2.7l0,0
						C132.2,525.1,133.5,526.3,135,526.3z"/>
				</g>
				<g>
					<path class="st11" d="M60.3,580.3v46c-0.6-0.6-1.1-1.1-1.6-1.7v-44.3H60.3z"/>
					<path class="st11" d="M67.5,565.3v65.6c-0.6-0.2-1.1-0.5-1.6-0.7v-64.9H67.5z"/>
					<path class="st11" d="M74.7,553.6v79c-0.6,0-1.1-0.1-1.6-0.2v-78.8H74.7z"/>
					<rect x="80.2" y="547.9" class="st11" width="1.6" height="84.8"/>
					<rect x="87.4" y="548.7" class="st11" width="1.6" height="84"/>
					<rect x="94.6" y="555.2" class="st11" width="1.6" height="77.5"/>
					<rect x="101.8" y="563.7" class="st11" width="1.6" height="69"/>
					<rect x="109" y="572.6" class="st11" width="1.6" height="60.2"/>
					<rect x="116.2" y="581.4" class="st11" width="1.6" height="51.3"/>
					<rect x="123.3" y="583.9" class="st11" width="1.6" height="48.9"/>
					<rect x="130.5" y="581.7" class="st11" width="1.6" height="51.1"/>
					<rect x="137.7" y="573.8" class="st11" width="1.6" height="58.9"/>
					<rect x="144.9" y="567.7" class="st11" width="1.6" height="65"/>
					<rect x="152.1" y="563.7" class="st11" width="1.6" height="69"/>
					<rect x="159.2" y="567.3" class="st11" width="1.6" height="65.4"/>
					<rect x="166.4" y="574.4" class="st11" width="1.6" height="58.4"/>
					<rect x="173.6" y="581" class="st11" width="1.6" height="51.7"/>
					<rect x="180.8" y="583.3" class="st11" width="1.6" height="49.4"/>
					<rect x="188" y="576.7" class="st11" width="1.6" height="56.1"/>
					<rect x="195.2" y="560.6" class="st11" width="1.6" height="72.2"/>
					<path class="st11" d="M204,543.7v88.1c-0.5,0.2-1.1,0.3-1.6,0.4v-88.5H204z"/>
					<path class="st11" d="M211.1,530.9v97.4c-0.5,0.4-1.1,0.7-1.6,1.1v-98.4H211.1z"/>
					<path class="st11" d="M218.3,525.8v93.4c-0.4,1.1-1,2.2-1.6,3.3v-96.7H218.3z"/>
				</g>
				<path class="st27" d="M219.5,523.3v1.5c-8.3,2.6-15.1,20.8-20.6,34.4c-4.6,11.4-8.7,21.3-13.4,24.3c-7.3,4.6-13.8-2.3-19.4-8.3
					c-4-4.3-8.1-8.7-12.2-9.3c-4.8-0.7-9.5,4.5-14.1,9.6c-4.7,5.2-9.5,10.5-15.2,10.6c-6.5,0-12.5-7.6-19.4-16.6
					c-5.4-7.1-11.6-15.1-18.5-19.6c-1.5-1-2.9-1.2-4.6-0.7c-10.6,3.2-24,33.3-27.6,44.9l0,0v-4.9c4-11.2,14.9-39.1,26.6-42.6
					c2.6-0.8,5.2-0.4,7.6,1.1c7.3,4.8,13.7,13,19.3,20.3c6.1,7.9,11.9,15.4,16.6,15.3c4.2-0.1,8.6-4.9,12.7-9.5
					c5.2-5.7,10.5-11.6,17.2-10.6c5.3,0.8,9.8,5.6,14.2,10.3c6.3,6.8,10.5,10.7,15,7.8c4-2.5,8.2-12.9,12.3-23
					C202.4,542.1,209.2,525.4,219.5,523.3z"/>
				<g>
					<g>
						<path class="st3" d="M87.3,547.5c0-2-1.8-3.6-4.1-3.6c-2.2,0-4.1,1.6-4.1,3.6c0,2,1.8,3.6,4.1,3.6
							C85.4,551.1,87.3,549.5,87.3,547.5z"/>
					</g>
					<g>
						<path class="st3" d="M128.7,583.9c0-2-1.8-3.6-4.1-3.6c-2.2,0-4.1,1.6-4.1,3.6c0,2,1.8,3.6,4.1,3.6
							C126.9,587.4,128.7,585.8,128.7,583.9z"/>
					</g>
					<g>
						<path class="st3" d="M156.7,564.1c0-2-1.8-3.6-4.1-3.6c-2.2,0-4.1,1.6-4.1,3.6c0,2,1.8,3.6,4.1,3.6
							C154.9,567.7,156.7,566.1,156.7,564.1z"/>
					</g>
					<g>
						<path class="st3" d="M185.3,582.8c0-2-1.8-3.6-4.1-3.6c-2.2,0-4.1,1.6-4.1,3.6c0,2,1.8,3.6,4.1,3.6
							C183.5,586.3,185.3,584.7,185.3,582.8z"/>
					</g>
				</g>
				<rect x="170.8" y="516.9" class="st27" width="29" height="9.4"/>
				<rect x="170.8" y="502.7" class="st3" width="29" height="9.4"/>
			</g>
			<g>
				<path class="st9" d="M145.4,384.5c0,0,16.2-0.9,25.9,5.8c9.7,6.6,29.7,37.6,30.1,40.5c0.4,2.9-27,39-27,39l-4.6-6.6
					c0,0,15.3-26.1,14.8-30.3c-0.4-4.2-11.7-15.7-13.3-15.7s2.1,35.2,2.1,35.2s-21.8,14.6-52.3,6.4c0,0,0-38.5,0-45.8
					c0-7.3-16.2,17.5-15.5,20.6c0.7,3.1,13.7,15.3,13.7,15.3l-3.1,8.4c0,0-23.5-15.9-23.9-25.9c-0.4-10,21-36.7,28.8-41.4
					C128.8,385.2,145.4,384.5,145.4,384.5z"/>
				<path class="st14" d="M129.1,355.9c0,0-0.7,21.2,16.3,22.4c17,1.2,15.2-28.8,15.2-28.8l-18.9-9.3L129.1,355.9z"/>
				<path class="st22" d="M118,459.8c0,0-3.2,12.9,0.5,17.7c2.6,3.4,52.7,3.9,55.2,0.4c3.3-4.7,1.5-21,0.1-21.2
					C172.5,456.5,118,459.8,118,459.8z"/>
				<path class="st26" d="M162.9,355.8L162.9,355.8c1.2-3.7,2.3-9.7-1.7-13.9c-5-5.2-11-6.4-16.9-4.7c0.3-1.1,1.1-2.2,1.1-2.2
					c-3.7,0.5-4.7,2.5-5,3.7c-0.1,0.1-1.5-1.2-5.6-0.3c0,0,1.1,0.4,1.9,1c-4,0.9-10.4,3.3-10.7,9.8c-0.5,9.6,5,14.3,5,14.3
					s-2.4-11.1,12.8-13.5c11.5,11.6,21.7,9.6,21.7,9.6C161.8,359.4,162.9,355.8,162.9,355.8z"/>
				<g>
					<path class="st11" d="M175.6,469.1h-59.7l-4.4-39.9c-0.1-1.2,0.8-2.2,2-2.2h64.6c1.2,0,2.1,1,2,2.2L175.6,469.1z"/>
					<rect x="115.8" y="469.1" class="st8" width="59.8" height="2.2"/>
				</g>
				<path class="st14" d="M151.5,373.3c0.7-4-12.2,0.9-12.2,0.9s-0.2,7.5-2.3,11.3c0,0,0.4,0.2,1.1,0.4l7.5,5.3l6.6-2.7l1.9-3.7
					C154,384.8,150.8,377.2,151.5,373.3z"/>
				<polygon class="st16" points="141.5,391.3 149.9,391.3 147.8,396.3 151.8,420.6 147.3,424.4 141.9,420.6 143.8,396.3 				"/>
				<polygon class="st28" points="137.1,385.3 145.6,391.3 137.7,396.3 134.2,385.7 				"/>
				<polygon class="st28" points="154,384.8 145.4,391.3 153.3,396.3 156.8,385.2 				"/>
				<g>
					<path class="st5" d="M130.4,562.5l8,0.3c0,0,2.8,10,2.2,15.2c-0.6,4.8-8.9,6.6-12.1,1.7C125.2,575,130.4,562.5,130.4,562.5z"/>
					<path class="st14" d="M138,555.4c0.1,0.2,0.2,4.7,0.3,7.5c0.4,2.4-6.1,8-8-0.3l-0.2-6.9L138,555.4z"/>
					<path class="st4" d="M134.1,570.7c-1.9,0-3.3-0.7-3.4-0.7c-0.3-0.2-0.5-0.6-0.3-0.9c0.2-0.3,0.6-0.5,0.9-0.3c0,0,2.8,1.3,5.4,0
						c0.3-0.2,0.7,0,0.9,0.3c0.2,0.3,0,0.7-0.3,0.9C136.2,570.6,135.1,570.7,134.1,570.7z"/>
					<path class="st4" d="M134.2,575c-2.1,0-3.8-0.7-3.9-0.8c-0.4-0.2-0.6-0.6-0.4-1c0.2-0.4,0.6-0.6,1-0.4c0,0,3.2,1.4,6.1,0
						c0.4-0.2,0.8,0,1,0.4c0.2,0.4,0,0.8-0.4,1C136.5,574.8,135.3,575,134.2,575z"/>
				</g>
				<g>
					<path class="st5" d="M155.7,561.3l8,0.3c0,0,2.8,10,2.2,15.2c-0.6,4.8-8.9,6.6-12.1,1.7C150.5,573.8,155.7,561.3,155.7,561.3z"
						/>
					<path class="st14" d="M163.4,554.1c0.1,0.2,0.2,4.7,0.3,7.5c0.4,2.4-6.1,8-8-0.3l-0.2-6.9L163.4,554.1z"/>
					<path class="st4" d="M159.5,569.5c-1.9,0-3.3-0.7-3.4-0.7c-0.3-0.2-0.5-0.6-0.3-0.9c0.2-0.3,0.6-0.5,0.9-0.3c0,0,2.8,1.3,5.4,0
						c0.3-0.2,0.7,0,0.9,0.3c0.2,0.3,0,0.7-0.3,0.9C161.6,569.3,160.5,569.5,159.5,569.5z"/>
					<path class="st4" d="M159.5,573.7c-2.1,0-3.8-0.7-3.9-0.8c-0.4-0.2-0.6-0.6-0.4-1c0.2-0.4,0.6-0.6,1-0.4c0,0,3.2,1.4,6.1,0
						c0.4-0.2,0.8,0,1,0.4c0.2,0.4,0,0.8-0.4,1C161.9,573.5,160.6,573.7,159.5,573.7z"/>
				</g>
				<path class="st5" d="M127.8,556.7l-8-72.1c-1-7.7,4.8-14.5,12.6-14.8l0,0c7.6-0.3,13.8,6,13.5,13.6l-4.1,72.9L127.8,556.7z"/>
				<path class="st5" d="M151.9,556.6l-7.1-72.2c-0.9-7.7,5-14.4,12.8-14.6l0,0c7.6-0.2,13.7,6.1,13.4,13.7l-5,72.8L151.9,556.6z"/>
			</g>
		</g>
		<g>
			<g>
				<path class="st27" d="M49.8,610.1c0,0-24.2-12.3-19.7-24.5c4.4-12.1,8-16.1-0.2-21.8c-8.1-5.7-10.1-18.8-2.2-23.6
					c7.9-4.8,4.8-15.9,2.8-22.6c-2-6.7,11.4-21.9,26.4-6.2c8.5,9-4,19.1,8.9,27.7c12.8,8.6,7.1,24.1,1.3,29.9
					c-4.8,4.7,11,12.3,9.5,23.6C75,603.9,65.4,610,49.8,610.1z"/>
				<path class="st29" d="M63.1,551.5c0.3-0.4,0.1-0.9-0.2-1.2c-0.4-0.3-0.9-0.1-1.2,0.2c-0.3,0.5-6.2,9.7-9,17.3
					c-0.3-2.8-0.7-5.7-1-8.5c0,0,0-0.1,0-0.1c-2.3-18-4.7-33.6-4.7-33.9c-0.1-0.5-0.5-0.8-1-0.7c-0.5,0.1-0.8,0.5-0.7,1
					c0,0.3,2.2,14.2,4.3,30.8c-4.4-4.6-11.9-6.8-12.3-6.9c-0.5-0.1-0.9,0.1-1,0.6c-0.1,0.4,0.1,0.9,0.6,1c0.1,0,9.8,2.8,13.2,8.6
					c1.1,8.7,2.1,17.9,2.9,26.2c-4.4-4.8-13.5-8-14-8.1c-0.4-0.1-0.9,0.1-1.1,0.5c-0.1,0.4,0.1,0.9,0.5,1.1c0.1,0,12.4,4.3,14.8,9.9
					c0.5,6.4,0.8,12.2,0.7,16.5c0,0.4,0.3,0.8,0.7,0.9c0,0,0.1,0,0.1,0c0.5,0,0.9-0.4,0.9-0.8c0.1-4.4-0.2-10.2-0.7-16.8
					c0,0,0-0.1,0-0.1c-0.4-5.3-1-11-1.6-16.8C54.5,564.8,63,551.6,63.1,551.5z"/>
			</g>
			<g>
				<path class="st30" d="M70,592.1c0,0,12.6,0.3,11.5-9.3c-1.1-9.6,5.9-13.8,11.3-15.9c10.9-4.2,14.4-21.6,1.4-23.3
					c-13-1.7-20.5,8.4-21.4,13.1c-0.9,4.7-11.1,6.7-13.1,11C57.8,572.1,60.6,583,70,592.1z"/>
				<path class="st29" d="M66.7,614.5c-0.1-0.2-0.1-0.4-0.1-0.6c0-1.9,1.2-45.9,17.3-55.6c0.6-0.4,1.4-0.2,1.7,0.4
					c0.3,0.6,0.2,1.4-0.4,1.7c-14.9,9-16.1,53.1-16.1,53.5c0,0.7-0.6,1.2-1.3,1.2C67.3,615.2,66.9,614.9,66.7,614.5z"/>
			</g>
			<g>
				<path class="st30" d="M24.4,585.5c0,0-8.5,1.5-8.7-5.1c-0.2-6.6-5.4-8.7-9.3-9.6c-7.8-1.7-12-13.1-3.4-15.6
					c8.6-2.5,14.7,3.5,15.8,6.6c1.1,3.1,8.2,3.3,10,6.1C30.6,570.7,29.8,578.4,24.4,585.5z"/>
				<path class="st29" d="M29,600.3c0-0.1,0-0.3,0-0.4c-0.2-1.3-5.6-30.9-17.5-35.8c-0.4-0.2-0.9,0-1.1,0.5c-0.2,0.4,0,0.9,0.5,1.1
					c11,4.5,16.4,34.2,16.5,34.5c0.1,0.5,0.5,0.8,1,0.7C28.7,600.8,28.9,600.6,29,600.3z"/>
			</g>
			<path class="st10" d="M69.2,658.2H31.6c-3.1,0-5.7-2.2-6.2-5.3l-7.7-44.9h65.6L75.4,653C74.9,656,72.3,658.2,69.2,658.2z"/>
			<path class="st8" d="M82.8,616H18c-3.4,0-6.1-3.6-6.1-7.9l0,0c0-4.4,2.7-7.9,6.1-7.9h64.9c3.4,0,6.1,3.6,6.1,7.9l0,0
				C88.9,612.5,86.2,616,82.8,616z"/>
		</g>
		<path class="st1" d="M864.8,644.5c0,2.6-20.8,4.8-46.5,4.8c-25.7,0-46.5-2.1-46.5-4.8c0-2.6,20.8-4.8,46.5-4.8
			C843.9,639.7,864.8,641.9,864.8,644.5z"/>
		<g>
			<g>
				<path class="st27" d="M814.9,596.7c0,0-24.2-12.3-19.7-24.5c4.4-12.1,8-16.1-0.2-21.8c-8.1-5.7-10.1-18.8-2.2-23.6
					c7.9-4.8,4.8-15.9,2.8-22.6c-2-6.7,11.4-21.9,26.4-6.2c8.5,9-4,19.1,8.9,27.7c12.8,8.6,7.1,24.1,1.3,29.9
					c-4.8,4.7,11,12.3,9.5,23.6C840.1,590.4,830.6,596.6,814.9,596.7z"/>
				<path class="st29" d="M828.2,538c0.3-0.4,0.1-0.9-0.2-1.2c-0.4-0.3-0.9-0.1-1.2,0.2c-0.3,0.5-6.2,9.7-9,17.3
					c-0.3-2.8-0.7-5.7-1-8.5c0,0,0-0.1,0-0.1c-2.3-18-4.7-33.6-4.7-34c-0.1-0.5-0.5-0.8-1-0.7c-0.5,0.1-0.8,0.5-0.7,1
					c0,0.3,2.2,14.2,4.3,30.8c-4.4-4.6-11.9-6.8-12.3-6.9c-0.5-0.1-0.9,0.1-1,0.6c-0.1,0.4,0.1,0.9,0.6,1c0.1,0,9.8,2.8,13.2,8.6
					c1.1,8.7,2.1,17.9,2.9,26.2c-4.4-4.8-13.5-8-14-8.1c-0.4-0.1-0.9,0.1-1.1,0.5c-0.1,0.4,0.1,0.9,0.5,1.1c0.1,0,12.4,4.3,14.8,9.9
					c0.5,6.4,0.8,12.2,0.7,16.5c0,0.4,0.3,0.8,0.7,0.9c0,0,0.1,0,0.1,0c0.5,0,0.9-0.4,0.9-0.8c0.1-4.4-0.2-10.2-0.7-16.8
					c0,0,0-0.1,0-0.1c-0.4-5.3-1-11-1.6-16.8C819.6,551.3,828.1,538.2,828.2,538z"/>
			</g>
			<g>
				<path class="st30" d="M835.2,578.7c0,0,12.6,0.3,11.5-9.3c-1.1-9.6,5.9-13.8,11.3-15.9c10.9-4.2,14.4-21.6,1.4-23.3
					c-13-1.7-20.5,8.4-21.4,13.1c-0.9,4.7-11.1,6.7-13.1,11C822.9,558.6,825.7,569.6,835.2,578.7z"/>
				<path class="st29" d="M831.9,601c-0.1-0.2-0.1-0.4-0.1-0.6c0-1.9,1.2-45.9,17.3-55.6c0.6-0.4,1.4-0.2,1.7,0.4
					c0.3,0.6,0.2,1.4-0.4,1.7c-14.9,9-16.1,53.1-16.1,53.5c0,0.7-0.6,1.2-1.3,1.2C832.5,601.7,832.1,601.5,831.9,601z"/>
			</g>
			<g>
				<path class="st30" d="M789.6,572c0,0-8.5,1.5-8.7-5.1c-0.2-6.6-5.4-8.7-9.3-9.6c-7.8-1.7-12-13.1-3.4-15.6
					c8.6-2.5,14.7,3.5,15.8,6.6c1.1,3.1,8.2,3.3,10,6.1C795.7,557.2,795,564.9,789.6,572z"/>
				<path class="st29" d="M794.1,586.8c0-0.1,0-0.3,0-0.4c-0.2-1.3-5.6-30.9-17.5-35.8c-0.4-0.2-0.9,0-1.1,0.5
					c-0.2,0.4,0,0.9,0.5,1.1c11,4.5,16.4,34.2,16.5,34.5c0.1,0.5,0.5,0.8,1,0.7C793.8,587.3,794.1,587.1,794.1,586.8z"/>
			</g>
			<path class="st10" d="M834.4,644.8h-37.6c-3.1,0-5.7-2.2-6.2-5.3l-7.7-44.9h65.6l-7.7,44.9C840.1,642.6,837.4,644.8,834.4,644.8z
				"/>
			<path class="st8" d="M848,602.6h-64.9c-3.4,0-6.1-3.6-6.1-7.9l0,0c0-4.4,2.7-7.9,6.1-7.9H848c3.4,0,6.1,3.6,6.1,7.9l0,0
				C854.1,599,851.3,602.6,848,602.6z"/>
		</g>
		<g>
			
				<rect x="641.3" y="529.2" transform="matrix(1 9.352745e-03 -9.352745e-03 1 5.088 -6.0515)" class="st28" width="16.5" height="23.5"/>
			<path class="st5" d="M658,536.6l-16.8-0.2c-2.9,0-5.2-2.4-5.2-5.3l0,0c0-2.9,2.4-5.2,5.3-5.2l16.8,0.2c2.9,0,5.2,2.4,5.2,5.3l0,0
				C663.3,534.3,660.9,536.6,658,536.6z"/>
			
				<rect x="611.3" y="546.1" transform="matrix(0.7135 -0.7007 0.7007 0.7135 -210.8982 590.0349)" class="st28" width="9.5" height="13.5"/>
			<path class="st5" d="M617.7,547.7l-6.9,6.8c-1.2,1.2-3.1,1.1-4.3,0l0,0c-1.2-1.2-1.1-3.1,0-4.3l6.9-6.8c1.2-1.2,3.1-1.1,4.3,0
				l0,0C618.9,544.6,618.9,546.5,617.7,547.7z"/>
			
				<rect x="679.5" y="548.2" transform="matrix(-0.7006 -0.7136 0.7136 -0.7006 767.5884 1432.0792)" class="st28" width="9.5" height="13.5"/>
			<path class="st5" d="M682.7,549.7l6.8,6.9c1.2,1.2,3.1,1.2,4.3,0l0,0c1.2-1.2,1.2-3.1,0-4.3l-6.8-6.9c-1.2-1.2-3.1-1.2-4.3,0l0,0
				C681.6,546.6,681.5,548.5,682.7,549.7z"/>
			<path class="st9" d="M691.7,586.7c0.2-23.5-18.7-42.7-42.1-42.9c-23.5-0.2-42.7,18.7-42.9,42.1c-0.2,23.5,18.7,42.7,42.1,42.9
				C672.2,629,691.5,610.2,691.7,586.7z"/>
			<path class="st4" d="M682.7,586.6c0.2-18.5-14.7-33.7-33.2-33.8c-18.5-0.2-33.7,14.7-33.8,33.2c-0.2,18.5,14.7,33.7,33.2,33.8
				C667.3,620,682.5,605.1,682.7,586.6z"/>
			<path class="st5" d="M657.4,586.4c0-4.6-3.6-8.3-8.2-8.3c-4.6,0-8.3,3.6-8.3,8.2c0,4.6,3.6,8.3,8.2,8.3
				C653.6,594.6,657.4,590.9,657.4,586.4z"/>
			<path class="st22" d="M665,601.5c-0.3,0-0.7-0.1-0.9-0.4l-16.4-14.2l0.3-28.6c0-0.8,0.7-1.5,1.5-1.4c0.8,0,1.5,0.7,1.4,1.5
				l-0.3,27.3l15.4,13.3c0.6,0.5,0.7,1.4,0.2,2.1C665.9,601.3,665.5,601.5,665,601.5z"/>
			<path class="st9" d="M653.7,586.3c0-2.5-2-4.6-4.5-4.6c-2.5,0-4.6,2-4.6,4.5c0,2.5,2,4.6,4.5,4.6
				C651.6,590.8,653.7,588.8,653.7,586.3z"/>
		</g>
	</g>
</g>
</svg>
