<?xml version="1.0" encoding="utf-8"?>
<!-- Generator: Adobe Illustrator 23.0.2, SVG Export Plug-In . SVG Version: 6.00 Build 0)  -->
<svg version="1.1" id="Layer_1" xmlns="http://www.w3.org/2000/svg" xmlns:xlink="http://www.w3.org/1999/xlink" x="0px" y="0px"
	 viewBox="0 0 900 600" enable-background="new 0 0 900 600" xml:space="preserve">
<g id="Layer1">
	<g transform="matrix(1,0,0,1,-26.3924,-35.9898)">
		<path fill="#9C57D7" d="M686.8,432.8L444.5,572.7c-13.5,7.8-30.1,7.8-43.6,0c-43.1-24.9-138.4-79.9-176.4-101.9
			c-3.3-1.9-5.4-5.5-5.4-9.3c0-3.8,2-7.4,5.4-9.3l33.7-19.5H686.8z M686.8,432.8H258.2L646,208.9c10.4-6,22.7-7.2,33.8-3.5
			l102.4,172.3L686.8,432.8z M679.8,205.4c2.7,0.9,5.4,2.1,7.9,3.5l28.5,16.5l-4.2,2.4c-2,1.2-3.3,3.3-3.3,5.7s1.3,4.5,3.3,5.7
			c22.1,12.7,75.2,43.4,97.3,56.2c6.1,3.5,13.6,3.5,19.7,0l4.2-2.4l31.3,18c3.4,2,5.6,5.6,5.6,9.6c0,4-2.1,7.6-5.6,9.6l-82.3,47.5
			L679.8,205.4z"/>
	</g>
	<g transform="matrix(1,0,0,1,-26.3924,-35.9898)">
		<path fill="#FECB31" d="M590.7,263.5c0,0,0,34,0,62c0,9.6-3.8,18.7-10.6,25.5c-6.8,6.8-15.9,10.6-25.5,10.6c-62,0-182.3,0-182.3,0
			"/>
	</g>
	<g transform="matrix(0.709039,0,0,0.709039,414.842,211.964)">
		<path fill="#FF00FF" d="M166.1,42.1c0,0,0,23.3,0,47.2c0,13.5-5.4,26.4-14.9,36c-9.5,9.5-22.5,14.9-36,14.9
			c-64.5,0-167.5,0-167.5,0"/>
	</g>
	<g transform="matrix(1,0,0,1,379.964,-312.286)">
		<path fill="#FEFFFE" d="M242.3,573.3l0.3,0.3c0.1,0.4-0.1,0.5-0.1,0.5l-0.3,0.1H33.8c0,0-0.2,0.1-0.5-0.3v-0.4l0.3-0.3l0.2,0
			h208.4C242.2,573.3,242.3,573.3,242.3,573.3z"/>
	</g>
	<g transform="matrix(1,0,0,1,323.655,-299.13)">
		<path fill="#FEFFFE" d="M264.9,568l0.3,0.3c0.1,0.4-0.1,0.5-0.1,0.5l-0.3,0.1H56.3c0,0-0.2,0.1-0.5-0.3v-0.4l0.3-0.3l0.2,0h208.4
			C264.7,568,264.8,568,264.9,568z"/>
	</g>
	<g transform="matrix(1,0,0,1,-26.3924,-35.9898)">
		<path fill="#A114E1" d="M686.8,432.8L444.5,572.7c-13.5,7.8-30.1,7.8-43.6,0c-43.1-24.9-138.4-79.9-176.4-101.9
			c-3.3-1.9-5.4-5.5-5.4-9.3c0-3.8,2-7.4,5.4-9.3l33.7-19.5H686.8z"/>
		<g>
			<defs>
				<path id="SVGID_1_" d="M686.8,432.8L444.5,572.7c-13.5,7.8-30.1,7.8-43.6,0c-43.1-24.9-138.4-79.9-176.4-101.9
					c-3.3-1.9-5.4-5.5-5.4-9.3c0-3.8,2-7.4,5.4-9.3l33.7-19.5H686.8z"/>
			</defs>
			<clipPath id="SVGID_2_">
				<use xlink:href="#SVGID_1_"  overflow="visible"/>
			</clipPath>
			<g clip-path="url(#SVGID_2_)">
				<path fill="#FEFFFE" d="M404.9,462.8l0.3,0.3c0.1,0.4-0.1,0.5-0.1,0.5l-0.3,0.1H196.3c0,0-0.2,0.1-0.5-0.3V463l0.3-0.3l0.2,0
					h208.4C404.8,462.7,404.8,462.7,404.9,462.8z"/>
				<g transform="matrix(1,0,0,1,-106.83,-19.8925)">
					<path fill="#FEFFFE" d="M447.6,470.7l0.3,0.3c0.1,0.4-0.1,0.5-0.1,0.5l-0.3,0.1H239.1c0,0-0.2,0.1-0.5-0.3V471l0.3-0.3l0.2,0
						h208.4C447.5,470.7,447.6,470.7,447.6,470.7z"/>
				</g>
				<g transform="matrix(1,0,0,1,625.324,-24.4972)">
					<path fill="#FEFFFE" d="M154.7,472.6l0.3,0.3c0.1,0.4-0.1,0.5-0.1,0.5l-0.3,0.1H-53.8c0,0-0.2,0.1-0.5-0.3v-0.4l0.3-0.3l0.2,0
						h208.4C154.6,472.5,154.7,472.5,154.7,472.6z"/>
				</g>
				<g transform="matrix(1,0,0,1,635.455,-45.679)">
					<path fill="#FEFFFE" d="M150.7,481l0.3,0.3c0.1,0.4-0.1,0.5-0.1,0.5l-0.3,0.1H-57.8c0,0-0.2,0.1-0.5-0.3v-0.4l0.3-0.3l0.2,0
						h208.4C150.6,481,150.6,481,150.7,481z"/>
				</g>
				<g transform="matrix(1,0,0,1,368.379,-269.47)">
					<path fill="#FEFFFE" d="M257.5,570.5l0.3,0.3c0.1,0.4-0.1,0.5-0.1,0.5l-0.3,0.1H49c0,0-0.2,0.1-0.5-0.3v-0.4l0.3-0.3l0.2,0
						h208.4C257.4,570.5,257.5,570.5,257.5,570.5z"/>
				</g>
			</g>
		</g>
	</g>
	<g transform="matrix(1,0,0,1,-26.3924,-35.9898)">
		<path fill="#A114E1" d="M679.8,205.4c2.7,0.9,5.4,2.1,7.9,3.5l28.5,16.5l-4.2,2.4c-2,1.2-3.3,3.3-3.3,5.7s1.3,4.5,3.3,5.7
			c22.1,12.7,75.2,43.4,97.3,56.2c6.1,3.5,13.6,3.5,19.7,0l4.2-2.4l31.3,18c3.4,2,5.6,5.6,5.6,9.6c0,4-2.1,7.6-5.6,9.6l-82.3,47.5
			L679.8,205.4z"/>
	</g>
	<g transform="matrix(1,0,0,1,-26.3924,-35.9898)">
		<path fill="#FECB31" d="M556.3,469.4h67.1l-101.2,58.5v-24.3c0-9.1,3.6-17.7,10-24.1C538.6,473,547.2,469.4,556.3,469.4z"/>
	</g>
	<g transform="matrix(1,0,0,1,-26.3924,-35.9898)">
		<path fill="#C2DFF7" d="M172.6,319.5l311.6-179.9c9.5-5.5,21.3-5.5,30.8,0c31.4,18.1,102.2,59,130.7,75.5c1.2,0.7,2.3,1.7,3,2.9
			c2.6,2.9,5.7,8.4,4.9,17.6c-0.5,5.7-3.8,9.4-6.4,11.5c-0.4,0.4-0.9,0.8-1.5,1.1C594,278.1,393.7,393.8,335.2,427.5
			c-10,5.8-22.3,5.8-32.2,0l-128.3-74.1c0,0-9-3.7-10-13.7c-1.1-11.5,4.1-17.2,6.6-19.3c0.4-0.3,0.8-0.6,1.2-0.9
			C172.6,319.6,172.6,319.5,172.6,319.5z"/>
	</g>
	<g transform="matrix(-1,0,0,1,2721.8,-184.211)">
		<path fill="#6BB1EC" d="M2162.9,423.5c-0.5-0.3-1.1-0.3-1.6,0c-0.5,0.3-0.8,0.8-0.8,1.4c0,0,0,0,0,0c0,1.7,0.9,3.3,2.4,4.1
			c3.3,1.9,31.9,18.4,35.1,20.3c0.5,0.3,1.1,0.3,1.6,0c0.5-0.3,0.8-0.8,0.8-1.4c0,0,0,0,0,0c0-1.7-0.9-3.3-2.4-4.1
			C2194.8,441.9,2166.2,425.3,2162.9,423.5z"/>
	</g>
	<g transform="matrix(1,0,0,1,-26.3924,-40.9898)">
		<path fill="#6BB1EC" d="M295.8,418.9c1.1,0.7,2,2.1,2,3.3c0,1.1-0.9,1.5-2,0.8c-1.1-0.7-2-2.1-2-3.3
			C293.8,418.6,294.7,418.2,295.8,418.9z M289.2,415.1c1.1,0.7,2,2.1,2,3.3c0,1.1-0.9,1.5-2,0.8c-1.1-0.7-2-2.1-2-3.3
			C287.1,414.7,288,414.4,289.2,415.1z M282.5,411.2c1.1,0.7,2,2.1,2,3.3s-0.9,1.5-2,0.8c-1.1-0.7-2-2.1-2-3.3
			C280.5,410.9,281.4,410.5,282.5,411.2z M275.9,407.4c1.1,0.7,2,2.1,2,3.3c0,1.1-0.9,1.5-2,0.8c-1.1-0.7-2-2.1-2-3.3
			C273.9,407.1,274.8,406.7,275.9,407.4z M269.3,403.5c1.1,0.7,2,2.1,2,3.3c0,1.1-0.9,1.5-2,0.8c-1.1-0.7-2-2.1-2-3.3
			C267.2,403.2,268.1,402.9,269.3,403.5z M262.6,399.7c1.1,0.7,2,2.1,2,3.3c0,1.1-0.9,1.5-2,0.8c-1.1-0.7-2-2.1-2-3.3
			C260.6,399.4,261.5,399,262.6,399.7z"/>
	</g>
	<g transform="matrix(1,0,0,1,-167.45,-122.43)">
		<path fill="#6BB1EC" d="M352.2,451.5c1.1,0.7,2,2.1,2,3.3c0,1.1-0.9,1.5-2,0.8c-1.1-0.7-2-2.1-2-3.3
			C350.2,451.1,351.1,450.8,352.2,451.5z M345.6,447.6c1.1,0.7,2,2.1,2,3.3c0,1.1-0.9,1.5-2,0.8c-1.1-0.7-2-2.1-2-3.3
			C343.6,447.3,344.5,446.9,345.6,447.6z M339,443.8c1.1,0.7,2,2.1,2,3.3s-0.9,1.5-2,0.8c-1.1-0.7-2-2.1-2-3.3
			C336.9,443.5,337.8,443.1,339,443.8z M332.3,440c1.1,0.7,2,2.1,2,3.3c0,1.1-0.9,1.5-2,0.8c-1.1-0.7-2-2.1-2-3.3
			C330.3,439.6,331.2,439.3,332.3,440z M325.7,436.1c1.1,0.7,2,2.1,2,3.3c0,1.1-0.9,1.5-2,0.8c-1.1-0.7-2-2.1-2-3.3
			C323.6,435.8,324.5,435.4,325.7,436.1z M319,432.3c1.1,0.7,2,2.1,2,3.3c0,1.1-0.9,1.5-2,0.8c-1.1-0.7-2-2.1-2-3.3
			C317,432,317.9,431.6,319,432.3z"/>
	</g>
	<g transform="matrix(1,0,0,1,-26.3924,-35.9898)">
		<path fill="#FEFFFE" d="M615,204.4l22.3,12.9c2.4,1.4,4,4,4,6.9c0,2.8-1.5,5.4-4,6.9c-49.9,28.8-243,140.3-299.4,172.9
			c-9.6,5.5-21.5,5.5-31.1,0c-30.7-17.7-98.7-57-125.8-72.6c-2.4-1.4-3.8-3.9-3.8-6.6c0-2.7,1.5-5.3,3.8-6.6
			c49.5-28.6,244.9-141.4,300.5-173.5c9.2-5.3,20.5-5.3,29.7,0l20.3,11.7l-3,1.7c-1.5,0.8-2.3,2.4-2.3,4.1c0,1.7,0.9,3.2,2.3,4.1
			c15.7,9.1,53.6,31,69.4,40c4.3,2.5,9.7,2.5,14.1,0L615,204.4z"/>
	</g>
	<g transform="matrix(1,0,0,1,58.1101,-65.7238)">
		<path fill="#C2DFF7" d="M459.3,247.1c0,0-0.1,0.1-0.1,0.1L459.3,247.1L459.3,247.1z M458.7,247.4
			C458.7,247.5,458.6,247.5,458.7,247.4C437.5,259.7,437.5,259.7,458.7,247.4C458.6,247.5,458.7,247.5,458.7,247.4z M291.1,246.7
			c0.3,0.3,0.7,0.6,1.1,0.8C291.8,247.2,291.4,247,291.1,246.7L291.1,246.7z M290.1,245.6c0.2,0.3,0.5,0.6,0.8,0.9
			C290.6,246.2,290.3,245.9,290.1,245.6L290.1,245.6z M459.5,246.9c0.3-0.2,0.5-0.4,0.8-0.7l0.1-0.1
			C460,246.4,459.7,246.7,459.5,246.9L459.5,246.9z M460.4,246c0.3-0.3,0.5-0.6,0.7-1c0.7,1.1,1.1,2.4,1.1,3.8c0,2.6-1.4,5-3.6,6.3
			c-21.1,12.2-66.4,38.3-79.6,45.9c-2.3,1.3-5,1.3-7.3,0c-13.1-7.6-58.5-33.8-79.6-45.9c-2.2-1.3-3.6-3.7-3.6-6.3
			c0-1.4,0.4-2.7,1.1-3.8l0.1-0.1c0.6-1,1.5-1.8,2.5-2.4c21.1-12.2,66.4-38.3,79.6-45.9c2.3-1.3,5-1.3,7.3,0
			c13.1,7.6,58.5,33.8,79.6,45.9c1.1,0.6,2,1.5,2.6,2.5C460.9,245.4,460.7,245.7,460.4,246L460.4,246z"/>
	</g>
	<g transform="matrix(1,0,0,1,-95.7352,87.126)">
		<path fill="#C2DFF7" d="M520.8,185.9c0,0-0.1,0.1-0.1,0.1L520.8,185.9L520.8,185.9z M520.2,186.3
			C520.2,186.3,520.2,186.3,520.2,186.3C499.1,198.5,499.1,198.5,520.2,186.3C520.2,186.3,520.2,186.3,520.2,186.3z M352.6,185.6
			c0.3,0.3,0.7,0.6,1.1,0.8C353.3,186.1,352.9,185.8,352.6,185.6L352.6,185.6z M351.6,184.5c0.2,0.3,0.5,0.6,0.8,0.9
			C352.1,185.1,351.8,184.7,351.6,184.5L351.6,184.5z M521,185.8c0.3-0.2,0.5-0.4,0.8-0.7l0.1-0.1
			C521.5,185.3,521.2,185.6,521,185.8L521,185.8z M522,184.8c0.3-0.3,0.5-0.6,0.7-1c0.7,1.1,1.1,2.4,1.1,3.8c0,2.6-1.4,5-3.6,6.3
			c-21.1,12.2-66.4,38.3-79.6,45.9c-2.3,1.3-5,1.3-7.3,0c-13.1-7.6-58.5-33.8-79.6-45.9c-2.2-1.3-3.6-3.7-3.6-6.3
			c0-1.4,0.4-2.7,1.1-3.8l0.1-0.1c0.6-1,1.5-1.8,2.5-2.4c21.1-12.2,66.4-38.3,79.6-45.9c2.3-1.3,5-1.3,7.3,0
			c13.1,7.6,58.5,33.8,79.6,45.9c1.1,0.6,1.9,1.5,2.6,2.5C522.5,184.2,522.2,184.6,522,184.8L522,184.8z"/>
	</g>
	<g transform="matrix(1,0,0,1,-26.3924,-40.9898)">
		<path fill="#6BB1EC" d="M229.8,379.3c-0.5-0.3-1.1-0.3-1.6,0c-0.5,0.3-0.8,0.8-0.8,1.4c0,0,0,0,0,0c0,1.7,0.9,3.3,2.4,4.1
			c3.3,1.9,9.1,5.3,12.4,7.1c0.5,0.3,1.1,0.3,1.6,0c0.5-0.3,0.8-0.8,0.8-1.4c0,0,0,0,0,0c0-1.7-0.9-3.3-2.4-4.1
			C238.9,384.6,233,381.2,229.8,379.3z"/>
	</g>
	<g transform="matrix(1,0,0,1,12.1762,45.5558)">
		
			<ellipse transform="matrix(0.7071 -0.7071 0.7071 0.7071 19.4938 143.4607)" fill="#FF00FF" cx="182.9" cy="48.2" rx="52.2" ry="52.2"/>
	</g>
	<g transform="matrix(0.5,0,0,0.5,511.607,255.096)">
		<circle fill="#FA8694" cx="-660.4" cy="-350.8" r="52.2"/>
	</g>
	<g transform="matrix(2.55369,0,0,2.55369,-2110.7,-1375.99)">
		<path fill="#E09601" d="M1029.9,592.9c0.3,0.4,0.4,0.9,0.4,1.5c0,1-0.5,2-1.4,2.5c-8.2,4.8-26,15-31.1,18c-0.9,0.5-2,0.5-2.8,0
			c-5.1-3-22.9-13.2-31.2-18c-0.9-0.5-1.4-1.4-1.4-2.5c0-0.5,0.1-1,0.4-1.5c0.2,0.4,0.6,0.7,1,1c8.3,4.8,26,15,31.2,18
			c0.9,0.5,2,0.5,2.8,0c5.1-3,22.9-13.2,31.1-18C1029.3,593.6,1029.6,593.3,1029.9,592.9z"/>
	</g>
	<g transform="matrix(2.55369,0,0,2.55369,-2264.54,-1186.7)">
		<path fill="#0850A5" d="M1054,563.2c0.3,0.4,0.4,0.9,0.4,1.5c0,1-0.5,2-1.4,2.5c-8.2,4.8-26,15-31.1,18c-0.9,0.5-2,0.5-2.9,0
			c-5.1-3-22.9-13.2-31.2-18c-0.9-0.5-1.4-1.4-1.4-2.5c0-0.5,0.2-1,0.4-1.5c0.2,0.4,0.6,0.7,1,1c8.3,4.8,26,15,31.2,18
			c0.9,0.5,2,0.5,2.9,0c5.1-3,22.9-13.2,31.1-18C1053.4,564,1053.7,563.6,1054,563.2z"/>
	</g>
	<g transform="matrix(2.55369,0,0,2.55369,-2110.7,-1388.56)">
		<path fill="#FCEE21" d="M962.7,597.8c0.2-0.4,0.6-0.7,1-1c8.3-4.8,26-15,31.2-18c0.9-0.5,2-0.5,2.8,0c5.1,3,22.9,13.2,31.1,18
			c0.4,0.2,0.8,0.6,1,1c-0.2,0.4-0.6,0.7-1,1c-8.2,4.8-26,15-31.1,18c-0.9,0.5-2,0.5-2.8,0c-5.1-3-22.9-13.2-31.2-18
			C963.3,598.5,963,598.2,962.7,597.8z"/>
	</g>
	<g transform="matrix(2.55369,0,0,2.55369,-2264.54,-1199.26)">
		<path fill="#007EFA" d="M986.8,568.1c0.2-0.4,0.6-0.7,1-1c8.3-4.8,26-15,31.2-18c0.9-0.5,2-0.5,2.9,0c5.1,3,22.9,13.2,31.1,18
			c0.4,0.2,0.8,0.6,1,1c-0.2,0.4-0.6,0.7-1,1c-8.2,4.8-26,15-31.1,18c-0.9,0.5-2,0.5-2.9,0c-5.1-3-22.9-13.2-31.2-18
			C987.4,568.9,987,568.5,986.8,568.1z"/>
	</g>
	<g transform="matrix(0.813318,0,0,0.813318,1235.34,600.704)">
		<circle fill="#FCEE21" cx="-520.5" cy="-277.9" r="52.2"/>
	</g>
	<g transform="matrix(0.557189,0,0,0.557189,922.757,996.451)">
		<circle fill="#6AEF67" cx="-823.4" cy="-818.3" r="52.2"/>
	</g>
	<g transform="matrix(0.406659,0,0,0.406659,1641.54,771.127)">
		<circle fill="#FFE79F" cx="-2067.2" cy="-1003.1" r="52.2"/>
	</g>
	<g transform="matrix(0.278595,0,0,0.278595,1201.03,1113.2)">
		<circle fill="#CDFACC" cx="-2673.1" cy="-2083.8" r="52.2"/>
	</g>
	<g transform="matrix(0.557189,0,0,0.557189,922.757,996.451)">
		<circle fill="#007EFA" cx="-218.7" cy="-1681.6" r="52.2"/>
	</g>
	<g transform="matrix(0.278595,0,0,0.278595,1201.03,1113.2)">
		<circle fill="#61B1F2" cx="-1463.7" cy="-3810.3" r="52.2"/>
	</g>
	<g transform="matrix(1.1838,0.676507,-1.0363,0.591592,488.65,-624.878)">
		<path fill="#E09601" d="M569.5,664.4c-0.4-0.2-0.7-0.3-1.1-0.3l-2.3-0.3l-8.8-1.3c-1.7-0.2-3.1-1.3-3.8-2.8l-0.6-1.1
			c0.4,0.2,0.9,0.3,1.3,0.4c2.7,0.4,7,1,11.1,1.6c1.9,0.3,3.5,1.6,4.1,3.5L569.5,664.4z"/>
	</g>
	<g transform="matrix(1.1838,0.676507,-1.0363,0.591592,488.65,-624.878)">
		<path fill="#E09601" d="M522.6,678.7l2,2c1.2,1.2,1.7,2.9,1.5,4.5c-0.5,2.7-1.2,7-1.9,11.1c-0.1,0.4-0.1,0.7-0.1,1.1l0.2,1
			c-0.4-0.1-0.8-0.4-1.1-0.6c-1.6-1.1-2.4-3.1-2-5c0.7-4,1.4-8.4,1.9-11.1C523.2,680.7,523,679.7,522.6,678.7z"/>
	</g>
	<g transform="matrix(1.1838,0.676507,-1.0363,0.591592,488.65,-624.878)">
		<path fill="#E09601" d="M515.1,669.1c0,0.8,0.1,1.5,0.4,2.2l-2-2c-1.4-1.4-1.9-3.4-1.3-5.2c0.6-1.8,2.2-3.2,4.1-3.5
			c4.1-0.6,8.4-1.2,11.1-1.6c1.7-0.2,3.1-1.3,3.8-2.8c1.2-2.4,3.2-6.4,5-10c0.9-1.7,2.6-2.8,4.6-2.8c1.9,0,3.7,1.1,4.6,2.8l0.6,1.1
			l-0.9-0.3c-0.4-0.1-0.8-0.2-1.2-0.2l0,0c-1.9,0-3.7,1.1-4.6,2.8l-3.1,6.4l-1.8,3.7c-0.4,0.8-1,1.4-1.7,1.9l-0.5,0.3l-0.5,0.2
			l-1.2,0.3c-2.7,0.4-7,1-11.1,1.6c-0.2,0-0.5,0.1-0.7,0.2c-1.6,0.5-2.9,1.7-3.4,3.3C515.2,668.1,515.1,668.6,515.1,669.1z"/>
	</g>
	<g transform="matrix(1.1838,0.676507,-1.0363,0.591592,488.65,-617.921)">
		<path fill="#E09601" d="M516.4,671.3c0.2,0.2,0.4,0.5,0.6,0.7l0.5,0.8l-6-5.9c-0.5-0.5-0.8-1-1.1-1.6L516.4,671.3z"/>
	</g>
	<g transform="matrix(1.1838,0.676507,-1.0363,0.591592,488.65,-617.921)">
		<path fill="#FFE7A1" d="M510,663.2c0-0.5,0.1-1,0.2-1.5c0.5-1.6,1.8-2.8,3.4-3.3l0.7-0.2c4.1-0.6,8.4-1.2,11.1-1.6
			c0.4-0.1,0.8-0.2,1.2-0.3l0.5-0.2l0.5-0.3c0.7-0.5,1.3-1.1,1.7-1.9l1.8-3.7l3.2-6.4c0.9-1.7,2.6-2.8,4.6-2.8l0,0
			c0.4,0,0.8,0,1.2,0.2l0.9,0.3l4.4,8.9c0.4,0.8,0.9,1.4,1.6,1.9c0.3,0.2,0.6,0.4,0.9,0.5l0.6,1.1c0.7,1.5,2.2,2.5,3.8,2.8l11.1,1.6
			c0.4,0.1,0.7,0.1,1.1,0.3c0.3,1.3,0.1,2.7-0.6,3.8l-0.8,1l-8,7.8c-1.2,1.2-1.7,2.9-1.5,4.5c0.5,2.7,1.2,7,1.9,11.1l0.1,0.7
			c0,0.5,0,1-0.2,1.4l-0.2,0.7c-0.4,0.9-0.9,1.6-1.7,2.2c-0.2,0.2-0.4,0.3-0.7,0.4c-0.8,0.4-1.6,0.6-2.5,0.5c-0.8,0-1.5-0.2-2.2-0.6
			c-3.6-1.9-7.5-3.9-9.9-5.2c-0.4-0.2-0.8-0.3-1.2-0.4l-1.2-0.1l-0.6,0.1c-0.6,0-1.2,0.2-1.7,0.5c-2.4,1.3-6.3,3.3-9.9,5.2l-1,0.4
			c-0.7,0.2-1.4,0.2-2.2,0.1l-1.1-0.3l-0.1-1c0-0.3,0-0.7,0.1-1.1c0.7-4,1.4-8.4,1.9-11.1c0.3-1.6-0.3-3.3-1.5-4.5l-2-2L517,672
			c-0.2-0.3-0.4-0.5-0.6-0.7l-6-5.9C510.1,664.7,509.9,664,510,663.2z"/>
	</g>
	<g transform="matrix(1.1838,0.676507,-1.0363,0.591592,488.65,-617.921)">
		<path fill="#E09601" d="M561,657.9l2.3,0.3c0.4,0.1,0.8,0.2,1.1,0.3c-0.4-0.2-0.7-0.3-1.1-0.3L561,657.9z"/>
	</g>
	<g transform="matrix(1.1838,0.676507,-1.0363,0.591592,488.65,-617.921)">
		<path fill="#E09601" d="M521,678.1c0,0.4,0,0.8-0.1,1.2c-0.5,2.7-1.2,7-1.9,11.1l1.9-11.1L521,678.1z"/>
	</g>
	<g transform="matrix(1.1838,0.676507,-1.0363,0.591592,488.65,-617.921)">
		<path fill="#E09601" d="M520.5,676.3c-0.3-0.6-0.6-1.1-1.1-1.5l-2-2l2,2c0.6,0.6,1,1.3,1.3,2.1L520.5,676.3z"/>
	</g>
	<g transform="matrix(1.1838,0.676507,-1.0363,0.591592,488.65,-617.921)">
		<path fill="#E09601" d="M531.1,650.1l-1.8,3.7c-0.4,0.8-1,1.4-1.7,1.9c0.7-0.5,1.3-1.1,1.7-1.9L531.1,650.1z"/>
	</g>
	<g transform="matrix(1.1838,0.676507,-1.0363,0.591592,488.65,-617.921)">
		<path fill="#E09601" d="M526.6,656.3l0.5-0.2L526.6,656.3z"/>
	</g>
	<g transform="matrix(1.1838,0.676507,-1.0363,0.591592,488.65,-617.921)">
		<path fill="#E09601" d="M540,641.1c-0.4-0.1-0.8-0.2-1.2-0.2l1,0.1L540,641.1z"/>
	</g>
	<g transform="matrix(1.1838,0.676507,-1.0363,0.591592,488.65,-617.921)">
		<path fill="#E09601" d="M510,663.2c0-0.5,0.1-1,0.2-1.5c0.5-1.6,1.8-2.8,3.4-3.3c-1.6,0.5-2.9,1.7-3.4,3.3
			C510,662.2,509.9,662.7,510,663.2z"/>
	</g>
	<g transform="matrix(1.1838,0.676507,-1.0363,0.591592,488.65,-617.921)">
		<path fill="#E09601" d="M555.5,687.6c0,0.5,0,1-0.2,1.4l-0.2,0.7C555.4,689,555.5,688.3,555.5,687.6z"/>
	</g>
	<g transform="matrix(1.1838,0.676507,-1.0363,0.591592,488.65,-617.921)">
		<path fill="#E09601" d="M550.2,692.8c0.9,0,1.7-0.2,2.5-0.5C551.9,692.6,551.1,692.8,550.2,692.8z"/>
	</g>
	<g transform="matrix(1.1838,0.676507,-1.0363,0.591592,488.65,-617.921)">
		<path fill="#E09601" d="M535.1,686.5c0.6-0.1,1.3-0.1,1.9,0.1l-1.2-0.1L535.1,686.5z"/>
	</g>
	<g transform="matrix(1.1838,0.676507,-1.0363,0.591592,488.65,-617.921)">
		<path fill="#E09601" d="M520.2,692.7c0.7,0.1,1.5,0.1,2.2-0.1l1-0.4c-1.3,0.7-2.9,0.8-4.2,0.2L520.2,692.7z"/>
	</g>
	<g transform="matrix(1.1838,0.676507,-1.0363,0.591592,488.65,-617.921)">
		<path fill="#E09601" d="M546.9,652.2c-0.4-0.3-0.8-0.7-1.1-1.1l0.6,0.7L546.9,652.2z"/>
	</g>
	<g transform="matrix(1.1838,0.676507,-1.0363,0.591592,488.65,-617.921)">
		<path fill="#E09601" d="M517,672l0.5,0.8L517,672z"/>
	</g>
	<g transform="matrix(1.1212,0.647323,-1.15857,0.712357,758.249,-666.846)">
		<path fill="#0850A5" d="M501.4,817.5c-3-0.6-6-0.6-9,0l-1.3,3.9c-2.8,0.9-5.4,2.3-7.5,4.3l-4-0.8c-2,2.3-3.5,4.9-4.5,7.8l2.7,3.1
			c-0.6,2.9-0.6,5.8,0,8.7l-2.7,3.1c1,2.9,2.5,5.5,4.5,7.8l4-0.8c2.1,2,4.7,3.5,7.5,4.3l1.3,3.9c3,0.6,6,0.6,9,0l1.3-3.9
			c2.8-0.9,5.4-2.3,7.5-4.3l4,0.8c2-2.3,3.5-4.9,4.5-7.8l-2.7-3.1c0.6-2.9,0.6-5.8,0-8.7l2.7-3.1c-1-2.9-2.5-5.5-4.5-7.8l-4,0.8
			c-2.1-2-4.7-3.5-7.5-4.3L501.4,817.5z M496.9,835.5c2.6,0,4.6,2.1,4.6,4.6s-2.1,4.6-4.6,4.6c-2.5,0-4.6-2.1-4.6-4.6
			S494.3,835.5,496.9,835.5z"/>
	</g>
	<g transform="matrix(1,0,0,1,-26.3924,-35.9898)">
		<path fill="#7DC1EF" d="M332.1,289.2c0.7-1.8,1.8-3.6,3.2-5.3l6.6-0.4c2.6-2.5,6-4.6,10-6.2l0.5-4c4.4-1.4,9.2-2.3,14.1-2.6
			l3.6,3.2c4.7,0,9.3,0.6,13.4,1.8l6-1.9c3.2,1.2,6,2.7,8.4,4.4l-1.3,1.5c0.5,0.6,1,1.2,1.4,1.8l-1.4,1.7c2.1,2.4,3.3,5.1,3.4,7.9
			l4.6,1.7c-0.7,1.8-1.8,3.6-3.2,5.3l-6.6,0.4c-2.6,2.5-6,4.6-10,6.2l-0.5,4c-4.4,1.4-9.2,2.3-14.1,2.6l-3.6-3.2
			c-4.7,0-9.3-0.6-13.4-1.8l-6,1.9c-3.2-1.2-6-2.7-8.4-4.4l1.3-1.5c-0.5-0.6-1-1.2-1.4-1.8l1.4-1.7c-2.1-2.4-3.3-5.1-3.4-7.9
			L332.1,289.2z M375.2,290.7c1.1-1.6,0.7-3.5-1.5-4.8c-2.9-1.7-7.6-1.5-10.5,0.3c-2.3,1.4-2.8,3.4-1.7,5c-1.1,1.6-0.7,3.5,1.5,4.8
			c2.9,1.7,7.6,1.5,10.5-0.3C375.9,294.3,376.4,292.3,375.2,290.7z"/>
	</g>
	<g transform="matrix(4.47933,2.60845,-4.91965,2.84036,-1687.1,-6495.46)">
		
			<text transform="matrix(0.176 0 0 0.176 1564.5997 940.137)" fill="#FEFFFE" font-family="'Montserrat-Black'" font-size="40.9014px">S</text>
		
			<text transform="matrix(0.176 0 0 0.176 1570.2096 940.1367)" fill="#FEFFFE" font-family="'Montserrat-Black'" font-size="40.9014px">K</text>
		
			<text transform="matrix(0.176 0 0 0.176 1575.9768 940.1368)" fill="#FEFFFE" font-family="'Montserrat-Black'" font-size="40.9014px">D</text>
		
			<text transform="matrix(0.176 0 0 0.176 1564.5996 947.3367)" fill="#FEFFFE" font-family="'Montserrat-Light'" font-size="40.9014px">D</text>
		
			<text transform="matrix(0.176 0 0 0.176 1571.0735 947.3364)" fill="#FEFFFE" font-family="'Montserrat-Light'" font-size="40.9014px">E</text>
		
			<text transform="matrix(0.176 0 0 0.176 1576.5518 947.3366)" fill="#FEFFFE" font-family="'Montserrat-Light'" font-size="40.9014px">V</text>
		
			<text transform="matrix(0.176 0 0 0.176 1564.5997 954.5367)" fill="#FEFFFE" font-family="'Montserrat-Black'" font-size="40.9014px">03</text>
	</g>
	<g transform="matrix(4.47933,2.60845,-4.91965,2.84036,-1847.22,-6403.01)">
		
			<text transform="matrix(0.176 0 0 0.176 1564.4819 927.0108)" fill="#FEFFFE" font-family="'Montserrat-Light'" font-size="13.8281px">uX/UI Design</text>
	</g>
	<g transform="matrix(4.47933,2.60845,-4.91965,2.84036,-2270.62,-6131.88)">
		
			<text transform="matrix(0.176 0 0 0.176 1562.4272 890.7151)" fill="#FEFFFE" font-family="'Montserrat-Light'" font-size="13.8281px">Learn more</text>
		
			<text transform="matrix(0.176 0 0 0.176 1562.4272 893.1492)" fill="#FEFFFE" font-family="'Montserrat-Light'" font-size="13.8281px">Buddy</text>
	</g>
	<g transform="matrix(1,0,0,1,-28.5715,-35.1181)">
		<path fill="#C2DFF7" d="M564.6,201.1l-7.3,4.2l51.3,29.6l7.3-4.2L564.6,201.1z"/>
	</g>
	<g transform="matrix(1,0,0,1,-579.707,141.027)">
		<path fill="#C2DFF7" d="M785.1,130.6l-7.3,4.2l51.3,29.6l7.3-4.2L785.1,130.6z"/>
	</g>
	<g transform="matrix(1,0,0,1,-50.4889,-22.4641)">
		<path fill="#C2DFF7" d="M573.4,196l-7.3,4.2l51.3,29.6l7.3-4.2L573.4,196z"/>
	</g>
	<g transform="matrix(1,0,0,1,-601.625,153.681)">
		<path fill="#C2DFF7" d="M793.9,125.6l-7.3,4.2l51.3,29.6l7.3-4.2L793.9,125.6z"/>
	</g>
	<g transform="matrix(1,0,0,1,-72.4062,-9.81015)">
		<path fill="#C2DFF7" d="M582.2,190.9l-7.3,4.2l51.3,29.6l7.3-4.2L582.2,190.9z"/>
	</g>
	<g transform="matrix(1,0,0,1,-623.542,166.335)">
		<path fill="#C2DFF7" d="M802.6,120.5l-7.3,4.2l51.3,29.6l7.3-4.2L802.6,120.5z"/>
	</g>
	<g transform="matrix(1,0,0,1,-26.3924,-35.9898)">
		<path fill="#004D98" d="M409.5,264.3l-11.9-6.9l-1.6,3.1c-0.6,1-1.1,0.9-1.6,0.9c-1.1-0.1-1.8-1.3-1.3-2.4l30.2-57.9
			c0.5-0.8,0.6-0.9,1.6-0.9c1.1,0.1,1.8,1.3,1.3,2.4l-1.2,2.2l11.9,6.9l1.1-2.1c0.5-0.8,0.6-0.9,1.6-0.9c1.1,0.1,1.8,1.3,1.3,2.4
			L410.7,269c-0.9,1.4-3.9,0.7-2.9-1.5L409.5,264.3z M414.7,254.4l-11.9-6.9l-3.7,7l11.9,6.9L414.7,254.4z M419.9,244.4l-11.9-6.9
			l-3.7,7l11.9,6.9L419.9,244.4z M425,234.5l-11.9-6.9l-3.7,7l11.9,6.9L425,234.5z M430.2,224.6l-11.9-6.9l-3.7,7l11.9,6.9
			L430.2,224.6z M435.4,214.6l-11.9-6.9l-3.7,7l11.9,6.9L435.4,214.6z"/>
	</g>
	<g transform="matrix(1,0,0,1,-26.3924,-35.9898)">
		<path fill="#FECB31" d="M574.5,78.2l16.3,32.7l-16.3,19.3l-16.3-19.3L574.5,78.2z"/>
	</g>
	<g transform="matrix(1,0,0,1,288.446,684.172)">
		<path fill="#007EFA" d="M448.6-209.9l16.4,32.7l-16.4,19.3l-16.4-19.3L448.6-209.9z"/>
	</g>
	<g transform="matrix(1,0,0,1,-787.252,535.499)">
		<path fill="#F8576A" d="M878.9-150.4l16.4,32.7l-16.4,19.3l-16.3-19.3L878.9-150.4z"/>
	</g>
	<g transform="matrix(1,0,0,1,-836.81,220.66)">
		<path fill="#6AEF67" d="M898.7,6.6l16.3,32.7l-16.3,19.3l-16.4-19.3L898.7,6.6z"/>
	</g>
	<g transform="matrix(1,0,0,1,261.885,17.246)">
		<path fill="#9C57D7" d="M459.2,56.9l16.4,32.7l-16.4,19.3l-16.4-19.3L459.2,56.9z"/>
	</g>
	<g transform="matrix(1,0,0,1,-26.3924,-35.9898)">
		<path fill="#E09601" d="M590.9,110.8l-16.3,19.3v-52L590.9,110.8z"/>
	</g>
	<g transform="matrix(1,0,0,1,288.446,684.172)">
		<path fill="#0055A8" d="M465-177.2l-16.4,19.3v-52L465-177.2z"/>
	</g>
	<g transform="matrix(1,0,0,1,-787.252,535.499)">
		<path fill="#F10A25" d="M895.2-117.7l-16.4,19.3v-52L895.2-117.7z"/>
	</g>
	<g transform="matrix(1,0,0,1,-836.81,220.66)">
		<path fill="#16CEB0" d="M915.1,39.3l-16.3,19.3v-52L915.1,39.3z"/>
	</g>
	<g transform="matrix(1,0,0,1,261.885,17.246)">
		<path fill="#A114E1" d="M475.6,89.6l-16.4,19.3v-52L475.6,89.6z"/>
	</g>
</g>
</svg>
