<?xml version="1.0" encoding="utf-8"?>
<!-- Generator: Adobe Illustrator 23.0.3, SVG Export Plug-In . SVG Version: 6.00 Build 0)  -->
<svg version="1.1" id="Layer_1" xmlns="http://www.w3.org/2000/svg" xmlns:xlink="http://www.w3.org/1999/xlink" x="0px" y="0px"
	 viewBox="0 0 895.7 679.4" style="enable-background:new 0 0 895.7 679.4;" xml:space="preserve">
<style type="text/css">
	.st0{fill:#18FFFF;}
	.st1{fill:#2962FF;}
	.st2{fill:#546E7A;}
	.st3{fill:#FDBF14;}
	.st4{fill:#76FF03;}
	.st5{fill:#CDD5D7;}
	.st6{fill:#E5E8EC;}
	.st7{fill:#FFFFFF;}
	.st8{fill:#596273;}
	.st9{fill:#F3F3F3;}
	.st10{fill:#D9E1E4;}
	.st11{fill:none;stroke:#D9E1E4;stroke-width:3.5837;}
	.st12{fill:#FFCA28;}
	.st13{fill:#FFFF00;}
	.st14{fill:none;stroke:#FFFFFF;stroke-width:3.5837;}
	.st15{fill:#FF5931;}
	.st16{fill:none;stroke:#D8E5ED;stroke-width:7.4011;}
	.st17{fill:#4E99FF;}
	.st18{fill:#D8E5ED;}
	.st19{fill:none;stroke:#B6C2C9;stroke-width:7.4011;}
</style>
<path class="st0" d="M895.7,209.2c-38.2-19.6-77-38.1-115.1-38.3c-128.5-3.4-200.4-30.7-254-59.1c-53.8-29.1-89.1-59.2-149.1-82.6
	C319.5,7,277.1,4.9,241.7,14.2c-35.1,9.3-63.2,30-84.4,54.3C114,117.7,102.7,178,127.8,209.9c22.3,28.8,44.9,57.4,40.4,90.3
	c-5.1,33.6-106.7,62-130.7,143.5S168.7,605.3,185,611.3c149.4,37.8,346.4,60,520.3,40.6c64.8-7.3,128.3-15.9,190.3-27.1V209.2z"/>
<title>av</title>
<g>
	<g>
		<path class="st1" d="M302.8,499.8c0,37.5-30.4,67.9-67.9,67.9c-37.5,0-67.9-30.4-67.9-67.9s30.4-67.9,67.9-67.9
			C272.4,431.9,302.8,462.3,302.8,499.8z"/>
		<g>
			<path class="st2" d="M785.8,66.6C765,41,736.5,26.7,703.6,25.1c-2-0.1-4.1-0.2-6.2-0.2h0c0,0,0,0,0,0c-12.6,0-23.3,1.7-35.4,5.6
				c-0.3,0.1-0.6,0.2-0.9,0.3c0.3-0.1,0.6-0.2,0.9-0.3l10.9,33.6c7.7-2.5,15.9-3.9,24.5-3.9h0c26.3,0,49.7,12.9,64.1,32.7L790,72.1
				C788.7,70.2,787.2,68.4,785.8,66.6z"/>
			<path class="st3" d="M761.5,92.9c9.5,13.1,15.1,29.1,15.1,46.5h35.3l0,0v0c0,2.1-0.1,4.1-0.2,6.2c0,0.1,0,0.2,0,0.3
				c0.1-2.1,0.2-4.3,0.2-6.4c0-24.6-7.8-47.5-21-66.1c-1.6-2.3-2.2-3.1-0.9-1.2L761.5,92.9z"/>
			<path class="st4" d="M743.9,203.5c-13.1,9.5-29.1,15.1-46.5,15.1c-43.7,0-79.2-35.5-79.2-79.2c0-35.2,23-65,54.7-75.3L662,30.5
				c-0.3,0.1-0.6,0.2-0.9,0.3c-1.4,0.5-2.8,1-4.2,1.5c-0.4,0.1-0.8,0.3-1.2,0.5c-43.1,16.6-71,55.7-72.7,102c0,1.1-0.1,2.2-0.1,3.3
				c0,0.5,0,1,0,1.4c0,0.1,0,0.2,0,0.3c0,1.5,0,3.1,0.1,4.6c0,0.5,0,0.9,0.1,1.4c0.1,1.2,0.2,2.4,0.3,3.6c0.1,0.8,0.1,1.7,0.2,2.5
				c0.1,0.7,0.2,1.3,0.2,2c0.2,1.4,0.3,2.7,0.6,4.1c0,0.1,0,0.1,0,0.2c1.6,9.7,4.4,19.1,8.3,27.8c0.5,1.1,1,2.2,1.5,3.2
				c0,0,0,0.1,0,0.1c16.9,34.9,50.9,60,91.2,64.2c0.2,0,0.5,0,0.7,0.1c1.3,0.1,2.7,0.2,4.1,0.3c0.7,0,1.4,0.1,2.1,0.1
				c0.9,0,1.8,0.1,2.8,0.1c0.8,0,1.6,0.1,2.4,0.1c25.2,0,48.4-8.1,67.3-21.9L743.9,203.5z"/>
			<path class="st1" d="M770,228c24.2-19.6,38.4-46.1,41.3-76.8c0-0.2,0-0.4,0.1-0.6c0.1-1.6,0.3-3.1,0.4-4.7c0-0.1,0-0.2,0-0.3
				c0.1-2,0.2-4.1,0.2-6.2v0h-35.3l0,0c0,26.3-12.9,49.7-32.7,64.1l20.8,28.6l0,0c0,0,0,0,0,0C766.5,230.7,768.3,229.4,770,228z"/>
		</g>
		<g>
			<polygon class="st5" points="289,184.6 289,184.6 281.4,184.6 281.4,184.6 281.4,159.8 281.4,159.8 289,159.8 289,159.8 			"/>
			<polygon class="st5" points="289,249.9 289,249.9 281.4,249.9 281.4,249.9 281.4,208 281.4,208 289,208 289,208 			"/>
			<polygon class="st5" points="289,299.7 289,299.7 281.4,299.7 281.4,299.7 281.4,259.7 281.4,259.7 289,259.7 289,259.7 			"/>
			<path class="st5" d="M559.5,614.2c0,22.2-18.2,40.4-40.4,40.4H324.7c-22.2,0-40.4-18.2-40.4-40.4V126.5
				c0-22.2,18.2-40.4,40.4-40.4h194.4c22.2,0,40.4,18.2,40.4,40.4V614.2z"/>
			<path class="st6" d="M324.7,648.9c-19.1,0-34.7-15.6-34.7-34.7V126.5c0-19.1,15.6-34.7,34.7-34.7h194.4
				c19.2,0,34.7,15.6,34.7,34.7v487.7c0,19.1-15.6,34.7-34.7,34.7H324.7z"/>
			<rect x="302.2" y="157.8" class="st7" width="239.5" height="426.8"/>
			<g>
				<path class="st8" d="M383.7,123.4c0,3-2.5,5.4-5.4,5.4c-3,0-5.4-2.4-5.4-5.4c0-3,2.4-5.5,5.4-5.5
					C381.2,117.9,383.7,120.3,383.7,123.4z"/>
				<path class="st8" d="M425,104.4c0,1.9-1.6,3.5-3.5,3.5c-1.9,0-3.5-1.6-3.5-3.5s1.6-3.5,3.5-3.5C423.4,100.9,425,102.5,425,104.4
					z"/>
				<path class="st8" d="M443,122.8c0,1.4-1.2,2.6-2.6,2.6h-37.3c-1.4,0-2.6-1.2-2.6-2.6l0,0c0-1.4,1.2-2.6,2.6-2.6h37.3
					C441.9,120.2,443,121.4,443,122.8L443,122.8z"/>
			</g>
			<path class="st5" d="M443.7,619.9c0,2.6-2.1,4.7-4.7,4.7h-34.2c-2.6,0-4.7-2.1-4.7-4.7v-9.3c0-2.6,2.1-4.7,4.7-4.7H439
				c2.6,0,4.7,2.1,4.7,4.7V619.9z"/>
		</g>
		<g>
			<g>
				<rect x="318.7" y="270.6" class="st9" width="205.5" height="39.7"/>
				<rect x="318.7" y="270.6" class="st10" width="40.5" height="39.7"/>
				<line class="st11" x1="374.4" y1="285.7" x2="470.6" y2="285.7"/>
				<line class="st11" x1="374.4" y1="296.3" x2="443.6" y2="296.3"/>
				<line class="st11" x1="490.9" y1="290.3" x2="512.6" y2="290.3"/>
			</g>
			<g>
				<rect x="318.7" y="312.2" class="st7" width="205.5" height="39.7"/>
				<rect x="318.7" y="312.2" class="st9" width="40.5" height="39.7"/>
				<line class="st11" x1="374.4" y1="327.3" x2="470.6" y2="327.3"/>
				<line class="st11" x1="374.4" y1="337.9" x2="443.6" y2="337.9"/>
				<line class="st11" x1="490.9" y1="331.9" x2="512.6" y2="331.9"/>
			</g>
			<g>
				<rect x="318.7" y="353.8" class="st9" width="205.5" height="39.7"/>
				<rect x="318.7" y="353.8" class="st10" width="40.5" height="39.7"/>
				<line class="st11" x1="374.4" y1="368.9" x2="470.6" y2="368.9"/>
				<line class="st11" x1="374.4" y1="379.5" x2="443.6" y2="379.5"/>
				<line class="st11" x1="490.9" y1="373.6" x2="512.6" y2="373.6"/>
			</g>
			<g>
				<rect x="318.7" y="395.4" class="st7" width="205.5" height="39.7"/>
				<rect x="318.7" y="395.4" class="st9" width="40.5" height="39.7"/>
				<line class="st11" x1="374.4" y1="410.6" x2="470.6" y2="410.6"/>
				<line class="st11" x1="374.4" y1="421.1" x2="443.6" y2="421.1"/>
				<line class="st11" x1="490.9" y1="415.2" x2="512.6" y2="415.2"/>
			</g>
			<g>
				<rect x="352.1" y="437.1" class="st12" width="205.5" height="39.7"/>
				<rect x="352.1" y="437.1" class="st13" width="40.5" height="39.7"/>
				<line class="st14" x1="407.8" y1="452.2" x2="504" y2="452.2"/>
				<line class="st14" x1="407.8" y1="462.8" x2="477" y2="462.8"/>
				<line class="st14" x1="524.2" y1="456.8" x2="546" y2="456.8"/>
			</g>
			<g>
				<rect x="318.7" y="478.7" class="st7" width="205.5" height="39.7"/>
				<rect x="318.7" y="478.7" class="st9" width="40.5" height="39.7"/>
				<line class="st11" x1="374.4" y1="493.8" x2="470.6" y2="493.8"/>
				<line class="st11" x1="374.4" y1="504.4" x2="443.6" y2="504.4"/>
				<line class="st11" x1="490.9" y1="498.4" x2="512.6" y2="498.4"/>
			</g>
			<g>
				<rect x="318.7" y="520.3" class="st9" width="205.5" height="39.7"/>
				<rect x="318.7" y="520.3" class="st10" width="40.5" height="39.7"/>
				<line class="st11" x1="374.4" y1="535.4" x2="470.6" y2="535.4"/>
				<line class="st11" x1="374.4" y1="546" x2="443.6" y2="546"/>
				<line class="st11" x1="490.9" y1="540.1" x2="512.6" y2="540.1"/>
			</g>
		</g>
		<g>
			<path class="st4" d="M690.5,482c15.7,9.1,15.7,23.9,0,32.9l-77.4,44.7c-15.7,9.1-28.5,1.6-28.5-16.5v-89.3
				c0-18.1,12.8-25.5,28.5-16.5L690.5,482z"/>
			<g>
				<path class="st7" d="M635.8,511.7c2.3,6.5-3.2,14.3-12.2,17.4c-9,3.2-18.1,0.5-20.4-6c-2.3-6.5,3.2-14.3,12.2-17.4
					C624.4,502.5,633.5,505.2,635.8,511.7z"/>
				<g>
					<polygon class="st7" points="636.2,514.2 623.9,514.2 623.9,456.9 651.4,472.3 645.4,483.1 636.2,477.9 					"/>
				</g>
			</g>
		</g>
		<g>
			<polygon class="st15" points="211.5,193.2 211.5,228.8 252.7,264.5 252.7,157.5 			"/>
			<path class="st15" d="M215.7,264.5c0,6.8-5.5,12.3-12.3,12.3h-107c-6.8,0-12.3-5.5-12.3-12.3v-107c0-6.8,5.5-12.3,12.3-12.3h107
				c6.8,0,12.3,5.5,12.3,12.3V264.5z"/>
			<polygon class="st7" points="141.6,190.4 141.6,231.6 170.4,211 			"/>
		</g>
		<g>
			<path class="st9" d="M774.5,394.9c0,5-4.1,9.1-9.1,9.1H350.8c-5,0-9.1-4.1-9.1-9.1v-79.3c0-5,4.1-9.1,9.1-9.1h414.6
				c5,0,9.1,4.1,9.1,9.1V394.9z"/>
			<path class="st12" d="M444.2,306.5h-93.3c-5,0-9.1,4.1-9.1,9.1v79.3c0,5,4.1,9.1,9.1,9.1h93.3V306.5z"/>
			<g>
				<g>
					<line class="st16" x1="470.6" y1="337.1" x2="572.8" y2="337.1"/>
					<line class="st16" x1="583.8" y1="337.1" x2="636.2" y2="337.1"/>
					<line class="st16" x1="530.1" y1="356.9" x2="570.9" y2="356.9"/>
					<line class="st16" x1="547.9" y1="376.7" x2="570.9" y2="376.7"/>
					<line class="st16" x1="509.8" y1="356.9" x2="519.2" y2="356.9"/>
					<line class="st16" x1="470.9" y1="356.9" x2="500.5" y2="356.9"/>
					<line class="st16" x1="470.9" y1="376.7" x2="538.8" y2="376.7"/>
					<line class="st16" x1="581.4" y1="356.9" x2="632.1" y2="356.9"/>
					<line class="st16" x1="579.3" y1="376.7" x2="634.2" y2="376.7"/>
				</g>
			</g>
			<g>
				<path class="st7" d="M383.6,373.7h-8.5v-23.2l0.1-3.8l0.1-4.2c-1.4,1.4-2.4,2.3-2.9,2.8l-4.6,3.7l-4.1-5.1l12.9-10.3h7V373.7z"
					/>
				<path class="st7" d="M407,333.1c3.8,0,6.9,0.9,9.3,2.6c2.3,1.7,3.5,4.1,3.5,7.1c0,2-0.6,3.9-1.7,5.5c-1.1,1.6-3,3-5.5,4.3
					c3,1.6,5.1,3.3,6.4,5c1.3,1.7,2,3.7,2,5.7c0,3.3-1.3,5.9-3.9,7.9c-2.6,2-6,3-10.2,3c-4.4,0-7.8-0.9-10.3-2.8
					c-2.5-1.9-3.7-4.5-3.7-7.9c0-2.3,0.6-4.3,1.8-6.1c1.2-1.8,3.2-3.3,5.8-4.7c-2.3-1.4-3.9-3-4.9-4.6c-1-1.6-1.5-3.4-1.5-5.4
					c0-2.9,1.2-5.2,3.6-7C400.1,334,403.2,333.1,407,333.1z M400.8,363c0,1.6,0.5,2.8,1.6,3.7c1.1,0.9,2.6,1.3,4.5,1.3
					c2.1,0,3.7-0.5,4.7-1.4c1-0.9,1.6-2.1,1.6-3.6c0-1.2-0.5-2.4-1.5-3.4c-1-1.1-2.7-2.2-5-3.4C402.7,358,400.8,360.3,400.8,363z
					 M407,339.3c-1.4,0-2.6,0.4-3.5,1.1c-0.9,0.7-1.3,1.7-1.3,3c0,1.1,0.4,2.1,1.1,2.9c0.7,0.9,2,1.8,3.8,2.7c1.8-0.8,3-1.7,3.8-2.6
					c0.7-0.9,1.1-1.9,1.1-3c0-1.3-0.5-2.3-1.4-3C409.6,339.7,408.4,339.3,407,339.3z"/>
			</g>
			<path class="st17" d="M674.9,328.6c-13.8,0-24.9,11.2-24.9,24.9c0,13.8,11.2,24.9,24.9,24.9c13.8,0,24.9-11.2,24.9-24.9
				C699.8,339.8,688.6,328.6,674.9,328.6z"/>
			<polygon class="st7" points="685.5,361 677.1,352.6 677.1,337.7 672.6,337.7 672.6,354.5 682.3,364.2 			"/>
		</g>
		<g>
			<path class="st7" d="M265.7,532.7v-8.2c0-9.1-7.4-16.5-16.5-16.5h-28.8c-9.1,0-16.5,7.4-16.5,16.5v8.2H265.7z"/>
			<path class="st7" d="M249.3,481.3c0-8-6.5-14.4-14.4-14.4c-8,0-14.4,6.5-14.4,14.4c0,8,6.4,14.4,14.4,14.4
				C242.8,495.7,249.3,489.2,249.3,481.3z"/>
		</g>
		<path class="st15" d="M735.7,257.7c-19.6,0-35.5,15.9-35.5,35.5c0,19.6,35.5,73.4,35.5,73.4s35.5-53.8,35.5-73.4
			C771.2,273.6,755.3,257.7,735.7,257.7z M735.7,305.7c-5.8,0-10.5-4.7-10.5-10.5c0-5.8,4.7-10.5,10.5-10.5
			c5.8,0,10.5,4.7,10.5,10.5C746.2,301,741.5,305.7,735.7,305.7z"/>
		<g>
			<g>
				<path class="st18" d="M635.5,216.2c0,18.3-15,33.3-33.3,33.3H347.8c-18.3,0-33.3-15-33.3-33.3v-9c0-18.3,15-33.3,33.3-33.3
					h254.5c18.3,0,33.3,15,33.3,33.3V216.2z"/>
			</g>
			<line class="st19" x1="350.1" y1="211.7" x2="509.3" y2="211.7"/>
			<g>
				<path class="st19" d="M605.3,207.6c0,9.1-7.4,16.5-16.5,16.5c-9.1,0-16.5-7.4-16.5-16.5c0-9.1,7.4-16.5,16.5-16.5
					C598,191.1,605.3,198.5,605.3,207.6z"/>
				<line class="st19" x1="597.1" y1="219.9" x2="609.5" y2="232.3"/>
			</g>
		</g>
		<path class="st15" d="M309.7,454.2c0,14.6-11.8,26.4-26.4,26.4s-26.4-11.8-26.4-26.4c0-14.6,11.8-26.4,26.4-26.4
			S309.7,439.6,309.7,454.2z"/>
	</g>
</g>
</svg>
