<?xml version="1.0" encoding="utf-8"?>
<!-- Generator: Adobe Illustrator 23.0.3, SVG Export Plug-In . SVG Version: 6.00 Build 0)  -->
<svg version="1.1" id="Layer_1" xmlns="http://www.w3.org/2000/svg" xmlns:xlink="http://www.w3.org/1999/xlink" x="0px" y="0px"
	 viewBox="0 0 900 765" style="enable-background:new 0 0 900 765;" xml:space="preserve">
<style type="text/css">
	.st0{fill:#2962FF;}
	.st1{fill:#86C0F0;}
	.st2{fill:#2C7DEA;}
	.st3{fill:#FFFF00;}
	.st4{fill:#2C7FEA;}
	.st5{fill:#FFFFFF;}
	.st6{fill:#18304C;}
	.st7{fill:#194866;}
	.st8{fill:#76FF03;}
	.st9{fill:#E6EFF3;}
	.st10{fill:#D0DAE9;}
	.st11{fill:#FFED55;}
	.st12{fill:#00477D;}
	.st13{fill:#ADBDDC;}
	.st14{fill:#D8DFE2;}
	.st15{fill:#EEF5FD;}
	.st16{fill-rule:evenodd;clip-rule:evenodd;fill:#E6EFF3;}
	.st17{opacity:0.55;fill:#40C8CB;}
	.st18{fill:#FCD2C5;}
	.st19{fill:#F3F3F3;}
	.st20{fill:#203A60;}
	.st21{fill:#FF52A8;}
	.st22{fill:#001F46;}
	.st23{fill:#B0BEC5;}
	.st24{fill:#CFD8DC;}
	.st25{fill:#ECEFF1;}
	.st26{fill:#FA007D;}
	.st27{fill:#0E2529;}
	.st28{fill:#D3E1EA;}
	.st29{fill:#00DEFF;}
	.st30{opacity:0.55;fill:#3EC7C9;}
	.st31{fill:#86C0F2;}
	.st32{fill:#00B3FF;}
	.st33{fill:#D50000;}
	.st34{fill:#FDD835;}
	.st35{fill:#FF6F00;}
</style>
<path class="st0" d="M900,146.4c-4.1-3.7-8.1-7.4-12.1-11c-68.7-63.3-143.3-88.7-242.3-80C634.1,56.8,573,58,507.7,76.6
	C444,95.3,376,131.3,388.2,202.3c15.4,74.9,8.2,120.9-22.2,154.6c-30,33.7-83.3,55-148.8,79.9c-69.2,26-158,91.3-163.9,146.3
	C45.6,639,121,684.4,340.7,692.7C552,703.2,613.3,639.9,900,716.4V146.4z"/>
<g>
	<g>
		<path class="st1" d="M749.8,438.7H568.3c-8,0-14.5,6.5-14.5,14.5v37.4c0,43.6,35.4,79,79,79h52.5c43.6,0,79-35.4,79-79v-37.4
			C764.3,445.2,757.8,438.7,749.8,438.7z"/>
		<path class="st2" d="M749.8,438.7H568.3c-8,0-14.5,6.5-14.5,14.5v15.1h120.9c8.3,0,15,6.7,15,15c0,8.3-6.7,15-15,15H554.2
			c1,10.8,4.2,20.9,9.1,30h109.1c8.3,0,15,6.7,15,15v26.3c42.7-1.1,76.9-36,76.9-78.9v-37.4C764.3,445.2,757.8,438.7,749.8,438.7z"
			/>
		<path class="st3" d="M659.2,48.2c-32.8,0-65.6,9-94.4,27.2c-11,6.9-21.4,15.1-31,24.7c-69.3,69.3-69.3,181.5,0,250.8
			c22.5,22.5,35.3,60.7,34.6,88.8h181.7c-0.7-28.1,12-66.2,34.6-88.8c12.8-12.8,23.2-27.1,31.3-42.3c35.6-67,25.1-152-31.3-208.5
			C750,65.5,704.6,48.2,659.2,48.2z"/>
	</g>
	<g>
		<g>
			<path class="st4" d="M767.7,212.1c0.8-0.3,0.1-4.5-0.1-5.4c-0.6-3.3-1.9-5.6-4-8c-0.3-0.4-0.6-0.4-0.7-0.9
				c-0.1-0.5,0.3-1.4,0.4-1.8c0.2-1.2,0.4-2.3,0.6-3.5c0.4-3.1,0.6-6.3,0.5-9.5c-0.2-6.4-1.6-13.3-6.1-18.1
				c-4.1-4.3-9.2-4.6-14.5-6.2c6.6-2.1,5.6-10.3,4.1-15.5c-2.1-6.8-5.9-13.2-10-19c-4.1-5.8-8.8-11.3-14.2-16
				c-3.3-2.8-10.5-7.8-13.7-1.9c-3.1-8.7-10.6-14.9-19.2-18c-7.4-2.8-19.4-4.5-24.9,2.9c-2.5,3.4-2.4,7.9-1.5,11.8
				c0.2,1,0.5,1.9,1,2.8c0.3,0.5,1.9,2.2,1.9,2.6c0,0.2-1,1-1.1,1.2c-0.7,0.9-1.3,1.8-1.7,2.9c-0.8,2.1-1.1,4.7-0.3,6.7
				c0.3,0.8,1.1,1.5,1.4,2.3c0.3,0.8-0.7,2-1.1,3c-2,4.4-2.6,9.3-2.8,14.1c-0.2,5.1,0.2,10.4,1.7,15.4c1,3.3,2.7,7.1,6.1,8.6
				c-4.3,7.9-8.3,18-5.6,27c2.8,9.2,1.5,20.7,9.1,27.7c-6.2,4.2-7.1,13.4-7,20.2c0.1,8.8,2,17.5,2,26.3c0,4.3-0.3,8.6-1.3,12.8
				c-0.8,3.1-2.4,5.7-3.3,8.7c-2,6.5-0.9,13.5,5.9,16.3c-4,7.8-9.1,22.8,1,28.2c-4.1,5.1-6.1,11.5-5.1,18c0.9,5.9,3.5,11.9,9.2,14.7
				c6,2.9,13.4,1,19.2-1.4c4-1.6,7.8-3.7,11-6.6c2.9-2.6,5-6,8.1-8.5c3.2-2.6,7.1-4,11-5.5c7-2.6,14.5-5.2,19.4-11.1
				c1.1-1.3,1.9-2.7,2.7-4.1c0.6-1.2,0.9-3.7,1.8-4.6c1-1,3.2-1.5,4.4-2.3c1.6-1,3.2-2.3,4.6-3.6c5.7-5.5,9-13,11.1-20.5
				c2.6-9.3,4.6-19.1,6.2-28.6c1.6-9.5,2.5-19.2,2.2-28.9C775.4,228.7,774.6,217.8,767.7,212.1z"/>
		</g>
		<g>
			<g>
				<polygon class="st5" points="716.2,151 716.2,118.1 699.6,97.6 682.7,97.6 676.4,105.5 676.4,114.6 683.2,123 693.4,123 
					701.7,133.2 703.7,131.6 694.6,120.4 684.4,120.4 678.9,113.7 678.9,106.4 684,100.2 698.3,100.2 713.6,119 713.6,150.1 
					705.8,159.7 722.2,179.8 711.6,192.8 711.6,221.1 704.3,230.1 691.8,230.1 691.8,232.7 705.6,232.7 714.2,222 714.2,193.7 
					725.5,179.8 709.1,159.7 				"/>
			</g>
			<g>
				<polygon class="st5" points="695.6,167.4 683.9,167.4 677.3,159.3 677.3,135.9 682,130.1 689.1,130.1 694.4,136.6 694.4,157.4 
					703.7,168.9 705.8,167.2 697,156.5 697,135.6 690.4,127.5 680.8,127.5 674.7,135 674.7,160.2 682.7,170 694.4,170 702.4,179.9 
					712.7,179.9 712.7,177.3 703.7,177.3 				"/>
			</g>
			<g>
				<polygon class="st5" points="683.2,150.7 685.2,152.4 689.3,147.3 695.7,147.3 695.7,144.7 688,144.7 				"/>
			</g>
			<g>
				<polygon class="st5" points="714.9,125.2 714.9,127.8 723.2,127.8 737.6,146 737.6,167.6 740.2,167.6 740.2,145.1 724.5,125.2 
									"/>
			</g>
			<g>
				<polygon class="st5" points="736.7,166.3 727.3,154.8 727.3,144 724.7,144 724.7,155.7 735.5,168.9 747,168.9 752,175.1 
					752,210.7 739.9,210.1 735.8,215.1 737.8,216.7 741,212.8 754.6,213.4 754.6,174.1 748.3,166.3 				"/>
			</g>
			<g>
				<polygon class="st5" points="752.3,212.9 758.8,220.9 758.8,263.5 751.9,272.1 751.9,297.6 738.1,314.4 716.5,314.4 
					705.9,327.5 689.6,327.5 689.6,330.1 707.1,330.1 717.7,317 739.4,317 754.5,298.5 754.5,273 761.4,264.5 761.4,219.9 
					754.3,211.2 				"/>
			</g>
			<g>
				<polygon class="st5" points="718,333.6 711,333.6 698.4,349.1 683.6,349.1 675.8,339.4 675.8,333 683.5,323.5 681.5,321.9 
					673.2,332.1 673.2,340.3 682.4,351.7 699.7,351.7 712.2,336.2 719.2,336.2 735.2,316.6 733.2,314.9 				"/>
			</g>
			<g>
				<polygon class="st5" points="722.1,163.2 720.1,164.9 730.5,177.7 740.5,177.7 740.5,200.6 743.1,200.6 743.1,175.1 
					731.8,175.1 				"/>
			</g>
			<g>
				<polygon class="st5" points="706.4,214.2 702.1,219.4 688.6,219.4 678.2,206.6 678.2,177 684.3,169.5 682.3,167.9 675.6,176.1 
					675.6,207.5 687.4,222 703.4,222 708.9,215.2 708.9,188.5 706.4,188.5 				"/>
			</g>
			<g>
				<polygon class="st5" points="675.9,177.4 686.5,190.4 686.5,205.3 689.1,205.3 689.1,189.5 677.9,175.7 				"/>
			</g>
			<g>
				<polygon class="st5" points="727.6,242.7 720.9,250.8 702.9,250.8 695.3,241.5 685.9,241.5 685.9,244.1 694,244.1 701.7,253.4 
					722.2,253.4 730.2,243.6 730.2,236.3 727.6,236.3 				"/>
			</g>
			<g>
				<polygon class="st5" points="702.9,282.1 691.7,295.9 685.4,295.9 677.9,286.7 677.9,226.1 685.3,217 683.3,215.3 675.3,225.1 
					675.3,287.6 684.2,298.5 692.9,298.5 705.5,283 705.5,267.9 702.9,267.9 				"/>
			</g>
			<g>
				<polygon class="st5" points="691.7,303.8 691.7,316.2 687.8,320.9 680.3,320.9 674.5,313.7 674.5,299 680.8,291.8 678.8,290.1 
					671.9,298 671.9,314.7 679.1,323.5 689.1,323.5 694.3,317.1 694.3,304.7 713.3,281.3 711.3,279.7 				"/>
			</g>
			<g>
				<polygon class="st5" points="678.8,302.5 678.8,315.3 681.4,315.3 681.4,303.5 685.8,298 683.8,296.4 				"/>
			</g>
			<g>
				<polygon class="st5" points="724,264.7 713.9,264.7 708.3,257.8 706.3,259.5 712.7,267.3 725.3,267.3 744.2,244 742.2,242.3 
									"/>
			</g>
			<g>
				<polygon class="st5" points="723.3,278.2 706.3,299.2 708.3,300.8 725.9,279.1 725.9,266 723.3,266 				"/>
			</g>
			<g>
				<polygon class="st5" points="722.9,291.9 724.9,293.6 740.9,273.9 753.2,273.9 753.2,271.3 739.7,271.3 				"/>
			</g>
			<g>
				<polygon class="st5" points="751.1,246.1 731.7,270 733.7,271.6 753.7,247 753.7,226.4 751.1,226.4 				"/>
			</g>
			<g>
				<polygon class="st5" points="692.1,262.6 682.4,262.6 682.4,265.2 693.4,265.2 703.3,253 701.3,251.3 				"/>
			</g>
			<g>
				<polygon class="st5" points="691.5,276.5 684.4,285.1 686.5,286.8 694,277.4 694,263.9 691.5,263.9 				"/>
			</g>
			<g>
				<polygon class="st5" points="730.8,284.3 739.1,294.5 730.7,304.8 732.7,306.4 742.4,294.5 732.8,282.7 				"/>
			</g>
			<g>
				<polygon class="st5" points="681.3,118.2 679.3,116.5 674.9,121.6 674.9,129.3 677.9,132.7 679.9,131 677.5,128.3 677.5,122.6 
									"/>
			</g>
		</g>
		<g>
			<g>
				<path class="st4" d="M651.4,123c6.6-9.1-1-15.4-1-15.4c1.8-1.6,2.9-4.2,3.1-9.1c0.8-18.1-35.5-12.1-42.6,8.1
					c-0.4,1.1-0.8,2.2-1.1,3.3c0,0-0.6-7.7-8.2-4.7c-7.6,3-44.6,48.1-25,53.8c-1.6,0.6-3.4,1.2-5.4,1.6c-21.8,4-13.6,35.5-13.1,37.5
					c-3.5,1.8-5.9,5.8-5.2,13.9c-13.2,8-7.7,46.9-3.7,62.9c3.4,13.8,5.1,35.4,22.1,43.6c3.3,16.2,16.3,18.4,29,23.3
					c12.8,4.9,9.2,12,26.1,18.5c16.8,6.5,24.2-0.5,25.9-12.5c1.4-9.6-4.5-16.3-6.8-18.5c15.2-3.6,3.4-29.1,3.4-29.1
					c11.2-4.3,2.9-18.8,2.9-18.8s-5.4-9.8-1-35.6c4.3-25.2-6.2-29.3-6.7-29.4c7.7-6.3,6.6-19.4,9.7-27.7c3.7-9.7-5.2-27.6-5.2-27.6
					C656.7,157.7,657.3,131.8,651.4,123z"/>
			</g>
		</g>
		<g>
			<g>
				<path class="st5" d="M684.2,147.9c-2,0-3.6,1.6-3.6,3.6c0,2,1.6,3.6,3.6,3.6c2,0,3.6-1.6,3.6-3.6
					C687.8,149.6,686.2,147.9,684.2,147.9z"/>
			</g>
			<g>
				<path class="st5" d="M703.1,130c-2,0-3.6,1.6-3.6,3.6c0,2,1.6,3.6,3.6,3.6c2,0,3.6-1.6,3.6-3.6C706.7,131.6,705.1,130,703.1,130
					z"/>
			</g>
			<g>
				<path class="st5" d="M720.6,160c-2,0-3.6,1.6-3.6,3.6c0,2,1.6,3.6,3.6,3.6c2,0,3.6-1.6,3.6-3.6C724.2,161.6,722.6,160,720.6,160
					z"/>
			</g>
			<g>
				<path class="st5" d="M726,138.8c-2,0-3.6,1.6-3.6,3.6c0,2,1.6,3.6,3.6,3.6c2,0,3.6-1.6,3.6-3.6C729.6,140.4,728,138.8,726,138.8
					z"/>
			</g>
			<g>
				<path class="st5" d="M707.8,182.8c-2,0-3.6,1.6-3.6,3.6c0,2,1.6,3.6,3.6,3.6c2,0,3.6-1.6,3.6-3.6
					C711.4,184.4,709.8,182.8,707.8,182.8z"/>
			</g>
			<g>
				<path class="st5" d="M690.4,227.4c-2,0-3.6,1.6-3.6,3.6c0,2,1.6,3.6,3.6,3.6c2,0,3.6-1.6,3.6-3.6
					C694,229.1,692.4,227.4,690.4,227.4z"/>
			</g>
			<g>
				<path class="st5" d="M735.8,213.7c-2,0-3.6,1.6-3.6,3.6c0,2,1.6,3.6,3.6,3.6c2,0,3.6-1.6,3.6-3.6
					C739.4,215.4,737.8,213.7,735.8,213.7z"/>
			</g>
			<g>
				<path class="st5" d="M728.9,231c-2,0-3.6,1.6-3.6,3.6c0,2,1.6,3.6,3.6,3.6c2,0,3.6-1.6,3.6-3.6C732.5,232.7,730.8,231,728.9,231
					z"/>
			</g>
			<g>
				<ellipse class="st5" cx="743.7" cy="242.2" rx="3.6" ry="3.6"/>
			</g>
			<g>
				<path class="st5" d="M706.4,297.8c-2,0-3.6,1.6-3.6,3.6c0,2,1.6,3.6,3.6,3.6c2,0,3.6-1.6,3.6-3.6
					C710,299.4,708.4,297.8,706.4,297.8z"/>
			</g>
			<g>
				<path class="st5" d="M731.1,302.3c-2,0-3.6,1.6-3.6,3.6c0,2,1.6,3.6,3.6,3.6c2,0,3.6-1.6,3.6-3.6
					C734.7,303.9,733.1,302.3,731.1,302.3z"/>
			</g>
			<g>
				<path class="st5" d="M689.6,325.2c-2,0-3.6,1.6-3.6,3.6c0,2,1.6,3.6,3.6,3.6c2,0,3.6-1.6,3.6-3.6
					C693.2,326.8,691.6,325.2,689.6,325.2z"/>
			</g>
			<g>
				<path class="st5" d="M685.5,281.1c-2,0-3.6,1.6-3.6,3.6c0,2,1.6,3.6,3.6,3.6c2,0,3.6-1.6,3.6-3.6
					C689.1,282.7,687.5,281.1,685.5,281.1z"/>
			</g>
			<g>
				<path class="st5" d="M741.8,197c-2,0-3.6,1.6-3.6,3.6c0,2,1.6,3.6,3.6,3.6c2,0,3.6-1.6,3.6-3.6C745.4,198.6,743.8,197,741.8,197
					z"/>
			</g>
		</g>
		<path class="st5" d="M644.8,86.5c-1.4-0.3-2.9-0.4-4.5-0.4c-11.7,0-26.4,7.5-30.8,20c-7.1,20.1-6.2,31.8-2.4,45
			c1.6,5.7-1.6,11.8-4.7,17.7c-3.4,6.4-6.9,13.1-3.6,18.9c1.3,2.3,1.5,6.7,1.7,11.4c0.3,8.6,0.8,19.3,8.3,26.2
			c4.9,4.5,12,6.7,21.7,6.7c1.1,0,2.3,0,3.4-0.1c0.4,0,0.8-0.2,1.1-0.5c0.3-0.3,0.4-0.7,0.4-1.2c0-0.9-0.8-1.5-1.7-1.5
			c-1.1,0.1-2.2,0.1-3.3,0.1c-8.8,0-15.2-1.9-19.5-5.8c-6.5-6-6.9-15.5-7.2-24c-0.2-5.3-0.4-9.8-2.1-12.8c-2.5-4.3,0.4-9.7,3.6-15.9
			c3.3-6.2,6.9-13.2,4.9-20.1c-3.7-12.9-4.5-23.6,2.3-43c3.9-11,17.4-17.8,27.8-17.8c1.4,0,2.7,0.1,3.9,0.4c3.7,0.7,8,2.8,7.8,8.8
			c-0.4,8.6-2.9,9.2-10.2,10c-5,0.5-11.3,1.1-17.7,6.3c-4.5,3.6-6.9,7.8-7.2,12.5c-0.5,7.9,5.1,14,5.7,14.7c0.3,0.3,0.7,0.5,1.2,0.5
			c0.4,0,0.8-0.2,1.1-0.4c0.6-0.6,0.7-1.6,0.1-2.3c-0.2-0.2-5.3-5.8-4.8-12.3c0.3-3.7,2.3-7.2,6-10.2c5.6-4.6,11.1-5.1,16-5.6
			c6.5-0.6,12.6-1.3,13.1-13.1C655.4,92.2,651.7,87.8,644.8,86.5z"/>
		<path class="st5" d="M649.4,119c-1.7-0.8-3.4-1.1-5.2-1.1c-3,0-5.9,1.1-8.2,3.2c-3.4,3.1-4.8,7.7-3.5,11.7
			c1.8,5.7,4.6,14.2-4.2,19.6c-1.7,1-3.3,1.6-4.6,1.6c-0.6,0-1.1-0.1-1.6-0.3c-2.4-0.8-3.5-3.5-3.7-4c-0.2-0.6-0.8-1.1-1.5-1.1
			c-0.2,0-0.4,0-0.5,0.1c-0.4,0.1-0.7,0.4-0.9,0.8c-0.2,0.4-0.2,0.8-0.1,1.2c0,0,1.6,4.5,5.7,6c0.9,0.3,1.8,0.5,2.7,0.5
			c2,0,4.1-0.7,6.3-2.1c10.9-6.7,7.4-17.5,5.5-23.3c-0.9-2.8,0.1-6.1,2.6-8.3c1.7-1.5,3.8-2.4,6-2.4c1.3,0,2.6,0.3,3.9,0.9
			c3.8,1.7,5.8,11.6,5.7,19.9c-0.1,9.1-2.4,16.4-5.7,17.8c-3.5,1.5-6.5,1.6-9.5,1.7c-4.3,0.1-8.8,0.3-13.5,5.2
			c-2.1,2.3-4.6,3.4-7.4,3.4c-3.2,0-5.7-1.5-6.2-1.8c-0.3-0.2-0.6-0.3-0.9-0.3c-0.5,0-1,0.3-1.3,0.7c-0.2,0.4-0.3,0.8-0.2,1.2
			c0.1,0.4,0.3,0.8,0.7,1c0.8,0.6,3.8,2.4,8,2.4c3.7,0,7.1-1.5,9.8-4.5c3.7-4,7-4.1,11.2-4.2c3.1-0.1,6.6-0.2,10.6-1.9
			c6.9-2.9,7.6-16.6,7.6-20.7C657.1,133,655.1,121.6,649.4,119z"/>
		<path class="st5" d="M635.1,161.5c-0.4,0-0.8,0.1-1.1,0.4c-0.7,0.6-0.7,1.6-0.2,2.3c15.2,17.6,0.9,36.5,0.3,37.3
			c-0.5,0.7-0.4,1.7,0.3,2.3c0.3,0.2,0.6,0.3,1,0.3c0.5,0,1-0.2,1.3-0.6c0.2-0.2,16.3-22-0.4-41.4
			C636,161.7,635.6,161.5,635.1,161.5z"/>
		<path class="st5" d="M648.7,159.5c-0.2,0-0.5,0.1-0.7,0.2c-0.4,0.2-0.7,0.5-0.8,0.9c-0.1,0.4-0.1,0.8,0.1,1.2
			c2.4,4.8,7.9,18.9,5.1,26.3c-1.1,2.9-1.7,6.3-2.3,9.9c-1.4,8.2-2.9,16.6-11.1,19.4c-2.3,0.8-4.7,1.2-7,1.2
			c-4.2,0-7.8-1.3-10.1-3.6c-1.7-1.8-3.5-4.8-1.8-9.7c0.6-1.9,1.3-3.6,2-5.3c3.3-8.2,6.1-15.4-5.1-20.3c-0.2-0.1-0.4-0.1-0.7-0.1
			c-0.6,0-1.2,0.4-1.5,1c-0.2,0.4-0.2,0.8,0,1.2c0.2,0.4,0.5,0.7,0.8,0.9c8.4,3.7,6.7,7.9,3.4,16.3c-0.7,1.7-1.4,3.4-2,5.3
			c-1.7,4.9-0.7,9.6,2.6,13c2.9,3,7.3,4.6,12.4,4.6c2.7,0,5.4-0.5,8.1-1.4c10-3.4,11.7-13.2,13.2-21.9c0.6-3.4,1.1-6.6,2.1-9.2
			c3.1-8.1-1.8-22-5.2-28.9C649.9,159.8,649.3,159.5,648.7,159.5z"/>
		<path class="st5" d="M608.1,103.8c-1-0.6-2.1-0.9-3.3-0.9c-1.1,0-2.4,0.3-3.8,0.8c-6.9,2.7-32.3,33.1-31.7,48.2
			c0.2,4.4,2.5,7.5,6.8,8.7c0.2,0,0.3,0.1,0.5,0.1c0.7,0,1.3-0.5,1.5-1.2c0.3-0.9-0.2-1.8-1.1-2c-2.9-0.9-4.3-2.7-4.5-5.8
			c-0.6-13.9,24.4-42.9,29.6-45c1-0.4,1.8-0.6,2.6-0.6c0.6,0,1.2,0.1,1.6,0.4c1.3,0.8,1.8,2.8,1.9,3.5c0.1,0.8,0.8,1.5,1.5,1.5
			l0.2,0c0.4,0,0.8-0.2,1.1-0.6c0.3-0.3,0.4-0.7,0.4-1.2C611.5,109.6,611.1,105.7,608.1,103.8z"/>
		<path class="st5" d="M588.3,131.6c-0.1,0-0.2,0-0.4,0c-0.9,0.2-1.4,1.1-1.2,1.9c0.1,0.4,2.2,10.1-2.6,17.5
			c-2.7,4.1-7.2,6.8-13.2,7.9c-5.6,1-9.8,3.8-12.6,8.3c-7.2,11.6-1.9,30.6-1.7,31.4c0.2,0.7,0.8,1.2,1.6,1.2c0.2,0,0.3,0,0.4-0.1
			c0.4-0.1,0.8-0.4,1-0.8c0.2-0.4,0.3-0.8,0.1-1.2c-0.2-0.8-5.1-18.4,1.4-28.8c2.3-3.7,5.7-6,10.4-6.8c7-1.3,12.1-4.4,15.3-9.4
			c5.6-8.6,3.2-19.5,3.1-20C589.7,132.1,589.1,131.6,588.3,131.6z"/>
		<path class="st5" d="M591.4,172.4c-0.9-0.2-1.8-0.4-2.8-0.4c-5.1,0-9.3,3.3-9.8,3.6c-0.7,0.6-0.8,1.6-0.2,2.3
			c0.3,0.4,0.8,0.6,1.3,0.6c0.4,0,0.7-0.1,1-0.4c0.4-0.3,3.9-2.9,7.7-2.9c0.7,0,1.3,0.1,2,0.3c2.9,0.8,5.3,3.4,7,7.8
			c0.2,0.6,0.8,1,1.5,1c0.2,0,0.4,0,0.6-0.1c0.8-0.3,1.2-1.3,0.9-2.1C598.5,176.8,595.4,173.5,591.4,172.4z"/>
		<path class="st5" d="M652.4,246c4.5-26.9-7.7-31.2-7.8-31.2c-0.2-0.1-0.3-0.1-0.5-0.1c-0.7,0-1.3,0.4-1.5,1.1
			c-0.1,0.4-0.1,0.8,0.1,1.2c0.2,0.4,0.5,0.7,1,0.8c1,0.4,9.4,4.9,5.6,27.6c-4.3,25.6,0.6,35.7,1.2,36.7c0,0.1,4,7.3,2.3,12.3
			c-0.7,1.9-2.1,3.3-4.4,4.1c-1.8,0.7-3.7,1.1-5.5,1.1c-1.2,0-2.5-0.2-3.7-0.5c-0.1,0-0.3-0.1-0.4-0.1c-0.7,0-1.4,0.5-1.5,1.2
			c-0.1,0.4-0.1,0.8,0.1,1.2c0.2,0.4,0.6,0.6,1,0.8c1.5,0.4,3,0.6,4.5,0.6c2.2,0,4.5-0.4,6.7-1.3c3.1-1.2,5.2-3.3,6.2-6.1
			c2.3-6.5-2.3-14.5-2.5-15C653.1,280.2,648.3,270.4,652.4,246z"/>
		<path class="st5" d="M637,261c2.6-6.7,1.8-12.8-2.4-16.5c-2.3-2-5.3-3-8.9-3c-4.6,0-10.1,1.7-15.9,5c-4.3,2.4-8.7,3.7-12.7,3.7
			c-3.5,0-6.6-1-9.2-2.9c-7.8-5.7-10.3-18.7-6.9-35.8c0.1-0.4,0-0.9-0.2-1.2c-0.2-0.4-0.6-0.6-1-0.7c-0.1,0-0.2,0-0.3,0
			c-0.8,0-1.4,0.5-1.6,1.3c-3.6,18.4-0.6,32.6,8.2,39.1c3.2,2.3,6.9,3.5,11.1,3.5c4.5,0,9.4-1.4,14.3-4.1c5.3-3,10.2-4.5,14.3-4.5
			c2.8,0,5.1,0.7,6.8,2.2c3.1,2.7,3.6,7.5,1.5,12.8c-5.6,14.2,2.8,22.1,3.2,22.4c0.3,0.3,0.7,0.4,1.1,0.4c0.5,0,0.9-0.2,1.2-0.5
			c0.6-0.7,0.6-1.7-0.1-2.3C639.1,279.7,632.2,273.1,637,261z"/>
		<path class="st5" d="M593.8,216.4c-0.3,0-0.5,0.1-0.8,0.2c-0.8,0.4-1.1,1.4-0.7,2.2c0.3,0.5,6,11.8-0.5,15.5
			c-5.6,3.2-7.1,8.1-6.6,11.7c0.4,3.1,2.3,5.5,4.7,6.1c0.1,0,0.3,0,0.4,0c0.7,0,1.4-0.5,1.6-1.2c0.2-0.9-0.3-1.7-1.2-2
			c-1.2-0.3-2.1-1.7-2.4-3.4c-0.3-2.5,0.8-6.1,5-8.5c9.4-5.4,2.1-19.2,1.8-19.8C595,216.7,594.4,216.4,593.8,216.4z"/>
		<path class="st5" d="M622.1,336.6c-4.9-7.1-10-14.4-38.3-16.5c-23.9-1.8-28.2-22.3-31.6-38.7c-0.5-2.4-1-4.7-1.5-6.8
			c-4.4-17.8-9.1-56.4,4.2-61.7c2.2-0.9,4.1-1.3,5.8-1.3c1.5,0,2.9,0.3,4,1c3.6,2.2,4.5,7.2,4.6,7.9c0.1,0.8,0.8,1.4,1.5,1.4l0.3,0
			c0.4,0,0.8-0.3,1.1-0.6c0.3-0.3,0.4-0.8,0.3-1.2c0-0.3-0.9-7.1-6.1-10.3c-1.7-1-3.6-1.5-5.7-1.5c-2.1,0-4.5,0.5-7.1,1.5
			c-16.5,6.6-10,49.5-6.1,65.5c0.5,2.1,1,4.4,1.5,6.9c3.6,17.4,8.2,39.1,34.5,41.1c26.8,2,31.2,8.4,35.9,15.2l0.7,1
			c0.3,0.4,0.8,0.7,1.3,0.7c0.3,0,0.6-0.1,0.9-0.3c0.7-0.5,0.9-1.5,0.4-2.2L622.1,336.6z"/>
		<path class="st5" d="M612.5,299.8c-7.6-2.7-12.8-10.4-14.3-21.1c-1.9-13.4-14.5-23.4-29.3-23.4c-0.2,0-1.9,0-1.9,0
			c-3.5,0-6.2-1-7.9-2.9c-3.1-3.3-2.6-8.7-2.6-8.7c0.1-0.9-0.5-1.7-1.3-1.8l-0.3,0c-0.8,0-1.5,0.6-1.6,1.4c0,0.1-0.8,6.7,3.4,11.2
			c2.4,2.6,5.9,3.9,10.3,3.9c0.3,0,0.6,0,0.9,0c0.4,0,0.7,0,1.1,0c13,0,24.5,9.1,26.1,20.7c1.7,11.9,7.6,20.6,16.4,23.7
			c0.2,0.1,0.4,0.1,0.5,0.1c0.7,0,1.3-0.4,1.5-1.1c0.1-0.4,0.1-0.8-0.1-1.2C613.2,300.3,612.9,300,612.5,299.8z"/>
		<path class="st5" d="M626.7,260.8c-0.4-0.1-2.3-0.4-5-0.4c-7.7,0-21.3,2.3-26.5,18c-0.3,0.8,0.2,1.8,1,2c0.2,0.1,0.3,0.1,0.5,0.1
			c0.7,0,1.3-0.4,1.5-1.1c4.6-13.8,16.5-15.9,23.1-15.9c2.3,0,4.1,0.3,4.8,0.4c0.1,0,0.2,0,0.3,0c0.8,0,1.4-0.6,1.6-1.3
			c0.1-0.4,0-0.8-0.3-1.2C627.4,261.1,627.1,260.9,626.7,260.8z"/>
		<path class="st5" d="M648.9,298.5c-0.2,0-0.5,0-0.7,0.1c-0.4,0.2-0.7,0.5-0.8,0.9c-0.2,0.4-0.1,0.8,0,1.2c2,4.4,6.5,17.3,2.7,23.4
			c-1.5,2.4-4,3.6-7.8,3.8c-0.3,0-0.5,0-0.8,0c-5.6,0-6.4-3-7.8-9.8c-1.4-6.9-3.4-16.4-13.5-25.6c-0.3-0.3-0.7-0.4-1.1-0.4
			c-0.5,0-0.9,0.2-1.2,0.5c-0.6,0.7-0.5,1.7,0.1,2.3c9.3,8.4,11.1,17,12.5,23.8c1.4,6.6,2.5,12.4,11,12.4c0.3,0,0.6,0,0.8,0
			c4.9-0.2,8.4-2,10.4-5.3c5.5-9-2.4-26.3-2.5-26.5C650.1,298.9,649.6,298.5,648.9,298.5z"/>
		<path class="st5" d="M645.6,327.2c-0.3-0.2-0.6-0.3-1-0.3c-0.5,0-1,0.2-1.3,0.6c-0.3,0.3-0.4,0.8-0.3,1.2c0.1,0.4,0.3,0.8,0.6,1.1
			c0.1,0.1,8.6,7,7.1,17.8c-0.8,5.9-3,10-6.5,12c-1.8,1.1-4,1.6-6.5,1.6c-3.1,0-6.7-0.8-10.8-2.4c-8.6-3.3-11.7-6.9-14.5-10.1
			c-2.6-3-5.3-6-11.6-8.4c-1.8-0.7-3.5-1.3-5.2-1.9c-10.8-3.8-20.1-7.1-22.8-20.2c-0.2-0.7-0.8-1.3-1.6-1.3c-0.1,0-0.2,0-0.3,0
			c-0.4,0.1-0.8,0.3-1,0.7c-0.2,0.4-0.3,0.8-0.2,1.2c3.1,14.8,14.2,18.8,25,22.6c1.7,0.6,3.4,1.2,5.1,1.9c5.6,2.1,7.8,4.6,10.3,7.6
			c3,3.4,6.4,7.3,15.7,10.9c4.4,1.7,8.5,2.6,11.9,2.6c3.1,0,5.8-0.7,8.1-2c4.4-2.6,7.1-7.4,8.1-14.4
			C655.7,335.2,646,327.5,645.6,327.2z"/>
		<path class="st5" d="M596.5,306.8c-5-0.6-8.4-2.2-10.2-4.8c-1.9-2.8-1.1-5.8-1.1-5.8c0.2-0.9-0.3-1.7-1.1-2
			c-0.1,0-0.3-0.1-0.4-0.1c-0.7,0-1.4,0.5-1.6,1.2c0,0-1.1,4.4,1.6,8.4c2.3,3.4,6.5,5.5,12.5,6.2c15.5,1.9,19.2,4.2,22.8,14.5
			c0.2,0.6,0.8,1.1,1.5,1.1c0.2,0,0.4,0,0.5-0.1c0.8-0.3,1.3-1.2,1-2.1C617.6,311.1,612.3,308.7,596.5,306.8z"/>
		<path class="st5" d="M578,256.7c-0.1,0-0.2,0-0.3,0c-7.5,1.3-12.8,5.6-14.3,11.4c-1.6,6.3,1.5,13.1,8.1,18.3
			c0.3,0.2,0.6,0.3,1,0.3c0.5,0,1-0.2,1.3-0.6c0.3-0.3,0.4-0.8,0.3-1.2c-0.1-0.4-0.3-0.8-0.6-1.1c-5.6-4.4-8.2-10-7-15
			c1.2-4.6,5.4-7.9,11.7-9.1c0.9-0.2,1.5-1,1.3-1.9C579.4,257.3,578.7,256.7,578,256.7z"/>
		<path class="st5" d="M575.1,197.8c-0.6-0.3-5.8-2.5-11.3-2.5c-3.1,0-5.7,0.7-7.7,2.1c-3.8,2.7-5.4,7.6-4.8,14.7
			c0.1,0.8,0.8,1.5,1.6,1.5l0.2,0c0.9-0.1,1.5-0.9,1.5-1.7c-0.5-5.8,0.7-9.8,3.4-11.7c1.5-1.1,3.4-1.6,5.8-1.6c4.7,0,9.5,2,10,2.3
			c0.2,0.1,0.4,0.1,0.7,0.1c0.6,0,1.2-0.4,1.5-1C576.3,199.1,575.9,198.2,575.1,197.8z"/>
		<path class="st5" d="M651.5,106.4c-0.3-0.2-0.7-0.4-1-0.4c-0.5,0-0.9,0.2-1.2,0.6c-0.6,0.7-0.5,1.7,0.2,2.3
			c2.9,2.5,4.9,7.5,0.7,13.2c-0.5,0.7-0.4,1.7,0.4,2.3c0.3,0.2,0.6,0.3,0.9,0.3c0.5,0,1-0.2,1.3-0.7
			C658.6,115.8,654.5,108.9,651.5,106.4z"/>
	</g>
	<g>
		<path class="st6" d="M565.9,368.8L314,375.1c-2.6,0-4.9,1.9-5.6,4.6l-55.4,224l247.4,6.5c8.3,0.2,15.7-5.7,17.9-14.3l55.8-217.3
			C574.9,375.2,574.5,368.8,565.9,368.8z"/>
		<path class="st7" d="M564.9,368.8H311.8c-2.6,0-4.9,1.9-5.6,4.6l-60.4,233.2c-1,4,1.8,7.9,5.6,7.9h235.7
			c12.9,0,24.2-9.2,27.7-22.6l55.7-215.3C571.5,372.7,568.7,368.8,564.9,368.8z"/>
		<polygon class="st8" points="262.5,575.9 510.2,575.9 561.4,377.9 313.8,377.9 		"/>
		<polygon class="st4" points="309.4,394.7 557.1,394.7 561.5,377.9 313.8,377.9 		"/>
		<g>
			<path class="st9" d="M280.9,592.5H33.8c-5.8,0-10.5,5.1-10.5,11.2c0,6.2,4.7,11.2,10.5,11.2h247.1c5.8,0,10.5-5.1,10.5-11.2
				C291.4,597.6,286.7,592.5,280.9,592.5z"/>
		</g>
		<g>
			<g>
				<path class="st10" d="M495.6,592.5H273.7c-5.8,0-10.5,5.1-10.5,11.2c0,6.2,4.7,11.2,10.5,11.2h221.9c5.8,0,10.5-5.1,10.5-11.2
					C506.1,597.6,501.4,592.5,495.6,592.5z"/>
			</g>
			<g>
				<path class="st7" d="M473.1,597h-18.3c-2.2,0-3.9,1.9-3.9,4.2c0,2.3,1.8,4.2,3.9,4.2h18.3c2.2,0,3.9-1.9,3.9-4.2
					C477,598.9,475.2,597,473.1,597z"/>
				<path class="st7" d="M436.8,597h-11.1c-2.2,0-3.9,1.9-3.9,4.2c0,2.3,1.8,4.2,3.9,4.2h11.1c2.2,0,3.9-1.9,3.9-4.2
					C440.7,598.9,438.9,597,436.8,597z"/>
			</g>
		</g>
		<g>
			<g>
				<g>
					<g>
						<polygon class="st11" points="397.3,490.1 412.9,490.1 421.4,458.4 405.8,458.4 						"/>
						<polygon class="st12" points="424.1,490.1 439.7,490.1 451.8,445 436.2,445 						"/>
						<polygon class="st13" points="450.9,490.1 466.5,490.1 477,450.9 461.4,450.9 						"/>
						<polygon class="st14" points="477.6,490.1 493.2,490.1 508.2,434.4 492.6,434.4 						"/>
						<polygon class="st15" points="504.4,490.1 520,490.1 540.7,413.1 525.1,413.1 						"/>
					</g>
				</g>
				<polygon class="st12" points="394.5,500.8 517.1,500.8 518.1,497 395.5,497 				"/>
			</g>
			<g>
				<path class="st9" d="M305.6,447.7c-3.2,17.3,10.5,30.3,30.5,29l5.8-31.3l-18.4-22.9C313.7,429.2,307.4,438,305.6,447.7z"/>
				<path class="st12" d="M336.1,476.7c7.5-0.5,14.4-2.6,21.3-6.6L342,445.4L336.1,476.7z"/>
				<path class="st11" d="M362.1,415.9L342,445.4l15.5,24.7c6.5-3.8,11.4-8.2,15.3-14C383.9,439.8,379.1,421.8,362.1,415.9z"/>
				<path class="st15" d="M323.6,422.5l18.4,22.9l20.1-29.5C350,411.8,336.1,414.2,323.6,422.5z"/>
			</g>
			<g>
				<polygon class="st12" points="320.3,494.3 344.9,494.3 346.1,490 321.5,490 				"/>
				<polygon class="st12" points="348.6,494.3 356.9,494.3 358,490 349.7,490 				"/>
			</g>
			<g>
				<polygon class="st12" points="315.7,511.6 328.8,511.6 330,507.2 316.8,507.2 				"/>
				<polygon class="st12" points="332.7,511.6 343,511.6 344.2,507.2 333.9,507.2 				"/>
			</g>
			<path class="st12" d="M309.3,486.7c-3.4,0-6.9,2.4-7.7,5.4c-0.8,3,1.3,5.4,4.7,5.4c3.4,0,6.9-2.4,7.7-5.4
				C314.9,489.1,312.8,486.7,309.3,486.7z"/>
			<path class="st9" d="M304.7,504c-3.4,0-6.9,2.4-7.7,5.4c-0.8,3,1.3,5.4,4.7,5.4c3.4,0,6.9-2.4,7.7-5.4
				C310.3,506.4,308.1,504,304.7,504z"/>
			<g>
				<polygon class="st15" points="371.5,550.1 405.7,550.1 414.1,519.1 379.9,519.1 				"/>
				<polygon class="st9" points="417.8,522.7 465.1,522.7 466.1,519.1 418.8,519.1 				"/>
				<polygon class="st9" points="486.7,522.7 511.6,522.7 512.6,519.1 487.7,519.1 				"/>
				<polygon class="st9" points="415.5,531.5 476.7,531.5 477.7,527.8 416.5,527.8 				"/>
				<polygon class="st9" points="449.5,540.2 460.5,540.2 461.5,536.6 450.4,536.6 				"/>
				<polygon class="st9" points="464.9,540.2 481.7,540.2 482.7,536.6 465.9,536.6 				"/>
				<polygon class="st9" points="488.5,531.5 509.3,531.5 510.2,527.8 489.5,527.8 				"/>
				<polygon class="st9" points="413.1,540.2 441.7,540.2 442.7,536.6 414.1,536.6 				"/>
				<polygon class="st9" points="410.5,550.1 487.7,550.1 488.7,546.4 411.5,546.4 				"/>
				<polygon class="st9" points="423.7,558.8 501.9,558.8 502.9,555.2 424.6,555.2 				"/>
				<polygon class="st9" points="369.2,558.8 417.9,558.8 418.9,555.2 370.2,555.2 				"/>
			</g>
			<g>
				<g id="XMLID_7_">
					<g>
						<polygon class="st16" points="282.5,533.1 312.2,533.1 313.1,529.6 283.5,529.6 						"/>
					</g>
				</g>
				<g id="XMLID_6_">
					<g>
						<polygon class="st16" points="280.2,541.7 326,541.7 326.9,538.2 281.2,538.2 						"/>
					</g>
				</g>
				<g id="XMLID_5_">
					<g>
						<polygon class="st16" points="326.3,533.1 357.9,533.1 358.8,529.6 327.2,529.6 						"/>
					</g>
				</g>
				<g id="XMLID_4_">
					<g>
						<polygon class="st16" points="277.9,550.2 307.6,550.2 308.5,546.8 278.9,546.8 						"/>
					</g>
				</g>
				<g id="XMLID_3_">
					<g>
						<polygon class="st16" points="275.6,558.8 356.9,558.8 357.9,555.4 276.6,555.4 						"/>
					</g>
				</g>
				<g id="XMLID_2_">
					<g>
						<polygon class="st16" points="321.7,550.2 353,550.2 353.9,546.8 322.6,546.8 						"/>
					</g>
				</g>
				<g id="XMLID_1_">
					<g>
						<polygon class="st16" points="336.2,541.7 346,541.7 346.9,538.2 337.1,538.2 						"/>
					</g>
				</g>
			</g>
		</g>
		<polygon class="st17" points="265.2,592 304.2,592 448.5,368.8 409.5,368.8 		"/>
	</g>
	<g>
		<path class="st10" d="M656.5,568c-1.7,0-3.2,1.4-3.2,3.2v77.6c0,30.4-24.7,55.1-55.1,55.1H188c-5.2,0-9.5-4.2-9.5-9.5
			c0-5.2,4.2-9.5,9.5-9.5h256.2c8.7,0,15.8-7.1,15.8-15.8v-3.5c0-4.2-1.6-8.2-4.6-11.2c-3-3-6.9-4.6-11.2-4.6c0,0,0,0,0,0L291.5,650
			c0,0,0,0,0,0c-2.2,0-4.3-0.9-5.9-2.4c-1.6-1.6-2.4-3.6-2.4-5.9c0-4.6,3.7-8.3,8.3-8.3l154-0.1c3.9,0,7.6-1.5,10.4-4.3
			c2.8-2.8,4.3-6.5,4.2-10.3l0.3-16.4c0-1.7-1.4-3.2-3.1-3.2c0,0,0,0-0.1,0c-1.7,0-3.1,1.4-3.2,3.1l-0.3,16.4c0,2.2-0.8,4.3-2.4,5.9
			c-1.6,1.6-3.7,2.4-5.9,2.5l-154,0.1c-8,0-14.6,6.6-14.6,14.6c0,3.9,1.5,7.6,4.3,10.3c2.8,2.8,6.4,4.3,10.3,4.3c0,0,0,0,0,0
			l152.6-0.1c0,0,0,0,0,0c2.5,0,4.9,1,6.7,2.8c1.8,1.8,2.8,4.2,2.8,6.7v3.5c0,5.2-4.2,9.5-9.5,9.5H188c-8.7,0-15.8,7.1-15.8,15.8
			c0,8.7,7.1,15.8,15.8,15.8h410.3c33.9,0,61.5-27.6,61.5-61.5v-77.6C659.7,569.4,658.3,568,656.5,568z"/>
	</g>
	<g>
		<g>
			<path class="st18" d="M309.7,399c-0.9,0.8-1.9,1.5-3,1.9c1.3-0.3,1.4,0.5,2.7,0.3c0.5-0.2,2-2.2,1.6-2.6
				C310.5,397.9,310.1,398.5,309.7,399z"/>
			<path class="st18" d="M318.6,400.2c-0.6-0.2-2.5,0-3.2-0.1c-0.3,0-4,0-5.6,0.2c-1.4,0.2-2.8,0.4-4,0.7c-0.1,0-0.5,4.5-0.3,5.9
				c2.3-0.2,9.5-1.5,9.6-1.5c2.9,0,3.6-0.9,3-1.5c-0.1-0.1,1.8-0.8,1.4-1.5c0,0,0.6-0.4,0.4-1C319.8,401.1,318.9,400.4,318.6,400.2z
				"/>
			<path class="st18" d="M266.8,395.7c-7.9-6.4-21.4-22.4-26.8-26.1c-1-0.7-5.5,6.7-6.1,9c-1.4,5.3,20.1,23.7,29.9,27.5
				C267.5,407.6,276.5,403.6,266.8,395.7z"/>
			<path class="st18" d="M306.2,401c-7.3,1.1-33.2-3.5-40.3-3.5c-0.4,0-0.8,0.1-1.3,0.2c-2.1,0.7-4.5,3-2.7,7
				c2,4.4,32.5,3.8,44.5,2.2C306.1,405.4,306,403.4,306.2,401z"/>
			<path class="st19" d="M303.8,399.9c-11.3-0.7-32.5-3.5-35.4-3.8c-0.5-0.6-19.5-20-25-27.9c-3.6-5.2-15.6,5-13.1,11.3
				c2.7,6.7,24,24.3,31.7,27.4c7.4,3.1,31.9,2.7,42.3,1.5c0,0-1.3-1.2-1.4-4C302.9,401.4,303.8,399.9,303.8,399.9z"/>
		</g>
		<path class="st20" d="M242.6,345.7c-2.3-3.3-8.3,3.5-8.3,3.6c-0.9,3.2-1,9-1.7,13.2c-0.1,1,12.6,4.5,11.7,2.3
			C241.8,358.7,244.1,349.8,242.6,345.7z"/>
		<path class="st20" d="M187.9,581.9c-0.1-1.4-5.4-4.4-6.7-3.4c-0.7,0.5-2.3,1.1-2.2,2.9c0.2,2,2,1.7,3.3,5.2c0.5,1.4,1,3.1,3.5,4.9
			c2,1.4,7.6,1.1,8.6,0.1C196.5,589.6,188.4,587.4,187.9,581.9z"/>
		<path class="st18" d="M181.3,578.5c0,0,0.4,2.4,2.6,3.4c3.7,1.7,4.1,0.1,4.1,0.1c0.1-1.4,0.7-2.9,0.7-2.9l-5.7-2.7
			C182.9,576.3,182.6,577.4,181.3,578.5z"/>
		<path class="st18" d="M206.5,496c0.2,6.7-5.9,12.3-23.6,80.4c2.4,2.8,5.4,3.7,5.4,3.7c9.6-28.7,36.1-62.9,38.1-83
			c0,0,6.2-29.1,8.6-50.4l-29.3,2.2C206.4,467.8,206,481.8,206.5,496z"/>
		<path class="st18" d="M233.5,505.6c-2.2,23.6,7,78.9,7,78.9c3.5,0.6,5.7-1.2,5.7-1.2s1.4-40.9,4.7-79.2
			c1.2-13.9,4.1-22.3,6.4-43.8l-30.6-9.2C227.8,487.7,234.9,490.3,233.5,505.6z"/>
		<path class="st18" d="M223.5,348.2c-0.8,2.6-0.8,12.8-2,14.5c2.7,6.3,12.8,6.5,13.6,2.8c-3.1-3.2-0.7-10.1,0.4-11.9
			C232.9,353.9,224.3,348.9,223.5,348.2z"/>
		<path class="st21" d="M254.3,389.2c-0.8-5.9-6.7-9.5-9.9-19.9c-1.3-4.1-9.3-3.8-9.3-3.8s0.1,1.1-2.3,1.8
			c-3.7,1.2-11.3-4.6-11.3-4.6c-6.4,2.4-13.7,6.6-13.8,15.2c-0.1,7.5,3.4,26.2,1.1,41.6c-2.9,19.3-11.8,42.4-14.5,67.8
			c24.8,11.3,58.8,4,70.2-2.3c-4.6-25.6-14.7-41.8-16.2-84.1C248.1,398.4,255.2,395.9,254.3,389.2z"/>
		<path class="st22" d="M349.4,423.7l-73,9.7c0,0,0,0,0,0c-0.7,0.1-1.2,0.7-1.1,1.3c0.1,0.6,0.7,1,1.5,0.9l72.8-10.8
			c0.3-0.1,0.6-0.3,0.6-0.6C350.1,423.9,349.7,423.7,349.4,423.7z"/>
		<path class="st18" d="M233.7,335.5c-4.9,0.2-9.5,4.8-9.2,9.7c0,0,0.9,5.5,0.9,5.5c0.2,3.7,6.1,9.2,9.3,8.4c7.5-2,8.5-16,8.2-17.5
			C241.9,337.3,238.3,335.3,233.7,335.5z"/>
		<path class="st20" d="M240.7,331.7c-2.5-1.3-4.7-0.8-4.7-0.8c-3-6.8-14.6-5-19.8,0.3c-5,5.1-9.8,16.3-3.4,31
			c2,4.7,14,8.5,13.2,5.4c-1.6-6.1-1.4-24.1,3.3-28.4c4.6-4.1,10.2-2.7,10.2-2.7s4.1,3.4,2.3,13.8
			C245.8,346.6,246.1,334.6,240.7,331.7z"/>
		<path class="st18" d="M225,343.7c-1.3,0.2-2.1,2.6-1.4,4.2c0.5,1.1,1.4,2.2,2.6,2.3c0.2-1.4,0.7-4.3,0.8-6
			C226.4,343.6,225.5,343.6,225,343.7z"/>
		<path class="st20" d="M179.1,581.1c0,0,0.7,7,1,7.4c0.1,0.1,0.5,0.1,0.5,0c0.1-0.9-0.5-7.5-0.5-7.5L179.1,581.1z"/>
		<path class="st20" d="M246.7,581.5c-0.6-1.2-6.6-2.2-7.5-0.8c-0.4,0.7-1.9,1.7-1.9,3.5c0,2.8,2.8,1.7,4.8,3.8
			c1.1,1.1,4,3.7,6.7,3.7c2.5,0,6.3-0.3,6.9-1.6C256.9,587.5,249.5,587.7,246.7,581.5z"/>
		<path class="st18" d="M246.3,578.1l-6.1-0.4c0,0-0.4,2.1-0.9,3.1c0,0,4.8,2.1,6,2.2c2.4,0.2,1.7-0.9,1.5-1.4
			C245.7,580,246.3,578.1,246.3,578.1z"/>
		<path class="st20" d="M237.9,585.6c1.1,2.9,1.1,2.9,1.6,5.9c0,0.1,0.5,0.1,0.5,0c0.2-0.6-1.1-7.5-1.1-7.5L237.9,585.6z"/>
		<g>
			<path class="st18" d="M278.2,429.9c-1.2,0.3-2.5,0.5-3.8,0.4c1.4,0.3,1.1,1.1,2.5,1.6c0.6,0,2.9-1.2,2.8-1.7
				C279.5,429.3,278.9,429.7,278.2,429.9z"/>
			<path class="st18" d="M286.2,432.2c-1.3-0.9-11.5-1.8-12.9-2.1c-0.1,0-2.7,4.1-3.1,5.6c6.2,2.5,15,3.8,14,1.1
				c-0.1-0.2,2.1,0.9,2.1-0.7c0-0.8,0.5-0.9,0.9-1.4C287.6,433.9,287.3,432.9,286.2,432.2z"/>
			<path class="st18" d="M220.4,371.5c-0.6-1.1-8.5,3.8-10.2,5.7c-3.9,4.4,7.8,32.5,15.4,40.8c2.9,3.2,13.4,3.7,7.9-8.6
				C228.9,399.5,223.7,377.6,220.4,371.5z"/>
			<path class="st18" d="M230.4,410.3c-2.3-0.3-5.8,0.6-6,5.4c-0.3,5.2,34.5,15.9,46.8,20.2c0.4-1.6,1.3-3.5,2.6-5.8
				c-7.6-2.5-35.4-16-42.1-19.4C231.4,410.6,230.9,410.4,230.4,410.3z"/>
			<path class="st19" d="M221.7,371c-5-4.5-13.8-0.1-14.4,7.2c-0.7,7.7,10.4,33.2,16.2,39.9c5.6,6.6,34.4,14.6,45,18.5
				c0,0-0.6-1.8,0.6-4.5c1.3-2.9,3-3.9,3-3.9c-10.5-6.2-35.2-17.5-37.9-19.2C234,408,224.3,373.3,221.7,371z"/>
		</g>
	</g>
	<g>
		<g>
			<path class="st20" d="M599,421.7c-3.3,2.3-5.7,5.7-7,9.5c-2.8,7.9-11.5,10.7-19.3,10.3c-6.7-0.3-13.2-2.4-19.9-3
				c-15.9-1.4-33.1,7.2-38.6,22.2c-3.7,10.3-0.9,21.9,4.8,31.1c13,20.9,44.3,14.8,52.7,12.4c38.7-10.9,61.9-51.6,54.9-76.5
				C624.7,421.1,610.3,413.6,599,421.7z"/>
		</g>
		<g>
			<path class="st18" d="M681,522.9c-1.2,0.3-2.8,0.6-4.1,0.5c0.4,0.8,1.4,1,2.8,1.5c0.6,0,2.9-1.2,2.8-1.7
				C682.2,522.3,681.6,522.7,681,522.9z"/>
			<path class="st18" d="M685.8,526.8c-0.2-0.1-3.7-2-5.3-2.6c-1.4-0.5-4-0.5-5.3-0.8c-0.1,0-2,2.2-2.2,5.4c2.3,0.9,7.4,2.6,9.8,3.9
				c2.7,1.5,4.2,1.3,3.5-0.3c-0.3-0.8,1.5,0.5,1.9-0.7c0.1-0.4-1.3-1.3,0.2-1.3c1,0,1.1-1,0.4-1.5
				C687.6,528.1,686.5,527.2,685.8,526.8z"/>
			<path class="st18" d="M610.6,471.1c-1-0.8-10,5.9-10.9,8.3c-2,5.5,22.5,24,32.5,28.9c3.8,1.9,13.7-1.5,4.1-10.8
				C628.5,489.9,615.9,475.5,610.6,471.1z"/>
			<path class="st5" d="M607.3,463c-7.2-1.9-14.2,2.9-14.6,10.7c-0.3,6.5,11.1,18.5,21.4,25.8c6-2.1,14-10.4,15.5-14.5
				C622,477.6,612,464.3,607.3,463z"/>
			<path class="st18" d="M637.4,500.2c-2.3-0.3-5.8,0.7-5.9,5.4c-0.1,6.4,29.2,19,41.5,23.2c0.4-1.6,0.9-3.2,2.2-5.4
				c-7.5-2.4-29.7-19.4-36.3-22.8C638.4,500.4,637.9,500.3,637.4,500.2z"/>
		</g>
		<path class="st20" d="M540.5,679.8c-0.9-1.1-2.1-2.8-2.1-2.8l-5.4,3c0,0-0.4,0.6-0.2,2.3c0,0-0.8,1.9,0.2,3.6
			c0.6,0.9,3.9,1.9,5.7,2.9c1.4,0.8,3.7,1,6.4,0.9c2.6-0.1,5.9-1.5,5.9-3C551,683.5,542.4,681.9,540.5,679.8z"/>
		<path class="st18" d="M540.5,679.8c-1.7-1.7,0.4-7.4,0.4-7.4l-7.6-4.6c0,0-0.7,12.7-0.5,14.4c0,0,6,0.7,7.2,0
			C542.1,681.1,540.5,679.8,540.5,679.8z"/>
		<path class="st20" d="M567.4,679.4c-0.9-1.1-2.1-2.8-2.1-2.8l-5.4,3c0,0-0.4,0.6-0.2,2.3c0,0-0.8,1.9,0.2,3.6
			c0.6,0.9,4.1,2.4,5.7,2.9c1.6,0.5,3.7,1,6.4,0.9c2.6-0.1,5.9-1.5,5.9-3C577.9,683.1,569.2,681.5,567.4,679.4z"/>
		<path class="st18" d="M567.4,679.4c-1.5-1.6-1.4-3.9-1.4-3.9l-6.8,0.1c0,0,0.4,4.5,0.7,6.2c0,0,5.5,1,7.3,0.1
			C569.1,680.7,567.8,679.8,567.4,679.4z"/>
		<path class="st23" d="M548.9,519.7l8.9,158.2c4.1,2.8,9,0,9-0.3c0,0,13.7-143.8,11.2-151.7C576.8,522.1,559.4,520.5,548.9,519.7z"
			/>
		<path class="st18" d="M608.2,437.2c-1.4,3.3-8.6,14.4-10.6,15.5c-1,7.1,7.4,12,10,9c0.8-4.4,6.1-10.3,6.5-10.9
			C611.8,449.9,608.5,438.2,608.2,437.2z"/>
		<path class="st24" d="M529.7,517.1c-10,13.6-6.7,24.9-5.2,38.1c5.8,49.2,7.4,122.7,7.4,122.7c0.1,0.3,3.4,2.4,8.5,0.7l13.3-149.4
			C543.2,530.1,533.2,519,529.7,517.1z"/>
		<path class="st18" d="M622.9,431.9c-5.4-2.7-11.2,0-13.9,5.4c0,0.1-2.8,5.6-2.8,5.6c-2,4.1,1.1,13.5,5,14.6
			c9.2,2.4,18.6-12,19.2-13.9C632,438.3,627.9,434.4,622.9,431.9z"/>
		<path class="st25" d="M607.6,461.7c0,0-2.8,1.7-5,0.2c-3.2-2.2-5-9.1-5-9.1s-7.7-1.9-10.5-1.9c-20,0.2-26.3,24.9-35.7,41
			c-7.3,12.5-14.4,13.9-24,26.7c10.9,17.7,30.9,30,50.9,30c2.2-11.7,9.4-30.5,16.7-39.6c3.8-4.8,16-8.3,16.2-23
			c0.1-7.2,6.6-8.8,3.6-14.2C613.7,469.8,607.6,461.7,607.6,461.7z"/>
		<path class="st20" d="M629.6,434.6c1.1-6.9-5.7-13.7-16.3-11.2c-15.7,3.7-9.2,20.7-9.2,20.7c1.7-1.6,8.4-14.6,22.8-7.4
			c0,0,4.3,6.3-2.6,14C629.1,451.1,637.5,438.1,629.6,434.6z"/>
		<path class="st18" d="M613.7,433.4c-1.2-0.9-2.9,0.4-3.9,1.5c-0.9,1.1-1.5,3.3-0.7,4.4c1.5-0.9,4.4-2.6,6-3.9
			C614.9,434.5,614.2,433.7,613.7,433.4z"/>
	</g>
	<g>
		<g>
			<g>
				<path class="st21" d="M153.1,434.3c-3.6-3.5-9.4-4.9-13.6-2.1c-8,5.3-2.5,13-1,17.3c6.3,18-14.2,16.9-19.3,30.7
					c-2.7,7.3,12.8,27.7,12.2,29.4c-0.9,2.6-3.2,4-5.7,4.9c-2.6,0.9-6.4,4.4-6.4,9.4c0,13.2,12.1,20.2,20.4,22.2
					c7.5,1.9,23.8,0.9,29.9-6.1c6.1-7,7.2-15.7,5.1-24.8c-1-4.4-5.5-12-4.9-16.9c1-8.3,7-15.3,8.6-20.7c1.6-5.3,1-12.3-3.5-16.3
					C163.6,451.4,156.1,437.2,153.1,434.3z"/>
			</g>
			<path class="st5" d="M148.6,472.3c-0.3,6-0.4,12-0.5,18c-0.1,6-0.1,12-0.2,18l0.2,18c0.1,6,0.2,12,0.5,18c0.3-6,0.4-12,0.5-18
				l0.2-18c-0.1-6,0-12-0.2-18C149,484.3,148.9,478.3,148.6,472.3z"/>
			<path class="st5" d="M159.1,494.5c-1.3,1.6-2.6,3.2-3.9,4.9c-2.5,3.3-4.9,6.7-7,10.3c2.9-3,5.5-6.2,8.1-9.5
				c1.3-1.7,2.5-3.3,3.7-5c1.2-1.7,2.3-3.5,3.6-5C161.8,491.3,160.4,492.9,159.1,494.5z"/>
			<path class="st5" d="M146.5,530.1c-0.9-1.2-1.8-2.4-2.8-3.5c-2-2.2-4.2-4.3-6.8-6c1.8,2.4,3.8,4.6,5.8,6.8c1,1.1,2,2.2,3,3.3
				l1.5,1.6c0.5,0.5,1,1.1,1.1,1.8c0.1-0.8-0.2-1.6-0.6-2.2C147.4,531.3,147,530.7,146.5,530.1z"/>
			<path class="st5" d="M137.9,477c1.5,3,3,5.9,4.6,8.7c1.7,2.8,3.4,5.7,5.7,8.1c-1.4-3-2.9-5.9-4.5-8.8
				C142,482.2,140.3,479.4,137.9,477z"/>
		</g>
		<g>
			<g>
				<path class="st26" d="M133,523.1c-0.6-1.2-0.7-2.1-0.5-3.2c0.3-2,1.1-2.6,1.8-4.5c0.7-1.8,1.2-3.6,0.1-5.7
					c-2.1-4.2-8.5-5-10.3-9.7c-0.8-2.2,0.3-3.9,1.3-6.1c0.9-2.2,2.3-5.1,1.9-7.8c-0.4-2.7-1.7-5.5-5-6.1c-3.3-0.5-6.3,1.9-8.6,4.4
					c-1.5,1.7-3.2,3.1-4.5,5.3c-3.5,6.1-6.8,11.1-4.6,18.7c1.8,6.1,9.7,8.1,6.8,22.8c-2.7,13.4,13.2,16.5,18.4,16.5
					c4.6,0,10.1-0.8,12.1-5.7c2-4.8,0.3-9.7-3.2-13.5C136.8,526.9,134.1,525.3,133,523.1z"/>
			</g>
			<path class="st5" d="M127.4,525.6c-1.4-3.3-2.9-6.7-4.4-10c-1.5-3.3-3.1-6.6-4.7-9.8c1.2,3.4,2.5,6.8,3.8,10.2
				c1.3,3.4,2.7,6.7,4.1,10.1c1.4,3.3,2.9,6.7,4.4,10c1.5,3.3,3.1,6.6,4.7,9.8c-1.2-3.4-2.5-6.8-3.8-10.2
				C130.2,532.3,128.8,528.9,127.4,525.6z"/>
			<path class="st5" d="M127.1,511.9c-0.5,1.2-0.9,2.5-1.1,3.7c-0.4,2.6-0.5,5.1-0.5,7.6c1.1-2.4,1.4-5,1.8-7.4
				c0.2-1.2,0.4-2.4,0.8-3.6c0.3-1.2,0.7-2.4,1.4-3.5C128.4,509.6,127.6,510.7,127.1,511.9z"/>
			<path class="st5" d="M129,535.9c-1-0.3-2-0.4-3-0.4c-1,0-1.9,0.1-2.8,0c0.8,0.6,1.8,0.8,2.7,1c0.9,0.2,1.8,0.3,2.6,0.7
				c1.6,0.5,2.9,1.8,4.3,3.2c-0.2-0.9-0.6-1.9-1.3-2.7C130.9,536.8,130,536.2,129,535.9z"/>
			<path class="st27" d="M117.7,509.8c-1.8-1.1-3.7-1.9-5.8-2.5c1.6,1.5,3.4,2.6,5.1,3.7c0.9,0.5,1.7,1.1,2.6,1.6
				c0.8,0.6,1.7,1.1,2.4,1.9c-0.3-1.1-1-2-1.7-2.7C119.5,511,118.6,510.4,117.7,509.8z"/>
		</g>
		<g>
			<path class="st21" d="M120.7,480.2c-2.7,0.3-5.1,2.3-7.1,4.4c-1.5,1.7-3.2,3.1-4.5,5.3c-3.5,6.1-6.8,11.1-4.6,18.7
				c1.7,6,9.4,8,6.9,21.9c2.4-2.9,2.4-6.3,7.5-11.3c8.7-8.4-4.1-17-4.1-25C114.8,487.8,116,482.3,120.7,480.2z"/>
		</g>
		<path class="st5" d="M177.2,536.6H105c-2.2,0-4,1.8-4,4v7c0,2.2,1.8,4,4,4h72.3c2.2,0,4-1.8,4-4v-7
			C181.3,538.4,179.5,536.6,177.2,536.6z"/>
		<path class="st28" d="M113.7,584.9c0.5,2.4,2.6,4,5,4h44.7c2.4,0,4.5-1.7,5-4l7.2-33.2h-69L113.7,584.9z"/>
	</g>
	<g>
		<g>
			<path class="st20" d="M718.6,480.1c-0.2-0.8-1-1.4-1.8-1.4h-82c-1.2,0-2.2,1.2-1.8,2.4l18.1,65.2c1.1,4,4.8,6.8,9,6.8h76.4
				c1.2,0,2.2-1.2,1.8-2.4L718.6,480.1z"/>
			<polygon class="st29" points="635.9,481.5 652.5,541.4 732.8,541.4 716.1,481.5 			"/>
			<polygon class="st2" points="703.2,481.5 719.8,541.4 732.8,541.4 716.1,481.5 			"/>
			<path class="st20" d="M711,516.6c-0.1,0-0.3,0-0.4,0.1l-16.4,8.7l-12.4-12.9c0,0,0-0.1-0.1-0.1c-0.1-0.2-0.4-0.4-0.7-0.6
				l-16.4-5.5l-12.3-11.2l7.5-0.5l-16.9-6.5l6.7,15.9l0.8-7.5c5.1,4.6,13,11.9,13.4,12c0,0,15.3,5.1,16.2,5.4l13.2,13.7
				c0.2,0.2,0.5,0.3,0.8,0.3c0.2,0,0.4,0,0.5-0.1l16.3-8.7c1,1.2,7.3,7.1,12.6,12.1l1.7-1.7l-13.1-12.5
				C711.7,516.9,711.4,516.6,711,516.6z"/>
			<polygon class="st29" points="709.1,496.6 710.6,502 720.1,502 718.6,496.6 			"/>
			<polygon class="st29" points="711.3,504.4 712.8,509.8 722.3,509.8 720.8,504.4 			"/>
			<polygon class="st29" points="713.5,512.1 715,517.5 724.5,517.5 723,512.1 			"/>
			<polygon class="st29" points="715.7,519.8 717.2,525.2 726.7,525.2 725.2,519.8 			"/>
			<g>
				<path class="st9" d="M805.4,532.9l-79.6,9.3c-1.9,0.2-3.2,1.9-3,3.8c0.2,1.9,1.9,3.2,3.8,3l79.6-9.3c1.9-0.2,3.2-1.9,3-3.8
					C808.9,534.1,807.2,532.7,805.4,532.9z"/>
			</g>
			<polygon class="st30" points="643.3,478.7 690.1,546.3 721.6,546.3 674.8,478.7 			"/>
			<g>
				<g>
					<path class="st13" d="M730,541.6l-73.2,8.6c-1.9,0.2-3.3,2-3.1,3.9c0.2,1.9,2,3.3,3.9,3.1l73.2-8.6c1.9-0.2,3.3-2,3.1-3.9
						C733.6,542.8,731.9,541.4,730,541.6z"/>
				</g>
				<g>
					
						<rect x="673.6" y="550.1" transform="matrix(0.9932 -0.1167 0.1167 0.9932 -59.6857 82.7477)" class="st7" width="6.6" height="2"/>
					
						<rect x="682.1" y="549.2" transform="matrix(0.9931 -0.1171 0.1171 0.9931 -59.72 83.9386)" class="st7" width="4.8" height="2"/>
				</g>
			</g>
			<path class="st29" d="M711.6,483.7c-2,0-3.6,1.7-3.5,3.7c0.1,2.1,1.7,3.7,3.7,3.7c2,0,3.6-1.7,3.5-3.7
				C715.3,485.4,713.6,483.7,711.6,483.7z"/>
		</g>
		<g>
			<g>
				<path class="st18" d="M726.5,557.2c0,0.7,3,1.5,3.6,1.3c1.5-1,0.9-1.8,2.4-2.5c-1.4,0.4-3,0.6-4.4,0.5
					C727.3,556.4,726.5,556.1,726.5,557.2z"/>
				<path class="st18" d="M733.7,555.3c-1.5,0.7-3,1.6-4.5,2.5c-1.7,1.1-5.3,4.1-5.6,4.3c-0.7,0.6-2.7,2-3,2.7
					c-0.2,0.4-0.4,1.8-0.2,2.3c0.3,0.7,1.2,0.7,1.2,0.7c0.2,1,2.5,0,2.5,0.3c0,1,1.4,1.4,4.1-1c0.2-0.1,8.1-4.6,10.5-6.2
					C737.8,559.3,733.8,555.3,733.7,555.3z"/>
				<path class="st18" d="M770.8,519c-0.6,0.2-1.1,0.5-1.5,0.8c-6.8,5.7-28.1,30.9-36.1,35.7c2.1,2.2,3.6,4.2,4.5,5.9
					c13-8.1,43-32,41.3-37.8C777.5,518.3,773.3,518,770.8,519z"/>
				<path class="st18" d="M789.8,477c-2.4-1.7-17.3-6.2-17.7-4.8c-2.2,7.8-2.5,34.1-5,46.7c-3.1,15.4,8.8,12.1,11.2,7.7
					C784.7,515.1,795.4,480.9,789.8,477z"/>
				<path class="st31" d="M769.3,471.1c-5.4,6.6-2.8,41.2-4.1,47.4c-0.2,1.1-0.4,2.1-0.5,3c-2.7,2.7-6.2,6.4-9.9,10.4
					c-8,8.6-18.1,19.3-22.7,22.1l6.4,9c11.4-7.1,36.4-26.6,41.2-35.7c5.2-9.4,16.5-41.7,12.4-50.1
					C786.2,464.7,774.1,465.4,769.3,471.1z"/>
			</g>
			<path class="st32" d="M770.5,556c-11.9-0.8-68.2,4.2-94.5,17.9c-15.8,8.2-8.1,24.9-2.6,25.6c14.8,1.9,71.1,4.4,93.4-6.5
				C784,584.6,776.8,556.4,770.5,556z"/>
			<path class="st18" d="M711.3,671.3c0.8,2.7,0.8,4.7,0.8,4.7c2.4,2.4,6.9,2.5,7,2.3c0,0,0.7-3.1,0.2-7.4
				C718.8,670.9,714.4,668.5,711.3,671.3z"/>
			<path class="st32" d="M669.8,598.7c20.7,37.2,41.3,75.8,41.3,75.8c1.3-2.4,5.4-4,8.7-3.1c0,0-12.1-40.5-24.2-76
				C687.6,572.1,661.4,583.5,669.8,598.7z"/>
			<path class="st20" d="M712,674.2c0,0-0.2,0.4-1.3,1.5c-2.2,2.1-12,6.4-12.3,9.7c-0.2,1.6,3.1,3.5,5.9,3.9
				c2.8,0.4,5.3,0.5,6.9-0.2c2-0.9,6-5.2,6.7-6.1c1.9-2.2,1.2-6.2,1.2-6.2C717.4,672.8,712,674.2,712,674.2z"/>
			<path class="st18" d="M765.2,672.1c0.8,4.2,2,8.3,2,8.3c0.1,0.2,6.1-2,8.5-4.4c0,0-1.8-2.8-3.2-5.5
				C769.4,667.6,765.7,672.1,765.2,672.1z"/>
			<path class="st32" d="M728.9,611.7c20.7,37.2,36,62.9,36,62.9c1.3-2.4,5.2-4.2,8.5-3.2c0,0-10.1-29.5-22.2-64.9
				C743.1,583.1,720.5,596.5,728.9,611.7z"/>
			<path class="st20" d="M775.3,675.7L775.3,675.7c-1.6-1.6-3.9-2.2-6-1.4c0,0-0.1,0-0.1,0c-1.6,0.6-2.5,2.3-2.4,4
				c0.1,1.5,0.4,3.6,1.2,4.6c0.7,0.9,4.8,5.2,6.7,6.1c1.6,0.7,4.1,0.6,6.9,0.2c2.8-0.4,6.1-2.2,5.9-3.9
				C787.3,682.1,777.5,677.8,775.3,675.7z"/>
			<path class="st4" d="M794.2,541.1c-13.2,1.7-26.4,3.7-39.7,4c-8.3,0.2-16.1-0.7-23.5-2.8c0,12.9-2.5,14.8-8,18.3
				c3.9,14.1,11.8,17.9,18.5,20.4c34.6,12.9,62.6-7.8,63.8-7.9c-0.1-10.2-0.9-21.7-2.2-33.2C800.2,540.3,797.2,540.7,794.2,541.1z"
				/>
			<path class="st18" d="M768.6,442.1c-1,0.7-10.9,6.3-13.8,5.9c0,0.8,2,9.1,0.1,13.6c0.8,4.2,12.4,4.2,15.6-2.9
				C769.2,456.7,768,445.9,768.6,442.1z"/>
			<path class="st18" d="M754.3,422.2c-6.5-0.4-12.7,1.1-14.1,7.2c-0.5,2.2,0.4,22.2,11,24.9c7.6,1.9,13-6.4,13.3-11.6
				c0,0,0.5-7.1,0.5-7.1C765.4,428.7,761.2,422.7,754.3,422.2z"/>
			<path class="st10" d="M782.2,461.8c-3-0.7-11.8-3.1-11.8-3.1s-1.7,2.4-7.1,3.6c-4.8,1-8.5-0.6-8.5-0.6s-10.5,4.5-12.4,5.6
				c-10.9,6.7-8.1,13.8-8.5,23.7c-0.2,4.6,0.9,53.1-10.2,69.3c0.4,0.6,4.4,10.3,13.6,12.7l2.3-19.9l2,20.8c21.5,4.6,38-3.9,55.3-6.5
				l1.7-26.1l5,25.2c1.7-0.2,3.2-0.4,4.5-0.5c-0.2-39.9-11.5-78.7-12-80.5C794.1,477.6,791.1,463.9,782.2,461.8z"/>
			<path class="st20" d="M772,414.4c-10.1-7.9-25.9-2.6-30.3,7.7c-3.3,7.7-7.7,4.7-7.4,2.7c-1,5.1,1.2,9.6,11.1,8.8
				c2.1-0.2-4.6,1.9-4.6,1.9s10.6,22,27,16.6c4.9-1.6,9.1-6.4,9.1-6.4s-5.3,0.9-2.5-3.4C779.7,434,780.9,421.4,772,414.4z"/>
			<g>
				<path class="st18" d="M672.8,548.9c-0.3,0.6,3.5,3.9,4.2,3.9c1.7,0,2.9-0.6,2.8-1.9c-1.4-0.2-3.9-1.3-5.2-2
					C673.9,548.5,673.2,547.9,672.8,548.9z"/>
				<path class="st18" d="M676.7,551.2c-2.1,0.3-10.1,2.2-10.7,2.6c-0.4,0.3-1.8,0.6-1.8,1.8c0,0.8,1.4,1.3,1.4,1.3
					c-0.7,1.7,2.3,1.5,2.2,1.7c-0.7,1,0.8,1.6,4.4,1c2.9-0.4,7.4-0.8,11.9-1.8c-0.1-1.8-2.1-7.1-2.2-7.1
					C680.2,550.8,678.5,550.9,676.7,551.2z"/>
				<path class="st18" d="M726.3,531.5c-0.6,0.1-1.2,0.3-1.6,0.6c-7.7,4.4-35.6,15.9-44.3,19.2c1.6,2.5,3.1,4.8,3.6,6.7
					c12.9-2.9,50.8-13,50.2-19.1C733.7,533.2,729,531,726.3,531.5z"/>
				<path class="st18" d="M736.9,482.4c-3.1,7.5-6.6,33.6-10.6,45.8c-4.9,14.9,7.2,13,10.2,9c7.8-10.6,24.1-43.5,19-48.1
					C753.3,487.1,737.5,481.1,736.9,482.4z"/>
				<path class="st10" d="M734.3,478.3c-1.2,8.2-2.4,15.9-4.1,24.9c-1.8,9.1-6.2,26.4-6.4,27.4c-3,2.3-33.3,15-38.3,17.2l3.7,10.2
					c12.5-3.9,43-11.4,48.9-19.8c6.3-8.7,25.4-42.5,20.4-50.3C753.4,480,734.4,477.6,734.3,478.3z"/>
			</g>
		</g>
		<g>
			<polygon class="st20" points="814.8,610.9 841.8,689.5 844.8,689.5 817.8,610.9 			"/>
			<polygon class="st20" points="769.1,610.9 796.1,689.5 799.1,689.5 772.1,610.9 			"/>
			<path class="st20" d="M820.8,494.5c-19,0-37.2,15.4-40.7,34.3l-11.9,49.3c-2.1,11.1-14.3,19.2-25.6,19.2h-24.7
				c-3.7,0-6.7,3-6.7,6.7c0,3.7,3,6.7,6.7,6.7l101.8,0.1c4.7,0,8.8-3.3,9.7-8l19.4-74.1C852.2,509.9,839.7,494.5,820.8,494.5z"/>
			<path class="st12" d="M820.8,494.5c-19,0-37.2,15.4-40.7,34.3l-11.9,49.3c-2.1,11.1-14.3,19.3-25.6,19.3h-24.7
				c-3.7,0-6.7,3-6.7,6.7c0,3.7,3,6.7,6.7,6.7l3.2,0c1-2.4,3.4-4.1,6.2-4.1h24.7c11.3,0,23.5-8,25.6-19.2l11.9-49.3
				c3.5-19,21.8-34.3,40.7-34.3c5.8,0,10.9,1.4,15.2,4C840.6,499.8,831.8,494.5,820.8,494.5z"/>
			<polygon class="st20" points="709.7,689.5 712.7,689.5 739.7,610.9 736.7,610.9 			"/>
			<polygon class="st20" points="755.4,689.5 758.4,689.5 785.4,610.9 782.4,610.9 			"/>
		</g>
	</g>
	<g>
		<path class="st18" d="M648.1,504.9c-1.1,0.6-2.3,1.1-3.5,1.3c1.4-0.1,1.3,0.8,2.8,1c0.6-0.1,2.5-1.9,2.2-2.4
			C649.2,503.9,648.6,504.5,648.1,504.9z"/>
		<path class="st18" d="M657,508.2c-0.5-0.3-2.6-0.6-3.3-0.8c-0.3-0.1-4.1-0.9-5.9-1c-1.5-0.2-3-0.2-4.4-0.2c-0.1,0-1.6,4.6-1.6,6.1
			c2.5,0.3,10.2,0.5,10.4,0.6c3,0.7,3.9-0.1,3.5-0.9c-0.1-0.2,2-0.4,1.8-1.2c0,0,0.7-0.3,0.6-0.9C658.1,509.4,657.4,508.4,657,508.2
			z"/>
		<path class="st18" d="M590.9,456.7c-0.6-1.1-12.7,4.7-14.3,6.6c-3.7,4.5,13.8,30.2,21.5,38.2c3,3,13.4,3.2,7.5-8.8
			C600.8,483,594.4,462.6,590.9,456.7z"/>
		<path class="st5" d="M575.2,465.5c0.2,3.9,4.9,18.6,12.1,28.9c6.4-1.3,13.6-5.6,16.9-9.3c-4.6-9.6-7.8-25.6-11.6-28.7
			C587.3,452,574.7,455.5,575.2,465.5z"/>
		<path class="st18" d="M601.3,493.4c-2.3,0.3-5.4,2.1-4.4,6.7c1.1,5.1,33,11.3,45.9,12.3c0-1.6,0.4-3.7,1.1-6.2
			c-7.9-0.5-33.9-11.1-41.2-12.7C602.3,493.4,601.8,493.4,601.3,493.4z"/>
	</g>
	<g>
		<g>
			<path class="st29" d="M518.7,177.5l-20.6-20.6c-2.6-2.6-6.7-2.6-9.3,0c-1.3,1.3-1.9,2.9-1.9,4.5l0,0c0.1,3.3-1.1,6.6-3.6,9.1
				c-4.9,4.9-12.7,4.9-17.6,0c-4.9-4.9-4.9-12.7,0-17.6c2.5-2.5,5.8-3.7,9.1-3.6l0,0c1.6,0,3.3-0.7,4.5-1.9c2.6-2.6,2.6-6.7,0-9.3
				l-20.6-20.6l-20.6,20.6c-2.6,2.6-2.6,6.7,0,9.3c1.3,1.3,2.9,1.9,4.5,1.9l0,0c3.3-0.1,6.6,1.1,9.1,3.6c4.9,4.9,4.9,12.7,0,17.6
				c-4.9,4.9-12.7,4.9-17.6,0c-2.5-2.5-3.7-5.8-3.6-9.1l0,0c0-1.6-0.7-3.3-1.9-4.5c-2.6-2.6-6.7-2.6-9.3,0l-20.6,20.6l20.6,20.6
				c2.6,2.6,2.6,6.7,0,9.3c-1.3,1.3-2.9,1.9-4.5,1.9l0,0c-3.3-0.1-6.6,1.1-9.1,3.6c-4.8,4.9-4.8,12.7,0,17.6
				c4.9,4.8,12.7,4.9,17.6,0c2.5-2.5,3.7-5.8,3.6-9.1l0,0c0-1.7,0.7-3.3,1.9-4.5c2.6-2.6,6.7-2.6,9.3,0l20.6,20.6l20.6-20.6
				c2.6-2.6,6.7-2.6,9.3,0c1.3,1.2,1.9,2.9,1.9,4.5h0c-0.1,3.3,1.1,6.6,3.6,9.1c4.8,4.9,12.7,4.9,17.6,0c4.8-4.9,4.9-12.7,0-17.6
				c-2.5-2.5-5.8-3.7-9.1-3.6l0,0c-1.6,0-3.3-0.7-4.5-1.9c-2.6-2.6-2.6-6.7,0-9.3L518.7,177.5z"/>
		</g>
		<g>
			<path class="st33" d="M458.8,237.4l-20.6-20.6c-2.6-2.6-6.7-2.6-9.3,0c-1.3,1.3-1.9,2.9-1.9,4.5l0,0c0.1,3.3-1.1,6.6-3.6,9.1
				c-4.9,4.8-12.7,4.8-17.6,0c-4.8-4.9-4.8-12.7,0-17.6c2.5-2.5,5.8-3.7,9.1-3.6l0,0c1.6,0,3.3-0.7,4.5-1.9c2.6-2.6,2.6-6.7,0-9.3
				l-20.6-20.6l-20.6,20.6c-2.6,2.6-2.6,6.7,0,9.3c1.3,1.3,2.9,1.9,4.5,1.9l0,0c3.3-0.1,6.6,1.1,9.1,3.6c4.9,4.9,4.9,12.7,0,17.6
				c-4.8,4.9-12.7,4.9-17.6,0c-2.5-2.5-3.7-5.8-3.6-9.1l0,0c0-1.7-0.7-3.3-1.9-4.5c-2.6-2.6-6.7-2.6-9.3,0l-20.6,20.6l20.6,20.6
				c2.6,2.6,2.6,6.7,0,9.3c-1.3,1.3-2.9,1.9-4.5,1.9l0,0c-3.3-0.1-6.6,1.1-9.1,3.6c-4.9,4.9-4.9,12.7,0,17.6
				c4.8,4.9,12.7,4.9,17.6,0c2.5-2.5,3.7-5.8,3.6-9.1c0-1.6,0.7-3.3,1.9-4.5c2.6-2.6,6.7-2.6,9.3,0l20.6,20.6l20.6-20.6
				c2.6-2.6,6.7-2.6,9.3,0c1.3,1.3,1.9,2.9,1.9,4.5c-0.1,3.3,1.1,6.6,3.6,9.1c4.8,4.8,12.7,4.8,17.6,0c4.9-4.9,4.9-12.7,0-17.6
				c-2.5-2.5-5.8-3.7-9.1-3.6l0,0c-1.6,0-3.3-0.7-4.5-1.9c-2.6-2.6-2.6-6.7,0-9.3L458.8,237.4z"/>
		</g>
		<g>
			<path class="st34" d="M398.8,177.5l-20.6-20.6c-2.6-2.6-6.7-2.6-9.3,0c-1.3,1.3-1.9,2.9-1.9,4.5l0,0c0.1,3.3-1.1,6.6-3.6,9.1
				c-4.9,4.9-12.7,4.9-17.6,0c-4.8-4.8-4.9-12.7,0-17.6c2.5-2.5,5.8-3.7,9.1-3.6l0,0c1.6,0,3.3-0.7,4.5-1.9c2.6-2.6,2.6-6.7,0-9.3
				l-20.6-20.6l-20.6,20.6c-2.6,2.6-2.6,6.7,0,9.3c1.3,1.2,2.9,1.9,4.5,1.9l0,0c3.3-0.1,6.6,1.1,9.1,3.6c4.9,4.8,4.9,12.7,0,17.6
				c-4.9,4.9-12.7,4.9-17.6,0c-2.5-2.5-3.7-5.8-3.6-9.1l0,0c0-1.6-0.7-3.3-1.9-4.5c-2.6-2.6-6.7-2.6-9.3,0L279,177.5l20.6,20.6
				c2.6,2.6,2.6,6.7,0,9.3c-1.3,1.3-2.9,1.9-4.5,1.9h0c-3.3-0.1-6.6,1.1-9.1,3.6c-4.9,4.9-4.9,12.7,0,17.6c4.9,4.9,12.7,4.9,17.6,0
				c2.5-2.5,3.7-5.8,3.6-9.1h0c0-1.6,0.7-3.3,1.9-4.5c2.6-2.6,6.7-2.6,9.3,0l20.6,20.6l20.6-20.6c2.6-2.6,6.7-2.6,9.3,0
				c1.3,1.3,1.9,2.9,1.9,4.5h0c-0.1,3.3,1.1,6.6,3.6,9.1c4.8,4.8,12.7,4.8,17.6,0c4.9-4.9,4.9-12.7,0-17.6c-2.5-2.5-5.8-3.7-9.1-3.6
				l0,0c-1.6,0-3.3-0.7-4.5-1.9c-2.6-2.6-2.6-6.7,0-9.3L398.8,177.5z"/>
		</g>
		<g>
			<path class="st35" d="M197.2,203.8c0.8-0.8,1.9-1.2,2.9-1.2h0c2.1,0.1,4.3-0.7,5.9-2.4c3.2-3.1,3.2-8.3,0-11.4
				c-3.1-3.1-8.3-3.1-11.4,0c-1.6,1.6-2.4,3.8-2.4,5.9h0c0,1.1-0.4,2.1-1.2,2.9c-1.7,1.7-4.4,1.7-6,0l-13.3-13.4l-13.3,13.4
				c-1.7,1.7-4.4,1.7-6,0c-0.8-0.8-1.2-1.9-1.2-2.9h0c0.1-2.1-0.7-4.3-2.4-5.9c-3.1-3.1-8.3-3.1-11.4,0c-3.1,3.1-3.1,8.2,0,11.4
				c1.6,1.6,3.8,2.4,5.9,2.4l0,0c1.1,0,2.1,0.4,2.9,1.2c1.7,1.7,1.7,4.4,0,6l-13.3,13.3l13.3,13.3c1.7,1.7,4.4,1.7,6,0
				c0.8-0.8,1.2-1.9,1.2-2.9l0,0c-0.1-2.1,0.7-4.3,2.3-5.9c3.1-3.2,8.3-3.1,11.4,0c3.1,3.1,3.2,8.2,0,11.4c-1.6,1.6-3.8,2.4-5.9,2.3
				l0,0c-1.1,0-2.1,0.4-2.9,1.2c-1.7,1.7-1.7,4.4,0,6l13.3,13.3l13.3-13.3c1.7-1.7,1.7-4.4,0-6c-0.8-0.8-1.9-1.2-2.9-1.2l0,0
				c-2.1,0.1-4.3-0.7-5.9-2.3c-3.1-3.1-3.2-8.3,0-11.4c3.1-3.1,8.3-3.1,11.4,0c1.6,1.6,2.4,3.8,2.3,5.9l0,0c0,1.1,0.4,2.1,1.2,2.9
				c1.7,1.7,4.4,1.7,6,0l13.3-13.3l-13.3-13.3C195.5,208.2,195.5,205.5,197.2,203.8z"/>
		</g>
	</g>
</g>
</svg>
