<?xml version="1.0" encoding="utf-8"?>
<!-- Generator: Adobe Illustrator 23.0.3, SVG Export Plug-In . SVG Version: 6.00 Build 0)  -->
<svg version="1.1" id="Layer_1" xmlns="http://www.w3.org/2000/svg" xmlns:xlink="http://www.w3.org/1999/xlink" x="0px" y="0px"
	 viewBox="0 0 900 765" style="enable-background:new 0 0 900 765;" xml:space="preserve">
<style type="text/css">
	.st0{fill:#F50057;}
	.st1{fill:#3D5AFE;}
	.st2{fill:#ACD5F4;}
	.st3{fill:#86BBD8;}
	.st4{fill:#316091;}
	.st5{fill:#194866;}
	.st6{fill:#596273;}
	.st7{fill:#86C0F0;}
	.st8{fill:none;stroke:#3DC7C9;stroke-width:3.7304;stroke-miterlimit:10;}
	.st9{fill:none;stroke:#2C7EEA;stroke-width:3.7304;stroke-miterlimit:10;}
	.st10{fill:none;stroke:#F1FAFC;stroke-width:3.7304;stroke-miterlimit:10;}
	.st11{fill:none;stroke:#FFC4AD;stroke-width:3.7304;stroke-miterlimit:10;}
	.st12{fill:none;stroke:#7EC8EF;stroke-width:3.7304;stroke-miterlimit:10;}
	.st13{fill:#FFFFFF;}
	.st14{fill:#EFFAFF;}
	.st15{fill:#2C7EEA;}
	.st16{fill:#74B2E8;}
	.st17{fill:#D0DEE6;}
	.st18{fill:#88BDDA;}
	.st19{fill:#91E2F6;}
	.st20{fill:#001F46;}
	.st21{fill:#367082;}
	.st22{fill:#3DC7C9;}
	.st23{fill:#3D7AA8;}
	.st24{fill:#FFEB3B;}
	.st25{fill:#F4FF81;}
	.st26{fill:#E6B09C;}
	.st27{fill:#163F59;}
	.st28{fill:#FFC4AD;}
	.st29{fill:#161711;}
	.st30{fill:#B6C2C9;}
	.st31{fill:#879BA6;}
	.st32{fill:#E4EEF3;}
	.st33{fill:#33A8B5;}
	.st34{fill:#B0BFDE;}
	.st35{fill:#282723;}
	.st36{fill:#D1DBEA;}
	.st37{fill:#304FFE;}
	.st38{fill:url(#SVGID_1_);}
	.st39{fill:#2F4A60;}
	.st40{fill:#33691E;}
	.st41{fill:none;stroke:#33A8B5;stroke-width:2.2818;stroke-miterlimit:10;}
	.st42{fill:#558B2F;}
	.st43{fill:none;stroke:#86C0F0;stroke-width:2.2818;stroke-miterlimit:10;}
	.st44{fill:#CCFF90;}
	.st45{fill:none;stroke:#161711;stroke-width:1.7053;stroke-miterlimit:10;}
	.st46{fill:#6A1B9A;}
</style>
<g>
	<path class="st0" d="M900,507c-49.2,32.3-91.5,118.5-170.7,118.5c-276.6,0-303.7,84.9-463.2,122.9C-46.9,822.9-25.3,627,56.6,545.2
		c74.4-74.3,127.3-132.8,3-247.3C-57,190.5,199.8,87.6,224,76.5c108.3-49.8,230.1-62,346.1-34.7L900,119.5V507z"/>
	<g>
		<g>
			<rect x="65.8" y="190.2" class="st1" width="423.2" height="238"/>
			<g>
				<rect x="66" y="190.1" class="st2" width="423.2" height="6.2"/>
				<rect x="73.5" y="193" class="st3" width="10.2" height="0.6"/>
				<rect x="86.5" y="193" class="st3" width="10.2" height="0.6"/>
				<rect x="99.6" y="193" class="st3" width="10.2" height="0.6"/>
				<rect x="112.7" y="193" class="st3" width="10.2" height="0.6"/>
				<rect x="125.8" y="193" class="st3" width="10.2" height="0.6"/>
				<rect x="138.9" y="193" class="st3" width="10.2" height="0.6"/>
				<rect x="151.9" y="193" class="st3" width="10.2" height="0.6"/>
				<rect x="165" y="193" class="st3" width="10.2" height="0.6"/>
				<rect x="68.9" y="192.2" class="st3" width="1.9" height="2.1"/>
			</g>
			<g>
				<rect x="66" y="195.6" class="st4" width="423.2" height="7.4"/>
				<rect x="460.7" y="197.2" class="st5" width="26.8" height="4.6"/>
				<rect x="456.2" y="199.1" class="st6" width="1" height="1"/>
				<rect x="439.9" y="199.1" class="st5" width="14.1" height="1"/>
				<rect x="75.4" y="198.3" class="st7" width="1.9" height="2.1"/>
				<rect x="68.9" y="198.3" class="st7" width="1.9" height="2.1"/>
				<rect x="79.6" y="198.3" class="st7" width="1.9" height="2.1"/>
			</g>
		</g>
		<g>
			<line class="st8" x1="119.8" y1="209.2" x2="208.3" y2="209.2"/>
			<line class="st9" x1="127.1" y1="219.6" x2="141.7" y2="219.6"/>
			<line class="st9" x1="127.1" y1="230" x2="141.7" y2="230"/>
			<line class="st9" x1="127.1" y1="240.4" x2="141.7" y2="240.4"/>
			<line class="st8" x1="170.3" y1="219.6" x2="215.2" y2="219.6"/>
			<line class="st8" x1="170.3" y1="230" x2="215.2" y2="230"/>
			<line class="st8" x1="170.3" y1="240.4" x2="215.2" y2="240.4"/>
			<line class="st10" x1="148.1" y1="219.6" x2="158.4" y2="219.6"/>
			<line class="st10" x1="148.1" y1="230" x2="158.4" y2="230"/>
			<line class="st10" x1="148.1" y1="240.4" x2="158.4" y2="240.4"/>
			<line class="st11" x1="162.8" y1="219.6" x2="165.6" y2="219.6"/>
			<line class="st11" x1="162.8" y1="230" x2="165.6" y2="230"/>
			<line class="st11" x1="162.8" y1="240.4" x2="165.6" y2="240.4"/>
			<line class="st11" x1="120.1" y1="219.6" x2="122.9" y2="219.6"/>
			<line class="st11" x1="120.1" y1="230" x2="122.9" y2="230"/>
			<line class="st11" x1="120.1" y1="240.4" x2="122.9" y2="240.4"/>
			<line class="st9" x1="127.1" y1="261.3" x2="149.7" y2="261.3"/>
			<line class="st8" x1="181" y1="261.3" x2="215.2" y2="261.3"/>
			<line class="st10" x1="156" y1="261.3" x2="169" y2="261.3"/>
			<line class="st11" x1="173.5" y1="261.3" x2="176.2" y2="261.3"/>
			<line class="st8" x1="216.6" y1="282.1" x2="322.6" y2="282.1"/>
			<line class="st10" x1="157.4" y1="282.1" x2="208.3" y2="282.1"/>
			<line class="st8" x1="255.1" y1="261.3" x2="289.4" y2="261.3"/>
			<line class="st10" x1="224.9" y1="261.3" x2="243.2" y2="261.3"/>
			<line class="st11" x1="247.6" y1="261.3" x2="250.4" y2="261.3"/>
			<line class="st11" x1="292.8" y1="261.3" x2="295.6" y2="261.3"/>
			<line class="st11" x1="120.1" y1="261.3" x2="122.9" y2="261.3"/>
			<line class="st9" x1="127.1" y1="302.9" x2="149.7" y2="302.9"/>
			<line class="st10" x1="120.1" y1="302.9" x2="122.9" y2="302.9"/>
			<line class="st10" x1="154" y1="302.9" x2="156.8" y2="302.9"/>
			<line class="st9" x1="109.8" y1="344.5" x2="132.4" y2="344.5"/>
			<line class="st10" x1="102.8" y1="344.5" x2="105.6" y2="344.5"/>
			<line class="st10" x1="136.8" y1="344.5" x2="139.5" y2="344.5"/>
			<line class="st11" x1="139.1" y1="292.5" x2="141.8" y2="292.5"/>
			<line class="st9" x1="139.1" y1="271.7" x2="152.4" y2="271.7"/>
			<line class="st11" x1="157.4" y1="271.7" x2="209.2" y2="271.7"/>
			<line class="st8" x1="246.8" y1="219.6" x2="291.7" y2="219.6"/>
			<line class="st8" x1="246.8" y1="230" x2="291.7" y2="230"/>
			<line class="st8" x1="246.8" y1="240.4" x2="291.7" y2="240.4"/>
			<line class="st8" x1="294.1" y1="219.6" x2="372.5" y2="219.6"/>
			<line class="st8" x1="294.1" y1="230" x2="401.5" y2="230"/>
			<line class="st8" x1="294.1" y1="240.4" x2="420.7" y2="240.4"/>
			<line class="st10" x1="224.5" y1="219.6" x2="234.9" y2="219.6"/>
			<line class="st10" x1="224.5" y1="230" x2="234.9" y2="230"/>
			<line class="st10" x1="224.5" y1="240.4" x2="234.9" y2="240.4"/>
			<line class="st11" x1="239.3" y1="219.6" x2="242" y2="219.6"/>
			<line class="st11" x1="239.3" y1="230" x2="242" y2="230"/>
			<line class="st11" x1="239.3" y1="240.4" x2="242" y2="240.4"/>
			<line class="st11" x1="382.8" y1="219.6" x2="385.6" y2="219.6"/>
			<line class="st11" x1="409.2" y1="230" x2="412" y2="230"/>
			<line class="st11" x1="427.2" y1="240.4" x2="429.9" y2="240.4"/>
			<line class="st12" x1="119.8" y1="250.9" x2="208.3" y2="250.9"/>
			<line class="st9" x1="109.2" y1="366.7" x2="123.8" y2="366.7"/>
			<line class="st9" x1="143.4" y1="387.5" x2="158" y2="387.5"/>
			<line class="st8" x1="186.6" y1="387.5" x2="283.7" y2="387.5"/>
			<line class="st10" x1="120.8" y1="377.1" x2="263.1" y2="377.1"/>
			<line class="st10" x1="164.4" y1="387.5" x2="174.7" y2="387.5"/>
			<line class="st11" x1="179.1" y1="387.5" x2="181.9" y2="387.5"/>
			<line class="st11" x1="102.2" y1="366.7" x2="104.9" y2="366.7"/>
			<line class="st11" x1="127.1" y1="366.7" x2="129.9" y2="366.7"/>
			<line class="st9" x1="163" y1="397.9" x2="169.7" y2="397.9"/>
			<line class="st11" x1="156" y1="397.9" x2="158.8" y2="397.9"/>
			<line class="st11" x1="173" y1="397.9" x2="175.7" y2="397.9"/>
			<line class="st9" x1="181.6" y1="418.7" x2="188.3" y2="418.7"/>
			<line class="st11" x1="174.7" y1="418.7" x2="177.4" y2="418.7"/>
			<line class="st11" x1="191.6" y1="418.7" x2="194.4" y2="418.7"/>
			<line class="st11" x1="136.4" y1="387.5" x2="139.2" y2="387.5"/>
			<line class="st10" x1="175" y1="408.3" x2="395.1" y2="408.3"/>
			<line class="st11" x1="287.1" y1="387.5" x2="289.8" y2="387.5"/>
			<line class="st12" x1="119.8" y1="313.3" x2="241.5" y2="313.3"/>
			<line class="st12" x1="119.8" y1="323.7" x2="300" y2="323.7"/>
			<line class="st12" x1="119.8" y1="334.1" x2="181" y2="334.1"/>
			<line class="st11" x1="71.2" y1="209.2" x2="77.9" y2="209.2"/>
			<line class="st11" x1="71.2" y1="219.6" x2="77.9" y2="219.6"/>
			<line class="st11" x1="71.2" y1="230" x2="77.9" y2="230"/>
			<line class="st11" x1="71.2" y1="240.4" x2="77.9" y2="240.4"/>
			<line class="st11" x1="71.2" y1="250.9" x2="77.9" y2="250.9"/>
			<line class="st11" x1="71.2" y1="261.3" x2="77.9" y2="261.3"/>
			<line class="st11" x1="71.2" y1="271.7" x2="77.9" y2="271.7"/>
			<line class="st11" x1="71.2" y1="282.1" x2="77.9" y2="282.1"/>
			<line class="st11" x1="71.2" y1="292.5" x2="77.9" y2="292.5"/>
			<line class="st11" x1="71.2" y1="302.9" x2="77.9" y2="302.9"/>
			<line class="st11" x1="71.2" y1="313.3" x2="77.9" y2="313.3"/>
			<line class="st11" x1="71.2" y1="323.7" x2="77.9" y2="323.7"/>
			<line class="st11" x1="71.2" y1="334.1" x2="77.9" y2="334.1"/>
			<line class="st11" x1="71.2" y1="344.5" x2="77.9" y2="344.5"/>
			<line class="st11" x1="71.2" y1="354.9" x2="77.9" y2="354.9"/>
			<line class="st11" x1="71.2" y1="365.4" x2="77.9" y2="365.4"/>
			<line class="st11" x1="71.2" y1="375.8" x2="77.9" y2="375.8"/>
		</g>
	</g>
	<g>
		<g>
			<rect x="373.7" y="164.1" class="st13" width="402.9" height="199"/>
			<g>
				<rect x="382.5" y="192.7" class="st2" width="195" height="109.2"/>
			</g>
			<g>
				<rect x="382.5" y="302.7" class="st14" width="195" height="53.4"/>
			</g>
			<g>
				<rect x="581.5" y="192.7" class="st15" width="187.5" height="51.3"/>
			</g>
			<path class="st2" d="M772.5,136.9H377.7c-2.2,0-4,1.7-4,3.8v23.6h402.9v-23.6C776.5,138.6,774.7,136.9,772.5,136.9z"/>
			<g>
				<path class="st3" d="M382.2,144.3c0,1.3-1.1,2.4-2.4,2.4s-2.4-1.1-2.4-2.4c0-1.3,1.1-2.4,2.4-2.4S382.2,143,382.2,144.3z"/>
				<path class="st3" d="M389.4,144.3c0,1.3-1.1,2.4-2.4,2.4c-1.4,0-2.4-1.1-2.4-2.4c0-1.3,1.1-2.4,2.4-2.4
					C388.3,141.9,389.4,143,389.4,144.3z"/>
				<path class="st3" d="M396.5,144.3c0,1.3-1.1,2.4-2.4,2.4c-1.4,0-2.4-1.1-2.4-2.4c0-1.3,1.1-2.4,2.4-2.4
					C395.4,141.9,396.5,143,396.5,144.3z"/>
			</g>
			<rect x="406.8" y="150.2" class="st13" width="314.9" height="10.6"/>
			<g>
				<g>
					<polygon class="st3" points="380.6,158.8 376.8,155 380.6,151.2 382.1,152.6 379.7,155 382.1,157.4 					"/>
				</g>
				<g>
					<rect x="379.1" y="154" class="st3" width="7.1" height="2"/>
				</g>
			</g>
			<g>
				<g>
					<polygon class="st3" points="396.9,158.8 395.5,157.4 397.9,155 395.5,152.6 396.9,151.2 400.7,155 					"/>
				</g>
				<g>
					<rect x="391.4" y="154" class="st3" width="7.1" height="2"/>
				</g>
			</g>
			<rect x="725.8" y="150.2" class="st16" width="30.9" height="9.4"/>
			<g>
				<g>
					<rect x="423" y="176.6" class="st7" width="31.3" height="3.4"/>
				</g>
				<g>
					<rect x="458.9" y="176.6" class="st7" width="31.3" height="3.4"/>
				</g>
				<g>
					<rect x="494.8" y="176.6" class="st7" width="31.3" height="3.4"/>
				</g>
				<g>
					<rect x="530.7" y="176.6" class="st7" width="31.3" height="3.4"/>
				</g>
				<g>
					<rect x="566.6" y="176.6" class="st7" width="31.3" height="3.4"/>
				</g>
				<g>
					<rect x="716.8" y="170.9" class="st7" width="50.5" height="2.5"/>
				</g>
				<g>
					<rect x="727.5" y="177" class="st7" width="39.8" height="2.5"/>
				</g>
				<g>
					<rect x="382.5" y="173.8" class="st15" width="33.1" height="9"/>
				</g>
			</g>
			<g>
				<g>
					<g>
						<rect x="391.7" y="310.2" class="st15" width="70.6" height="3.5"/>
					</g>
					<g>
						<rect x="391.7" y="317.7" class="st7" width="171.2" height="2.6"/>
					</g>
					<g>
						<rect x="391" y="323.9" class="st7" width="149.5" height="2.6"/>
					</g>
					<g>
						<rect x="390.4" y="334.2" class="st15" width="34.3" height="9.4"/>
					</g>
					<g>
						<rect x="398.1" y="337.6" class="st13" width="18.8" height="2.6"/>
					</g>
				</g>
			</g>
			<g>
				<g>
					<rect x="589.2" y="203.1" class="st13" width="71.9" height="3.5"/>
				</g>
				<g>
					<rect x="589.2" y="210.7" class="st3" width="172.5" height="2.6"/>
				</g>
				<g>
					<rect x="589.2" y="216.8" class="st3" width="150.1" height="2.6"/>
				</g>
				<g>
					<rect x="589.2" y="227.2" class="st13" width="34.3" height="9.4"/>
				</g>
				<g>
					<rect x="596.9" y="230.6" class="st17" width="18.8" height="2.6"/>
				</g>
			</g>
			<g>
				<rect x="581.3" y="302.7" class="st14" width="91.8" height="53.4"/>
			</g>
			<g>
				<g>
					<rect x="590" y="310.2" class="st15" width="52.6" height="3.5"/>
				</g>
				<g>
					<rect x="590" y="317.7" class="st7" width="60" height="2.6"/>
				</g>
				<g>
					<rect x="589.8" y="323.9" class="st7" width="52.4" height="2.6"/>
				</g>
				<g>
					<rect x="589.2" y="334.2" class="st15" width="34.3" height="9.4"/>
				</g>
				<g>
					<rect x="596.9" y="337.6" class="st13" width="18.8" height="2.6"/>
				</g>
			</g>
			<g>
				<rect x="581.3" y="248.5" class="st16" width="91.8" height="53.4"/>
			</g>
			<g>
				<g>
					<rect x="677.4" y="302.7" class="st14" width="91.8" height="53.4"/>
				</g>
				<g>
					<g>
						<rect x="686.1" y="310.2" class="st15" width="52.6" height="3.5"/>
					</g>
					<g>
						<rect x="686.1" y="317.7" class="st7" width="60" height="2.6"/>
					</g>
					<g>
						<rect x="685.8" y="323.9" class="st7" width="52.4" height="2.6"/>
					</g>
					<g>
						<rect x="685.2" y="334.2" class="st15" width="34.3" height="9.4"/>
					</g>
					<g>
						<rect x="693" y="337.6" class="st13" width="18.8" height="2.6"/>
					</g>
				</g>
				<g>
					<rect x="677.4" y="248.5" class="st16" width="91.8" height="53.4"/>
				</g>
			</g>
		</g>
		<g>
			<path class="st13" d="M614.3,263.9v24.7h31.2v-24.7H614.3z M643.3,286.5h-26.8v-20.4h26.8V286.5z"/>
			<path class="st13" d="M627.3,271.1c0,1.4-1.1,2.5-2.6,2.5c-1.4,0-2.5-1.1-2.5-2.5s1.1-2.5,2.5-2.5
				C626.1,268.6,627.3,269.7,627.3,271.1z"/>
			<polygon class="st13" points="642,277 635.9,272.2 627.7,278.9 621.9,276.6 617.8,278.4 617.8,285.2 642,285.2 			"/>
		</g>
		<g>
			<path class="st13" d="M710.1,263.9v24.7h31.2v-24.7H710.1z M739.1,286.5h-26.8v-20.4h26.8V286.5z"/>
			<path class="st13" d="M723,271.1c0,1.4-1.1,2.5-2.5,2.5s-2.5-1.1-2.5-2.5s1.1-2.5,2.5-2.5S723,269.7,723,271.1z"/>
			<polygon class="st13" points="737.8,277 731.6,272.2 723.5,278.9 717.7,276.6 713.6,278.4 713.6,285.2 737.8,285.2 			"/>
		</g>
		<g>
			<path class="st13" d="M493,250.9v-2.7c0-0.8-0.7-1.5-1.5-1.5h-21.9c-0.8,0-1.5,0.7-1.5,1.5v6v8c0,0.9,0.7,1.5,1.5,1.5h21.9
				c0.8,0,1.5-0.7,1.5-1.5v-2.7l8.3,4.1v-6.3v-1v-1v-8.4L493,250.9z"/>
			<path class="st13" d="M474.1,246c2.9,0,5.3-2.3,5.3-5.2s-2.3-5.2-5.3-5.2c-2.9,0-5.3,2.4-5.3,5.2
				C468.8,243.7,471.2,246,474.1,246z"/>
			<path class="st13" d="M485.3,246c2.9,0,5.3-2.3,5.3-5.2s-2.4-5.2-5.3-5.2s-5.3,2.4-5.3,5.2C480.1,243.7,482.4,246,485.3,246z"/>
		</g>
	</g>
	<g>
		<g>
			<g>
				<g>
					<path class="st18" d="M351.8,605.7l-5.8,8.9l48.9,15.7c0,0,3.3-3.1-8.7-9.4C372.1,613.6,351.8,605.7,351.8,605.7z"/>
					<path class="st18" d="M343.1,605.7l5.8,8.9L300,630.2c0,0-3.3-3.1,8.7-9.4C322.7,613.6,343.1,605.7,343.1,605.7z"/>
				</g>
				<rect x="342.3" y="579.3" class="st18" width="10.2" height="36.4"/>
				<g>
					<path class="st19" d="M352.4,607.6l-5,8.5l41.9,14.9c0,0,2.8-3-7.5-9C369.9,615.1,352.4,607.6,352.4,607.6z"/>
					<path class="st19" d="M342.4,607.6l5,8.5L305.5,631c0,0-2.8-3,7.5-9C325,615.1,342.4,607.6,342.4,607.6z"/>
				</g>
				<path class="st20" d="M384.6,634.4c0,2,1.6,3.5,3.6,3.5s3.6-1.6,3.6-3.5c0-2-1.6-3.6-3.6-3.6
					C386.1,630.8,384.6,632.4,384.6,634.4z"/>
				<path class="st20" d="M303.4,634.4c0,2,1.6,3.5,3.6,3.5s3.6-1.6,3.6-3.5c0-2-1.6-3.6-3.6-3.6C305,630.8,303.4,632.4,303.4,634.4
					z"/>
				<path class="st21" d="M393.2,634.4c0,2,1.6,3.5,3.6,3.5s3.6-1.6,3.6-3.5c0-2-1.6-3.6-3.6-3.6
					C394.7,630.8,393.2,632.4,393.2,634.4z"/>
				<path class="st21" d="M294.8,634.4c0,2,1.6,3.5,3.6,3.5s3.6-1.6,3.6-3.5c0-2-1.6-3.6-3.6-3.6
					C296.4,630.8,294.8,632.4,294.8,634.4z"/>
			</g>
			<rect x="343.8" y="566" class="st21" width="7.5" height="13.1"/>
			<path class="st21" d="M338.2,559.1c0,4,3.3,7.3,7.3,7.3h4.1c4,0,7.3-3.3,7.3-7.3l0,0c0-4-3.3-7.3-7.3-7.3h-4.1
				C341.5,551.8,338.2,555.1,338.2,559.1L338.2,559.1z"/>
			<path class="st22" d="M292,552.4c-0.2-0.9-0.3-6.2-0.3-7.2c0-5.9,3.8-10.6,8.5-10.6h94.7c4.7,0,8.5,4.8,8.5,10.6
				c0,0.9-0.1,6.3-0.3,7.2H292z"/>
			<path class="st21" d="M404.3,555.3c0,1.8-1.1,3.3-2.4,3.3H293.2c-1.3,0-2.4-1.5-2.4-3.3l0,0c0-1.8,1.1-3.3,2.4-3.3H402
				C403.2,552.1,404.3,553.5,404.3,555.3L404.3,555.3z"/>
		</g>
		<g>
			<path class="st23" d="M329.3,534.3c0,0,60.9,0.1,84.4,0.5c16.3,0.2,17.8-22.9,11.3-26.4c-19.5-10.6-80.3-16-80.3-16l-41.3,37.9
				C303.4,530.3,305.8,530.2,329.3,534.3z"/>
			<path class="st24" d="M386.7,410.2c0,0,15.7-4.4,22.5,16.1c10.5,31.4,9.5,60.1,8.1,66.2c-0.7,2.8-2.7,12.6-20.2,12.9
				c-7.1,0.2-4.3-15-4.3-15s-4.5-12.9-9.4-34.7C378.6,433.8,386.7,410.2,386.7,410.2z"/>
			<path class="st25" d="M399.1,411.9l-40.2-13l-30.4-2L295.2,407c0,0-10.9,7.5-0.8,31.6s6.2,61.9,6.2,61.9l85.9,2.8
				c0,0,1.6-34.9,7.3-69.9C395.2,425.6,395.4,416.4,399.1,411.9z"/>
			<path class="st24" d="M340.2,501.6h4.4c4.6-33.7,4.4-68.5-0.7-102.2c-1.3,0.8-2.6,1.6-4,2.4C341,436.2,339.1,470.6,340.2,501.6z"
				/>
			<g>
				<path class="st26" d="M357.2,408.4c-0.6,4.6-4.4,8.7-8.4,8.9c-3.8,0-7.6,0-11.4,0c-4-0.2-7.8-4.2-8.4-8.9
					c-0.9-7.6-1.9-15.3-2.8-22.9c-0.6-4.6,2.1-13.8,8.1-16.5c5.5-2.4,11.9-2.4,17.4,0c6,2.7,8.8,11.9,8.2,16.5
					C359.1,393.1,358.2,400.8,357.2,408.4z"/>
			</g>
			<polygon class="st24" points="342.7,417.9 335.5,429.7 322.3,413.2 324.4,404.5 328.7,401 328.7,407.5 			"/>
			<polygon class="st24" points="343.6,417.9 350.8,429.7 363.1,414.3 361.1,404.9 358,400.9 356.8,408.6 			"/>
			<g>
				<path class="st27" d="M341.5,354.4c-3.2,0-6,1.6-7.6,4.1h-3.1c-3.9,0-7,3.1-7,7v17.4h5v-7.1c0-2.7,2.2-4.9,5-4.9h2.9h-4.6h3
					c5,0,9.1-4.1,9.1-9.1v-7.4H341.5z"/>
				<path class="st26" d="M332.7,389.4c0,2.4-1.9,4.3-4.3,4.3H328c-2.4,0-4.3-1.9-4.3-4.3v-5.2c0-2.4,1.9-4.3,4.3-4.3h0.4
					c1.8,0,3.3,1.1,3.9,2.6"/>
				<path class="st27" d="M337.6,361.3v-6.9h2.9h7.5h4.5c5,0,9.1,4.1,9.1,9.1v6.9h-2.9h-7.5h-4.5
					C341.7,370.4,337.6,366.3,337.6,361.3z"/>
				<path class="st28" d="M360.3,396c0,3.6-2.8,9.7-7.3,11.6c-6.2,2.6-13.6,2.6-19.8,0c-4.6-1.9-7.3-8-7.4-11.6
					c0-10.2,0-20.5,0-30.7c0-3.6,3.6-6.7,8.1-6.8c6.1,0,12.2,0,18.3,0c4.5,0.1,8.1,3.1,8.1,6.8C360.3,375.5,360.3,385.7,360.3,396z"
					/>
				<path class="st27" d="M346.6,354.4c3.2,0,6,1.6,7.6,4.1h3.1c3.9,0,7,3.1,7,7v17.4h-5v-7.1c0-2.7-2.2-4.9-5-4.9h-0.1h1.7h-8
					c-5,0-9.1-4.1-9.1-9.1v-7.4H346.6z"/>
				<path class="st28" d="M355.5,384.1c0-2.4,1.9-4.3,4.3-4.3h0.4c2.4,0,4.3,1.9,4.3,4.3v5.2c0,2.4-1.9,4.3-4.3,4.3h-0.4
					c-1.8,0-3.3-1.1-3.9-2.6"/>
				<path class="st27" d="M339,363.1c0.1-0.6,0.2-1.2,0.2-1.8v-6.9h-2.9h-3.6c-5,0-9.1,4.1-9.1,9.1v6.9h1.9h1h3.6
					c0.6,0,1.3-0.1,1.9-0.2C332.7,366.6,335.5,363.8,339,363.1z"/>
			</g>
			<path class="st29" d="M259.3,650.7c-0.9,1.1-0.3,4.1-0.3,4.1s16.4,1.8,21.7,0.6c1.4-0.3,3.7-1.5,5.9-2.8c0.4-0.2,1-1.5,1.4-1.7
				c0.7-0.4,1,0.3,1.6-0.1c1.5-0.9,2.5-1.6,2.5-1.7c1.4-7.5-0.5-10.5-0.5-10.5s-14-4.6-16.6-1.4
				C268.8,644.8,261.3,648.2,259.3,650.7z"/>
			<path class="st29" d="M412.5,642.5l1.1,12.4l12.4,1.2c0,0,0.9-1.6,1.9-1.5c0.9,0.1,1.9,1.9,3.1,2c2.6,0.3,5.5,0.5,6.7,0.6
				c2.3,0.2,24.9,2.4,24.9,2.4s0.8-2.5,0.2-3.4c-0.3-0.5-2.3-1.5-3.7-2c-6.2-2.4-24-9.8-26.6-16.3
				C429.4,630.1,412.5,642.5,412.5,642.5z"/>
			<g>
				<path class="st28" d="M393.8,485.9L351.9,503c0,0,29.7,4.2,48.3,0.5C412.8,500.9,394.4,485.3,393.8,485.9z"/>
			</g>
			<path class="st23" d="M298.6,511.9c0,0-4,38.2-3.5,58.5c0.4,15.2,0.5,44.5-3.2,69.4c-0.2,1.5-19.7,0.4-19.7,0.4
				s-7-94.8-9.1-110.4C261.1,514.1,267.2,502.9,298.6,511.9z"/>
			<path class="st4" d="M421.3,521.2c0,0-6.3,9.9-23.5,12.3c-6.2,0.8,10,111,10,111l25.5-8.1l-4.9-121.8L421.3,521.2z"/>
			<path class="st4" d="M351,533.4c0,0-33.3,4.7-55.5,7.1c-8.1,0.9-15.2-21.9-16.1-22.9c-6-6.2-11.8-5.4-11.6-5.7
				c4.8-5.2,29.7-10,55.8-16.1c26.1-6.1,30-2.3,30-2.3L351,533.4z"/>
			<path class="st23" d="M323.5,495.8c-26.1,6.1-51,10.9-55.8,16.1c-0.2,0.2,5.7-0.6,11.6,5.7c0.3,0.3,1.8,7.6,2.8,10.2
				c-4.2-7.6,57-29.2,70.2-34.8C349.9,492.2,342.7,491.3,323.5,495.8z"/>
			<polygon class="st4" points="294.9,533.1 292.4,607.5 289.8,624.8 289.5,607.5 290.1,596.8 284.2,580.1 281,541.3 285.6,543 
				285,526.1 			"/>
			<path class="st23" d="M420.4,511.9l6.2,1.7l2.3,89.4l-13,32l6.2-21.8l-2.5-45c0,0-9.1,21.8-9.1,20.7s7.6-47.3,7.6-47.3
				s-8.5,7.1-7.6,6.8C411.4,548.1,415.6,516.1,420.4,511.9z"/>
			<path class="st25" d="M313.6,407.4c0,0-13.4-10.5-26.5,9c-19.2,28.5-27.5,58.8-30.6,67.6c-2.3,6.7-1.1,25.7,6.8,33.6
				c1.9,1.9,13.2,0.4,13.2,0.4l7.4-5.1l-3.1-6l-0.2-4.7c0,0,9.5-22.9,21.2-44.6C313.6,435.8,313.6,407.4,313.6,407.4z"/>
			<g>
				<path class="st28" d="M280.9,494.5l43.5,2.3c0,0-41.9,19.2-43.2,15.9C273.3,493.9,280.9,494.5,280.9,494.5z"/>
				<g>
					<path class="st28" d="M304.8,493.1c2.5-1.2,2.3-1.2,2.3-1.2s2.3,2.8,5.7,3.3c1.7,0.3,7.1,0.3,7.1,0.3l8,0.2l3.7-0.2
						c0,0,2.1-0.3,2.7,0.1c1.6,1,0.2,1.9,0.2,1.9l-14.3,2l13.8,1.7c0,0,1.7,0.5,1.8,1.4c0.1,0.9-0.5,0.8-0.5,0.8l-16,1.7l7,1.7
						c0,0,1.7,0.5,1.8,1.4c0.1,1,0.2,1.3,0.2,1.3l-14.7-1.4C313.5,508.1,302.3,494.4,304.8,493.1z"/>
					<path class="st28" d="M320.7,502l9.6,1.8c0,0,2.2,0.2,3.2,0.9c1.1,0.8,0.5,1.8,0.5,1.8l-14.8-1.2L320.7,502z"/>
				</g>
			</g>
			<g>
				<path class="st30" d="M381.1,509.6C381.1,509.5,381.2,509.5,381.1,509.6v-2.8h-85.6v2.7v0.1l0.3,0.5c1.5,2.4,4.1,2.8,7.1,2.8
					h70.9c3,0,5.6-0.4,7.1-2.8L381.1,509.6z"/>
				<g>
					<rect x="310" y="507.4" class="st31" width="56.7" height="1.9"/>
				</g>
				<g>
					<path class="st32" d="M381.1,507l0.2-56.1c0-1.5-1.2-2.7-2.7-2.7h-80.1c-1.5,0-2.7,1.2-2.7,2.7l-0.2,56.1H381.1z"/>
					<path class="st30" d="M343.6,477.7c0,2.9-2.3,5.2-5.2,5.2c-2.9,0-5.2-2.3-5.2-5.2c0-2.9,2.3-5.2,5.2-5.2
						C341.3,472.5,343.7,474.8,343.6,477.7z"/>
				</g>
			</g>
			<polygon class="st24" points="275.3,516.1 272.3,497.1 277.2,492 288.2,493.8 286,514.9 			"/>
			<polygon class="st24" points="408.5,502.5 409.6,495.5 395.8,483 388.3,486.4 398.1,505.2 			"/>
		</g>
		<g>
			<g>
				<path class="st21" d="M652.4,604.4c2.6,0,6.7-0.6,10.4-3.7c5.2-4.5,7.5-12.6,6.7-23.9c-0.5-7.6-3.5-15.4-6.7-23.6
					c-5.4-13.8-11.5-29.4-8.3-50.1l-5.9-0.9c-3.4,22.3,3.2,39.4,8.6,53.2c3.2,8.1,5.9,15.1,6.3,21.8c0.6,9.2-1,15.7-4.6,18.9
					c-3.4,3-7.7,2.3-7.9,2.2l-1.2,5.9C649.8,604.3,650.8,604.4,652.4,604.4z"/>
			</g>
			<g>
				<g>
					<path class="st18" d="M606.5,651.9l-5.8,8.9l48.9,15.7c0,0,3.3-3.1-8.7-9.4C626.9,659.7,606.5,651.9,606.5,651.9z"/>
					<path class="st18" d="M597.8,651.9l5.8,8.9l-48.9,15.7c0,0-3.3-3.1,8.7-9.4C577.4,659.7,597.8,651.9,597.8,651.9z"/>
				</g>
				<rect x="597" y="625.5" class="st18" width="10.2" height="36.4"/>
				<g>
					<path class="st19" d="M607.2,653.7l-5,8.5l41.9,14.9c0,0,2.8-3-7.5-9C624.6,661.2,607.2,653.7,607.2,653.7z"/>
					<path class="st19" d="M597.2,653.7l5,8.5l-41.9,14.9c0,0-2.8-3,7.5-9C579.7,661.2,597.2,653.7,597.2,653.7z"/>
				</g>
				<path class="st20" d="M639.3,680.5c0,2,1.6,3.5,3.6,3.5s3.6-1.6,3.6-3.5c0-2-1.6-3.6-3.6-3.6
					C640.9,676.9,639.3,678.5,639.3,680.5z"/>
				<path class="st20" d="M558.2,680.5c0,2,1.6,3.5,3.6,3.5s3.6-1.6,3.6-3.5c0-2-1.6-3.6-3.6-3.6S558.2,678.5,558.2,680.5z"/>
				<path class="st21" d="M647.9,680.5c0,2,1.6,3.5,3.6,3.5s3.6-1.6,3.6-3.5c0-2-1.6-3.6-3.6-3.6S647.9,678.5,647.9,680.5z"/>
				<path class="st21" d="M549.6,680.5c0,2,1.6,3.5,3.6,3.5s3.6-1.6,3.6-3.5c0-2-1.6-3.6-3.6-3.6
					C551.2,676.9,549.6,678.5,549.6,680.5z"/>
			</g>
			<rect x="598.5" y="612.1" class="st21" width="7.5" height="13.1"/>
			<path class="st21" d="M592.9,605.2c0,4,3.3,7.3,7.3,7.3h4.1c4,0,7.3-3.3,7.3-7.3l0,0c0-4-3.3-7.3-7.3-7.3h-4.1
				C596.2,597.9,592.9,601.2,592.9,605.2L592.9,605.2z"/>
			<path class="st22" d="M546.7,598.6c-0.2-0.9-0.3-6.2-0.3-7.2c0-5.9,3.8-10.6,8.5-10.6h94.7c4.7,0,8.5,4.8,8.5,10.6
				c0,0.9-0.1,6.3-0.3,7.2H546.7z"/>
			<path class="st21" d="M659,601.4c0,1.8-1.1,3.3-2.4,3.3H547.9c-1.3,0-2.4-1.5-2.4-3.3l0,0c0-1.8,1.1-3.3,2.4-3.3h108.8
				C658,598.2,659,599.6,659,601.4L659,601.4z"/>
			<g>
				<path class="st22" d="M653.7,543.9c-2.3,0.2-17.2,0.4-19.7,0.5c-16.3,0.2-30.3-2.8-31-6.8c-3.2-16.6-3.4-33.7-0.4-50.3
					c0.7-4,14.9-7,31.5-6.8c2.6,0,17.8,0.3,20.1,0.5C649.1,501.6,648.9,523.2,653.7,543.9z"/>
				<path class="st21" d="M655.9,480.9c1.8,0,3.1,0.9,2.8,1.9c-4.5,19.5-4.7,39.7-0.5,59.2c0.2,1-1,1.9-2.8,1.9l0,0
					c-1.8,0-3.4-0.8-3.7-1.9c-4.2-19.5-4.1-39.8,0.4-59.3C652.4,481.7,654.1,480.9,655.9,480.9L655.9,480.9z"/>
				<path class="st33" d="M656.7,543.9c-0.5,0.2-3.7,0.3-4.3,0.3c-3.5,0-7.2-3.1-7.9-7c-3-16.4-2.9-33.1,0.2-49.5
					c0.7-3.9,4.5-7,8.1-7c0.6,0,3.8,0.1,4.3,0.3C652.1,501.6,651.9,523.2,656.7,543.9z"/>
			</g>
		</g>
		<g>
			<g>
				<g>
					<g>
						<path class="st26" d="M558.1,496.6c0,0-0.1,4.1-20.2,4.2c-20.1,0-49.6-4.9-49.6-4.9l46.3-4.4
							C534.7,491.4,552.5,490.6,558.1,496.6z"/>
						<path class="st26" d="M504.2,497.3c-9.5,0.3-13.5,5.2-17.2,6.8c-3.7,1.6-7.5,4-7.4,3.9c2-4.1,5.1-4.4,6.6-5.7
							c1.5-1.4,1.1-0.7-2.3-0.8c-1.9-0.1-5.2,3.4-7.6,5.4c-2.1,1.7-3.4,1.9-3.4,1.9s2.4-3.5,5.4-6.4c3.7-3.5,8.3-6.4,9.4-6.9
							c2-0.9,8.4-1.3,13-0.8C505.7,495.1,511,497,504.2,497.3z"/>
						<path class="st26" d="M488.1,495.6c0,0-7.2,2.1-8.5,3.1c-0.9,0.7-4.5,4.7-4.5,4.7s2.7-0.5,4.2-2.1
							C480.9,499.8,488.1,495.6,488.1,495.6z"/>
					</g>
					<path class="st34" d="M549,488.2c0,0,18.5,0.5,17.6,11.5c-0.5,6.2-4.6,8.5-10.2,8.3c-10.4-0.5-22.2-1.6-22.2-1.6l-5.8-16.8
						L549,488.2z"/>
				</g>
				<path class="st34" d="M553,489.5l16.2-57c0,0,2.4-8.3,6.8-6.9c6.4,2,3.5,8.9,3.1,12.9c-0.9,8.2,0,11.7-5.1,31.6
					c-3.2,12.3-5.8,26.3-8.7,34.4c-2,5.6-5.9-2.2-11.6-4.2C543,496.6,553,489.5,553,489.5z"/>
			</g>
			<path class="st35" d="M584.3,414.2c2.8,12.4,15.3,20.1,28,17.3c12.7-2.8,20.7-15.2,17.9-27.6s-15.3-20.1-28-17.3
				C589.5,389.5,581.5,401.8,584.3,414.2z"/>
			<path class="st35" d="M562.6,401.5c2.1,9.5,11.6,15.5,21.1,13.4l2.5-9.2c9.5-2.1,15.5-11.6,13.4-21.1l-1.5-6.5
				c-2.1-9.5-11.6-15.5-21.1-13.4l-4.3,1c-9.5,2.1-15.5,11.6-13.4,21.1L562.6,401.5z"/>
			<path class="st28" d="M563.8,374.6c0.4,1.6,0.9,3.2,1.5,4.8c4.2,10.7,12.8,17.6,20.4,17c1.4,5,3.4,9.2,5.4,12.8
				c2.4,4.1,8.5,7.5,8.5,7.5c3,7.5-26.9,32.4-28.2,31.8c-2.7-1.4,2.1-19.3,7-24.9c2.3-2.6,4.6-5.7,4.7-7.4c0.2-6.2-1.8-7.5-4.7-10.3
				c-5.2-3.9-11.2-2.5-11.2-2.5c-0.6,0.1-1.1,0-1.6-0.3c-0.6-1.1-1.1-2.2-1.4-3.5l-3.2-14.2C560.4,381.4,561.5,377.5,563.8,374.6z"
				/>
			<path class="st1" d="M594.8,533.1c0,0-7.7,6.9-9.8,7.5c-2.9,0.8-10.9-2.7-10.9-2.7s2.2-35.9,1.4-50.1s-4.2-18.3-3.8-22.7
				c0.6-7-5.1-10.6-3.4-16c1.7-5.4,5.9-24.6,6.2-21.9c2.5,22.7,11.2,5.2,13,2.5C588.4,428.2,594.8,533.1,594.8,533.1z"/>
			<path class="st36" d="M578.8,421.2c0,0-10.1,7.4-10,10.8s-5.2,13.5-3.1,28.8c2.5,17.4,3.4,29,2.9,40.1s-5.6,20.7-5.8,34.3
				c-0.1,10.7,2.3,11.6,2.3,11.6s4.7,1.7,8.7-1.9c4-3.7,3.3-40.2,2.7-49.4c-0.6-9.2-3.5-30.9-4.1-37.2c-0.8-7.9,0.4-15.5,0.8-17.8
				c1.4-7.8,3.1-12.6,4.2-15.4c0.2-0.5,2.8-2.6,3-3C581.2,420.5,579.7,420.3,578.8,421.2z"/>
			<path class="st34" d="M581.5,417.5c0,0,2.1-0.4,0.3,2c-1,1.3-1,2.5-1,2.5s-0.9-1-2.3,0.4c-1.2,1.2-3.2,2.8-3.2,2.8
				s1.3-3.6,1.6-3.8C577.9,420.4,581.5,417.5,581.5,417.5z"/>
			<path class="st35" d="M591,445.4c2.9,12.9,16,21,29.2,18.1c13.2-3,21.6-15.9,18.7-28.8c-2.9-12.9-16-21-29.2-18.1
				C596.5,419.6,588.1,432.5,591,445.4z"/>
			<polygon class="st28" points="540.4,655.9 545,691.1 525.2,700.2 514.2,702.5 533.7,687.9 527.3,656.2 			"/>
			<path class="st29" d="M546.3,696.4l-4.3,1.1l-2.9-2.6l-15.9,7.7l-14.1,3.2c0,0-0.2-1.1,0.3-1.7c1.8-2.2,11.6-7.2,11.6-7.2
				s0.2,3.3,1.6,3.4c1.4,0.1,13.6-6.1,16.4-7.8c4.8-3,5.7-4.8,6.1-4.6C546.1,688.5,546.3,696.4,546.3,696.4z"/>
			<polygon class="st28" points="492.5,607 476.8,636.9 454.9,635.9 444.1,632.9 468.2,628.9 481.3,603.3 			"/>
			<path class="st29" d="M475.5,642.3l-4.3-1l-1.4-3.6l-19.6-0.3l-11.7-2.6c0,0,1.4-1.5,2.3-1.9c2.6-1,11.8-1.6,11.8-1.6
				s-1,2.6,0.2,3.3s14.6,1.2,17.9,0.9c5.7-0.4,7.3-1.6,7.5-1.2C478.9,635.2,475.5,642.3,475.5,642.3z"/>
			<path class="st1" d="M607.8,517.3l-11.8,5.1l-5.1,15.3l-75.7-12.4c0,0-7.7-2.4-12.6,9.8c-7,17.3-24.8,71.2-24.8,71.2L489,618
				l35.3-60.8c0,0,72.4,33.9,96.2,26.6c9.2-2.8,16.1-19,14.8-35.3c-1-12.8-3.6-24.5-3.6-24.5L607.8,517.3z"/>
			<path class="st37" d="M597.5,583.3l-57.9-4.2l5,89.2l-17.1,0.5l-12.6-104.5c0,0,3.4-15.6,14.5-13.2
				C540.5,553.6,567.2,574.1,597.5,583.3z"/>
			<path class="st36" d="M590.2,539.9c0,0-1.4-36.3-2.5-53.5s-0.8-50.5-1.1-54.6c-0.2-4.1,0.9-10,0.9-10s5.2-8.9,11.1-8.1
				c5.1,0.7,13.1,7.8,18,11.1c4.9,3.2,4.3,63.9,4.6,67c0.9,11,7.5,21.9,12.4,32.5c3.2,6.8,3.9,17.5,3.9,17.5
				S608.1,536.2,590.2,539.9z"/>
			<polygon class="st34" points="596.9,410.9 592.7,414.9 586.9,421.2 589.8,428.2 600.1,413.8 			"/>
			<g>
				<path class="st28" d="M604.8,505.7c0,0-0.6,4.4-24.4,1.8c-23.8-2.6-58.2-11.8-58.2-11.8l55.4,1.4
					C577.6,497.1,598.8,498.6,604.8,505.7z"/>
				<path class="st28" d="M540.8,499.4c-11.4-0.9-16.6,3.8-21.2,5.1c-4.6,1.2-9.3,3.3-9.3,3.3c2.9-4.2,6.5-4,8.5-5.3
					c1.9-1.3,1.4-0.6-2.6-1.2c-2.3-0.3-6.6,3-9.7,4.8c-2.7,1.6-4.2,1.6-4.2,1.6s3.2-3.5,7.2-6.2c4.8-3.2,10.6-5.8,12-6.2
					c2.5-0.7,10.1-0.3,15.5,0.8C542.9,497.3,548.9,500,540.8,499.4z"/>
				<path class="st28" d="M522,495.5c0,0-8.8,1.3-10.4,2.2c-1.1,0.6-5.9,4.5-5.9,4.5s3.3-0.2,5.3-1.7
					C512.9,499.1,522,495.5,522,495.5z"/>
			</g>
			<path class="st34" d="M595,495.5l2.6-56.2c0,0,3-11.8,7.5-14.5c5.2-3.2,12.4,2.7,12.4,2.7s3.7,8.8,1.2,50.2
				c-1.7,27.7-4.2,42.1-17.4,40c-12.3-1.9-26.1-4.6-26.1-4.6l-4.9-18.9L595,495.5z"/>
		</g>
		<g>
			<path class="st17" d="M547.7,509.4L547.7,509.4v-2.9H432.2v2.8v0.1l0.3,0.5c1.5,2.4,4.1,2.9,7.2,2.9h100.5c3.1,0,5.7-0.4,7.2-2.9
				L547.7,509.4z"/>
			<path class="st30" d="M519.9,509.9C519.9,509.9,519.9,510,519.9,509.9l0.3,0.5c0.5,0.6,1,1.1,1.7,1.4h17.6c2.9,0,5.5-0.4,6.9-2.3
				l0.3-0.4c0,0,0,0,0.1-0.1v-1.4H520L519.9,509.9L519.9,509.9z"/>
			<g>
				<rect x="446.6" y="507.2" class="st30" width="57.7" height="2"/>
			</g>
			<g>
				<path class="st17" d="M519.2,506.5l-15-56.7c-0.4-1.5-1.9-2.7-3.4-2.7h-81c-1.5,0-2.4,1.2-2,2.7l15,56.7H519.2z"/>
				<path class="st30" d="M473.4,476.8c0.8,2.9-1,5.2-3.9,5.2s-5.9-2.4-6.6-5.2c-0.8-2.9,1-5.2,3.9-5.2
					C469.7,471.5,472.6,473.9,473.4,476.8z"/>
			</g>
		</g>
		<g>
			<polygon class="st2" points="185.2,707.6 173.4,707.6 192.9,518.9 210,518.9 			"/>
			<polygon class="st3" points="208.9,527.6 201.4,584.7 192.4,523.1 192.9,518.9 207.9,518.9 			"/>
			<polygon class="st2" points="569.6,707.6 557.8,707.6 577.3,518.9 594.4,518.9 			"/>
			<polygon class="st3" points="593.3,527.6 585.8,584.7 576.8,523.1 577.3,518.9 592.3,518.9 			"/>
			<polygon class="st2" points="693.7,707.6 705.5,707.6 686,518.9 668.9,518.9 			"/>
			<polygon class="st3" points="670,527.6 693,585.8 686.5,523.1 686,518.9 671.1,518.9 			"/>
			<rect x="339.4" y="512.7" class="st21" width="363.2" height="11"/>
			
				<radialGradient id="SVGID_1_" cx="197.1472" cy="104.9732" r="358.2626" gradientTransform="matrix(1 0 0 0.9989 0 254.0236)" gradientUnits="userSpaceOnUse">
				<stop  offset="1.574020e-03" style="stop-color:#CDF7F1"/>
				<stop  offset="1" style="stop-color:#5DCFCA"/>
			</radialGradient>
			<rect x="178.8" y="512.7" class="st38" width="387.8" height="11"/>
		</g>
	</g>
	<path class="st37" d="M322.1,166.2l-0.1-4.7l-4.2-0.3c-0.3-1.5-0.9-3-1.7-4.2l2.7-3.3l-3.4-3.2l-3.1,2.8c-1.3-0.8-2.7-1.4-4.2-1.8
		l-0.4-4.3l-4.7,0.1l-0.3,4.2c-1.5,0.3-3,0.9-4.2,1.7l-3.4-2.7l-3.2,3.4l2.8,3.1c-0.8,1.3-1.4,2.7-1.8,4.2l-4.3,0.4l0.1,4.7l4.2,0.3
		c0.3,1.5,0.9,3,1.7,4.2l-2.7,3.3l3.4,3.2l3.1-2.8c1.3,0.8,2.7,1.4,4.2,1.8l0.4,4.3l4.7-0.1l0.3-4.2c1.5-0.3,3-0.9,4.2-1.7l3.4,2.7
		l3.2-3.4l-2.8-3.1c0.8-1.3,1.4-2.7,1.8-4.2L322.1,166.2z M305.5,170.1c-3.4,0.1-6.3-2.6-6.3-6.1c-0.1-3.4,2.6-6.2,6.1-6.3
		c3.4-0.1,6.3,2.6,6.3,6.1C311.6,167.2,308.9,170,305.5,170.1z"/>
	<g>
		<ellipse class="st13" cx="700.5" cy="398.6" rx="51.6" ry="24.5"/>
		<path class="st37" d="M723.6,397.1c0,12.8-10.4,23.1-23.2,23.1s-23.2-10.4-23.2-23.1c0-12.8,10.4-23.1,23.2-23.1
			C713.3,374,723.6,384.3,723.6,397.1z"/>
		<path class="st39" d="M700.5,406.8c-5.4,0-9.7-4.4-9.7-9.7c0-5.3,4.4-9.7,9.7-9.7c5.4,0,9.7,4.4,9.7,9.7
			C710.2,402.5,705.8,406.8,700.5,406.8z"/>
	</g>
	<g>
		<rect x="736.6" y="330.5" class="st16" width="100" height="99.9"/>
		<rect x="746.4" y="340.4" class="st2" width="80.2" height="80.2"/>
		<path class="st16" d="M776.1,365.1c0,3.9-3.2,7.1-7.1,7.1c-3.9,0-7.1-3.2-7.1-7.1s3.2-7.1,7.1-7.1
			C772.9,358,776.1,361.2,776.1,365.1z"/>
		<g>
			<polygon class="st16" points="795.2,380 808,396.2 820.8,412.3 795.2,412.3 769.5,412.3 782.4,396.2 			"/>
			<polygon class="st16" points="771.1,389.6 780.1,401 789.1,412.3 771.1,412.3 753.1,412.3 762.1,401 			"/>
		</g>
	</g>
	<g>
		<g>
			<polygon class="st37" points="819,297.9 809.1,288 811.6,285.5 821.5,295.4 			"/>
		</g>
		<g>
			<path class="st37" d="M796.1,316.2c-1.3,0-2.7-0.5-3.7-1.5c-2-2-2-5.4,0-7.4l18.6-18.6l2.5,2.5l-18.6,18.6
				c-0.7,0.7-0.7,1.8,0,2.5s1.8,0.7,2.5,0l18.6-18.6l2.5,2.5l-18.6,18.6C798.8,315.7,797.4,316.2,796.1,316.2z"/>
		</g>
		<g>
			<polygon class="st37" points="792.4,317.1 789.9,314.6 792.4,312.2 794.8,314.6 			"/>
		</g>
		<path class="st37" d="M812.8,286.8l4.9-4.9c1.4-1.4,3.6-1.4,4.9,0l2.5,2.5c1.4,1.4,1.4,3.6,0,4.9l-4.9,4.9"/>
	</g>
	<path class="st7" d="M256.4,147c-10.5,0-19,8.5-19,19s19,39.2,19,39.2s19-28.7,19-39.2S266.9,147,256.4,147z M256.4,172.7
		c-3.1,0-5.6-2.5-5.6-5.6s2.5-5.6,5.6-5.6s5.6,2.5,5.6,5.6C262,170.1,259.5,172.7,256.4,172.7z"/>
	<g>
		<path class="st15" d="M200.1,444v44.1c0,3.3,2.6,5.9,5.9,5.9h55.8c3.3,0,5.9-2.6,5.9-5.9v-13.2l3-3l5.9-5.9l-5.9-5.9l-3-3V444
			c0-3.3-2.6-5.9-5.9-5.9H206C202.8,438.1,200.1,440.8,200.1,444z"/>
	</g>
	<g>
		<g>
			<path class="st40" d="M763.3,674.8c0,0,4.5-16.2,11.7-21.7c7.1-5.5,12.3-13.3,21.7-16.8c9.4-3.6,11.7-10,8.1-12.3
				c-3.6-2.3-15.2-8.7-29.5,6.1c-14.2,14.9-17.8,26.5-17.5,40.4C758.1,684.5,762.6,682.9,763.3,674.8z"/>
			<path class="st41" d="M799.5,626.5c0,0-14.2,4.2-20.7,9.1c-6.5,4.9-18.5,18.4-19.1,31.7"/>
		</g>
		<g>
			<path class="st42" d="M759.4,680c0,0-7.3-20.7-10.4-27.2c-3-6.5-2.6-22,2.2-28c4.7-6,12.5-15.1,9.1-28.5
				c-3.5-13.4-1.7-21.6,4.7-16.4c6.5,5.2,17.8,16.6,18.1,34.9c0.2,14-3.9,22.2-11.7,32.3C765.2,655.4,758.9,670.5,759.4,680z"/>
			<path class="st43" d="M757.1,675c0,0-3.9-20.7,0-29.1c3.9-8.4,13.1-24,13.9-34.3c1-12.9-7.1-25.2-7.1-25.2"/>
		</g>
		<g>
			<path class="st44" d="M730.6,649.3c-8.4-1.6-9.1-11.3-2.6-13.3c6.5-1.9,17.2-1.6,22.3,5.2c6,7.9,8.4,22,6.5,32s0-3.9-4.2-10.7
				C748.4,655.7,737.5,650.6,730.6,649.3z"/>
			<path class="st45" d="M726.7,641.4c0,0,11.7-2.3,19.7,5.5c7,6.7,10,15.1,11.3,23.7"/>
		</g>
		<polygon class="st46" points="773.3,699.6 750,699.6 746.1,662.1 777.2,662.1 		"/>
	</g>
	<g>
		<path class="st13" d="M218.4,465.1v0.1l8.6,3.6v4.8l-13.2-6.5V463l13.2-6.5v4.8L218.4,465.1z"/>
		<path class="st13" d="M232.5,477.1h-3.6l7.7-28.2h3.7L232.5,477.1z"/>
		<path class="st13" d="M251.1,465.2v-0.1l-8.7-3.7v-4.8l13.3,6.5v4.1l-13.3,6.5v-4.8L251.1,465.2z"/>
	</g>
	<g>
		<path class="st37" d="M125.4,119H72.2c-3.3,0-5.9,2.6-5.9,5.9v41.4c0,3.3,2.6,5.9,5.9,5.9H90l3,3l5.9,5.9l5.9-5.9l3-3h17.7
			c3.3,0,5.9-2.6,5.9-5.9v-41.4C131.4,121.6,128.7,119,125.4,119z"/>
	</g>
</g>
</svg>
