<?xml version="1.0" encoding="utf-8"?>
<!-- Generator: Adobe Illustrator 23.0.3, SVG Export Plug-In . SVG Version: 6.00 Build 0)  -->
<svg version="1.1" id="Layer_1" xmlns="http://www.w3.org/2000/svg" xmlns:xlink="http://www.w3.org/1999/xlink" x="0px" y="0px"
	 viewBox="0 0 240 240" style="enable-background:new 0 0 240 240;" xml:space="preserve">
<style type="text/css">
	.st0{opacity:0.15;fill-rule:evenodd;clip-rule:evenodd;fill:#231915;}
	.st1{fill-rule:evenodd;clip-rule:evenodd;fill:#231915;}
	.st2{fill:#231915;}
	.st3{fill-rule:evenodd;clip-rule:evenodd;fill:#903E97;}
	.st4{fill-rule:evenodd;clip-rule:evenodd;fill:#9F4F9E;}
	.st5{fill-rule:evenodd;clip-rule:evenodd;fill:#14499E;}
	.st6{fill-rule:evenodd;clip-rule:evenodd;fill:#7B86C2;}
	.st7{fill-rule:evenodd;clip-rule:evenodd;fill:#2D3079;}
	.st8{fill-rule:evenodd;clip-rule:evenodd;fill:#E7E6E0;}
	.st9{fill-rule:evenodd;clip-rule:evenodd;fill:#CEC7A1;}
	.st10{fill-rule:evenodd;clip-rule:evenodd;fill:#ED1459;stroke:#231915;stroke-width:0.7761;stroke-miterlimit:10;}
	.st11{fill-rule:evenodd;clip-rule:evenodd;fill:#ED1459;}
	.st12{fill-rule:evenodd;clip-rule:evenodd;fill:#FFFFFF;}
	.st13{fill-rule:evenodd;clip-rule:evenodd;fill:#66BB6A;}
	.st14{fill-rule:evenodd;clip-rule:evenodd;fill:#D0CEC1;}
	.st15{fill-rule:evenodd;clip-rule:evenodd;fill:#57A0D7;}
	.st16{fill-rule:evenodd;clip-rule:evenodd;fill:#231915;stroke:#231915;stroke-width:0.7761;stroke-miterlimit:10;}
	.st17{fill:#FFFFFF;}
	.st18{fill:#E7E6E0;}
	.st19{fill-rule:evenodd;clip-rule:evenodd;fill:#B39CCB;}
	.st20{fill-rule:evenodd;clip-rule:evenodd;fill:#9175B5;}
</style>
<g>
	<path class="st0" d="M180.1,236.7c21.5,0,39-4,39-8.8c0-4.9-17.5-8.8-39-8.8c-21.5,0-39,4-39,8.8
		C141.1,232.7,158.6,236.7,180.1,236.7L180.1,236.7z"/>
	<path class="st0" d="M60.8,230.7c12.5,0,22.7-3.6,22.7-8c0-4.4-10.2-8-22.7-8c-12.5,0-22.7,3.6-22.7,8
		C38.2,227.1,48.3,230.7,60.8,230.7L60.8,230.7z"/>
	<path class="st1" d="M188.6,207.7c-2.2,1.8-5,3.7-7.7,2.9c-8.3-2.5-17-3.2-18.6,2.7c-4.7,17.5,37.5,12.6,38.8,11.3
		c11.5-11.2,0.4-29.4-9.8-29.9C186.9,194.6,189.4,202.5,188.6,207.7L188.6,207.7z"/>
	<path class="st2" d="M97,38l7.1-8.7v-2.1v-0.1l0.2-3.6c-0.5-0.2-1.8-0.5-2.6-0.7c-0.4-0.1-0.8-0.2-0.8-0.2l-0.1,0l-15.5-5.6
		c-5.2-0.8-9.5-0.3-12.5,0.9c-3.2,1.3-5,3.3-5.3,5.4c-1,5.9,4.1,9.4,10.3,11.6c3.6,1.2,7.6,2,11.1,2.4c3.5,0.5,6.5,0.6,8.2,0.5
		C97,37.7,97,37.8,97,38L97,38z M108.4,31.8l-8,9.8l0,0c-0.7,0.7-1.8,1.1-3.3,1.2c-1.9,0-5.2-0.1-9-0.5c-3.8-0.5-8.1-1.3-12-2.7
		c-8.2-2.8-15-8-13.5-17c0.7-3.8,3.5-7.2,8.3-9.2c3.9-1.6,9-2.2,15.3-1.2l0.2,0l0.3,0.1l15.7,5.7l0,0c0.3,0.1,0.5,0.2,0.7,0.2
		c2,0.5,5.2,1.4,6.1,3.8l0.2,0.5l0,0.5l-0.3,4.4l0,0v2.9v0.9L108.4,31.8z"/>
	<path class="st3" d="M98.6,40l8-9.8c0-1,0-2,0-2.9l0.3-4.5c-0.6-1.4-4-2.1-5.2-2.5l-15.8-5.7c-12.4-1.9-19.9,2.8-20.9,8.3
		C62,40.3,98.5,40.8,98.6,40L98.6,40z"/>
	<path class="st4" d="M188.6,204.4c-2.2,1.8-5,3.7-7.7,2.9c-8.3-2.5-13.9-1.7-17.3,3.3c-11.4,17.1,39.3,12,40.3,10.4
		c8.9-14-2.4-29.1-12.5-29.7C186.9,191.3,189.4,199.3,188.6,204.4L188.6,204.4z"/>
	<path class="st2" d="M157.7,133l-43.9-8.6c-10.7,6.1-18.7,14.9-24.6,24.6c-7.3,11.9-11.4,25.3-13.3,36.9l6.3,1.2
		c3.3-12.1,7.8-25.1,15-34.5c8-10.4,19-16.5,35-12.5c4.2,1,8,2.5,11.3,5c3.4,2.6,6.2,6.1,8,11.1l0,0.2c4.2,14.3,7.3,23.6,12.6,29.9
		c4.8,5.8,11.6,9.2,23,12.1c0.3-0.5,0.5-1,0.5-1.5c0-0.4-0.1-0.9-0.3-1.3c-10-2.6-16.5-10.6-20.8-20.3c-4.2-9.6-6.2-20.8-7.2-29.7
		l0,0L157.7,133z M113.8,117.8l47.4,9.2l2.3,0.5l0.3,2.3l1.9,15v0.1c0.9,8.4,2.8,18.9,6.7,27.8c3.7,8.3,9.2,15.1,17.5,16.8l1.2,0.3
		l0.7,1c1.6,2.1,2.4,4.3,2.2,6.7c-0.2,2.3-1.2,4.6-3.5,6.9l-1.3,1.3l-1.8-0.4c-14-3.3-22.4-7.4-28.5-14.7
		c-5.9-7.2-9.4-17.1-13.7-32.2c-1.3-3.6-3.3-6.1-5.7-8c-2.5-1.9-5.6-3.1-9-3.9c-13-3.1-21.9,1.7-28.4,10.2
		c-6.8,9-11.1,21.9-14.3,33.8l0,0l-0.3,1.3l-0.7,3l-3-0.6l-12.4-2.4l-3-0.6l0.4-3.1c1.8-13.1,6.2-28.7,14.6-42.5
		c6.7-10.9,15.8-20.8,28.1-27.5l1-0.6L113.8,117.8z"/>
	<path class="st5" d="M160.6,130.2l-47.4-9.2c-26.8,14.6-37.9,45-41.1,67.6l12.4,2.4l0.3-1.4c6.5-24.3,17.7-53.4,46.6-46.3
		c7.5,1.8,13.9,5.3,17,14c8.5,29.4,13.3,38.5,39.9,44.7c3.3-3.4,3.2-6.5,1-9.4c-19.1-3.8-24.9-30.2-26.8-47.5L160.6,130.2z"/>
	<path class="st6" d="M110.8,122.4c-25,15-35.6,44.3-38.6,66.2l2,0.4c6.7-34.4,14.7-52.3,37.1-65.5L110.8,122.4z"/>
	<path class="st7" d="M144.3,150.3c1.7,1.9,3.1,4.2,4.1,7.1c1,3.5,1.9,6.6,2.9,9.5c4,2,9.2,3,11.7,2.6c8.6,17.5,12.5,23.1,27.7,26.2
		c-0.2-1-0.7-2-1.5-3c-19.1-3.8-24.9-30.2-26.8-47.4l-0.1,0c-1.1,0.4-2.1,0.7-3.2,1.2l-8.4,1.9l-0.9,0.2l-4.3,1
		C145.4,149.7,144.9,150,144.3,150.3L144.3,150.3z"/>
	<path class="st7" d="M79.5,190l5.1,1l0.3-1.4c5.4-20.1,13.9-43.4,33.1-46.9C99.3,139.3,81.1,173.7,79.5,190L79.5,190z"/>
	<path class="st2" d="M97.1,25.2c0.2-0.9,0.7-2.1,1.2-3.3c0.7-1.4,1.6-2.9,2.1-3.8c3.9-6.4,8.5-10.6,13.1-13.1
		c5.5-2.9,11.1-3.3,16.2-2c5.7,1.6,9.3,4.4,12,8.1c2.5,3.6,4,7.8,5.4,12.5l0,0.2l0,0.3l0.3,2.4l0.2,2.4l-2.4,0.3l-1.7,0.2l-26.7,6.1
		l-0.3,0h-0.3h-0.8h-0.2h-0.2l-8.9-1.3l-0.8-0.1l-0.6-0.6c-0.2-0.1-0.2-0.2-0.3-0.3c-0.1-0.1-0.1-0.1-0.1-0.1c0,0,0,0-0.2-0.1
		c-0.2-0.1-0.3-0.2-0.7-0.4l-0.1-0.1l-0.2-0.2l-5.3-5l-1-0.9L97.1,25.2z M102.8,24.1c-0.2,0.3-0.3,0.5-0.4,0.8l4,3.8
		c0.2,0.1,0.3,0.2,0.5,0.3c0.2,0.2,0.3,0.2,0.6,0.4c0.1,0.1,0.2,0.2,0.3,0.2l7.9,1.2h0.5l26.1-5.9c-1.2-4.1-2.5-7.8-4.6-10.7
		c-2-2.8-4.8-5-9.2-6.2c-3.9-1-8.2-0.7-12.5,1.6c-4,2.1-7.8,5.7-11.3,11.4l0,0.1C104.1,21.6,103.4,22.9,102.8,24.1L102.8,24.1z"/>
	<path class="st4" d="M99.6,25.6c0.3-1.5,2.1-4.8,2.9-6.1c7.9-12.8,18.2-16.3,26.6-14c10,2.7,13,10,15.6,19l0.3,2.4l-1.8,0.3
		l-26.8,6.1h-0.8l-8.9-1.3c-0.8-0.9-0.4-0.5-1.6-1.3L99.6,25.6z"/>
	<path class="st2" d="M124,3.2c0.6,0,1.2,0.1,1.7,0.2c4,0.8,7.2,4.1,9.3,7.8c2.1,3.6,3.2,7.8,3.2,10.2c0,0.4,0,0.7-0.1,1l-1.2-0.2
		c0-0.2,0.1-0.5,0.1-0.8c0-2.3-1-6.1-3-9.6c-2-3.5-4.8-6.5-8.4-7.2c-0.5-0.1-1-0.2-1.5-0.2V3.2z"/>
	<path class="st2" d="M122.5,4.4c-1.8,1.4-3.5,4.6-4.8,8.3c-1.5,4.2-2.4,8.9-2.5,12.4h-1.3c0-3.6,1-8.5,2.6-12.8
		c1.4-3.9,3.3-7.4,5.2-8.9L122.5,4.4z"/>
	<path class="st2" d="M151.5,64.1c3,0,5.9,0.4,8.7,1.2c9.5,2.7,17.2,9.7,22.4,18.5c5.1,8.7,8,19.1,8,29c0,4.3-0.5,8.4-1.6,12.3
		c-1,3.7-2.6,7.2-4.7,10.2c-2,3-4.5,5.5-7.6,7.5c-3.3,2.2-7.4,2.7-10.6,1.9c-0.1,0-0.2,0-0.3-0.1c-1.4-0.4-2.6-1-3.5-1.9
		c-1.2-1.1-2-2.5-2.2-4.2c-0.3-2.2,0.4-4.8,2.7-7.5c2-2.4,3.6-4.7,4.9-6.9c1.3-2.3,2.3-4.5,3-6.6c0.2-0.7,0.4-1.5,0.6-2.3
		c0.2-0.7,0.3-1.4,0.4-2.2c0.7-6.1-1.1-12-5.2-17.3c-4.5-5.7-11.6-10.8-21-15.2c-1.7-0.7-2.3-2.7-1.6-4.3c0,0,0-0.1,0.1-0.2
		l4.8-10.2C149.2,64.8,150.3,64.1,151.5,64.1L151.5,64.1z M158.5,71.6c-1.6-0.5-3.2-0.7-4.9-0.9l-2.6,5.4c9,4.5,15.9,9.8,20.4,15.6
		c5.3,6.7,7.6,14.2,6.6,22.1c-0.1,0.9-0.3,1.9-0.5,2.8c-0.2,0.9-0.5,1.8-0.7,2.8c-0.8,2.6-2,5.3-3.5,8c-1.5,2.6-3.3,5.2-5.5,7.8
		c-0.9,1.2-1.3,1.9-1.2,2.4c0,0.1,0.1,0.2,0.2,0.2c0.2,0.2,0.5,0.3,0.9,0.5c0.1,0,0.2,0,0.2,0c1.6,0.4,3.7,0.1,5.4-1
		c2.3-1.6,4.3-3.5,5.8-5.7c1.7-2.4,2.9-5.3,3.8-8.3c0.9-3.3,1.3-6.9,1.3-10.6c0-8.7-2.5-18-7.1-25.7
		C172.6,79.6,166.3,73.7,158.5,71.6L158.5,71.6z"/>
	<path class="st8" d="M151.5,67.3c25.9,0,40.7,34,34.4,56.8c-1.8,6.6-5.4,12.3-10.9,15.9c-6.3,4.1-15.9,0.5-9.7-6.9
		c4.2-5,7-9.9,8.4-14.7c0.5-1.7,0.9-3.3,1.1-5c1.8-14.2-8.3-26.7-28.2-35.8L151.5,67.3z"/>
	<path class="st9" d="M179.1,84.2c2.3,3.6,4.2,7.6,5.5,11.8c-2.9,1.6-6.5,3.6-6.9,4c1.2,20.3-1.3,25.7-13,40.6
		c-1.9-1.4-2.3-4,0.5-7.4c4.2-5,7-9.9,8.4-14.7c0.5-1.7,0.9-3.3,1.1-5c0.8-6.9-1.1-13.3-5.5-19.2V89l0.8-1L179.1,84.2z"/>
	<path class="st1" d="M114.7,90.1c-0.3,2,0,1.9-0.8,3.8c-2.9,10.1,3.7,1.9-4,11.1c-7.7,19.2,10.1,29.1,19.8,32.7
		c12.9,4.7,22.2,1.6,32.9-6.8c3.6-25.5-3.7-35.4-12.9-50.7l-14.6,1c-3.1,0.9-0.9-0.5-3.8,1.4L114.7,90.1z"/>
	<path class="st2" d="M114.8,90.2c-0.1,0.5-0.1,0.9-0.1,1.2c-0.1,0.9-0.2,1.2-0.7,2.6c-1.3,4.6-0.7,5.3-0.3,5.6
		c0.2,0.2,0.3,0.3,0.2,0.6c-0.2,0.5-0.8,1.3-2.9,3.8l-0.9,1.1c-0.2,0.3-0.3,0.7-0.4,1.1c-3,8.6-0.9,15.2,3.2,20.2
		c4.2,5,10.2,8.4,15.1,10.4c0.7,0.3,1.3,0.5,1.9,0.7c6.4,2.3,11.9,2.7,17.2,1.5c5.2-1.2,10.2-4,15.5-8.1
		c3.3-23.8-2.8-33.9-11.2-47.7c-0.5-0.9-1.1-1.8-1.7-2.8l-14.5,1c-1.3,0.4-1.7,0.3-2,0.3l0,0c0,0-0.1,0-0.2,0
		c-0.2,0.1-0.4,0.3-1.3,0.8l-0.3,0.2h0l0,0L114.8,90.2z M114.4,91.3c0-0.3,0.1-0.7,0.2-1.2V90l0.1,0l16.7-7.4l0.3-0.2
		c0.9-0.6,1.2-0.8,1.3-0.9c0.2,0,0.2,0,0.3,0v0c0.2,0,0.5,0,1.8-0.3h0l0,0l14.6-1l0.1,0l0.1,0.1c0.5,0.9,1.1,1.9,1.7,2.8
		c8.4,13.8,14.6,24,11.2,47.9v0.1l-0.1,0c-5.4,4.2-10.4,7.1-15.7,8.3c-5.3,1.2-10.9,0.9-17.4-1.5c-0.6-0.2-1.2-0.5-1.9-0.7
		c-4.9-2-11-5.4-15.2-10.4c-4.2-5.1-6.4-11.9-3.3-20.6c0.1-0.4,0.3-0.8,0.4-1.1v0h0l0.9-1.1c2-2.4,2.8-3.3,2.9-3.7
		c0-0.1,0-0.2-0.1-0.2c-0.4-0.4-1.1-1.2,0.3-6l0,0l0,0C114.3,92.4,114.3,92.1,114.4,91.3L114.4,91.3z"/>
	<polygon class="st10" points="135.1,101.7 147.8,97.5 149,101.1 136.4,105.3 	"/>
	<polygon class="st11" points="135.8,89.2 126.1,105.8 117,91.4 	"/>
	<path class="st2" d="M135.9,89.3l-9.7,16.6l-0.1,0.2l-0.2-0.2l-9-14.4l-0.2-0.2l0.3,0l18.7-2.3l0.3,0L135.9,89.3z M126.1,105.5
		l9.4-16.1l-18.1,2.2L126.1,105.5z"/>
	<path class="st2" d="M106.7,96.2l2.9-3.8l3.4-4.5l2.2,5.2l2,4.8c2.3,4.7,5,7.4,7.8,8.7c3,1.4,6.5,1,10-0.4
		c5.4-2.2,10.8-6.3,15.6-11c6.7-6.6,12-14,14.5-18.5l1.8-3.3l3,2.3l8,6.1l1.9,1.4l-0.8,2.3c-2.9,8.7-8.8,18.8-16.4,26.7
		c-6.4,6.8-14.2,12-22.4,13.6c-5,1-9.5,0.6-13.6-0.9c-4.4-1.6-8.2-4.3-11.4-7.8c-2.2-2.4-4-5.2-5.5-8.2c-1.5-3.1-2.7-6.4-3.6-9.8
		l-0.4-1.5L106.7,96.2z M122.3,112.5c-1.7-0.8-3.3-1.9-4.8-3.3c0.8,1.2,1.6,2.3,2.5,3.3c2.4,2.8,5.3,4.9,8.7,6c3,1,6.4,1.4,10.2,0.6
		c6.8-1.3,13.4-5.9,19-11.7c6.3-6.6,11.2-14.7,14.1-22.1l-3.2-2.4c-3.1,4.9-8,11.2-13.8,16.8c-5.3,5.2-11.4,9.8-17.7,12.4
		C132.2,114.3,127.1,114.6,122.3,112.5L122.3,112.5z"/>
	<path class="st8" d="M109.3,98.2l2.9-3.8l2,4.9c5.8,11.6,13.8,13.2,21.9,10c13.9-5.6,27.3-22.8,31.8-31l8,6.1
		c-5.2,15.2-19.8,34.9-36.4,38.1c-9.2,1.8-16.6-1.6-21.9-7.6C113.6,110.3,110.8,104.4,109.3,98.2L109.3,98.2z"/>
	<path class="st9" d="M115,100.7c5.8,10.2,13.4,11.6,21.1,8.5c11.6-4.7,22.9-17.5,28.9-26.3l3.2,1.1c0.4,0,2.3,0.7,2.9,0.9l3.8,1.8
		c-1.9,4.8-4.6,9.9-7.9,14.7c-2.3-3.1-3.9-6.2-7.9-7.4c-4,3.8-11.5,23.2-35.6,17.9c-0.8,2.5-2.1,4-3.8,5.1c-0.8-0.7-1.5-1.4-2.2-2.2
		c-2.2-2.6-4.1-5.6-5.6-8.8v-2.6c0.7-1,1.2-1.3,2.2-2.1L115,100.7z"/>
	<path class="st1" d="M125.3,65c-0.7,0.4-1.8,0.6-2.8,1l-15.3,3l-8.5-0.6L98.1,68l-4-6.9c-0.9-0.1,1.9-4.6,1.7-5.6
		C88.2,32,102.9,26.2,118,24.1c9.2-1.3,31.7-1.2,36.9-10.2c0,4.6-2.8,8.7-4.5,10.2c2.4,0,4.8-0.5,7-1.6c-1.7,4.3-4.1,6.4-8,9.2
		c7.4-5.1,13.3-4.7,16.4-1.6c5.2,5.1,2.4,17.7-14.3,24.4c-5.6,2.2-9.7,3.2-10.1,3.9L125.3,65z"/>
	<path class="st2" d="M99,38c1.7,0.2,3,1.5,3.7,3.5c0.6,1.7,0.8,3.8,0.6,6.1c-0.3,2.3-1,4.3-1.9,5.8c-1.2,1.8-2.7,2.8-4.4,2.6
		c-1.7-0.2-3-1.6-3.7-3.5c-0.6-1.6-0.8-3.8-0.6-6.1c0.3-2.3,1-4.3,2-5.8C95.7,38.8,97.3,37.8,99,38L99,38z M99.7,42.7
		c-0.3-0.9-0.7-1.4-1-1.4c-0.4,0-0.9,0.4-1.3,1.1c-0.7,1.1-1.2,2.6-1.4,4.4c-0.2,1.8,0,3.4,0.4,4.6c0.3,0.8,0.7,1.4,1,1.4
		c0.3,0,0.8-0.4,1.3-1.1c0.7-1,1.2-2.6,1.4-4.4C100.3,45.5,100.1,43.9,99.7,42.7L99.7,42.7z"/>
	<path class="st12" d="M98.8,39.6c2.1,0.2,3.3,3.8,2.9,7.8s-2.5,7.2-4.5,6.9c-2-0.2-3.3-3.7-2.9-7.8C94.7,42.5,96.7,39.4,98.8,39.6
		L98.8,39.6z"/>
	<path class="st13" d="M97.1,42.9c1.1,0,2,1.9,2,4.2s-0.9,4.2-2,4.2c-1.1,0-2-1.9-2-4.2S96,42.9,97.1,42.9L97.1,42.9z"/>
	<path class="st1" d="M96.9,44.8c0.7,0,1.2,1.1,1.2,2.4c0,1.3-0.5,2.4-1.2,2.4c-0.6,0-1.2-1-1.2-2.4C95.8,45.9,96.3,44.8,96.9,44.8
		L96.9,44.8z"/>
	<path class="st1" d="M111,45.8c-0.8,1.8-1.5,3.8-2,5.7c-0.5,1.7-0.8,3.5-0.9,5.3c-0.2,1.9,0,3.8,0.4,5.6c0,0.1,0,0.2,0,0.3
		c3.6-3.4,8.4-6,13.7-7.7c7.8-2.5,16.7-3.1,23.7-1.2c3.7,1,6.9,2.7,9.3,5.2c2.3,2.4,3.7,5.5,3.8,9.2c0.3,5.9-2.2,10.9-6.5,14.9
		c-4.5,4.3-11,7.5-17.7,9.4c-8.3,2.2-16.9,1.9-22.9,1.7c-0.7,0-1.2,0-1.8,0c-2.2,1.9-4.7,3.8-7.4,5.2c-2.8,1.5-5.7,2.5-8.7,2.8
		c-2,0.2-5,0-7.9-0.7c-2.5-0.7-5-1.8-7-3.6c-2.2-1.9-3.8-4.5-4.1-7.9v-0.1c-2.3,0.3-4.3-0.2-5.9-1c-1.5-0.8-2.6-2-3.4-3.3
		c-0.7-1.4-1.2-2.9-1.2-4.5c0-3.3,1.6-7,5.3-9.8c2.6-2.9,5.9-4.2,10-5.7c0.8-0.3,1.7-0.7,2.6-1c4.1-5.5,8.9-9.5,14.5-14.3
		c2.7-2.3,5.7-4.9,9.1-8c1.3-1.2,3.3-1.2,4.6,0.2C111.3,43.3,111.5,44.7,111,45.8L111,45.8z M108,44.5c-1.7,3.8-3,7.9-3.2,12.1
		c-0.3,4.2,0.5,8.5,2.7,12.4c6-10.3,25.1-15.4,37.4-12c6,1.7,10.4,5.3,10.7,11.4c0.5,10.4-10.2,17.9-21.8,21
		c-9.4,2.5-19.4,1.6-25.1,1.5c-4.1,3.9-9.8,7.6-15.2,8.1c-5.2,0.5-18.3-1.9-15.2-13.6c-10.2,5.1-14.9-5.8-6.5-11.8
		c2.7-3.2,7-4.2,12.4-6.4C90.3,58.8,98.1,53.8,108,44.5L108,44.5z"/>
	<path class="st8" d="M108,44.5c-1.7,3.8-3,7.9-3.2,12.1c-0.3,4.2,0.5,8.5,2.7,12.4c6-10.3,25.1-15.4,37.4-12
		c6,1.7,10.4,5.3,10.7,11.4c0.5,10.4-10.2,17.9-21.8,21c-9.4,2.5-19.4,1.6-25.1,1.5c-4.1,3.9-9.8,7.6-15.2,8.1
		c-5.2,0.5-18.3-1.9-15.2-13.6c-10.2,5.1-14.9-5.8-6.5-11.8c2.7-3.2,7-4.2,12.4-6.4C90.3,58.8,98.1,53.8,108,44.5L108,44.5z"/>
	<path class="st14" d="M139.8,56.1c1.8,0.2,3.6,0.5,5.2,0.9c6,1.7,10.4,5.3,10.7,11.4c0.3,5.1-2.2,9.5-6,13c1.1-2.5,2-5.3,2.5-6.8
		C154.4,66.7,146.8,58.7,139.8,56.1L139.8,56.1z"/>
	<path class="st14" d="M108,44.5c-1.7,3.8-3,7.9-3.2,12.1c-0.3,4.2,0.5,8.5,2.7,12.4c0.1-0.2,0.2-0.3,0.3-0.5c0.3,0.4,0-0.1-0.3,0.5
		c-1,1.9-1.2,2.2-2.2,3.6c-0.6-2.4-2.8-4.7-6.6-4.1c-1.8,1.7,6.8-20.3,8.5-23.3C107.5,45,107.7,44.8,108,44.5L108,44.5z"/>
	<path class="st2" d="M122.4,36.8c6.1-0.4,7.8,9.3,8.7,14.7c0.1,0.6,0.2,1.2,0.3,1.7l0.4,2l-2,0c-2.5,0-5,0.3-7.4,1.2
		c-2.3,0.9-4.4,2.1-6.4,4l-2,1.8l-0.7-2.6c-0.2-0.8-0.4-1.8-0.5-3c-0.2-3.1,0.1-7.4,1.2-11.1c1.2-4,3.3-7.4,6.9-8.3
		C121.5,36.9,121.9,36.8,122.4,36.8L122.4,36.8z M128,51.9c-0.8-4.4-2.2-12.1-5.3-11.8c-0.3,0-0.6,0-0.8,0.1
		c-2.3,0.6-3.7,3.1-4.6,6.2c-1,3.2-1.2,6.9-1.1,9.7c1.7-1.2,3.4-2.1,5.2-2.8C123.4,52.4,125.7,52,128,51.9L128,51.9z"/>
	<path class="st12" d="M122.6,38.4c5.2-0.3,6.5,10.9,7.3,15.1c-5.3-0.1-10.6,1.6-14.9,5.6C113.7,54.3,114.6,38.9,122.6,38.4
		L122.6,38.4z"/>
	<path class="st2" d="M100.7,73c0.1,0.3,0.1,0.7,0.2,1c0.2,2.9-1.5,5.4-4.3,7.3c-2.2,1.6-5.2,2.8-8.4,3.7c-2.3,0.7-4.8,1.1-7.2,1.3
		c-3.8,0.2-7-0.6-9.5-2.1c-3.1-1.8-5.1-4.6-5.7-7.5c0,0,0-0.1,0-0.2c-0.4-1.9-0.3-3.9,0.6-5.7c0.8-1.7,2.1-3.2,4.1-4.2
		c5.3-2.8,11.6-0.3,17.4,2c3.7,1.5,7.1,2.9,8.1,2.2c1.5-1,3.5-0.5,4.5,1C100.4,72.3,100.6,72.7,100.7,73L100.7,73z M86.4,78.8
		c1.8-0.5,3.5-1.1,4.9-1.9c-1.9-0.5-4-1.4-6.1-2.2c-4.5-1.8-9.3-3.7-12-2.3c-0.6,0.3-1,0.7-1.2,1.2c-0.2,0.4-0.3,1-0.2,1.5l0,0.1
		c0.3,1.2,1.2,2.5,2.7,3.4c1.5,0.9,3.4,1.4,5.8,1.2C82.4,79.7,84.5,79.4,86.4,78.8L86.4,78.8z"/>
	<path class="st1" d="M97.5,73.6c1.3,4.7-8.4,8.9-16.9,9.5c-6.7,0.5-11-3.3-11.9-7.1c-0.6-2.5,0.3-5,3-6.5
		C79.2,65.6,92.3,77,97.5,73.6L97.5,73.6z"/>
	<path class="st8" d="M162.9,32.4c5.8,5.1-5.4,15.3-11.1,17.7c1.5-1.4,11.2-11.1,7.4-14c-2.8-2.1-12.6,5-13.9,6.6
		C148.2,37.5,158.7,28.7,162.9,32.4L162.9,32.4z"/>
	<path class="st14" d="M116.1,83.2c4.3-1.7,7-2.5,11.6,0.3c7.1,3.4,8,1.2,12.3-3.7c0.2,8.6-8.5,9.3-14.6,6.3
		C121.9,84.5,120.1,82.9,116.1,83.2L116.1,83.2z"/>
	<path class="st15" d="M119.8,41.5c1.8,0,3.3,3,3.3,6.7s-1.5,6.7-3.3,6.7c-1.8,0-3.3-3-3.3-6.7S118,41.5,119.8,41.5L119.8,41.5z"/>
	<path class="st1" d="M119.5,44.6c1,0,1.9,1.7,1.9,3.8c0,2.1-0.8,3.8-1.9,3.8c-1,0-1.9-1.7-1.9-3.8
		C117.6,46.3,118.5,44.6,119.5,44.6L119.5,44.6z"/>
	<path class="st16" d="M138.1,63c0.2,0,0.3,0.2,0.3,0.3c0,0.2-0.2,0.3-0.3,0.3c-0.2,0-0.3-0.2-0.3-0.3C137.8,63.1,137.9,63,138.1,63
		L138.1,63z"/>
	<path class="st16" d="M139.7,66.1c0.2,0,0.3,0.2,0.3,0.3c0,0.2-0.2,0.3-0.3,0.3c-0.2,0-0.3-0.2-0.3-0.3
		C139.3,66.3,139.5,66.1,139.7,66.1L139.7,66.1z"/>
	<path class="st16" d="M141.2,63.3c0.2,0,0.3,0.2,0.3,0.4c0,0.2-0.2,0.3-0.3,0.3c-0.2,0-0.3-0.2-0.3-0.3
		C140.8,63.5,141,63.3,141.2,63.3L141.2,63.3z"/>
	<path class="st17" d="M128.8,37.3c-2.9-4.5-7.8-2.8-10.7,1C120.5,33.7,126.8,30.6,128.8,37.3L128.8,37.3z"/>
	<path class="st18" d="M111.7,30.3c1.3,3.9,6.8,0.9,8.8-0.6c0.5-0.3,0.8-0.6,1.1-0.7c5.9-3.8,13.4-10.2,16.8-1.3
		c-1.8-0.9-3.7-0.8-5.7-0.2c-6,1.9-12.4,9.1-17.6,8.8C112.4,36.2,110.7,34,111.7,30.3L111.7,30.3z"/>
	<polygon class="st2" points="130.1,100.9 126,97.3 122.8,101.1 120.9,99.4 125,94.6 125.8,93.7 126.8,94.5 131.8,99 	"/>
	<path class="st2" d="M156.2,82.5c0.5-0.7,1-1.3,1.7-1.8c0.3-2.6,1.3-5.3,2.6-7.5c1.8-3.1,4.5-5.5,7.5-6.2c0.2,0,0.4-0.1,0.7-0.2
		c2.1-0.3,4.1,0.1,5.8,1c1,0.5,1.8,1.3,2.5,2.2c0.1,0,0.2,0,0.2,0c2.3,0.1,4.3,0.9,5.9,2.2c1.6,1.4,2.8,3.2,3.2,5.4
		c0,0.1,0,0.2,0,0.3c1.6,0.7,2.9,1.8,3.8,3c0.9,1.2,1.5,2.6,1.8,4c0.2,1.4,0.2,2.8-0.2,4.2c-0.6,2.3-2,4.4-4,6l0,0
		c-0.4,0.3-1,0.6-1.6,0.7c-1.3,0.2-2.5-0.4-3.1-1.5l-0.1,0.1c-1.4,1-2.9,1.9-4.2,2.6c0,0.2,0,0.3,0,0.5c0,1.6-0.6,3-1.5,4.1
		c-0.3,0.4-0.7,0.7-1.2,1c-1,0.6-2.1,0.8-3.3,0.6c-1-0.2-2-0.7-3-1.5c-0.6-0.6-1.2-1.3-1.8-2.3c-0.3-0.5-0.5-0.9-0.7-1.3
		c-0.2-0.4-0.4-0.7-0.6-1h0c0-0.1-0.1-0.1-0.1-0.2c-0.7-1.1-1.3-2-2-2.7c-0.6-0.6-1.2-1.1-2-1.5c-0.5-0.3-1-0.5-1.5-0.7
		c-0.5-0.2-1.2-0.5-2-0.7l0,0c-0.1,0-0.2-0.1-0.3-0.2c-0.6-0.3-1.2-0.6-1.7-0.9c-0.7-0.5-1.3-1.2-1.7-2.1v0l0,0
		c-0.3-0.6-0.4-1.3-0.4-2C155.1,84.8,155.5,83.5,156.2,82.5L156.2,82.5z M163,85.6c0.2,0,0.3,0.1,0.5,0.2c0.8,0.3,1.5,0.7,2.2,1
		c1.3,0.7,2.5,1.6,3.5,2.7c1,1,1.9,2.3,2.8,3.8v0c0,0,0.1,0.1,0.1,0.2c0.3-0.5,0.7-0.9,1.1-1.2c0.3-0.2,0.7-0.3,1-0.4l0,0
		c0.5-0.1,2.8-1.5,5-3c1.4-1,2.7-1.9,2.8-2.3c0.6-1.2,1.8-1.8,3-1.8l0,0c-0.5-0.6-1.3-1.2-2.6-1.5c-1.5-0.4-2.5-1.9-2.4-3.4
		c0-0.3,0-0.6-0.1-0.9c-0.2-0.7-0.5-1.4-1-1.7c-0.5-0.4-1.2-0.7-2-0.7c-0.3,0-0.8,0-1.2,0.2c-1.8,0.4-3.5-0.7-3.9-2.5
		c0-0.1,0-0.2,0-0.2c0-0.2-0.2-0.3-0.4-0.4c-0.5-0.2-1-0.3-1.7-0.2c0,0-0.1,0-0.2,0c-1.2,0.3-2.4,1.6-3.5,3.2
		c-1.1,1.9-1.8,4.2-1.7,6.1C164.4,83.9,163.8,84.9,163,85.6L163,85.6z"/>
	<path class="st19" d="M161.1,82.9c-1.7,0-3.2,2.4-2.7,3.8c0.2,0.5,0.8,0.9,1.7,1.3c1.6,0.5,2.9,1,4,1.7c2,1.1,3.5,2.6,5.2,5.5
		c0.4,0.5,0.8,1.5,1.4,2.4c1.6,2.6,3.2,2.7,4.1,1.7c0.8-0.9,1-2.7,0.1-4.2c1.4-0.3,9-4.8,10.1-7c0.1,1.6,0.6,2.9,0.8,4.4
		c4.5-3.5,4.5-10.5-2.4-12.3c0.2-4.6-3.6-7.8-8.3-6.7c-0.3-2.4-3.3-4-6.2-3.3C164.6,71.1,160.8,77.7,161.1,82.9L161.1,82.9z"/>
	<path class="st20" d="M161.1,82.9c-1.7,0-3.2,2.4-2.7,3.8c0.2,0.5,0.8,0.9,1.7,1.3c1.6,0.5,2.9,1,4,1.7c2,1.1,3.5,2.6,5.2,5.5
		c0.4,0.5,0.8,1.5,1.4,2.4c1.6,2.6,3.2,2.7,4.1,1.7c0.2-0.3,0.5-0.7,0.6-1c-1.2-0.2-2-0.9-2.7-2c-3.9-5.7-3.9-5.6-7.9-8.3
		c-0.9-0.6-3.9-2.1-2.4-3.6c0.6-0.6,1.9-0.7,2.9-0.5l-0.4-1c-0.3-6.4,0.8-12.6,6.8-12.7c-0.9-0.3-1.9-0.3-2.9,0
		C164.6,71.1,160.8,77.7,161.1,82.9L161.1,82.9z"/>
	<path class="st2" d="M160.2,81.6c4.2,0.5,12.7,4.6,12.2,10.4c-1.5-4.3-7.9-8.6-12.3-9.2L160.2,81.6z"/>
	<path class="st2" d="M80.9,84.9c1.3,1.9,2.8,3.3,4.5,4.1c1.7,0.8,3.6,1.2,5.6,1.2c6.2,0,13.5-4.9,20.6-9.7
		c5.8-4,17.3-12.4,24.7-8.9c2.2,1.1,3.5,3.1,2.6,5.7c-1.5-1.7-3.3-2.9-5.5-3.2c-5.6-0.7-12.7,4.2-19.9,9.1
		c-7.5,5.1-15.2,10.3-22.4,10.3c-2.5,0-4.8-0.5-7-1.5c-2.2-1-4.7-4-6.4-6.4L80.9,84.9z"/>
	<path class="st1" d="M118,79.5c5.4-0.8,9.7,0.9,13.3,1.4c3.1,0.4,5.3-0.2,7.6-3.6c-1.9-3.1-2.5-4.4-7.1-3.7
		c-1.3,0.2-2.8,0.5-4.8,0.6h-0.2L118,79.5z"/>
	<path class="st2" d="M121.3,81.9c2-0.4,4,0,5.9,0.5c5.5,1.7,9,2.9,12.6-3c-0.2,2.3-2,4.6-4.1,5.7C131.1,87.6,126.3,82,121.3,81.9
		L121.3,81.9z"/>
	<polygon class="st1" points="108.6,91.4 110.9,87.3 110.5,92.1 	"/>
	<path class="st12" d="M87.2,79c0.3-0.3,0.8-1.6-1-1.2c-2.3,0.5-4.4,1-6.8,0c-2-0.9-2.5-1.7-4.1-2.5c-0.5-0.2-1-0.4-1.7-0.6
		c-3.1-1-4.5,3,1,4.6C77.2,80,85,80.8,87.2,79L87.2,79z"/>
	<path class="st12" d="M132.4,73.5c1.1,0.9,1.3,3.5,1.3,5.1c1.1-0.2,2.4-1.7,2.8-2.7c0.5-1.3,0-2.5-0.9-3.1
		C134.7,72.4,133.5,72.5,132.4,73.5L132.4,73.5z"/>
	<path class="st12" d="M128.6,81.1c0.2,0,1.3,0.3,1.6,0.3c0.6,0,1,0.2,1.7,0.2c0.7,0,2.2,0.1,2.8-0.1c0.8-0.2,1.7-0.7,2.4-1.2
		c0.3-0.2,0.3-0.3,0.5,0.4c0.2,0.7-0.3,0.9-0.9,1.3c-1.6,0.9-4,1-5.7,0.5c-0.4-0.2-1.1-0.2-1.5-0.4c-0.3-0.1-0.8-0.2-1.1-0.4
		c-0.3-0.2-0.9-0.7-1.2-0.7L128.6,81.1z"/>
	<path class="st12" d="M122.3,61.1c2.8-0.9,5.1-1.1,7-1c5.5,0.5,6.8,4.7,5.7,5c-1.6,0.4-6.3,1.5-11.4,3.1
		c-9.6,3.1-19.6,12.3-19.6,12.3c-0.3-4.6,5-11,10.4-15C117.3,63.4,120.3,61.8,122.3,61.1L122.3,61.1z"/>
	<path class="st18" d="M106.4,34.2c-0.8,2.2-3.8,0.5-4.9-0.3c-0.3-0.2-0.5-0.3-0.6-0.4c-3.3-2.1-7.5-5.7-9.4-0.7
		c1-0.5,2.1-0.5,3.2-0.1c3.4,1,7,5.1,9.9,5C106,37.5,106.9,36.3,106.4,34.2L106.4,34.2z"/>
	<path class="st12" d="M80.4,91.2c-1.2,4.7,14.4,8.5,20.8,3c0.6-0.5,1.7-1.6,1.9-2.4h-0.3C96.3,91.8,90.6,101.4,80.4,91.2L80.4,91.2
		z"/>
	<path class="st11" d="M123.2,109.4l-1.3-2.4c-0.3-0.3-1.2-1.5-1.5-1.8l-4.9-11.1l9,12.8L123.2,109.4z"/>
	<path class="st12" d="M88.6,65.6c0.9-1.4,11-13.8,11.8-12.7c0.3,0.5-3.7,7.3-6.2,11.2C91.8,67.7,92,67.9,88.6,65.6L88.6,65.6z"/>
	<path class="st1" d="M115.5,116.8c3.7-2.1,6.5-4.6,7.9-9l-9.9-15.6c-1-1.2-3.2-1-5.1,0c-2.1,1.2-3.9,3.3-3.3,5.8
		C107.7,109.2,109.6,113.6,115.5,116.8L115.5,116.8z"/>
	<path class="st2" d="M170.9,75.7c-0.1-0.4,0.1-0.9,0.5-1c0.4-0.1,0.9,0.1,1,0.5l1.3,3.9L179,78c0.4-0.1,0.9,0.2,1,0.6
		c0.1,0.5-0.2,0.9-0.6,1l-5.1,1.1l2.3,6.8c0.2,0.4-0.1,0.9-0.5,1c-0.4,0.2-0.9-0.1-1-0.5l-2.3-7l-5.9,1.2c-0.4,0.1-0.8-0.2-1-0.6
		c-0.1-0.5,0.2-0.9,0.7-1l5.7-1.2L170.9,75.7z"/>
	<path class="st2" d="M179,140.8c0.4,1.5,0.3,3.1-0.3,4.5c-0.3,0.6-0.7,1.2-1.2,1.7c0,0.7,0,1.4-0.1,2.2c-0.3,3-1.7,6.5-3.6,9.4
		c-2,3.1-4.8,5.6-7.9,6.5c-1.2,0.3-2.4,0.5-3.7,0.3l0,0c-0.2,0-0.3,0-0.3,0c-1.8-0.3-3.3-1.1-4.4-2.5c-0.2-0.2-0.3-0.5-0.5-0.7
		c-0.1,0-0.2,0-0.3,0c-1.8,0-3.6-0.7-5.1-1.7v0c-0.2-0.1-0.4-0.3-0.6-0.5c-1.3-1-2.3-2.4-2.8-3.8l0-0.2c-1.2-0.1-2.3-0.6-3.2-1.2
		l0,0c-1.1-0.8-1.8-1.8-2.3-2.9c-0.5-1.5-0.5-3-0.1-4.6c0.4-1.2,1-2.4,1.8-3.5c0.9-1.4,2.2-2.6,3.3-3.5c0-0.7,0.2-1.3,0.3-1.9
		c0.7-2.1,2-3.6,3.7-4.7c1.5-0.9,3.2-1.4,4.7-1.7l0.2,0c0.3-1,1-2.1,2.5-3c1.7-1.2,3.9-1.2,6.2-0.6l0,0c2,0.6,4.2,1.7,6.2,3.1l0,0
		c1.8,1.2,3.5,2.8,4.8,4.3C177.5,137.5,178.6,139.2,179,140.8L179,140.8z M172.7,142.6c0,0,0,0,0-0.2l0,0c-0.1-0.5-0.7-1.3-1.4-2.2
		c-1-1.1-2.3-2.3-3.7-3.3l0,0c-1.4-1-2.8-1.7-4-2.1l3.4,6.2l-7.7-2.4c-0.4-0.1-1.2-0.2-2,0c-0.8,0.1-1.6,0.3-2.2,0.8
		c-0.4,0.3-0.8,0.6-0.9,1.1c-0.1,0.3-0.1,0.7,0,1.3l0.3,2.6l-2.4,0.9c-0.7,0.3-1.7,1.2-2.5,2.4c-0.4,0.5-0.7,1.1-0.8,1.6
		c0,0.1-0.1,0.2-0.1,0.3c0.1,0,0.2,0,0.3,0c0.4,0,0.9-0.1,1.5-0.3l11.5-4.6l-7.6,9.6c0.1,0.2,0.3,0.5,0.7,0.8c0,0,0.1,0.1,0.2,0.2
		l0,0c0.5,0.3,1.1,0.6,1.6,0.6c0.1,0,0.2,0,0.2,0l7.2-8l-1.5,10.6c0,0.1,0,0,0,0.1l0,0c0,0.2,0,0.3,0,0.4c0,0,0.2,0,0.3,0.1
		c0.1,0,0,0,0,0h0c0.3,0,0.7,0,1.1-0.1c1.6-0.5,3.1-2,4.4-3.9c1.3-2.1,2.3-4.5,2.5-6.5c0.1-0.8,0.1-1.4-0.1-1.9l-0.8-2.6l2.3-1.3
		C172.7,142.7,172.7,142.6,172.7,142.6L172.7,142.6z"/>
	<path class="st19" d="M175.8,141.6c0.4,1.6,0,3-1.8,4.1c1.7,5.6-4.6,17.4-11.4,16.6c-2.1-0.2-3.6-1.8-3.2-4.3
		c-1.5,1.6-4.1,1.2-6-0.2c-2-1.4-3.3-3.7-1.8-5.6c-2.2,0.9-3.9,0.7-4.9,0c-3.7-2.6,1.4-9,4.2-10.1c-0.9-6.4,6.7-7.5,9.4-6.7
		c-0.3-0.5-1.4-2.4,0.4-3.6c1.9-1.3,5.5,0.2,8.7,2.4C172.5,136.5,175.3,139.5,175.8,141.6L175.8,141.6z"/>
	<path class="st20" d="M166.5,161.4c-1.3,0.7-2.6,1-4,0.9c-2-0.2-3.5-1.7-3.3-4l1.5-1C161.2,160,163.6,161.8,166.5,161.4
		L166.5,161.4z M156.9,159.1c-1.2,0-2.5-0.5-3.5-1.2c-2-1.4-3.2-3.6-1.8-5.4l2.3-1.6C153.1,155,154.2,156.8,156.9,159.1L156.9,159.1
		z M149.2,152.9c-1,0.1-1.9-0.2-2.5-0.6c-3.7-2.6,1.4-9,4.2-10.1c-0.9-6.4,6.7-7.5,9.4-6.7c-0.3-0.5-1.4-2.4,0.4-3.6
		c1.8-1.2,4.9-0.1,7.9,1.9c-3.9,0.4-3.5,4.1-0.3,6.4c-0.4-0.2-0.7-0.3-1.1-0.5c-7.2-3.5-11.6-4.6-16.7,3.2c-1.3,1.9-2.3,3.9-2.8,5.6
		C147.1,150.4,147.7,152.3,149.2,152.9L149.2,152.9z"/>
	<path class="st2" d="M149.7,153.1c1.7-0.3,4.2-2.6,5.6-4.9c-0.2,1.9-3.6,5.3-5.5,5.7L149.7,153.1z"/>
	<path class="st2" d="M157.5,159.1c1.5-0.3,4.7-3.4,4.8-5c0.8,2.3-2.8,5.4-4.7,5.8L157.5,159.1z"/>
	<path class="st2" d="M153.9,139.6c-1.5,0.3-4.1,3.9-4.3,5.5C148.3,143.3,151.8,139.1,153.9,139.6L153.9,139.6z"/>
	<path class="st2" d="M162.5,137.2c2.5-1.6,7.8,3.6,8,6.3C169.2,141.7,164.7,137.3,162.5,137.2L162.5,137.2z"/>
	<path class="st4" d="M72.6,190.9c-3-8-7.9-14-15.9-17.4c-6.5-2.8-14.6-1.3-23.2,6.4c20.6,4.5,34.6,14.4,48.8,29.2
		c2.9-4.7,3.8-11.3,3.2-16.8L72.6,190.9z"/>
	<path class="st2" d="M84.7,17.4c5,1.7,8.9,4.3,12.4,6.6c5.6,3.7,10,6.6,17.9,3c-6.8-1.1-12.8-3.5-18.4-5.7
		C92.3,19.6,88.4,18.1,84.7,17.4L84.7,17.4z M94.4,28.1c-5.5-3.6-12.1-8-23.4-8h-7.5l6.1-4.5c9.1-6.6,18.1-3.1,28.7,1
		c7.2,2.8,15.2,6,24.3,6l7.5,0l-6,4.4C109.3,37.9,102.9,33.7,94.4,28.1L94.4,28.1z"/>
	<path class="st4" d="M71,17.7c28,0,28.1,24.6,51.6,7.5C100.3,25.1,85,7.5,71,17.7L71,17.7z"/>
	<path class="st2" d="M61.7,187.8c6.6,3.7,12.2,7.6,16,11.1c4.5,4.1,6.6,7.9,5.2,10.5c-1.4,2.6-5.7,2.8-11.5,1.1
		c-4.9-1.4-11.2-4.2-17.8-7.8l0,0c-6.6-3.7-12.2-7.6-16-11.1c-4.5-4.1-6.6-7.9-5.2-10.5c1.4-2.6,5.7-2.8,11.5-1.1
		C48.8,181.4,55.1,184.1,61.7,187.8L61.7,187.8z M74.7,202.3c-3.6-3.2-8.9-6.9-15.2-10.5c-6.3-3.5-12.2-6.1-16.9-7.4
		c-3.7-1.1-6.1-1.5-6.3-1.1c-0.2,0.4,1.4,2.2,4.3,4.8c3.5,3.3,8.9,7,15.2,10.5h0c6.2,3.5,12.2,6.1,16.9,7.4c3.7,1,6.1,1.5,6.3,1.1
		C79.2,206.7,77.5,204.9,74.7,202.3L74.7,202.3z"/>
	<path class="st1" d="M60.6,189.8c12.9,7.2,22,15.4,20.3,18.4c-1.6,3-13.4-0.4-26.2-7.6c-12.9-7.2-22-15.4-20.4-18.4
		C36,179.2,47.7,182.6,60.6,189.8L60.6,189.8z"/>
	<path class="st12" d="M151.5,113.4c-3.3,5.4-11.4,8.3-19.3,8.2c-1,0-2.2-0.4-2.2-1.2c0-1.4,1.5-1.4,3-1.4
		C139,118.9,147.1,117.7,151.5,113.4L151.5,113.4z"/>
	<path class="st2" d="M161.7,141.2c-0.1-0.4,0.2-0.9,0.6-1c0.4-0.1,0.9,0.2,1,0.7l0.9,4l4.2-0.5c0.4,0,0.8,0.3,0.9,0.7
		c0,0.5-0.3,0.9-0.7,0.9l-4,0.4l1.5,7.1c0.1,0.4-0.2,0.9-0.6,1c-0.4,0.1-0.8-0.2-1-0.7l-1.5-7.2l-6,0.6c-0.5,0-0.8-0.3-0.9-0.7
		c0-0.4,0.3-0.8,0.7-0.9l5.8-0.5L161.7,141.2z"/>
</g>
<g>
	<path d="M129.9,113.6c0.3,0,0.6,0,0.8,0c0.5,0,0.8,0.2,0.8,0.5c0,0.2,0,0.4-0.1,0.6c-0.1,0.2-0.2,0.5-0.4,0.7
		c-0.2,0.1-0.4,0.3-0.6,0.4c-0.1,0.1-0.4,0.1-0.8,0.2c-0.1,0.7-0.1,1.3,0.1,1.6c0.1,0.1,0.2,0.2,0.4,0.3c0.3,0.1,0.5,0.1,0.7-0.1
		c0.1,0,0.1-0.2,0.2-0.3c0.1-0.2,0.2-0.3,0.3-0.3c0.3,0,0.4,0.1,0.3,0.3c0,0.3-0.2,0.6-0.6,0.8c-0.4,0.2-0.8,0.3-1.2,0.2
		c-0.3,0-0.6-0.2-0.8-0.5c-0.2-0.3-0.3-0.9-0.3-1.6c0-0.2,0-0.3,0-0.3c0-0.1-0.1-0.1-0.3-0.1c-0.1,0.1-0.3,0.3-0.4,0.6
		c0,0.1-0.1,0.2-0.2,0.3c-0.1,0.2-0.1,0.3-0.1,0.3c0,0,0.2,0.1,0.5,0.2c0.2,0.1,0.3,0.2,0.1,0.3c-0.1,0.1-0.3,0.2-0.5,0.1
		c-0.1,0-0.1,0-0.3-0.1c-0.1,0-0.2-0.1-0.3-0.1c-0.1,0-0.4,0-1,0c-0.4,0-0.6-0.1-0.6-0.2c0.1-0.1,0.3-0.2,0.6-0.3
		c0.4,0,0.6-0.1,0.7-0.1c0.2-0.4,0.5-0.8,0.7-1.1c-0.2,0-0.3-0.1-0.4-0.1c-0.1-0.1-0.1-0.1,0-0.2c0-0.1,0.1-0.1,0.2-0.2
		c0.1-0.1,0.3-0.1,0.5,0c0.1-0.1,0.3-0.3,0.4-0.6c0.2-0.4,0.3-0.6,0.4-0.6c0-0.1-0.1-0.1-0.2-0.1c-0.2,0-0.2,0-0.3,0
		c-0.1,0-0.3-0.1-0.3-0.2c-0.1-0.1-0.1-0.2,0-0.3c0.1-0.2,0.3-0.2,0.4-0.2c0.1,0,0.2,0.1,0.2,0.2
		C129.2,113.6,129.5,113.6,129.9,113.6z M130.5,114.1c-0.3,0-0.5,0-0.8,0c-0.2,0.2-0.4,0.6-0.8,1.3c0.2,0.1,0.5,0.1,0.7,0.1
		c0.3,0,0.5-0.1,0.7-0.2c0.2-0.1,0.4-0.3,0.5-0.4c0.1-0.2,0.1-0.4,0.1-0.5C131,114.2,130.8,114.1,130.5,114.1z"/>
	<path d="M136.1,114.9c0.5-0.3,0.7-0.4,0.7-0.4c0.4-0.2,0.6-0.1,0.6,0.1c0,0.1-0.1,0.2-0.2,0.3c-0.1,0-0.2,0.1-0.3,0.2
		c-0.2,0.1-0.3,0.1-0.4,0.2c-0.1,0.1-0.2,0.1-0.2,0.2c0.1,0.6,0.3,1,0.6,1.4c0,0,0.1,0,0.3,0c0.1,0,0.2,0,0.3,0
		c0.2,0,0.3,0.1,0.3,0.3c0,0.1-0.1,0.1-0.2,0.2c-0.1,0-0.2,0-0.4,0c-0.5,0-0.8,0-0.9,0.1c-0.6,0.1-0.9,0.2-0.8,0.2
		c-0.1-0.1-0.1-0.3,0.1-0.4c0.2-0.1,0.4-0.2,0.6-0.3c-0.1-0.5-0.2-0.8-0.4-1.1c-0.1,0-0.3,0.1-0.4,0.3c-0.1,0.2-0.2,0.3-0.4,0.3
		c-0.1,0-0.2,0-0.3-0.2c-0.1-0.2-0.2-0.2-0.3-0.2c-0.3,0.4-0.5,0.8-0.7,1.2c0.3,0.1,0.5,0.1,0.5,0.2c0.2,0.1,0.2,0.2,0,0.4
		c0.1,0-0.2,0-0.8-0.1c-0.2,0-0.4,0-0.8,0.1c-0.4,0.1-0.6,0.1-0.7,0.1c0-0.1,0-0.2,0-0.3c0.1-0.1,0.2-0.1,0.3-0.2c0,0,0.2,0,0.4-0.1
		c0.2,0,0.3-0.1,0.3-0.1c0.1-0.1,0.2-0.2,0.3-0.3c0,0,0.1-0.1,0.1-0.2c0-0.1,0.1-0.2,0.1-0.2c0,0,0.1-0.1,0.1-0.2
		c0.1-0.1,0.1-0.2,0.2-0.2c0.1-0.2,0.2-0.3,0.2-0.4c0-0.1-0.1-0.1-0.2-0.2c-0.1,0-0.2,0-0.3-0.1c-0.2,0-0.3,0-0.3-0.1
		c-0.1,0-0.1-0.1-0.1-0.2c0-0.2,0.2-0.3,0.6-0.3c0.3,0,0.5,0.1,0.7,0.2c0.1-0.1,0.3-0.4,0.4-0.6c0,0,0.1-0.3,0.3-0.7
		c0,0-0.2-0.1-0.3-0.1c-0.1,0-0.2-0.1-0.2-0.2c0-0.2,0.1-0.3,0.3-0.3c0.1,0,0.1,0,0.2,0c0.1,0,0.2,0.1,0.4,0.2c0.7-0.3,1-0.5,1-0.3
		c0,0.1,0,0.3-0.2,0.4c0,0-0.1,0.1-0.2,0.1c-0.1,0-0.2,0.1-0.2,0.1C135.8,114.3,135.9,114.7,136.1,114.9z M134.9,114.9
		c-0.1,0.3-0.2,0.5-0.2,0.5c0,0.1,0,0.2,0.1,0.2c0.1,0.1,0.2,0.1,0.2,0.1c0.1,0,0.2-0.1,0.3-0.2c0.1-0.1,0.2-0.2,0.2-0.3
		c0-0.1,0-0.3-0.1-0.5c-0.1-0.2-0.1-0.4-0.1-0.4c0,0,0,0,0,0c0,0,0,0,0,0C135.2,114.4,135.1,114.6,134.9,114.9z"/>
	<path d="M139.1,114.4c0,0,0.2,0,0.4-0.1c0.2,0,0.3,0,0.3,0c0,0,0.1,0.1,0.1,0.3c0,0.1-0.1,0.1-0.3,0.2c-0.2,0.1-0.3,0.1-0.4,0.2
		c0,0.4,0.1,0.9,0.2,1.3c0.1,0,0.3,0.1,0.5,0c0.1,0,0.2,0,0.2,0c0.1,0,0.1,0.1,0.1,0.2c0,0.1,0,0.2-0.1,0.3c-0.1,0-0.2,0.1-0.4,0.1
		c-0.6,0.1-0.9,0.1-1,0.1c-0.1,0-0.2,0.1-0.3,0.1c-0.2,0.1-0.2,0.1-0.3,0.1c-0.2,0.1-0.3,0.1-0.4-0.1c-0.1-0.2,0-0.3,0.3-0.4
		c0,0,0.1-0.1,0.3-0.1c0.1-0.1,0.2-0.1,0.3-0.1c0-0.2,0-0.4,0-0.6c0-0.4-0.1-0.6-0.1-0.7c-0.1,0-0.2,0-0.4,0c-0.2,0.1-0.3,0.1-0.4,0
		c-0.1-0.1-0.1-0.2,0-0.4c0-0.1,0.1-0.1,0.3-0.1c0.2,0,0.3-0.1,0.4-0.1c0-0.2,0-0.7-0.1-1.3c0,0-0.1,0-0.2,0c-0.2,0-0.2,0-0.3,0
		c-0.1,0-0.2-0.1-0.2-0.1c0-0.1,0-0.2,0-0.3c0.1-0.1,0.2-0.1,0.5-0.1c0.3,0,0.5,0,0.6-0.1c0,0,0.1-0.1,0.2-0.1
		c0.1-0.1,0.2-0.1,0.2-0.1c0.2-0.1,0.3-0.1,0.3,0.1c0,0.2,0,0.3-0.2,0.4c-0.3,0.2-0.4,0.3-0.4,0.3C139,113.5,139,113.9,139.1,114.4z
		"/>
	<path d="M141.6,112.1c-0.2,0-0.3,0-0.5,0.1c-0.2,0.1-0.3,0.2-0.3,0.3c-0.1,0.2-0.1,0.4,0,0.6c0,0.1,0.1,0.2,0.2,0.3
		c0.1,0.1,0.4,0.2,0.6,0.2c0.1,0,0.2,0,0.4,0c0.2,0,0.3,0,0.4,0c0.3,0,0.5,0.1,0.7,0.2c0.2,0.1,0.4,0.3,0.6,0.5
		c0.1,0.1,0.1,0.2,0.1,0.4c0,0.2,0,0.4,0,0.5c-0.1,0.4-0.5,0.7-1.1,0.8c-0.5,0.1-1,0.1-1.5,0c0,0,0,0.1-0.1,0.2
		c-0.1,0.1-0.2,0.2-0.2,0.2c-0.2,0.2-0.4,0.2-0.4,0c-0.1-0.1,0-0.3,0.1-0.5c0-0.1,0.1-0.1,0.2-0.3c0.1-0.1,0.1-0.2,0.1-0.2
		c0.1-0.3,0.2-0.4,0.3-0.5c0.1-0.2,0.2-0.3,0.4-0.3c0.1,0.1,0.2,0.2,0.2,0.4c0,0.1-0.1,0.2-0.1,0.4c0.3,0.1,0.5,0.1,0.8,0.1
		c0.4,0,0.6-0.1,0.8-0.3c0.1-0.1,0.1-0.2,0.1-0.4c0-0.2,0-0.3-0.1-0.4c-0.1-0.1-0.2-0.2-0.5-0.3c0,0-0.4,0-1.2-0.1
		c-0.5-0.1-0.8-0.2-1-0.4c-0.3-0.3-0.3-0.7-0.2-1.2c0-0.2,0.1-0.4,0.2-0.5c0.1-0.1,0.2-0.3,0.4-0.3c0.1,0,0.2-0.1,0.4-0.1
		c0.2,0,0.3,0,0.4,0c0,0,0.1,0,0.2,0.1c0.1,0,0.2,0.1,0.2,0c0,0,0.1-0.1,0.2-0.4c0.1-0.2,0.2-0.2,0.3-0.1c0.1,0.1,0.1,0.3,0.1,0.5
		c0,0.1,0,0.2-0.1,0.3c0,0.1-0.1,0.2-0.1,0.2c-0.1,0.4-0.2,0.6-0.2,0.6c-0.1,0.3-0.3,0.3-0.4,0.1c-0.1-0.1-0.1-0.2,0-0.3
		c0.1-0.2,0.1-0.3,0.1-0.3C141.9,112.2,141.7,112.1,141.6,112.1z"/>
	<path d="M145.6,110.4c0.1,0.2,0.2,0.3,0.2,0.4c0,0.1,0,0.2-0.1,0.2c-0.1,0-0.2,0-0.3-0.2c-0.2-0.2-0.3-0.4-0.3-0.4
		c-0.1,0-0.3,0.1-0.5,0.2c-0.2,0.1-0.3,0.2-0.4,0.4c0,0.1,0.1,0.2,0.1,0.3c0.1,0.2,0.1,0.3,0.2,0.4c0.1,0.3,0.3,0.4,0.4,0.5
		c0-0.1,0-0.1,0-0.2c0,0,0-0.1-0.1-0.2c0-0.1-0.1-0.1-0.1-0.2c0-0.1,0-0.1,0.1-0.2c0.1-0.1,0.3,0,0.4,0.2c0,0,0.1,0.2,0.4,0.6
		c0.2,0.3,0.3,0.6,0.4,0.6c0.1,0.2,0,0.3-0.1,0.4c-0.1,0-0.1,0-0.2,0c0,0-0.1-0.1-0.1-0.2c-0.1-0.2-0.2-0.3-0.3-0.3
		c-0.1,0.1-0.1,0.2,0,0.3c0,0,0.1,0.1,0.1,0.2c0,0.1,0.1,0.1,0.1,0.1c0.1,0.2,0.2,0.4,0.3,0.6c0.1,0.1,0.3,0.1,0.6,0.1
		c0.3,0,0.6-0.1,0.7-0.2c0.1-0.1,0.2-0.2,0.2-0.3c0-0.2,0-0.3-0.1-0.4c-0.1-0.1-0.2-0.2-0.4-0.2c-0.1,0-0.2,0-0.2,0
		c-0.1,0-0.1-0.1-0.2-0.2c-0.1-0.1,0-0.2,0.1-0.3c0.1-0.1,0.2-0.1,0.3-0.1c0.2,0,0.4,0.1,0.6,0.2c0.2,0.1,0.3,0.3,0.4,0.5
		c0.1,0.2,0.1,0.4,0.1,0.6c0,0.2-0.1,0.4-0.2,0.5c-0.1,0.1-0.3,0.2-0.5,0.3c-0.1,0-0.3,0.1-0.6,0.1c-0.2,0-0.4,0-0.5,0
		c-0.2,0-0.3,0.1-0.5,0.2c0,0-0.1,0.1-0.1,0.2c-0.1,0.1-0.1,0.2-0.2,0.2c-0.2,0.2-0.3,0.2-0.4,0c-0.1-0.1-0.1-0.3,0.1-0.5
		c0,0,0.1-0.1,0.2-0.2c0.1-0.1,0.1-0.2,0.1-0.2c-0.1-0.4-0.4-0.8-0.6-1.2c-0.1,0-0.2,0-0.5,0.1c-0.2,0.1-0.3,0.1-0.4,0
		c-0.1-0.1-0.1-0.3,0.1-0.4c0.1-0.1,0.2-0.2,0.5-0.3c0-0.2-0.2-0.6-0.6-1.1c-0.1,0-0.1,0.1-0.1,0.2c0,0,0,0.1,0,0.2
		c0,0.1,0,0.2-0.1,0.2c0,0.1-0.1,0.1-0.2,0.1c-0.1,0-0.2-0.1-0.2-0.2c0-0.1,0-0.2,0-0.3c0-0.1,0.1-0.2,0.2-0.4
		c0.1-0.2,0.2-0.3,0.2-0.3c0.2-0.2,0.5-0.3,0.8-0.5c0.4-0.2,0.7-0.3,0.8-0.4C145.2,109.8,145.4,110.1,145.6,110.4z"/>
	<path d="M147.8,112.3c0.1,0,0.2,0,0.3,0c0.4,0.1,0.6,0.1,0.6,0.1c0-0.1-0.1-0.3-0.3-0.5c0,0-0.2-0.2-0.4-0.4
		c-0.3,0.1-0.4,0.2-0.5,0.2c-0.2,0-0.3-0.1-0.4-0.3c0-0.1,0-0.2,0.2-0.2c0.2-0.1,0.3-0.2,0.3-0.2c0-0.1-0.1-0.3-0.4-0.6
		c0-0.1-0.2-0.2-0.5-0.6c-0.1,0.1-0.1,0.2-0.1,0.4c0,0.1,0,0.2,0,0.2c0,0.1-0.1,0.1-0.1,0.1c-0.1,0-0.3,0-0.3-0.2
		c-0.1-0.1-0.1-0.3-0.1-0.4c0-0.6,0.2-1,0.5-1.3c0.2-0.2,0.5-0.3,0.8-0.4c0.3,0,0.6,0,1,0c0.4,0.1,0.7,0.2,1.1,0.4
		c0.4,0.2,0.7,0.4,1,0.7c0.5,0.5,0.8,1,0.8,1.6c0,0.6-0.3,1.1-0.9,1.5c-0.5,0.3-1,0.4-1.5,0.4c-0.2,0-0.4,0-0.6-0.1
		c-0.2-0.1-0.4-0.2-0.5-0.4C147.7,112.4,147.8,112.3,147.8,112.3z M147.6,108.9c-0.3,0.1-0.5,0.2-0.6,0.4c0.1,0.2,0.5,0.7,1.1,1.3
		c0.1,0,0.1,0,0.3-0.1c0.1,0,0.2-0.1,0.2-0.1c0.2,0,0.3,0,0.4,0.2c0.1,0.1,0,0.2-0.1,0.3c0,0-0.1,0.1-0.2,0.1
		c-0.1,0.1-0.1,0.1-0.2,0.1c0.3,0.4,0.6,0.8,1,1.1c0.5-0.2,0.8-0.4,0.9-0.8c0.1-0.3,0.1-0.7-0.1-1.1c-0.2-0.4-0.4-0.7-0.8-1
		c-0.4-0.3-0.8-0.5-1.2-0.6C148.2,108.8,147.9,108.8,147.6,108.9z"/>
	<path d="M154.4,105.5c0.2,0,0.3-0.1,0.4-0.1c0.3,0,0.6,0,1,0.2c0.3,0.1,0.6,0.3,0.9,0.5c0.3,0.2,0.4,0.4,0.5,0.7
		c0.1,0.3,0,0.5-0.1,0.7c-0.4,0.4-0.9,0.8-1.3,1.2c0,0-0.1,0.1-0.3,0.3c-0.2,0.1-0.3,0.3-0.4,0.3c-0.3,0.2-0.6,0.3-0.7,0.1
		c-0.1-0.1-0.1-0.2,0-0.3c0,0,0.1-0.1,0.2-0.2c0.1-0.1,0.2-0.1,0.2-0.2c-0.1-0.2-0.4-0.4-0.7-0.6c-0.5-0.3-0.8-0.5-0.9-0.6
		c-0.1,0-0.2,0.1-0.4,0.2c-0.2,0.1-0.3,0.1-0.4,0.1c-0.1-0.1-0.1-0.1-0.2-0.2c0-0.1,0-0.1,0-0.2c0,0,0-0.1,0.1-0.1
		c0-0.1,0.1-0.1,0.1-0.1c-0.2-0.2-0.6-0.5-1.1-0.8c-0.1,0-0.3,0.1-0.4,0.2c-0.2,0.1-0.3,0.2-0.4,0.2c-0.3,0.1-0.6,0-0.9-0.3
		c0-0.1,0.1-0.2,0.2-0.2c0.3,0,0.4,0,0.5,0c0.1,0,0.4-0.3,0.9-0.9c0.3-0.4,0.7-0.6,1.1-0.6c0.3,0,0.6,0,1,0.2
		c0.4,0.1,0.7,0.4,0.9,0.6C154.1,105.6,154.3,105.6,154.4,105.5z M154.7,106c-0.3,0.1-0.6,0.2-0.8,0.4c-0.3,0.3-0.5,0.5-0.6,0.7
		c0.5,0.4,1.1,0.8,1.8,1.1c0.6-0.4,1-0.8,1.2-1.2c0.2-0.5-0.1-0.8-0.7-1C155.3,106,155,106,154.7,106z M152,105.4
		c-0.2,0.1-0.4,0.3-0.5,0.6c0.1,0.2,0.5,0.4,1.2,0.8c0.4-0.2,0.7-0.5,0.7-0.7c0.1-0.3-0.2-0.6-0.7-0.7
		C152.5,105.2,152.2,105.2,152,105.4z"/>
	<path d="M155.8,102.8c-0.1-0.3-0.4-0.7-0.9-1.2c-0.1,0-0.1,0-0.2,0.1c-0.1,0-0.2,0.1-0.2,0.1c-0.2,0-0.4,0-0.6-0.1
		c0-0.1,0-0.2,0.3-0.4c0.3-0.2,0.4-0.4,0.5-0.6c0,0,0-0.1,0-0.2c0-0.1,0-0.2,0-0.2c0-0.1,0.2-0.2,0.4-0.2c0.3,0.1,0.4,0.2,0.4,0.4
		c0,0,0,0.1-0.1,0.3c0,0.1,0,0.2,0,0.2c0,0.1,0.1,0.3,0.3,0.4c0,0,0.1,0.1,0.3,0.2c0.1,0.1,0.2,0.2,0.2,0.2c0,0,0.1,0.1,0.2,0.3
		c0.1,0.1,0.2,0.2,0.3,0.3c0,0,0.1-0.1,0.3-0.2c0.1-0.1,0.2-0.1,0.4-0.1c0.2,0,0.3,0.1,0.3,0.3c0,0.1-0.1,0.3-0.3,0.4
		c0.3,0.2,0.9,0.4,1.9,0.7c0.1,0,0.2-0.1,0.4-0.2c0.2-0.1,0.3-0.2,0.4-0.2c0.2-0.1,0.3-0.1,0.4-0.1c0.1,0,0.3,0.1,0.4,0.2
		c0,0.1-0.2,0.2-0.5,0.5c-0.3,0.2-0.5,0.4-0.6,0.6c0,0.1-0.1,0.1-0.1,0.3c0,0.1-0.1,0.2-0.1,0.2c0,0.1-0.1,0.1-0.2,0.1
		c-0.1,0-0.2,0-0.3,0c-0.2-0.1-0.3-0.2-0.2-0.4c0.1-0.3,0.1-0.5,0.1-0.5c-0.6-0.3-1.2-0.5-1.8-0.7c0,0-0.1,0.1-0.3,0.3
		c-0.1,0.1-0.2,0.2-0.3,0.2c-0.3,0-0.4-0.1-0.4-0.2c0-0.1,0-0.2,0.1-0.4c-0.2,0-0.4,0-0.6,0c0,0-0.1,0-0.3,0c-0.1,0-0.2,0-0.3,0
		c-0.1,0-0.2,0-0.3,0c-0.2,0-0.3,0-0.3,0c-0.3,0-0.5,0-0.6,0.1c-0.1,0-0.1,0.1-0.3,0.2c-0.1,0.1-0.2,0.2-0.3,0.2
		c-0.2,0.1-0.5,0.1-0.7-0.1c0-0.1,0.1-0.2,0.3-0.4c0.3-0.2,0.4-0.4,0.5-0.5c0,0,0-0.1,0-0.2c0-0.1,0-0.2,0-0.2
		c0-0.1,0.2-0.2,0.4-0.1c0.2,0.1,0.3,0.1,0.3,0.2c0,0,0,0.1,0,0.1c0,0.1,0,0.1,0,0.2C154.2,102.9,154.8,102.9,155.8,102.8z"/>
</g>
<g>
	<path d="M182,106.6c-0.9,1.1-1.5,1.6-1.6,1.8c1.2-0.5,2.3-1,3.2-1.5c0,0,0.1-0.2,0.2-0.5c0.1-0.2,0.2-0.4,0.3-0.5
		c0.2-0.1,0.3-0.1,0.3,0.1c0,0.1,0,0.2,0,0.3c0,0.1,0,0.2,0,0.3c0,0.1,0.1,0.4,0.2,0.9c0,0.2,0.1,0.3,0,0.4c0,0.1-0.1,0.2-0.3,0.3
		c-0.1,0.1-0.3,0.1-0.3-0.1c-0.1-0.2-0.2-0.3-0.2-0.3c-0.1-0.1-0.2,0-0.4,0c-0.1,0-0.2,0.1-0.3,0.1c-0.2,0.1-0.2,0.1-0.3,0.1
		c-0.2,0.1-0.7,0.2-1.6,0.6c-0.7,0.3-1.2,0.6-1.6,0.8c-0.1,0.3-0.2,0.5-0.2,0.6c-0.1,0.2-0.3,0.4-0.6,0.4c-0.1,0-0.1-0.1,0-0.2
		c0.1-0.2,0.1-0.3,0.1-0.3c0-0.1-0.1-0.3-0.2-0.4c-0.2-0.2-0.3-0.3-0.3-0.3c0.2-0.4,0.6-0.6,1-0.4c1.3-1.4,2.4-2.6,3.2-3.8
		c-0.2,0-0.5,0.2-0.9,0.4c-0.1,0.1-0.3,0.2-0.5,0.3c-0.2,0.1-0.4,0.2-0.5,0.3c-1,0.6-1.6,1.1-1.9,1.3c-0.1,0.3-0.1,0.6-0.2,0.7
		c-0.1,0.3-0.3,0.4-0.6,0.5c0,0-0.1-0.2-0.1-0.4c0-0.3,0-0.4-0.1-0.5c0,0-0.1-0.1-0.2-0.1c-0.1,0-0.2,0-0.2-0.1
		c-0.1-0.1-0.1-0.2,0.1-0.5c0.2-0.2,0.3-0.3,0.5-0.3c0.2,0,0.3,0,0.4,0c0.8-1,1.8-2.4,3-4.4c0,0,0.1-0.1,0.3-0.4
		c0.1-0.2,0.2-0.3,0.2-0.4c0,0,0-0.2,0-0.8c0-0.2,0-0.3,0.1-0.4c0.1-0.1,0.2-0.3,0.3-0.3c0.1-0.1,0.3,0.1,0.3,0.4
		c0.1,0.5,0.1,0.8,0.2,0.9c0,0.1,0.1,0.1,0.2,0.2c0.1,0.1,0.1,0.1,0.1,0.2c0.1,0.1,0.1,0.3-0.1,0.5c-0.2,0.3-0.3,0.3-0.5,0.3
		c-0.2-0.1-0.4-0.1-0.4-0.1c-0.7,0.9-1.5,2.2-2.7,3.8c0.2-0.1,0.5-0.3,0.9-0.5c0.1-0.1,0.3-0.2,0.5-0.3c0.2-0.1,0.4-0.2,0.5-0.3
		c0.9-0.5,1.5-0.9,1.9-1.2c0-0.1,0-0.2,0.1-0.4c0-0.2,0-0.3,0.1-0.4c0.1-0.3,0.2-0.5,0.5-0.7c0.1,0,0.2,0.2,0.2,0.6
		c0,0.5,0.1,0.8,0.1,1c0,0,0.1,0.1,0.1,0.2c0.1,0.1,0.1,0.2,0.1,0.2c0.1,0.2,0,0.4-0.2,0.6c-0.2,0.1-0.3,0.2-0.4,0.1
		c0,0-0.1-0.1-0.2-0.2c-0.1-0.1-0.1-0.1-0.2-0.1C183.4,105,182.8,105.7,182,106.6z"/>
	<path d="M184,113.2c-0.6,0.5-1.3,0.8-2.1,0.9c-0.4,0.1-0.7,0.1-1,0c-0.3,0-0.6-0.1-0.8-0.2c-0.3-0.1-0.5-0.3-0.5-0.4
		c-0.2-0.4-0.1-0.8,0.3-1.3c0.3-0.4,0.8-0.8,1.4-1.4c0-0.1,0-0.2,0-0.3c0-0.1,0-0.3,0.1-0.3c0.2-0.1,0.3-0.2,0.4-0.3
		c0.1,0,0.2,0,0.2,0.2c0,0.1,0,0.2,0.1,0.4c0.1,0,0.2,0,0.4-0.1c0.3-0.1,0.4-0.2,0.4-0.2c0.5-0.2,1.1-0.3,1.6-0.1
		c0.5,0.1,0.8,0.4,0.9,0.7c0,0.1,0,0.2-0.1,0.3c0,0-0.1,0.1-0.1,0.1c-0.1,0.1-0.1,0.1-0.1,0.1C184.8,112,184.6,112.6,184,113.2z
		 M182,111.2c0,0.1,0,0.2,0,0.3c0,0.2-0.1,0.3-0.3,0.4c-0.1,0-0.2,0-0.3-0.1c0,0,0-0.1-0.1-0.2c0-0.1-0.1-0.1-0.1-0.2
		c-0.4,0.3-0.7,0.6-0.9,0.9c-0.2,0.3-0.3,0.5-0.3,0.8c0.1,0.3,0.3,0.5,0.8,0.6c0.5,0.1,1,0.1,1.5-0.1c0.4-0.1,0.8-0.3,1.1-0.6
		c0.4-0.3,0.6-0.7,0.7-0.9c0-0.1,0-0.2-0.1-0.3c-0.1-0.1-0.2-0.1-0.3-0.1c-0.3,0-0.5,0.1-0.8,0.4c0,0-0.1,0.1-0.2,0.3
		c-0.1,0.1-0.1,0.2-0.2,0.2c-0.1,0-0.2,0.1-0.3,0c-0.1,0-0.1,0-0.1-0.1c-0.1-0.1,0-0.3,0.1-0.5c0.1-0.2,0.3-0.3,0.5-0.5
		c0.2-0.2,0.4-0.3,0.7-0.4c0.3-0.1,0.5-0.2,0.7-0.2c0,0,0,0,0-0.1c-0.4-0.3-1.1-0.3-2.1,0.1C182,111,182,111.1,182,111.2z"/>
	<path d="M183.3,115.4c-0.4,0-0.6,0.1-0.8,0.2c0,0,0,0.1,0,0.2c0,0.1,0,0.2,0,0.2c0,0.2-0.1,0.3-0.3,0.3c-0.1,0-0.2,0-0.3-0.2
		c0-0.1,0-0.3,0-0.5c-0.1-0.1-0.4-0.1-0.8,0c0,0-0.3,0-0.8,0.1c-0.2,0.3-0.3,0.6-0.4,0.8c-0.1,0.3,0,0.5,0.3,0.6
		c0.1,0,0.3,0,0.7-0.1c0.1,0,0.2,0,0.3,0c0.1,0,0.1,0.1,0.1,0.2c0,0.2-0.1,0.3-0.4,0.3c-0.3,0-0.5,0-0.8,0c-0.3-0.1-0.5-0.2-0.6-0.4
		c-0.1-0.2-0.1-0.4-0.1-0.7c0-0.1,0.1-0.2,0.2-0.5c0.1-0.2,0.1-0.3,0.1-0.5c0,0,0-0.1-0.1-0.3c-0.1-0.1,0-0.2,0-0.4
		c0.2-0.1,0.4-0.1,0.5,0.1c0,0,0.1,0.2,0.2,0.5c0.5,0,1.1,0,1.7-0.2c0-0.3,0-0.5,0.1-0.6c0.1-0.2,0.3-0.3,0.5-0.2c0,0.1,0,0.2,0,0.3
		c0,0.2,0,0.3,0,0.3c0.1,0.1,0.4,0.1,0.7,0.1c0.1,0,0.3,0,0.5-0.1c0.2,0,0.3-0.1,0.4-0.1c0,0,0.1-0.2,0.3-0.7
		c0.1-0.3,0.2-0.4,0.4-0.4c0.1,0,0.2,0,0.2,0.1c0,0.1,0,0.2,0,0.4c0,0-0.1,0.2-0.1,0.4c-0.1,0.2-0.1,0.3-0.1,0.4c0,0.1,0,0.4,0,0.9
		c0,0.1,0,0.2,0,0.3c0,0.1-0.1,0.1-0.2,0.2c-0.2,0-0.3-0.1-0.3-0.3c0,0,0-0.2,0-0.3c0-0.1,0-0.2-0.1-0.3
		C183.8,115.4,183.6,115.4,183.3,115.4z"/>
	<path d="M180.2,120c0.1,0.1,0.5,0.4,1.1,1c0.7,0.6,1.1,1,1.1,1c0.1,0,0.1-0.1,0.2-0.2c0.1-0.1,0.2-0.2,0.2-0.2
		c0.2-0.2,0.3-0.2,0.5,0c0,0.1-0.1,0.4-0.3,0.6c-0.2,0.3-0.3,0.6-0.4,0.8c0,0.1,0,0.2-0.1,0.3c0,0.1,0,0.2-0.1,0.3
		c-0.1,0.2-0.2,0.3-0.3,0.2c-0.1,0-0.2-0.2-0.1-0.5c0-0.1,0-0.2,0.1-0.4c0-0.2,0.1-0.3,0.1-0.3c0,0-0.6-0.9-2.2-2.2
		c-0.2-0.2-0.3-0.3-0.4-0.3c-0.1,0-0.1,0-0.2,0.1c0,0,0,0.1-0.1,0.2c-0.1,0.1-0.1,0.1-0.2,0.1c-0.1,0-0.2,0-0.3-0.1
		c0-0.1,0-0.3,0.1-0.5c0.1-0.3,0.2-0.5,0.2-0.6c0,0,0-0.1,0-0.2c0-0.1,0-0.2,0-0.2c0-0.1,0-0.2,0.2-0.2c0.2,0,0.3,0.1,0.3,0.3
		c0,0,0,0.1,0,0.2c0,0.1,0,0.2,0,0.2c0.8,0,2-0.2,3.6-0.6c0.1-0.1,0.2-0.3,0.3-0.6c0.1-0.2,0.2-0.4,0.4-0.4c0.1,0,0.1,0,0.2,0
		c0.1,0,0.1,0.1,0.1,0.2c0,0-0.1,0.2-0.3,0.6c-0.1,0.3-0.2,0.6-0.3,0.8c0,0.1,0,0.2,0,0.3c0,0.1,0,0.2,0,0.3c0,0.2-0.1,0.3-0.3,0.3
		c-0.2,0-0.2-0.1-0.3-0.3c0,0,0-0.1,0-0.3c0-0.1,0-0.2,0-0.2C182.3,119.7,181.3,119.9,180.2,120z"/>
	<path d="M179.8,127c-0.1-0.1-0.2-0.2-0.2-0.3c0-0.1,0-0.2,0.1-0.3c0.1-0.1,0.2-0.1,0.3,0c0.2,0.2,0.3,0.3,0.3,0.3
		c0.1-0.1,0.3-0.3,0.4-0.6c0.2-0.3,0.2-0.5,0.2-0.7c0,0-0.1-0.1-0.2-0.2c-0.1-0.1-0.2-0.2-0.3-0.2c-0.2-0.2-0.4-0.2-0.5-0.2
		c0,0.1,0,0.2,0.1,0.2c0,0,0.1,0.1,0.1,0.2c0.1,0.1,0.1,0.1,0.1,0.2c0,0.1,0,0.1,0,0.2c-0.1,0.2-0.2,0.2-0.4,0.1
		c0,0-0.2-0.2-0.5-0.4c-0.3-0.2-0.4-0.4-0.5-0.4c-0.1-0.2-0.1-0.3-0.1-0.4c0-0.1,0.1-0.1,0.1-0.1c0,0,0.1,0,0.1,0.1
		c0.2,0.1,0.3,0.1,0.3,0.1c0-0.1,0-0.2-0.1-0.3c0,0-0.1-0.1-0.1-0.1c-0.1,0-0.1-0.1-0.1-0.1c-0.2-0.1-0.3-0.3-0.5-0.4
		c-0.1,0-0.2,0-0.4,0.2c-0.2,0.2-0.3,0.3-0.3,0.5c0,0.1,0,0.2,0,0.4c0,0.1,0.1,0.3,0.2,0.3c0.1,0.1,0.2,0.1,0.3,0
		c0.1,0,0.1-0.1,0.1-0.1c0.1,0,0.1,0,0.1,0.1c0.1,0.1,0.1,0.2,0,0.3c0,0.1-0.1,0.2-0.2,0.3c-0.1,0.1-0.3,0.1-0.4,0
		c-0.1-0.1-0.2-0.2-0.3-0.4c-0.1-0.2-0.2-0.4-0.2-0.6c-0.1-0.2-0.1-0.4,0-0.5c0-0.2,0.1-0.3,0.2-0.4c0.1-0.1,0.1-0.2,0.3-0.3
		c0.1-0.1,0.2-0.2,0.3-0.3c0.1-0.1,0.1-0.2,0.1-0.4c0,0,0-0.1,0-0.2c0-0.1,0-0.2,0-0.3c0-0.2,0-0.3,0.2-0.2c0.1,0.1,0.2,0.2,0.3,0.4
		c0,0,0,0.1,0,0.3c0,0.1,0,0.2,0,0.3c0.3,0.3,0.6,0.5,1,0.7c0.1,0,0.1-0.2,0.2-0.4c0.1-0.2,0.2-0.3,0.3-0.2c0.1,0,0.2,0.2,0.2,0.4
		c0,0.1-0.1,0.3-0.2,0.6c0.1,0.2,0.4,0.4,0.9,0.7c0-0.1,0.1-0.2,0.1-0.3c0,0,0-0.1-0.1-0.2c0-0.1-0.1-0.2-0.1-0.2
		c0-0.1,0-0.2,0.1-0.2c0.1-0.1,0.2-0.1,0.3,0c0.1,0.1,0.2,0.2,0.2,0.3c0,0.1,0.1,0.3,0,0.5c0,0.2,0,0.4-0.1,0.5
		c-0.1,0.3-0.3,0.7-0.7,1.2c-0.3,0.5-0.6,0.9-0.7,1C180.2,127.4,180,127.3,179.8,127z"/>
	<path d="M178.2,129.6c0.2-0.1,0.3-0.2,0.4-0.4c0.1-0.2,0.2-0.4,0.2-0.6c0-0.2-0.1-0.4-0.2-0.5c-0.1-0.1-0.2-0.1-0.3-0.1
		c-0.1,0-0.3,0.1-0.6,0.2c-0.1,0-0.2,0.1-0.3,0.2c-0.1,0.1-0.2,0.1-0.3,0.2c-0.2,0.1-0.4,0.2-0.6,0.2c-0.2,0-0.3-0.1-0.4-0.3
		c-0.1-0.1-0.1-0.2-0.1-0.4c-0.1-0.2-0.1-0.3-0.1-0.5c0-0.4,0.1-0.8,0.4-1.2c0.2-0.3,0.5-0.5,0.8-0.6c0,0,0-0.1,0-0.2
		c0-0.1,0-0.2,0-0.3c0-0.2,0.1-0.3,0.2-0.2c0.1,0.1,0.1,0.2,0.2,0.4c0,0.1,0,0.2,0,0.3c0,0.1,0,0.2,0,0.3c0,0.3,0,0.5,0,0.6
		c0,0.2-0.1,0.4-0.1,0.5c-0.1,0-0.2-0.1-0.2-0.2c0-0.1,0-0.2-0.1-0.4c-0.2,0-0.4,0.1-0.5,0.3c-0.2,0.2-0.3,0.4-0.4,0.6
		c0,0.1,0,0.2,0,0.4c0,0.2,0.1,0.3,0.2,0.3c0.1,0.1,0.2,0.1,0.4,0.1c0,0,0.3-0.1,0.9-0.5c0.4-0.2,0.7-0.3,0.9-0.2
		c0.4,0.1,0.6,0.4,0.6,0.9c0,0.2,0,0.4-0.1,0.7c-0.1,0.2-0.2,0.4-0.3,0.6c-0.1,0.1-0.2,0.3-0.4,0.4c-0.2,0.1-0.3,0.2-0.4,0.3
		c0,0-0.1,0-0.2,0c-0.1,0-0.2,0-0.2,0.1c0,0,0,0.2-0.2,0.5c-0.1,0.3-0.2,0.4-0.3,0.3c-0.1-0.1-0.1-0.2,0-0.5c0-0.1,0-0.2,0.1-0.3
		c0-0.2,0.1-0.2,0.1-0.3c0.1-0.5,0.1-0.8,0.1-0.8c0.1-0.3,0.2-0.5,0.3-0.3c0.1,0.1,0.1,0.2,0.1,0.3c0,0.2,0,0.4,0,0.4
		C177.8,129.7,178,129.7,178.2,129.6z"/>
</g>
</svg>
