<svg id="Layer_1" data-name="Layer 1" xmlns="http://www.w3.org/2000/svg" viewBox="0 0 900 600">
  <title>web</title>
  <rect width="900" height="600" fill="#81c784"/>
  <g>
    <path d="M740.79,406.94V68.43A16,16,0,0,0,724.84,52.5H175.15a16,16,0,0,0-15.94,15.93V406.94Z" fill="#2f4a60"/>
    <path d="M158.08,407.58v48.95a17.06,17.06,0,0,0,17.07,17.06H724.84a17.06,17.06,0,0,0,17.08-17.06V407.58Z" fill="#d4edff"/>
    <path d="M550.56,545.7s-4.23-2.1-9.1-3.92c-5.18-1.95-11.42-4.4-15.09-6.16-6.43-3.08-7-5.11-9.39-15.65-2.63-11.5-5.09-35.78-6.08-46.38H389.12c-1,10.6-3.46,34.88-6.09,46.38-2.41,10.54-2.95,12.57-9.39,15.65-3.63,1.74-9.77,4.16-14.92,6.09h0c-4.94,1.87-9,3.3-9,3.3s-3.91,2.17,2.37,2.49H547.9C553.8,547.6,550.56,545.7,550.56,545.7Z" fill="#d4edff"/>
    <path d="M512.17,486.38c-.54-5-1-9.55-1.28-12.79H389.1c-.3,3.24-.74,7.76-1.28,12.79Z" fill="#acd4f8"/>
    <rect x="186.24" y="79.81" width="527.51" height="297.05" fill="#fff"/>
  </g>
  <g>
    <polygon points="251.26 240.24 232.54 224.52 240.8 214.8 249.75 222.31 277.95 189.14 287.73 197.35 251.26 240.24" fill="#22b573"/>
    <polygon points="249.16 251.2 221.44 227.93 244.86 200.39 256.24 209.95 258.45 207.36 244.45 195.6 216.63 228.33 249.56 255.98 270.39 231.48 266 231.38 249.16 251.2" fill="#b3b3b3"/>
    <polygon points="290.06 216.42 308.78 232.14 300.51 241.86 291.57 234.35 263.37 267.53 253.59 259.31 290.06 216.42" fill="#b3b3b3"/>
    <polygon points="292.16 205.46 319.88 228.73 296.46 256.28 285.07 246.72 282.87 249.31 296.87 261.06 324.69 228.33 291.76 200.68 270.92 225.19 275.31 225.28 292.16 205.46" fill="#22b573"/>
    <g>
      <path d="M572.31,204.28c14,0,21.43,6.43,21.43,20.3s-7.48,20.3-21.43,20.3h-17.7v-40.6ZM567.74,214v21.12h4.33c5.76,0,8.25-3.24,8.25-8.79v-3.54c0-5.55-2.49-8.79-8.25-8.79Z" fill="#b3b3b3"/>
      <path d="M613.62,244.88H600.5v-40.6h13.12Z" fill="#b3b3b3"/>
      <path d="M663.45,219H650.92c0-3.48-3.56-5.66-7.72-5.66-6.24,0-9.38,3.48-9.38,9.38v3.78c0,5.9,3.14,9.38,9.38,9.38,4.16,0,7.72-2.12,7.72-5.37h-9.27v-8.26h21.8v22.66h-6.77l-1.31-4c-3.68,3.13-8.37,4.73-14.61,4.73-13.59,0-20.36-7.14-20.36-21s8.13-21,22.27-21C654.13,203.57,663.45,208.77,663.45,219Z" fill="#b3b3b3"/>
      <g>
        <path d="M372.07,216.08v.71H359.78v-.24c0-2.12-1.49-4.13-5.29-4.13-3.62,0-5.4,1.24-5.4,2.66,0,6.08,23.81,1.3,24.11,16.34,0,10.09-7.72,14.17-18,14.17-11.46,0-20.19-2.9-20.19-14.46h12.41c0,4.37,2.55,5.13,6.59,5.13,2.37,0,5.76-.17,5.76-2.71,0-5.84-24.11-1.18-24.11-17,0-9.44,8.67-13,18.35-13C363.87,203.57,371.89,207.41,372.07,216.08Z" fill="#22b573"/>
        <path d="M411.16,244.88h-9.68l-.77-4.72a13.87,13.87,0,0,1-11.16,5.43c-7.42,0-10.93-4.31-10.93-11.69V213.72h11.82v18.77c0,2.59,1.36,4.42,4,4.42a4.79,4.79,0,0,0,4.93-4.9V213.72h11.81Z" fill="#22b573"/>
        <path d="M439.21,213.66v9.86h-3.8c-5.1,0-6.94,2.77-6.94,7.49v13.87H416.65V213.72h9.68l.77,4.72a8.82,8.82,0,0,1,8.61-5.48A7.94,7.94,0,0,1,439.21,213.66Z" fill="#22b573"/>
        <path d="M466.3,244.88H453.89L442,213.72h12.71l5.76,19.42h.41l5.76-19.42h11.64Z" fill="#22b573"/>
        <path d="M514,229.3v2H490.51c0,4.3,1.78,6.78,6.3,6.78,4.21,0,5.76-2,5.76-4.54H514c0,7.43-5.71,12-17,12s-18.34-5.08-18.34-16.29c0-10.92,6.94-16.29,17.63-16.29C507.61,213,514,218.09,514,229.3Zm-23.46-3.54h11.52c0-3.25-2-5.25-5.28-5.25C492.83,220.51,491,222.51,490.57,225.76Z" fill="#22b573"/>
        <path d="M539.57,243.93c-2.85,7.73-6.71,13.34-15.85,13.34a21.48,21.48,0,0,1-6.83-1.06v-7h4.75c4.16,0,5-2.77,5.29-4.3l-12.47-31.16h12.7l6,20.71h.42l5.52-20.71h11.64Z" fill="#22b573"/>
      </g>
    </g>
    <path d="M682.26,239.29a6.39,6.39,0,1,1-6.37-6.22A6.25,6.25,0,0,1,682.26,239.29Zm-11.19,0a4.82,4.82,0,0,0,4.86,5,4.75,4.75,0,0,0,4.73-4.93,4.8,4.8,0,1,0-9.59,0Zm3.83,3.26h-1.44v-6.22a13,13,0,0,1,2.39-.19,3.8,3.8,0,0,1,2.16.46,1.73,1.73,0,0,1,.61,1.37,1.6,1.6,0,0,1-1.29,1.44v.07a1.83,1.83,0,0,1,1.14,1.52,4.72,4.72,0,0,0,.45,1.55h-1.55a5.13,5.13,0,0,1-.5-1.51c-.11-.69-.49-1-1.29-1h-.68Zm0-3.52h.68c.8,0,1.44-.27,1.44-.91s-.41-1-1.32-1a4.12,4.12,0,0,0-.8.07Z" fill="#b3b3b3"/>
  </g>
</svg>
