<svg id="Layer_1" data-name="Layer 1" xmlns="http://www.w3.org/2000/svg" viewBox="0 0 900 600">
  <title>web</title>
  <rect width="900" height="600" fill="#448aff"/>
  <g>
    <path d="M740.79,406.94V68.43A16,16,0,0,0,724.84,52.5H175.15a16,16,0,0,0-15.94,15.93V406.94Z" fill="#2f4a60"/>
    <path d="M158.08,407.58v48.95a17.06,17.06,0,0,0,17.07,17.06H724.84a17.06,17.06,0,0,0,17.08-17.06V407.58Z" fill="#d4edff"/>
    <path d="M550.56,545.7s-4.23-2.1-9.1-3.92c-5.18-1.95-11.42-4.4-15.09-6.16-6.43-3.08-7-5.11-9.39-15.65-2.63-11.5-5.09-35.78-6.08-46.38H389.12c-1,10.6-3.46,34.88-6.09,46.38-2.41,10.54-2.95,12.57-9.39,15.65-3.63,1.74-9.77,4.16-14.92,6.09h0c-4.94,1.87-9,3.3-9,3.3s-3.91,2.17,2.37,2.49H547.9C553.8,547.6,550.56,545.7,550.56,545.7Z" fill="#d4edff"/>
    <path d="M512.17,486.38c-.54-5-1-9.55-1.28-12.79H389.1c-.3,3.24-.74,7.76-1.28,12.79Z" fill="#acd4f8"/>
    <rect x="186.24" y="79.81" width="527.51" height="297.05" fill="#fff"/>
  </g>
  <line x1="261.72" y1="245.93" x2="261.7" y2="245.93" fill="none" stroke="#77787b" stroke-miterlimit="10" stroke-width="0.1"/>
  <g>
    <g>
      <g id="text">
        <path id="CLEAN_" d="M249.46,307.1a18.52,18.52,0,0,0,.07,5.5,11.5,11.5,0,0,0,1.51,4.09,7.23,7.23,0,0,0,2.73,2.55,7.73,7.73,0,0,0,3.71.88,15.38,15.38,0,0,0,3.14-.28,12.89,12.89,0,0,0,2.35-.71,9.05,9.05,0,0,0,1.71-.95l1.29-.94a11.13,11.13,0,0,1,1.06-.72,2.11,2.11,0,0,1,1-.28,1.65,1.65,0,0,1,.85.19,1.13,1.13,0,0,1,.45.41l3.17,4.54a24.11,24.11,0,0,1-8,5.68,24.73,24.73,0,0,1-9.9,1.94,17.49,17.49,0,0,1-7.77-1.61,14,14,0,0,1-5.32-4.42,16.76,16.76,0,0,1-2.8-6.68,26.72,26.72,0,0,1-.22-8.33,34.48,34.48,0,0,1,1.86-7.85,33.74,33.74,0,0,1,3.4-6.86,31.77,31.77,0,0,1,4.67-5.67,29.33,29.33,0,0,1,5.68-4.27,27,27,0,0,1,6.42-2.7,25.46,25.46,0,0,1,6.92-.95,20.76,20.76,0,0,1,4.81.51A15.71,15.71,0,0,1,276,281.6a12.55,12.55,0,0,1,2.91,2.17,12.83,12.83,0,0,1,2.11,2.78l-4.24,4.38a5.88,5.88,0,0,1-1,.83,2.59,2.59,0,0,1-1.41.36,1.78,1.78,0,0,1-1-.27,5.91,5.91,0,0,1-.85-.64l-1-.85a5.83,5.83,0,0,0-1.3-.84,9.31,9.31,0,0,0-1.86-.65,11.65,11.65,0,0,0-2.62-.26,13.37,13.37,0,0,0-5.75,1.29,15.71,15.71,0,0,0-4.94,3.69,21,21,0,0,0-3.68,5.84A27.05,27.05,0,0,0,249.46,307.1Zm46-26.91H284.89l-11.67,48.28h26.59l2.08-8.61h-16Zm22.41,28h13.4l2-8H319.86l2.84-11.66h17.56l2.05-8.32H314l-11.67,48.28H330.7l2.05-8.32h-17.7Zm54.5-28,5.21,48.28h-8.21a3.16,3.16,0,0,1-2.12-.65,2.2,2.2,0,0,1-.79-1.7l-.43-8.68H350l-4.56,8.68a4.3,4.3,0,0,1-1.6,1.64,4.45,4.45,0,0,1-2.4.71h-8.34l28.48-48.28Zm-6.69,29.89s-1-19.54-1.05-20.51c-.24.53-10.88,20.51-10.88,20.51ZM420,280.19s-7.27,30.71-7.41,31.48l-13.06-29.82A4.17,4.17,0,0,0,399,281a1.85,1.85,0,0,0-.6-.52,2.31,2.31,0,0,0-.82-.23c-.31,0-.7-.05-1.15-.05h-5.61l-11.67,48.28h9.39s7.23-31,7.35-31.58l13,29.79a2.69,2.69,0,0,0,1.23,1.43,4.82,4.82,0,0,0,2,.36h5.54l11.67-48.28Zm1.78,42.06-1.52,6.16h25.16l3.12-6.16Z" fill="#e31e30"/>
      </g>
      <path d="M483.75,199.64c22.43-13.1,42.7-23,44.42-23.65,9.6-3.72,15.82-9.68,18.08-17.2,2.77-9.25-.53-20.51-9.81-33.43h0l-2.35-3.3-3.22,2.49c-2.71,2.07-5.35,4.09-8,6.06-4.82-5.79-16.38-17.31-33.12-19.06l-2.16-.22-1.34,1.73C462,144.43,383.21,182.82,374,187.22A28.15,28.15,0,0,0,362.42,193c-15.67,12.16-16.58,34-10.78,49.1,5,13,14.43,21.35,25.45,23a27.74,27.74,0,0,0,5.93.23,23.35,23.35,0,0,0,13.86-5.75c6.12-4.67,36.64-27.85,65.35-46.54Zm-93.46,14.54c.35,4,0,7.72-1.05,10.13-3.28,7.47-8.39,10.94-11.63,10.47l-.15,0c-2.58-.47-4.39-3.72-5-8.86,8.5-5.38,14.2-9.19,17.85-11.72ZM462,203.74c-19.27,12.32-39.9,27.13-53.92,37.52h0c4.6-13.44,5.3-28.81,5.37-35.48,6-1.55,20-6.5,45.62-21.79l20.27-12.75c14.77-9.74,32.28-22.12,53-37.94,6,9.34,8.16,17.13,6.37,23.25h0c-1.57,5.19-6.05,9.29-13.41,12.14-2.64,1-21.12,10.13-41.64,21.91Zm-6.14-27.05c-33.79,20.3-46.52,22-46.7,22l-3.71.31.11,3.74c.42,14.72-2.89,53.22-23.18,54.69-11.79.88-19.87-8.81-23.44-18.15-4.77-12.48-4.25-30.37,8.26-40,6.28-4.86,11.46-5.76,15.43-2.66,2.62,2,4.6,5.42,5.88,9.22-3.23,2.32-10,7-22.34,14.74l-1.95,1.25.12,2.3c.81,14.86,8.44,17.84,11.7,18.43,7.58,1.28,15.83-4.64,20.39-15,3.87-8.86,1.77-28.78-8.95-37.13-.24-.19-.52-.38-.8-.57,11.2-5.6,30-15.39,49.07-27.05l20.76-13.46h0c13.89-9.62,26.44-19.8,34.51-29.61,12.51,2.15,21.54,11,25.55,15.69-15.51,11.55-29,21-40.73,28.73Zm82.84-20.14" fill="#065baa"/>
      <path d="M446.05,145c22.63,4.69,38.46,36.53,40.59,57.72-17.26,13.33-24.28,9.6-24.28,9.6.25-15.94-17.44-48.1-36.54-52.26a1.5,1.5,0,0,1-.24-2.72,184.12,184.12,0,0,0,17-11.56A4.29,4.29,0,0,1,446.05,145Z" fill="#e31e30"/>
      <g>
        <path d="M492.05,328.25h-5.28a1.9,1.9,0,0,1-1.37-.45,2,2,0,0,1-.6-1.17l-1.35-11.82h-19.9l-6.73,11.82a3.73,3.73,0,0,1-1.12,1.12,2.81,2.81,0,0,1-1.57.5h-5.36l29.43-49.57h7Zm-25.66-18.41H482.9l-2.26-19.9c-.05-.64-.11-1.39-.18-2.24s-.12-1.78-.16-2.77c-.47,1-.94,1.92-1.39,2.77s-.86,1.61-1.21,2.28Z" fill="#065baa"/>
        <path d="M504,323.05h12.72l-1.15,5.2h-19l8-35h6.26Z" fill="#065baa"/>
        <path d="M531.71,323.22a7.88,7.88,0,0,0,3.17-.64,8.7,8.7,0,0,0,2.67-1.81A11.56,11.56,0,0,0,539.6,318a15,15,0,0,0,1.31-3.65l4.8-21H552l-4.77,21A20.74,20.74,0,0,1,545,320a18.12,18.12,0,0,1-3.7,4.54,16.55,16.55,0,0,1-4.91,3,15.85,15.85,0,0,1-5.86,1.08,12.65,12.65,0,0,1-4.93-.89,8.78,8.78,0,0,1-3.45-2.47,9.37,9.37,0,0,1-1.9-3.81,13.87,13.87,0,0,1-.27-4.87,18.66,18.66,0,0,1,.38-2.3l4.75-21h6.29l-4.8,21c-.06.31-.12.61-.16.9s-.09.57-.12.84a10.38,10.38,0,0,0,.09,3,5.68,5.68,0,0,0,.94,2.27,4.51,4.51,0,0,0,1.8,1.45A6.2,6.2,0,0,0,531.71,323.22Z" fill="#065baa"/>
        <path d="M569.55,315.56c.07.43.14.87.2,1.33.24-.46.5-.9.77-1.33s.56-.87.86-1.29l14.24-20a3.27,3.27,0,0,1,.5-.57,2.12,2.12,0,0,1,.52-.3,2.48,2.48,0,0,1,.58-.12l.73,0h4.76l-8,35h-5.51l5.2-22.78q.14-.63.36-1.38l.47-1.52-14.11,20a3.15,3.15,0,0,1-1.14,1,3,3,0,0,1-1.37.34h-.87a2.23,2.23,0,0,1-1.24-.34,1.67,1.67,0,0,1-.68-1l-5.11-19.9c-.07.5-.14,1-.21,1.45s-.16.9-.25,1.29l-5.16,22.87h-5.53l8-35h4.72l.72,0a2.13,2.13,0,0,1,.55.12.91.91,0,0,1,.37.3,1.9,1.9,0,0,1,.26.57l5.13,20C569.4,314.69,569.48,315.12,569.55,315.56Z" fill="#065baa"/>
        <path d="M602.94,293.32a1.69,1.69,0,0,1,.48.15,1.1,1.1,0,0,1,.35.3,3.39,3.39,0,0,1,.31.53l11.1,23.87c.08-.47.17-.93.25-1.37s.18-.86.27-1.24l5.07-22.27h5.54l-8,35h-3.22a2.87,2.87,0,0,1-1.21-.23,1.58,1.58,0,0,1-.75-.86l-11-23.86c-.07.38-.14.76-.21,1.12s-.14.71-.21,1l-5.15,22.8H591l8-35h3.29A6.73,6.73,0,0,1,602.94,293.32Z" fill="#065baa"/>
        <path d="M631.24,328.25h-6.31l8-35h6.31Z" fill="#065baa"/>
      </g>
      <path d="M651.27,283.5l-.17,1.58-2.37,0L648,292.2l-1.87,0,.75-7.09-2.34,0,.18-1.58Zm5,4.62a4.65,4.65,0,0,1,.2.76,5.58,5.58,0,0,1,.4-.77l2.62-4.42a.66.66,0,0,1,.28-.26.86.86,0,0,1,.37-.06l1.58,0-.93,8.67-1.66,0,.59-5.24.23-1.1-2.85,4.88a.83.83,0,0,1-.72.42h-.26a.55.55,0,0,1-.59-.4l-1.81-4.77v1.05l-.57,5.25-1.63,0,.91-8.67,1.6,0a1.11,1.11,0,0,1,.36,0,.77.77,0,0,1,.24.26Z" fill="#065baa"/>
    </g>
    <path d="M492.08,195.06a28.21,28.21,0,0,0-3.4-9.57,33.82,33.82,0,0,0-6.76-8.38,34.74,34.74,0,0,0-8.74-5.76,30.16,30.16,0,0,0-9.65-2.65,23.39,23.39,0,0,0-9.48,1,18.31,18.31,0,0,0-7.5,4.61,17.57,17.57,0,0,0-4.23,7.28,21.26,21.26,0,0,0-.63,9,27.69,27.69,0,0,0,3.32,9.71,33.74,33.74,0,0,0,6.82,8.57,34.65,34.65,0,0,0,8.91,5.87,30.19,30.19,0,0,0,9.82,2.63,23.12,23.12,0,0,0,9.57-1.12,18.15,18.15,0,0,0,7.44-4.79,17.65,17.65,0,0,0,4.06-7.39A21.57,21.57,0,0,0,492.08,195.06Z" fill="#fff" stroke="#e31e30" stroke-miterlimit="10" stroke-width="5"/>
  </g>
</svg>
