<svg id="Layer_1" data-name="Layer 1" xmlns="http://www.w3.org/2000/svg" viewBox="0 0 900 600">
  <title>web</title>
  <rect width="900" height="600" fill="#607d8b"/>
  <g>
    <path d="M740.79,406.94V68.43A16,16,0,0,0,724.84,52.5H175.15a16,16,0,0,0-15.94,15.93V406.94Z" fill="#2f4a60"/>
    <path d="M158.08,407.58v48.95a17.06,17.06,0,0,0,17.07,17.06H724.84a17.06,17.06,0,0,0,17.08-17.06V407.58Z" fill="#d4edff"/>
    <path d="M550.56,545.7s-4.23-2.1-9.1-3.92c-5.18-1.95-11.42-4.4-15.09-6.16-6.43-3.08-7-5.11-9.39-15.65-2.63-11.5-5.09-35.78-6.08-46.38H389.12c-1,10.6-3.46,34.88-6.09,46.38-2.41,10.54-2.95,12.57-9.39,15.65-3.63,1.74-9.77,4.16-14.92,6.09h0c-4.94,1.87-9,3.3-9,3.3s-3.91,2.17,2.37,2.49H547.9C553.8,547.6,550.56,545.7,550.56,545.7Z" fill="#d4edff"/>
    <path d="M512.17,486.38c-.54-5-1-9.55-1.28-12.79H389.1c-.3,3.24-.74,7.76-1.28,12.79Z" fill="#acd4f8"/>
    <rect x="186.24" y="79.81" width="527.51" height="297.05" fill="#fff"/>
  </g>
  <g>
    <path d="M630.2,190c.72,23.28,28.8,38.5,28.8,38.5s-28.08,15.24-28.8,38.52c-.4,12.91-.82,26.27-6.3,37.23L619,306.62c-106.51-16.17-158.41,26.23-165,32.14l-4,5.7-4-5.69c-3.06-2.73-15.86-13.35-39.06-22.25-24.74-9.49-66.66-18.9-126-9.9l-4.86-2.34c-5.48-11-5.89-24.32-6.3-37.23-.72-23.28-28.8-38.52-28.8-38.52s28.08-15.22,28.8-38.5c.41-12.91.82-26.26,6.3-37.23l4.86-1.67c104.43,15.86,156.36-24.59,164.6-31.75L450,112.2l4.45,7.18c3.72,3.24,16.4,13.34,38.62,21.86,24.72,9.49,66.65,18.9,126,9.89l4.86,1.67C629.38,163.77,629.8,177.12,630.2,190Zm1.62,38.51c-10-7.69-10.47-23.66-10.92-38.22-.32-10.31-.66-20.93-3.71-29.53a315.64,315.64,0,0,1-44.6,3.28c-37.06,0-64.86-7.17-83.44-14.37-20.76-8-33.56-17.3-39.15-21.89-5.59,4.59-18.4,13.84-39.15,21.89-18.58,7.2-46.39,14.37-83.45,14.37a315.41,315.41,0,0,1-44.59-3.28c-3.06,8.6-3.39,19.22-3.72,29.53-.45,14.56-1,30.53-10.91,38.22,9.95,7.7,10.46,23.66,10.91,38.22.34,10.57.68,21.46,4,30.16,2.65-.37,5.28-.73,7.87-1q2.79-.33,5.52-.61c52.85-5.35,91,3.7,114.42,12.78,20.75,8,33.56,17.29,39.15,21.89,5.59-4.6,18.39-13.85,39.15-21.89.81-.31,1.63-.63,2.48-.94,1.25-.46,2.55-.93,3.88-1.39s2.7-.92,4.11-1.37l.67-.21q3.82-1.22,8-2.35c25.71-7,61.93-11.49,108.65-4.88,3.28-8.7,3.62-19.59,3.95-30.16C621.35,252.2,621.87,236.24,631.82,228.54Z"/>
    <path d="M577.4,202h10v2.1h-10v18.52a6.62,6.62,0,0,0,1.35,4.46,4.8,4.8,0,0,0,3.84,1.57,7,7,0,0,0,5.35-2.78l.91,1.07q-3.75,4.8-8.68,4.8a8,8,0,0,1-6-2.34,8.22,8.22,0,0,1-2.31-6V204.07h-5.43v-1.38q6-3,9.56-10.4h1.39Z"/>
    <path d="M539.09,207q5-5.75,10.39-5.74a9.31,9.31,0,0,1,6.94,2.84,10.25,10.25,0,0,1,2.78,7.48v13c0,2,.32,3.29,1,3.93s2,.95,3.89.95v1.35H548.73v-1.35a7.34,7.34,0,0,0,3.91-.74,3.25,3.25,0,0,0,1-2.83V210.82a6.46,6.46,0,0,0-1.8-4.8,6.28,6.28,0,0,0-4.62-1.78c-2.18,0-4.4,1.23-6.62,3.71Z"/>
    <path d="M532.79,228.4c.5-.7.75-2.2.75-4.48V207.7c0-1.73-.3-2.86-.91-3.4s-1.9-.82-3.89-.82v-1.35l9-.87h1.39V207l1.55.95c-.51.57-1,1.21-1.55,1.91v14.07c0,2.39.31,3.9.93,4.55s1.9,1,3.87,1v1.35H528.74v-1.35C530.93,229.45,532.29,229.1,532.79,228.4Z"/>
    <path d="M520.7,191.27c0,1.74-1.1,2.62-3.32,2.62s-3.32-.59-3.32-1.78q0-3.42,3.14-8.56C519.52,187.51,520.7,190.08,520.7,191.27Z"/>
    <path d="M515,228.68q1-.78,1-3.21V207.78c0-1.75-.31-2.9-.91-3.46s-2.12-.84-4.53-.84v-1.35l9.56-.87h1.38v24.22c0,1.59.36,2.65,1,3.18a6.55,6.55,0,0,0,3.77.79v1.35H510.5v-1.35C512.81,229.45,514.29,229.19,515,228.68Z"/>
    <path d="M530.86,260.4c6.56,2.19,7.73.18,10.41-1.07a2.55,2.55,0,0,1,3.68,1.21s-1.51-1.05-3.32.62-3.85,5.57-6.87,4.54a4.07,4.07,0,0,1-1.54,4.33,3.29,3.29,0,0,0-.62-2.82c-1-1.21-3.3-2.22-1.62-4.92,0,0-2.54-1.18-3.84-.41,0,0,1.49,2.35-1.08,4.79a7.45,7.45,0,0,0-.58-1.06,1.88,1.88,0,0,0-1.63-.91,2.26,2.26,0,0,0-1.27.75c.62,1.43,1.17,3.45,0,4.69-1.9,2.09-5.34.33-7.23-1.46l-.07-.06c-1-.16-2.06-.38-3.38-.73a36.27,36.27,0,0,1-5.75-2,7.66,7.66,0,0,1-7.52-.71,2.3,2.3,0,0,1-1.52.55,9.39,9.39,0,0,1-2.06-.38s.81,1.84,0,2.31-3-1-3.48-1.28a29.84,29.84,0,0,0-4.42-1.95v-1.24h1.51a20,20,0,0,0,4.6-2.26c3-2,2.33,1.21,2.23,1.57,0,0,2.33-.25,3.53.68,1.66-1.38,4.93-3,9.55-.15a15.62,15.62,0,0,0,6.95-3.85c2.4-2.23,3.72-2.23,3.72-2.23,3,0,5.33,2,3.38,5.46A7.38,7.38,0,0,1,530.86,260.4Z"/>
    <path d="M495.51,227.57a6.29,6.29,0,0,0,2.55-2.6v-9.76c-.82.35-2,.79-3.57,1.31-2.89,1-4.73,2-5.54,2.92a5.91,5.91,0,0,0-1.21,3.9,5.7,5.7,0,0,0,1.29,3.71,3.9,3.9,0,0,0,3.08,1.57A6.72,6.72,0,0,0,495.51,227.57Zm9.68,1.05a1.21,1.21,0,0,0,1-.54,8.11,8.11,0,0,0,.91-2.24h1.39a6.69,6.69,0,0,1-1.69,4.28,5.09,5.09,0,0,1-3.9,1.59c-2.35,0-4-1.36-4.87-4.09a15.32,15.32,0,0,1-3.81,3.22,8.38,8.38,0,0,1-3.93.87,8.18,8.18,0,0,1-5.78-2.24,7.1,7.1,0,0,1-2.43-5.42,6.57,6.57,0,0,1,2.08-5q2.08-2,8.48-3.75a27.51,27.51,0,0,0,5.39-1.9v-2.14a7.23,7.23,0,0,0-1.75-5,6,6,0,0,0-4.68-1.93,7.32,7.32,0,0,0-4.71,1.66,8.82,8.82,0,0,0-2.9,4.53l-1.47-.4a11.1,11.1,0,0,1,3.79-6.42,10.26,10.26,0,0,1,17.23,8.13v12.33a12.5,12.5,0,0,0,.33,3.55A1.27,1.27,0,0,0,505.19,228.62Z"/>
    <path d="M474.52,288.74V285l-2.75,3.73Zm.91-5.35v5.36h2.16v.7h-2.16v3h-.91v-3h-3.6v-.26l4.25-5.8Z"/>
    <path d="M468.09,291.92a1,1,0,0,0,.73.18v.23H466v-.23a1,1,0,0,0,.74-.19,1.2,1.2,0,0,0,.17-.77v-6c0-.19-.05-.3-.13-.3l-.19.06a2.88,2.88,0,0,1-1,.24v-.25a5.56,5.56,0,0,0,2.05-1.48h.26v7.73A1.22,1.22,0,0,0,468.09,291.92Z"/>
    <path d="M461.73,291a7.63,7.63,0,0,0,.49-3.08,7.85,7.85,0,0,0-.48-3.07,1.51,1.51,0,0,0-1.39-1.09,1.5,1.5,0,0,0-1.37,1.1,9.61,9.61,0,0,0,0,6.12,1.53,1.53,0,0,0,1.37,1.1A1.5,1.5,0,0,0,461.73,291Zm-2.92.89a3.8,3.8,0,0,1-1.11-1.61,7,7,0,0,1-.37-2.39,6.53,6.53,0,0,1,.38-2.34,3.71,3.71,0,0,1,1.11-1.6,2.34,2.34,0,0,1,1.53-.58,2.45,2.45,0,0,1,1.55.58,3.93,3.93,0,0,1,1.09,1.62,7.49,7.49,0,0,1,0,4.71,3.69,3.69,0,0,1-1.1,1.61,2.3,2.3,0,0,1-3.08,0Z"/>
    <path d="M453.8,206.09a20.33,20.33,0,0,1,5-3.74,11.29,11.29,0,0,1,5-1.09,11.78,11.78,0,0,1,9.29,4.26,17.25,17.25,0,0,1-.38,21.79,13.31,13.31,0,0,1-10.22,4.4q-4.26,0-8.71-3.41l.87-1.23a10.36,10.36,0,0,0,7.08,2.74,7.73,7.73,0,0,0,6.46-3.61,15,15,0,0,0,2.6-9,16.48,16.48,0,0,0-2.6-9.56,7.78,7.78,0,0,0-6.61-3.76q-3.56,0-6.86,3.31Z"/>
    <path d="M447.38,204.27c-.58-.53-2-.79-4.16-.79v-1.35l9.19-.87h1.39v4.83l.94,1.14a13.17,13.17,0,0,0-.94,1v18c.28.29.57.57.87.83l-.87,1.23v18.91c0,2,.34,3.24,1,3.87s1.94.93,3.8.93v1.36H443.22V252c2,0,3.32-.28,4-.84s1-1.61,1-3.17V208C448.25,206,448,204.8,447.38,204.27Z"/>
    <path d="M453.36,283.39a2.06,2.06,0,0,1,1.57.69,2.51,2.51,0,0,1,.65,1.75,4.51,4.51,0,0,1-.94,2.52,21.86,21.86,0,0,1-3.16,3.36h4.3v.62h-5V292a24.93,24.93,0,0,0,2.89-3.41,4.35,4.35,0,0,0,.84-2.38,2.29,2.29,0,0,0-.42-1.48,1.39,1.39,0,0,0-1.17-.53,1.52,1.52,0,0,0-1.1.41,1.81,1.81,0,0,0-.51,1.16H451a2.57,2.57,0,0,1,.35-1.14,2.41,2.41,0,0,1,.84-.94A2.07,2.07,0,0,1,453.36,283.39Z"/>
    <path d="M444.84,292.71a.74.74,0,0,1-.51-.21.69.69,0,0,1-.22-.52.66.66,0,0,1,.22-.5.7.7,0,0,1,.51-.22.72.72,0,0,1,.51.22.66.66,0,0,1,.2.5.75.75,0,0,1-.2.52A.77.77,0,0,1,444.84,292.71Z"/>
    <path d="M438.44,284a2.31,2.31,0,0,0-1.32.29,1.2,1.2,0,0,0-.46,1h-.26v-2h.26a1.93,1.93,0,0,0,1.31.33h4.57a2.18,2.18,0,0,0,1.38-.33h.28v2H444a1.48,1.48,0,0,0-.58-1,2.51,2.51,0,0,0-1.27-.26h-1.32v6.7a2.08,2.08,0,0,0,.19,1.08.9.9,0,0,0,.76.27v.25h-3.09v-.25a.85.85,0,0,0,.78-.32,2,2,0,0,0,.21-1.06V284Z"/>
    <path d="M432.56,288.4a8,8,0,0,1-1.36-1,2.58,2.58,0,0,1-.51-.8,2.69,2.69,0,0,1-.16-1,2.15,2.15,0,0,1,.66-1.63,2.38,2.38,0,0,1,1.72-.62,4.08,4.08,0,0,1,1.26.22,1.9,1.9,0,0,0,.44.11c.08,0,.13,0,.15,0a.88.88,0,0,0,.08-.2h.24v2h-.25a2,2,0,0,0-.61-1.32,1.88,1.88,0,0,0-1.33-.48,1.68,1.68,0,0,0-1.13.36,1.17,1.17,0,0,0-.44.95,1.65,1.65,0,0,0,.35,1,7,7,0,0,0,1.55,1.16,7,7,0,0,1,1.86,1.45,2.17,2.17,0,0,1,.48,1.41,2.48,2.48,0,0,1-2.48,2.48,4.59,4.59,0,0,1-1.51-.32,2.29,2.29,0,0,0-.49-.14c-.14,0-.25.11-.33.34h-.26v-2.36h.26a2.1,2.1,0,0,0,.63,1.57,2.13,2.13,0,0,0,1.47.58,1.9,1.9,0,0,0,1.28-.42,1.46,1.46,0,0,0,.47-1.14,1.61,1.61,0,0,0-.39-1A6.68,6.68,0,0,0,432.56,288.4Z"/>
    <path d="M425.77,202.1a22.75,22.75,0,0,1,5.11,2.65V187.1a7.15,7.15,0,0,0-.75-3.92c-.5-.69-1.52-1-3.05-1h-1.62V180.8l9.59-1h1.35v45.43a4.23,4.23,0,0,0,1,3.29c.69.62,1.94.92,3.76.92v1.35H426.32v-1.31a5,5,0,0,0,3.5-1,4.48,4.48,0,0,0,1.06-3.33V207.8a12.61,12.61,0,0,0-3.9-3.55,10.52,10.52,0,0,0-1.68-.78Z"/>
    <path d="M423.4,290.71v-5.47a2,2,0,0,0-.21-1.09.89.89,0,0,0-.78-.29v-.26h6.29v1.46h-.16a1.46,1.46,0,0,0-.39-.83,1.83,1.83,0,0,0-1.08-.2h-2.52v3.73H427a1,1,0,0,0,.68-.18,1.21,1.21,0,0,0,.26-.68h.26V289h-.26a1.24,1.24,0,0,0-.34-.7,1.67,1.67,0,0,0-.88-.14h-2.17v3.12a.58.58,0,0,0,.15.46.67.67,0,0,0,.49.13h1.53a4.18,4.18,0,0,0,1.13-.09,1.12,1.12,0,0,0,.54-.32,3.46,3.46,0,0,0,.45-.79h.27l-.41,1.63h-6.29v-.25a.88.88,0,0,0,.79-.3A2,2,0,0,0,423.4,290.71Z"/>
    <path d="M425.3,203.47a8.26,8.26,0,0,0-2.78-.51,7.57,7.57,0,0,0-6.35,3.24,13.69,13.69,0,0,0-2.41,8.42q0,6.7,3.3,10.79a11.27,11.27,0,0,0,9.26,4.08v1.31h-1.86q-7.72,0-12.24-4.25a14.09,14.09,0,0,1-4.49-10.7,14.66,14.66,0,0,1,3.94-10.33,12.55,12.55,0,0,1,9.54-4.26,13.63,13.63,0,0,1,4.56.84Z"/>
    <path d="M391.14,226.46a15.36,15.36,0,0,0,2.71-2.87V208.05c0-2-.3-3.23-.91-3.73s-2.17-.79-4.68-.84v-1.35l9.75-.87h1.35V225.4c0,1.59.34,2.66,1,3.22s2,.83,3.95.83v1.35l-10.47.56v-5.28h-.16c-.18.24-.36.46-.55.69Z"/>
    <path d="M386.24,228.3a7.76,7.76,0,0,0,4.9-1.84l2,.31q-4.12,4.93-9.52,4.94a8.94,8.94,0,0,1-6.76-2.76,9.61,9.61,0,0,1-2.63-6.92V207.29a3.48,3.48,0,0,0-1.12-3,7.25,7.25,0,0,0-4-.79v-1.35l9.23-.87h1.39v20.53a6.07,6.07,0,0,0,6.51,6.51Z"/>
    <path d="M355.06,267.53c.09.06,1.55,1,3.29-.64s3.85-5.56,6.89-4.54a4,4,0,0,1,1.53-4.32,3.33,3.33,0,0,0,.62,2.82c1.05,1.2,3.3,2.21,1.63,4.93,0,0,2.54,1.18,3.84.4,0,0-1.49-2.35,1.08-4.78a7.27,7.27,0,0,0,.57,1.05,1.85,1.85,0,0,0,1.63.91,2.26,2.26,0,0,0,1.27-.75c-.62-1.43-1.17-3.46,0-4.69,1.89-2.09,5.34-.33,7.23,1.46l.06.05c1,.16,2.08.4,3.4.74a35.7,35.7,0,0,1,5.74,2,7.65,7.65,0,0,1,7.53.71,2.18,2.18,0,0,1,1.51-.54,8.86,8.86,0,0,1,2.07.36s-.82-1.83,0-2.3,3,1,3.5,1.29a29.4,29.4,0,0,0,4.42,1.93h3.28l10.41-.14,35.77-.25h24.84v1.24h-3.29l-10.4.15c-16.64.11-33.76.24-35.77.26H411.32a20.22,20.22,0,0,0-4.58,2.24c-3,2-2.33-1.21-2.23-1.57,0,0-2.33.26-3.53-.67-1.66,1.38-4.93,3-9.56.14a15.82,15.82,0,0,0-7,3.87c-2.38,2.22-3.72,2.22-3.72,2.22-3,0-5.32-2-3.38-5.47a7.35,7.35,0,0,1-8.23,2.05c-6.56-2.2-7.72-.2-10.42,1.06A2.52,2.52,0,0,1,355.06,267.53Z"/>
    <path d="M350.47,204.31c-2.63,0-5,1.42-7.21,4.25l-1.39-.84q4.59-6.45,10.63-6.46a9.84,9.84,0,0,1,7,2.59,9.26,9.26,0,0,1,2.78,7.11v14.46c0,1.55.34,2.6,1,3.14a6.35,6.35,0,0,0,3.77.81v1.43H351.82v-1.43c2.09,0,3.42-.34,4-1s.88-2.17.88-4.49V210.25a5.7,5.7,0,0,0-1.67-4.36A6.35,6.35,0,0,0,350.47,204.31Z"/>
    <path d="M342.35,209.86v15.39q0,2.43,1,3.27a6.2,6.2,0,0,0,3.77.85v1.43H332v-1.43q3.24,0,4-1c.51-.7.77-2.19.77-4.48V210.56a6.19,6.19,0,0,0-1.7-4.55,6,6,0,0,0-4.4-1.7,8.1,8.1,0,0,0-4.59,1.51,11.43,11.43,0,0,0-2.49,2.28l-1-.85a13.48,13.48,0,0,1,4.58-4.37,11.16,11.16,0,0,1,5.65-1.62,9.31,9.31,0,0,1,9,6.46l1.39.84C343,209,342.64,209.4,342.35,209.86Z"/>
    <path d="M322.44,207.25h.16l1,.85a13.32,13.32,0,0,0-1.21,1.76V225.5a3.78,3.78,0,0,0,1.07,3.08,6.12,6.12,0,0,0,3.8.87v1.35H312.05v-1.43c2.11,0,3.46-.33,4-1a5.75,5.75,0,0,0,.86-3.65v-17a4.54,4.54,0,0,0-.94-3.21,4.06,4.06,0,0,0-3.07-1h-1.78v-1.35l9.91-.87h1.39Z"/>
  </g>
</svg>
