<svg id="Layer_1" data-name="Layer 1" xmlns="http://www.w3.org/2000/svg" viewBox="0 0 900 600">
  <title>web</title>
  <rect width="900" height="600" fill="#304ffe"/>
  <g>
    <path d="M740.79,406.94V68.43A16,16,0,0,0,724.84,52.5H175.15a16,16,0,0,0-15.94,15.93V406.94Z" fill="#2f4a60"/>
    <path d="M158.08,407.58v48.95a17.06,17.06,0,0,0,17.07,17.06H724.84a17.06,17.06,0,0,0,17.08-17.06V407.58Z" fill="#d4edff"/>
    <path d="M550.56,545.7s-4.23-2.1-9.1-3.92c-5.18-1.95-11.42-4.4-15.09-6.16-6.43-3.08-7-5.11-9.39-15.65-2.63-11.5-5.09-35.78-6.08-46.38H389.12c-1,10.6-3.46,34.88-6.09,46.38-2.41,10.54-2.95,12.57-9.39,15.65-3.63,1.74-9.77,4.16-14.92,6.09h0c-4.94,1.87-9,3.3-9,3.3s-3.91,2.17,2.37,2.49H547.9C553.8,547.6,550.56,545.7,550.56,545.7Z" fill="#d4edff"/>
    <path d="M512.17,486.38c-.54-5-1-9.55-1.28-12.79H389.1c-.3,3.24-.74,7.76-1.28,12.79Z" fill="#acd4f8"/>
    <rect x="186.24" y="79.81" width="527.51" height="297.05" fill="#fff"/>
  </g>
  <g>
    <path d="M384.48,161.06H505.71l4.15,41.55a13.16,13.16,0,0,1-9.71,14l-46,12.27a35.19,35.19,0,0,1-18.11,0l-46-12.27a13.16,13.16,0,0,1-9.71-14Z" fill="#065baa"/>
    <path d="M384.48,161.06H505.71l4.15,41.55a13.16,13.16,0,0,1-9.71,14l-46,12.27a35.2,35.2,0,0,1-9,1.19V195.4a4.46,4.46,0,0,0-3.9-4.36c-.7-.1-1.4-.24-2.09-.4l-56.27-13.13Z" fill="#054480"/>
    <path d="M441.1,182.09,318.72,153.53a1.29,1.29,0,0,1,0-2.51L441.1,122.46a17.67,17.67,0,0,1,8,0L571.48,151a1.29,1.29,0,0,1,0,2.51L449.09,182.09A17.67,17.67,0,0,1,441.1,182.09Z" fill="#065baa"/>
    <path d="M363.68,164.71l62.67-17.44a4.4,4.4,0,0,1,2.36,8.47L366,173.18v40.59h-8.78V173.18A8.83,8.83,0,0,1,363.68,164.71Z" fill="#e31e30"/>
    <g>
      <circle cx="361.65" cy="218.15" r="8.78" fill="#065baa"/>
      <path d="M357.25,262.08H366a4.4,4.4,0,0,0,4.4-4.39v-22a8.79,8.79,0,0,0-8.79-8.79h0a8.78,8.78,0,0,0-8.78,8.79v22A4.39,4.39,0,0,0,357.25,262.08Z" fill="#e31e30"/>
    </g>
    <path id="CLEAN_" d="M228.35,309.38a19.26,19.26,0,0,0,.07,5.76,12,12,0,0,0,1.58,4.28,7.58,7.58,0,0,0,2.85,2.67,8.2,8.2,0,0,0,3.88.92,16,16,0,0,0,3.29-.3,12.19,12.19,0,0,0,2.46-.74,9.34,9.34,0,0,0,1.79-1l1.35-1a10.16,10.16,0,0,1,1.11-.74,2.05,2.05,0,0,1,1.06-.3,1.88,1.88,0,0,1,.88.19,1.19,1.19,0,0,1,.47.44l3.32,4.75a25.28,25.28,0,0,1-8.4,5.94,25.86,25.86,0,0,1-10.35,2,18.34,18.34,0,0,1-8.14-1.68A14.81,14.81,0,0,1,220,326a17.55,17.55,0,0,1-2.93-7,28.22,28.22,0,0,1-.23-8.71,37.08,37.08,0,0,1,1.94-8.22,35.78,35.78,0,0,1,3.56-7.17,32.38,32.38,0,0,1,4.89-5.93,30.22,30.22,0,0,1,5.94-4.47,28.88,28.88,0,0,1,6.71-2.83,26.7,26.7,0,0,1,7.25-1,21.49,21.49,0,0,1,5,.54,16.38,16.38,0,0,1,4,1.49A13.24,13.24,0,0,1,259.2,285a13.8,13.8,0,0,1,2.21,2.91L257,292.47a6.47,6.47,0,0,1-1.06.87,2.71,2.71,0,0,1-1.48.38,2,2,0,0,1-1-.28,7.27,7.27,0,0,1-.89-.68l-1-.88a6.38,6.38,0,0,0-1.36-.88,9.59,9.59,0,0,0-1.95-.68,12,12,0,0,0-2.74-.28,14,14,0,0,0-6,1.35,16.51,16.51,0,0,0-5.17,3.87,21.76,21.76,0,0,0-3.85,6.1A28.43,28.43,0,0,0,228.35,309.38Zm48.17-28.14H265.41l-12.21,50.5H281l2.18-9H266.49ZM300,310.53h14l2.1-8.39H302l3-12.2h18.37l2.14-8.7H295.89l-12.21,50.5h29.66l2.14-8.7H297Zm57-29.29,5.46,50.5h-8.59a3.29,3.29,0,0,1-2.22-.67,2.36,2.36,0,0,1-.83-1.79l-.44-9.08H333.47l-4.77,9.08A4.47,4.47,0,0,1,327,331a4.59,4.59,0,0,1-2.51.74h-8.73l29.8-50.5Zm-7,31.26s-1.07-20.43-1.1-21.45c-.25.55-11.38,21.45-11.38,21.45Zm56.77-31.26s-7.6,32.12-7.75,32.93L385.33,283a4.59,4.59,0,0,0-.5-.9,2,2,0,0,0-.64-.54,2.42,2.42,0,0,0-.85-.24c-.33,0-.73-.05-1.21-.05h-5.86l-12.21,50.5h9.82s7.56-32.38,7.69-33l13.6,31.16a2.73,2.73,0,0,0,1.29,1.49,4.87,4.87,0,0,0,2.1.38h5.8l12.2-50.5Zm1.87,44-1.6,6.45h26.32l1.7-6.45Z" fill="#e31e30"/>
    <g>
      <path d="M475,287.54a3.82,3.82,0,0,1-.88.85,1.74,1.74,0,0,1-2.26-.34c-.43-.41-1-.86-1.61-1.36a11.43,11.43,0,0,0-2.43-1.35,9.5,9.5,0,0,0-3.69-.62,11.38,11.38,0,0,0-4.06.69,9.88,9.88,0,0,0-3.17,1.9,9.34,9.34,0,0,0-2.13,2.82,9.89,9.89,0,0,0-1,3.45,4.93,4.93,0,0,0,.54,3.09,7,7,0,0,0,2,2.16,14.14,14.14,0,0,0,3.05,1.61l3.53,1.43a38.9,38.9,0,0,1,3.52,1.66,12.39,12.39,0,0,1,3,2.24,8.74,8.74,0,0,1,1.93,3.22,10.49,10.49,0,0,1,.39,4.61,20.59,20.59,0,0,1-2,7,20.2,20.2,0,0,1-4.26,5.78,19.75,19.75,0,0,1-6.17,3.92,20.52,20.52,0,0,1-7.78,1.44,17.22,17.22,0,0,1-8.13-1.84,14.47,14.47,0,0,1-5.54-4.95l2.86-3.43a3.16,3.16,0,0,1,.86-.67,2.1,2.1,0,0,1,1-.27,1.56,1.56,0,0,1,.95.38,12,12,0,0,1,1.06,1c.38.38.81.8,1.29,1.24a9.51,9.51,0,0,0,1.73,1.25,11,11,0,0,0,2.34,1,11.48,11.48,0,0,0,3.1.38,12.61,12.61,0,0,0,4.44-.76,10.93,10.93,0,0,0,3.51-2.13,10.79,10.79,0,0,0,2.42-3.27,12.67,12.67,0,0,0,1.17-4.21,5.52,5.52,0,0,0-.51-3.24,6.47,6.47,0,0,0-2-2.18,14.36,14.36,0,0,0-3-1.56l-3.53-1.34A32.48,32.48,0,0,1,452,305.5a10.69,10.69,0,0,1-3-2.22,8.67,8.67,0,0,1-1.91-3.33,11.66,11.66,0,0,1-.34-4.82,17.8,17.8,0,0,1,1.82-6.18,18.32,18.32,0,0,1,3.91-5.22,18.89,18.89,0,0,1,5.71-3.61,18.66,18.66,0,0,1,7.23-1.36,15.51,15.51,0,0,1,7.11,1.56,12.52,12.52,0,0,1,4.86,4.19Z" fill="#065baa"/>
      <path d="M504,294.58,502.77,300h-10l-7.12,31.19h-6.53l7.1-31.19h-10l1.22-5.39Z" fill="#065baa"/>
      <path d="M514.72,325.9a8.22,8.22,0,0,0,3.32-.68,9,9,0,0,0,2.79-1.89,12,12,0,0,0,2.15-2.95,15.83,15.83,0,0,0,1.37-3.82l5-22h6.55l-5,22a21.5,21.5,0,0,1-2.35,6,19,19,0,0,1-3.88,4.75,17.37,17.37,0,0,1-5.13,3.13,16.6,16.6,0,0,1-6.13,1.12,13.39,13.39,0,0,1-5.16-.92,9.36,9.36,0,0,1-3.61-2.59,9.87,9.87,0,0,1-2-4,14.66,14.66,0,0,1-.28-5.1,21.42,21.42,0,0,1,.4-2.4l5-22h6.57l-5,22c-.07.32-.13.63-.17.93s-.09.6-.12.89a10.58,10.58,0,0,0,.09,3.11,5.88,5.88,0,0,0,1,2.38,4.64,4.64,0,0,0,1.87,1.51A6.42,6.42,0,0,0,514.72,325.9Z" fill="#065baa"/>
      <path d="M567.57,310.42a25,25,0,0,1-2.35,8.37,22.68,22.68,0,0,1-4.78,6.56,21.18,21.18,0,0,1-6.66,4.28,21,21,0,0,1-8,1.53H532.91l8.34-36.58h12.9a15.09,15.09,0,0,1,6.17,1.19,11.82,11.82,0,0,1,4.39,3.29,12.67,12.67,0,0,1,2.47,5A17.85,17.85,0,0,1,567.57,310.42Zm-6.75.15a14.75,14.75,0,0,0-.14-4.45,8.61,8.61,0,0,0-1.4-3.41,6.73,6.73,0,0,0-2.59-2.16,8.7,8.7,0,0,0-3.74-.76h-6.3l-6,26.13H547a12.32,12.32,0,0,0,5.12-1.06,12.69,12.69,0,0,0,4.18-3.05,16.12,16.12,0,0,0,3-4.83A22.82,22.82,0,0,0,560.82,310.57Z" fill="#065baa"/>
      <path d="M596.52,294.58l-1.21,5.24H580.59l-2.36,10.39h11.56l-1.16,5H577.07l-2.43,10.67h14.77l-1.21,5.24H566.85l8.35-36.58Z" fill="#065baa"/>
      <path d="M605.79,294.62a1.83,1.83,0,0,1,.5.15,1.13,1.13,0,0,1,.37.32,3.21,3.21,0,0,1,.32.55l11.62,25c.08-.49.17-1,.26-1.43s.19-.9.28-1.3l5.31-23.3h5.79l-8.37,36.58H618.5a2.92,2.92,0,0,1-1.26-.24,1.66,1.66,0,0,1-.79-.9l-11.54-25c-.08.41-.16.8-.23,1.18s-.14.74-.21,1.07l-5.39,23.86h-5.8l8.35-36.58h3.44A4.92,4.92,0,0,1,605.79,294.62Z" fill="#065baa"/>
      <path d="M660.82,294.58,659.57,300h-10l-7.12,31.19H635.9L643,300H633l1.22-5.39Z" fill="#065baa"/>
    </g>
    <path d="M672.43,281.78l-.18,1.65-2.47,0-.8,7.41-2,0,.78-7.42-2.44,0,.19-1.66Zm5.25,4.83a4.23,4.23,0,0,1,.21.8,4.65,4.65,0,0,1,.42-.8L681,282a.77.77,0,0,1,.3-.27,1,1,0,0,1,.39-.06l1.65,0-1,9.07-1.73,0,.61-5.49.24-1.15-3,5.11a.86.86,0,0,1-.74.44h-.27a.59.59,0,0,1-.62-.42l-1.89-5v1.1l-.6,5.49-1.71,0,1-9.07,1.67,0a.92.92,0,0,1,.37,0,.84.84,0,0,1,.26.27Z" fill="#065baa"/>
  </g>
</svg>
