<svg id="Layer_1" data-name="Layer 1" xmlns="http://www.w3.org/2000/svg" viewBox="0 0 900 600">
  <title>web</title>
  <rect width="900" height="600" fill="#ff7043"/>
  <g>
    <path d="M740.79,406.94V68.43A16,16,0,0,0,724.84,52.5H175.15a16,16,0,0,0-15.94,15.93V406.94Z" fill="#2f4a60"/>
    <path d="M158.08,407.58v48.95a17.06,17.06,0,0,0,17.07,17.06H724.84a17.06,17.06,0,0,0,17.08-17.06V407.58Z" fill="#d4edff"/>
    <path d="M550.56,545.7s-4.23-2.1-9.1-3.92c-5.18-1.95-11.42-4.4-15.09-6.16-6.43-3.08-7-5.11-9.39-15.65-2.63-11.5-5.09-35.78-6.08-46.38H389.12c-1,10.6-3.46,34.88-6.09,46.38-2.41,10.54-2.95,12.57-9.39,15.65-3.63,1.74-9.77,4.16-14.92,6.09h0c-4.94,1.87-9,3.3-9,3.3s-3.91,2.17,2.37,2.49H547.9C553.8,547.6,550.56,545.7,550.56,545.7Z" fill="#d4edff"/>
    <path d="M512.17,486.38c-.54-5-1-9.55-1.28-12.79H389.1c-.3,3.24-.74,7.76-1.28,12.79Z" fill="#acd4f8"/>
    <rect x="186.24" y="79.81" width="527.51" height="297.05" fill="#fff"/>
  </g>
  <line x1="261.72" y1="245.93" x2="261.7" y2="245.93" fill="none" stroke="#77787b" stroke-miterlimit="10" stroke-width="0.1"/>
  <g>
    <path d="M570.25,282.81V258.93H567V286h18.58v-3.19Zm-39-17.38L525,276.52h12.48ZM546.49,286h-3.66l-3.57-6.33h-16L519.66,286H516l15.2-27.07Zm-57.93-24.06a10.84,10.84,0,0,1,7.62,3l.42.4L497,265l1.37-1.16.54-.45-.51-.5a14.8,14.8,0,0,0-20.09-.06,13.57,13.57,0,0,0-3.76,9.78c0,6.67,4.37,13.39,14,13.39a14.07,14.07,0,0,0,9.88-4l.49-.48-.5-.46-1.33-1.22-.44-.41-.44.42a11.16,11.16,0,0,1-7.66,3c-7.85,0-10.7-5.59-10.76-10.38a10.64,10.64,0,0,1,2.88-7.65,10.8,10.8,0,0,1,7.88-2.94M448.5,286h3.38V258.93H448.5ZM415,262.12h-6.26v20.65H415a10,10,0,0,0,10.72-10.59c-.1-5-3.46-10.06-10.72-10.06m14.07,10a13.69,13.69,0,0,1-3.7,9.88A14,14,0,0,1,415,286h-9.61V258.93H415c9.5,0,13.92,6.64,14.07,13.22m-61.48,10.62v-8.84h12.21v-3.12H367.56v-8.69H384v-3.19H364.19V286H384.5v-3.23ZM341.9,258.93V286h-3.34V268.56l-10.19,13.22-10.15-13.23V286h-3.39V258.93l13.56,17.22Z" fill="#0087cd"/>
    <g>
      <path d="M350,188.67h-25.2v-8.51h65.38v8.51h-25.2v41.19H350Z" fill="#39404f"/>
      <path d="M464.7,220.48H423.15l-6.81,9.38H400.1l35.65-49.7h16.34l35.65,49.7H471.4Zm-20.78-29.89-14.76,21.16h29.52Z" fill="#39404f"/>
      <path d="M562.63,180.09h15v49.77H568.3v.07l-41.77-33.59v33.52h-15v-49.7h12.14L562.63,211Z" fill="#39404f"/>
      <path d="M627.76,188.67H602.55v-8.51h65.39v8.51h-25.2v41.19h-15Z" fill="#39404f"/>
      <polygon points="244.98 180.16 253.9 180.16 281.22 205 253.9 229.84 244.98 229.84 272.3 205 244.98 180.16" fill="#0088ce"/>
      <polygon points="232.05 180.16 240.97 180.16 268.29 205 240.97 229.84 232.05 229.84 259.37 205 232.05 180.16" fill="#f37920"/>
      <g>
        <polygon points="274.85 214.1 292.15 229.84 308.36 229.84 282.95 206.74 274.85 214.1" fill="#39404f"/>
        <polygon points="282.95 203.26 308.36 180.16 292.15 180.16 274.85 195.89 282.95 203.26" fill="#39404f"/>
      </g>
    </g>
  </g>
</svg>
