<svg id="Layer_1" data-name="Layer 1" xmlns="http://www.w3.org/2000/svg" viewBox="0 0 900 600">
  <title>web</title>
  <rect width="900" height="600" fill="#ff5252"/>
  <g>
    <path d="M740.79,406.94V68.43A16,16,0,0,0,724.84,52.5H175.15a16,16,0,0,0-15.94,15.93V406.94Z" fill="#2f4a60"/>
    <path d="M158.08,407.58v48.95a17.06,17.06,0,0,0,17.07,17.06H724.84a17.06,17.06,0,0,0,17.08-17.06V407.58Z" fill="#d4edff"/>
    <path d="M550.56,545.7s-4.23-2.1-9.1-3.92c-5.18-1.95-11.42-4.4-15.09-6.16-6.43-3.08-7-5.11-9.39-15.65-2.63-11.5-5.09-35.78-6.08-46.38H389.12c-1,10.6-3.46,34.88-6.09,46.38-2.41,10.54-2.95,12.57-9.39,15.65-3.63,1.74-9.77,4.16-14.92,6.09h0c-4.94,1.87-9,3.3-9,3.3s-3.91,2.17,2.37,2.49H547.9C553.8,547.6,550.56,545.7,550.56,545.7Z" fill="#d4edff"/>
    <path d="M512.17,486.38c-.54-5-1-9.55-1.28-12.79H389.1c-.3,3.24-.74,7.76-1.28,12.79Z" fill="#acd4f8"/>
    <rect x="186.24" y="79.81" width="527.51" height="297.05" fill="#fff"/>
  </g>
  <g id="Runner_Logo" data-name="Runner Logo">
    <path id="EDQ" d="M265.52,303.38v3.83H252.08V316h10.74v3.71H252.08v9h13.46l0,3.83H247.31V303.38Zm3.05,29.19V311.89h2.63a1.08,1.08,0,0,1,1.14.83l.3,1.93a12.47,12.47,0,0,1,1.37-1.26,8.77,8.77,0,0,1,1.53-1,8.29,8.29,0,0,1,1.73-.63,8.45,8.45,0,0,1,2-.22,7.32,7.32,0,0,1,3,.57,5.88,5.88,0,0,1,2.17,1.6,6.87,6.87,0,0,1,1.33,2.48,11.08,11.08,0,0,1,.44,3.19v13.16h-4.33V319.41a4.93,4.93,0,0,0-1-3.24A3.6,3.6,0,0,0,278,315a5.68,5.68,0,0,0-2.7.67,9.29,9.29,0,0,0-2.35,1.83v15.06Zm28.18.33a5.23,5.23,0,0,1-4-1.45,5.66,5.66,0,0,1-1.39-4.09v-12h-2.27a.92.92,0,0,1-.63-.23.88.88,0,0,1-.26-.7v-1.77l3.34-.48.95-6a1.21,1.21,0,0,1,.35-.55,1,1,0,0,1,.65-.22h2.23v6.8h5.73v3.14h-5.73v11.74a2.43,2.43,0,0,0,.54,1.7,1.93,1.93,0,0,0,1.46.59,2.86,2.86,0,0,0,.88-.13,4,4,0,0,0,.62-.29c.18-.1.33-.19.46-.28a.65.65,0,0,1,.38-.13.65.65,0,0,1,.58.4l1.3,2.13a7,7,0,0,1-2.39,1.37A8.6,8.6,0,0,1,296.75,332.9Zm15.73-21.33a9.67,9.67,0,0,1,3.53.62,7.73,7.73,0,0,1,2.8,1.81,8.48,8.48,0,0,1,1.83,2.93,11,11,0,0,1,.66,3.94,2.77,2.77,0,0,1-.22,1.36.9.9,0,0,1-.81.35H307a10,10,0,0,0,.55,3.05,6.28,6.28,0,0,0,1.24,2.14,4.8,4.8,0,0,0,1.87,1.26,6.64,6.64,0,0,0,2.42.42,7.59,7.59,0,0,0,2.21-.29,11.59,11.59,0,0,0,1.62-.65c.46-.24.85-.46,1.18-.65a1.71,1.71,0,0,1,.89-.3.94.94,0,0,1,.81.41l1.24,1.6a8,8,0,0,1-1.75,1.54,10.44,10.44,0,0,1-2.06,1,11.57,11.57,0,0,1-2.25.56,14.83,14.83,0,0,1-2.26.18,10.79,10.79,0,0,1-4-.72,8.93,8.93,0,0,1-3.18-2.12,9.88,9.88,0,0,1-2.11-3.47,13.7,13.7,0,0,1-.76-4.76,11.74,11.74,0,0,1,.68-4,9.62,9.62,0,0,1,1.94-3.24,9.16,9.16,0,0,1,3.09-2.18A10.1,10.1,0,0,1,312.48,311.57Zm.08,3.16a5,5,0,0,0-3.73,1.36,6.6,6.6,0,0,0-1.72,3.81h10.28a6.41,6.41,0,0,0-.32-2,4.71,4.71,0,0,0-.92-1.64,4.08,4.08,0,0,0-1.51-1.09A5,5,0,0,0,312.56,314.73Zm12.17,17.84V311.89h2.53a1.35,1.35,0,0,1,.95.26,1.51,1.51,0,0,1,.37.88l.24,2.69a9.31,9.31,0,0,1,2.37-3.09,5.06,5.06,0,0,1,3.31-1.12,5.18,5.18,0,0,1,1.26.15,3.32,3.32,0,0,1,1.05.46l-.3,3.28a.84.84,0,0,1-.26.48.75.75,0,0,1-.45.13,5.31,5.31,0,0,1-.88-.11,5.65,5.65,0,0,0-1.19-.12,4.51,4.51,0,0,0-1.62.27,3.54,3.54,0,0,0-1.26.77,5.09,5.09,0,0,0-1,1.24,10.7,10.7,0,0,0-.79,1.66v12.85Zm14.37,6.87V311.89h2.63a1.08,1.08,0,0,1,1.14.83l.34,2.17a12.84,12.84,0,0,1,1.38-1.38,9.26,9.26,0,0,1,1.57-1.07,7.71,7.71,0,0,1,1.81-.69,8.41,8.41,0,0,1,2-.24,7,7,0,0,1,3.17.7,6.82,6.82,0,0,1,2.43,2,10,10,0,0,1,1.57,3.32,16.81,16.81,0,0,1,.56,4.53,14.31,14.31,0,0,1-.62,4.27,10.27,10.27,0,0,1-1.77,3.42,8.1,8.1,0,0,1-6.51,3.1,7.56,7.56,0,0,1-3.1-.58,7.43,7.43,0,0,1-2.29-1.61v8.75ZM348.56,315a5.44,5.44,0,0,0-2.87.72,8.08,8.08,0,0,0-2.23,2.06v9.59a5.06,5.06,0,0,0,2,1.65,5.91,5.91,0,0,0,2.4.48,4.74,4.74,0,0,0,4-1.86,9.1,9.1,0,0,0,1.43-5.56,13.84,13.84,0,0,0-.33-3.25,6,6,0,0,0-.93-2.2,3.58,3.58,0,0,0-1.48-1.24A4.78,4.78,0,0,0,348.56,315Zm12.77,17.56V311.89h2.53a1.4,1.4,0,0,1,1,.26,1.57,1.57,0,0,1,.36.88l.24,2.69a9.47,9.47,0,0,1,2.38-3.09,5,5,0,0,1,3.3-1.12,5.12,5.12,0,0,1,1.26.15,3.32,3.32,0,0,1,1.05.46l-.3,3.28a.84.84,0,0,1-.26.48.75.75,0,0,1-.45.13,5.21,5.21,0,0,1-.87-.11,5.81,5.81,0,0,0-1.2-.12,4.51,4.51,0,0,0-1.62.27,3.63,3.63,0,0,0-1.26.77,5.34,5.34,0,0,0-1,1.24,10.7,10.7,0,0,0-.79,1.66v12.85Zm19.53-26.92a2.64,2.64,0,0,1-.24,1.11,3,3,0,0,1-.64.93,3,3,0,0,1-.94.62,2.78,2.78,0,0,1-1.14.24,2.61,2.61,0,0,1-1.11-.24,2.84,2.84,0,0,1-.9-.62,3.29,3.29,0,0,1-.62-.93,2.63,2.63,0,0,1-.23-1.11,2.7,2.7,0,0,1,.23-1.14,3.1,3.1,0,0,1,.62-.92,3,3,0,0,1,.9-.63,2.76,2.76,0,0,1,1.11-.23A2.94,2.94,0,0,1,379,303a3.23,3.23,0,0,1,.94.63,2.82,2.82,0,0,1,.64.92A2.71,2.71,0,0,1,380.86,305.65Zm-.73,6.24v20.68h-4.36V311.89Zm16.93,3.75a1.07,1.07,0,0,1-.37.41,1,1,0,0,1-.5.12,1.64,1.64,0,0,1-.75-.21l-1-.48a9.65,9.65,0,0,0-1.28-.48,6.48,6.48,0,0,0-1.74-.21A5.57,5.57,0,0,0,390,315a3.39,3.39,0,0,0-1.11.55,2.49,2.49,0,0,0-.7.83,2.27,2.27,0,0,0-.25,1,1.71,1.71,0,0,0,.45,1.21,3.68,3.68,0,0,0,1.18.84,10.87,10.87,0,0,0,1.66.64l1.9.61c.65.22,1.29.47,1.91.75a7,7,0,0,1,1.66,1.05,4.71,4.71,0,0,1,1.18,1.5,4.63,4.63,0,0,1,.44,2.13,6.81,6.81,0,0,1-.52,2.7,6.08,6.08,0,0,1-1.54,2.15,7.13,7.13,0,0,1-2.53,1.42,10.75,10.75,0,0,1-3.45.51,10.87,10.87,0,0,1-2.08-.2,12.43,12.43,0,0,1-1.91-.52,10.84,10.84,0,0,1-1.68-.8,9.42,9.42,0,0,1-1.39-1l1-1.66a1.63,1.63,0,0,1,.46-.48,1.29,1.29,0,0,1,.68-.17,1.54,1.54,0,0,1,.84.27c.28.19.6.39,1,.6a7.78,7.78,0,0,0,1.35.6,6.2,6.2,0,0,0,2,.27,5.25,5.25,0,0,0,1.68-.23,3.33,3.33,0,0,0,1.18-.64A2.62,2.62,0,0,0,394,328a2.7,2.7,0,0,0,.22-1.1,1.89,1.89,0,0,0-.45-1.3,3.62,3.62,0,0,0-1.18-.87,10.9,10.9,0,0,0-1.68-.65c-.63-.19-1.27-.4-1.92-.61s-1.29-.47-1.92-.75a6.84,6.84,0,0,1-1.68-1.09,4.86,4.86,0,0,1-1.18-1.6,5.3,5.3,0,0,1-.45-2.3,5.58,5.58,0,0,1,.5-2.35,5.66,5.66,0,0,1,1.46-2,7.35,7.35,0,0,1,2.37-1.35,9.79,9.79,0,0,1,3.25-.49,10.19,10.19,0,0,1,3.79.67,8.11,8.11,0,0,1,2.86,1.82Zm13.23-4.07a9.71,9.71,0,0,1,3.53.62,7.61,7.61,0,0,1,2.79,1.81,8.36,8.36,0,0,1,1.84,2.93,11,11,0,0,1,.66,3.94,2.74,2.74,0,0,1-.23,1.36.87.87,0,0,1-.81.35H404.79a10.65,10.65,0,0,0,.55,3.05,6.3,6.3,0,0,0,1.25,2.14,4.84,4.84,0,0,0,1.86,1.26,6.7,6.7,0,0,0,2.43.42,7.64,7.64,0,0,0,2.21-.29,11.59,11.59,0,0,0,1.62-.65c.46-.24.85-.46,1.17-.65a1.77,1.77,0,0,1,.9-.3.94.94,0,0,1,.81.41l1.23,1.6a7.7,7.7,0,0,1-1.74,1.54,10.52,10.52,0,0,1-2.07,1,11.57,11.57,0,0,1-2.25.56,14.6,14.6,0,0,1-2.25.18,10.79,10.79,0,0,1-4-.72,8.88,8.88,0,0,1-3.19-2.12,9.86,9.86,0,0,1-2.1-3.47,13.7,13.7,0,0,1-.76-4.76,11.51,11.51,0,0,1,.68-4,9.62,9.62,0,0,1,1.94-3.24,9.12,9.12,0,0,1,3.08-2.18A10.15,10.15,0,0,1,410.29,311.57Zm.08,3.16a5,5,0,0,0-3.73,1.36,6.53,6.53,0,0,0-1.72,3.81h10.27a6.41,6.41,0,0,0-.31-2,4.87,4.87,0,0,0-.92-1.64,4.16,4.16,0,0,0-1.51-1.09A5,5,0,0,0,410.37,314.73ZM459.69,318a16.13,16.13,0,0,1-1.05,5.93,13.07,13.07,0,0,1-7.57,7.61,16.06,16.06,0,0,1-6,1.06h-11V303.38h11a16.06,16.06,0,0,1,6,1.06,13.09,13.09,0,0,1,7.57,7.6A16.2,16.2,0,0,1,459.69,318Zm-4.84,0a14.16,14.16,0,0,0-.68-4.52,9.3,9.3,0,0,0-1.95-3.38,8.33,8.33,0,0,0-3.07-2.12,10.63,10.63,0,0,0-4-.74h-6.27v21.53h6.27a10.63,10.63,0,0,0,4-.73,8.21,8.21,0,0,0,3.07-2.12,9.3,9.3,0,0,0,1.95-3.38A14.2,14.2,0,0,0,454.85,318Zm21.6,14.6a1.85,1.85,0,0,1-.95-.19,1.48,1.48,0,0,1-.55-.78l-.43-1.68a15.55,15.55,0,0,1-1.56,1.27,9.91,9.91,0,0,1-1.59.94,8.43,8.43,0,0,1-1.76.57,10.34,10.34,0,0,1-2.08.2,7.65,7.65,0,0,1-2.34-.35,5.22,5.22,0,0,1-1.88-1,5,5,0,0,1-1.25-1.74,6.06,6.06,0,0,1-.45-2.43,4.65,4.65,0,0,1,.64-2.33,5.76,5.76,0,0,1,2.11-2,13.54,13.54,0,0,1,3.87-1.49,28.66,28.66,0,0,1,5.93-.67v-1.38a4.93,4.93,0,0,0-1-3.32,3.49,3.49,0,0,0-2.79-1.1,6.12,6.12,0,0,0-2.11.32,8.93,8.93,0,0,0-1.48.68c-.42.24-.79.47-1.12.68a1.85,1.85,0,0,1-1,.31,1.27,1.27,0,0,1-.76-.23,2.06,2.06,0,0,1-.52-.58l-.79-1.42a11.86,11.86,0,0,1,8.35-3.26,8.16,8.16,0,0,1,3.18.58,6.25,6.25,0,0,1,2.33,1.63,7.1,7.1,0,0,1,1.44,2.5,9.92,9.92,0,0,1,.49,3.21v13.14Zm-7.6-2.72a6.36,6.36,0,0,0,2.93-.63,9.55,9.55,0,0,0,2.38-1.84v-3.85a33.12,33.12,0,0,0-3.94.38,10.64,10.64,0,0,0-2.59.75,3.66,3.66,0,0,0-1.43,1.09,2.33,2.33,0,0,0-.44,1.37,2.92,2.92,0,0,0,.24,1.24,2.23,2.23,0,0,0,.65.86,2.6,2.6,0,0,0,1,.48A4.71,4.71,0,0,0,468.85,329.85Zm20,3a5.27,5.27,0,0,1-4-1.45,5.7,5.7,0,0,1-1.38-4.09v-12h-2.27a.92.92,0,0,1-.63-.23.88.88,0,0,1-.27-.7v-1.77l3.35-.48.95-6a1.14,1.14,0,0,1,.35-.55.94.94,0,0,1,.64-.22h2.23v6.8h5.74v3.14h-5.74v11.74a2.43,2.43,0,0,0,.55,1.7,1.91,1.91,0,0,0,1.46.59,2.75,2.75,0,0,0,.87-.13,3.76,3.76,0,0,0,.63-.29c.18-.1.33-.19.46-.28a.64.64,0,0,1,.37-.13.66.66,0,0,1,.59.4l1.3,2.13a7,7,0,0,1-2.39,1.37A8.6,8.6,0,0,1,488.89,332.9Zm21.33-.33a1.92,1.92,0,0,1-1-.19,1.47,1.47,0,0,1-.54-.78l-.43-1.68a16.77,16.77,0,0,1-1.56,1.27,10.86,10.86,0,0,1-1.59.94,8.33,8.33,0,0,1-1.77.57,10.17,10.17,0,0,1-2.07.2,7.76,7.76,0,0,1-2.35-.35,5.26,5.26,0,0,1-1.87-1,5,5,0,0,1-1.25-1.74,6.06,6.06,0,0,1-.45-2.43A4.75,4.75,0,0,1,496,325a5.84,5.84,0,0,1,2.11-2,13.66,13.66,0,0,1,3.87-1.49,28.74,28.74,0,0,1,5.93-.67v-1.38a4.93,4.93,0,0,0-.95-3.32,3.51,3.51,0,0,0-2.8-1.1,6.06,6.06,0,0,0-2.1.32,8.56,8.56,0,0,0-1.48.68c-.42.24-.79.47-1.12.68a1.85,1.85,0,0,1-1,.31,1.27,1.27,0,0,1-.76-.23,1.92,1.92,0,0,1-.52-.58l-.79-1.42a11.86,11.86,0,0,1,8.35-3.26,8.07,8.07,0,0,1,3.17.58,6.21,6.21,0,0,1,2.34,1.63,7.42,7.42,0,0,1,1.44,2.5,9.92,9.92,0,0,1,.49,3.21v13.14Zm-7.61-2.72a6.34,6.34,0,0,0,2.93-.63,9.37,9.37,0,0,0,2.38-1.84v-3.85a33.14,33.14,0,0,0-3.93.38,10.51,10.51,0,0,0-2.59.75,3.59,3.59,0,0,0-1.43,1.09,2.33,2.33,0,0,0-.44,1.37,3.08,3.08,0,0,0,.23,1.24,2.45,2.45,0,0,0,.65.86,2.64,2.64,0,0,0,1,.48A4.69,4.69,0,0,0,502.61,329.85Zm53-11.88a17.57,17.57,0,0,1-.41,3.83,15.41,15.41,0,0,1-1.17,3.39,13.52,13.52,0,0,1-1.89,2.88,13,13,0,0,1-2.53,2.27l7.44,8.07h-3.9a4.84,4.84,0,0,1-1.54-.23,3.22,3.22,0,0,1-1.23-.84l-4.69-5.13a16.47,16.47,0,0,1-2.26.49,15.74,15.74,0,0,1-2.42.18,15.42,15.42,0,0,1-6-1.12,13.46,13.46,0,0,1-7.59-7.8,17.43,17.43,0,0,1,0-12,13.49,13.49,0,0,1,7.59-7.82,16.42,16.42,0,0,1,11.92,0,13.44,13.44,0,0,1,4.6,3.1,13.83,13.83,0,0,1,3,4.72A16.38,16.38,0,0,1,555.61,318Zm-4.85,0a13.89,13.89,0,0,0-.68-4.52,9.6,9.6,0,0,0-1.94-3.4,8.45,8.45,0,0,0-3.07-2.15,10.53,10.53,0,0,0-4.06-.75,10.37,10.37,0,0,0-4,.75,8.52,8.52,0,0,0-3.09,2.15,9.64,9.64,0,0,0-2,3.4,15.25,15.25,0,0,0,0,9.07,9.51,9.51,0,0,0,2,3.39A8.47,8.47,0,0,0,537,328a10.56,10.56,0,0,0,4,.74,10.72,10.72,0,0,0,4.06-.74,8.4,8.4,0,0,0,3.07-2.13,9.47,9.47,0,0,0,1.94-3.39A14,14,0,0,0,550.76,318Zm12.74-6.08v13.16a4.93,4.93,0,0,0,1,3.24,3.61,3.61,0,0,0,2.93,1.16,5.67,5.67,0,0,0,2.69-.66,9.11,9.11,0,0,0,2.34-1.81V311.89h4.36v20.68h-2.63a1.06,1.06,0,0,1-1.12-.83l-.32-1.93A11.41,11.41,0,0,1,569.8,332a7.72,7.72,0,0,1-3.7.86,7.37,7.37,0,0,1-3-.57,5.86,5.86,0,0,1-2.18-1.6,6.92,6.92,0,0,1-1.33-2.49,10.69,10.69,0,0,1-.45-3.19V311.89Zm31.28,20.68a1.88,1.88,0,0,1-.95-.19,1.48,1.48,0,0,1-.55-.78l-.42-1.68a16.77,16.77,0,0,1-1.56,1.27,10.86,10.86,0,0,1-1.59.94,8.33,8.33,0,0,1-1.77.57,10.27,10.27,0,0,1-2.08.2,7.65,7.65,0,0,1-2.34-.35,5.17,5.17,0,0,1-1.87-1,4.91,4.91,0,0,1-1.25-1.74,6.05,6.05,0,0,1-.46-2.43,4.76,4.76,0,0,1,.64-2.33,5.84,5.84,0,0,1,2.11-2,13.66,13.66,0,0,1,3.87-1.49,28.66,28.66,0,0,1,5.93-.67v-1.38a5,5,0,0,0-1-3.32,3.52,3.52,0,0,0-2.8-1.1,6.12,6.12,0,0,0-2.11.32,9.32,9.32,0,0,0-1.48.68c-.42.24-.79.47-1.11.68a1.89,1.89,0,0,1-1,.31,1.29,1.29,0,0,1-.76-.23,1.89,1.89,0,0,1-.51-.58l-.79-1.42a11.84,11.84,0,0,1,8.35-3.26,8.07,8.07,0,0,1,3.17.58,6.1,6.1,0,0,1,2.33,1.63,7.1,7.1,0,0,1,1.44,2.5,9.91,9.91,0,0,1,.5,3.21v13.14Zm-7.6-2.72a6.34,6.34,0,0,0,2.93-.63,9.37,9.37,0,0,0,2.38-1.84v-3.85a33.14,33.14,0,0,0-3.93.38,10.73,10.73,0,0,0-2.6.75,3.62,3.62,0,0,0-1.42,1.09,2.26,2.26,0,0,0-.44,1.37,3.08,3.08,0,0,0,.23,1.24,2.34,2.34,0,0,0,.65.86,2.67,2.67,0,0,0,1,.48A4.76,4.76,0,0,0,587.18,329.85Zm18.38-27.28v30H601.2v-30Zm9.77,3.08a2.64,2.64,0,0,1-.24,1.11,2.94,2.94,0,0,1-.63.93,3.06,3.06,0,0,1-1,.62,2.74,2.74,0,0,1-1.14.24,2.64,2.64,0,0,1-1.11-.24,3,3,0,0,1-.9-.62,3.29,3.29,0,0,1-.62-.93,2.79,2.79,0,0,1-.23-1.11,2.87,2.87,0,0,1,.23-1.14,3.1,3.1,0,0,1,.62-.92,3.17,3.17,0,0,1,.9-.63,2.79,2.79,0,0,1,1.11-.23,2.9,2.9,0,0,1,1.14.23,3.28,3.28,0,0,1,1,.63,2.79,2.79,0,0,1,.63.92A2.71,2.71,0,0,1,615.33,305.65Zm-.73,6.24v20.68h-4.36V311.89Zm11.12,21a5.27,5.27,0,0,1-4-1.45,5.71,5.71,0,0,1-1.39-4.09v-12h-2.27a1,1,0,0,1-.63-.23.91.91,0,0,1-.26-.7v-1.77l3.35-.48,1-6a1.2,1.2,0,0,1,.34-.55,1,1,0,0,1,.65-.22h2.23v6.8h5.74v3.14h-5.74v11.74a2.43,2.43,0,0,0,.55,1.7,1.9,1.9,0,0,0,1.46.59,2.75,2.75,0,0,0,.87-.13,4.68,4.68,0,0,0,.63-.29c.18-.1.33-.19.46-.28a.62.62,0,0,1,.37-.13.67.67,0,0,1,.59.4l1.3,2.13a7.09,7.09,0,0,1-2.4,1.37A8.5,8.5,0,0,1,625.72,332.9Zm15.56,5.55a2.21,2.21,0,0,1-.54.73,1.43,1.43,0,0,1-1,.26h-3.22l3.81-8.27-8.43-19.28h3.79a1.26,1.26,0,0,1,.84.26,1.48,1.48,0,0,1,.43.59l4.93,11.74a19.56,19.56,0,0,1,.61,2c.11-.35.22-.7.33-1s.24-.68.38-1L648,312.74a1.4,1.4,0,0,1,.48-.6,1.18,1.18,0,0,1,.74-.25h3.49Z" fill="#065baa"/>
    <path id="Runner" d="M356.33,196c6.45-2.23,12.68-7.94,12.68-18.37,0-12.18-8.24-19.46-22-19.46H326a2.45,2.45,0,0,0-2.45,2.45v59.11a2.46,2.46,0,0,0,2.45,2.46h4.6a2.46,2.46,0,0,0,2.46-2.46V197.67h13.21l15.18,23.43a2.46,2.46,0,0,0,2.06,1.12h5.33a2.46,2.46,0,0,0,2.06-3.8Zm-23.26-7.59v-21H346.7c11.47,0,12.8,6,12.8,10.51s-1.33,10.5-12.8,10.5Zm80.15-13.26v26.1c0,13.51-7.86,21.58-21,21.58-13.36,0-21-7.86-21-21.58v-26.1a2.46,2.46,0,0,1,2.45-2.46h4.6a2.46,2.46,0,0,1,2.46,2.46v26.38c0,8.47,3.55,12.25,11.51,12.25s11.52-3.89,11.52-12.25V175.18a2.46,2.46,0,0,1,2.45-2.46h4.6A2.46,2.46,0,0,1,413.22,175.18Zm45.4,15.53v29a2.46,2.46,0,0,1-2.46,2.46h-4.59a2.46,2.46,0,0,1-2.46-2.46v-29c0-4.83-1.29-9.31-10.68-9.31a35.64,35.64,0,0,0-11.7,2.11v36.25a2.46,2.46,0,0,1-2.46,2.46h-4.5a2.46,2.46,0,0,1-2.46-2.46V179.13a2.46,2.46,0,0,1,1.3-2.17,45.71,45.71,0,0,1,20.27-5.06C451.43,171.9,458.62,178.75,458.62,190.71Zm45.5,0v29a2.46,2.46,0,0,1-2.46,2.46h-4.59a2.46,2.46,0,0,1-2.46-2.46v-29c0-4.83-1.29-9.31-10.69-9.31a35.69,35.69,0,0,0-11.7,2.11v36.25a2.46,2.46,0,0,1-2.45,2.46h-4.51a2.46,2.46,0,0,1-2.45-2.46V179.13a2.46,2.46,0,0,1,1.3-2.17,45.71,45.71,0,0,1,20.27-5.06C496.92,171.9,504.12,178.75,504.12,190.71ZM528.87,172c-16.45,0-22.32,13.61-22.32,26.35,0,21.33,14.79,24.52,23.6,24.52a39.81,39.81,0,0,0,15.93-3.08,2.45,2.45,0,0,0,1.42-2.23v-4.68a2.46,2.46,0,0,0-3.64-2.16c-3.21,1.77-8.2,2.82-13.34,2.82-10.84,0-12.93-5.62-13.56-9.85a2.76,2.76,0,0,0-.16-.58,4.63,4.63,0,0,1-.21-.56H548a2.45,2.45,0,0,0,2.45-2.24,19,19,0,0,0,.1-2.6C550.53,185.27,544.84,172,528.87,172Zm-12.52,21.6c1-8.32,5-12.37,12.24-12.37,9.42,0,11.67,7.95,12.19,12.37Zm61.94-19.14v4.4a2.46,2.46,0,0,1-2.39,2.46,60.21,60.21,0,0,0-14.06,2.17v36.28a2.46,2.46,0,0,1-2.46,2.46h-4.5a2.46,2.46,0,0,1-2.46-2.46V178.67a2.46,2.46,0,0,1,1.49-2.26,59.74,59.74,0,0,1,21.9-4.42,2.6,2.6,0,0,1,1.75.71A2.44,2.44,0,0,1,578.29,174.45Zm2,42.77h-1.7V216h4.85v1.2h-1.72v5.11H580.3Zm9.31,5.11H591l-.33-6.31h-1.87l-.67,2.09c-.21.71-.43,1.54-.6,2.27h0a22.42,22.42,0,0,0-.53-2.26l-.62-2.1h-1.89l-.41,6.31h1.32l.12-2.4c0-.79.08-1.76.11-2.61h0c.15.82.36,1.72.57,2.47l.67,2.43H588l.77-2.46c.24-.74.51-1.64.71-2.44h0c0,.92,0,1.83.06,2.59Z" fill="#065baa"/>
    <path id="Blue_Swoosh" data-name="Blue Swoosh" d="M614.93,245.61S686.13,126.24,397.09,119c0,0,93.11-9.48,182.62,15.25,88.28,24.4,109.08,75.94,35.22,111.36" fill="#065baa"/>
    <path id="RED_Swoosh" data-name="RED Swoosh" d="M285.06,146.93s-71.2,119.37,217.83,126.6c0,0-93.1,9.48-182.61-15.25C232,233.89,211.2,182.34,285.06,146.93" fill="#e31e30"/>
  </g>
</svg>
