<?xml version="1.0" encoding="utf-8"?>
<!-- Generator: Adobe Illustrator 23.0.3, SVG Export Plug-In . SVG Version: 6.00 Build 0)  -->
<svg version="1.1" id="Layer_1" xmlns="http://www.w3.org/2000/svg" xmlns:xlink="http://www.w3.org/1999/xlink" x="0px" y="0px"
	 viewBox="0 0 900 900" style="enable-background:new 0 0 900 900;" xml:space="preserve">
<style type="text/css">
	.st0{fill:#448AFF;}
	.st1{fill-rule:evenodd;clip-rule:evenodd;fill:#7E57C2;}
	.st2{fill-rule:evenodd;clip-rule:evenodd;fill:#673AB7;}
	.st3{fill-rule:evenodd;clip-rule:evenodd;fill:#B39DDB;}
	.st4{fill:#7E57C2;}
	.st5{fill:#EF9A9A;}
	.st6{fill-rule:evenodd;clip-rule:evenodd;fill:#E1977F;}
	.st7{fill-rule:evenodd;clip-rule:evenodd;fill:#F2A891;}
	.st8{fill:#FF8A80;}
	.st9{fill:#E1977F;}
	.st10{fill-rule:evenodd;clip-rule:evenodd;fill:#B58979;}
	.st11{fill:#ECEFF1;}
	.st12{fill-rule:evenodd;clip-rule:evenodd;fill:#9E7163;}
	.st13{fill-rule:evenodd;clip-rule:evenodd;fill:#F2C1AD;}
	.st14{fill-rule:evenodd;clip-rule:evenodd;fill:#CE998A;}
	.st15{fill-rule:evenodd;clip-rule:evenodd;fill:#8C6239;}
	.st16{fill-rule:evenodd;clip-rule:evenodd;fill:#42210B;}
	.st17{fill-rule:evenodd;clip-rule:evenodd;fill:#754C24;}
	.st18{fill-rule:evenodd;clip-rule:evenodd;fill:#DC7D6D;}
	.st19{fill-rule:evenodd;clip-rule:evenodd;fill:#C44B3B;}
	.st20{fill:#C44B3B;}
	.st21{fill:#2962FF;}
	.st22{fill:#3949AB;}
	.st23{fill-rule:evenodd;clip-rule:evenodd;fill:#FDEEED;}
	.st24{fill-rule:evenodd;clip-rule:evenodd;fill:#824837;}
	.st25{fill-rule:evenodd;clip-rule:evenodd;fill:#5C6006;}
	.st26{fill-rule:evenodd;clip-rule:evenodd;fill:#683227;}
	.st27{opacity:0.8;fill-rule:evenodd;clip-rule:evenodd;fill:url(#SVGID_1_);enable-background:new    ;}
	.st28{fill-rule:evenodd;clip-rule:evenodd;}
	.st29{opacity:0.8;fill-rule:evenodd;clip-rule:evenodd;fill:url(#SVGID_2_);enable-background:new    ;}
	.st30{fill:#2979FF;}
	.st31{fill-rule:evenodd;clip-rule:evenodd;fill:#EF9A9A;}
	.st32{fill:#FFFFFF;}
	.st33{fill:#CFD8DC;}
	.st34{fill:#6200EA;}
	.st35{opacity:0.2;fill:#546E7A;enable-background:new    ;}
	.st36{fill:#5E35B1;}
	.st37{opacity:0.25;fill:url(#SVGID_3_);enable-background:new    ;}
	.st38{opacity:0.25;fill:url(#SVGID_4_);enable-background:new    ;}
</style>
<g>
	<path class="st0" d="M874.3,474.8C861.4,698,676.4,875,450,875C215.3,875,25,684.7,25,450S215.3,25,450,25s425,190.3,425,425
		C875,458.3,874.8,466.6,874.3,474.8"/>
</g>
<g>
	<g>
		<g>
			<g>
				<path class="st1" d="M493.5,867c5.1,0,10.2-0.4,15.4-0.9c5-3.5,11-5.5,17.1-5.5c3.8,0,7.6,0,11.4-0.1
					c14.9-3.8,29.6-8.6,44.3-14.2c12.4-4.7,24.7-9.6,37.2-14c10.9-3.8,22-6.6,32.8-10.7c15.7-6.9,30.4-16,44.5-26.1
					c0.3-0.2,0.5-0.3,0.7-0.5l0.1-0.1c2-1.5,3.9-2.9,5.9-4.4c3.7-2.8,7.4-5.6,11.2-8.5c5.7-4.3,11.4-8.6,17.1-12.8
					c-23.5-46.2-73.8-77.7-132.1-77.7c-94.3,0-188.5,0-282.8,0c-62.3,0-115.4,36-136.6,87.4c0.8,0.6,1.7,1.2,2.5,1.7
					c4.9,3.2,10,5.5,15.1,8.4c9.9,5.7,17.3,14.7,27.1,20.7c6,3.7,12.2,7,18.3,10.4c1-1.2,2.9-1.7,4.5-0.3
					c5.8,5.3,12.5,8.9,19.5,12.3c1.1-1,2.7-1.3,4.2,0c2.2,2.1,4.8,3.9,7.5,5.5c0.5,0.2,0.9,0.5,1.4,0.7c15.6,3.5,31.5,6,45.3,13.7
					c4.6,0.7,9.1,1.6,13.6,3.2c10.4,3.5,20.4,8.2,30.5,12.4c0.1,0.1,0.3,0.1,0.4,0.2c39,0,78.1,0,117.1,0
					C488.8,867.4,491.1,867,493.5,867z"/>
				<path class="st2" d="M316.4,691.7c-62.3,0-115.4,36-136.6,87.4c0.8,0.6,1.7,1.2,2.5,1.7c4.9,3.2,10,5.5,15.1,8.4
					c9.9,5.7,17.3,14.7,27.1,20.7c5.8,3.5,11.8,6.8,17.7,10.1c3.4-72.2,48-128.3,102.8-128.3C335.4,691.7,325.9,691.7,316.4,691.7z"
					/>
				<path class="st3" d="M678.3,806.8c7.4-4.7,14.5-10.2,21.7-15c0.1-0.1,0.2-0.1,0.3-0.2c1.3-1.4,2.7-2.7,4.1-4.1
					c8-7.7,16.3-14.9,25-21.6c-24.2-44.3-73.5-74.2-130.3-74.2c-9.5,0-19.1,0-28.6,0c52.1,0,94.9,50.6,101.8,117.5
					C674.3,808.3,676.3,807.6,678.3,806.8z"/>
				<path class="st4" d="M724.3,768.3c3.2-2.2,6.5-4,9.9-5.8c-25.1-45.6-76.1-76.4-135-76.4c-94.3,0-188.6,0-282.9,0
					c-64.3,0-119.2,36.6-141.3,89.4c0.1,0.1,0.2,0.2,0.3,0.3c2.3,1.7,4.7,3.3,7,4.9c0.7,0.5,1.5,1,2.3,1.4c20.1-50,71.5-85,131.9-85
					c94.2,0,188.4,0,282.6,0C653.7,697.2,701,725.8,724.3,768.3z"/>
			</g>
			<g>
				<path class="st5" d="M457.7,748.5c-56.5,0-117.7-17.8-118.4-56.8c0-1.1,0-2.2,0-3.3c1-0.5,2-1,2.9-1.6
					c0.8-0.4,19.5-10.7,19.3-32.9c-0.3-32.7-0.4-65.4-0.5-98.2c64.5,0,128.9,0,193.4,0c0,32.7-0.2,65.5-0.5,98.2
					c-0.2,22.3,18.5,32.5,19.3,33c1,0.5,1.9,1,2.9,1.6c0,1.1,0,2.2,0,3.2C575.5,730.7,514.2,748.5,457.7,748.5z M350.8,694.6
					c3.8,28.2,55.8,42.9,106.9,42.9s103.1-14.7,106.9-42.9c-6.8-4.6-22.2-17.6-22.1-40.7c0.1-9.3,0.1-18.6,0.2-28
					c0.1-19.7,0.2-39.5,0.2-59.2c-56.8,0-113.6,0-170.5,0c0,29.1,0.2,58.1,0.4,87.2C373.1,677,357.7,689.9,350.8,694.6z"/>
				<path class="st6" d="M367,624.6c22.9,21.3,48.9,47.6,53.5,50.5c6.8,4.3,22,6.4,37.2,6.4s30.4-2.2,37.2-6.4
					c4.6-2.9,30.6-21.6,53.5-41.9c0.2-24,0.3-48,0.3-72c-60.6,0-121.3,0-181.9,0C366.8,582.3,366.9,603.5,367,624.6z"/>
				<path class="st7" d="M366.8,561.2c0,0,0.2,66.6,0.4,92.7c0.2,26-22.3,37.8-22.2,37.8c1.4,68.4,224,68.4,225.6,0
					c0,0-22.5-11.8-22.2-37.8s0.5-92.7,0.5-92.7C488.1,561.2,427.4,561.2,366.8,561.2z"/>
			</g>
			<g>
				<path class="st7" d="M319.3,501.6c-11.5,0-23.3-9.8-31.5-26.1c-7.4-14.6-10.9-41.6-8.1-61.4c2.2-15.6,10.2-25.3,20.8-25.3
					c3.4,0,6.9,1,10.4,2.9c0.7,0.4,1.4,0.8,2.1,1.1c0,0.9,0.1,1.8,0.1,2.6c0.2,3.9,0.4,8.2,0.7,12.8c0.4,5.8,0.9,12.2,1.6,19.5
					c0.7,8,1.6,16.4,2.6,25.1c0.9,8.2,1.9,16.6,3,25c0.9,6.6,1.8,12.6,2.7,18.5c0.3,1.7,0.5,3.5,0.8,5.2c-1.6,0-3.1,0.1-4.7,0.1
					C319.6,501.6,319.4,501.6,319.3,501.6z"/>
				<path class="st8" d="M300.3,393.2c2.7,0,5.7,0.8,8.7,2.5c0.2,4.3,0.4,8.6,0.7,12.9c0.4,6.5,1,13,1.6,19.6
					c0.8,8.4,1.6,16.8,2.6,25.2c0.9,8.4,1.9,16.8,3,25.1c0.8,6.3,1.7,12.5,2.7,18.6c-0.1,0-0.3,0-0.4,0c-8.7,0-19.8-7.3-28.1-23.9
					c-6.9-13.7-10.3-39.9-7.6-58.5C285.5,401,291.9,393.2,300.3,393.2 M300.5,384.2c-9.9,0-21.7,7.7-24.8,29.2
					c-3,20.6,0.8,48.8,8.5,64.2c8.9,17.8,22.1,28.4,35,28.4c0.2,0,0.4,0,0.6,0c3.1-0.1,6.3-0.2,9.4-0.3c-0.6-3.5-1.1-6.9-1.6-10.4
					c-0.9-5.9-1.8-11.9-2.7-18.4c-1.1-8.3-2.1-16.6-3-24.8c-0.9-8.6-1.8-17-2.6-25c-0.7-7.2-1.2-13.5-1.6-19.3
					c-0.3-4.6-0.6-8.8-0.7-12.7c-0.1-1.8-0.2-3.5-0.2-5.3c-1.4-0.8-2.8-1.5-4.2-2.3C308.5,385.4,304.4,384.2,300.5,384.2
					L300.5,384.2z"/>
			</g>
			<g>
				<path class="st6" d="M596.7,501.1c-1.5,0-2.9-0.1-4.4-0.1c0.3-1.5,0.5-3.1,0.8-4.6c0.9-5.5,1.9-11.6,2.9-18.5
					c1.1-7.7,2.1-15.9,3.2-25c1.1-9.1,2-18.2,2.7-25.1c0.7-7.3,1.3-13.6,1.7-19.4c0.3-4.1,0.5-8.4,0.7-12.8c0-0.8,0.1-1.6,0.1-2.4
					c0.7-0.3,1.3-0.7,2-1c3.7-1.9,7.3-2.8,10.8-2.8c11.1,0,19.1,9.3,21.5,24.9c3,19.7-0.7,46.5-8.4,61.1
					c-8.6,16.2-20.9,25.9-32.8,25.9C597,501.1,596.9,501.1,596.7,501.1z"/>
				<path class="st5" d="M617.1,393.2c8.9,0,15.6,7.7,17.7,21.5c2.8,18.6-0.8,44.8-8,58.5c-8.7,16.5-20.4,23.9-29.6,23.9
					c-0.1,0-0.3,0-0.4,0c1-6.1,2-12.4,2.9-18.6c1.2-8.3,2.2-16.7,3.2-25.1s1.8-16.8,2.7-25.2c0.6-6.6,1.2-13.1,1.7-19.6
					c0.3-4.3,0.6-8.7,0.7-12.9C611.1,394,614.2,393.2,617.1,393.2 M616.9,385.2c0.1,2.7,0.1,5.3,0.2,8
					C617,390.6,617,387.9,616.9,385.2L616.9,385.2c-4,0-8.2,1.1-12.3,3.2c-1.3,0.7-2.6,1.3-3.9,2c-0.1,1.6-0.1,3.1-0.2,4.7
					c-0.2,4.4-0.4,8.6-0.7,12.7c-0.4,5.8-0.9,12.1-1.7,19.4c-0.7,6.9-1.6,16-2.7,25c-1.1,9-2.1,17.2-3.2,24.9
					c-1,6.9-1.9,12.9-2.8,18.4c-0.5,3.1-1.1,6.2-1.6,9.3c2.9,0.1,5.9,0.1,8.8,0.2c0.2,0,0.4,0,0.6,0c13.3,0,26.9-10.4,36.1-27.9
					c8.1-15.2,11.9-43.2,8.8-63.6C639.5,396.1,629.8,385.2,616.9,385.2L616.9,385.2z"/>
			</g>
			<path class="st7" d="M456.3,642.4c-15.3,0-30.5-2.1-37.4-6.4c-5.8-3.6-44.4-31.6-69.1-56.5c-9.6-9.7-17.3-27.2-20.8-40.7
				c-6.1-24-10.1-48.7-13.3-73.2c-1.1-8.4-2.1-16.8-3-25.2c-0.7-6.6-1.4-13.1-1.9-19.5c-0.5-6.5-0.9-12.9-1.1-19.3
				c-0.2-6.3-0.3-12.6-0.1-18.9c0.2-6.2,0.5-12.4,1.1-18.4c0.7-9.3,2.2-18.4,4.7-27.2c2.5-8.8,5.7-17.3,9.8-25.3
				c27.9-55.5,79.9-82.1,131-82c51.1-0.1,103.1,26.5,131.1,82c4.1,8.1,7.3,16.5,9.8,25.3s4.1,17.9,4.7,27.2c0.6,6.1,1,12.2,1.1,18.4
				c0.1,6.2,0.1,12.5-0.1,18.9c-0.2,6.4-0.6,12.8-1.1,19.3s-1.2,13-1.9,19.5c-0.9,8.4-2,16.8-3,25.2c-3.2,24.5-7.2,49.2-13.2,73.2
				c-3.4,13.4-11.1,30.9-20.8,40.7c-24.7,24.9-63.4,52.9-69.1,56.5C486.8,640.3,471.6,642.4,456.3,642.4z"/>
			<path class="st5" d="M371.2,505c3.1,8.6,6.3,17.2,9.4,25.8c0.4,1.2,2.4,0.8,2.2-0.5c-0.8-8.4-4.1-18.3-9.6-26.3
				C372.5,502.9,370.7,503.8,371.2,505z"/>
			<path class="st6" d="M485.6,386c-20.1,27.4-18.8,54.8-21.5,85.2c9-0.1,14.7,0.9,20.4,7.2c-9-18.5-19.4-41.9,2.1-70.2
				c10.8-14.1,51.7-19.1,73.9-4.7c1.3,0.8,2.7-0.8,1.7-1.9c-6.7-7.5-20.6-17.9-40.9-19.9C511.1,380.8,497.8,382,485.6,386z"/>
			<path class="st9" d="M457.8,507.1c-5.5,0-10.7-1.7-15.1-4.8c-6.1,3.6-14.8,2.8-20-2.2c-1.6-1.5-1.5-3.9,0-5.4
				c1.6-1.5,4.1-1.5,5.7,0c3.1,3,8.5,3,11.7,0l0,0c0.3-0.3,0.6-0.5,1-0.7l0,0l0,0l0,0l0,0l0,0l0,0l0,0l0,0l0,0l0,0l0,0l0,0l0,0l0,0
				l0,0l0,0l0,0l0,0l0,0l0,0l0,0l0,0l0,0l0,0l0,0l0,0l0,0l0,0l0,0l0,0l0,0l0,0l0,0l0,0l0,0l0,0l0,0l0,0l0,0l0,0l0,0l0,0l0,0l0,0l0,0
				l0,0l0,0l0,0l0,0l0,0l0,0c0.2-0.1,0.3-0.1,0.5-0.2l0,0l0,0l0,0l0,0l0,0l0,0l0,0l0,0l0,0l0,0l0,0l0,0l0,0l0,0l0,0l0,0l0,0l0,0l0,0
				l0,0l0,0l0,0l0,0l0,0l0,0l0,0l0,0l0,0l0,0l0,0l0,0l0,0c1.2-0.3,2.6,0.1,3.6,1l0,0l0,0l0,0l0,0l0,0l0,0l0,0l0,0l0,0l0,0l0,0l0,0
				l0,0c6.4,6.2,17.7,6.2,24.1,0c1.2-1.1,3-1.4,4.5-0.8l0,0l0,0l0,0l0,0l0,0l0,0l0,0l0,0l0,0l0,0l0,0l0,0l0,0l0,0l0,0l0,0l0,0l0,0
				l0,0l0,0l0,0l0,0l0,0l0,0l0,0l0,0l0,0l0,0l0,0l0,0l0,0l0,0l0,0l0,0l0,0l0,0l0,0l0,0l0,0l0,0l0,0l0,0l0,0l0,0l0,0l0,0l0,0l0,0l0,0
				l0,0l0,0l0,0l0,0l0,0l0,0l0,0l0,0l0,0l0,0l0,0l0,0l0,0l0,0l0,0l0,0l0,0l0,0l0,0l0,0l0,0l0,0l0,0l0,0l0,0l0,0l0,0l0,0l0,0l0,0l0,0
				l0,0l0,0l0,0l0,0l0,0l0,0l0,0l0,0l0,0l0,0l0,0l0,0l0,0l0,0l0,0l0,0l0,0l0,0l0,0l0,0l0,0l0,0l0,0l0,0l0,0l0,0l0,0l0,0
				c0.1,0.1,0.2,0.2,0.4,0.3l0,0l0,0l0,0l0,0l0,0l0,0l0,0l0,0l0,0l0,0l0,0l0,0l0,0l0,0l0,0l0,0l0,0l0,0l0,0l0,0l0,0l0,0l0,0l0,0l0,0
				l0,0l0,0l0,0l0,0l0,0l0,0l0,0l0,0l0,0l0,0l0,0l0,0l0,0l0,0l0,0l0,0l0,0l0,0l0,0l0,0l0,0l0,0l0,0l0,0l0,0l0,0l0,0l0,0
				c3.1,3,8.5,3,11.7,0c1.6-1.5,4.1-1.5,5.7,0s1.6,3.9,0,5.4c-5.2,5-13.9,5.9-20,2.2C468.5,505.4,463.3,507.1,457.8,507.1z"/>
			<path class="st10" d="M313.4,418.4c-0.3,0,37.2,105.4,61.8,118.1c24.2,12.8,25.2-19.7,48.3-19.7c11.4,0.7,22.9,1.5,34.3,2.2
				c11.4-0.7,22.9-1.5,34.3-2.2c23.1,0,24,32.5,48.3,19.7c24.5-12.8,62-118.1,61.7-118.1c0.4,0.4,0.8,0.8,1.2,1.2
				c-0.1,0.7-0.1,1.4-0.2,2c-0.5,6.5-1.2,13-1.9,19.5c-0.9,8.4-2,16.8-3,25.2c-3.2,24.5-7.2,49.2-13.3,73.2
				c-3.4,13.4-11.1,30.9-20.8,40.7c-24.7,24.9-63.4,52.9-69.1,56.5c-6.8,4.3-22.1,6.4-37.4,6.4s-30.5-2.1-37.3-6.4
				c-5.8-3.6-44.4-31.6-69.1-56.5c-9.6-9.7-17.3-27.2-20.8-40.7c-6.1-24-10.1-48.7-13.3-73.2c-1.1-8.4-2.1-16.8-3-25.2
				c-0.7-6.6-1.4-13.1-1.9-19.5c-0.1-0.7-0.1-1.4-0.2-2C312.6,419.2,313,418.8,313.4,418.4L313.4,418.4z M457.8,535.1
				c-0.2-0.1-0.4-0.2-0.5-0.3c-7.9-4.4-19.3-1.9-26.8,2c-6.4,3.3-13.3,6.4-20,9.2c-7.7,3.3-12.8,30.5-7.4,38.7
				c2.6,3.9,19.6,30.9,22.7,29.2c6.9-3.7,6.2-26,16.2-40.5c4.9,0.7,10.7,0.3,15.8-0.4c5,0.7,10.8,1.1,15.8,0.4
				c9.3-1.4,8.1,35.9,13.9,40.5c6.3,5,19.4-22.9,23.7-29.2c4.7-7.1,0.4-36-6-38.7c-6.7-2.9-13.6-5.9-20-9.2
				c-7.6-3.9-18.9-6.4-26.8-2C458.1,534.9,458,535,457.8,535.1z"/>
			<path class="st11" d="M487.9,484.1c-0.9,0-1.8,0.1-2.7,0.3c0.1,0.3,0.3,0.6,0.3,0.9c0.8-0.2,1.6-0.2,2.4-0.2
				c6.4,0,11.6,5,11.6,11.1s-5.2,11.1-11.6,11.1c-2.9,0-5.6-1-7.6-2.7c-0.5,0-1.1-0.1-1.6-0.1c2.3,2.4,5.6,3.8,9.2,3.8
				c7,0,12.6-5.4,12.6-12.1C500.6,489.5,494.9,484.1,487.9,484.1z"/>
			<path class="st6" d="M487.6,639.7c3-0.9,5.6-1.9,7.5-3.1c5.7-3.6,44.4-31.6,69.1-56.5c9.6-9.7,17.3-27.2,20.8-40.7
				c6.1-24,10.1-48.7,13.3-73.2c1.1-8.4,2.1-16.8,3-25.2c0.7-6.6,1.4-13.1,1.9-19.5c0.5-6.5,0.9-12.9,1.1-19.3
				c0.2-6.3,0.3-12.6,0.1-18.9c-0.2-6.2-0.5-12.4-1.1-18.4c-0.6-9.3-2.3-18.4-4.7-27.2c-2.5-8.8-5.8-17.3-9.8-25.3
				c-20.6-40.9-54.4-66.1-91-76.5c24.2,12.5,64.4,17.2,67.6,69.2c0.5,8.7-4.4,42.2-1.2,50.8c16.9,45.8,25,62.7,7.5,93.5
				c-12.5,22-7.5,69.8-12.2,94.3C551.8,584.7,518.3,611.8,487.6,639.7z"/>
			<path class="st12" d="M562.2,509.7c20.4-35.3,40-91.2,39.9-91.2c0.4,0.4,0.8,0.8,1.2,1.2c0,0.1,0,0.1,0,0.2s0,0.2,0,0.3
				c0,0.1,0,0.2,0,0.3c0,0.1,0,0.2,0,0.3c0,0.1,0,0.2,0,0.3c0,0.1,0,0.2,0,0.3c0,0.1,0,0.2,0,0.3c-0.5,6.5-1.2,13-1.9,19.5
				c-0.9,8.4-2,16.8-3,25.2c-3.2,24.5-7.2,49.2-13.3,73.2c-3.4,13.4-11.1,30.9-20.8,40.7c-24.7,24.9-63.4,52.9-69.1,56.5
				c0,0-0.1,0-0.1,0.1c0,0-0.1,0-0.1,0.1c0,0-0.1,0-0.1,0.1c0,0,0,0-0.1,0l0,0l-0.1,0.1h-0.1c0,0-0.1,0-0.1,0.1l0,0
				c0,0-0.1,0-0.1,0.1c0,0-0.1,0-0.1,0.1c0,0-0.1,0-0.1,0.1c0,0-0.1,0-0.1,0.1l0,0H494c0,0-0.1,0-0.1,0.1c0,0-0.1,0-0.1,0.1l0,0
				c0,0-0.1,0-0.1,0.1c0,0-0.1,0-0.1,0.1c0,0-0.1,0-0.1,0.1c0,0-0.1,0-0.1,0.1l0,0h-0.1c0,0-0.1,0-0.1,0.1c0,0-0.1,0-0.1,0.1l0,0
				c0,0,0,0-0.1,0c0,0-0.1,0-0.1,0.1c0,0-0.1,0-0.1,0.1h-0.1l0,0h-0.1c0,0-0.1,0-0.1,0.1h-0.1c0,0-0.1,0-0.1,0.1l0,0
				c0,0-0.1,0-0.1,0.1c0,0-0.1,0-0.1,0.1c0,0-0.1,0-0.1,0.1l0,0c0,0-0.1,0-0.1,0.1h-0.1h-0.1c0,0-0.1,0-0.1,0.1l0,0h-0.1
				c0,0-0.1,0-0.1,0.1c0,0-0.1,0-0.1,0.1l0,0h-0.1h-0.1c0,0-0.1,0-0.1,0.1c0,0-0.1,0-0.1,0.1l0,0c0,0-0.1,0-0.1,0.1h-0.1
				c0,0-0.1,0-0.1,0.1h-0.1l0,0c0,0-0.1,0-0.1,0.1h-0.1c0,0-0.1,0-0.1,0.1l0,0h-0.1H490c0,0-0.1,0-0.1,0.1c0,0-0.1,0-0.1,0.1l0,0
				h-0.1h-0.1c0,0-0.1,0-0.1,0.1l0,0h-0.1c0,0-0.1,0-0.1,0.1c0,0-0.1,0-0.1,0.1c-0.1,0-0.2,0-0.3,0.1c-0.1,0-0.1,0-0.2,0.1h-0.1
				c30.7-27.9,64.2-55,71.9-95.8C561.3,534.8,561.7,522.6,562.2,509.7z"/>
			<path class="st13" d="M427.9,639.7c-3-0.9-5.6-1.9-7.5-3.1c-5.8-3.6-44.4-31.6-69.1-56.5c-9.6-9.7-17.3-27.2-20.8-40.7
				c-6.1-24-10.1-48.7-13.3-73.2c-1.1-8.4-2.1-16.8-3-25.2c-0.7-6.6-1.4-13.1-1.9-19.5c-0.5-6.5-0.9-12.9-1.1-19.3
				c-0.2-6.3-0.3-12.6-0.1-18.9c0.2-6.2,0.5-12.4,1.1-18.4c0.7-9.3,2.2-18.4,4.7-27.2c2.5-8.8,5.7-17.3,9.8-25.3
				c20.5-40.9,54.2-66.1,90.9-76.5c-24.2,12.5-46.1,36.9-59.9,73.9c-3.1,8.2-3.2,37.5-6.4,46.2c-16.8,45.8-25,62.7-7.5,93.5
				c12.5,22,7.6,69.8,12.3,94.3C363.7,584.7,397.2,611.8,427.9,639.7z"/>
			<path class="st14" d="M313.4,418.4c-0.1,0,19.5,55.9,40,91.2c0.5,12.9,0.9,25.1,2.6,34.2c7.8,40.8,41.2,67.9,71.9,95.8h-0.1
				c-0.1,0-0.1,0-0.2-0.1c-0.1,0-0.2,0-0.3-0.1c0,0-0.1,0-0.1-0.1c-0.1,0-0.1,0-0.2-0.1h-0.1c0,0,0,0-0.1,0c0,0-0.1,0-0.1-0.1h-0.1
				h-0.1l0,0c0,0-0.1,0-0.1-0.1c0,0-0.1,0-0.1-0.1h-0.1h-0.1l0,0c0,0-0.1,0-0.1-0.1h-0.1c0,0-0.1,0-0.1-0.1l0,0h-0.1
				c0,0-0.1,0-0.1-0.1h-0.1c0,0-0.1,0-0.1-0.1l0,0c0,0-0.1,0-0.1-0.1c0,0-0.1,0-0.1-0.1h-0.1H425c0,0,0,0-0.1,0c0,0-0.1,0-0.1-0.1
				c0,0-0.1,0-0.1-0.1h-0.1l0,0c0,0-0.1,0-0.1-0.1h-0.1h-0.1c0,0-0.1,0-0.1-0.1c0,0,0,0-0.1,0c0,0-0.1,0-0.1-0.1c0,0-0.1,0-0.1-0.1
				c0,0-0.1,0-0.1-0.1l0,0c0,0-0.1,0-0.1-0.1h-0.1c0,0-0.1,0-0.1-0.1h-0.1l0,0h-0.1c0,0-0.1,0-0.1-0.1c0,0-0.1,0-0.1-0.1
				c0,0,0,0-0.1,0c0,0,0,0-0.1,0c0,0-0.1,0-0.1-0.1c0,0-0.1,0-0.1-0.1h-0.1l0,0c0,0-0.1,0-0.1-0.1c0,0-0.1,0-0.1-0.1
				c0,0-0.1,0-0.1-0.1c0,0-0.1,0-0.1-0.1l0,0c0,0-0.1,0-0.1-0.1c0,0-0.1,0-0.1-0.1h-0.1l0,0c0,0-0.1,0-0.1-0.1c0,0-0.1,0-0.1-0.1
				c0,0-0.1,0-0.1-0.1c0,0-0.1,0-0.1-0.1l0,0c0,0-0.1,0-0.1-0.1h-0.1l-0.1-0.1l0,0l0,0c0,0-0.1,0-0.1-0.1c0,0-0.1,0-0.1-0.1
				c0,0-0.1,0-0.1-0.1c-5.8-3.6-44.4-31.6-69.1-56.5c-9.6-9.7-17.3-27.2-20.8-40.7c-6.1-24-10.1-48.7-13.3-73.2
				c-1.1-8.4-2.1-16.8-3-25.2c-0.7-6.6-1.4-13.1-1.9-19.5c0-0.1,0-0.2,0-0.3c0-0.1,0-0.2,0-0.3c0-0.1,0-0.2,0-0.3c0-0.1,0-0.2,0-0.3
				c0-0.1,0-0.2,0-0.3c0-0.1,0-0.2,0-0.3c0-0.1,0-0.1,0-0.2C312.6,419.2,313,418.8,313.4,418.4z"/>
			<path class="st15" d="M565.4,309.8c19.4,17,6.8,49.5,9.3,52.7c2.9,3.6,18.3,24.9,21.8,27.9c0.2,2.6,0.4,5.2,0.6,7.8
				c0.7,23,1.2,42.4,1.6,64.1c0.9-7.1,1.7-14.1,2.5-21.2c0.7-6.6,1.4-13.1,1.9-19.5c0.5-6.5,0.9-12.9,1.1-19.3
				c0.2-6.3,0.3-12.6,0.1-18.9c-0.2-6.2-0.5-12.4-1.1-18.4c-0.6-9.3-2.3-18.4-4.7-27.2c-2.5-8.8-5.8-17.3-9.8-25.3
				c-7-14-15.7-26.2-25.4-36.6c0.8,9.4,1.4,19.3,2.1,29.3C565.5,306.3,565.5,308,565.4,309.8z"/>
			<path class="st16" d="M319.3,390C319.3,389.9,319.3,389.9,319.3,390c0.1-0.1,0.1-0.1,0.1-0.1l0,0c0,0,0,0,0.1-0.1c0,0,0,0,0-0.1
				l0,0c7.7-7,16.4-21.4,21-27.2c1.5-1.9-2.6-14.8-1.7-28.4c0-0.2,0-0.3,0-0.5v-0.1c1.1-12.5,6.8-24.1,20-29.4l0,0l0,0
				c0,0,0,0,0.1,0l0,0l0,0l0,0l0,0l0,0l0,0l0,0l0,0l0,0l0,0c0,0,0,0,0.1,0l0,0l0,0l0,0c0,0,0,0,0.1,0l0,0l0,0l0,0c0,0,0,0,0.1,0l0,0
				l0,0l0,0l0,0l0,0c0,0,0,0,0.1,0l0,0l0,0l0,0l0,0l0,0l0,0l0,0c0,0,0,0,0.1,0l0,0l0,0l0,0c0,0,0,0,0.1,0l0,0
				c66.1-74.2,143.7-58.5,193-37.9c-27.4-23.9-61.5-35.5-95.3-35.4c-13.5,0-27,1.8-40.2,5.5c-0.1,0-0.2,0.1-0.3,0.1
				c-0.1,0-0.1,0-0.2,0.1c-0.6,0.2-1.3,0.4-1.9,0.6c-0.3,0.1-0.6,0.2-0.9,0.3c-0.2,0.1-0.5,0.1-0.7,0.2
				c-35,11.1-67.1,35.9-86.8,75.3c-4,8.1-7.3,16.5-9.8,25.3s-4.1,17.9-4.7,27.2c-0.6,6.1-0.9,12.2-1.1,18.4
				c-0.1,6.2-0.1,12.5,0.1,18.9c0.2,6.3,0.6,12.6,1.1,19l0,0c0,0.1,0,0.2,0,0.3c0.5,6.5,1.2,13,1.9,19.5c0.7,6.7,1.5,13.3,2.4,20
				C317.1,438.6,317.6,421.1,319.3,390z"/>
			<path class="st17" d="M319.3,390c5-4.3,18.4-23.9,21.3-27.4c2.7-3.5-13.1-43.1,16.8-57.7c29.7-14.6,101.5,12,101.6,12
				s69-26.6,98.8-12c29.9,14.6,14.1,54.1,16.9,57.7c2.9,3.6,18.3,24.9,21.8,27.9c0.2,2.6,0.4,5.2,0.6,7.8c0.7,23,1.2,42.4,1.6,64.1
				c0.9-7.1,1.7-14.1,2.5-21.2c0.7-6.6,1.4-13.1,1.9-19.5c0.5-6.5,0.9-12.9,1.1-19.3c0.2-6.3,0.3-12.6,0.1-18.9
				c-0.2-6.2-0.5-12.4-1.1-18.4c-0.6-9.3-2.3-18.4-4.7-27.2c-2.5-8.8-5.8-17.3-9.8-25.3c-28-55.5-80.1-82.1-131.1-82
				c-51.1-0.1-103.1,26.5-131,82c-4,8.1-7.3,16.5-9.8,25.3s-4.1,17.9-4.7,27.2c-0.6,6.1-0.9,12.2-1.1,18.4
				c-0.1,6.2-0.1,12.5,0.1,18.9s0.6,12.8,1.1,19.3s1.2,13,1.9,19.5c0.7,6.7,1.5,13.3,2.4,20C317.1,438.6,317.6,421.1,319.3,390z"/>
			<path class="st5" d="M457.8,648.5c-6.8,0-29.6-0.5-40.5-7.3c-5.2-3.3-44.8-31.7-70.2-57.3c-11.1-11.2-18.9-30.3-22.2-43.1
				c-6.7-26.4-10.7-53.3-13.3-73.7c-1.1-8.4-2.1-16.9-3.1-25.2c-0.7-6.6-1.4-13.2-1.9-19.7s-0.9-13-1.1-19.5s-0.3-12.9-0.1-19.2
				c0.2-6.5,0.5-12.8,1.1-18.8c0.7-9.4,2.3-18.9,4.9-28.2c2.5-9,6-17.9,10.2-26.3C348.5,256.8,399,225,457.4,225
				c58.9,0,109.4,31.8,136.4,85.2c4.2,8.4,7.7,17.3,10.2,26.3c2.6,9.2,4.3,18.8,4.9,28.3c0.6,5.9,0.9,12.2,1.1,18.7
				c0.2,6.3,0.1,12.7-0.1,19.2c-0.2,6.4-0.6,12.9-1.1,19.5c-0.5,6.5-1.1,13.1-1.9,19.7c-1,8.4-1.9,16.8-3.1,25.2
				c-2.7,20.4-6.6,47.3-13.3,73.7c-3.3,12.9-11.1,31.9-22.2,43.1c-25.4,25.6-65,54-70.1,57.3C487.4,648,464.5,648.5,457.8,648.5z
				 M457.9,235.9c-54.7,0-101.5,29.4-126.3,78.9c-3.9,7.8-7,16-9.4,24.4c-2.4,8.6-3.9,17.4-4.5,26.2c-0.6,5.9-0.9,12-1.1,18.2
				c-0.1,6.1-0.1,12.3,0.1,18.6c0.2,6.3,0.6,12.6,1.1,19s1.2,12.9,1.9,19.4c0.9,8.3,2,16.7,3.1,25.1c2.6,20.2,6.6,46.7,13.2,72.7
				c3.2,12.5,10.4,29.1,19.3,38.2c24.7,25,63,52.5,68,55.6c5.3,3.3,19.1,5.5,34.3,5.5c15.2,0,29-2.2,34.2-5.5
				c5-3.2,43.4-30.7,68-55.6c9-9,16.2-25.7,19.4-38.2c6.6-25.9,10.5-52.4,13.1-72.6c1.1-8.3,2.1-16.8,3-25.1
				c0.7-6.5,1.4-13,1.9-19.4s0.9-12.7,1.1-19c0.2-6.3,0.3-12.5,0.1-18.6c-0.1-6.2-0.5-12.3-1-18.1c-0.6-9-2.2-17.8-4.5-26.3
				c-2.3-8.3-5.5-16.5-9.4-24.4C558.9,265.3,512,235.9,457.9,235.9z"/>
			<g>
				<path class="st18" d="M410,552c2.5-3,15.6-6.3,23.6-10.7c8-4.5,16.1-4.7,20.1-2.5c1.8,1,3.1,1.3,4,1.4c0.9-0.1,2.1-0.4,4-1.4
					c4-2.2,12.1-1.9,20.1,2.6c8,4.4,21.6,6.2,23.4,9.7c-4,1.4-18.5,12.7-32.8,14.4c-5,0.6-11.7-0.3-14.7-0.8
					c-3,0.4-9.7,1.4-14.7,0.7C428.8,563.7,414,553.7,410,552z"/>
				<path class="st19" d="M472.5,565.4c-5,0.6-11.7-0.3-14.7-0.8c-3,0.4-9.7,1.4-14.7,0.7c-10.9-1.3-22.2-7.5-28.6-11.1
					c6.3,3.9,17.5,11,28.6,12.4c5,0.6,11.7-0.3,14.7-0.7c3,0.4,9.7,1.4,14.7,0.8c14.2-1.7,28.7-14.3,32.8-15.7
					C501.2,552.4,486.7,563.7,472.5,565.4z"/>
				<path class="st20" d="M425.2,553.5c2.6-0.3,5.2-1,7.8-1.6c2.6-0.5,5.2-1,7.9-1.3c1.3-0.2,2.7-0.2,4-0.3c0.7,0,1.3,0,2,0
					c0.7,0.1,1.4,0.1,2,0.3c2.6,0.5,5.1,1.3,7.7,1.8c1.3,0.2,2.5,0.3,3.7,0.1s2.5-0.7,3.8-0.9c2.7-0.5,5.4-0.3,8,0s5.3,0.7,7.9,1.1
					c2.6,0.4,5.3,0.8,7.9,0.7c-5.3,0.4-10.6-0.7-15.8-1c-2.6-0.1-5.3-0.4-7.8,0.1c-1.3,0.2-2.5,0.7-3.8,0.9c-1.3,0.3-2.8,0.2-4.1,0
					c-2.7-0.5-5.1-1.4-7.7-1.9c-0.6-0.1-1.3-0.2-1.9-0.3c-0.6,0-1.3,0-1.9,0c-1.3,0-2.6,0.1-3.9,0.2c-2.6,0.2-5.2,0.6-7.9,1
					C430.5,552.8,427.9,553.4,425.2,553.5z"/>
				<path class="st11" d="M424.4,569.1c-3.9,0.2-7.1-3.5-7.1-8.3s3.2-9,7.1-9.2c1.5-0.1,2.9,0.4,4,1.4c0.4-0.1,0.8-0.2,1.3-0.3
					c-1.5-1.5-3.3-2.2-5.3-2.1c-4.5,0.2-8.1,4.9-8.1,10.2c0,5.4,3.6,9.5,8.1,9.3c2.8-0.1,6-2.4,7.8-6.3c-0.4-0.1-0.7-0.4-1.1-0.5
					C429.9,565.9,426.8,569,424.4,569.1z"/>
			</g>
		</g>
		<g>
			
				<ellipse transform="matrix(0.1515 -0.9885 0.9885 0.1515 51.5577 1006.5091)" class="st21" cx="612" cy="473.2" rx="11.2" ry="6.6"/>
			
				<ellipse transform="matrix(0.1515 -0.9885 0.9885 0.1515 50.6306 1005.0422)" class="st22" cx="610.7" cy="473" rx="7" ry="4.1"/>
		</g>
		<g>
			
				<ellipse transform="matrix(0.9885 -0.1515 0.1515 0.9885 -68.2485 51.4318)" class="st21" cx="303.4" cy="473.6" rx="6.9" ry="11.8"/>
			
				<ellipse transform="matrix(0.9885 -0.1515 0.1515 0.9885 -68.2032 51.6264)" class="st22" cx="304.7" cy="473.4" rx="4.4" ry="7.4"/>
		</g>
		<g>
			<g>
				<path class="st23" d="M363.8,420.6c21.5-24.6,40.9-21.5,64.1-0.3c-14.4,1.2-21.5,20.3-44.4,13.8
					C372.3,430.9,363.8,420.6,363.8,420.6z"/>
				<path class="st24" d="M395.4,413.5c3.7-0.2,7,2.7,7.2,6.4c0.2,3.8-2.7,7-6.5,7.2s-7-2.7-7.2-6.5
					C388.8,416.9,391.7,413.7,395.4,413.5z"/>
				<path class="st25" d="M395,405c7.9-0.4,14.6,5.6,15,13.5s-5.6,14.6-13.5,15s-14.6-5.6-15-13.5S387.1,405.4,395,405z"/>
				<path class="st26" d="M395.4,412.4c3.7-0.2,7,2.7,7.2,6.5c0.2,3.7-2.7,7-6.5,7.2s-7-2.7-7.2-6.5
					C388.7,415.8,391.6,412.6,395.4,412.4z"/>
				<path class="st9" d="M391.8,439.8c-3.8,0.4-7.7,0-11.8-1.1c-12.3-3.6-20.3-15.5-20.6-16c-0.8-1.1-0.6-2.8,0.3-3.9
					c11.1-13,20.7-19.5,30.8-19.5c10.9-0.2,22.1,7.5,37.1,18.9c0.9,0.7,1.3,1.6,1,2.6c-0.3,0.9-1.2,1.6-2.2,1.8
					c-4.9,0.6-8.7,3.4-13.3,6.9C407.6,433.6,401.1,438.8,391.8,439.8z M365.3,420.8c2.6,3.2,8.7,9.8,16.4,12c3.5,1,6.7,1.4,9.9,1.1
					c7.6-0.7,13-5,18.1-8.8c3.3-2.4,6.5-4.9,10.3-6.3C397.2,401.2,384.1,399,365.3,420.8z"/>
			</g>
			<g>
				<path class="st23" d="M551.9,420.7c-21.5-24.6-40.9-21.5-64.1-0.3c14.4,1.2,21.5,20.3,44.4,13.8
					C543.4,431,551.9,420.7,551.9,420.7z"/>
				<path class="st24" d="M520.2,413.6c-3.8-0.2-7,2.7-7.2,6.4c-0.2,3.8,2.7,7,6.5,7.2c3.7,0.2,7-2.7,7.2-6.5
					C526.9,417,524,413.8,520.2,413.6z"/>
				<path class="st25" d="M520.7,405.1c-7.9-0.4-14.6,5.6-15,13.5s5.6,14.6,13.5,15c7.8,0.4,14.6-5.6,15-13.5
					C534.6,412.2,528.5,405.5,520.7,405.1z"/>
				<path class="st26" d="M520.3,412.5c-3.8-0.2-7,2.7-7.2,6.5c-0.2,3.7,2.7,7,6.5,7.2c3.7,0.2,7-2.7,7.2-6.5
					C526.9,415.9,524,412.7,520.3,412.5z"/>
				<path class="st9" d="M521.4,439.6L521.4,439.6c-8.4-0.9-14.4-6-20-10.1c-4.6-3.5-8.7-6.2-13.4-6.8c-1.1-0.1-2-0.8-2.5-1.8
					c-0.4-0.9-0.2-1.9,0.5-2.6c12.6-11.6,25.2-19.4,37.2-19.2c11.2-0.1,21.8,6.5,31,19.5c0.8,1.1,0.7,2.8-0.3,3.9
					c-0.5,0.4-10.2,12.3-21.6,15.9C528.4,439.6,524.9,440,521.4,439.6z M493.7,418.9c3.9,1.4,7.4,3.8,10.7,6.2
					c5.2,3.8,10.4,8,17.5,8.7l0,0c2.9,0.3,5.9-0.1,9.3-1.2c7.4-2.3,14.1-8.8,17.2-12C532.1,398.9,513.9,400.9,493.7,418.9z"/>
			</g>
		</g>
	</g>
	<g>
		<g>
			<g>
				<path class="st26" d="M559.2,403.7c4.7,5.4,11.5-0.5,6.8-5.9c-35.5-27.2-66-28.8-85-13.8c-6.7,5.3-11.8,17.4-4,19
					C488.1,384.3,541.8,383.6,559.2,403.7z"/>
				<path class="st26" d="M352.9,400.4c-5.3,4.8-11.3-1.8-6-6.6c38.4-22.8,67.8-26.7,82.2-4.6c3.3,5.1,4.9,9.7,2.6,12.1
					c-1.7,1.8-4.7,1.4-6-0.7C414.4,383.2,371.7,383.2,352.9,400.4z"/>
				<path class="st23" d="M363.7,419c22.7-23.4,42-19.3,64,3c-14.4,0.5-22.5,19.2-45.1,11.5C371.7,429.7,363.7,419,363.7,419z"/>
				<path class="st24" d="M395.8,413.6c3.8,0,6.8,3.1,6.8,6.8c0,3.8-3.1,6.8-6.8,6.8c-3.8,0-6.8-3-6.8-6.8
					C388.9,416.6,392,413.6,395.8,413.6z"/>
				<path class="st25" d="M395.8,405.1c7.9,0,14.2,6.4,14.2,14.3s-6.4,14.2-14.2,14.2c-7.9,0-14.2-6.4-14.2-14.2
					C381.5,411.4,387.9,405.1,395.8,405.1z"/>
				
					<radialGradient id="SVGID_1_" cx="395.7549" cy="-264.7" r="9.9934" gradientTransform="matrix(1 0 0 1 0 684)" gradientUnits="userSpaceOnUse">
					<stop  offset="0" style="stop-color:#8C6239"/>
					<stop  offset="1" style="stop-color:#754C24;stop-opacity:0.8"/>
				</radialGradient>
				<path class="st27" d="M395.8,409.3c-5.5,0-10,4.5-10,10s4.5,10,10,10s10-4.5,10-10C405.7,413.8,401.3,409.3,395.8,409.3z"/>
				<path class="st28" d="M395.8,412.5c3.8,0,6.8,3,6.8,6.8s-3.1,6.8-6.8,6.8c-3.8,0-6.8-3.1-6.8-6.8
					C388.9,415.5,392,412.5,395.8,412.5z"/>
				<path class="st9" d="M390.7,439.7c-3.8,0.2-7.7-0.4-11.8-1.8c-12.1-4.2-19.4-16.7-19.7-17c-2.6-2.8-0.5-2.8,0.5-3.9
					c11.8-12.4,21.7-18.4,31.8-17.9c10.9,0.4,21.7,8.7,36,20.8c0.8,0.7,1.2,1.7,0.9,2.6c-0.3,0.9-1.2,1.6-2.3,1.7
					c-4.9,0.3-8.9,2.9-13.6,6.2C406.8,434.3,400.1,439.2,390.7,439.7z M365.2,419.3c2.5,3.4,8.2,10.2,15.8,12.9
					c3.4,1.2,6.7,1.7,9.8,1.6c7.6-0.3,13.3-4.3,18.6-7.9c3.4-2.3,6.8-4.5,10.6-5.7C398.1,401.4,385.2,398.5,365.2,419.3z"/>
				<path class="st23" d="M551.9,419c-22.7-23.4-42-19.3-64,3c14.4,0.5,22.5,19.2,45.1,11.5C544,429.7,551.9,419,551.9,419z"/>
				<path class="st24" d="M519.9,413.6c-3.8,0-6.8,3.1-6.8,6.8c0,3.8,3,6.8,6.8,6.8s6.8-3,6.8-6.8S523.7,413.6,519.9,413.6z"/>
				<path class="st25" d="M519.9,405.1c-7.9,0-14.3,6.4-14.3,14.3s6.4,14.2,14.3,14.2c7.9,0,14.2-6.4,14.2-14.2
					C534.2,411.4,527.8,405.1,519.9,405.1z"/>
				
					<radialGradient id="SVGID_2_" cx="519.9296" cy="-264.7" r="10.453" gradientTransform="matrix(1 0 0 1 0 684)" gradientUnits="userSpaceOnUse">
					<stop  offset="0" style="stop-color:#8C6239"/>
					<stop  offset="1" style="stop-color:#754C24;stop-opacity:0.8"/>
				</radialGradient>
				<path class="st29" d="M519.9,408.8c-5.8,0-10.5,4.7-10.5,10.5s4.7,10.5,10.5,10.5s10.5-4.7,10.5-10.5S525.7,408.8,519.9,408.8z"
					/>
				<path class="st28" d="M519.9,412.5c-3.8,0-6.8,3-6.8,6.8s3,6.8,6.8,6.8s6.8-3.1,6.8-6.8C526.7,415.5,523.7,412.5,519.9,412.5z"
					/>
				<path class="st9" d="M522.7,439.7L522.7,439.7c-8.4-0.4-14.7-5.3-20.5-9.1c-4.8-3.2-9-5.8-13.8-6c-1.1-0.1-2.1-0.7-2.6-1.6
					s-0.3-1.9,0.3-2.6c12-12.3,24.1-20.7,36.1-21.1c11.1-0.6,22.1,5.4,31.9,17.8c0.9,1.1,3.3,0.2-0.1,3.9c-0.4,0.5-9.6,12.8-20.8,17
					C529.7,439.3,526.2,439.9,522.7,439.7z M493.9,420.5c4,1.2,7.6,3.4,11,5.6c5.4,3.5,10.8,7.5,17.9,7.7l0,0
					c2.9,0.1,5.9-0.4,9.2-1.6c7.3-2.7,13.6-9.5,16.5-12.9C531.3,398.5,513.1,401.4,493.9,420.5z"/>
				<g>
					<path class="st30" d="M534.5,471.1c-4.6,0-7.8-0.5-8.3-0.6c-41-0.1-52.9-37.3-58-53.2c-0.8-2.3-1.4-4.4-2-5.7
						c-1.9-4.6-5.8-7.5-10.1-7.5c-4.3,0-8.2,2.9-10.1,7.5c-0.6,1.3-1.2,3.4-1.9,5.7c-5.1,15.9-17.1,53.1-58.1,53.2
						c-0.6,0.1-3.7,0.6-8.4,0.6c-14.6,0-49-5.4-53.9-55c-0.4-1.1-4.5-13.4-15.8-17.5l-0.3-0.1l-5.3-8.6v-0.2c0-0.2-0.8-4.5,2.4-8.3
						c3.1-3.8,8.9-5.7,17.1-5.7c1.3-0.1,27.1-2.7,39.8-3.8c3.9-0.3,9.8-0.8,16.9-0.8c15.2,0,30.2,1.9,45.9,5.9
						c13.6,3.5,22.7,5.3,31.6,5.3c9,0,18.1-1.9,31.8-5.4c16-4.1,31.1-6,46.4-6c6.9,0,12.6,0.4,16.3,0.7c13,1.1,39.6,3.6,39.9,3.6
						l0,0c8,0,13.8,1.9,16.9,5.7c3.3,3.9,2.5,8.4,2.5,8.5v0.1l-4.2,8.8l-0.4,0.1c-11.3,4.1-16.3,16.2-16.8,17.5
						C583.4,465.7,549,471.1,534.5,471.1L534.5,471.1z M527.9,378c-18.3,0-33.9,3.4-42.7,9.3c-1.5,1-2.8,2.1-3.9,3.3
						c-5.7,5.9-7.8,22.4-1.4,38.9c4.6,11.9,17.4,32.3,50.6,34.5c1.8,0.1,3.6,0.2,5.3,0.2c15.3,0,26.8-4.8,34.1-14.3
						c11.9-15.3,9-37.7,9-37.9v-0.1v-0.1c0-1.1,0.1-27-22.8-31.3C546.9,378.9,537.2,378,527.9,378z M384.1,378
						c-9.4,0-19.1,0.9-28.1,2.6c-22.8,4.3-22.8,31-22.8,31.3v0.1v0.1c0,0.2-2.9,22.6,9,37.9c7.4,9.5,18.9,14.3,34.1,14.3
						c1.7,0,3.5-0.1,5.3-0.2c33.2-2.2,45.9-22.6,50.6-34.5c6.4-16.4,4.2-33-1.4-38.9c-1.1-1.1-2.4-2.2-3.9-3.3
						C418.1,381.4,402.5,378,384.1,378z"/>
					<path class="st21" d="M534.2,371.9c6.3,0,11.7,0.3,16.2,0.7c13.1,1.1,39.8,3.6,39.8,3.6l0,0c20.9,0,18.5,13.1,18.5,13.1l-4,8.3
						c-12.4,4.5-17.4,18.2-17.4,18.2c-4.7,48.3-37.3,54.2-52.9,54.2c-5,0-8.3-0.6-8.3-0.6c-46.3,0-54.6-47.5-59.1-58.3
						c-2.2-5.4-6.6-8.1-11-8.1s-8.8,2.7-11,8.1c-4.5,10.8-12.9,58.3-59.2,58.3c0,0-3.2,0.6-8.3,0.6c-15.6,0-48.2-5.9-52.9-54.2
						c0,0-4-13.7-16.5-18.2l-5-8.1c0,0-2.4-12.9,18.5-12.9c0,0,26.7-2.7,39.8-3.8c4.6-0.4,10.2-0.8,16.8-0.8
						c12.1,0,27.4,1.3,45.7,5.9c14.1,3.6,23,5.4,31.9,5.4c9,0,17.9-1.8,32.1-5.4C506.6,373.2,522.1,371.9,534.2,371.9 M535.7,465.2
						c17.7,0,28.5-6.4,34.9-14.7c12.3-15.8,9.2-38.6,9.2-38.6s0.4-27.8-23.6-32.3c-9.1-1.7-18.9-2.6-28.3-2.6
						c-17.3,0-33.6,3-43.2,9.5c-1.5,1-2.9,2.2-4.1,3.4c-12.5,13-7.4,71.3,49.8,75.1C532.2,465.1,533.9,465.2,535.7,465.2
						 M376.3,465.2c1.7,0,3.5-0.1,5.3-0.2c57.2-3.8,62.2-62.1,49.8-75.1c-1.2-1.2-2.5-2.4-4.1-3.4c-9.6-6.5-25.9-9.5-43.2-9.5
						c-9.4,0-19.2,0.9-28.3,2.6c-23.9,4.5-23.6,32.3-23.6,32.3s-3.1,22.8,9.2,38.6C347.9,458.8,358.6,465.2,376.3,465.2
						 M534.2,369.9c-15.3,0-30.6,2-46.6,6.1c-13.7,3.5-22.7,5.3-31.6,5.3s-17.9-1.9-31.4-5.3c-15.8-4-30.9-6-46.2-6
						c-7.1,0-13.1,0.4-17,0.8c-12.6,1.1-38,3.6-39.8,3.8c-8.5,0-14.4,2.1-17.8,6.1c-3.5,4.2-2.6,9-2.6,9.2l0.1,0.4l0.2,0.3l5,8.1
						l0.4,0.6l0.7,0.2c10.7,3.9,14.7,15.3,15.2,16.7c5,50.4,40,55.8,54.9,55.8c4.5,0,7.6-0.5,8.4-0.6c41.7-0.1,53.8-37.8,58.9-53.9
						c0.7-2.3,1.4-4.3,1.9-5.6c1.8-4.3,5.2-6.8,9.2-6.8s7.4,2.6,9.2,6.8c0.5,1.3,1.2,3.3,1.9,5.6c2.6,8.1,6.9,21.7,15.7,33
						c10.7,13.8,25.2,20.8,43.1,20.9c0.8,0.1,3.9,0.6,8.4,0.6c14.8,0,49.8-5.4,54.8-55.7c0.7-1.7,5.6-13,16.2-16.8l0.8-0.3l0.4-0.7
						l4-8.3l0.1-0.2v-0.3c0-0.2,0.9-5.1-2.7-9.4c-3.4-4-9.3-6.1-17.7-6.1c-1.7-0.2-27.2-2.5-39.8-3.6
						C546.9,370.3,541.2,369.9,534.2,369.9L534.2,369.9z M535.7,463.2c-1.7,0-3.4-0.1-5.2-0.2c-32.7-2.2-45.2-22.2-49.7-33.9
						c-6-15.6-4.2-32.1,1.2-37.8c1-1.1,2.3-2.1,3.8-3.1c8.6-5.8,24-9.2,42.1-9.2c9.3,0,19,0.9,27.9,2.6c9.2,1.7,15.6,7.3,19.2,16.5
						c2.8,7.1,2.7,13.8,2.7,13.8v0.1v0.1c0,0.2,2.8,22.2-8.8,37.1C561.8,458.5,550.6,463.2,535.7,463.2L535.7,463.2z M376.3,463.2
						c-14.9,0-26.2-4.7-33.3-13.9c-11.6-14.9-8.8-36.9-8.8-37.1v-0.1V412c0-0.1,0-6.8,2.7-13.8c3.6-9.2,10.1-14.7,19.2-16.5
						c9-1.7,18.6-2.6,27.9-2.6c18.2,0,33.5,3.3,42.1,9.2c1.4,1,2.7,2,3.8,3.1c5.5,5.7,7.3,22.3,1.2,37.8
						c-4.5,11.7-17.1,31.7-49.7,33.9C379.8,463.1,378,463.2,376.3,463.2L376.3,463.2z"/>
				</g>
			</g>
		</g>
		<path class="st31" d="M364.2,397.6c-6.1,2.4-11.8,5.9-15.1,8c-0.6,0.4-0.2,1.3,0.5,1.1c9-2.4,18.1-6.1,27.2-10.6
			c0.5-0.2,0.2-0.9-0.3-0.8C372.2,396,368.4,395.9,364.2,397.6z"/>
		<path class="st31" d="M343.8,394c1.6,0.9,11.8-8.2,14.7-10.2C357.2,383.4,347.5,389.4,343.8,394z"/>
	</g>
	<g>
		<path class="st32" d="M613.2,321.7c0,27.7,0,21.4,0,21.4c-98.7-41.4-209.9-41.6-308.7-0.6c0,0,0,6.3,0-21.4c0-17.2,0-34.4,0-51.7
			c-0.2-28.1,45.1-81.4,82.2-87.2c47.9-8.7,97.1-8.5,145,0.4c37,6,81.7,59.3,81.5,87.4C613.2,287.2,613.2,304.5,613.2,321.7z"/>
		<path class="st11" d="M611.8,342.5c-98.4-40.8-209.1-40.9-307.6,0c-0.1-0.3-33.7,35.3-6.4,36.3c13.4,0.2,53-10.1,90-13.7
			c36.9-4.7,71.2-2.6,71-2.9c-0.2,0.3,33.7-1.6,70.1,3c36.6,3.6,75.8,13.8,89.2,13.5C645.5,377.8,611.9,342.3,611.8,342.5z"/>
		<path class="st33" d="M618.2,372.6c-13.4,0.2-52.6-9.9-89.2-13.5c-36.5-4.7-70.3-2.7-70.1-3c0.2,0.3-34.1-1.8-71,2.9
			c-37,3.6-76.6,13.9-90,13.7c-6-0.3-9.1-2.1-10.2-5c-1.5,6.1,0.3,10.8,10.2,11.3c13.4,0.2,53-10.1,90-13.7
			c36.9-4.7,71.2-2.6,71-2.9c-0.2,0.3,33.7-1.6,70.1,3c36.6,3.6,75.8,13.8,89.2,13.5c9.9-0.5,11.7-5.2,10.2-11.3
			C627.3,370.4,624.3,372.3,618.2,372.6z"/>
		<path class="st34" d="M373.3,337.8c0,7-12.4,15.2-27.5,19.6s-27.1,3.3-27.1-3.6s12-17.2,27.1-21.6
			C360.8,327.7,373.3,330.8,373.3,337.8z"/>
		<g>
			<path class="st30" d="M455.5,295.8v-29.9l-11.7-6.1v42.8c-6.7-3.3-11.8-11.5-11.8-20.9v-59.8c0-13.1,1.1-24.8,24.1-24.8
				c-10.2,2.9-12.3,12.4-12.3,18.4v32.2l23.6,12.2v21.3C467.3,295.4,455.5,295.8,455.5,295.8z"/>
			<path class="st34" d="M478.6,208.7v19.7l-10.9,6.1v-31.3c0,0-12.1,0.4-12.1,20.3v16.9l23.6,12.2v32.7c0,6-2,15.1-12.3,18
				c22.9,0,25.4-11.7,25.4-24.8v-32.4l-14.5-6.4l13.2-6.2v-12.8c0-8.9,8-12.1,8-12.1L478.6,208.7L478.6,208.7z"/>
		</g>
		<path class="st35" d="M368,283.8c-0.1-24.4,40.9-64.1,73.4-64.8c42.2-1.7,84.7,3.2,125.8,14.8c15.4,4.3,32.6,17.8,45.9,33.7
			c-2.3-28.7-45.5-79-81.4-84.9c-47.9-8.9-97.1-9.1-145-0.4c-37,5.8-82.4,59.1-82.2,87.2c0,17.2,0,34.4,0,51.7c0,14.7,0,19.9,0,21.4
			c20.7-8.6,42-15.4,63.6-20.3C368,309.3,368,296.5,368,283.8z"/>
	</g>
	<g>
		<path class="st11" d="M484.9,550.6c-1.9-0.1-3.8,0.6-5.2,2.1c0.1,0,0.3,0,0.4,0.1c0.3,0,0.6,0.1,1,0.1c1.1-0.9,2.5-1.3,3.8-1.3
			c3.9,0.2,7.1,4.3,7.1,9.2c0,4.8-3.2,8.6-7.1,8.3c-1.8-0.1-4.1-2-5.6-4c-0.4,0.1-0.8,0.3-1.2,0.4c1.8,2.8,4.5,4.5,6.8,4.6
			c4.5,0.2,8.1-3.9,8.1-9.3C493,555.4,489.4,550.8,484.9,550.6z"/>
	</g>
</g>
<path class="st36" d="M450,19.5C212.6,19.5,19.5,212.6,19.5,450S212.6,880.5,450,880.5S880.5,687.4,880.5,450S687.4,19.5,450,19.5z
	 M854.7,450c0,223.1-181.5,404.7-404.7,404.7C226.9,854.7,45.3,673.1,45.3,450S226.9,45.3,450,45.3S854.7,226.9,854.7,450z"/>
<linearGradient id="SVGID_3_" gradientUnits="userSpaceOnUse" x1="351.0797" y1="-298.0792" x2="431.49" y2="-219.31" gradientTransform="matrix(1 0 0 1 0 684)">
	<stop  offset="0" style="stop-color:#FFFFFF"/>
	<stop  offset="1" style="stop-color:#000000"/>
</linearGradient>
<path class="st37" d="M376.3,463.2c-14.9,0-26.2-4.7-33.3-13.9c-11.6-14.9-8.8-36.9-8.8-37.1v-0.1V412c0-0.1,0-6.8,2.7-13.8
	c3.6-9.2,10.1-14.7,19.2-16.5c9-1.7,18.6-2.6,27.9-2.6c18.2,0,33.5,3.3,42.1,9.2c1.4,1,2.7,2,3.8,3.1c5.5,5.7,7.3,22.3,1.2,37.8
	c-4.5,11.7-17.1,31.7-49.7,33.9C379.8,463.1,378,463.2,376.3,463.2L376.3,463.2z"/>
<linearGradient id="SVGID_4_" gradientUnits="userSpaceOnUse" x1="523.3384" y1="-261.554" x2="485.5948" y2="-234.477" gradientTransform="matrix(1 0 0 1 0 684)">
	<stop  offset="0" style="stop-color:#FFFFFF"/>
	<stop  offset="1" style="stop-color:#000000"/>
</linearGradient>
<path class="st38" d="M535.7,463.2c-1.7,0-3.4-0.1-5.2-0.2c-32.7-2.2-45.2-22.2-49.7-33.9c-6-15.6-4.2-32.1,1.2-37.8
	c1-1.1,2.3-2.1,3.8-3.1c8.6-5.8,24-9.2,42.1-9.2c9.3,0,19,0.9,27.9,2.6c9.2,1.7,15.6,7.3,19.2,16.5c2.8,7.1,2.7,13.8,2.7,13.8v0.1
	v0.1c0,0.2,2.8,22.2-8.8,37.1C561.8,458.5,550.6,463.2,535.7,463.2L535.7,463.2z"/>
</svg>
