<?xml version="1.0" encoding="utf-8"?>
<!-- Generator: Adobe Illustrator 23.0.3, SVG Export Plug-In . SVG Version: 6.00 Build 0)  -->
<svg version="1.1" id="Layer_1" xmlns="http://www.w3.org/2000/svg" xmlns:xlink="http://www.w3.org/1999/xlink" x="0px" y="0px"
	 viewBox="0 0 900 900" style="enable-background:new 0 0 900 900;" xml:space="preserve">
<style type="text/css">
	.st0{opacity:0.8;}
	.st1{fill:#2979FF;}
	.st2{clip-path:url(#SVGID_2_);}
	.st3{fill-rule:evenodd;clip-rule:evenodd;fill:#E1977F;}
	.st4{fill:#EF9A9A;}
	.st5{fill-rule:evenodd;clip-rule:evenodd;fill:#F2A891;}
	.st6{fill:#FF8A80;}
	.st7{fill-rule:evenodd;clip-rule:evenodd;fill:#7E57C2;}
	.st8{fill-rule:evenodd;clip-rule:evenodd;fill:#673AB7;}
	.st9{fill-rule:evenodd;clip-rule:evenodd;fill:#B39DDB;}
	.st10{fill:#7E57C2;}
	.st11{fill:#E1977F;}
	.st12{fill-rule:evenodd;clip-rule:evenodd;fill:#B58979;}
	.st13{fill-rule:evenodd;clip-rule:evenodd;fill:#9E7163;}
	.st14{fill-rule:evenodd;clip-rule:evenodd;fill:#F2C1AD;}
	.st15{fill-rule:evenodd;clip-rule:evenodd;fill:#754C24;}
	.st16{fill-rule:evenodd;clip-rule:evenodd;fill:#8C6239;}
	.st17{fill-rule:evenodd;clip-rule:evenodd;fill:#CE998A;}
	.st18{fill-rule:evenodd;clip-rule:evenodd;fill:#42210B;}
	.st19{fill:#ECEFF1;}
	.st20{fill:#2962FF;}
	.st21{fill:#3949AB;}
	.st22{fill-rule:evenodd;clip-rule:evenodd;fill:#FDEEED;}
	.st23{fill-rule:evenodd;clip-rule:evenodd;fill:#824837;}
	.st24{fill-rule:evenodd;clip-rule:evenodd;fill:#5C6006;}
	.st25{fill-rule:evenodd;clip-rule:evenodd;fill:#683227;}
	.st26{opacity:0.8;fill-rule:evenodd;clip-rule:evenodd;fill:url(#SVGID_3_);}
	.st27{fill-rule:evenodd;clip-rule:evenodd;}
	.st28{opacity:0.8;fill-rule:evenodd;clip-rule:evenodd;fill:url(#SVGID_4_);}
	.st29{fill-rule:evenodd;clip-rule:evenodd;fill:#EF9A9A;}
	.st30{fill:#B0BEC5;}
	.st31{fill:#FFFFFF;}
	.st32{fill:#CFD8DC;}
	.st33{fill:#6200EA;}
	.st34{opacity:0.2;fill:#546E7A;}
	.st35{fill-rule:evenodd;clip-rule:evenodd;fill:#DC7D6D;}
	.st36{fill:#C44B3B;}
	.st37{fill-rule:evenodd;clip-rule:evenodd;fill:#C44B3B;}
</style>
<g class="st0">
	<path class="st1" d="M872.5,472.3c-12.9,223.2-197.9,400.2-424.3,400.2c-234.7,0-425-190.3-425-425c0-234.7,190.3-425,425-425
		c234.7,0,425,190.3,425,425C873.2,455.8,872.9,464.1,872.5,472.3"/>
</g>
<g>
	<g>
		<g>
			<defs>
				<path id="SVGID_1_" d="M872.5,473.3c-12.9,223.2-197.9,400.2-424.3,400.2c-234.7,0-425-190.3-425-425c0-234.7,190.3-425,425-425
					c234.7,0,425,190.3,425,425C873.2,456.8,872.9,465.1,872.5,473.3"/>
			</defs>
			<clipPath id="SVGID_2_">
				<use xlink:href="#SVGID_1_"  style="overflow:visible;"/>
			</clipPath>
			<g class="st2">
				<g>
					<g>
						<path class="st3" d="M585.3,501.1l-4.7-0.1l0.9-4.6c1-5.5,2.1-11.6,3.2-18.5c1.2-7.7,2.4-15.9,3.6-25
							c1.2-9.1,2.3-18.2,3.2-25.1c0.9-7.3,1.6-13.6,2.1-19.4c0.4-4.1,0.7-8.4,1-12.8l0.1-2.4l2.1-1c4-1.9,7.9-2.8,11.7-2.8
							c11.9,0,20.4,9.3,22.6,24.9c2.8,19.7-1.6,46.5-9.9,61c-9.3,16.2-22.5,25.9-35.3,25.9C585.7,501.1,585.5,501.1,585.3,501.1z"/>
						<path class="st4" d="M608.5,393.3c9.6,0,16.7,7.7,18.6,21.5c2.6,18.6-1.6,44.8-9.5,58.5c-9.5,16.5-22,23.9-31.8,23.9
							c-0.2,0-0.3,0-0.5,0c1.2-6.1,2.2-12.4,3.2-18.6c1.3-8.3,2.5-16.7,3.6-25c1.1-8.4,2.2-16.8,3.2-25.1c0.8-6.6,1.5-13.1,2.1-19.6
							c0.4-4.3,0.7-8.7,1-12.9C602.1,394.1,605.4,393.3,608.5,393.3 M608.5,385.3v8V385.3L608.5,385.3c-4.3,0-8.8,1.1-13.4,3.2
							l-4.3,2l-0.3,4.7c-0.3,4.4-0.6,8.6-1,12.7c-0.5,5.8-1.2,12.1-2.1,19.4c-0.8,6.9-2,15.9-3.2,25c-1.2,9-2.4,17.2-3.6,24.9
							c-1.1,6.9-2.1,12.9-3.2,18.4l-1.7,9.3l9.4,0.2c0.2,0,0.4,0,0.7,0c14.2,0,28.7-10.4,38.7-27.9c8.7-15.2,13.3-43.1,10.4-63.6
							C632.6,396.2,622.4,385.3,608.5,385.3L608.5,385.3z"/>
					</g>
				</g>
				<g>
					<path class="st5" d="M329.3,501.6c-12.9,0-26.3-9.8-35.7-26.1c-8.4-14.6-12.8-41.6-10-61.3c2.2-15.6,11-25.3,23-25.3
						c3.8,0,7.8,1,11.9,2.9l2.4,1.1l0.2,2.6c0.3,3.9,0.6,8.2,1,12.8c0.5,5.8,1.2,12.2,2.1,19.4c1,8,2,16.4,3.2,25.1
						c1.1,8.2,2.3,16.6,3.6,24.9c1,6.6,2.1,12.6,3.2,18.5l0.9,5.2l-5.3,0.1C329.7,501.6,329.5,501.6,329.3,501.6z"/>
					<path class="st6" d="M306.7,393.3c3.1,0,6.4,0.8,9.9,2.5c0.3,4.3,0.6,8.6,1.1,12.9c0.6,6.5,1.3,13,2.1,19.6
						c1,8.4,2.1,16.7,3.2,25.1c1.1,8.4,2.3,16.8,3.7,25c1,6.3,2,12.5,3.2,18.6c-0.2,0-0.3,0-0.5,0c-9.8,0-22.3-7.3-31.8-23.9
						c-7.9-13.7-12.1-39.9-9.5-58.5C290,401.1,297.1,393.3,306.7,393.3 M313.1,480.8c0.1,0,0.3,0,0.4,0c2.4-0.4,3.8-3.9,3.2-8
						c-0.6-3.8-2.8-6.7-5-6.7c-0.1,0-0.3,0-0.4,0c-2.4,0.4-3.8,3.9-3.2,8C308.7,477.9,310.9,480.8,313.1,480.8 M306.7,384.3
						c-11.3,0-24.5,7.7-27.5,29.2c-2.9,20.6,1.7,48.8,10.6,64.2c10.2,17.8,25,28.4,39.6,28.4c0.2,0,0.5,0,0.7,0l10.5-0.3l-1.9-10.4
						c-1.1-5.8-2.1-11.9-3.1-18.4c-1.3-8.3-2.5-16.6-3.6-24.8c-1.2-8.6-2.2-17-3.2-25c-0.9-7.2-1.5-13.5-2.1-19.3
						c-0.4-4.6-0.8-8.8-1-12.7l-0.3-5.3l-4.8-2.3C315.8,385.5,311.2,384.3,306.7,384.3L306.7,384.3z"/>
				</g>
				<path class="st7" d="M337.4,861.3c1.5,2.7-2.3,6-4.9,3.5c-2.9-2.8-6.1-5.1-9.5-7.1c-7.4-1.2-14.9-1.9-22-4.3
					c-2.9-1-5.7-2-8.5-3.1c-4.2-1.4-8.4-3.1-12.4-5.2c0.7,0.7,1.4,1.3,2.2,1.9c3.1,2.5-1.3,6.8-4.3,4.3c-4-3.3-7.2-7.3-11.1-10.7
					c-1.9-1.7-4.1-3.1-6.3-4.5c-1,1.4-3,2-4.5,0.4c-2.8-3-6.9-4.1-10.5-6c-4-2.1-7.9-4.4-11.8-6.7c-7.8-4.4-15.3-9.6-22.5-14.9
					c-7.7-5.8-15.4-11.7-22.9-17.7c-0.2-0.2-0.4-0.4-0.6-0.5c-0.7,0.3-1.6,0.3-2.5-0.2c-1.3-0.7-2.5-1.6-3.6-2.5
					c-6.2,16.4-9.7,34.1-9.7,52.6v27.3h182.1C348.7,865.6,343.1,863.3,337.4,861.3z"/>
				<path class="st7" d="M594,691.6H321.3c-60,0-112,36-135.6,87.4c0.8,0.6,1.6,1.2,2.4,1.7c4.6,3.2,9.5,5.6,14.3,8.4
					c9.4,5.7,16.2,14.7,25.5,20.7c5.7,3.7,11.6,7,17.5,10.4c1.1-1.2,2.9-1.7,4.4-0.3c5.5,5.3,12,8.9,18.6,12.3c1.1-1,2.8-1.3,4.1,0
					c2.1,2.1,4.5,3.9,7.2,5.6c0.5,0.2,0.9,0.5,1.4,0.7c15.3,3.5,31,6.1,44.5,13.7c4.5,0.7,9,1.6,13.4,3.2
					c10.3,3.5,20.1,8.2,30.1,12.4c0.1,0.1,0.3,0.1,0.4,0.2h373.6v-27.3C743.1,758.7,676,691.6,594,691.6z"/>
				<path class="st8" d="M234,823.9c-7.8-4.4-15.3-9.6-22.5-14.9c-7.7-5.8-15.4-11.7-22.9-17.7c-0.2-0.2-0.4-0.4-0.6-0.5
					c-0.7,0.3-1.6,0.3-2.5-0.2c-1.3-0.7-2.5-1.6-3.6-2.5c-6.2,16.4-9.7,34.1-9.7,52.6v27.3h71.6v-27.3c0-3.7,0.1-7.4,0.3-11
					C240.7,827.8,237.3,825.8,234,823.9z"/>
				<path class="st8" d="M321.3,691.6c-60,0-112,36-135.6,87.4c0.8,0.6,1.6,1.2,2.4,1.7c4.6,3.2,9.5,5.6,14.3,8.4
					c9.4,5.7,16.2,14.7,25.5,20.7c5.5,3.5,11.3,6.8,17,10.1c7.2-72.2,51.2-128.3,104-128.3H321.3z"/>
				<path class="st9" d="M566.4,691.6H594c82,0,149.1,67.1,149.1,149.1v27.3h-71.6v-27.3C671.5,758.7,624.2,691.6,566.4,691.6z"/>
				<path class="st10" d="M594,686.1H321.3c-61.9,0-115.5,36.6-140.1,89.4c0.1,0.1,0.2,0.2,0.3,0.3c2.2,1.7,4.4,3.3,6.6,4.9
					c0.7,0.5,1.4,1,2.1,1.4c22.5-50,72.7-85,131.1-85H594c79.2,0,143.6,64.4,143.6,143.6v21.8H356.8c4.1,1.8,8.1,3.6,12.2,5.3
					c2.6,1.1,2.5,4.5,0.8,5.7h373.2c3,0,5.5-2.5,5.5-5.5v-27.3C748.6,755.4,679.2,686.1,594,686.1z"/>
				<path class="st6" d="M340.7,862.5h-3c0.1,2.3-3,4.5-5.2,2.4c-0.9-0.8-1.8-1.6-2.7-2.4H177.6v-21.8c0-17.5,3.1-34.3,8.9-49.8
					c-0.3,0-0.7-0.1-1.1-0.3c-3.2-1.7-5.6-4.2-7.9-6.8c-7,17.6-10.9,36.8-10.9,57v27.3c0,3,2.5,5.5,5.5,5.5h194.8
					C358.2,869.8,349.6,865.8,340.7,862.5z"/>
				<path class="st5" d="M370.6,561.2c0,0,0,66.6,0,92.6c0,26-21.8,37.8-21.8,37.8c0,68.4,217.5,68.4,217.5,0
					c0,0-21.8-11.8-21.8-37.8c0-26,0-92.6,0-92.6H370.6z"/>
				<path class="st3" d="M370.6,624.5c21.8,21.3,46.7,47.5,51.1,50.5c6.5,4.3,21.2,6.4,35.8,6.4c14.6,0,29.3-2.2,35.8-6.4
					c4.5-2.9,29.3-21.6,51.1-41.8v-72H370.6V624.5z"/>
				<path class="st4" d="M457.6,748.4c-55,0-114.2-17.8-114.2-56.8v-3.3l2.9-1.6c0.8-0.4,18.9-10.7,18.9-32.9v-98.1H550v98.1
					c0,22.3,18.2,32.5,18.9,33l2.8,1.6l0,3.2C571.9,730.6,512.6,748.4,457.6,748.4z M354.5,694.5c3.2,28.2,53.5,42.9,103.1,42.9
					c49.6,0,99.9-14.7,103.1-42.9c-6.6-4.6-21.7-17.6-21.7-40.7v-27.9v-59.2h-163v87.1C376.1,676.9,361.1,689.9,354.5,694.5z"/>
				<path class="st5" d="M456.2,642.3c-14.7,0-29.3-2.1-35.8-6.4c-5.5-3.6-42.5-31.5-66-56.4c-9.2-9.7-16.5-27.2-19.8-40.6
					c-5.8-24-9.8-48.6-13-73.1c-1.1-8.4-2.2-16.8-3.2-25.2c-0.8-6.6-1.5-13.1-2.1-19.5c-0.6-6.5-1.1-12.9-1.4-19.3
					c-0.3-6.3-0.5-12.6-0.5-18.9c0-6.2,0.2-12.4,0.7-18.4c0.4-9.3,1.8-18.4,4-27.2c2.2-8.8,5.2-17.3,8.9-25.4
					c25.7-55.6,77.1-82.2,128.3-82.1c51.1-0.1,102.5,26.6,128.3,82.1c3.8,8.1,6.7,16.5,8.9,25.4c2.2,8.8,3.5,17.9,3.9,27.2
					c0.5,6.1,0.7,12.2,0.7,18.4c0,6.2-0.2,12.5-0.5,18.9c-0.3,6.4-0.8,12.8-1.4,19.3c-0.6,6.5-1.3,13-2.1,19.5
					c-1,8.4-2.1,16.8-3.2,25.2c-3.3,24.5-7.2,49.1-13,73.1c-3.3,13.4-10.6,30.9-19.8,40.6c-23.5,24.9-60.5,52.8-66,56.4
					C485.5,640.2,470.9,642.3,456.2,642.3z"/>
				<path class="st3" d="M484.6,386.1c-19.5,27.3-18.5,54.5-18.5,83.1c14.7,3,15.6,5.8,23.4,13.2c-10.3-19.2-24.8-45.9-4-74.1
					c10.4-14.1,50-19.1,71.3-4.7c1.2,0.8,2.6-0.8,1.7-1.9c-6.3-7.5-19.7-17.9-39.3-19.9C509.2,380.9,496.3,382.1,484.6,386.1z"/>
				<path class="st11" d="M457.6,507.2c-5.3,0-10.3-1.7-14.4-4.8c-5.9,3.6-14.2,2.8-19.2-2.2c-1.5-1.5-1.5-3.9,0-5.4
					c1.5-1.5,3.9-1.5,5.4,0c3,3,8.2,3,11.2,0l0,0c0.3-0.3,0.6-0.5,1-0.7l0,0l0,0l0,0h0l0,0l0,0l0,0l0,0h0l0,0v0l0,0l0,0l0,0h0l0,0
					l0,0l0,0h0v0l0,0l0,0l0,0l0,0h0l0,0l0,0l0,0l0,0l0,0c0,0,0,0,0,0l0,0l0,0l0,0l0,0h0l0,0l0,0l0,0c0,0,0,0,0,0l0,0l0,0l0,0l0,0h0
					l0,0l0,0l0,0v0h0l0,0c0.2-0.1,0.3-0.1,0.5-0.2l0,0l0,0l0,0h0l0,0l0,0l0,0l0,0l0,0l0,0l0,0h0l0,0l0,0l0,0l0,0h0l0,0l0,0l0,0h0
					l0,0l0,0v0h0l0,0l0,0l0,0l0,0c0,0,0,0,0,0l0,0l0,0c1.2-0.3,2.5,0.1,3.5,1l0,0l0,0l0,0c0,0,0,0,0,0h0l0,0l0,0l0,0v0l0,0l0,0l0,0
					h0c6.1,6.2,16.9,6.2,23.1,0c1.2-1.1,2.8-1.4,4.3-0.8l0,0v0l0,0l0,0c0,0,0,0,0,0l0,0l0,0l0,0h0l0,0l0,0l0,0l0,0v0h0l0,0l0,0l0,0
					h0l0,0l0,0l0,0v0h0l0,0l0,0l0,0l0,0h0l0,0l0,0v0l0,0h0l0,0l0,0l0,0h0l0,0l0,0l0,0l0,0v0h0l0,0l0,0l0,0h0l0,0l0,0v0l0,0l0,0h0
					l0,0l0,0h0l0,0v0l0,0c0,0,0,0,0,0l0,0l0,0l0,0l0,0l0,0h0l0,0v0l0,0c0,0,0,0,0,0l0,0l0,0l0,0l0,0l0,0c0,0,0,0,0,0l0,0l0,0l0,0
					l0,0h0l0,0l0,0l0,0c0,0,0,0,0,0l0,0l0,0l0,0l0,0l0,0l0,0l0,0l0,0h0l0,0l0,0l0,0c0,0,0,0,0,0l0,0v0l0,0l0,0l0,0c0,0,0,0,0,0l0,0
					l0,0v0c0.1,0.1,0.2,0.2,0.4,0.3l0,0l0,0l0,0l0,0l0,0l0,0l0,0l0,0l0,0l0,0l0,0l0,0l0,0h0l0,0l0,0l0,0c0,0,0,0,0,0l0,0l0,0h0l0,0
					c0,0,0,0,0,0l0,0l0,0h0l0,0l0,0l0,0c0,0,0,0,0,0l0,0l0,0l0,0l0,0v0l0,0h0l0,0l0,0l0,0l0,0l0,0l0,0c0,0,0,0,0,0c0,0,0,0,0,0h0
					l0,0l0,0v0l0,0h0l0,0l0,0c3,3,8.2,3,11.2,0c1.5-1.5,3.9-1.5,5.4,0c1.5,1.5,1.5,3.9,0,5.4c-5,5-13.3,5.9-19.2,2.2
					C467.9,505.5,462.9,507.2,457.6,507.2z"/>
				<path class="st12" d="M318.7,418.5c0,0,36.8,105.3,60,118.1c23.2,12.8,24.1-19.7,46.1-19.7l32.8,2.2l32.8-2.2
					c22,0,23,32.5,46.1,19.7c23.2-12.8,60-118.1,60-118.1l1.2,1.2l-0.2,2c-0.6,6.5-1.3,13-2.1,19.5c-1,8.4-2.1,16.8-3.2,25.2
					c-3.3,24.5-7.2,49.1-13,73.1c-3.3,13.4-10.6,30.9-19.8,40.6c-23.5,24.9-60.5,52.8-66,56.4c-6.5,4.3-21.2,6.4-35.8,6.4
					c-14.7,0-29.3-2.1-35.8-6.4c-5.5-3.6-42.5-31.5-66-56.4c-9.2-9.7-16.5-27.2-19.8-40.6c-5.8-24-9.8-48.6-13-73.1
					c-1.1-8.4-2.2-16.8-3.2-25.2c-0.8-6.6-1.5-13.1-2.1-19.5l-0.2-2L318.7,418.5L318.7,418.5z M457.6,535.1
					c-0.2-0.1-0.4-0.2-0.5-0.3c-7.6-4.4-18.4-1.9-25.6,2c-6.2,3.3-12.7,6.4-19.1,9.2c-7.4,3.3-12.3,30.5-7.1,38.7
					c2.5,3.9,18.7,30.9,21.7,29.2c6.6-3.7,6-26,15.5-40.5c4.7,0.7,10.3,0.3,15.1-0.4c4.8,0.7,10.4,1.1,15.1,0.4
					c8.9-1.4,7.8,35.9,13.3,40.5c6,5,18.6-22.8,22.6-29.2c4.5-7.1,0.4-36-5.7-38.7c-6.4-2.9-13-5.9-19.1-9.2
					c-7.2-3.9-18.1-6.4-25.6-2C458,534.9,457.8,535,457.6,535.1z"/>
				<path class="st3" d="M486.3,639.6c2.9-0.9,5.4-1.9,7.2-3.1c5.5-3.6,42.5-31.5,66-56.4c9.2-9.7,16.5-27.2,19.8-40.6
					c5.8-24,9.8-48.6,13-73.1c1.1-8.4,2.2-16.8,3.2-25.2c0.8-6.6,1.5-13.1,2.1-19.5c0.6-6.5,1.1-12.9,1.4-19.3
					c0.3-6.3,0.5-12.6,0.5-18.9c0-6.2-0.2-12.4-0.7-18.4c-0.4-9.3-1.8-18.4-3.9-27.2c-2.2-8.8-5.2-17.3-8.9-25.4
					c-18.9-40.9-51.8-66.1-88.2-76.6c24,12.5,63.8,17.2,65.6,69.3c0.3,8.7-5.1,42.2-2.2,50.8c15.6,45.8,23.1,62.7,6,93.5
					c-12.2,22-7.7,69.7-12.2,94.3C547.5,584.7,515.7,611.8,486.3,639.6z"/>
				<path class="st13" d="M557.5,509.7c19.6-35.3,39.1-91.2,39.1-91.2l1.2,1.2l0,0.2l0,0.3l0,0.3l0,0.3l0,0.3l0,0.3l0,0.3
					c-0.6,6.5-1.3,13-2.1,19.5c-1,8.4-2.1,16.8-3.2,25.2c-3.3,24.5-7.2,49.1-13,73.1c-3.3,13.4-10.6,30.9-19.8,40.6
					c-23.5,24.9-60.5,52.8-66,56.4l-0.1,0.1l-0.1,0.1l-0.1,0.1l-0.1,0h0l-0.1,0.1l-0.1,0l-0.1,0.1h0l-0.1,0.1l-0.1,0.1l-0.1,0.1
					l-0.1,0.1h0l-0.1,0l-0.1,0.1l-0.1,0.1h0l-0.1,0.1l-0.1,0.1l-0.1,0.1l-0.1,0.1h0l-0.1,0l-0.1,0.1l-0.1,0.1l0,0l-0.1,0l-0.1,0.1
					l-0.1,0.1l-0.1,0l0,0l-0.1,0l-0.1,0.1l-0.1,0l-0.1,0.1h0l-0.1,0.1l-0.1,0.1l-0.1,0.1h0l-0.1,0.1l-0.1,0l-0.1,0l-0.1,0.1l0,0
					l-0.1,0l-0.1,0.1l-0.1,0.1l0,0l-0.1,0l-0.1,0l-0.1,0.1l-0.1,0.1l0,0l-0.1,0.1l-0.1,0l-0.1,0.1l-0.1,0l0,0l-0.1,0.1l-0.1,0
					l-0.1,0.1l0,0l-0.1,0l-0.1,0l-0.1,0.1l-0.1,0.1h0l-0.1,0l-0.1,0l-0.1,0.1l0,0h-0.1l-0.1,0.1l-0.1,0.1l-0.3,0.1l-0.2,0.1l-0.1,0
					c29.4-27.9,61.2-55,68.6-95.7C556.6,534.8,557,522.6,557.5,509.7z"/>
				<path class="st14" d="M429,639.6c-2.9-0.9-5.4-1.9-7.2-3.1c-5.5-3.6-42.5-31.5-66-56.4c-9.2-9.7-16.5-27.2-19.8-40.6
					c-5.8-24-9.8-48.6-13-73.1c-1.1-8.4-2.2-16.8-3.2-25.2c-0.8-6.6-1.5-13.1-2.1-19.5c-0.6-6.5-1.1-12.9-1.4-19.3
					c-0.3-6.3-0.5-12.6-0.5-18.9c0-6.2,0.2-12.4,0.7-18.4c0.4-9.3,1.8-18.4,4-27.2c2.2-8.8,5.2-17.3,8.9-25.4
					c18.9-40.9,51.8-66.1,88.2-76.6c-24,12.5-45.2,36.9-58,73.9c-2.8,8.2-2.4,37.5-5.4,46.2c-15.6,45.8-23.1,62.7-6,93.5
					c12.2,22,7.7,69.7,12.1,94.3C367.7,584.7,399.5,611.8,429,639.6z"/>
				<path class="st15" d="M323.9,390c4.7-4.3,17.4-23.9,20.1-27.4c2.7-3.5-13.7-43.1,15.3-57.7c29-14.6,99.6,12.1,99.6,12.1
					s67.8-26.7,96.8-12.1c29,14.6,12.6,54.1,15.3,57.7c2.7,3.6,17.3,24.8,20.6,27.9c0.2,2.6,0.3,5.2,0.5,7.8
					c0.2,23,0.5,42.4,0.7,64.1c0.9-7.1,1.8-14.1,2.7-21.2c0.8-6.6,1.5-13.1,2.1-19.5c0.6-6.5,1.1-12.9,1.4-19.3
					c0.3-6.3,0.5-12.6,0.5-18.9c0-6.2-0.2-12.4-0.7-18.4c-0.4-9.3-1.8-18.4-3.9-27.2c-2.2-8.8-5.2-17.3-8.9-25.4
					c-25.7-55.6-77.1-82.2-128.3-82.1c-51.1-0.1-102.5,26.6-128.3,82.1c-3.8,8.1-6.7,16.5-8.9,25.4c-2.2,8.8-3.5,17.9-4,27.2
					c-0.4,6.1-0.6,12.2-0.7,18.4c0,6.2,0.2,12.5,0.5,18.9c0.3,6.4,0.8,12.8,1.4,19.3c0.6,6.5,1.3,13,2.1,19.5
					c0.8,6.7,1.6,13.3,2.5,20C322.5,438.6,322.8,421.2,323.9,390z"/>
				<path class="st16" d="M563.1,309.9c18.6,17.1,5.5,49.5,8,52.7c2.7,3.6,17.3,24.8,20.6,27.9c0.2,2.6,0.3,5.2,0.5,7.8
					c0.2,23,0.5,42.4,0.7,64.1c0.9-7.1,1.8-14.1,2.7-21.2c0.8-6.6,1.5-13.1,2.1-19.5c0.6-6.5,1.1-12.9,1.4-19.3
					c0.3-6.3,0.5-12.6,0.5-18.9c0-6.2-0.2-12.4-0.7-18.4c-0.4-9.3-1.8-18.4-3.9-27.2c-2.2-8.8-5.2-17.3-8.9-25.4
					c-6.5-14-14.6-26.2-24-36.6c0.6,9.4,0.9,19.3,1.3,29.3C563.3,306.4,563.2,308,563.1,309.9z"/>
				<path class="st17" d="M318.7,418.5c0,0,19.5,55.9,39.1,91.2c0.5,12.9,0.9,25.1,2.6,34.2c7.4,40.8,39.2,67.9,68.7,95.7l-0.1,0
					l-0.2-0.1l-0.3-0.1l-0.1-0.1l-0.2-0.1h-0.1l-0.1,0l-0.1-0.1l-0.1,0l-0.1,0h0l-0.1-0.1l-0.1-0.1l-0.1,0l-0.1,0l0,0L427,639
					l-0.1,0l-0.1-0.1l0,0l-0.1,0l-0.1-0.1l-0.1,0l-0.1-0.1l0,0l-0.1-0.1l-0.1-0.1l-0.1,0l-0.1,0l-0.1,0l-0.1-0.1l-0.1-0.1l-0.1,0
					l0,0l-0.1-0.1l-0.1,0l-0.1,0l-0.1-0.1H425l-0.1-0.1l-0.1-0.1l-0.1-0.1h0l-0.1-0.1l-0.1,0l-0.1-0.1l-0.1,0l0,0l-0.1,0l-0.1-0.1
					l-0.1-0.1l-0.1,0l-0.1,0l-0.1-0.1l-0.1-0.1l-0.1,0h0l-0.1-0.1l-0.1-0.1l-0.1-0.1l-0.1-0.1h0l-0.1-0.1l-0.1-0.1l-0.1,0h0
					l-0.1-0.1l-0.1-0.1l-0.1-0.1l-0.1-0.1h0l-0.1-0.1l-0.1,0l-0.1-0.1h0l0,0l-0.1-0.1l-0.1-0.1l-0.1-0.1c-5.5-3.6-42.5-31.5-66-56.4
					c-9.2-9.7-16.5-27.2-19.8-40.6c-5.8-24-9.8-48.6-13-73.1c-1.1-8.4-2.2-16.8-3.2-25.2c-0.8-6.6-1.5-13.1-2.1-19.5l0-0.3l0-0.3
					l0-0.3l0-0.3l0-0.3l0-0.3l0-0.2L318.7,418.5z"/>
				<path class="st18" d="M323.9,390L323.9,390l0.1-0.1l0,0l0.1-0.1l0-0.1l0,0c7.3-7,15.5-21.4,19.9-27.2c1.5-1.9-2.8-14.8-2.1-28.4
					l0-0.5v-0.1c0.8-12.5,6.1-24.1,19-29.5l0,0h0l0.1,0l0,0l0,0h0l0,0l0,0h0l0,0l0,0h0l0,0h0.1l0,0l0,0l0,0l0.1,0l0,0h0l0,0l0.1,0
					l0,0l0,0h0h0l0,0l0.1,0l0,0h0l0,0l0,0l0,0l0,0l0,0h0.1l0,0l0,0l0,0l0.1,0l0,0c63.5-74.3,142.1-58.5,190.1-37.9
					c-26.5-23.9-60.4-35.5-94.2-35.5c-13.5,0-27,1.8-40,5.5l-0.3,0.1l-0.2,0.1l-1.9,0.6l-0.9,0.3l-0.7,0.2
					c-34.8,11.1-66,36-84.2,75.4c-3.8,8.1-6.7,16.5-8.9,25.4c-2.2,8.8-3.5,17.9-4,27.2c-0.4,6.1-0.6,12.2-0.7,18.4
					c0,6.2,0.2,12.5,0.5,18.9c0.3,6.3,0.8,12.6,1.4,19l0,0l0,0.3c0.6,6.5,1.3,13,2.1,19.5c0.8,6.7,1.6,13.3,2.5,20
					C322.5,438.6,322.8,421.2,323.9,390z"/>
				<path class="st19" d="M486.5,484.1c-0.9,0-1.8,0.1-2.6,0.3c0.1,0.3,0.2,0.6,0.3,0.9c0.7-0.2,1.5-0.2,2.3-0.2
					c6.1,0,11.1,5,11.1,11.1s-5,11.1-11.1,11.1c-2.8,0-5.3-1-7.3-2.7c-0.5,0-1-0.1-1.5-0.1c2.2,2.4,5.3,3.8,8.8,3.8
					c6.7,0,12.1-5.4,12.1-12.1S493.2,484.1,486.5,484.1z"/>
			</g>
		</g>
		<path class="st4" d="M372.5,498.5C382,509,387,526,386,537"/>
		<g>
			
				<ellipse transform="matrix(0.1515 -0.9885 0.9885 0.1515 45.9341 1000.035)" class="st20" cx="605.5" cy="473.3" rx="11.2" ry="6.6"/>
			
				<ellipse transform="matrix(0.1515 -0.9885 0.9885 0.1515 45.0665 998.6428)" class="st21" cx="604.2" cy="473.1" rx="7" ry="4.1"/>
		</g>
		<g>
			
				<ellipse transform="matrix(0.9885 -0.1515 0.1515 0.9885 -68.158 52.5923)" class="st20" cx="311.1" cy="473.6" rx="6.9" ry="11.8"/>
			
				<ellipse transform="matrix(0.9885 -0.1515 0.1515 0.9885 -68.1124 52.7887)" class="st21" cx="312.4" cy="473.4" rx="4.4" ry="7.4"/>
		</g>
		<g>
			<path class="st22" d="M363.7,419c22.7-23.4,42-19.3,64,3c-14.4,0.5-22.5,19.2-45.1,11.5C371.7,429.7,363.7,419,363.7,419z"/>
			<path class="st23" d="M395.8,413.6c3.8,0,6.8,3.1,6.8,6.8c0,3.8-3.1,6.8-6.8,6.8c-3.8,0-6.8-3-6.8-6.8
				C388.9,416.6,392,413.6,395.8,413.6z"/>
			<path class="st24" d="M395.8,405.1c7.9,0,14.2,6.4,14.2,14.3c0,7.9-6.4,14.2-14.2,14.2c-7.9,0-14.2-6.4-14.2-14.2
				C381.5,411.4,387.9,405.1,395.8,405.1z"/>
			<path class="st25" d="M395.8,412.5c3.8,0,6.8,3,6.8,6.8c0,3.8-3.1,6.8-6.8,6.8c-3.8,0-6.8-3.1-6.8-6.8
				C388.9,415.5,392,412.5,395.8,412.5z"/>
			<path class="st11" d="M390.7,439.7c-3.8,0.2-7.7-0.4-11.8-1.8c-12.1-4.2-19.5-16.6-19.7-17c-0.7-1.2-0.5-2.8,0.5-3.9
				c11.8-12.4,21.7-18.4,31.8-17.9c10.9,0.4,21.7,8.7,36,20.8c0.8,0.7,1.2,1.7,0.9,2.6c-0.3,0.9-1.2,1.6-2.3,1.7
				c-4.9,0.3-8.9,2.9-13.6,6.2C406.8,434.3,400.1,439.2,390.7,439.7z M365.2,419.3c2.5,3.4,8.2,10.2,15.8,12.9
				c3.4,1.2,6.7,1.7,9.8,1.6c7.6-0.3,13.3-4.3,18.6-7.9c3.4-2.3,6.8-4.5,10.6-5.7C398.1,401.4,385.2,398.5,365.2,419.3z"/>
			<path class="st22" d="M551.9,419c-22.7-23.4-42-19.3-64,3c14.4,0.5,22.5,19.2,45.1,11.5C544,429.7,551.9,419,551.9,419z"/>
			<path class="st23" d="M519.9,413.6c-3.8,0-6.8,3.1-6.8,6.8c0,3.8,3,6.8,6.8,6.8c3.8,0,6.8-3,6.8-6.8
				C526.7,416.6,523.7,413.6,519.9,413.6z"/>
			<path class="st24" d="M519.9,405.1c-7.9,0-14.3,6.4-14.3,14.3c0,7.9,6.4,14.2,14.3,14.2c7.9,0,14.2-6.4,14.2-14.2
				C534.2,411.4,527.8,405.1,519.9,405.1z"/>
			<path class="st25" d="M519.9,412.5c-3.8,0-6.8,3-6.8,6.8c0,3.8,3,6.8,6.8,6.8c3.8,0,6.8-3.1,6.8-6.8
				C526.7,415.5,523.7,412.5,519.9,412.5z"/>
			<path class="st11" d="M522.5,439.5C522.5,439.5,522.5,439.5,522.5,439.5c-8.4-0.4-14.7-5.3-20.5-9.1c-4.8-3.2-9-5.8-13.8-6
				c-1.1-0.1-2.1-0.7-2.6-1.6c-0.5-0.9-0.3-1.9,0.3-2.6c12-12.3,24.1-20.7,36.1-21.1c11.1-0.6,22.1,5.4,31.9,17.8
				c0.9,1.1,0.8,2.7-0.1,3.9c-0.4,0.4-9.6,12.8-20.8,17C529.4,439.1,525.9,439.7,522.5,439.5z M493.7,420.3c4,1.2,7.6,3.4,11,5.6
				c5.4,3.5,10.8,7.5,17.9,7.7c0,0,0,0,0,0c2.9,0.1,5.9-0.4,9.2-1.6c7.3-2.7,13.6-9.5,16.5-12.9
				C531.1,398.3,512.9,401.2,493.7,420.3z"/>
		</g>
	</g>
	<path class="st4" d="M457.6,648.4c-6.5,0-28.4-0.5-38.8-7.3c-5-3.3-42.8-31.7-67-57.3c-10.6-11.2-18-30.2-21.1-43.1
		c-6.4-26.4-10.4-53.3-13.1-73.7c-1.2-8.4-2.2-16.9-3.2-25.2c-0.8-6.6-1.5-13.2-2.1-19.7c-0.6-6.5-1.1-13-1.4-19.4
		c-0.3-6.5-0.5-12.8-0.5-19.2c0-6.5,0.3-12.8,0.7-18.8c0.4-9.4,1.8-18.9,4.1-28.2c2.2-9,5.4-17.9,9.3-26.3
		c24.7-53.4,74.5-85.3,133-85.3c59.1,0,108.8,31.9,133.5,85.3c3.9,8.4,7,17.3,9.3,26.4c2.3,9.2,3.7,18.8,4.1,28.3
		c0.4,5.9,0.6,12.2,0.7,18.7c0,6.3-0.2,12.7-0.5,19.2c-0.3,6.4-0.8,12.9-1.4,19.4c-0.6,6.5-1.3,13.1-2.1,19.7
		c-1,8.4-2.1,16.8-3.2,25.2c-2.8,20.4-6.7,47.3-13.1,73.7c-3.1,12.9-10.6,31.9-21.2,43.1c-24.2,25.6-62,54-66.9,57.3
		C486.1,647.9,464.1,648.4,457.6,648.4z M457.9,235.9c-54.7,0-100.7,29.5-123.6,78.9c-3.6,7.8-6.5,16-8.5,24.4
		c-2.1,8.6-3.4,17.4-3.8,26.2c-0.4,5.9-0.6,12-0.7,18.2c0,6.1,0.1,12.3,0.5,18.6c0.3,6.3,0.8,12.6,1.4,19c0.6,6.4,1.3,12.9,2.1,19.4
		c1,8.3,2.1,16.7,3.2,25.1c2.7,20.2,6.6,46.7,12.9,72.6c3,12.5,9.9,29.1,18.5,38.1c23.5,24.9,60.2,52.5,65,55.6
		c5.1,3.3,18.3,5.5,32.8,5.5c14.6,0,27.8-2.2,32.8-5.5c4.8-3.2,41.5-30.7,65-55.6c8.6-9,15.5-25.7,18.5-38.2
		c6.3-25.9,10.2-52.4,12.9-72.6c1.1-8.3,2.2-16.7,3.2-25.1c0.8-6.5,1.5-13,2.1-19.4c0.6-6.4,1.1-12.7,1.4-19
		c0.3-6.3,0.5-12.5,0.5-18.6c0-6.2-0.3-12.3-0.6-18.1c-0.4-9-1.7-17.8-3.8-26.3c-2.1-8.3-4.9-16.5-8.6-24.4
		C558,265.4,512,235.9,457.9,235.9z"/>
	<g>
		<g>
			<g>
				<path class="st25" d="M559.2,403.7c4.7,5.4,11.5-0.5,6.8-5.9C530.5,370.6,500,369,481,384c-6.7,5.3-11.8,17.4-4,19
					C488.1,384.3,541.8,383.6,559.2,403.7z"/>
				<path class="st25" d="M352.9,400.4c-5.3,4.8-11.3-1.8-6-6.6c38.4-22.8,67.8-26.7,82.2-4.6c3.3,5.1,4.9,9.7,2.6,12.1
					c-1.7,1.8-4.7,1.4-6-0.7C414.4,383.2,371.7,383.2,352.9,400.4z"/>
				<path class="st22" d="M363.7,419c22.7-23.4,42-19.3,64,3c-14.4,0.5-22.5,19.2-45.1,11.5C371.7,429.7,363.7,419,363.7,419z"/>
				<path class="st23" d="M395.8,413.6c3.8,0,6.8,3.1,6.8,6.8c0,3.8-3.1,6.8-6.8,6.8c-3.8,0-6.8-3-6.8-6.8
					C388.9,416.6,392,413.6,395.8,413.6z"/>
				<path class="st24" d="M395.8,405.1c7.9,0,14.2,6.4,14.2,14.3c0,7.9-6.4,14.2-14.2,14.2c-7.9,0-14.2-6.4-14.2-14.2
					C381.5,411.4,387.9,405.1,395.8,405.1z"/>
				<radialGradient id="SVGID_3_" cx="395.7549" cy="419.3042" r="9.9955" gradientUnits="userSpaceOnUse">
					<stop  offset="0" style="stop-color:#8C6239"/>
					<stop  offset="1" style="stop-color:#754C24;stop-opacity:0.8"/>
				</radialGradient>
				<path class="st26" d="M395.8,409.3c-5.5,0-10,4.5-10,10c0,5.5,4.5,10,10,10c5.5,0,10-4.5,10-10
					C405.7,413.8,401.3,409.3,395.8,409.3z"/>
				<path class="st27" d="M395.8,412.5c3.8,0,6.8,3,6.8,6.8c0,3.8-3.1,6.8-6.8,6.8c-3.8,0-6.8-3.1-6.8-6.8
					C388.9,415.5,392,412.5,395.8,412.5z"/>
				<path class="st11" d="M390.7,439.7c-3.8,0.2-7.7-0.4-11.8-1.8c-12.1-4.2-19.4-16.7-19.7-17c-2.6-2.8-0.5-2.8,0.5-3.9
					c11.8-12.4,21.7-18.4,31.8-17.9c10.9,0.4,21.7,8.7,36,20.8c0.8,0.7,1.2,1.7,0.9,2.6c-0.3,0.9-1.2,1.6-2.3,1.7
					c-4.9,0.3-8.9,2.9-13.6,6.2C406.8,434.3,400.1,439.2,390.7,439.7z M365.2,419.3c2.5,3.4,8.2,10.2,15.8,12.9
					c3.4,1.2,6.7,1.7,9.8,1.6c7.6-0.3,13.3-4.3,18.6-7.9c3.4-2.3,6.8-4.5,10.6-5.7C398.1,401.4,385.2,398.5,365.2,419.3z"/>
				<path class="st22" d="M551.9,419c-22.7-23.4-42-19.3-64,3c14.4,0.5,22.5,19.2,45.1,11.5C544,429.7,551.9,419,551.9,419z"/>
				<path class="st23" d="M519.9,413.6c-3.8,0-6.8,3.1-6.8,6.8c0,3.8,3,6.8,6.8,6.8c3.8,0,6.8-3,6.8-6.8
					C526.7,416.6,523.7,413.6,519.9,413.6z"/>
				<path class="st24" d="M519.9,405.1c-7.9,0-14.3,6.4-14.3,14.3c0,7.9,6.4,14.2,14.3,14.2c7.9,0,14.2-6.4,14.2-14.2
					C534.2,411.4,527.8,405.1,519.9,405.1z"/>
				<radialGradient id="SVGID_4_" cx="519.9296" cy="419.3042" r="10.4551" gradientUnits="userSpaceOnUse">
					<stop  offset="0" style="stop-color:#8C6239"/>
					<stop  offset="1" style="stop-color:#754C24;stop-opacity:0.8"/>
				</radialGradient>
				<path class="st28" d="M519.9,408.8c-5.8,0-10.5,4.7-10.5,10.5c0,5.8,4.7,10.5,10.5,10.5c5.8,0,10.5-4.7,10.5-10.5
					C530.4,413.5,525.7,408.8,519.9,408.8z"/>
				<path class="st27" d="M519.9,412.5c-3.8,0-6.8,3-6.8,6.8c0,3.8,3,6.8,6.8,6.8c3.8,0,6.8-3.1,6.8-6.8
					C526.7,415.5,523.7,412.5,519.9,412.5z"/>
				<path class="st11" d="M522.7,439.7C522.7,439.7,522.7,439.7,522.7,439.7c-8.4-0.4-14.7-5.3-20.5-9.1c-4.8-3.2-9-5.8-13.8-6
					c-1.1-0.1-2.1-0.7-2.6-1.6c-0.5-0.9-0.3-1.9,0.3-2.6c12-12.3,24.1-20.7,36.1-21.1c11.1-0.6,22.1,5.4,31.9,17.8
					c0.9,1.1,3.3,0.2-0.1,3.9c-0.4,0.5-9.6,12.8-20.8,17C529.7,439.3,526.2,439.9,522.7,439.7z M493.9,420.5c4,1.2,7.6,3.4,11,5.6
					c5.4,3.5,10.8,7.5,17.9,7.7c0,0,0,0,0,0c2.9,0.1,5.9-0.4,9.2-1.6c7.3-2.7,13.6-9.5,16.5-12.9
					C531.3,398.5,513.1,401.4,493.9,420.5z"/>
				<g>
					<path class="st1" d="M533,471.1c-4.5,0-7.6-0.5-8.2-0.6c-40.2-0.1-51.9-36.6-56.9-52.2c-0.7-2.3-1.4-4.3-1.9-5.6
						c-1.9-4.5-5.7-7.3-9.9-7.3c-4.3,0-8,2.8-9.9,7.3c-0.5,1.3-1.2,3.3-1.9,5.6c-5,15.6-16.7,52.2-57,52.2c-0.6,0.1-3.6,0.6-8.2,0.6
						c-14.3,0-48.1-5.3-52.9-54c-0.4-1.1-4.4-13.1-15.5-17.1l-0.3-0.1l-5.2-8.4l0-0.2c0-0.2-0.8-4.4,2.4-8.2
						c3.1-3.7,8.7-5.6,16.8-5.6c1.3-0.1,26.6-2.7,39.1-3.7c3.8-0.3,9.6-0.8,16.6-0.8c14.9,0,29.7,1.9,45.1,5.8
						c13.3,3.4,22.2,5.2,31,5.2c8.8,0,17.7-1.9,31.2-5.3c15.7-4,30.6-5.9,45.5-5.9c6.8,0,12.4,0.4,16,0.7
						c12.7,1.1,38.9,3.5,39.1,3.5c0,0,0,0,0,0c7.9,0,13.5,1.9,16.6,5.6c3.2,3.9,2.4,8.2,2.4,8.4l0,0.1l-4.1,8.6l-0.4,0.1
						c-11,4-16,15.9-16.5,17.2C581.1,465.8,547.3,471.1,533,471.1C533,471.1,533,471.1,533,471.1z M526.5,379.7
						c-18,0-33.3,3.3-41.9,9.2c-1.5,1-2.8,2.1-3.8,3.2c-5.5,5.8-7.7,22-1.4,38.1c4.5,11.7,17,31.7,49.6,33.9
						c1.8,0.1,3.5,0.2,5.2,0.2c15,0,26.2-4.7,33.5-14c11.6-15,8.8-36.9,8.8-37.2l0-0.1l0-0.1c0-1.1,0-26.5-22.3-30.7
						C545.2,380.6,535.7,379.7,526.5,379.7z M385.5,379.7c-9.2,0-18.7,0.9-27.6,2.5c-22.4,4.2-22.3,30.4-22.3,30.7l0,0.1l0,0.1
						c0,0.2-2.8,22.2,8.8,37.2c7.2,9.3,18.5,14,33.5,14c1.7,0,3.4-0.1,5.2-0.2c32.6-2.2,45.1-22.1,49.6-33.9
						c6.3-16.1,4.1-32.3-1.4-38.1c-1.1-1.1-2.4-2.2-3.8-3.2C418.8,383.1,403.5,379.7,385.5,379.7z"/>
					<path class="st20" d="M532.7,373.8c6.2,0,11.5,0.3,15.9,0.7c12.9,1.1,39.1,3.5,39.1,3.5c0,0,0,0,0,0
						c20.5,0,18.2,12.8,18.2,12.8L602,399c-12.2,4.5-17.1,17.9-17.1,17.9c-4.6,47.4-36.6,53.2-51.9,53.2c-4.9,0-8.1-0.6-8.1-0.6
						c-45.4,0-53.6-46.6-58-57.2c-2.2-5.3-6.5-7.9-10.8-7.9s-8.7,2.6-10.8,7.9c-4.4,10.6-12.7,57.2-58.1,57.2c0,0-3.2,0.6-8.1,0.6
						c-15.3,0-47.3-5.8-51.9-53.2c0,0-3.9-13.4-16.2-17.9l-4.9-8c0,0-2.4-12.6,18.2-12.6c0,0,26.2-2.7,39.1-3.8
						c4.5-0.4,10.1-0.8,16.5-0.8c11.9,0,26.9,1.2,44.8,5.8c13.8,3.5,22.5,5.3,31.3,5.3c8.8,0,17.6-1.8,31.5-5.3
						C505.7,375,520.8,373.8,532.7,373.8 M534.2,465.3c17.4,0,27.9-6.2,34.3-14.4c12-15.5,9-37.9,9-37.9s0.3-27.3-23.1-31.7
						c-9-1.7-18.5-2.6-27.8-2.6c-17,0-33,3-42.4,9.3c-1.5,1-2.9,2.1-4,3.3c-12.2,12.8-7.3,69.9,48.8,73.7
						C530.7,465.2,532.5,465.3,534.2,465.3 M377.8,465.3c1.7,0,3.4-0.1,5.2-0.2c56.1-3.7,61.1-60.9,48.9-73.7
						c-1.2-1.2-2.5-2.3-4-3.3c-9.4-6.4-25.4-9.3-42.4-9.3c-9.3,0-18.8,0.9-27.8,2.6c-23.5,4.4-23.1,31.7-23.1,31.7s-3,22.4,9,37.9
						C349.9,459,360.4,465.3,377.8,465.3 M532.7,371.8c-15.1,0-30,1.9-45.8,5.9c-13.4,3.4-22.3,5.2-31,5.2c-8.7,0-17.5-1.8-30.8-5.2
						c-15.5-3.9-30.3-5.8-45.3-5.8c-7,0-12.9,0.4-16.7,0.8c-12.3,1.1-37.2,3.6-39,3.7c-8.3,0-14.2,2-17.5,6c-3.4,4.1-2.6,8.8-2.6,9
						l0.1,0.4l0.2,0.3l4.9,8l0.4,0.6l0.7,0.2c10.4,3.8,14.4,14.9,14.9,16.4c4.9,49.4,39.3,54.8,53.9,54.8c4.4,0,7.5-0.5,8.3-0.6
						c40.9-0.1,52.8-37.1,57.9-52.9c0.7-2.3,1.4-4.2,1.9-5.5c1.7-4.2,5.1-6.7,9-6.7c3.9,0,7.3,2.5,9,6.7c0.5,1.3,1.2,3.3,1.9,5.5
						c2.5,8,6.8,21.3,15.4,32.4c10.5,13.5,24.7,20.4,42.3,20.5c0.8,0.1,3.9,0.6,8.3,0.6c14.6,0,48.9-5.3,53.8-54.7
						c0.7-1.7,5.5-12.7,15.8-16.5l0.8-0.3l0.4-0.7l3.9-8.2l0.1-0.2l0-0.3c0-0.2,0.9-5-2.6-9.2c-3.3-4-9.2-6-17.4-6
						c-1.7-0.2-26.7-2.5-39-3.5C545.2,372.2,539.6,371.8,532.7,371.8L532.7,371.8z M534.2,463.3c-1.7,0-3.4-0.1-5.1-0.2
						c-32-2.1-44.3-21.7-48.7-33.2c-5.9-15.2-4.2-31.5,1.2-37.1c1-1.1,2.3-2.1,3.7-3.1c8.4-5.7,23.5-9,41.3-9
						c9.1,0,18.6,0.9,27.4,2.5c21.6,4,21.5,29.4,21.5,29.7l0,0.1l0,0.1c0,0.2,2.8,21.8-8.6,36.4
						C559.8,458.7,548.8,463.3,534.2,463.3L534.2,463.3z M377.8,463.3c-14.7,0-25.7-4.6-32.7-13.6c-11.4-14.6-8.6-36.2-8.6-36.4
						l0-0.1l0-0.1c0-0.1,0-6.6,2.7-13.6c3.5-9,9.9-14.4,18.8-16.1c8.8-1.6,18.3-2.5,27.4-2.5c17.8,0,32.9,3.3,41.3,9
						c1.4,1,2.7,2,3.7,3.1c5.4,5.6,7.1,21.8,1.2,37.1c-4.5,11.5-16.7,31.1-48.7,33.2C381.2,463.2,379.5,463.3,377.8,463.3
						L377.8,463.3z"/>
				</g>
			</g>
		</g>
		<path class="st29" d="M358.3,401.1c-3.8,1.5-7.3,3.6-9.3,5c-0.4,0.2-0.1,0.8,0.3,0.7c5.6-1.5,11.2-3.8,16.8-6.6
			c0.3-0.1,0.1-0.6-0.2-0.5C363.2,400.1,360.9,400,358.3,401.1z"/>
		<path class="st29" d="M343.8,394c1.4,0.8,10-6.9,12.4-8.7C355.2,385,346.9,390.1,343.8,394z"/>
	</g>
</g>
<g>
	<path class="st30" d="M450.2,874.4c-234.3,0-425-190.6-425-425c0-234.3,190.6-425,425-425c234.4,0,425,190.6,425,425
		C875.2,683.8,684.5,874.4,450.2,874.4z M450.2,39.3C224,39.3,40,223.3,40,449.4c0,226.2,184,410.2,410.2,410.2
		c226.2,0,410.2-184,410.2-410.2C860.3,223.3,676.4,39.3,450.2,39.3z"/>
</g>
<g>
	<path class="st31" d="M613.2,321.7c0,27.7,0,21.4,0,21.4c-98.7-41.4-209.9-41.6-308.7-0.6c0,0,0,6.3,0-21.4c0-17.2,0-34.4,0-51.7
		c-0.2-28.1,45.1-81.4,82.2-87.2c47.9-8.7,97.1-8.5,145,0.4c37,6,81.7,59.3,81.5,87.4C613.2,287.2,613.2,304.5,613.2,321.7z"/>
	<path class="st19" d="M611.8,342.5c-98.4-40.8-209.1-40.9-307.6,0c-0.1-0.3-33.7,35.3-6.4,36.3c13.4,0.2,53-10.1,90-13.7
		c36.9-4.7,71.2-2.6,71-2.9c-0.2,0.3,33.7-1.6,70.1,3c36.6,3.6,75.8,13.8,89.2,13.5C645.5,377.8,611.9,342.3,611.8,342.5z"/>
	<path class="st32" d="M618.2,372.6c-13.4,0.2-52.6-9.9-89.2-13.5c-36.5-4.7-70.3-2.7-70.1-3c0.2,0.3-34.1-1.8-71,2.9
		c-37,3.6-76.6,13.9-90,13.7c-6-0.3-9.1-2.1-10.2-5c-1.5,6.1,0.3,10.8,10.2,11.3c13.4,0.2,53-10.1,90-13.7c36.9-4.7,71.2-2.6,71-2.9
		c-0.2,0.3,33.7-1.6,70.1,3c36.6,3.6,75.8,13.8,89.2,13.5c9.9-0.5,11.7-5.2,10.2-11.3C627.3,370.4,624.3,372.3,618.2,372.6z"/>
	<path class="st33" d="M373.3,337.8c0,7-12.4,15.2-27.5,19.6c-15.1,4.4-27.1,3.3-27.1-3.6c0-6.9,12-17.2,27.1-21.6
		C360.8,327.7,373.3,330.8,373.3,337.8z"/>
	<g>
		<path class="st1" d="M455.5,295.8v-29.9l-11.7-6.1v42.8c-6.7-3.3-11.8-11.5-11.8-20.9v-59.8c0-13.1,1.1-24.8,24.1-24.8
			c-10.2,2.9-12.3,12.4-12.3,18.4v32.2l23.6,12.2v21.3C467.3,295.4,455.5,295.8,455.5,295.8z"/>
		<path class="st33" d="M478.6,208.7v19.7l-10.9,6.1v-31.3c0,0-12.1,0.4-12.1,20.3v16.9l23.6,12.2v32.7c0,6-2,15.1-12.3,18
			c22.9,0,25.4-11.7,25.4-24.8v-32.4l-14.5-6.4l13.2-6.2v-12.8c0-8.9,8-12.1,8-12.1H478.6z"/>
	</g>
	<path class="st34" d="M368,283.8c-0.1-24.4,40.9-64.1,73.4-64.8c42.2-1.7,84.7,3.2,125.8,14.8c15.4,4.3,32.6,17.8,45.9,33.7
		c-2.3-28.7-45.5-79-81.4-84.9c-47.9-8.9-97.1-9.1-145-0.4c-37,5.8-82.4,59.1-82.2,87.2c0,17.2,0,34.4,0,51.7c0,14.7,0,19.9,0,21.4
		c20.7-8.6,42-15.4,63.6-20.3C368,309.3,368,296.5,368,283.8z"/>
</g>
<g>
	<path class="st35" d="M412,552c2.4-3,14.9-6.3,22.6-10.7c7.7-4.5,15.4-4.7,19.2-2.5c1.7,1,2.9,1.3,3.8,1.4c0.8-0.1,2-0.4,3.8-1.4
		c3.8-2.2,11.5-1.9,19.2,2.6c7.7,4.4,20.7,6.2,22.4,9.7c-3.8,1.4-17.7,12.7-31.3,14.4c-4.8,0.6-11.2-0.3-14.1-0.8
		c-2.9,0.4-9.3,1.4-14.1,0.7C429.9,563.7,415.8,553.7,412,552z"/>
	<path class="st36" d="M426.5,553.5c2.5-0.3,5-1,7.5-1.6c2.5-0.5,5-1,7.5-1.3c1.3-0.1,2.5-0.2,3.8-0.3c0.6,0,1.3,0,1.9,0
		c0.6,0.1,1.3,0.1,1.9,0.3c2.5,0.5,4.9,1.3,7.3,1.8c1.2,0.2,2.4,0.3,3.6,0.1c1.2-0.2,2.4-0.7,3.7-0.9c2.6-0.5,5.2-0.3,7.7,0
		c2.5,0.3,5,0.7,7.5,1.1c2.5,0.4,5,0.8,7.5,0.7c-5.1,0.4-10.1-0.7-15.1-1c-2.5-0.1-5-0.4-7.4,0.1c-1.2,0.2-2.4,0.7-3.7,0.9
		c-1.3,0.3-2.7,0.2-4,0c-2.5-0.5-4.9-1.4-7.3-1.9c-0.6-0.1-1.2-0.2-1.8-0.3c-0.6,0-1.2,0-1.9,0c-1.3,0-2.5,0.1-3.8,0.2
		c-2.5,0.2-5,0.6-7.5,1C431.5,552.8,429,553.4,426.5,553.5z"/>
	<path class="st37" d="M471.7,565.4c-4.8,0.6-11.2-0.3-14.1-0.8c-2.9,0.4-9.3,1.4-14.1,0.7c-10.4-1.3-21.2-7.5-27.3-11.1
		c6,3.9,16.7,11,27.3,12.4c4.8,0.6,11.2-0.3,14.1-0.7c2.9,0.4,9.3,1.4,14.1,0.8c13.6-1.7,27.5-14.3,31.3-15.7
		C499.2,552.4,485.3,563.7,471.7,565.4z"/>
</g>
<path class="st19" d="M425.7,569.1c-3.7,0.2-6.7-3.5-6.7-8.3c0-4.8,3-9,6.7-9.2c1.4-0.1,2.7,0.4,3.9,1.4c0.4-0.1,0.8-0.2,1.2-0.3
	c-1.4-1.5-3.2-2.2-5.1-2.1c-4.3,0.2-7.7,4.9-7.7,10.2c0,5.4,3.5,9.5,7.7,9.3c2.6-0.1,5.7-2.4,7.4-6.3c-0.3-0.1-0.7-0.4-1-0.5
	C430.9,565.9,428,569,425.7,569.1z"/>
</svg>
