<?xml version="1.0" encoding="utf-8"?>
<!-- Generator: Adobe Illustrator 23.0.3, SVG Export Plug-In . SVG Version: 6.00 Build 0)  -->
<svg version="1.1" id="Layer_1" xmlns="http://www.w3.org/2000/svg" xmlns:xlink="http://www.w3.org/1999/xlink" x="0px" y="0px"
	 viewBox="0 0 530 900" style="enable-background:new 0 0 530 900;" xml:space="preserve">
<style type="text/css">
	.st0{fill:#6357D0;}
	.st1{fill:#1E90FF;}
</style>
<g>
	<path class="st0" d="M203,814.1V575.4l-85-48.8v341.3c-48.4-26.5-85.6-92.1-85.6-166.4V223.4C32.4,118.9,40.7,25,206.6,25
		C132.3,47.9,118,124.2,118,172v257.2l170.6,97.8v170C288.6,810.7,203,814.1,203,814.1z"/>
	<path class="st1" d="M370.6,118.8v157.1l-79,48.7V75.1c0,0-88,3.5-88,162.3v135.4l170.6,97.8v260.9c0,47.8-14.3,120.5-88.6,143.5
		c165.8,0,183.7-93.9,183.7-198.4V418.2l-105.1-51.5l95.5-49.2V215c0-71.5,57.6-96.3,57.6-96.3H370.6z"/>
</g>
</svg>
