<?xml version="1.0" encoding="utf-8"?>
<!-- Generator: Adobe Illustrator 23.0.3, SVG Export Plug-In . SVG Version: 6.00 Build 0)  -->
<svg version="1.1" id="Layer_1" xmlns="http://www.w3.org/2000/svg" xmlns:xlink="http://www.w3.org/1999/xlink" x="0px" y="0px"
	 viewBox="0 0 750 900" style="enable-background:new 0 0 750 900;" xml:space="preserve">
<style type="text/css">
	.st0{fill:#1E90FF;}
	.st1{fill:#6357D0;}
</style>
<g>
	<g>
		<path class="st0" d="M65.7,837.5v4c0,5.9-1.7,10-5,12.2c-3.3,2.2-8.6,3.4-15.7,3.4c-4.5,0-10.2-0.5-16.8-1.4v-6.9
			c6.7,1.4,12.5,2.1,17.4,2.1c3.9,0,6.9-0.4,9-1.3c2.1-0.9,3.1-2.7,3.1-5.3v-7.2c0-2.3-0.7-4-2-5c-1.3-1-3.7-1.5-7.2-1.5H42
			c-5.6,0-9.4-1.1-11.6-3.4c-2.2-2.2-3.3-5.6-3.3-9.9V813c0-4.4,1.5-7.6,4.6-9.7c3.1-2.1,8.8-3.2,17.1-3.2c4,0,8.7,0.3,14.2,0.9v6.2
			c-6.3-1-11.2-1.4-14.8-1.4c-5.3,0-8.8,0.5-10.5,1.6c-1.7,1.1-2.6,2.8-2.6,5.3v6.3c0,1.9,0.7,3.3,2,4.2c1.4,0.9,3.8,1.3,7.2,1.3H51
			c5.7,0,9.6,1,11.7,3.1C64.7,829.7,65.7,833,65.7,837.5z"/>
		<path class="st0" d="M84.7,808.1H77v-8h7.7V808.1z M84.7,856.3H77V815h7.7V856.3z"/>
		<path class="st0" d="M105.6,856.3h-7.7v-59.6h7.7V856.3z"/>
		<path class="st0" d="M152.7,837.3h-27.7v6.2c0,2.9,1,5,3.1,6.2c2,1.2,5.1,1.8,9.1,1.8c3.9,0,8.5-0.7,13.9-2v5.9
			c-5.1,1.1-10.1,1.7-14.9,1.7c-12.6,0-18.9-4.2-18.9-12.6v-16.3c0-5.1,1.4-8.7,4.3-10.8c2.9-2.2,7.5-3.2,13.9-3.2
			c6,0,10.3,1,13.1,3.1c2.8,2.1,4.1,5.7,4.1,10.9V837.3z M145.1,832.3v-6.5c0-2.5-0.8-4.2-2.3-5.2c-1.5-0.9-4.1-1.4-7.7-1.4
			c-3.4,0-5.9,0.5-7.6,1.4c-1.6,0.9-2.5,2.6-2.5,5.2v6.5H145.1z"/>
		<path class="st0" d="M199.9,856.3h-7.7v-29.8c0-1-0.1-1.9-0.3-2.6c-0.2-0.7-0.5-1.4-1.1-2.1c-0.5-0.7-1.4-1.2-2.7-1.6
			c-1.3-0.4-2.9-0.6-4.8-0.6c-4.5,0-7.5,0.5-9,1.4c-1.5,1-2.3,2.8-2.3,5.4v29.8h-7.7V815h7.7v5c0.8-3.9,5.3-5.9,13.5-5.9
			c5.4,0,9.2,1,11.2,2.9c2,2,3.1,4.9,3.1,8.9V856.3z"/>
		<path class="st0" d="M242.9,855.9c-3.7,0.8-8.1,1.2-13.2,1.2c-2.5,0-4.4,0-5.8-0.1c-1.4-0.1-3-0.4-4.8-0.9
			c-1.8-0.5-3.1-1.2-4.1-2.1c-0.9-0.9-1.7-2.2-2.4-4c-0.7-1.7-1-3.9-1-6.4v-15.2c0-2.3,0.2-4.2,0.6-5.9c0.4-1.6,1.1-3,2-4
			c0.9-1,1.8-1.8,2.8-2.5c1-0.6,2.3-1.1,4-1.3c1.7-0.3,3.1-0.4,4.4-0.5c1.3-0.1,3-0.1,5.1-0.1c3.9,0,7.8,0.4,11.7,1.3v5.6
			c-4.4-1.1-8.7-1.7-12.7-1.7c-4.3,0-7,0.5-8.3,1.5c-1.3,1-1.9,3.2-1.9,6.5v16.9c0,3,0.7,5,2.2,6c1.4,1,4.4,1.5,8.9,1.5
			c4,0,8.2-0.5,12.4-1.6V855.9z"/>
		<path class="st0" d="M286.5,837.3h-27.7v6.2c0,2.9,1,5,3.1,6.2c2,1.2,5.1,1.8,9.1,1.8c3.9,0,8.5-0.7,13.9-2v5.9
			c-5.1,1.1-10.1,1.7-14.9,1.7c-12.6,0-18.9-4.2-18.9-12.6v-16.3c0-5.1,1.4-8.7,4.3-10.8c2.9-2.2,7.5-3.2,13.9-3.2
			c6,0,10.3,1,13.1,3.1c2.8,2.1,4.1,5.7,4.1,10.9V837.3z M278.8,832.3v-6.5c0-2.5-0.8-4.2-2.3-5.2c-1.5-0.9-4.1-1.4-7.7-1.4
			c-3.4,0-5.9,0.5-7.6,1.4c-1.6,0.9-2.5,2.6-2.5,5.2v6.5H278.8z"/>
		<path class="st1" d="M310.8,856.3h-13.3V801h13.3V856.3z M349.6,856.3h-16.2L311.1,827l20.7-26h15.6l-20.9,25.7L349.6,856.3z"/>
		<path class="st1" d="M367.8,810.2h-12.4v-10.1h12.4V810.2z M367.8,856.3h-12.4V815h12.4V856.3z"/>
		<path class="st1" d="M391.8,856.3h-12.4v-59.6h12.4V856.3z"/>
		<path class="st1" d="M415.8,856.3h-12.4v-59.6h12.4V856.3z"/>
		<path class="st1" d="M462.5,840.2v5.2c0,2-0.4,3.8-1.1,5.3c-0.8,1.5-1.7,2.6-2.9,3.5c-1.2,0.8-2.7,1.5-4.6,1.9
			c-1.9,0.5-3.7,0.8-5.4,0.9c-1.7,0.1-3.8,0.2-6.1,0.2c-4.5,0-9.9-0.4-16.3-1.3v-8.3c7.9,1.2,13.4,1.8,16.4,1.8
			c2.4,0,4.3-0.2,5.7-0.7c1.3-0.5,2-1.4,2-2.9v-2.6c0-1.3-0.4-2.3-1.1-2.9c-0.7-0.7-2.3-1-4.8-1H439c-4.3,0-7.7-0.9-10.1-2.6
			c-2.4-1.7-3.6-4.3-3.6-7.6v-5c0-3.7,1.8-6.3,5.4-7.8c3.6-1.4,8.6-2.1,15.1-2.1c2.7,0,7.6,0.3,14.6,0.8v7.9c-8.8-0.7-13.8-1-15-1
			c-3.5,0-5.6,0.2-6.6,0.7c-0.9,0.5-1.4,1.4-1.4,2.8v2.2c0,0.7,0.4,1.3,1.1,1.9c0.7,0.6,1.8,0.9,3.3,0.9h5.4
			C457.4,830.3,462.5,833.6,462.5,840.2z"/>
		<path class="st0" d="M518.5,816.8v24.5c0,10-7.7,15-23.1,15h-22V801h22C510.8,801,518.5,806.2,518.5,816.8z M510.6,841.1v-24.4
			c0-2.1-0.4-3.8-1.3-5.2c-0.9-1.4-2.1-2.4-3.6-3.1c-1.6-0.7-3.2-1.1-4.8-1.4c-1.6-0.3-3.5-0.4-5.7-0.4h-13.6v44h13.2
			C505.4,850.6,510.6,847.5,510.6,841.1z"/>
		<path class="st0" d="M564.5,837.3h-27.7v6.2c0,2.9,1,5,3.1,6.2c2,1.2,5.1,1.8,9.1,1.8c3.9,0,8.5-0.7,13.9-2v5.9
			c-5.1,1.1-10.1,1.7-14.9,1.7c-12.6,0-18.9-4.2-18.9-12.6v-16.3c0-5.1,1.4-8.7,4.3-10.8c2.9-2.2,7.5-3.2,13.9-3.2
			c6,0,10.3,1,13.1,3.1c2.8,2.1,4.1,5.7,4.1,10.9V837.3z M556.8,832.3v-6.5c0-2.5-0.8-4.2-2.3-5.2c-1.5-0.9-4.1-1.4-7.7-1.4
			c-3.4,0-5.9,0.5-7.6,1.4c-1.6,0.9-2.5,2.6-2.5,5.2v6.5H556.8z"/>
		<path class="st0" d="M606.7,841.8v3.6c0,4.4-1.5,7.5-4.6,9.2c-3.1,1.7-7.5,2.6-13.3,2.6c-4.4,0-9.1-0.3-14.1-1v-5.9
			c6.8,1.1,11.6,1.6,14.3,1.6c3.4,0,6-0.3,7.7-1c1.7-0.7,2.6-2,2.6-4v-4.2c0-1.8-0.6-3-1.8-3.7c-1.2-0.7-3.1-1.1-5.8-1.1h-4.7
			c-4.3,0-7.6-0.9-9.8-2.7c-2.2-1.8-3.3-4.2-3.3-7.4v-3.8c0-6.5,6.1-9.7,18.4-9.7c1.4,0,5.5,0.2,12.5,0.7v5.5
			c-4.9-0.8-9.2-1.2-12.8-1.2c-4.1,0-6.9,0.4-8.3,1.2c-1.4,0.8-2.2,2.1-2.2,4v3.5c0,2.8,2.5,4.2,7.6,4.2h4.8
			C602.4,832.1,606.7,835.3,606.7,841.8z"/>
		<path class="st0" d="M624.9,808.1h-7.7v-8h7.7V808.1z M624.9,856.3h-7.7V815h7.7V856.3z"/>
		<path class="st0" d="M673.3,815v45.2c0,5.8-1.6,9.8-4.9,11.8c-3.3,2-8.2,3-14.7,3c-5.8,0-10.6-0.3-14.2-0.9v-5.5
			c6.5,0.8,11.5,1.2,14.9,1.2c3.9,0,6.8-0.6,8.6-1.9c1.8-1.2,2.7-3.3,2.7-6.2v-9.9c-0.1,1.9-1.4,3.3-4,4.1c-2.5,0.8-5.4,1.2-8.6,1.2
			c-6.4,0-10.7-0.9-13-2.8c-2.3-1.9-3.4-5.1-3.4-9.7v-16.8c0-4.9,1.3-8.4,4-10.5c2.6-2.1,7-3.2,13-3.2c7.1,0,11.3,1.6,12.6,4.9v-4
			H673.3z M665.7,845.1v-18.7c0-2.7-0.7-4.5-2.2-5.5c-1.4-1-4.4-1.5-9-1.5c-4.3,0-7,0.5-8.3,1.4c-1.3,1-2,2.8-2,5.5v18.7
			c0,2.8,0.7,4.7,2.1,5.6c1.4,0.9,4.2,1.3,8.4,1.3c3.9,0,6.6-0.5,8.4-1.4C664.8,849.7,665.7,847.8,665.7,845.1z"/>
		<path class="st0" d="M722.1,856.3h-7.7v-29.8c0-1-0.1-1.9-0.3-2.6c-0.2-0.7-0.5-1.4-1.1-2.1c-0.5-0.7-1.4-1.2-2.7-1.6
			c-1.3-0.4-2.9-0.6-4.8-0.6c-4.5,0-7.5,0.5-9,1.4c-1.5,1-2.3,2.8-2.3,5.4v29.8h-7.7V815h7.7v5c0.8-3.9,5.3-5.9,13.5-5.9
			c5.4,0,9.2,1,11.2,2.9c2,2,3.1,4.9,3.1,8.9V856.3z"/>
	</g>
	<g>
		<path class="st1" d="M319.4,644.4V457l-66.8-38.3v267.9c-38-20.8-67.2-72.3-67.2-130.6V180.8c0-82,6.5-155.8,136.8-155.8
			c-58.3,18-69.6,77.9-69.6,115.4v201.9l134,76.8v133.5C386.6,641.7,319.4,644.4,319.4,644.4z"/>
		<path class="st0" d="M451,98.6v123.3L389,260.2V64.4c0,0-69.1,2.8-69.1,127.4v106.3l134,76.8v204.8c0,37.6-11.2,94.6-69.6,112.6
			c130.2,0,144.3-73.7,144.3-155.8V333.7L446,293.2l75-38.6v-80.5c0-56.1,45.3-75.6,45.3-75.6H451z"/>
	</g>
</g>
</svg>
