<?xml version="1.0" encoding="utf-8"?>
<!-- Generator: Adobe Illustrator 23.0.3, SVG Export Plug-In . SVG Version: 6.00 Build 0)  -->
<svg version="1.1" id="Layer_1" xmlns="http://www.w3.org/2000/svg" xmlns:xlink="http://www.w3.org/1999/xlink" x="0px" y="0px"
	 viewBox="0 0 600 300" enable-background="new 0 0 600 300" xml:space="preserve">
<rect fill="#3D5AFE" width="600" height="300"/>
<g>
	<path fill="#FFFFFF" d="M91.8,215.5v-48.9l-17.4-10v69.9c-9.9-5.4-17.5-18.8-17.5-34.1V94.6c0-21.4,1.7-40.6,35.7-40.6
		c-15.2,4.7-18.2,20.3-18.2,30.1v52.7l35,20v34.8C109.3,214.8,91.8,215.5,91.8,215.5z"/>
	<path fill="#FFFFFF" d="M126.1,73.2v32.2l-16.2,10V64.3c0,0-18,0.7-18,33.2v27.7l35,20v53.4c0,9.8-2.9,24.7-18.2,29.4
		c34,0,37.7-19.2,37.7-40.6v-52.9l-21.5-10.5l19.6-10.1v-21c0-14.6,11.8-19.7,11.8-19.7H126.1z"/>
</g>
<g>
	<path fill="#FFFFFF" d="M208.9,156.8v2c0,3-0.9,5.1-2.6,6.2c-1.7,1.1-4.4,1.7-8,1.7c-2.3,0-5.2-0.2-8.6-0.7v-3.5
		c3.4,0.7,6.3,1.1,8.8,1.1c2,0,3.5-0.2,4.6-0.7c1.1-0.4,1.6-1.3,1.6-2.7v-3.6c0-1.2-0.3-2-1-2.5c-0.7-0.5-1.9-0.8-3.7-0.8h-3.3
		c-2.8,0-4.8-0.6-5.9-1.7c-1.1-1.1-1.7-2.8-1.7-5v-2.2c0-2.2,0.8-3.9,2.4-4.9c1.6-1.1,4.5-1.6,8.7-1.6c2,0,4.4,0.2,7.2,0.5v3.2
		c-3.2-0.5-5.7-0.7-7.5-0.7c-2.7,0-4.5,0.3-5.3,0.8c-0.9,0.5-1.3,1.4-1.3,2.7v3.2c0,1,0.3,1.7,1,2.1c0.7,0.4,1.9,0.7,3.7,0.7h3.4
		c2.9,0,4.9,0.5,5.9,1.6C208.3,152.9,208.9,154.6,208.9,156.8z"/>
	<path fill="#FFFFFF" d="M218.5,141.9h-3.9v-4.1h3.9V141.9z M218.5,166.3h-3.9v-20.9h3.9V166.3z"/>
	<path fill="#FFFFFF" d="M229.2,166.3h-3.9v-30.3h3.9V166.3z"/>
	<path fill="#FFFFFF" d="M253.1,156.7h-14.1v3.2c0,1.5,0.5,2.5,1.6,3.1c1,0.6,2.6,0.9,4.6,0.9c2,0,4.3-0.3,7.1-1v3
		c-2.6,0.6-5.1,0.9-7.6,0.9c-6.4,0-9.6-2.1-9.6-6.4v-8.3c0-2.6,0.7-4.4,2.2-5.5c1.5-1.1,3.8-1.6,7.1-1.6c3,0,5.2,0.5,6.6,1.6
		c1.4,1.1,2.1,2.9,2.1,5.6V156.7z M249.2,154.2v-3.3c0-1.3-0.4-2.1-1.2-2.6s-2.1-0.7-3.9-0.7c-1.7,0-3,0.2-3.8,0.7
		c-0.8,0.5-1.3,1.3-1.3,2.6v3.3H249.2z"/>
	<path fill="#FFFFFF" d="M277.1,166.3h-3.9v-15.1c0-0.5,0-1-0.1-1.3c-0.1-0.3-0.3-0.7-0.5-1.1c-0.3-0.4-0.7-0.6-1.4-0.8
		c-0.6-0.2-1.5-0.3-2.4-0.3c-2.3,0-3.8,0.2-4.6,0.7c-0.8,0.5-1.2,1.4-1.2,2.7v15.1H259v-20.9h3.9v2.6c0.4-2,2.7-3,6.9-3
		c2.8,0,4.7,0.5,5.7,1.5c1,1,1.6,2.5,1.6,4.5V166.3z"/>
	<path fill="#FFFFFF" d="M299,166.2c-1.9,0.4-4.1,0.6-6.7,0.6c-1.3,0-2.3,0-3-0.1c-0.7,0-1.5-0.2-2.4-0.4c-0.9-0.2-1.6-0.6-2.1-1.1
		c-0.5-0.5-0.9-1.1-1.2-2c-0.3-0.9-0.5-2-0.5-3.3v-7.7c0-1.2,0.1-2.1,0.3-3c0.2-0.8,0.6-1.5,1-2c0.5-0.5,0.9-0.9,1.4-1.3
		c0.5-0.3,1.2-0.5,2-0.7c0.9-0.1,1.6-0.2,2.2-0.3c0.6,0,1.5-0.1,2.6-0.1c2,0,4,0.2,6,0.6v2.9c-2.2-0.6-4.4-0.9-6.4-0.9
		c-2.2,0-3.6,0.3-4.2,0.8c-0.6,0.5-1,1.6-1,3.3v8.6c0,1.5,0.4,2.5,1.1,3c0.7,0.5,2.2,0.8,4.5,0.8c2,0,4.2-0.3,6.3-0.8V166.2z"/>
	<path fill="#FFFFFF" d="M321.1,156.7H307v3.2c0,1.5,0.5,2.5,1.6,3.1c1,0.6,2.6,0.9,4.6,0.9c2,0,4.3-0.3,7.1-1v3
		c-2.6,0.6-5.1,0.9-7.6,0.9c-6.4,0-9.6-2.1-9.6-6.4v-8.3c0-2.6,0.7-4.4,2.2-5.5c1.5-1.1,3.8-1.6,7-1.6c3,0,5.2,0.5,6.6,1.6
		c1.4,1.1,2.1,2.9,2.1,5.6V156.7z M317.2,154.2v-3.3c0-1.3-0.4-2.1-1.2-2.6s-2.1-0.7-3.9-0.7c-1.7,0-3,0.2-3.8,0.7
		c-0.8,0.5-1.3,1.3-1.3,2.6v3.3H317.2z"/>
	<path fill="#FFFFFF" d="M333.4,166.3h-6.7v-28.1h6.7V166.3z M353.2,166.3H345l-11.4-14.9l10.5-13.2h7.9l-10.6,13.1L353.2,166.3z"/>
	<path fill="#FFFFFF" d="M362.4,142.9h-6.3v-5.1h6.3V142.9z M362.4,166.3h-6.3v-20.9h6.3V166.3z"/>
	<path fill="#FFFFFF" d="M374.6,166.3h-6.3v-30.3h6.3V166.3z"/>
	<path fill="#FFFFFF" d="M386.8,166.3h-6.3v-30.3h6.3V166.3z"/>
	<path fill="#FFFFFF" d="M410.6,158.2v2.6c0,1-0.2,1.9-0.6,2.7c-0.4,0.8-0.9,1.3-1.5,1.8c-0.6,0.4-1.4,0.7-2.3,1
		c-1,0.2-1.9,0.4-2.7,0.5c-0.9,0.1-1.9,0.1-3.1,0.1c-2.3,0-5-0.2-8.3-0.6v-4.2c4,0.6,6.8,0.9,8.3,0.9c1.2,0,2.2-0.1,2.9-0.4
		c0.7-0.2,1-0.7,1-1.4v-1.3c0-0.7-0.2-1.2-0.6-1.5c-0.4-0.3-1.2-0.5-2.4-0.5h-2.7c-2.2,0-3.9-0.4-5.1-1.3c-1.2-0.9-1.8-2.2-1.8-3.9
		V150c0-1.9,0.9-3.2,2.7-3.9c1.8-0.7,4.4-1.1,7.7-1.1c1.4,0,3.9,0.1,7.4,0.4v4c-4.5-0.3-7-0.5-7.6-0.5c-1.8,0-2.9,0.1-3.3,0.4
		c-0.5,0.2-0.7,0.7-0.7,1.4v1.1c0,0.3,0.2,0.7,0.5,1c0.4,0.3,0.9,0.4,1.7,0.4h2.8C408,153.2,410.6,154.8,410.6,158.2z"/>
	<path fill="#FFFFFF" d="M439.1,146.3v12.4c0,5.1-3.9,7.6-11.8,7.6h-11.2v-28.1h11.2C435.1,138.3,439.1,141,439.1,146.3z M435,158.7
		v-12.4c0-1.1-0.2-2-0.6-2.7s-1-1.2-1.8-1.6c-0.8-0.3-1.6-0.6-2.4-0.7c-0.8-0.1-1.8-0.2-2.9-0.2h-6.9v22.3h6.7
		C432.4,163.5,435,161.9,435,158.7z"/>
	<path fill="#FFFFFF" d="M462.4,156.7h-14.1v3.2c0,1.5,0.5,2.5,1.6,3.1c1,0.6,2.6,0.9,4.6,0.9c2,0,4.3-0.3,7.1-1v3
		c-2.6,0.6-5.1,0.9-7.6,0.9c-6.4,0-9.6-2.1-9.6-6.4v-8.3c0-2.6,0.7-4.4,2.2-5.5c1.5-1.1,3.8-1.6,7.1-1.6c3,0,5.2,0.5,6.6,1.6
		c1.4,1.1,2.1,2.9,2.1,5.6V156.7z M458.5,154.2v-3.3c0-1.3-0.4-2.1-1.2-2.6s-2.1-0.7-3.9-0.7c-1.7,0-3,0.2-3.8,0.7
		c-0.8,0.5-1.3,1.3-1.3,2.6v3.3H458.5z"/>
	<path fill="#FFFFFF" d="M483.9,159v1.8c0,2.2-0.8,3.8-2.4,4.7c-1.6,0.9-3.8,1.3-6.8,1.3c-2.2,0-4.6-0.2-7.2-0.5v-3
		c3.5,0.5,5.9,0.8,7.3,0.8c1.7,0,3-0.2,3.9-0.5c0.9-0.3,1.3-1,1.3-2.1v-2.1c0-0.9-0.3-1.5-0.9-1.9c-0.6-0.4-1.6-0.6-2.9-0.6h-2.4
		c-2.2,0-3.8-0.5-5-1.4c-1.1-0.9-1.7-2.2-1.7-3.7v-1.9c0-3.3,3.1-4.9,9.3-4.9c0.7,0,2.8,0.1,6.4,0.3v2.8c-2.5-0.4-4.7-0.6-6.5-0.6
		c-2.1,0-3.5,0.2-4.2,0.6c-0.7,0.4-1.1,1.1-1.1,2v1.8c0,1.4,1.3,2.1,3.8,2.1h2.4C481.7,154.1,483.9,155.7,483.9,159z"/>
	<path fill="#FFFFFF" d="M493.1,141.9h-3.9v-4.1h3.9V141.9z M493.1,166.3h-3.9v-20.9h3.9V166.3z"/>
	<path fill="#FFFFFF" d="M517.7,145.4v22.9c0,3-0.8,5-2.5,6c-1.7,1-4.1,1.5-7.5,1.5c-3,0-5.4-0.2-7.2-0.5v-2.8
		c3.3,0.4,5.8,0.6,7.6,0.6c2,0,3.4-0.3,4.3-1c0.9-0.6,1.4-1.7,1.4-3.2v-5c-0.1,1-0.7,1.7-2,2.1s-2.7,0.6-4.4,0.6
		c-3.2,0-5.4-0.5-6.6-1.4s-1.8-2.6-1.8-4.9v-8.5c0-2.5,0.7-4.3,2-5.3c1.3-1.1,3.5-1.6,6.6-1.6c3.6,0,5.8,0.8,6.4,2.5v-2H517.7z
		 M513.8,160.7v-9.5c0-1.4-0.4-2.3-1.1-2.8c-0.7-0.5-2.3-0.8-4.6-0.8c-2.2,0-3.6,0.2-4.2,0.7c-0.7,0.5-1,1.4-1,2.8v9.5
		c0,1.4,0.4,2.4,1.1,2.8c0.7,0.4,2.1,0.7,4.3,0.7c2,0,3.4-0.2,4.3-0.7C513.4,163,513.8,162.1,513.8,160.7z"/>
	<path fill="#FFFFFF" d="M542.5,166.3h-3.9v-15.1c0-0.5,0-1-0.1-1.3c-0.1-0.3-0.3-0.7-0.5-1.1c-0.3-0.4-0.7-0.6-1.4-0.8
		c-0.6-0.2-1.5-0.3-2.4-0.3c-2.3,0-3.8,0.2-4.6,0.7s-1.2,1.4-1.2,2.7v15.1h-3.9v-20.9h3.9v2.6c0.4-2,2.7-3,6.9-3
		c2.8,0,4.7,0.5,5.7,1.5c1,1,1.6,2.5,1.6,4.5V166.3z"/>
</g>
</svg>
