<svg version="1.1" id="el_iASflWhOG" xmlns="http://www.w3.org/2000/svg" xmlns:xlink="http://www.w3.org/1999/xlink" x="0px" y="0px" viewBox="0 0 300 500" style="enable-background:new 0 0 300 500;" xml:space="preserve"><style>@-webkit-keyframes kf_el_xGAhGRlgXB_an_p8SxzV2VT{11.11%{opacity: 0;}66.67%{opacity: 1;}0%{opacity: 0;}100%{opacity: 1;}}@keyframes kf_el_xGAhGRlgXB_an_p8SxzV2VT{11.11%{opacity: 0;}66.67%{opacity: 1;}0%{opacity: 0;}100%{opacity: 1;}}@-webkit-keyframes kf_el_3qxmHJbSN2_an_D2OJ-M6RI{0%{opacity: 0;}50%{opacity: 1;}100%{opacity: 1;}}@keyframes kf_el_3qxmHJbSN2_an_D2OJ-M6RI{0%{opacity: 0;}50%{opacity: 1;}100%{opacity: 1;}}#el_iASflWhOG *{-webkit-animation-duration: 3s;animation-duration: 3s;-webkit-animation-iteration-count: 1;animation-iteration-count: 1;-webkit-animation-timing-function: cubic-bezier(0, 0, 1, 1);animation-timing-function: cubic-bezier(0, 0, 1, 1);}#el_3qxmHJbSN2{fill: #6357D0;-webkit-animation-fill-mode: backwards;animation-fill-mode: backwards;opacity: 0;-webkit-animation-name: kf_el_3qxmHJbSN2_an_D2OJ-M6RI;animation-name: kf_el_3qxmHJbSN2_an_D2OJ-M6RI;-webkit-animation-timing-function: cubic-bezier(0, 0, 1, 1);animation-timing-function: cubic-bezier(0, 0, 1, 1);}#el_xGAhGRlgXB{fill: #1E90FF;-webkit-animation-fill-mode: backwards;animation-fill-mode: backwards;opacity: 0;-webkit-animation-name: kf_el_xGAhGRlgXB_an_p8SxzV2VT;animation-name: kf_el_xGAhGRlgXB_an_p8SxzV2VT;-webkit-animation-timing-function: cubic-bezier(0, 0, 1, 1);animation-timing-function: cubic-bezier(0, 0, 1, 1);}</style>

<g id="el_YK1mHqQpg5">
	<g id="el_IVGqngjiw5">
		<path d="M110.1,451.8V319.5l-47.2-27v189.2c-26.9-14.7-47.5-51-47.5-92.3v-265c0-57.9,4.6-110,96.7-110&#10;&#9;&#9;&#9;c-41.3,12.7-49.2,55-49.2,81.5v142.6l94.7,54.2V387C157.6,449.9,110.1,451.8,110.1,451.8z" id="el_3qxmHJbSN2"/>
		<path d="M203.1,66.4v87.1l-43.9,27V42.2c0,0-48.9,1.9-48.9,90v75.1l94.7,54.2v144.6c0,26.5-7.9,66.8-49.2,79.5&#10;&#9;&#9;&#9;c92.1,0,102-52.1,102-110V232.4l-58.4-28.6l53-27.3v-56.8c0-39.6,32-53.4,32-53.4H203.1z" id="el_xGAhGRlgXB"/>
	</g>
</g>
</svg>