<?xml version="1.0" encoding="utf-8"?>
<!-- Generator: Adobe Illustrator 23.0.3, SVG Export Plug-In . SVG Version: 6.00 Build 0)  -->
<svg version="1.1" id="Layer_1" xmlns="http://www.w3.org/2000/svg" xmlns:xlink="http://www.w3.org/1999/xlink" x="0px" y="0px"
	 viewBox="0 0 600 600" style="enable-background:new 0 0 600 600;" xml:space="preserve">
<style type="text/css">
	.st0{fill:#6AB0E5;}
	.st1{fill:#2481D7;}
	.st2{fill:#C8DFF5;}
	.st3{fill:#AFD8F9;}
	.st4{fill:#FFFFFF;}
	.st5{fill:#DEF4FC;}
</style>
<g>
	<g>
		<g>
			<path class="st0" d="M299.6,300.3c-2.5-18-18-31.9-36.7-31.9H96.8v239.2h166.1c20.5,0,37.1,16.6,37.1,37.1V300.3H299.6z"/>
		</g>
	</g>
	<g>
		<g>
			<path class="st1" d="M303.3,298c-3.6-19.3-20.6-33.6-40.4-33.6H96.8c-2.2,0-4,1.8-4,4v239.2c0,2.2,1.8,4,4,4h166.1
				c18.3,0,33.1,14.8,33.1,33.1c0,2.2,1.8,4,4,4s4-1.8,4-4V300.3C304,299.5,303.7,298.7,303.3,298z M296,520.4
				c-7.5-10.2-19.5-16.8-33.1-16.8H100.8V272.4h162.1c16.4,0,30.5,12.2,32.7,28.5c0.1,0.4,0.2,0.8,0.4,1.2V520.4z"/>
		</g>
	</g>
	<g>
		<g>
			<path class="st2" d="M299.6,252c-2.7-19.3-19.3-34.2-39.4-34.2H73.7v256.6h186.5c22,0,39.8,17.8,39.8,39.8V252H299.6z"/>
		</g>
	</g>
	<g>
		<g>
			<path class="st3" d="M299.6,300.3c-2.5-18-18-31.9-36.7-31.9H96.8v205.9h163.4c22,0,39.8,17.8,39.8,39.8V300.3H299.6z"/>
		</g>
	</g>
	<g>
		<g>
			<path class="st1" d="M303.2,249.6c-3.8-20.6-22-35.9-43-35.9H73.7c-2.2,0-4,1.8-4,4v256.6c0,2.2,1.8,4,4,4h186.5
				c19.7,0,35.8,16.1,35.8,35.8c0,2.2,1.8,4,4,4s4-1.8,4-4V252C304,251.1,303.7,250.3,303.2,249.6z M296,488.9
				c-7.9-11.2-21-18.6-35.8-18.6H77.7V221.7h182.5c17.7,0,32.9,13.2,35.4,30.8c0.1,0.5,0.2,0.9,0.4,1.3V488.9z"/>
		</g>
	</g>
	<g>
		<g>
			<path class="st4" d="M299.6,215.8c-2.7-19.3-19.3-34.2-39.4-34.2H117v256.6h143.2c22,0,39.8,17.8,39.8,39.8V215.8H299.6z"/>
		</g>
	</g>
	<g>
		<g>
			<path class="st5" d="M299.6,252c-2.7-19.3-19.3-34.2-39.4-34.2H117v220.5h143.2c22,0,39.8,17.8,39.8,39.8V252H299.6z"/>
		</g>
	</g>
	<g>
		<g>
			<path class="st1" d="M303.2,213.5c-3.8-20.6-22-35.9-43-35.9H117c-2.2,0-4,1.8-4,4v256.6c0,2.2,1.8,4,4,4h143.2
				c19.7,0,35.8,16.1,35.8,35.8c0,2.2,1.8,4,4,4s4-1.8,4-4V215.8C304,215,303.7,214.2,303.2,213.5z M296,452.8
				c-7.9-11.2-21-18.6-35.8-18.6H121V185.6h139.2c17.7,0,32.9,13.2,35.4,30.8c0.1,0.5,0.2,0.9,0.4,1.3V452.8z"/>
		</g>
	</g>
	<g>
		<g>
			<path class="st0" d="M337.1,268.4c-18.7,0-34.2,13.9-36.7,31.9H300v244.4c0-20.5,16.6-37.1,37.1-37.1h166.1V268.4H337.1z"/>
		</g>
	</g>
	<g>
		<g>
			<path class="st1" d="M503.2,264.4H337.1c-19.8,0-36.8,14.3-40.4,33.6c-0.5,0.7-0.7,1.4-0.7,2.3v244.4c0,2.2,1.8,4,4,4s4-1.8,4-4
				c0-18.3,14.8-33.1,33.1-33.1h166.1c2.2,0,4-1.8,4-4V268.4C507.2,266.2,505.4,264.4,503.2,264.4z M499.2,503.6H337.1
				c-13.6,0-25.6,6.6-33.1,16.8V302.1c0.2-0.4,0.3-0.8,0.4-1.2c2.3-16.2,16.4-28.5,32.7-28.5h162.1V503.6z"/>
		</g>
	</g>
	<g>
		<g>
			<path class="st2" d="M339.8,217.7c-20.1,0-36.6,14.9-39.4,34.2H300v262.2c0-22,17.8-39.8,39.8-39.8h186.5V217.7H339.8z"/>
		</g>
	</g>
	<g>
		<g>
			<path class="st3" d="M337.1,268.4c-18.7,0-34.2,13.9-36.7,31.9H300v213.8c0-22,17.8-39.8,39.8-39.8h163.4V268.4H337.1z"/>
		</g>
	</g>
	<g>
		<g>
			<path class="st1" d="M526.3,213.7H339.8c-21.1,0-39.3,15.3-43,35.9c-0.5,0.7-0.8,1.5-0.8,2.4v262.2c0,2.2,1.8,4,4,4s4-1.8,4-4
				c0-19.7,16.1-35.8,35.8-35.8h186.5c2.2,0,4-1.8,4-4V217.7C530.3,215.5,528.5,213.7,526.3,213.7z M522.3,470.3H339.8
				c-14.8,0-27.9,7.4-35.8,18.6V253.8c0.2-0.4,0.3-0.8,0.4-1.3c2.5-17.5,17.7-30.8,35.4-30.8h182.5V470.3z"/>
		</g>
	</g>
	<g>
		<g>
			<path class="st4" d="M339.8,181.6c-20.1,0-36.6,14.9-39.4,34.2H300V478c0-22,17.8-39.8,39.8-39.8H483V181.6H339.8z"/>
		</g>
	</g>
	<g>
		<g>
			<path class="st5" d="M339.8,217.7c-20.1,0-36.6,14.9-39.4,34.2H300v226c0-22,17.8-39.8,39.8-39.8H483V217.7H339.8z"/>
		</g>
	</g>
	<g>
		<g>
			<path class="st1" d="M483,177.6H339.8c-21.1,0-39.3,15.3-43,35.9c-0.5,0.7-0.8,1.5-0.8,2.4V478c0,2.2,1.8,4,4,4s4-1.8,4-4
				c0-19.7,16.1-35.8,35.8-35.8H483c2.2,0,4-1.8,4-4V181.6C487,179.4,485.2,177.6,483,177.6z M479,434.2H339.8
				c-14.8,0-27.9,7.4-35.8,18.6V217.7c0.2-0.4,0.3-0.8,0.4-1.3c2.5-17.5,17.7-30.8,35.4-30.8H479V434.2z"/>
		</g>
	</g>
	<g>
		<g>
			<rect x="213.7" y="219.3" class="st0" width="41.6" height="41.6"/>
		</g>
	</g>
	<g>
		<g>
			<path class="st1" d="M255.2,216.3h-41.6c-1.7,0-3,1.3-3,3v41.6c0,1.7,1.3,3,3,3h41.6c1.7,0,3-1.3,3-3v-41.6
				C258.2,217.7,256.9,216.3,255.2,216.3z M252.2,257.9h-35.6v-35.6h35.6V257.9z"/>
		</g>
	</g>
	<g>
		<g>
			<rect x="154.2" y="278.1" class="st0" width="41.6" height="41.6"/>
		</g>
	</g>
	<g>
		<g>
			<path class="st1" d="M195.8,275.1h-41.6c-1.7,0-3,1.3-3,3v41.6c0,1.7,1.3,3,3,3h41.6c1.7,0,3-1.3,3-3v-41.6
				C198.8,276.4,197.4,275.1,195.8,275.1z M192.8,316.7h-35.6v-35.6h35.6V316.7z"/>
		</g>
	</g>
	<g>
		<g>
			<rect x="213.7" y="278.1" class="st3" width="41.6" height="41.6"/>
		</g>
	</g>
	<g>
		<g>
			<path class="st1" d="M255.2,275.1h-41.6c-1.7,0-3,1.3-3,3v41.6c0,1.7,1.3,3,3,3h41.6c1.7,0,3-1.3,3-3v-41.6
				C258.2,276.4,256.9,275.1,255.2,275.1z M252.2,316.7h-35.6v-35.6h35.6V316.7z"/>
		</g>
	</g>
	<g>
		<g>
			<path class="st1" d="M255.2,337.9h-101c-1.7,0-3,1.3-3,3s1.3,3,3,3h101c1.7,0,3-1.3,3-3S256.9,337.9,255.2,337.9z"/>
		</g>
	</g>
	<g>
		<g>
			<path class="st1" d="M255.2,356.7h-101c-1.7,0-3,1.3-3,3c0,1.7,1.3,3,3,3h101c1.7,0,3-1.3,3-3
				C258.2,358.1,256.9,356.7,255.2,356.7z"/>
		</g>
	</g>
	<g>
		<g>
			<path class="st1" d="M255.2,375.5h-101c-1.7,0-3,1.3-3,3c0,1.7,1.3,3,3,3h101c1.7,0,3-1.3,3-3
				C258.2,376.9,256.9,375.5,255.2,375.5z"/>
		</g>
	</g>
	<g>
		<g>
			<path class="st1" d="M255.2,394.3h-101c-1.7,0-3,1.3-3,3s1.3,3,3,3h101c1.7,0,3-1.3,3-3S256.9,394.3,255.2,394.3z"/>
		</g>
	</g>
	<g>
		<g>
			<rect x="344.8" y="355.8" class="st3" width="41.6" height="41.6"/>
		</g>
	</g>
	<g>
		<g>
			<path class="st1" d="M386.3,352.8h-41.6c-1.7,0-3,1.3-3,3v41.6c0,1.7,1.3,3,3,3h41.6c1.7,0,3-1.3,3-3v-41.6
				C389.3,354.1,388,352.8,386.3,352.8z M383.3,394.3h-35.6v-35.6h35.6V394.3z"/>
		</g>
	</g>
	<g>
		<g>
			<rect x="404.2" y="297" class="st3" width="41.6" height="41.6"/>
		</g>
	</g>
	<g>
		<g>
			<path class="st1" d="M445.8,294h-41.6c-1.7,0-3,1.3-3,3v41.6c0,1.7,1.3,3,3,3h41.6c1.7,0,3-1.3,3-3V297
				C448.8,295.4,447.5,294,445.8,294z M442.8,335.6h-35.6V300h35.6V335.6z"/>
		</g>
	</g>
	<g>
		<g>
			<rect x="344.8" y="297" class="st0" width="41.6" height="41.6"/>
		</g>
	</g>
	<g>
		<g>
			<path class="st1" d="M386.3,294h-41.6c-1.7,0-3,1.3-3,3v41.6c0,1.7,1.3,3,3,3h41.6c1.7,0,3-1.3,3-3V297
				C389.3,295.4,388,294,386.3,294z M383.3,335.6h-35.6V300h35.6V335.6z"/>
		</g>
	</g>
	<g>
		<g>
			<path class="st1" d="M445.8,272.8h-101c-1.7,0-3,1.3-3,3c0,1.7,1.3,3,3,3h101c1.7,0,3-1.3,3-3
				C448.8,274.1,447.5,272.8,445.8,272.8z"/>
		</g>
	</g>
	<g>
		<g>
			<path class="st1" d="M445.8,254h-101c-1.7,0-3,1.3-3,3c0,1.7,1.3,3,3,3h101c1.7,0,3-1.3,3-3C448.8,255.3,447.5,254,445.8,254z"/>
		</g>
	</g>
	<g>
		<g>
			<path class="st1" d="M445.8,235.1h-101c-1.7,0-3,1.3-3,3c0,1.7,1.3,3,3,3h101c1.7,0,3-1.3,3-3
				C448.8,236.5,447.5,235.1,445.8,235.1z"/>
		</g>
	</g>
	<g>
		<g>
			<path class="st1" d="M445.8,216.3h-101c-1.7,0-3,1.3-3,3c0,1.7,1.3,3,3,3h101c1.7,0,3-1.3,3-3
				C448.8,217.7,447.5,216.3,445.8,216.3z"/>
		</g>
	</g>
	<g>
		<g>
			<path class="st2" d="M298,61.3h4v-4h-4V61.3z M298,66h4v-0.7h-4V66z M298,49.3v4h4v-4H298z"/>
		</g>
	</g>
	<g>
		<g>
			<path class="st2" d="M298,220.6h4v-0.7h-4V220.6z M298,215.9h4v-4h-4V215.9z M298,203.9v4h4v-4H298z"/>
		</g>
	</g>
	<g>
		<g>
			<path class="st2" d="M222.3,137h4v-4h-4V137z M214.3,137h4v-4h-4V137z M230.3,133v4h0.7v-4H230.3z"/>
		</g>
	</g>
	<g>
		<g>
			<path class="st2" d="M369,137h4v-4h-4V137z M385,133v4h0.7v-4H385z M377,137h4v-4h-4V137z"/>
		</g>
	</g>
	<g>
		<g>
			<polygon class="st2" points="225.9,60.8 225.9,108.5 229.9,108.5 229.9,64.8 273.6,64.8 273.6,60.8 			"/>
		</g>
	</g>
	<g>
		<g>
			<polygon class="st2" points="326.4,60.8 326.4,64.8 370.2,64.8 370.2,108.5 374.2,108.5 374.2,60.8 			"/>
		</g>
	</g>
	<g>
		<g>
			<polygon class="st2" points="370.2,161.4 370.2,205.1 326.4,205.1 326.4,209.1 374.2,209.1 374.2,161.4 			"/>
		</g>
	</g>
	<g>
		<g>
			<polygon class="st2" points="229.9,205.1 229.9,161.4 225.9,161.4 225.9,209.1 273.6,209.1 273.6,205.1 			"/>
		</g>
	</g>
	<g>
		<g>
			<polygon class="st2" points="242.6,77.6 242.6,96.5 246.6,96.5 246.6,81.6 261.6,81.6 261.6,77.6 			"/>
		</g>
	</g>
	<g>
		<g>
			<polygon class="st2" points="338.4,77.6 338.4,81.6 353.4,81.6 353.4,96.5 357.4,96.5 357.4,77.6 			"/>
		</g>
	</g>
	<g>
		<g>
			<polygon class="st2" points="353.4,173.4 353.4,188.4 338.4,188.4 338.4,192.4 357.4,192.4 357.4,173.4 			"/>
		</g>
	</g>
	<g>
		<g>
			<polygon class="st2" points="246.6,188.4 246.6,173.4 242.6,173.4 242.6,192.4 261.6,192.4 261.6,188.4 			"/>
		</g>
	</g>
	<g>
		<g>
			<path class="st1" d="M175,222.4c-9.7,0-17.7,7.9-17.7,17.7c0,9.8,7.9,17.7,17.7,17.7c9.7,0,17.7-7.9,17.7-17.7
				C192.7,230.4,184.7,222.4,175,222.4z M175,253.8c-7.5,0-13.7-6.1-13.7-13.7c0-7.5,6.1-13.7,13.7-13.7c7.5,0,13.7,6.1,13.7,13.7
				C188.7,247.7,182.5,253.8,175,253.8z"/>
		</g>
	</g>
	<g>
		<g>
			<path class="st1" d="M175,222.4c-5.4,0-8.2,8.9-8.2,17.7c0,8.8,2.8,17.7,8.2,17.7c5.4,0,8.2-8.9,8.2-17.7
				C183.1,231.3,180.3,222.4,175,222.4z M175,253.8c-1.2,0-4.2-4.7-4.2-13.7c0-9,2.9-13.7,4.2-13.7c1.2,0,4.2,4.7,4.2,13.7
				C179.1,249.1,176.2,253.8,175,253.8z"/>
		</g>
	</g>
	<g>
		<g>
			<path class="st1" d="M190.7,238.1h-31.4c-1.1,0-2,0.9-2,2s0.9,2,2,2h31.4c1.1,0,2-0.9,2-2S191.8,238.1,190.7,238.1z"/>
		</g>
	</g>
	<g>
		<g>
			<path class="st1" d="M447.4,375.4c-5.3-7.2-13.5-11.3-22.4-11.3c-8.9,0-17.1,4.1-22.4,11.3c-0.5,0.7-0.5,1.7,0,2.4
				c5.3,7.2,13.5,11.3,22.4,11.3c8.9,0,17.1-4.1,22.4-11.3C447.9,377,447.9,376.1,447.4,375.4z M425,385c-7.1,0-13.7-3.1-18.2-8.5
				c4.6-5.4,11.1-8.5,18.2-8.5c7.1,0,13.7,3.1,18.2,8.5C438.7,382,432.1,385,425,385z"/>
		</g>
	</g>
	<g>
		<g>
			<path class="st1" d="M430.5,374.5c-1.1,0-2,0.9-2,2c0,1.9-1.5,3.5-3.5,3.5c-1.1,0-2,0.9-2,2s0.9,2,2,2c4.1,0,7.5-3.3,7.5-7.5
				C432.5,375.4,431.6,374.5,430.5,374.5z"/>
		</g>
	</g>
	<g>
		<g>
			<path class="st1" d="M425,369.1c-4.1,0-7.4,3.3-7.4,7.5c0,1.1,0.9,2,2,2s2-0.9,2-2c0-1.9,1.5-3.5,3.4-3.5c1.1,0,2-0.9,2-2
				S426.1,369.1,425,369.1z"/>
		</g>
	</g>
	<g>
		<g>
			<polygon class="st0" points="263.9,124.8 263.9,145.1 334.4,163.8 334.4,106.1 			"/>
		</g>
	</g>
	<g>
		<g>
			<rect x="334.4" y="100.2" class="st3" width="11" height="69.4"/>
		</g>
	</g>
	<g>
	</g>
	<g>
	</g>
	<g>
	</g>
	<g>
		<g>
			<path class="st1" d="M334.9,161.9l-69-18.3v-17.2l69-18.3c1.1-0.3,1.7-1.4,1.4-2.4c-0.3-1.1-1.4-1.7-2.4-1.4l-70.5,18.7
				c-0.9,0.2-1.5,1-1.5,1.9v20.3c0,0.9,0.6,1.7,1.5,1.9l70.5,18.7c0.2,0,0.3,0.1,0.5,0.1c0.9,0,1.7-0.6,1.9-1.5
				C336.6,163.3,336,162.2,334.9,161.9z"/>
		</g>
	</g>
	<g>
		<g>
			<path class="st1" d="M345.4,98.2l-11,0c0,0,0,0,0,0c-0.5,0-1,0.2-1.4,0.6s-0.6,0.9-0.6,1.4v69.4c0,1.1,0.9,2,2,2l11,0h0
				c0.5,0,1-0.2,1.4-0.6c0.4-0.4,0.6-0.9,0.6-1.4v-69.4C347.4,99.1,346.5,98.2,345.4,98.2z M343.4,167.7l-7,0v-65.4l7,0V167.7z"/>
		</g>
	</g>
	<g>
		<g>
			<path class="st1" d="M263.9,118.1c-1.1,0-2,0.9-2,2v29.8c0,1.1,0.9,2,2,2c1.1,0,2-0.9,2-2v-29.8C265.9,119,265,118.1,263.9,118.1
				z"/>
		</g>
	</g>
	<g>
		<g>
			<path class="st1" d="M254.6,118.1c-1.1,0-2,0.9-2,2v29.8c0,1.1,0.9,2,2,2s2-0.9,2-2v-29.8C256.6,119,255.7,118.1,254.6,118.1z"/>
		</g>
	</g>
	<g>
		<g>
			<path class="st1" d="M296,152L296,152c-1.1,0-2,0.9-2,2c0,4.3-3.5,7.8-7.8,7.8c-4.3,0-7.8-3.5-7.8-7.8v-5.1c0-1.1-0.9-2-2-2
				c-1.1,0-2,0.9-2,2v5.1c0,6.5,5.3,11.8,11.8,11.8c6.5,0,11.8-5.3,11.8-11.8C298,152.9,297.1,152,296,152z"/>
		</g>
	</g>
	<g>
		<g>
			<path class="st1" d="M296,114.3c-1.1,0-2,0.9-2,2V154c0,1.1,0.9,2,2,2s2-0.9,2-2v-37.8C298,115.2,297.1,114.3,296,114.3z"/>
		</g>
	</g>
	<g>
		<g>
			<path class="st2" d="M84.2,110.5c-2.1,0-3.7,1.7-3.7,3.7c0,2.1,1.7,3.7,3.7,3.7c2.1,0,3.7-1.7,3.7-3.7
				C87.9,112.2,86.2,110.5,84.2,110.5z M83.9,114.2c0-0.1,0.1-0.3,0.3-0.3c0.1,0,0.3,0.1,0.3,0.3C84.4,114.5,83.9,114.5,83.9,114.2z
				"/>
		</g>
	</g>
	<g>
		<g>
			<rect x="92.9" y="112.2" class="st2" width="40" height="4"/>
		</g>
	</g>
	<g>
		<g>
			<path class="st2" d="M84.2,131.2c-2.1,0-3.7,1.7-3.7,3.7c0,2.1,1.7,3.7,3.7,3.7c2.1,0,3.7-1.7,3.7-3.7
				C87.9,132.9,86.2,131.2,84.2,131.2z M83.9,135c0-0.1,0.1-0.3,0.3-0.3c0.1,0,0.3,0.1,0.3,0.3C84.4,135.3,83.9,135.3,83.9,135z"/>
		</g>
	</g>
	<g>
		<g>
			<rect x="92.9" y="133" class="st2" width="40" height="4"/>
		</g>
	</g>
	<g>
		<g>
			<path class="st2" d="M84.2,152c-2.1,0-3.7,1.7-3.7,3.7c0,2.1,1.7,3.7,3.7,3.7c2.1,0,3.7-1.7,3.7-3.7
				C87.9,153.6,86.2,152,84.2,152z M83.9,155.7c0-0.1,0.1-0.3,0.3-0.3c0.1,0,0.3,0.1,0.3,0.3C84.4,156,83.9,156,83.9,155.7z"/>
		</g>
	</g>
	<g>
		<g>
			<rect x="92.9" y="153.7" class="st2" width="40" height="4"/>
		</g>
	</g>
	<g>
		<g>
			<path class="st2" d="M468.8,110.5c-2.1,0-3.7,1.7-3.7,3.7c0,2.1,1.7,3.7,3.7,3.7c2.1,0,3.7-1.7,3.7-3.7
				C472.6,112.2,470.9,110.5,468.8,110.5z M468.6,114.2c0-0.1,0.1-0.3,0.3-0.3c0.1,0,0.3,0.1,0.3,0.3
				C469.1,114.5,468.6,114.5,468.6,114.2z"/>
		</g>
	</g>
	<g>
		<g>
			<rect x="477.6" y="112.2" class="st2" width="40" height="4"/>
		</g>
	</g>
	<g>
		<g>
			<path class="st2" d="M468.8,131.2c-2.1,0-3.7,1.7-3.7,3.7c0,2.1,1.7,3.7,3.7,3.7c2.1,0,3.7-1.7,3.7-3.7
				C472.6,132.9,470.9,131.2,468.8,131.2z M468.6,135c0-0.1,0.1-0.3,0.3-0.3c0.1,0,0.3,0.1,0.3,0.3
				C469.1,135.3,468.6,135.3,468.6,135z"/>
		</g>
	</g>
	<g>
		<g>
			<rect x="477.6" y="133" class="st2" width="40" height="4"/>
		</g>
	</g>
	<g>
		<g>
			<path class="st2" d="M468.8,152c-2.1,0-3.7,1.7-3.7,3.7c0,2.1,1.7,3.7,3.7,3.7c2.1,0,3.7-1.7,3.7-3.7
				C472.6,153.6,470.9,152,468.8,152z M468.6,155.7c0-0.1,0.1-0.3,0.3-0.3c0.1,0,0.3,0.1,0.3,0.3C469.1,156,468.6,156,468.6,155.7z"
				/>
		</g>
	</g>
	<g>
		<g>
			<rect x="477.6" y="153.7" class="st2" width="40" height="4"/>
		</g>
	</g>
	<g>
	</g>
	<g>
	</g>
	<g>
		<g>
			<path class="st2" d="M166.7,76.9l-1.9,3.5c1,0.6,2,1.2,2.9,2l2.7-3C169.2,78.4,168,77.6,166.7,76.9z M158.1,78.7
				c1.2,0,2.3,0.1,3.5,0.4l1-3.9c-1.4-0.4-2.9-0.5-4.4-0.5V78.7z M173.2,82.8l-3.3,2.2c0.6,1,1.2,2,1.6,3.1l3.8-1.3
				C174.8,85.4,174.1,84.1,173.2,82.8z M176.2,91.2l-4,0.4c0,0.4,0.1,0.9,0.1,1.3h4C176.3,92.3,176.2,91.8,176.2,91.2z"/>
		</g>
	</g>
	<g>
	</g>
	<g>
		<g>
			<path class="st2" d="M60.5,66.6c-5.6,0-10.1,4.5-10.1,10.1c0,5.5,4.5,10.1,10.1,10.1c5.5,0,10.1-4.5,10.1-10.1
				C70.5,71.1,66,66.6,60.5,66.6z M60.5,82.7c-3.3,0-6.1-2.7-6.1-6.1c0-3.3,2.7-6.1,6.1-6.1c3.3,0,6.1,2.7,6.1,6.1
				C66.5,80,63.8,82.7,60.5,82.7z"/>
		</g>
	</g>
	<g>
		<g>
			<path class="st2" d="M174.3,194.2L174.3,194.2c-2.7,0-5.2,1-7.1,2.9c-1.9,1.9-2.9,4.4-2.9,7.1v0c0,5.5,4.5,10.1,10.1,10.1
				c5.5,0,10.1-4.5,10.1-10.1C184.3,198.7,179.8,194.2,174.3,194.2z M174.3,210.3c-3.3,0-6.1-2.7-6.1-6.1c0-1.6,0.6-3.1,1.8-4.3
				c1.1-1.1,2.7-1.8,4.3-1.8c0,0,0,0,0,0c3.3,0,6.1,2.7,6.1,6.1C180.3,207.6,177.6,210.3,174.3,210.3z"/>
		</g>
	</g>
	<g>
		<g>
			<rect x="68.5" y="74.7" class="st2" width="89.5" height="4"/>
		</g>
	</g>
	<g>
		<g>
			<path class="st2" d="M172.3,168.9h4v-4h-4V168.9z M172.3,176.9h4v-4h-4V176.9z M172.3,198.7h4v-1.8h-4V198.7z M172.3,160.9h4v-4
				h-4V160.9z M172.3,192.9h4v-4h-4V192.9z M172.3,152.9h4v-4h-4V152.9z M172.3,184.9h4v-4h-4V184.9z M172.3,112.9h4v-4h-4V112.9z
				 M172.3,104.9h4v-4h-4V104.9z M172.3,92.9v4h4v-4H172.3z M172.3,144.9h4v-4h-4V144.9z M172.3,120.9h4v-4h-4V120.9z M172.3,136.9
				h4v-4h-4V136.9z M172.3,128.9h4v-4h-4V128.9z"/>
		</g>
	</g>
	<g>
	</g>
	<g>
	</g>
	<g>
		<g>
			<path class="st2" d="M424.8,86.9l3.8,1.3c0.4-1.1,0.9-2.2,1.6-3.1l-3.3-2.2C425.9,84.1,425.3,85.4,424.8,86.9z M423.7,92.9h4
				c0-0.4,0-0.9,0.1-1.3l-4-0.4C423.8,91.8,423.7,92.3,423.7,92.9z M429.7,79.4l2.7,3c0.9-0.8,1.8-1.5,2.9-2l-1.9-3.5
				C432,77.6,430.8,78.4,429.7,79.4z M437.5,75.2l1,3.9c1.1-0.3,2.3-0.4,3.5-0.4v-4C440.4,74.7,438.9,74.9,437.5,75.2z"/>
		</g>
	</g>
	<g>
	</g>
	<g>
		<g>
			<path class="st2" d="M539.5,66.6c-5.5,0-10.1,4.5-10.1,10.1c0,5.5,4.5,10.1,10.1,10.1c5.6,0,10.1-4.5,10.1-10.1
				C549.6,71.1,545.1,66.6,539.5,66.6z M539.5,82.7c-3.3,0-6.1-2.7-6.1-6.1c0-3.3,2.7-6.1,6.1-6.1c3.3,0,6.1,2.7,6.1,6.1
				C545.6,80,542.9,82.7,539.5,82.7z"/>
		</g>
	</g>
	<g>
		<g>
			<path class="st2" d="M432.8,197.1c-1.9-1.9-4.4-2.9-7.1-2.9h0c-5.5,0-10.1,4.5-10.1,10.1c0,5.5,4.5,10.1,10.1,10.1
				c5.5,0,10.1-4.5,10.1-10.1v0C435.8,201.5,434.7,199,432.8,197.1z M425.7,210.3c-3.3,0-6.1-2.7-6.1-6.1c0-3.3,2.7-6.1,6.1-6.1
				c0,0,0,0,0,0c1.6,0,3.1,0.6,4.3,1.8c1.1,1.1,1.8,2.7,1.8,4.3C431.8,207.6,429.1,210.3,425.7,210.3z"/>
		</g>
	</g>
	<g>
		<g>
			<rect x="441.9" y="74.7" class="st2" width="89.5" height="4"/>
		</g>
	</g>
	<g>
		<g>
			<path class="st2" d="M423.7,160.9h4v-4h-4V160.9z M423.7,168.9h4v-4h-4V168.9z M423.7,176.9h4v-4h-4V176.9z M423.7,198.7h4v-1.8
				h-4V198.7z M423.7,152.9h4v-4h-4V152.9z M423.7,192.9h4v-4h-4V192.9z M423.7,184.9h4v-4h-4V184.9z M423.7,136.9h4v-4h-4V136.9z
				 M423.7,112.9h4v-4h-4V112.9z M423.7,104.9h4v-4h-4V104.9z M423.7,92.9v4h4v-4H423.7z M423.7,144.9h4v-4h-4V144.9z M423.7,120.9
				h4v-4h-4V120.9z M423.7,128.9h4v-4h-4V128.9z"/>
		</g>
	</g>
	<g>
		<g>
			<polygon class="st2" points="202.6,57.5 188.9,65.5 188.9,72.9 202.6,64.9 216.4,72.9 216.4,65.5 			"/>
		</g>
	</g>
	<g>
		<g>
			<polygon class="st2" points="202.6,71.8 188.9,79.9 188.9,87.3 202.6,79.2 216.4,87.3 216.4,79.9 			"/>
		</g>
	</g>
	<g>
		<g>
			<polygon class="st2" points="202.6,86.2 188.9,94.2 188.9,101.6 202.6,93.6 216.4,101.6 216.4,94.2 			"/>
		</g>
	</g>
	<g>
		<g>
			<polygon class="st2" points="397.4,57.5 383.6,65.5 383.6,72.9 397.4,64.9 411.1,72.9 411.1,65.5 			"/>
		</g>
	</g>
	<g>
		<g>
			<polygon class="st2" points="397.4,71.8 383.6,79.9 383.6,87.3 397.4,79.2 411.1,87.3 411.1,79.9 			"/>
		</g>
	</g>
	<g>
		<g>
			<polygon class="st2" points="397.4,86.2 383.6,94.2 383.6,101.6 397.4,93.6 411.1,101.6 411.1,94.2 			"/>
		</g>
	</g>
</g>
</svg>
