<?xml version="1.0" encoding="utf-8"?>
<!-- Generator: Adobe Illustrator 23.0.3, SVG Export Plug-In . SVG Version: 6.00 Build 0)  -->
<svg version="1.1" id="Layer_1" xmlns="http://www.w3.org/2000/svg" xmlns:xlink="http://www.w3.org/1999/xlink" x="0px" y="0px"
	 viewBox="0 0 600 600" style="enable-background:new 0 0 600 600;" xml:space="preserve">
<style type="text/css">
	.st0{fill:#C8DFF5;}
	.st1{fill:#6AB0E5;}
	.st2{fill:#5BA1E1;}
	.st3{fill:#2481D7;}
	.st4{fill:#AFD8F9;}
	.st5{fill:#FFFFFF;}
	.st6{fill:#E9F6FF;}
	.st7{fill:#DEF4FC;}
</style>
<g>
	<g>
		<g>
			<path class="st0" d="M287.1,273.7l-2.8,2.8c27.3,27.3,27.3,71.7,0,99l2.8,2.8C315.9,349.5,315.9,302.5,287.1,273.7z"/>
		</g>
	</g>
	<g>
		<g>
			<path class="st0" d="M185.2,276.5l-2.8-2.8c-28.9,28.9-28.9,75.8,0,104.7l2.8-2.8C157.9,348.2,157.9,303.8,185.2,276.5z"/>
		</g>
	</g>
	<g>
		<g>
			<path class="st0" d="M217.9,253.9l0.9,3.9c1.3-0.3,2.5-0.6,3.8-0.8l-0.7-3.9C220.5,253.4,219.2,253.6,217.9,253.9z M226,252.5
				l0.5,4c1.3-0.2,2.6-0.3,3.9-0.4l-0.3-4C228.7,252.2,227.3,252.4,226,252.5z M202.4,259.4l1.7,3.6c1.2-0.6,2.4-1.1,3.5-1.6
				l-1.5-3.7C204.9,258.3,203.6,258.8,202.4,259.4z M195.2,263.4l2.1,3.4c1.1-0.7,2.2-1.4,3.3-2l-1.9-3.5
				C197.5,262,196.4,262.7,195.2,263.4z M234.2,252l0,4l0.5,0c1.1,0,2.2,0,3.3,0.1l0.2-4c-1.2-0.1-2.4-0.1-3.5-0.1L234.2,252z
				 M182.4,273.7l2.8,2.8c0.9-0.9,1.9-1.8,2.8-2.7l-2.7-3C184.4,271.8,183.4,272.7,182.4,273.7z M188.5,268.2l2.5,3.1
				c1-0.8,2.1-1.6,3.1-2.3l-2.3-3.3C190.7,266.5,189.6,267.3,188.5,268.2z M210,256.3l1.3,3.8c1.2-0.4,2.5-0.8,3.7-1.2l-1.1-3.8
				C212.6,255.4,211.3,255.8,210,256.3z M277.6,270.6c1,0.8,2,1.6,3,2.5l2.6-3c-1-0.9-2.1-1.8-3.2-2.6L277.6,270.6z M286.2,272.9
				l-2.8,2.9c0.3,0.3,0.5,0.5,0.8,0.8l2.8-2.8C286.8,273.4,286.5,273.1,286.2,272.9z M242,256.4c1.3,0.1,2.6,0.3,3.9,0.5l0.6-3.9
				c-1.4-0.2-2.7-0.4-4.1-0.5L242,256.4z M271.2,266.2c1.1,0.7,2.2,1.4,3.3,2.1l2.3-3.3c-1.1-0.8-2.3-1.5-3.4-2.2L271.2,266.2z
				 M249.6,257.6c1.3,0.3,2.5,0.6,3.8,0.9l1.1-3.9c-1.3-0.4-2.7-0.7-4-1L249.6,257.6z M257.1,259.7c1.2,0.4,2.5,0.9,3.6,1.3l1.5-3.7
				c-1.3-0.5-2.6-1-3.9-1.4L257.1,259.7z M264.3,262.6c1.2,0.5,2.3,1.1,3.5,1.7l1.9-3.5c-1.2-0.6-2.4-1.3-3.7-1.8L264.3,262.6z"/>
		</g>
	</g>
	<g>
		<g>
			<path class="st0" d="M199.7,391.2c1.2,0.6,2.4,1.3,3.7,1.8l1.7-3.6c-1.2-0.5-2.3-1.1-3.5-1.7L199.7,391.2z M207.2,394.7
				c1.3,0.5,2.6,1,3.9,1.4l1.3-3.8c-1.2-0.4-2.5-0.9-3.6-1.3L207.2,394.7z M223,399.1c1.4,0.2,2.7,0.4,4.1,0.5l0.4-4
				c-1.3-0.1-2.6-0.3-3.9-0.5L223,399.1z M215,397.3c1.3,0.4,2.7,0.7,4,1l0.8-3.9c-1.3-0.3-2.5-0.6-3.8-0.9L215,397.3z M182.4,378.3
				c0.3,0.3,0.5,0.5,0.8,0.8l2.8-2.9c-0.3-0.3-0.5-0.5-0.8-0.8L182.4,378.3z M186.2,381.9c1,0.9,2.1,1.8,3.2,2.6l2.5-3.2
				c-1-0.8-2-1.6-3-2.5L186.2,381.9z M192.7,387c1.1,0.8,2.3,1.5,3.4,2.2l2.1-3.4c-1.1-0.7-2.2-1.4-3.3-2.1L192.7,387z M234.7,396
				c-1.1,0-2.2,0-3.4-0.1l-0.2,4c1.2,0.1,2.4,0.1,3.5,0.1l0.6,0l0-4L234.7,396z M275.3,383l2.3,3.3c1.1-0.8,2.2-1.6,3.3-2.5
				l-2.5-3.1C277.4,381.5,276.4,382.3,275.3,383z M284.2,375.5c-0.9,0.9-1.9,1.8-2.8,2.7l2.7,3c1-0.9,2-1.9,3-2.8L284.2,375.5z
				 M268.8,387.2l1.9,3.5c1.2-0.7,2.4-1.4,3.5-2.1l-2.1-3.4C271,385.9,269.9,386.6,268.8,387.2z M246.9,395l0.7,3.9
				c1.3-0.2,2.7-0.5,4-0.8l-0.9-3.9C249.4,394.5,248.1,394.7,246.9,395z M239.1,395.9l0.3,4c1.4-0.1,2.7-0.2,4.1-0.4l-0.5-4
				C241.7,395.7,240.4,395.8,239.1,395.9z M254.4,393.2l1.1,3.8c1.3-0.4,2.6-0.8,3.9-1.3l-1.3-3.8
				C256.9,392.4,255.7,392.8,254.4,393.2z M261.8,390.6l1.5,3.7c1.3-0.5,2.5-1.1,3.7-1.7l-1.7-3.6
				C264.1,389.6,263,390.1,261.8,390.6z"/>
		</g>
	</g>
	<g>
		<g>
			<path class="st0" d="M382.8,326c0,81.7-66.4,148.1-148.1,148.1v4c83.9,0,152.1-68.2,152.1-152.1H382.8z"/>
		</g>
	</g>
	<g>
		<g>
			<path class="st0" d="M82.6,326h4c0-81.7,66.4-148.1,148.1-148.1v-4C150.9,173.9,82.6,242.1,82.6,326z"/>
		</g>
	</g>
	<g>
		<g>
			<path class="st0" d="M303.1,194.6c1.2,0.6,2.3,1.2,3.5,1.9l1.9-3.5c-1.2-0.7-2.4-1.3-3.6-1.9L303.1,194.6z M310,198.5
				c1.1,0.7,2.3,1.4,3.4,2.1l2.1-3.4c-1.1-0.7-2.3-1.4-3.5-2.1L310,198.5z M296,191.2c1.2,0.5,2.4,1.1,3.6,1.7l1.8-3.6
				c-1.2-0.6-2.4-1.2-3.7-1.7L296,191.2z M316.7,202.7c1.1,0.7,2.2,1.5,3.3,2.2l2.3-3.3c-1.1-0.8-2.2-1.5-3.3-2.3L316.7,202.7z
				 M338,214.4l-2.7,2.9c1,0.9,1.9,1.8,2.9,2.7l2.8-2.9C340,216.2,339,215.3,338,214.4z M329.4,212.1c1,0.8,2,1.7,3,2.6l2.6-3
				c-1-0.9-2-1.8-3.1-2.6L329.4,212.1z M288.7,188.1c1.2,0.5,2.5,1,3.7,1.5l1.6-3.7c-1.2-0.5-2.5-1-3.8-1.5L288.7,188.1z
				 M250.5,178.7c1.3,0.1,2.6,0.3,3.9,0.5l0.5-4c-1.3-0.2-2.7-0.3-4-0.5L250.5,178.7z M242.6,178.1c1.3,0.1,2.6,0.2,3.9,0.3l0.3-4
				c-1.3-0.1-2.7-0.2-4-0.3L242.6,178.1z M234.7,177.9c1.3,0,2.6,0,3.9,0.1l0.1-4c-1.3,0-2.7-0.1-4.1-0.1V177.9z M273.7,183.1
				c1.3,0.3,2.5,0.7,3.8,1.1l1.2-3.8c-1.3-0.4-2.6-0.8-3.9-1.1L273.7,183.1z M281.3,185.4c1.3,0.4,2.5,0.8,3.7,1.3l1.4-3.8
				c-1.3-0.5-2.6-0.9-3.8-1.3L281.3,185.4z M258.3,179.8c1.3,0.2,2.6,0.4,3.9,0.7l0.7-3.9c-1.3-0.2-2.7-0.5-4-0.7L258.3,179.8z
				 M266.1,181.2c1.3,0.3,2.6,0.6,3.8,0.9l0.9-3.9c-1.3-0.3-2.6-0.6-4-0.9L266.1,181.2z M323.2,207.2c1.1,0.8,2.1,1.6,3.1,2.4
				l2.5-3.1c-1.1-0.8-2.1-1.7-3.2-2.5L323.2,207.2z M382.5,290l-3.9,0.9c0.3,1.3,0.6,2.6,0.9,3.8l3.9-0.8
				C383.2,292.7,382.9,291.4,382.5,290z M384.2,298l-3.9,0.7c0.2,1.3,0.5,2.6,0.7,3.9l4-0.6C384.7,300.6,384.5,299.3,384.2,298z
				 M380.4,282.2l-3.8,1.2c0.4,1.3,0.7,2.5,1.1,3.8l3.9-1C381.2,284.8,380.8,283.5,380.4,282.2z M386.8,322.1l-4,0.1
				c0,1.3,0,2.5,0,3.8h4C386.8,324.7,386.8,323.4,386.8,322.1z M377.9,274.5l-3.8,1.4c0.4,1.2,0.9,2.5,1.3,3.7l3.8-1.3
				C378.8,277.1,378.3,275.8,377.9,274.5z M386.4,314l-4,0.3c0.1,1.3,0.2,2.6,0.3,3.9l4-0.2C386.6,316.7,386.5,315.4,386.4,314z
				 M385.5,306l-4,0.5c0.2,1.3,0.3,2.6,0.5,3.9l4-0.4C385.8,308.7,385.7,307.3,385.5,306z M354.5,232.2l-3.1,2.5
				c0.8,1,1.6,2.1,2.4,3.1l3.2-2.4C356.1,234.4,355.3,233.3,354.5,232.2z M343.8,220l-2.9,2.8c0.9,0.9,1.8,1.9,2.7,2.9l2.9-2.7
				C345.7,222,344.8,221,343.8,220z M359.3,238.7L356,241c0.8,1.1,1.5,2.2,2.2,3.3l3.3-2.2C360.8,241,360.1,239.8,359.3,238.7z
				 M374.9,267l-3.7,1.6c0.5,1.2,1,2.4,1.5,3.6l3.7-1.5C376,269.5,375.5,268.2,374.9,267z M349.3,226l-3,2.6c0.9,1,1.7,2,2.6,3
				l3.1-2.5C351.1,228,350.2,227,349.3,226z M371.6,259.6l-3.6,1.7c0.6,1.2,1.1,2.4,1.7,3.6l3.6-1.7
				C372.8,262.1,372.2,260.8,371.6,259.6z M363.8,245.5l-3.4,2.1c0.7,1.1,1.4,2.2,2,3.4l3.4-2C365.2,247.8,364.5,246.6,363.8,245.5z
				 M367.9,252.5l-3.5,1.9c0.6,1.1,1.3,2.3,1.9,3.5l3.6-1.8C369.2,254.8,368.5,253.6,367.9,252.5z"/>
		</g>
	</g>
	<g>
		<g>
			<path class="st0" d="M103.2,394.2l-3.6,1.8c0.6,1.2,1.3,2.4,1.9,3.6l3.5-1.9C104.4,396.5,103.8,395.3,103.2,394.2z M99.8,387.1
				l-3.6,1.7c0.6,1.2,1.1,2.4,1.7,3.7l3.6-1.7C100.9,389.5,100.3,388.3,99.8,387.1z M107,401l-3.4,2c0.7,1.2,1.4,2.3,2.1,3.5
				l3.4-2.1C108.4,403.3,107.7,402.2,107,401z M111.2,407.7l-3.3,2.2c0.7,1.1,1.5,2.2,2.3,3.3l3.3-2.3
				C112.7,409.9,111.9,408.8,111.2,407.7z M96.7,379.8l-3.7,1.5c0.5,1.3,1,2.5,1.5,3.7l3.7-1.6C97.7,382.3,97.2,381.1,96.7,379.8z
				 M120.6,420.4l-3.1,2.5c0.9,1,1.7,2.1,2.6,3.1l3-2.6C122.3,422.4,121.4,421.4,120.6,420.4z M115.7,414.2l-3.2,2.4
				c0.8,1.1,1.6,2.2,2.5,3.2l3.1-2.5C117.3,416.3,116.5,415.2,115.7,414.2z M125.8,426.3l-2.9,2.7c0.9,1,1.8,2,2.8,2.9l2.9-2.8
				C127.6,428.2,126.7,427.3,125.8,426.3z M86.8,333.7l-4,0.2c0.1,1.4,0.2,2.7,0.3,4l4-0.3C87,336.4,86.9,335.1,86.8,333.7z
				 M86.6,326h-4c0,1.3,0,2.6,0,3.9l4-0.1C86.7,328.5,86.6,327.3,86.6,326z M87.4,341.6l-4,0.4c0.1,1.3,0.3,2.7,0.5,4l4-0.5
				C87.7,344.2,87.6,342.9,87.4,341.6z M88.5,349.4l-4,0.6c0.2,1.3,0.4,2.7,0.7,4l3.9-0.7C88.9,352,88.7,350.7,88.5,349.4z
				 M94,372.4l-3.8,1.3c0.4,1.3,0.9,2.6,1.3,3.8l3.8-1.4C94.9,374.9,94.5,373.7,94,372.4z M91.8,364.9l-3.9,1
				c0.4,1.3,0.7,2.6,1.1,3.9l3.8-1.1C92.5,367.4,92.1,366.1,91.8,364.9z M89.9,357.2L86,358c0.3,1.3,0.6,2.6,0.9,4l3.9-0.9
				C90.5,359.8,90.2,358.5,89.9,357.2z M160.9,459c1.2,0.7,2.4,1.3,3.6,1.9l1.8-3.5c-1.2-0.6-2.3-1.2-3.5-1.9L160.9,459z
				 M183.1,469.1c1.3,0.5,2.6,0.9,3.8,1.3l1.3-3.8c-1.3-0.4-2.5-0.8-3.7-1.3L183.1,469.1z M128.5,434.8c1,0.9,1.9,1.9,2.9,2.8
				l2.7-2.9c-1-0.9-1.9-1.8-2.9-2.7L128.5,434.8z M190.8,471.7c1.3,0.4,2.6,0.8,3.9,1.1l1-3.9c-1.3-0.3-2.5-0.7-3.8-1.1L190.8,471.7
				z M198.6,473.8c1.3,0.3,2.6,0.6,4,0.9l0.8-3.9c-1.3-0.3-2.6-0.6-3.8-0.9L198.6,473.8z M230.8,474.1l-0.1,4c1.3,0,2.7,0.1,4.1,0.1
				v-4C233.4,474.1,232.1,474.1,230.8,474.1z M222.6,477.6c1.3,0.1,2.7,0.2,4,0.3l0.2-4c-1.3-0.1-2.6-0.2-3.9-0.3L222.6,477.6z
				 M214.5,476.8c1.3,0.2,2.7,0.3,4,0.5l0.4-4c-1.3-0.1-2.6-0.3-3.9-0.5L214.5,476.8z M206.5,475.5c1.3,0.2,2.7,0.5,4,0.7l0.6-3.9
				c-1.3-0.2-2.6-0.4-3.9-0.7L206.5,475.5z M175.5,466.1c1.2,0.5,2.5,1,3.8,1.5l1.5-3.7c-1.2-0.5-2.5-1-3.7-1.5L175.5,466.1z
				 M134.4,440.3c1,0.9,2,1.8,3.1,2.6l2.6-3.1c-1-0.8-2-1.7-3-2.6L134.4,440.3z M147.2,450.4c1.1,0.8,2.2,1.5,3.3,2.3l2.2-3.3
				c-1.1-0.7-2.2-1.5-3.3-2.2L147.2,450.4z M140.7,445.5c1.1,0.8,2.1,1.7,3.2,2.5l2.4-3.2c-1.1-0.8-2.1-1.6-3.1-2.4L140.7,445.5z
				 M168.1,462.8c1.2,0.6,2.4,1.2,3.7,1.7l1.7-3.6c-1.2-0.5-2.4-1.1-3.6-1.7L168.1,462.8z M153.9,454.9c1.1,0.7,2.3,1.4,3.5,2.1
				l2-3.4c-1.1-0.7-2.3-1.4-3.4-2.1L153.9,454.9z"/>
		</g>
	</g>
	<g>
		<g>
			
				<rect x="343" y="402.5" transform="matrix(0.7071 -0.7071 0.7071 0.7071 -207.4655 371.7747)" class="st0" width="4" height="67.6"/>
		</g>
	</g>
	<g>
		<g>
			
				<rect x="122.4" y="181.9" transform="matrix(0.7071 -0.7071 0.7071 0.7071 -116.0778 151.1435)" class="st0" width="4" height="67.6"/>
		</g>
	</g>
	<g>
		<g>
			
				<rect x="90.6" y="434.3" transform="matrix(0.707 -0.7072 0.7072 0.707 -272.1111 215.8082)" class="st0" width="67.6" height="4"/>
		</g>
	</g>
	<g>
		<g>
			
				<rect x="311.2" y="213.7" transform="matrix(0.7071 -0.7071 0.7071 0.7071 -51.458 307.1732)" class="st0" width="67.6" height="4"/>
		</g>
	</g>
	<g>
		<g>
			<path class="st1" d="M479.9,163.2h-59.2c21,0,38.1,17,38.1,38.1v97.8c0,18.7-13.5,34.2-31.3,37.4v0.6h52.4
				c21,0,38.1-17,38.1-38.1v-97.8C517.9,180.3,500.9,163.2,479.9,163.2z"/>
		</g>
	</g>
	<g>
		<g>
			<path class="st2" d="M479.9,180.7h-27.2c3.8,5.9,6,13,6,20.6v115.3c0,7.6-2.2,14.6-6,20.6h27.2c21,0,38.1-17,38.1-38.1v-80.3
				C517.9,197.8,500.9,180.7,479.9,180.7z"/>
		</g>
	</g>
	<g>
		<g>
			<path class="st3" d="M420.7,159.2H120.1c-23.2,0-42.1,18.9-42.1,42.1v97.8c0,23.2,18.9,42.1,42.1,42.1h52.4c2.2,0,4-1.8,4-4
				v-67.5h187.8v67.5c0,2.2,1.8,4,4,4h52.4c23.2,0,42.1-18.9,42.1-42.1v-97.8C462.8,178.1,443.9,159.2,420.7,159.2z M454.8,299.1
				c0,18.8-15.3,34.1-34.1,34.1h-48.4v-67.5c0-2.2-1.8-4-4-4H172.5c-2.2,0-4,1.8-4,4v67.5h-48.4c-18.8,0-34.1-15.3-34.1-34.1v-97.8
				c0-18.8,15.3-34.1,34.1-34.1h300.6c18.8,0,34.1,15.3,34.1,34.1V299.1z"/>
		</g>
	</g>
	<g>
		<g>
			<path class="st0" d="M420.7,163.2H120.1c-21,0-38.1,17-38.1,38.1v80.8c0,21,17,38.1,38.1,38.1h52.4v-71.5h195.8v71.5h52.4
				c21,0,38.1-17,38.1-38.1v-80.8C458.8,180.3,441.7,163.2,420.7,163.2z"/>
		</g>
	</g>
	<g>
		<g>
			<path class="st1" d="M420.7,180.2H120.1c-21,0-38.1,17-38.1,38.1v80.8c0,21,17,38.1,38.1,38.1h52.4v-71.5h195.8v71.5h52.4
				c21,0,38.1-17,38.1-38.1v-80.8C458.8,197.2,441.7,180.2,420.7,180.2z"/>
		</g>
	</g>
	<g>
		<g>
			<path class="st0" d="M470.4,54.4h-3.5c-15.6,0-28.3,12.7-28.3,28.3v21.4h60.1V82.7C498.7,67.1,486,54.4,470.4,54.4z"/>
		</g>
	</g>
	<g>
		<g>
			<path class="st4" d="M451.8,71.9h-2.3c-10.1,0-18.3,8.2-18.3,18.3v13.9h38.9V90.2C470.1,80.1,461.9,71.9,451.8,71.9z"/>
		</g>
	</g>
	<g>
		<g>
			<path class="st3" d="M470.4,50.4h-3.5c-17.8,0-32.3,14.5-32.3,32.3v21.4c0,2.2,1.8,4,4,4h60.1c2.2,0,4-1.8,4-4V82.7
				C502.7,64.9,488.2,50.4,470.4,50.4z M494.7,100.1h-52.1V82.7c0-13.4,10.9-24.3,24.3-24.3h3.5c13.4,0,24.3,10.9,24.3,24.3V100.1z"
				/>
		</g>
	</g>
	<g>
		<g>
			<path class="st5" d="M466.9,54.4H270.8c-15.6,0-28.3,12.7-28.3,28.3v79.9h0l196.1,0.6v-0.6h0v-43h0V82.7
				C438.6,67.1,451.3,54.4,466.9,54.4z"/>
		</g>
	</g>
	<g>
		<g>
			<path class="st6" d="M438.6,82.7c0-3.8,0.8-7.4,2.1-10.8H270.8c-15.6,0-28.3,12.7-28.3,28.3v62.4h0l196.1,0.6v-0.6h0v-25.5h0
				V82.7z"/>
		</g>
	</g>
	<g>
		<g>
			<rect x="242.5" y="147.1" class="st7" width="196.1" height="15.5"/>
		</g>
	</g>
	<g>
		<g>
			<path class="st3" d="M466.9,50.4H270.8c-17.8,0-32.3,14.5-32.3,32.3v79.9c0,2.2,1.8,4,4,4h0c2.2,0,4-1.8,4-4c0-0.1,0-0.1,0-0.2
				V82.7c0-13.4,10.9-24.3,24.3-24.3h174.8c-6.8,5.9-11,14.6-11,24.3v36.9c0,0.2,0,0.4,0,0.6v41.9c0,0.2,0,0.4,0,0.6v0.6
				c0,2.2,1.8,4,4,4c2.2,0,4-1.8,4-4v-0.1c0-0.2,0-0.4,0-0.6v-43c0-0.2,0-0.4,0-0.6V82.7c0-13.4,10.9-24.3,24.3-24.3
				c2.2,0,4-1.8,4-4C470.9,52.2,469.1,50.4,466.9,50.4z"/>
		</g>
	</g>
	<g>
		<g>
			<path class="st5" d="M368.4,266.1l-195.9,1.4v192.3h132.9c-21.1,0-38.2,17.1-38.2,38.2v7.3c0,21.1,17.1,38.2,38.2,38.2h24.9
				c21.1,0,38.2-17.1,38.2-38.2L368.4,266.1L368.4,266.1z"/>
		</g>
	</g>
	<g>
	</g>
	<g>
		<g>
			<path class="st6" d="M368.4,289v-22.9H172.4v193.7h132.9c-15.7,0-29.1,9.4-35,22.9l-2.4,30.4c3.6,17.4,19,30.4,37.4,30.4h24.9
				c21.1,0,38.2-17.1,38.2-38.2L368.4,289L368.4,289z"/>
		</g>
	</g>
	<g>
		<g>
			<rect x="172.5" y="264.6" class="st4" width="195.4" height="72.5"/>
		</g>
	</g>
	<g>
		<g>
			<path class="st1" d="M305.3,459.8c-21.1,0-38.2,17.1-38.2,38.2v7.3c0,21.1,17.1,38.2,38.2,38.2h24.9c19,0,34.8-13.9,37.7-32.1
				v-51.6H305.3z"/>
		</g>
	</g>
	<g>
		<g>
			<polygon class="st1" points="334.6,343.8 283,395.5 272.7,385.2 230.1,427.7 172.4,427.7 172.4,462.1 364.5,462.1 364.5,373.7 
							"/>
		</g>
	</g>
	<g>
		<g>
			<polygon class="st2" points="334.6,343.8 283,395.5 272.7,385.2 230.1,427.7 172.4,427.7 172.4,445.1 230.1,445.1 272.7,402.6 
				283,412.9 334.6,361.2 364.5,391.1 364.5,373.7 			"/>
		</g>
	</g>
	<g>
		<g>
			<path class="st2" d="M305.3,459.8c-21.1,0-38.2,17.1-38.2,38.2v7.3c0,21.1,17.1,38.2,38.2,38.2h24.9c13.3,0,25-6.8,31.9-17.2
				L305.3,459.8z"/>
		</g>
	</g>
	<g>
		<g>
			<path class="st7" d="M267.1,505.4v-7.3c0-21.1,17.1-38.2,38.2-38.2H129.5c-21.1,0-38.2,17.1-38.2,38.2v7.3
				c0,21.1,17.1,38.2,38.2,38.2h175.8C284.2,543.6,267.1,526.5,267.1,505.4z"/>
		</g>
	</g>
	<g>
		<g>
			<path class="st6" d="M129.5,459.8c-21.1,0-38.2,17.1-38.2,38.2v7.3c0,19.8,15,36,34.3,38c1.3,0.1,2.7,0.2,4,0.2
				c23.6,0,42.8-19.2,42.8-42.8v-41H129.5z"/>
		</g>
	</g>
	<g>
		<g>
			<path class="st3" d="M305.3,539.6c-18.9,0-34.2-15.4-34.2-34.2v-7.3c0-18.9,15.4-34.2,34.2-34.2c2.2,0,4-1.8,4-4c0-2.2-1.8-4-4-4
				H129.5c-23.3,0-42.2,18.9-42.2,42.2v7.3c0,23.3,18.9,42.2,42.2,42.2h175.8c2.2,0,4-1.8,4-4C309.3,541.4,307.5,539.6,305.3,539.6z
				 M129.5,539.6c-18.9,0-34.2-15.4-34.2-34.2v-7.3c0-18.9,15.3-34.2,34.2-34.2h151.1c-10.6,7.7-17.5,20.2-17.5,34.2v7.3
				c0,14.1,6.9,26.5,17.5,34.2H129.5z"/>
		</g>
	</g>
	<g>
		<g>
			<path class="st3" d="M368.4,262.1c-2.2,0-4,1.8-4,4c0,0.2,0,0.3,0,0.5v238.8c0,18.9-15.3,34.2-34.2,34.2h-24.9
				c-18.9,0-34.2-15.4-34.2-34.2v-7.3c0-18.9,15.4-34.2,34.2-34.2c2.2,0,4-1.8,4-4c0-2.2-1.8-4-4-4H176.4V267.5c0-2.2-1.8-4-4-4
				s-4,1.8-4,4v192.3c0,2.2,1.8,4,4,4h108.2c-10.6,7.7-17.5,20.2-17.5,34.2v7.3c0,23.3,18.9,42.2,42.2,42.2h24.9
				c23.3,0,42.2-18.9,42.2-42.2V266.1C372.4,263.9,370.6,262.1,368.4,262.1z"/>
		</g>
	</g>
	<g>
		<g>
			<path class="st3" d="M420.7,159.2H120.1c-23.2,0-42.1,18.9-42.1,42.1v97.8c0,23.2,18.9,42.1,42.1,42.1h52.4c2.2,0,4-1.8,4-4
				v-67.5h187.8v67.5c0,2.2,1.8,4,4,4h52.4c23.2,0,42.1-18.9,42.1-42.1v-97.8C462.8,178.1,443.9,159.2,420.7,159.2z M454.8,299.1
				c0,18.8-15.3,34.1-34.1,34.1h-48.4v-67.5c0-2.2-1.8-4-4-4H172.5c-2.2,0-4,1.8-4,4v67.5h-48.4c-18.8,0-34.1-15.3-34.1-34.1v-97.8
				c0-18.8,15.3-34.1,34.1-34.1h300.6c18.8,0,34.1,15.3,34.1,34.1V299.1z"/>
		</g>
	</g>
	<g>
		<g>
			<path class="st3" d="M479.9,159.2h-59.2c-2.2,0-4,1.8-4,4c0,2.2,1.8,4,4,4c18.8,0,34.1,15.3,34.1,34.1v97.8
				c0,16.5-11.8,30.6-28,33.5c-1.9,0.3-3.3,2-3.3,3.9v0.6c0,2.2,1.8,4,4,4h52.4c23.2,0,42.1-18.9,42.1-42.1v-97.8
				C521.9,178.1,503.1,159.2,479.9,159.2z M513.9,299.1c0,18.8-15.3,34.1-34.1,34.1h-34.5c10.6-7.7,17.4-20.2,17.4-34.1v-97.8
				c0-14-6.9-26.4-17.4-34.1h34.5c18.8,0,34.1,15.3,34.1,34.1V299.1z"/>
		</g>
	</g>
	<g>
		<g>
			<path class="st3" d="M108.4,261.6h-4.1c-2.2,0-4,1.8-4,4v4.1c0,2.2,1.8,4,4,4h4.1c2.2,0,4-1.8,4-4v-4.1
				C112.4,263.4,110.6,261.6,108.4,261.6z"/>
		</g>
	</g>
	<g>
		<g>
			<path class="st3" d="M108.4,281.4h-4.1c-2.2,0-4,1.8-4,4v4.1c0,2.2,1.8,4,4,4h4.1c2.2,0,4-1.8,4-4v-4.1
				C112.4,283.2,110.6,281.4,108.4,281.4z"/>
		</g>
	</g>
	<g>
		<g>
			<path class="st3" d="M108.4,301.1h-4.1c-2.2,0-4,1.8-4,4v4.1c0,2.2,1.8,4,4,4h4.1c2.2,0,4-1.8,4-4v-4.1
				C112.4,302.9,110.6,301.1,108.4,301.1z"/>
		</g>
	</g>
	<g>
		<g>
			<path class="st3" d="M428.6,218.5H112.2c-1.1,0-2,0.9-2,2s0.9,2,2,2h316.4c1.1,0,2-0.9,2-2S429.7,218.5,428.6,218.5z"/>
		</g>
	</g>
	<g>
		<g>
			<path class="st3" d="M428.6,230.7H112.2c-1.1,0-2,0.9-2,2s0.9,2,2,2h316.4c1.1,0,2-0.9,2-2S429.7,230.7,428.6,230.7z"/>
		</g>
	</g>
	<g>
		<g>
			<path class="st3" d="M428.6,242.8H112.2c-1.1,0-2,0.9-2,2c0,1.1,0.9,2,2,2h316.4c1.1,0,2-0.9,2-2
				C430.6,243.7,429.7,242.8,428.6,242.8z"/>
		</g>
	</g>
	<g>
		<g>
			<path class="st0" d="M377.1,113.1c-7.2-14.3-21.6-23.2-37.5-23.2c-15.9,0-30.3,8.9-37.5,23.2l-0.5,0.9l0.5,0.9
				c7.2,14.3,21.6,23.2,37.5,23.2c15.9,0,30.3-8.9,37.5-23.2l0.5-0.9L377.1,113.1z M339.6,134.1c-14.1,0-26.8-7.7-33.5-20.1
				c6.7-12.4,19.4-20.1,33.5-20.1c14.1,0,26.8,7.7,33.5,20.1C366.4,126.4,353.6,134.1,339.6,134.1z"/>
		</g>
	</g>
	<g>
		<g>
			<path class="st0" d="M339.6,89.9c-13.3,0-24.1,10.8-24.1,24.1c0,13.3,10.8,24.1,24.1,24.1c13.3,0,24.1-10.8,24.1-24.1
				C363.6,100.7,352.8,89.9,339.6,89.9z M339.6,134.1c-11.1,0-20.1-9-20.1-20.1c0-11.1,9-20.1,20.1-20.1c11.1,0,20.1,9,20.1,20.1
				C359.6,125.1,350.6,134.1,339.6,134.1z"/>
		</g>
	</g>
	<g>
		<g>
			<path class="st0" d="M339.6,101.4c-6.9,0-12.6,5.6-12.6,12.6c0,6.9,5.6,12.6,12.6,12.6c6.9,0,12.6-5.6,12.6-12.6
				C352.1,107.1,346.5,101.4,339.6,101.4z M339.6,122.6c-4.7,0-8.6-3.9-8.6-8.6c0-4.7,3.9-8.6,8.6-8.6c4.7,0,8.6,3.9,8.6,8.6
				C348.1,118.7,344.3,122.6,339.6,122.6z"/>
		</g>
	</g>
	<g>
		<g>
			<path class="st0" d="M339.6,109.8c-2.3,0-4.2,1.9-4.2,4.2c0,2.3,1.9,4.2,4.2,4.2c2.3,0,4.2-1.9,4.2-4.2
				C343.7,111.7,341.9,109.8,339.6,109.8z M339.4,114c0-0.1,0.1-0.2,0.2-0.2c0.1,0,0.2,0.1,0.2,0.2
				C339.7,114.2,339.4,114.2,339.4,114z"/>
		</g>
	</g>
	<g>
		<g>
			<rect x="337.6" y="79.2" class="st0" width="4" height="4.7"/>
		</g>
	</g>
	<g>
		<g>
			<rect x="337.6" y="144.1" class="st0" width="4" height="4.7"/>
		</g>
	</g>
	<g>
		<g>
			
				<rect x="321.3" y="83.6" transform="matrix(0.8663 -0.4996 0.4996 0.8663 0.3218 173.0098)" class="st0" width="4" height="4.7"/>
		</g>
	</g>
	<g>
		<g>
			
				<rect x="353.8" y="139.8" transform="matrix(0.8657 -0.5005 0.5005 0.8657 -23.3461 197.136)" class="st0" width="4" height="4.7"/>
		</g>
	</g>
	<g>
		<g>
			
				<rect x="321" y="140.1" transform="matrix(0.4995 -0.8663 0.8663 0.4995 38.7335 351.2149)" class="st0" width="4.7" height="4"/>
		</g>
	</g>
	<g>
		<g>
			<rect x="353.4" y="83.9" transform="matrix(0.5 -0.866 0.866 0.5 103.4981 351.0577)" class="st0" width="4.7" height="4"/>
		</g>
	</g>
	<g>
		<g>
			<path class="st3" d="M292.5,394.7l-17-17c-1.6-1.6-4.1-1.6-5.7,0l-43.7,43.7h-53.7c-2.2,0-4,1.8-4,4s1.8,4,4,4h55.3
				c1.1,0,2.1-0.4,2.8-1.2l42.1-42.1l14.2,14.2c1.6,1.6,4.1,1.6,5.7,0C294,398.8,294,396.2,292.5,394.7z"/>
		</g>
	</g>
	<g>
		<g>
			<polygon class="st1" points="404.7,391.2 404.7,417.9 497.3,442.5 497.3,366.6 			"/>
		</g>
	</g>
	<g>
		<g>
			<rect x="497.3" y="359" class="st4" width="20.6" height="91.2"/>
		</g>
	</g>
	<g>
	</g>
	<g>
	</g>
	<g>
	</g>
	<g>
		<g>
			<path class="st3" d="M498.4,438.6l-89.6-23.8v-20.5l89.6-23.8c2.1-0.6,3.4-2.8,2.8-4.9c-0.6-2.1-2.8-3.4-4.9-2.8l-92.6,24.6
				c-1.8,0.5-3,2.1-3,3.9v26.7c0,1.8,1.2,3.4,3,3.9l92.6,24.6c0.3,0.1,0.7,0.1,1,0.1c1.8,0,3.4-1.2,3.9-3
				C501.8,441.4,500.5,439.2,498.4,438.6z"/>
		</g>
	</g>
	<g>
		<g>
			<path class="st3" d="M518,355l-20.6,0c0,0,0,0,0,0c-1.1,0-2.1,0.4-2.8,1.2c-0.8,0.8-1.2,1.8-1.2,2.8v91.2c0,2.2,1.8,4,4,4l20.6,0
				h0c1.1,0,2.1-0.4,2.8-1.2c0.8-0.8,1.2-1.8,1.2-2.8V359C521.9,356.8,520.2,355,518,355z M513.9,446.2l-12.6,0V363l12.6,0V446.2z"
				/>
		</g>
	</g>
	<g>
		<g>
			<path class="st3" d="M404.7,381c-2.2,0-4,1.8-4,4v39.1c0,2.2,1.8,4,4,4c2.2,0,4-1.8,4-4V385C408.7,382.8,406.9,381,404.7,381z"/>
		</g>
	</g>
	<g>
		<g>
			<path class="st3" d="M387.4,381c-2.2,0-4,1.8-4,4v39.1c0,2.2,1.8,4,4,4c2.2,0,4-1.8,4-4V385C391.4,382.8,389.6,381,387.4,381z"/>
		</g>
	</g>
	<g>
		<g>
			<path class="st3" d="M446.9,425.6L446.9,425.6c-2.2,0-4,1.8-4,4c0,4.9-4,8.9-8.9,8.9c-4.9,0-8.9-4-8.9-8.9v-6.7c0-2.2-1.8-4-4-4
				c-2.2,0-4,1.8-4,4v6.7c0,9.3,7.6,16.9,16.9,16.9c9.3,0,16.9-7.6,16.9-16.9C450.9,427.4,449.2,425.6,446.9,425.6z"/>
		</g>
	</g>
	<g>
		<g>
			<path class="st3" d="M446.9,376c-2.2,0-4,1.8-4,4v49.6c0,2.2,1.8,4,4,4s4-1.8,4-4V380C450.9,377.8,449.2,376,446.9,376z"/>
		</g>
	</g>
	<g>
		<g>
			<polygon class="st1" points="102.7,62.1 102.7,137.9 195.3,113.3 195.3,86.6 			"/>
		</g>
	</g>
	<g>
		<g>
			<rect x="82.1" y="54.4" class="st4" width="20.6" height="91.2"/>
		</g>
	</g>
	<g>
	</g>
	<g>
	</g>
	<g>
	</g>
	<g>
		<g>
			<path class="st3" d="M196.3,82.8l-92.6-24.6c-2.1-0.6-4.3,0.7-4.9,2.8c-0.6,2.1,0.7,4.3,2.8,4.9l89.6,23.8v20.5L101.6,134
				c-2.1,0.6-3.4,2.8-2.8,4.9c0.5,1.8,2.1,3,3.9,3c0.3,0,0.7,0,1-0.1l92.6-24.6c1.8-0.5,3-2.1,3-3.9V86.6
				C199.3,84.8,198.1,83.2,196.3,82.8z"/>
		</g>
	</g>
	<g>
		<g>
			<path class="st3" d="M105.5,51.6c-0.8-0.8-1.8-1.2-2.8-1.2h0l-20.6,0c-2.2,0-4,1.8-4,4v91.2c0,1.1,0.4,2.1,1.2,2.8
				c0.8,0.8,1.8,1.2,2.8,1.2l20.6,0c2.2,0,4-1.8,4-4V54.4C106.7,53.3,106.3,52.3,105.5,51.6z M98.7,141.6l-12.6,0V58.4l12.6,0V141.6
				z"/>
		</g>
	</g>
	<g>
		<g>
			<path class="st3" d="M195.3,76.4c-2.2,0-4,1.8-4,4v39.1c0,2.2,1.8,4,4,4s4-1.8,4-4V80.4C199.3,78.2,197.5,76.4,195.3,76.4z"/>
		</g>
	</g>
	<g>
		<g>
			<path class="st3" d="M212.6,76.4c-2.2,0-4,1.8-4,4v39.1c0,2.2,1.8,4,4,4s4-1.8,4-4V80.4C216.6,78.2,214.8,76.4,212.6,76.4z"/>
		</g>
	</g>
	<g>
		<g>
			<path class="st3" d="M178.8,114.3c-2.2,0-4,1.8-4,4v6.7c0,4.9-4,8.9-8.9,8.9c-4.9,0-8.9-4-8.9-8.9c0-2.2-1.8-4-4-4c0,0,0,0,0,0
				c-2.2,0-4,1.8-4,4c0,9.3,7.6,16.9,16.9,16.9c9.3,0,16.9-7.6,16.9-16.9v-6.7C182.8,116.1,181,114.3,178.8,114.3z"/>
		</g>
	</g>
	<g>
		<g>
			<path class="st3" d="M153.1,71.4c-2.2,0-4,1.8-4,4V125c0,2.2,1.8,4,4,4c2.2,0,4-1.8,4-4V75.4C157.1,73.2,155.3,71.4,153.1,71.4z"
				/>
		</g>
	</g>
	<g>
		<g>
			<path class="st5" d="M201.1,361c-1.3,0-2.5,0.1-3.7,0.3c-5.2-4.7-12.2-7.6-19.8-7.6c-12,0-22.3,7.2-26.9,17.5
				c-1.3-0.5-2.7-0.7-4.1-0.7c-7,0-12.6,5.7-12.6,12.6c0,0.7,0.6,1.3,1.3,1.3h86.5c0.7,0,1.3-0.6,1.3-1.3
				C223.2,371,213.3,361,201.1,361z"/>
		</g>
	</g>
	<g>
		<g>
			<path class="st7" d="M198.1,367.6c-1.1,0-2.2,0.1-3.2,0.3c-4.5-4.1-10.6-6.6-17.2-6.6c-10.4,0-19.4,6.3-23.4,15.2
				c-1.1-0.4-2.3-0.6-3.6-0.6c-5.3,0-9.7,3.7-10.7,8.7h77.1C216,375,207.9,367.6,198.1,367.6z"/>
		</g>
	</g>
	<g>
		<g>
			<path class="st3" d="M201.1,359c-1,0-2,0.1-3.1,0.2c-5.7-4.9-12.9-7.5-20.4-7.5c-11.8,0-22.6,6.7-28,17.1c-1-0.2-2-0.3-3-0.3
				c-8.1,0-14.6,6.6-14.6,14.6c0,1.8,1.5,3.3,3.3,3.3h86.5c1.8,0,3.3-1.5,3.3-3.3C225.2,369.9,214.4,359,201.1,359z M136,382.5
				c0.3-5.6,5-10,10.6-10c1.2,0,2.3,0.2,3.5,0.6c1,0.3,2.1-0.1,2.5-1.1c4.4-9.9,14.3-16.3,25.1-16.3c6.8,0,13.4,2.5,18.4,7.1
				c0.5,0.4,1.1,0.6,1.7,0.5c1.1-0.2,2.3-0.3,3.4-0.3c10.9,0,19.8,8.7,20.1,19.5H136z"/>
		</g>
	</g>
	<g>
		<g>
			<path class="st5" d="M274.8,335.1c-1.2,0-2.4,0.2-3.4,0.6c-3.8-8.6-12.4-14.6-22.4-14.6c-6.3,0-12.1,2.4-16.4,6.4
				c-1-0.2-2-0.3-3.1-0.3c-10.1,0-18.4,8.3-18.4,18.4c0,0.6,0.5,1.1,1.1,1.1h72c0.6,0,1.1-0.5,1.1-1.1
				C285.4,339.8,280.7,335.1,274.8,335.1z"/>
		</g>
	</g>
	<g>
		<g>
			<path class="st7" d="M271.4,339.5c-1,0-2.1,0.2-3,0.5c-3.3-7.4-10.8-12.7-19.5-12.7c-5.5,0-10.5,2.1-14.3,5.5
				c-0.9-0.1-1.8-0.2-2.7-0.2c-8.2,0-14.9,6.2-15.9,14.1h64.2C279.4,342.6,275.7,339.5,271.4,339.5z"/>
		</g>
	</g>
	<g>
		<g>
			<path class="st3" d="M274.8,333.1c-0.8,0-1.6,0.1-2.4,0.2c-4.6-8.7-13.6-14.2-23.5-14.2c-6.3,0-12.3,2.2-17.1,6.2
				c-0.8-0.1-1.6-0.2-2.5-0.2c-11.3,0-20.4,9.2-20.4,20.4c0,1.7,1.4,3.1,3.1,3.1h72c1.7,0,3.1-1.4,3.1-3.1
				C287.4,338.7,281.8,333.1,274.8,333.1z M213.1,344.7c0.5-8.6,7.6-15.5,16.4-15.5c0.9,0,1.8,0.1,2.7,0.2c0.6,0.1,1.2-0.1,1.7-0.5
				c4.2-3.8,9.5-5.8,15.1-5.8c8.9,0,16.9,5.2,20.6,13.4c0.4,0.9,1.5,1.4,2.5,1.1c0.9-0.3,1.8-0.5,2.8-0.5c4.4,0,8,3.4,8.5,7.6H213.1
				z"/>
		</g>
	</g>
	<g>
		<g>
			<path class="st3" d="M371.7,373.9c0.4-1.4,0.1-2.9-1-4l-33.5-33.5c-1.6-1.6-4.1-1.6-5.7,0L280,387.9c-1.6,1.6-1.6,4.1,0,5.7
				c0.8,0.8,1.8,1.2,2.8,1.2c1,0,2-0.4,2.8-1.2l47.5-47.5l31.9,31.9c1.6,1.6,4.1,1.6,5.7,0C371.8,376.8,372.1,375.3,371.7,373.9z"/>
		</g>
	</g>
	<g>
		<g>
			<path class="st3" d="M275.5,377.7c-1.6-1.6-4.1-1.6-5.7,0l-44.9,44.9c-1.6,1.6-1.6,4.1,0,5.7c0.8,0.8,1.8,1.2,2.8,1.2
				c1,0,2-0.4,2.8-1.2l44.9-44.9C277.1,381.8,277.1,379.3,275.5,377.7z"/>
		</g>
	</g>
	<g>
		<g>
			<polygon class="st0" points="404,450.5 397.3,457.2 400.2,460 404,456.2 407.8,460 410.6,457.2 			"/>
		</g>
	</g>
	<g>
		<g>
			<rect x="402" y="454.9" class="st0" width="4" height="15.3"/>
		</g>
	</g>
	<g>
		<g>
			<polygon class="st0" points="404,481.6 397.3,488.2 400.2,491 404,487.2 407.8,491 410.6,488.2 			"/>
		</g>
	</g>
	<g>
		<g>
			<rect x="402" y="485.9" class="st0" width="4" height="15.3"/>
		</g>
	</g>
	<g>
		<g>
			<polygon class="st0" points="404,512.6 397.3,519.3 400.2,522.1 404,518.3 407.8,522.1 410.6,519.3 			"/>
		</g>
	</g>
	<g>
		<g>
			<rect x="402" y="517" class="st0" width="4" height="15.3"/>
		</g>
	</g>
	<g>
		<g>
			<polygon class="st0" points="428.8,450.5 422.2,457.2 425,460 428.8,456.2 432.6,460 435.5,457.2 			"/>
		</g>
	</g>
	<g>
		<g>
			<rect x="426.8" y="454.9" class="st0" width="4" height="15.3"/>
		</g>
	</g>
	<g>
		<g>
			<polygon class="st0" points="428.8,481.6 422.2,488.2 425,491 428.8,487.2 432.6,491 435.5,488.2 			"/>
		</g>
	</g>
	<g>
		<g>
			<rect x="426.8" y="485.9" class="st0" width="4" height="15.3"/>
		</g>
	</g>
	<g>
		<g>
			<polygon class="st0" points="428.8,512.6 422.2,519.3 425,522.1 428.8,518.3 432.6,522.1 435.5,519.3 			"/>
		</g>
	</g>
	<g>
		<g>
			<rect x="426.8" y="517" class="st0" width="4" height="15.3"/>
		</g>
	</g>
	<g>
		<g>
			<polygon class="st0" points="453.7,450.5 447,457.2 449.8,460 453.7,456.2 457.5,460 460.3,457.2 			"/>
		</g>
	</g>
	<g>
		<g>
			<rect x="451.7" y="454.9" class="st0" width="4" height="15.3"/>
		</g>
	</g>
	<g>
		<g>
			<polygon class="st0" points="453.7,481.6 447,488.2 449.8,491 453.7,487.2 457.5,491 460.3,488.2 			"/>
		</g>
	</g>
	<g>
		<g>
			<rect x="451.7" y="485.9" class="st0" width="4" height="15.3"/>
		</g>
	</g>
	<g>
		<g>
			<polygon class="st0" points="453.7,512.6 447,519.3 449.8,522.1 453.7,518.3 457.5,522.1 460.3,519.3 			"/>
		</g>
	</g>
	<g>
		<g>
			<rect x="451.7" y="517" class="st0" width="4" height="15.3"/>
		</g>
	</g>
	<g>
		<g>
			<path class="st0" d="M295.2,284.2c-1.7,0-3.1,1.4-3.1,3.1c0,1.7,1.4,3.1,3.1,3.1c1.7,0,3.1-1.4,3.1-3.1
				C298.3,285.6,296.9,284.2,295.2,284.2z M295.2,288.2c-0.5,0-0.9-0.4-0.9-0.9c0-0.5,0.4-0.9,0.9-0.9c0.5,0,0.9,0.4,0.9,0.9
				C296.2,287.8,295.7,288.2,295.2,288.2z"/>
		</g>
	</g>
	<g>
		<g>
			<rect x="300.7" y="285.3" class="st0" width="24.7" height="4"/>
		</g>
	</g>
	<g>
		<g>
			<path class="st0" d="M295.2,297c-1.7,0-3.1,1.4-3.1,3.1c0,1.7,1.4,3.1,3.1,3.1c1.7,0,3.1-1.4,3.1-3.1
				C298.3,298.4,296.9,297,295.2,297z M295.2,301c-0.5,0-0.9-0.4-0.9-0.9c0-0.5,0.4-0.9,0.9-0.9c0.5,0,0.9,0.4,0.9,0.9
				C296.2,300.6,295.7,301,295.2,301z"/>
		</g>
	</g>
	<g>
		<g>
			<rect x="300.7" y="298.1" class="st0" width="24.7" height="4"/>
		</g>
	</g>
	<g>
		<g>
			<path class="st0" d="M295.2,309.9c-1.7,0-3.1,1.4-3.1,3.1c0,1.7,1.4,3.1,3.1,3.1c1.7,0,3.1-1.4,3.1-3.1
				C298.3,311.3,296.9,309.9,295.2,309.9z M295.2,313.9c-0.5,0-0.9-0.4-0.9-0.9c0-0.5,0.4-0.9,0.9-0.9c0.5,0,0.9,0.4,0.9,0.9
				C296.2,313.5,295.7,313.9,295.2,313.9z"/>
		</g>
	</g>
	<g>
		<g>
			<rect x="300.7" y="310.9" class="st0" width="24.7" height="4"/>
		</g>
	</g>
	<g>
		<g>
			<path class="st0" d="M390.2,284.2c-1.7,0-3.1,1.4-3.1,3.1c0,1.7,1.4,3.1,3.1,3.1c1.7,0,3.1-1.4,3.1-3.1
				C393.3,285.6,391.9,284.2,390.2,284.2z M390.2,288.2c-0.5,0-0.9-0.4-0.9-0.9c0-0.5,0.4-0.9,0.9-0.9c0.5,0,0.9,0.4,0.9,0.9
				C391.1,287.8,390.7,288.2,390.2,288.2z"/>
		</g>
	</g>
	<g>
		<g>
			<rect x="395.6" y="285.3" class="st0" width="24.7" height="4"/>
		</g>
	</g>
	<g>
		<g>
			<path class="st0" d="M390.2,297c-1.7,0-3.1,1.4-3.1,3.1c0,1.7,1.4,3.1,3.1,3.1c1.7,0,3.1-1.4,3.1-3.1
				C393.3,298.4,391.9,297,390.2,297z M390.2,301c-0.5,0-0.9-0.4-0.9-0.9c0-0.5,0.4-0.9,0.9-0.9c0.5,0,0.9,0.4,0.9,0.9
				C391.1,300.6,390.7,301,390.2,301z"/>
		</g>
	</g>
	<g>
		<g>
			<rect x="395.6" y="298.1" class="st0" width="24.7" height="4"/>
		</g>
	</g>
	<g>
		<g>
			<path class="st0" d="M390.2,309.9c-1.7,0-3.1,1.4-3.1,3.1c0,1.7,1.4,3.1,3.1,3.1c1.7,0,3.1-1.4,3.1-3.1
				C393.3,311.3,391.9,309.9,390.2,309.9z M390.2,313.9c-0.5,0-0.9-0.4-0.9-0.9c0-0.5,0.4-0.9,0.9-0.9c0.5,0,0.9,0.4,0.9,0.9
				C391.1,313.5,390.7,313.9,390.2,313.9z"/>
		</g>
	</g>
	<g>
		<g>
			<rect x="395.6" y="310.9" class="st0" width="24.7" height="4"/>
		</g>
	</g>
	<g>
		<g>
			<path class="st0" d="M455.5,119.7c-1.7,0-3.1,1.4-3.1,3.1c0,1.7,1.4,3.1,3.1,3.1c1.7,0,3.1-1.4,3.1-3.1
				C458.6,121,457.2,119.7,455.5,119.7z M455.5,123.7c-0.5,0-0.9-0.4-0.9-0.9c0-0.5,0.4-0.9,0.9-0.9c0.5,0,0.9,0.4,0.9,0.9
				C456.5,123.3,456,123.7,455.5,123.7z"/>
		</g>
	</g>
	<g>
		<g>
			<rect x="461" y="120.7" class="st0" width="24.7" height="4"/>
		</g>
	</g>
	<g>
		<g>
			<path class="st0" d="M455.5,132.5c-1.7,0-3.1,1.4-3.1,3.1c0,1.7,1.4,3.1,3.1,3.1c1.7,0,3.1-1.4,3.1-3.1
				C458.6,133.9,457.2,132.5,455.5,132.5z M455.5,136.5c-0.5,0-0.9-0.4-0.9-0.9c0-0.5,0.4-0.9,0.9-0.9c0.5,0,0.9,0.4,0.9,0.9
				C456.5,136.1,456,136.5,455.5,136.5z"/>
		</g>
	</g>
	<g>
		<g>
			<rect x="461" y="133.6" class="st0" width="24.7" height="4"/>
		</g>
	</g>
	<g>
		<g>
			<path class="st0" d="M455.5,145.3c-1.7,0-3.1,1.4-3.1,3.1c0,1.7,1.4,3.1,3.1,3.1c1.7,0,3.1-1.4,3.1-3.1
				C458.6,146.7,457.2,145.3,455.5,145.3z M455.5,149.3c-0.5,0-0.9-0.4-0.9-0.9c0-0.5,0.4-0.9,0.9-0.9c0.5,0,0.9,0.4,0.9,0.9
				C456.5,148.9,456,149.3,455.5,149.3z"/>
		</g>
	</g>
	<g>
		<g>
			<rect x="461" y="146.4" class="st0" width="24.7" height="4"/>
		</g>
	</g>
	<g>
		<g>
			<polygon class="st0" points="144.1,269.1 134,275 134,280.5 144.1,274.5 154.3,280.5 154.3,275 			"/>
		</g>
	</g>
	<g>
		<g>
			<polygon class="st0" points="144.1,279.7 134,285.6 134,291.1 144.1,285.1 154.3,291.1 154.3,285.6 			"/>
		</g>
	</g>
	<g>
		<g>
			<polygon class="st0" points="144.1,290.3 134,296.2 134,301.7 144.1,295.7 154.3,301.7 154.3,296.2 			"/>
		</g>
	</g>
</g>
</svg>
