<?xml version="1.0" encoding="utf-8"?>
<!-- Generator: Adobe Illustrator 23.0.3, SVG Export Plug-In . SVG Version: 6.00 Build 0)  -->
<svg version="1.1" id="Layer_1" xmlns="http://www.w3.org/2000/svg" xmlns:xlink="http://www.w3.org/1999/xlink" x="0px" y="0px"
	 viewBox="0 0 600 600" style="enable-background:new 0 0 600 600;" xml:space="preserve">
<style type="text/css">
	.st0{fill:#DEF4FC;}
	.st1{fill:#FFFFFF;}
	.st2{fill:#E9F6FF;}
	.st3{fill:#AFD8F9;}
	.st4{fill:#5BA1E1;}
	.st5{fill:#288DE8;}
	.st6{fill:#2481D7;}
	.st7{fill:#C8DFF5;}
	.st8{fill:#6AB0E5;}
</style>
<g>
	<g>
		<g>
			<path class="st0" d="M300,71.2L300,71.2l0,227.8l227.8,0C527.9,173.2,425.8,71.1,300,71.2z"/>
		</g>
	</g>
	<g>
		<g>
			<path class="st0" d="M300,299l-227.8,0c0,125.9,102,227.9,227.8,227.8L300,299z"/>
		</g>
	</g>
	<g>
		<g>
			<rect x="167.1" y="457.3" class="st1" width="87.2" height="87.2"/>
		</g>
	</g>
	<g>
		<g>
			<polygon class="st0" points="167.1,544.5 254.2,544.5 254.2,457.3 			"/>
		</g>
	</g>
	<g>
		<g>
			<polygon class="st2" points="167.1,457.3 254.2,544.5 254.2,457.3 			"/>
		</g>
	</g>
	<g>
		<g>
			<polygon class="st3" points="210.7,500.9 254.2,544.5 254.2,457.3 			"/>
		</g>
	</g>
	<g>
		<g>
			<rect x="196.1" y="457.3" class="st4" width="29.1" height="31"/>
		</g>
	</g>
	<g>
		<g>
			<polygon class="st5" points="196.1,457.3 225.2,488.3 225.2,457.3 			"/>
		</g>
	</g>
	<g>
		<g>
			<path class="st6" d="M225.2,454.3h-29.1c-1.7,0-3,1.3-3,3v31c0,1.7,1.3,3,3,3h29.1c1.7,0,3-1.3,3-3v-31
				C228.2,455.7,226.9,454.3,225.2,454.3z M222.2,485.3h-23.1v-25h23.1V485.3z"/>
		</g>
	</g>
	<g>
		<g>
			<path class="st6" d="M254.2,453.3h-87.2c-2.2,0-4,1.8-4,4v87.2c0,2.2,1.8,4,4,4h87.2c2.2,0,4-1.8,4-4v-87.2
				C258.2,455.1,256.5,453.3,254.2,453.3z M250.2,540.5h-79.2v-79.2h79.2V540.5z"/>
		</g>
	</g>
	<g>
		<g>
			<rect x="345.8" y="457.3" class="st1" width="87.2" height="87.2"/>
		</g>
	</g>
	<g>
		<g>
			<polygon class="st0" points="345.8,544.5 432.9,544.5 432.9,457.3 			"/>
		</g>
	</g>
	<g>
		<g>
			<polygon class="st2" points="345.8,457.3 432.9,544.5 432.9,457.3 			"/>
		</g>
	</g>
	<g>
		<g>
			<polygon class="st3" points="389.3,500.9 432.9,544.5 432.9,457.3 			"/>
		</g>
	</g>
	<g>
		<g>
			<rect x="374.8" y="457.3" class="st4" width="29.1" height="31"/>
		</g>
	</g>
	<g>
		<g>
			<polygon class="st5" points="374.8,457.3 403.9,488.3 403.9,457.3 			"/>
		</g>
	</g>
	<g>
		<g>
			<path class="st6" d="M403.9,454.3h-29.1c-1.7,0-3,1.3-3,3v31c0,1.7,1.3,3,3,3h29.1c1.7,0,3-1.3,3-3v-31
				C406.9,455.7,405.5,454.3,403.9,454.3z M400.9,485.3h-23.1v-25h23.1V485.3z"/>
		</g>
	</g>
	<g>
		<g>
			<path class="st6" d="M432.9,453.3h-87.2c-2.2,0-4,1.8-4,4v87.2c0,2.2,1.8,4,4,4h87.2c2.2,0,4-1.8,4-4v-87.2
				C436.9,455.1,435.1,453.3,432.9,453.3z M428.9,540.5h-79.2v-79.2h79.2V540.5z"/>
		</g>
	</g>
	<g>
		<g>
			<path class="st5" d="M205.5,312.5c8.4,17.6,21.6,32.5,37.9,43c18.8,12.2,33.3,30.3,41.2,51.6h0.1c0,2.1,6.9,3.8,15.4,3.8
				c8.5,0,15.4-1.7,15.4-3.8h0.1c7.9-21.3,22.4-39.4,41.2-51.7c16.3-10.5,29.4-25.4,37.8-43H205.5z"/>
		</g>
	</g>
	<g>
		<g>
			<path class="st6" d="M374.9,214.2c-20.1-4.9-46.7-7.6-74.9-7.6c-28.3,0-54.9,2.7-74.9,7.6c-22.4,5.5-33.7,12.8-33.7,21.9
				c0,9.1,11.3,16.5,33.7,21.9c20.1,4.9,46.7,7.6,74.9,7.6c28.3,0,54.9-2.7,74.9-7.6c22.4-5.5,33.7-12.8,33.7-21.9
				C408.6,227,397.3,219.6,374.9,214.2z M373,250.2c-19.5,4.7-45.4,7.4-73,7.4c-27.6,0-53.6-2.6-73-7.4
				c-21.8-5.3-27.6-11.4-27.6-14.1c0-2.8,5.8-8.8,27.6-14.1c19.5-4.7,45.4-7.4,73-7.4c27.6,0,53.6,2.6,73,7.4
				c21.8,5.3,27.6,11.4,27.6,14.1C400.6,238.8,394.8,244.9,373,250.2z"/>
		</g>
	</g>
	<g>
		<g>
			<path class="st4" d="M300,300.2c-49.6,0-89.7,9.8-89.7,21.9c0,12.1,40.2,21.9,89.7,21.9c49.6,0,89.7-9.8,89.7-21.9
				C389.7,310,349.6,300.2,300,300.2z"/>
		</g>
	</g>
	<g>
		<g>
			<path class="st3" d="M300,290.6c-49.6,0-89.7,9.8-89.7,21.9c0,12.1,40.2,21.9,89.7,21.9c49.6,0,89.7-9.8,89.7-21.9
				C389.7,300.4,349.6,290.6,300,290.6z"/>
		</g>
	</g>
	<g>
		<g>
			<path class="st7" d="M210.3,312.5c0,12.1,40.2,21.9,89.7,21.9c49.6,0,89.7-9.8,89.7-21.9H210.3z"/>
		</g>
	</g>
	<g>
		<g>
			<path class="st6" d="M374.9,214.2c-20.1-4.9-46.7-7.6-74.9-7.6c-28.3,0-54.9,2.7-74.9,7.6c-22.4,5.4-33.7,12.8-33.7,21.9v31.5
				c0,37,18.6,71.1,49.8,91.2c18.1,11.7,32.1,29.4,39.6,49.7c0,0.1,0,0.1,0.1,0.2c1.7,5.4,12.5,6.2,19.2,6.2
				c6.7,0,17.5-0.8,19.2-6.2c0,0,0-0.1,0.1-0.1c7.5-20.3,21.6-38,39.6-49.7c31.2-20.1,49.8-54.2,49.8-91.2v-31.5
				C408.6,227,397.3,219.6,374.9,214.2z M400.6,267.6c0,34.2-17.2,65.8-46.1,84.5c-19.3,12.5-34.3,31.3-42.5,52.9
				c0,0.1-0.1,0.2-0.1,0.3c-1.4,0.6-5.4,1.6-11.9,1.6c-6.5,0-10.5-1-11.9-1.6c0-0.1-0.1-0.1-0.1-0.2c-8.1-21.6-23.2-40.4-42.5-53
				c-28.9-18.7-46.1-50.3-46.1-84.5v-31.5c0-2.8,5.8-8.8,27.6-14.1c19.5-4.7,45.4-7.4,73-7.4c27.6,0,53.6,2.6,73,7.4
				c21.8,5.3,27.6,11.4,27.6,14.1V267.6z"/>
		</g>
	</g>
	<g>
		<g>
			<path class="st6" d="M300,288.6c-44.5,0-91.7,8.4-91.7,23.9c0,15.5,47.3,23.9,91.7,23.9c44.5,0,91.7-8.4,91.7-23.9
				C391.7,297,344.5,288.6,300,288.6z M300,332.3c-51.7,0-87.7-10.5-87.7-19.9c0-9.4,36-19.9,87.7-19.9c51.7,0,87.7,10.5,87.7,19.9
				C387.7,321.9,351.7,332.3,300,332.3z"/>
		</g>
	</g>
	<g>
		<g>
			<path class="st1" d="M300,64.8c-23.2,0-42,18.8-42,42c0,11.8,4.8,22.4,12.6,30c6.7,7.5,10.8,17.3,10.8,28.1h37.2
				c0-10.8,4.1-20.6,10.8-28.1c7.8-7.6,12.6-18.2,12.6-30C342,83.6,323.2,64.8,300,64.8z"/>
		</g>
	</g>
	<g>
		<g>
			<path class="st2" d="M300,64.8c-13.8,0-25.1,18.8-25.1,42c0,11.8,2.9,22.4,7.6,30c4,7.5,6.4,17.3,6.4,28.1h22.2
				c0-10.8,2.4-20.6,6.4-28.1c4.6-7.6,7.5-18.2,7.5-30C325.1,83.6,313.9,64.8,300,64.8z"/>
		</g>
	</g>
	<g>
		<g>
			<path class="st3" d="M281.4,164.9c0-0.2,0-0.4,0-0.6v14.6c0,9.4,7.6,17,17,17h3.1c9.4,0,17-7.6,17-17v-14H281.4z"/>
		</g>
	</g>
	<g>
		<g>
			<path class="st8" d="M289,164.9c0-0.2,0-0.4,0-0.6v14.6c0,9.4,4.5,17,10.1,17h1.8c5.6,0,10.1-7.6,10.1-17v-14H289z"/>
		</g>
	</g>
	<g>
		<g>
			<path class="st6" d="M300,61.8c-24.8,0-45,20.2-45,45c0,12.2,4.8,23.5,13.5,32.1c6.4,7.2,10,16.4,10,26c0,1.7,1.3,3,3,3h37.2
				c1.7,0,3-1.3,3-3c0-9.6,3.5-18.8,10-26c8.7-8.5,13.4-19.9,13.4-32.1C345,82,324.8,61.8,300,61.8z M327.3,134.7
				c0,0-0.1,0.1-0.1,0.1c-6.8,7.5-10.8,17.1-11.5,27.1h-31.4c-0.7-10-4.7-19.5-11.5-27.1c0,0-0.1-0.1-0.1-0.1
				c-7.6-7.4-11.7-17.3-11.7-27.9c0-21.5,17.5-39,39-39c21.5,0,39,17.5,39,39C339,117.4,334.8,127.3,327.3,134.7z"/>
		</g>
	</g>
	<g>
		<g>
			<path class="st6" d="M318.6,161.9h-35.4c-0.5-0.4-1.1-0.6-1.8-0.6c-1.7,0-3,1.3-3,3v14.6c0,11.1,9,20,20,20h3.1
				c11.1,0,20-9,20-20v-14C321.6,163.3,320.3,161.9,318.6,161.9z M315.6,178.9c0,7.7-6.3,14-14,14h-3.1c-7.7,0-14-6.3-14-14v-11
				h31.2V178.9z"/>
		</g>
	</g>
	<g>
		<g>
			<path class="st6" d="M300,117.9c-1.1,0-2,0.9-2,2v38.8c0,1.1,0.9,2,2,2s2-0.9,2-2v-38.8C302,118.8,301.1,117.9,300,117.9z"/>
		</g>
	</g>
	<g>
		<g>
			<path class="st6" d="M301.4,117.5c-0.8-0.8-2-0.8-2.8,0l-7.3,7.3l-7.3-7.3c-0.8-0.8-2-0.8-2.8,0c-0.8,0.8-0.8,2,0,2.8l8.7,8.8
				c0.4,0.4,0.9,0.6,1.4,0.6c0.5,0,1-0.2,1.4-0.6l8.7-8.8C302.2,119.6,302.2,118.3,301.4,117.5z"/>
		</g>
	</g>
	<g>
		<g>
			<path class="st6" d="M318.9,117.5c-0.8-0.8-2-0.8-2.8,0l-7.3,7.3l-7.3-7.3c-0.8-0.8-2-0.8-2.8,0c-0.8,0.8-0.8,2,0,2.8l8.8,8.8
				c0.4,0.4,0.9,0.6,1.4,0.6h0c0.5,0,1-0.2,1.4-0.6l8.7-8.8C319.7,119.6,319.7,118.3,318.9,117.5z"/>
		</g>
	</g>
	<g>
		<g>
			<path class="st6" d="M317,172.6H283c-1.1,0-2,0.9-2,2c0,1.1,0.9,2,2,2H317c1.1,0,2-0.9,2-2C319,173.5,318.1,172.6,317,172.6z"/>
		</g>
	</g>
	<g>
		<g>
			<path class="st6" d="M317,181.2H283c-1.1,0-2,0.9-2,2s0.9,2,2,2H317c1.1,0,2-0.9,2-2S318.1,181.2,317,181.2z"/>
		</g>
	</g>
	<g>
		<g>
			<polygon class="st7" points="56.6,542.4 56.6,443.5 52.6,443.5 52.6,546.4 155.5,546.4 155.5,542.4 			"/>
		</g>
	</g>
	<g>
		<g>
			<path class="st7" d="M54.5,436.8c-2.4,0-4.4,2-4.4,4.4c0,2.4,2,4.4,4.4,4.4c2.4,0,4.4-2,4.4-4.4
				C58.9,438.7,56.9,436.8,54.5,436.8z M54.5,441.5c-0.2,0-0.4-0.2-0.4-0.4c0-0.2,0.2-0.4,0.4-0.4c0.2,0,0.4,0.2,0.4,0.4
				C54.9,441.4,54.7,441.5,54.5,441.5z"/>
		</g>
	</g>
	<g>
		<g>
			<path class="st7" d="M157.9,540.1c-2.4,0-4.4,2-4.4,4.4c0,2.4,2,4.4,4.4,4.4c2.4,0,4.4-2,4.4-4.4
				C162.2,542.1,160.3,540.1,157.9,540.1z M157.9,544.9c-0.2,0-0.4-0.2-0.4-0.4c0-0.2,0.2-0.4,0.4-0.4c0.2,0,0.4,0.2,0.4,0.4
				C158.2,544.7,158.1,544.9,157.9,544.9z"/>
		</g>
	</g>
	<g>
		<g>
			<path class="st7" d="M54.6,488.4v4c28.7,0,52.1,23.4,52.1,52.1h4C110.7,513.5,85.5,488.4,54.6,488.4z"/>
		</g>
	</g>
	<g>
		<g>
			<path class="st7" d="M82.3,514l2.8,2.8l2.8-2.8l-2.8-2.8L82.3,514z M93.6,502.7l2.8,2.8l2.8-2.8l-2.8-2.8L93.6,502.7z
				 M76.6,519.6l2.8,2.8l2.8-2.8l-2.8-2.8L76.6,519.6z M87.9,508.3l2.8,2.8l2.8-2.8l-2.8-2.8L87.9,508.3z M59.6,536.6l2.8,2.8
				l2.8-2.8l-2.8-2.8L59.6,536.6z M54.4,541.9l2.8,2.8l2.4-2.4l-2.8-2.8L54.4,541.9z M65.3,530.9l2.8,2.8l2.8-2.8l-2.8-2.8
				L65.3,530.9z M99.2,497l2.8,2.8l2.8-2.8l-2.8-2.8L99.2,497z M70.9,525.3l2.8,2.8l2.8-2.8l-2.8-2.8L70.9,525.3z M144.5,451.7
				l2.8,2.8l2.8-2.8l-2.8-2.8L144.5,451.7z M138.8,457.4l2.8,2.8l2.8-2.8l-2.8-2.8L138.8,457.4z M153,443.3l-2.8,2.8l2.8,2.8
				l2.8-2.8L153,443.3z M133.2,463.1l2.8,2.8l2.8-2.8l-2.8-2.8L133.2,463.1z M104.9,491.3l2.8,2.8l2.8-2.8l-2.8-2.8L104.9,491.3z
				 M110.5,485.7l2.8,2.8l2.8-2.8l-2.8-2.8L110.5,485.7z M116.2,480l2.8,2.8l2.8-2.8l-2.8-2.8L116.2,480z M121.8,474.4l2.8,2.8
				l2.8-2.8l-2.8-2.8L121.8,474.4z M127.5,468.7l2.8,2.8l2.8-2.8l-2.8-2.8L127.5,468.7z"/>
		</g>
	</g>
	<g>
		<g>
			<polygon class="st7" points="444.5,51.6 444.5,55.6 543.4,55.6 543.4,154.5 547.4,154.5 547.4,51.6 			"/>
		</g>
	</g>
	<g>
		<g>
			<path class="st7" d="M545.5,152.5c-2.4,0-4.4,2-4.4,4.4c0,2.4,2,4.4,4.4,4.4c2.4,0,4.4-2,4.4-4.4
				C549.9,154.4,547.9,152.5,545.5,152.5z M545.5,157.2c-0.2,0-0.4-0.2-0.4-0.4c0-0.2,0.2-0.4,0.4-0.4c0.2,0,0.4,0.2,0.4,0.4
				C545.9,157.1,545.7,157.2,545.5,157.2z"/>
		</g>
	</g>
	<g>
		<g>
			<path class="st7" d="M442.1,49.1c-2.4,0-4.4,2-4.4,4.4c0,2.4,2,4.4,4.4,4.4c2.4,0,4.4-2,4.4-4.4
				C446.5,51.1,444.6,49.1,442.1,49.1z M442.1,53.9c-0.2,0-0.4-0.2-0.4-0.4c0-0.2,0.2-0.4,0.4-0.4c0.2,0,0.4,0.2,0.4,0.4
				S442.4,53.9,442.1,53.9z"/>
		</g>
	</g>
	<g>
		<g>
			<path class="st7" d="M493.3,53.6h-4c0,30.9,25.2,56.1,56.1,56.1v-4C516.7,105.6,493.3,82.3,493.3,53.6z"/>
		</g>
	</g>
	<g>
		<g>
			<path class="st7" d="M472.5,123.6l2.8,2.8l2.8-2.8l-2.8-2.8L472.5,123.6z M489.5,106.7l2.8,2.8l2.8-2.8l-2.8-2.8L489.5,106.7z
				 M478.2,118l2.8,2.8l2.8-2.8l-2.8-2.8L478.2,118z M483.8,112.3l2.8,2.8l2.8-2.8l-2.8-2.8L483.8,112.3z M466.8,129.3l2.8,2.8
				l2.8-2.8l-2.8-2.8L466.8,129.3z M444.2,151.9l2.8,2.8l2.8-2.8l-2.8-2.8L444.2,151.9z M461.2,134.9l2.8,2.8l2.8-2.8l-2.8-2.8
				L461.2,134.9z M449.9,146.3l2.8,2.8l2.8-2.8l-2.8-2.8L449.9,146.3z M455.5,140.6l2.8,2.8l2.8-2.8l-2.8-2.8L455.5,140.6z
				 M534.7,61.4l2.8,2.8l2.8-2.8l-2.8-2.8L534.7,61.4z M495.1,101l2.8,2.8l2.8-2.8l-2.8-2.8L495.1,101z M542.8,53.3l-2.4,2.4
				l2.8,2.8l2.4-2.4L542.8,53.3z M523.4,72.7l2.8,2.8l2.8-2.8l-2.8-2.8L523.4,72.7z M529.1,67.1l2.8,2.8l2.8-2.8l-2.8-2.8
				L529.1,67.1z M500.8,95.3l2.8,2.8l2.8-2.8l-2.8-2.8L500.8,95.3z M517.7,78.4l2.8,2.8l2.8-2.8l-2.8-2.8L517.7,78.4z M506.4,89.7
				l2.8,2.8l2.8-2.8l-2.8-2.8L506.4,89.7z M512.1,84l2.8,2.8l2.8-2.8l-2.8-2.8L512.1,84z"/>
		</g>
	</g>
	<g>
		<g>
			<polygon class="st7" points="543.4,443.5 543.4,542.4 444.5,542.4 444.5,546.4 547.4,546.4 547.4,443.5 			"/>
		</g>
	</g>
	<g>
		<g>
			<path class="st7" d="M442.1,540.1c-2.4,0-4.4,2-4.4,4.4c0,2.4,2,4.4,4.4,4.4c2.4,0,4.4-2,4.4-4.4
				C446.5,542.1,444.6,540.1,442.1,540.1z M442.1,544.9c-0.2,0-0.4-0.2-0.4-0.4c0-0.2,0.2-0.4,0.4-0.4c0.2,0,0.4,0.2,0.4,0.4
				C442.5,544.7,442.4,544.9,442.1,544.9z"/>
		</g>
	</g>
	<g>
		<g>
			<path class="st7" d="M545.5,436.8c-2.4,0-4.4,2-4.4,4.4c0,2.4,2,4.4,4.4,4.4c2.4,0,4.4-2,4.4-4.4
				C549.9,438.7,547.9,436.8,545.5,436.8z M545.5,441.5c-0.2,0-0.4-0.2-0.4-0.4c0-0.2,0.2-0.4,0.4-0.4c0.2,0,0.4,0.2,0.4,0.4
				C545.9,441.4,545.7,441.5,545.5,441.5z"/>
		</g>
	</g>
	<g>
		<g>
			<path class="st7" d="M489.4,544.4h4c0-28.7,23.4-52.1,52.1-52.1v-4C514.5,488.3,489.4,513.5,489.4,544.4z"/>
		</g>
	</g>
	<g>
		<g>
			<path class="st7" d="M475.4,471.5l-2.8,2.8l2.8,2.8l2.8-2.8L475.4,471.5z M469.7,465.8l-2.8,2.8l2.8,2.8l2.8-2.8L469.7,465.8z
				 M478.2,480l2.8,2.8l2.8-2.8l-2.8-2.8L478.2,480z M486.7,482.8l-2.8,2.8l2.8,2.8l2.8-2.8L486.7,482.8z M464.1,460.2l-2.8,2.8
				l2.8,2.8l2.8-2.8L464.1,460.2z M447.1,443.2l-2.8,2.8l2.8,2.8l2.8-2.8L447.1,443.2z M452.7,448.9l-2.8,2.8l2.8,2.8l2.8-2.8
				L452.7,448.9z M458.4,454.5l-2.8,2.8l2.8,2.8l2.8-2.8L458.4,454.5z M492.3,488.5l-2.8,2.8l2.8,2.8l2.8-2.8L492.3,488.5z
				 M498,494.1l-2.8,2.8l2.8,2.8l2.8-2.8L498,494.1z M529.1,530.9l2.8,2.8l2.8-2.8l-2.8-2.8L529.1,530.9z M526.3,522.4l-2.8,2.8
				l2.8,2.8l2.8-2.8L526.3,522.4z M543.3,539.4l-2.8,2.8l2.4,2.4l2.8-2.8L543.3,539.4z M537.6,533.7l-2.8,2.8l2.8,2.8l2.8-2.8
				L537.6,533.7z M520.6,516.8l-2.8,2.8l2.8,2.8l2.8-2.8L520.6,516.8z M509.3,505.4l-2.8,2.8l2.8,2.8l2.8-2.8L509.3,505.4z
				 M503.7,499.8l-2.8,2.8l2.8,2.8l2.8-2.8L503.7,499.8z M512.1,513.9l2.8,2.8l2.8-2.8l-2.8-2.8L512.1,513.9z"/>
		</g>
	</g>
	<g>
		<g>
			<polygon class="st7" points="52.6,51.6 52.6,154.5 56.6,154.5 56.6,55.6 155.5,55.6 155.5,51.6 			"/>
		</g>
	</g>
	<g>
		<g>
			<path class="st7" d="M157.9,49.1c-2.4,0-4.4,2-4.4,4.4c0,2.4,2,4.4,4.4,4.4c2.4,0,4.4-2,4.4-4.4
				C162.2,51.1,160.3,49.1,157.9,49.1z M157.9,53.9c-0.2,0-0.4-0.2-0.4-0.4c0-0.2,0.2-0.4,0.4-0.4c0.2,0,0.4,0.2,0.4,0.4
				C158.2,53.7,158.1,53.9,157.9,53.9z"/>
		</g>
	</g>
	<g>
		<g>
			<path class="st7" d="M54.5,152.5c-2.4,0-4.4,2-4.4,4.4c0,2.4,2,4.4,4.4,4.4c2.4,0,4.4-2,4.4-4.4
				C58.9,154.4,56.9,152.5,54.5,152.5z M54.5,157.2c-0.2,0-0.4-0.2-0.4-0.4c0-0.2,0.2-0.4,0.4-0.4s0.4,0.2,0.4,0.4
				C54.9,157.1,54.7,157.2,54.5,157.2z"/>
		</g>
	</g>
	<g>
		<g>
			<path class="st7" d="M106.6,53.6c0,28.7-23.4,52.1-52.1,52.1v4c30.9,0,56.1-25.2,56.1-56.1H106.6z"/>
		</g>
	</g>
	<g>
		<g>
			<path class="st7" d="M85,81.3l-2.8,2.8l2.8,2.8l2.8-2.8L85,81.3z M90.7,86.9l-2.8,2.8l2.8,2.8l2.8-2.8L90.7,86.9z M76.5,78.4
				l2.8,2.8l2.8-2.8l-2.8-2.8L76.5,78.4z M96.3,92.6l-2.8,2.8l2.8,2.8l2.8-2.8L96.3,92.6z M102,98.2l-2.8,2.8l2.8,2.8l2.8-2.8
				L102,98.2z M57.1,53.4l-2.8,2.8l2.4,2.4l2.8-2.8L57.1,53.4z M68.1,64.3l-2.8,2.8l2.8,2.8l2.8-2.8L68.1,64.3z M73.7,69.9l-2.8,2.8
				l2.8,2.8l2.8-2.8L73.7,69.9z M59.6,61.5l2.8,2.8l2.8-2.8l-2.8-2.8L59.6,61.5z M135.9,132.2l-2.8,2.8l2.8,2.8l2.8-2.8L135.9,132.2
				z M107.7,103.9l-2.8,2.8l2.8,2.8l2.8-2.8L107.7,103.9z M147.3,143.5l-2.8,2.8l2.8,2.8l2.8-2.8L147.3,143.5z M152.9,149.1
				l-2.8,2.8l2.8,2.8l2.8-2.8L152.9,149.1z M141.6,137.8l-2.8,2.8l2.8,2.8l2.8-2.8L141.6,137.8z M110.5,112.4l2.8,2.8l2.8-2.8
				l-2.8-2.8L110.5,112.4z M119,115.2l-2.8,2.8l2.8,2.8l2.8-2.8L119,115.2z M124.6,120.8l-2.8,2.8l2.8,2.8l2.8-2.8L124.6,120.8z
				 M130.3,126.5l-2.8,2.8l2.8,2.8l2.8-2.8L130.3,126.5z"/>
		</g>
	</g>
	<g>
		<g>
			
				<rect x="86.6" y="217.5" transform="matrix(0.7071 -0.7071 0.7071 0.7071 -136.8633 130.0792)" class="st7" width="4" height="25.5"/>
		</g>
	</g>
	<g>
		<g>
			
				<rect x="86.6" y="231.3" transform="matrix(0.7071 -0.7071 0.7071 0.7071 -146.5843 134.0989)" class="st7" width="4" height="25.5"/>
		</g>
	</g>
	<g>
		<g>
			
				<rect x="86.6" y="245" transform="matrix(0.7071 -0.7071 0.7071 0.7071 -156.3076 138.1264)" class="st7" width="4" height="25.5"/>
		</g>
	</g>
	<g>
		<g>
			
				<rect x="86.6" y="258.8" transform="matrix(0.7071 -0.7071 0.7071 0.7071 -166.0305 142.1507)" class="st7" width="4" height="25.5"/>
		</g>
	</g>
	<g>
		<g>
			
				<rect x="86.6" y="272.5" transform="matrix(0.7071 -0.7071 0.7071 0.7071 -175.7553 146.1817)" class="st7" width="4" height="25.5"/>
		</g>
	</g>
	<g>
		<g>
			
				<rect x="86.6" y="286.3" transform="matrix(0.7071 -0.7071 0.7071 0.7071 -185.4782 150.2091)" class="st7" width="4" height="25.5"/>
		</g>
	</g>
	<g>
		<g>
			
				<rect x="86.6" y="300" transform="matrix(0.7071 -0.7071 0.7071 0.7071 -195.2032 154.2396)" class="st7" width="4" height="25.5"/>
		</g>
	</g>
	<g>
		<g>
			
				<rect x="86.6" y="313.8" transform="matrix(0.7071 -0.7071 0.7071 0.7071 -204.9265 158.2639)" class="st7" width="4" height="25.5"/>
		</g>
	</g>
	<g>
		<g>
			
				<rect x="86.6" y="327.5" transform="matrix(0.7071 -0.7071 0.7071 0.7071 -214.6544 162.299)" class="st7" width="4" height="25.5"/>
		</g>
	</g>
	<g>
		<g>
			
				<rect x="86.6" y="341.3" transform="matrix(0.7071 -0.7071 0.7071 0.7071 -224.3718 166.3165)" class="st7" width="4" height="25.5"/>
		</g>
	</g>
	<g>
		<g>
			
				<rect x="86.6" y="355" transform="matrix(0.7071 -0.7071 0.7071 0.7071 -234.0954 170.3441)" class="st7" width="4" height="25.5"/>
		</g>
	</g>
	<g>
		<g>
			<polygon class="st7" points="99.6,219.2 92,219.2 92,223.2 95.6,223.2 95.6,226.8 99.6,226.8 			"/>
		</g>
	</g>
	<g>
		<g>
			<polygon class="st7" points="81.6,374.8 81.6,371.2 77.6,371.2 77.6,378.8 85.2,378.8 85.2,374.8 			"/>
		</g>
	</g>
	<g>
		<g>
			
				<rect x="509.4" y="217.5" transform="matrix(0.7071 -0.7071 0.7071 0.7071 -13.0108 429.0765)" class="st7" width="4" height="25.5"/>
		</g>
	</g>
	<g>
		<g>
			
				<rect x="509.4" y="231.3" transform="matrix(0.7071 -0.7071 0.7071 0.7071 -22.7374 433.0981)" class="st7" width="4" height="25.5"/>
		</g>
	</g>
	<g>
		<g>
			
				<rect x="509.4" y="245" transform="matrix(0.7071 -0.7071 0.7071 0.7071 -32.4609 437.1257)" class="st7" width="4" height="25.5"/>
		</g>
	</g>
	<g>
		<g>
			
				<rect x="509.4" y="258.8" transform="matrix(0.7071 -0.7071 0.7071 0.7071 -42.187 441.1477)" class="st7" width="4" height="25.5"/>
		</g>
	</g>
	<g>
		<g>
			
				<rect x="509.4" y="272.5" transform="matrix(0.7071 -0.7071 0.7071 0.7071 -51.909 445.1815)" class="st7" width="4" height="25.5"/>
		</g>
	</g>
	<g>
		<g>
			
				<rect x="509.4" y="286.3" transform="matrix(0.7071 -0.7071 0.7071 0.7071 -61.6322 449.209)" class="st7" width="4" height="25.5"/>
		</g>
	</g>
	<g>
		<g>
			
				<rect x="509.4" y="300" transform="matrix(0.7071 -0.7071 0.7071 0.7071 -71.3542 453.243)" class="st7" width="4" height="25.5"/>
		</g>
	</g>
	<g>
		<g>
			
				<rect x="509.4" y="313.8" transform="matrix(0.7071 -0.7071 0.7071 0.7071 -81.0806 457.265)" class="st7" width="4" height="25.5"/>
		</g>
	</g>
	<g>
		<g>
			
				<rect x="509.4" y="327.5" transform="matrix(0.7071 -0.7071 0.7071 0.7071 -90.8025 461.3061)" class="st7" width="4" height="25.5"/>
		</g>
	</g>
	<g>
		<g>
			
				<rect x="509.4" y="341.3" transform="matrix(0.7071 -0.7071 0.7071 0.7071 -100.5298 465.3141)" class="st7" width="4" height="25.5"/>
		</g>
	</g>
	<g>
		<g>
			
				<rect x="509.4" y="355" transform="matrix(0.7071 -0.7071 0.7071 0.7071 -110.2536 469.3418)" class="st7" width="4" height="25.5"/>
		</g>
	</g>
	<g>
		<g>
			<polygon class="st7" points="514.8,219.2 514.8,223.2 518.4,223.2 518.4,226.8 522.4,226.8 522.4,219.2 			"/>
		</g>
	</g>
	<g>
		<g>
			<polygon class="st7" points="504.4,374.8 504.4,371.2 500.4,371.2 500.4,378.8 508,378.8 508,374.8 			"/>
		</g>
	</g>
	<g>
		<g>
			<rect x="242.1" y="428.8" class="st1" width="115.7" height="115.7"/>
		</g>
	</g>
	<g>
		<g>
			<polygon class="st0" points="242.1,544.5 357.9,544.5 357.9,428.8 			"/>
		</g>
	</g>
	<g>
		<g>
			<polygon class="st2" points="242.1,428.8 357.9,544.5 357.9,428.8 			"/>
		</g>
	</g>
	<g>
		<g>
			<polygon class="st3" points="300,486.6 357.9,544.5 357.9,428.8 			"/>
		</g>
	</g>
	<g>
		<g>
			<rect x="280.7" y="428.8" class="st4" width="38.6" height="41.2"/>
		</g>
	</g>
	<g>
		<g>
			<polygon class="st5" points="280.7,428.8 319.3,470 319.3,428.8 			"/>
		</g>
	</g>
	<g>
		<g>
			<path class="st6" d="M319.3,425.8h-38.6c-1.7,0-3,1.3-3,3V470c0,1.7,1.3,3,3,3h38.6c1.7,0,3-1.3,3-3v-41.2
				C322.3,427.1,321,425.8,319.3,425.8z M316.3,467h-32.6v-35.2h32.6V467z"/>
		</g>
	</g>
	<g>
		<g>
			<path class="st6" d="M357.9,424.8H242.1c-2.2,0-4,1.8-4,4v115.7c0,2.2,1.8,4,4,4h115.7c2.2,0,4-1.8,4-4V428.8
				C361.9,426.6,360.1,424.8,357.9,424.8z M353.9,540.5H246.1V432.8h107.7V540.5z"/>
		</g>
	</g>
	<g>
		<g>
			<polygon class="st7" points="159.7,355.8 153.8,361.7 153.8,367.1 163.8,357.1 163.8,355.8 			"/>
		</g>
	</g>
	<g>
		<g>
			<polygon class="st7" points="153.8,355.8 153.8,358.9 156.9,355.8 			"/>
		</g>
	</g>
	<g>
		<g>
			<polygon class="st7" points="153.8,369.9 153.8,375.3 163.8,365.3 163.8,359.9 			"/>
		</g>
	</g>
	<g>
		<g>
			<polygon class="st7" points="163.8,406.9 163.8,376.3 153.8,386.3 153.8,406.9 146.8,406.9 158.8,419 170.9,406.9 			"/>
		</g>
	</g>
	<g>
		<g>
			<polygon class="st7" points="153.8,378.1 153.8,383.5 163.8,373.5 163.8,368.1 			"/>
		</g>
	</g>
	<g>
		<g>
			<polygon class="st7" points="138.9,335.5 133,341.4 133,346.8 143,336.8 143,335.5 			"/>
		</g>
	</g>
	<g>
		<g>
			<polygon class="st7" points="133,335.5 133,338.6 136.1,335.5 			"/>
		</g>
	</g>
	<g>
		<g>
			<polygon class="st7" points="133,349.6 133,355 143,344.9 143,339.6 			"/>
		</g>
	</g>
	<g>
		<g>
			<polygon class="st7" points="143,386.6 143,356 133,366 133,386.6 125.9,386.6 138,398.7 150.1,386.6 			"/>
		</g>
	</g>
	<g>
		<g>
			<polygon class="st7" points="133,357.8 133,363.2 143,353.1 143,347.8 			"/>
		</g>
	</g>
	<g>
		<g>
			<polygon class="st7" points="180.5,335.5 174.6,341.4 174.6,346.8 184.6,336.8 184.6,335.5 			"/>
		</g>
	</g>
	<g>
		<g>
			<polygon class="st7" points="174.6,335.5 174.6,338.6 177.7,335.5 			"/>
		</g>
	</g>
	<g>
		<g>
			<polygon class="st7" points="174.6,349.6 174.6,355 184.6,344.9 184.6,339.6 			"/>
		</g>
	</g>
	<g>
		<g>
			<polygon class="st7" points="184.6,386.6 184.6,356 174.6,366 174.6,386.6 167.6,386.6 179.6,398.7 191.7,386.6 			"/>
		</g>
	</g>
	<g>
		<g>
			<polygon class="st7" points="174.6,357.8 174.6,363.2 184.6,353.1 184.6,347.8 			"/>
		</g>
	</g>
	<g>
		<g>
			<polygon class="st7" points="442.1,355.8 436.2,361.7 436.2,367.1 446.2,357.1 446.2,355.8 			"/>
		</g>
	</g>
	<g>
		<g>
			<polygon class="st7" points="436.2,355.8 436.2,358.9 439.2,355.8 			"/>
		</g>
	</g>
	<g>
		<g>
			<polygon class="st7" points="436.2,369.9 436.2,375.3 446.2,365.3 446.2,359.9 			"/>
		</g>
	</g>
	<g>
		<g>
			<polygon class="st7" points="446.2,406.9 446.2,376.3 436.2,386.3 436.2,406.9 429.1,406.9 441.2,419 453.2,406.9 			"/>
		</g>
	</g>
	<g>
		<g>
			<polygon class="st7" points="436.2,378.1 436.2,383.5 446.2,373.5 446.2,368.1 			"/>
		</g>
	</g>
	<g>
		<g>
			<polygon class="st7" points="421.3,335.5 415.4,341.4 415.4,346.8 425.4,336.8 425.4,335.5 			"/>
		</g>
	</g>
	<g>
		<g>
			<polygon class="st7" points="415.4,335.5 415.4,338.6 418.4,335.5 			"/>
		</g>
	</g>
	<g>
		<g>
			<polygon class="st7" points="415.4,349.6 415.4,355 425.4,344.9 425.4,339.6 			"/>
		</g>
	</g>
	<g>
		<g>
			<polygon class="st7" points="425.4,386.6 425.4,356 415.4,366 415.4,386.6 408.3,386.6 420.4,398.7 432.4,386.6 			"/>
		</g>
	</g>
	<g>
		<g>
			<polygon class="st7" points="415.4,357.8 415.4,363.2 425.4,353.1 425.4,347.8 			"/>
		</g>
	</g>
	<g>
		<g>
			<polygon class="st7" points="462.9,335.5 457,341.4 457,346.8 467,336.8 467,335.5 			"/>
		</g>
	</g>
	<g>
		<g>
			<polygon class="st7" points="457,335.5 457,338.6 460.1,335.5 			"/>
		</g>
	</g>
	<g>
		<g>
			<polygon class="st7" points="457,349.6 457,355 467,344.9 467,339.6 			"/>
		</g>
	</g>
	<g>
		<g>
			<polygon class="st7" points="467,386.6 467,356 457,366 457,386.6 449.9,386.6 462,398.7 474.1,386.6 			"/>
		</g>
	</g>
	<g>
		<g>
			<polygon class="st7" points="457,357.8 457,363.2 467,353.1 467,347.8 			"/>
		</g>
	</g>
	<g>
		<g>
			<polygon class="st7" points="291.1,360.3 295.5,368.1 300,375.8 304.5,368.1 308.9,360.3 			"/>
		</g>
	</g>
	<g>
		<g>
			<polygon class="st1" points="291.1,304.7 295.5,312.5 300,320.2 304.5,312.5 308.9,304.7 			"/>
		</g>
	</g>
	<g>
		<g>
			<path class="st6" d="M335.9,502c-6.9-13.7-20.6-22.1-35.9-22.1c-15.2,0-29,8.5-35.9,22.1l-0.7,1.4l0.7,1.4
				c6.9,13.7,20.6,22.1,35.9,22.1c15.3,0,29-8.5,35.9-22.1l0.7-1.3L335.9,502z M300,520.8c-12.5,0-23.7-6.7-29.8-17.5
				c6.1-10.8,17.4-17.5,29.8-17.5c12.5,0,23.7,6.7,29.8,17.5C323.7,514.1,312.5,520.8,300,520.8z"/>
		</g>
	</g>
	<g>
		<g>
			<path class="st6" d="M300,495.8c-4.1,0-7.5,3.3-7.5,7.5c0,4.1,3.3,7.5,7.5,7.5c4.1,0,7.5-3.3,7.5-7.5
				C307.5,499.2,304.1,495.8,300,495.8z"/>
		</g>
	</g>
	<g>
		<g>
			<path class="st6" d="M300,492.8c-5.8,0-10.5,4.7-10.5,10.5c0,5.8,4.7,10.5,10.5,10.5c5.8,0,10.5-4.7,10.5-10.5
				C310.5,497.5,305.8,492.8,300,492.8z M300,507.8c-2.5,0-4.5-2-4.5-4.5c0-2.5,2-4.5,4.5-4.5c2.5,0,4.5,2,4.5,4.5
				C304.5,505.8,302.5,507.8,300,507.8z"/>
		</g>
	</g>
	<g>
		<g>
			<path class="st2" d="M447.6,475.6c-4.8-4.8-12.7-4.8-17.6,0l-38.9,38.9l-11.9-11.9c-4.8-4.8-12.7-4.8-17.5,0
				c-4.8,4.8-4.8,12.7,0,17.5l20.7,20.7c2.4,2.4,5.6,3.6,8.8,3.6c3.2,0,6.4-1.2,8.8-3.6l47.7-47.7
				C452.4,488.3,452.4,480.4,447.6,475.6z"/>
		</g>
	</g>
	<g>
		<g>
			<path class="st1" d="M447.6,475.6c-4.8-4.8-12.7-4.8-17.6,0l-38.9,38.9l-11.9-11.9c-4.8-4.8-12.7-4.8-17.5,0
				c-0.1,0.1-0.2,0.2-0.3,0.3c0.1,0.1,0.2,0.2,0.3,0.3l20.7,20.7c2.4,2.4,5.6,3.6,8.8,3.6c3.2,0,6.4-1.2,8.8-3.6l47.7-47.7
				c0.1-0.1,0.2-0.2,0.3-0.3C447.8,475.8,447.7,475.7,447.6,475.6z"/>
		</g>
	</g>
	<g>
		<g>
			<path class="st6" d="M449.7,473.5c-6-6-15.8-6-21.8,0l-36.8,36.8l-9.8-9.8c-6-6-15.8-6-21.8,0c-2.9,2.9-4.5,6.8-4.5,10.9
				s1.6,8,4.5,10.9l20.7,20.7c2.9,2.9,6.8,4.5,10.9,4.5c4.1,0,8-1.6,10.9-4.5l47.7-47.7c2.9-2.9,4.5-6.8,4.5-10.9
				C454.2,480.3,452.6,476.4,449.7,473.5z M445.5,491l-47.7,47.7c-1.8,1.8-4.1,2.8-6.7,2.8c-2.5,0-4.9-1-6.7-2.8l-20.7-20.7
				c-1.8-1.8-2.8-4.1-2.8-6.6c0-2.5,1-4.9,2.8-6.7c1.8-1.8,4.2-2.8,6.7-2.8c2.4,0,4.8,0.9,6.6,2.7l11.9,11.9c1.2,1.2,3.1,1.2,4.2,0
				l38.9-38.9c3.7-3.7,9.6-3.7,13.3,0c1.8,1.8,2.8,4.1,2.8,6.7S447.3,489.2,445.5,491z"/>
		</g>
	</g>
	<g>
		<g>
			<rect x="79.6" y="158.6" class="st7" width="58.4" height="4"/>
		</g>
	</g>
	<g>
		<g>
			<rect x="79.6" y="169.9" class="st7" width="43.9" height="4"/>
		</g>
	</g>
	<g>
		<g>
			<rect x="79.6" y="181.2" class="st7" width="58.4" height="4"/>
		</g>
	</g>
	<g>
		<g>
			<rect x="79.6" y="192.5" class="st7" width="43.9" height="4"/>
		</g>
	</g>
	<g>
		<g>
			<rect x="79.6" y="203.8" class="st7" width="58.4" height="4"/>
		</g>
	</g>
	<g>
		<g>
			<rect x="462" y="158.6" class="st7" width="58.4" height="4"/>
		</g>
	</g>
	<g>
		<g>
			<rect x="476.6" y="169.9" class="st7" width="43.9" height="4"/>
		</g>
	</g>
	<g>
		<g>
			<rect x="462" y="181.2" class="st7" width="58.4" height="4"/>
		</g>
	</g>
	<g>
		<g>
			<rect x="476.6" y="192.5" class="st7" width="43.9" height="4"/>
		</g>
	</g>
	<g>
		<g>
			<rect x="462" y="203.8" class="st7" width="58.4" height="4"/>
		</g>
	</g>
</g>
</svg>
