<?xml version="1.0" encoding="utf-8"?>
<!-- Generator: Adobe Illustrator 23.0.3, SVG Export Plug-In . SVG Version: 6.00 Build 0)  -->
<svg version="1.1" id="Layer_1" xmlns="http://www.w3.org/2000/svg" xmlns:xlink="http://www.w3.org/1999/xlink" x="0px" y="0px"
	 viewBox="0 0 600 600" style="enable-background:new 0 0 600 600;" xml:space="preserve">
<style type="text/css">
	.st0{fill:#DEF4FC;}
	.st1{fill:#E9F6FF;}
	.st2{fill:none;stroke:#C8DFF5;stroke-width:4;stroke-miterlimit:10;}
	.st3{fill:none;stroke:#C8DFF5;stroke-width:4;stroke-miterlimit:10;stroke-dasharray:4,4;}
	.st4{fill:#FFFFFF;}
	.st5{fill:#AFD8F9;}
	.st6{fill:#5BA1E1;}
	.st7{fill:#288DE8;}
	.st8{fill:none;stroke:#2481D7;stroke-width:8;stroke-linecap:round;stroke-linejoin:round;stroke-miterlimit:10;}
	.st9{fill:#6AB0E5;}
	.st10{fill:none;stroke:#2481D7;stroke-width:4;stroke-linecap:round;stroke-linejoin:round;stroke-miterlimit:10;}
	.st11{fill:none;stroke:#C8DFF5;stroke-width:4;stroke-miterlimit:10;stroke-dasharray:4.0431,4.0431;}
	.st12{fill:none;stroke:#C8DFF5;stroke-width:4;stroke-miterlimit:10;stroke-dasharray:4.049,4.049;}
	.st13{fill:#C8DFF5;}
	.st14{fill:none;stroke:#2481D7;stroke-width:4;stroke-linejoin:round;stroke-miterlimit:10;}
</style>
<g>
	<g>
		<g>
			<g>
				<polygon class="st0" points="48.9,49.9 202.2,49.9 510.8,551.5 318,551.2 48.9,282.1 				"/>
				<polygon class="st1" points="281,514.2 48.9,282.1 48.9,49.9 50,49.9 346.4,346.4 				"/>
			</g>
			<g>
				<polygon class="st0" points="549.1,549.1 396.1,549.1 48.9,49.9 280.4,48.5 549.1,317.3 				"/>
				<polygon class="st1" points="368.5,136.6 549.1,317.3 549.1,549.1 548,549.1 283.3,51.5 				"/>
			</g>
		</g>
		<g>
			<g>
				<g>
					<g>
						<path class="st2" d="M299,205.7c52,0,94.2,42.2,94.2,94.2"/>
						<path class="st2" d="M299,394.1c-52,0-94.2-42.2-94.2-94.2"/>
					</g>
					<g>
						<path class="st3" d="M204.8,299.9c0-52,42.2-94.2,94.2-94.2"/>
						<path class="st3" d="M393.2,299.9c0,52-42.2,94.2-94.2,94.2"/>
					</g>
				</g>
				<g>
					<g>
						<path class="st2" d="M437.9,161c76.7,76.7,76.7,201.1,0,277.8"/>
						<path class="st2" d="M160.1,438.8c-76.7-76.7-76.7-201.1,0-277.8"/>
					</g>
					<g>
						<path class="st3" d="M160.1,161c76.7-76.7,201.1-76.7,277.8,0"/>
						<path class="st3" d="M437.9,438.8c-76.7,76.7-201.1,76.7-277.8,0"/>
					</g>
				</g>
			</g>
			<g>
				<line class="st2" x1="547.4" y1="299.9" x2="458.9" y2="299.9"/>
				<line class="st2" x1="139.1" y1="299.9" x2="50.6" y2="299.9"/>
			</g>
			<g>
				<line class="st2" x1="299" y1="548.3" x2="299" y2="459.8"/>
				<line class="st2" x1="299" y1="140" x2="299" y2="51.5"/>
			</g>
		</g>
		<g>
			<g>
				<g>
					<g>
						<polygon class="st4" points="239.8,381.1 203.3,302.6 299,125.2 394.7,302.6 358.2,381.1 						"/>
						<polygon class="st0" points="269.1,381.1 242.5,302.6 299,125.2 355.5,302.6 328.9,381.1 						"/>
						<path class="st5" d="M317,293.2c0.1,10-8,18.1-18,18c-9.9,0-18-8.1-18-18.1c0-9.9,8.1-18,18-18.1
							C308.9,275.1,317.1,283.2,317,293.2z"/>
					</g>
					<line class="st5" x1="299" y1="275.1" x2="299" y2="123.3"/>
				</g>
			</g>
			<polygon class="st6" points="367.6,428.9 230.4,428.9 239.9,381.1 358.1,381.1 			"/>
			<polygon class="st7" points="331.2,428.9 266.7,428.9 271.2,381.1 326.8,381.1 			"/>
		</g>
		<g>
			<g>
				<g>
					<g>
						<polygon class="st8" points="239.8,381.1 203.3,302.6 299,125.2 394.7,302.6 358.2,381.1 						"/>
						<path class="st8" d="M317,293.2c0.1,10-8,18.1-18,18c-9.9,0-18-8.1-18-18.1c0-9.9,8.1-18,18-18.1
							C308.9,275.1,317.1,283.2,317,293.2z"/>
					</g>
					<line class="st8" x1="299" y1="275.1" x2="299" y2="123.3"/>
				</g>
			</g>
			<polygon class="st8" points="367.6,428.9 230.4,428.9 239.9,381.1 358.1,381.1 			"/>
		</g>
		<g>
			<g>
				<g>
					<path class="st2" d="M384.3,192.9c-0.9,2.9-4.1,4.5-7,3.5c-2.9-1-4.5-4.1-3.5-7c0.9-2.9,4.1-4.5,7-3.5
						C383.6,186.8,385.2,190,384.3,192.9z"/>
					<line class="st2" x1="395.6" y1="158.2" x2="384.3" y2="192.9"/>
				</g>
				<g>
					<path class="st2" d="M393.2,192.9c0.9,2.9,4.1,4.5,7,3.5c2.9-1,4.5-4.1,3.5-7c-0.9-2.9-4.1-4.5-7-3.5
						C393.8,186.8,392.2,190,393.2,192.9z"/>
					<line class="st2" x1="381.9" y1="158.2" x2="393.2" y2="192.9"/>
				</g>
			</g>
		</g>
		<g>
			<g>
				<g>
					<path class="st4" d="M182.3,206.6c0-25.7-20.8-46.4-46.4-46.4c-25.6,0-46.4,20.8-46.4,46.4c0,13,5.3,24.7,14,33.2
						c7.4,8.3,11.9,19.1,11.9,31.1h41.1c0-12,4.5-22.8,11.9-31.1C176.9,231.3,182.3,219.6,182.3,206.6z"/>
					<path class="st1" d="M163.6,206.6c0-25.7-12.4-46.4-27.7-46.4c-15.3,0-27.7,20.8-27.7,46.4c0,13,3.2,24.7,8.4,33.2
						c4.4,8.3,7.1,19.1,7.1,31.1h24.5c0-12,2.7-22.8,7.1-31.1C160.4,231.3,163.6,219.6,163.6,206.6z"/>
					<path class="st5" d="M115.3,270.1v16.1c0,10.4,8.4,18.8,18.8,18.8h3.4c10.4,0,18.8-8.4,18.8-18.8v-15.5h-41.1
						C115.3,270.6,115.3,270.4,115.3,270.1z"/>
					<path class="st9" d="M123.7,270.1v16.1c0,10.4,5,18.8,11.2,18.8h2c6.2,0,11.2-8.4,11.2-18.8v-15.5h-24.3
						C123.7,270.6,123.7,270.4,123.7,270.1z"/>
				</g>
				<g>
					<path class="st8" d="M182.3,206.6c0-25.7-20.8-46.4-46.4-46.4c-25.6,0-46.4,20.8-46.4,46.4c0,13,5.3,24.7,14,33.2
						c7.4,8.3,11.9,19.1,11.9,31.1h41.1c0-12,4.5-22.8,11.9-31.1C176.9,231.3,182.3,219.6,182.3,206.6z"/>
					<path class="st8" d="M115.3,270.1v16.1c0,10.4,8.4,18.8,18.8,18.8h3.4c10.4,0,18.8-8.4,18.8-18.8v-15.5h-41.1
						C115.3,270.6,115.3,270.4,115.3,270.1z"/>
				</g>
			</g>
			<g>
				<line class="st10" x1="135.8" y1="221.1" x2="135.8" y2="257.8"/>
				<g>
					<polyline class="st10" points="135.8,219.9 126.2,229.6 116.5,219.9 					"/>
					<polyline class="st10" points="155.2,219.9 145.5,229.6 135.8,219.9 					"/>
				</g>
			</g>
			<line class="st10" x1="117.1" y1="281.5" x2="154.6" y2="281.5"/>
			<line class="st10" x1="117.1" y1="291" x2="154.6" y2="291"/>
		</g>
		<g>
			<g>
				<polyline class="st2" points="53.6,444.4 53.6,545.3 154.5,545.3 				"/>
				<path class="st2" d="M156.9,543c-1.3,0-2.4,1.1-2.4,2.4c0,1.3,1.1,2.4,2.4,2.4c1.3,0,2.4-1.1,2.4-2.4
					C159.2,544.1,158.2,543,156.9,543z"/>
				<path class="st2" d="M53.5,439.7c-1.3,0-2.4,1.1-2.4,2.4c0,1.3,1.1,2.4,2.4,2.4c1.3,0,2.4-1.1,2.4-2.4
					C55.9,440.7,54.8,439.7,53.5,439.7z"/>
				<path class="st2" d="M107.6,545.3c0-29.9-24.2-54.1-54.1-54.1"/>
				<line class="st3" x1="153.3" y1="445.5" x2="54.7" y2="544.1"/>
			</g>
			<g>
				<polyline class="st2" points="544.4,155.4 544.4,54.5 443.5,54.5 				"/>
				<path class="st2" d="M441.1,56.8c1.3,0,2.4-1.1,2.4-2.4c0-1.3-1.1-2.4-2.4-2.4c-1.3,0-2.4,1.1-2.4,2.4
					C438.8,55.7,439.8,56.8,441.1,56.8z"/>
				<path class="st2" d="M544.5,160.1c1.3,0,2.4-1.1,2.4-2.4c0-1.3-1.1-2.4-2.4-2.4c-1.3,0-2.4,1.1-2.4,2.4
					C542.1,159,543.2,160.1,544.5,160.1z"/>
				<path class="st2" d="M490.4,54.5c0,29.9,24.2,54.1,54.1,54.1"/>
				<line class="st3" x1="444.7" y1="154.3" x2="543.3" y2="55.7"/>
			</g>
		</g>
		<g>
			<line class="st2" x1="80.3" y1="81.2" x2="145" y2="81.2"/>
			<line class="st2" x1="80.3" y1="93.7" x2="128.9" y2="93.7"/>
			<line class="st2" x1="80.3" y1="106.2" x2="145" y2="106.2"/>
			<line class="st2" x1="80.3" y1="118.7" x2="128.9" y2="118.7"/>
			<line class="st2" x1="80.3" y1="131.2" x2="145" y2="131.2"/>
		</g>
		<g>
			<g>
				<g>
					<line class="st2" x1="464.2" y1="465.1" x2="466.2" y2="465.1"/>
					<line class="st11" x1="470.2" y1="465.1" x2="524.8" y2="465.1"/>
					<line class="st2" x1="526.9" y1="465.1" x2="528.9" y2="465.1"/>
				</g>
			</g>
			<g>
				<g>
					<line class="st2" x1="464.2" y1="477.6" x2="466.2" y2="477.6"/>
					<line class="st12" x1="470.3" y1="477.6" x2="508.7" y2="477.6"/>
					<line class="st2" x1="510.7" y1="477.6" x2="512.7" y2="477.6"/>
				</g>
			</g>
			<g>
				<g>
					<line class="st2" x1="464.2" y1="490.1" x2="466.2" y2="490.1"/>
					<line class="st11" x1="470.2" y1="490.1" x2="524.8" y2="490.1"/>
					<line class="st2" x1="526.9" y1="490.1" x2="528.9" y2="490.1"/>
				</g>
			</g>
			<g>
				<g>
					<line class="st2" x1="464.2" y1="502.6" x2="466.2" y2="502.6"/>
					<line class="st12" x1="470.3" y1="502.6" x2="508.7" y2="502.6"/>
					<line class="st2" x1="510.7" y1="502.6" x2="512.7" y2="502.6"/>
				</g>
			</g>
			<g>
				<g>
					<line class="st2" x1="464.2" y1="515.1" x2="466.2" y2="515.1"/>
					<line class="st11" x1="470.2" y1="515.1" x2="524.8" y2="515.1"/>
					<line class="st2" x1="526.9" y1="515.1" x2="528.9" y2="515.1"/>
				</g>
			</g>
		</g>
		<g>
			<g>
				<rect x="76.8" y="395.9" class="st13" width="7" height="51.2"/>
				<rect x="89.5" y="424.5" class="st13" width="7" height="22.6"/>
				<rect x="102.2" y="437.9" class="st13" width="4.9" height="9.2"/>
			</g>
			<g>
				<rect x="490.9" y="152.7" class="st13" width="7" height="51.2"/>
				<rect x="503.6" y="181.2" class="st13" width="7" height="22.6"/>
				<rect x="516.3" y="194.6" class="st13" width="4.9" height="9.2"/>
			</g>
		</g>
		<g>
			<g>
				<line class="st2" x1="233.3" y1="345.1" x2="248.5" y2="329.9"/>
				<line class="st2" x1="244.9" y1="345.1" x2="260.1" y2="329.9"/>
				<line class="st2" x1="256.5" y1="345.1" x2="271.8" y2="329.9"/>
				<line class="st2" x1="268.2" y1="345.1" x2="283.4" y2="329.9"/>
				<line class="st2" x1="279.8" y1="345.1" x2="295" y2="329.9"/>
				<line class="st2" x1="291.4" y1="345.1" x2="306.6" y2="329.9"/>
				<line class="st2" x1="303" y1="345.1" x2="318.2" y2="329.9"/>
				<line class="st2" x1="314.6" y1="345.1" x2="329.9" y2="329.9"/>
				<line class="st2" x1="326.2" y1="345.1" x2="341.5" y2="329.9"/>
				<line class="st2" x1="337.9" y1="345.1" x2="353.1" y2="329.9"/>
				<line class="st2" x1="349.5" y1="345.1" x2="364.7" y2="329.9"/>
			</g>
			<polyline class="st2" points="233.3,334.6 233.3,329.9 238,329.9 			"/>
			<polyline class="st2" points="364.7,340.4 364.7,345.1 360,345.1 			"/>
		</g>
	</g>
	<g>
		<g>
			<path class="st4" d="M434.1,378.4c-4,0-7.2-3.2-7.2-7.2V264.4c0-3.9,3.2-7.2,7.2-7.2h99.3c4,0,7.2,3.2,7.2,7.2v106.9
				c0,4-3.2,7.2-7.2,7.2H434.1z"/>
			<g>
				<path class="st13" d="M540.2,364.2"/>
				<polyline class="st13" points="477.2,344.1 463.2,330.1 429.1,364.2 				"/>
				<polyline class="st13" points="473.1,351.2 515.7,308.6 540.1,332.9 				"/>
			</g>
			<path class="st13" d="M467.2,298.2c0-0.2,0.1-0.3,0.1-0.4c0-5.4-4.4-9.8-9.8-9.8c-5.4,0-9.8,4.4-9.8,9.8h-0.5
				c-4.7,0-8.6,3.8-8.6,8.6c0,4.7,3.8,8.6,8.6,8.6h17.4c4.7,0,8.6-3.8,8.6-8.6C473.2,302.5,470.7,299.3,467.2,298.2z"/>
			<path class="st13" d="M509,283.8c0,5.1-4.2,9.3-9.3,9.3c-5.1,0-9.3-4.2-9.3-9.3c0-5.1,4.1-9.3,9.3-9.3
				C504.9,274.6,509,278.7,509,283.8z"/>
		</g>
		<g>
			<path class="st8" d="M434.1,378.4c-4,0-7.2-3.2-7.2-7.2V264.4c0-3.9,3.2-7.2,7.2-7.2h99.3c4,0,7.2,3.2,7.2,7.2v106.9
				c0,4-3.2,7.2-7.2,7.2H434.1z"/>
			<g>
				<path class="st8" d="M540.2,364.2"/>
				<polyline class="st8" points="477.2,344.1 463.2,330.1 429.1,364.2 				"/>
				<polyline class="st8" points="473.1,351.2 515.7,308.6 540.1,332.9 				"/>
			</g>
			<path class="st8" d="M467.2,298.2c0-0.2,0.1-0.3,0.1-0.4c0-5.4-4.4-9.8-9.8-9.8c-5.4,0-9.8,4.4-9.8,9.8h-0.5
				c-4.7,0-8.6,3.8-8.6,8.6c0,4.7,3.8,8.6,8.6,8.6h17.4c4.7,0,8.6-3.8,8.6-8.6C473.2,302.5,470.7,299.3,467.2,298.2z"/>
			<path class="st8" d="M509,283.8c0,5.1-4.2,9.3-9.3,9.3c-5.1,0-9.3-4.2-9.3-9.3c0-5.1,4.1-9.3,9.3-9.3
				C504.9,274.6,509,278.7,509,283.8z"/>
		</g>
	</g>
	<g>
		<path class="st5" d="M164.5,538.6c-4.9,0-8.9-4-8.9-8.9v-63c0-4.9,4-8.9,8.9-8.9h268.9c4.9,0,8.9,4,8.9,8.9v63
			c0,4.9-4,8.9-8.9,8.9H164.5z"/>
		<path class="st6" d="M164.5,538.6h268.9c4.9,0,8.9-4,8.9-8.9v-52c0-4.9-4-8.9-8.9-8.9H164.5c-4.9,0-8.9,4-8.9,8.9v52
			C155.6,534.6,159.6,538.6,164.5,538.6z"/>
		<path class="st8" d="M164.5,538.6c-4.9,0-8.9-4-8.9-8.9v-63c0-4.9,4-8.9,8.9-8.9h268.9c4.9,0,8.9,4,8.9,8.9v63
			c0,4.9-4,8.9-8.9,8.9H164.5z"/>
		<g>
			<g>
				<g>
					<line class="st14" x1="420.3" y1="522.8" x2="420.3" y2="513.7"/>
					<line class="st14" x1="408.4" y1="522.8" x2="408.4" y2="519"/>
				</g>
				<g>
					<line class="st14" x1="397.2" y1="522.8" x2="397.2" y2="513.7"/>
					<line class="st14" x1="385.3" y1="522.8" x2="385.3" y2="519"/>
				</g>
				<g>
					<line class="st14" x1="374.2" y1="522.8" x2="374.2" y2="513.7"/>
					<line class="st14" x1="362.3" y1="522.8" x2="362.3" y2="519"/>
				</g>
				<g>
					<line class="st14" x1="351.1" y1="522.8" x2="351.1" y2="513.7"/>
					<line class="st14" x1="339.2" y1="522.8" x2="339.2" y2="519"/>
				</g>
				<g>
					<line class="st14" x1="328.1" y1="522.8" x2="328.1" y2="513.7"/>
					<line class="st14" x1="316.2" y1="522.8" x2="316.1" y2="519"/>
				</g>
				<g>
					<line class="st14" x1="305" y1="522.8" x2="305" y2="513.7"/>
					<line class="st14" x1="293.1" y1="522.8" x2="293.1" y2="519"/>
				</g>
			</g>
			<g>
				<g>
					<line class="st14" x1="304.9" y1="522.8" x2="304.9" y2="513.7"/>
					<line class="st14" x1="293" y1="522.8" x2="293" y2="519"/>
				</g>
				<g>
					<line class="st14" x1="281.9" y1="522.8" x2="281.9" y2="513.7"/>
					<line class="st14" x1="269.9" y1="522.8" x2="269.9" y2="519"/>
				</g>
				<g>
					<line class="st14" x1="258.8" y1="522.8" x2="258.8" y2="513.7"/>
					<line class="st14" x1="246.9" y1="522.8" x2="246.9" y2="519"/>
				</g>
				<g>
					<line class="st14" x1="235.7" y1="522.8" x2="235.7" y2="513.7"/>
					<line class="st14" x1="223.8" y1="522.8" x2="223.8" y2="519"/>
				</g>
				<g>
					<line class="st14" x1="212.7" y1="522.8" x2="212.7" y2="513.7"/>
					<line class="st14" x1="200.8" y1="522.8" x2="200.8" y2="519"/>
				</g>
				<g>
					<line class="st14" x1="189.6" y1="522.8" x2="189.6" y2="513.7"/>
					<line class="st14" x1="177.7" y1="522.8" x2="177.7" y2="519"/>
				</g>
			</g>
		</g>
	</g>
	<g>
		<g>
			<line class="st2" x1="144" y1="349.4" x2="130.9" y2="349.4"/>
			<path class="st2" d="M183.9,402.3v-39.6c0-7.4-6-13.4-13.4-13.4h-14.8"/>
			<line class="st2" x1="190.2" y1="383.5" x2="202.7" y2="383.5"/>
			<path class="st2" d="M149.8,330.6v39.6c0,7.4,6,13.4,13.4,13.4h13.9"/>
		</g>
		<path class="st2" d="M172.6,366.4c0,3.2-2.6,5.8-5.8,5.8c-3.2,0-5.8-2.6-5.8-5.8c0-3.2,2.6-5.8,5.8-5.8
			C170,360.6,172.6,363.2,172.6,366.4z"/>
	</g>
	<g>
		<path class="st2" d="M241.1,142.9c0,2.3-1.9,4.2-4.2,4.2h-48.5c-2.3,0-4.2-1.9-4.2-4.2V94.5c0-2.3,1.9-4.2,4.2-4.2h48.5
			c2.3,0,4.2,1.9,4.2,4.2V142.9z"/>
		<g>
			<line class="st2" x1="203.3" y1="90.2" x2="203.3" y2="147.2"/>
			<line class="st2" x1="222.1" y1="90.2" x2="222.1" y2="147.2"/>
		</g>
		<g>
			<line class="st2" x1="241.1" y1="109.3" x2="184.2" y2="109.3"/>
			<line class="st2" x1="241.1" y1="128.1" x2="184.2" y2="128.1"/>
		</g>
	</g>
</g>
</svg>
