<?xml version="1.0" encoding="utf-8"?>
<!-- Generator: Adobe Illustrator 23.0.3, SVG Export Plug-In . SVG Version: 6.00 Build 0)  -->
<svg version="1.1" id="Layer_1" xmlns="http://www.w3.org/2000/svg" xmlns:xlink="http://www.w3.org/1999/xlink" x="0px" y="0px"
	 viewBox="0 0 600 600" style="enable-background:new 0 0 600 600;" xml:space="preserve">
<style type="text/css">
	.st0{fill:#DEF4FC;}
	.st1{fill:none;stroke:#C8DFF5;stroke-width:4;stroke-miterlimit:10;}
	.st2{fill:none;stroke:#C8DFF5;stroke-width:4;stroke-miterlimit:10;stroke-dasharray:4,4;}
	.st3{fill:#6AB0E5;}
	.st4{fill:#288DE8;}
	.st5{fill:none;stroke:#2481D7;stroke-width:8;stroke-linecap:round;stroke-linejoin:round;stroke-miterlimit:10;}
	.st6{fill:#FFFFFF;}
	.st7{fill:#E9F6FF;}
	.st8{fill:#AFD8F9;}
	.st9{fill:none;stroke:#2481D7;stroke-width:6;stroke-linecap:round;stroke-linejoin:round;stroke-miterlimit:10;}
	.st10{fill:none;stroke:#2481D7;stroke-width:4;stroke-linecap:round;stroke-linejoin:round;stroke-miterlimit:10;}
	.st11{fill:#C8DFF5;}
</style>
<g>
	<rect x="50" y="194.2" class="st0" width="500" height="113.1"/>
	<g>
		<g>
			<path class="st1" d="M199.8,220.1L199.8,220.1c55.3-55.4,145.1-55.4,200.5,0"/>
			<path class="st1" d="M300,320.3"/>
			<path class="st1" d="M400.2,420.5L400.2,420.5c-55.3,55.4-145.1,55.4-200.5,0"/>
			<path class="st1" d="M300,320.3"/>
		</g>
		<g>
			<path class="st2" d="M400.2,220.1L400.2,220.1c55.4,55.3,55.4,145.1,0,200.5"/>
			<path class="st2" d="M300,320.3"/>
			<path class="st2" d="M199.8,420.6L199.8,420.6c-55.4-55.3-55.4-145.1,0-200.5"/>
			<path class="st2" d="M300,320.3"/>
		</g>
		<g>
			<path class="st0" d="M300,320.3"/>
			<path class="st0" d="M300,320.3"/>
		</g>
		<g>
			<g>
				<g>
					<line class="st1" x1="210.9" y1="231.2" x2="199.2" y2="219.5"/>
					<line class="st1" x1="207.1" y1="235" x2="214.7" y2="227.4"/>
				</g>
				<g>
					<line class="st1" x1="389.1" y1="409.4" x2="400.8" y2="421.1"/>
					<line class="st1" x1="392.9" y1="405.6" x2="385.3" y2="413.2"/>
				</g>
			</g>
			<g>
				<g>
					<line class="st1" x1="210.9" y1="409.4" x2="199.2" y2="421.1"/>
					<line class="st1" x1="214.7" y1="413.2" x2="207.1" y2="405.6"/>
				</g>
				<g>
					<line class="st1" x1="389.1" y1="231.2" x2="400.8" y2="219.5"/>
					<line class="st1" x1="385.3" y1="227.4" x2="392.9" y2="235"/>
				</g>
			</g>
		</g>
		<g>
			<g>
				<g>
					<path class="st1" d="M157.4,320.3"/>
					<line class="st1" x1="174" y1="320.3" x2="157.4" y2="320.3"/>
				</g>
				<g>
					<line class="st1" x1="426" y1="320.3" x2="442.6" y2="320.3"/>
				</g>
			</g>
			<g>
				<g>
					<line class="st1" x1="300" y1="446.3" x2="300" y2="462.9"/>
					<line class="st1" x1="305.4" y1="446.3" x2="294.6" y2="446.3"/>
				</g>
				<g>
					<line class="st1" x1="300" y1="194.3" x2="300" y2="177.8"/>
					<line class="st1" x1="294.6" y1="194.3" x2="305.4" y2="194.3"/>
				</g>
			</g>
		</g>
	</g>
	<g>
		<g>
			<path class="st1" d="M148.7,471.6L148.7,471.6c-83.6-83.6-83.6-219.1,0-302.6"/>
			<path class="st1" d="M300,320.3"/>
			<path class="st1" d="M451.3,169L451.3,169c83.6,83.6,83.6,219.1,0,302.6"/>
			<path class="st1" d="M300,320.3"/>
		</g>
		<g>
			<path class="st2" d="M148.7,169.1L148.7,169.1c83.6-83.6,219.1-83.6,302.6,0"/>
			<path class="st2" d="M300,320.3"/>
			<path class="st2" d="M451.3,471.6L451.3,471.6c-83.6,83.6-219.1,83.6-302.6,0"/>
			<path class="st2" d="M300,320.3"/>
		</g>
		<g>
			<path class="st0" d="M300,320.3"/>
			<path class="st0" d="M300,320.3"/>
		</g>
		<g>
			<g>
				<g>
					<line class="st1" x1="165.5" y1="454.8" x2="147.8" y2="472.5"/>
					<line class="st1" x1="171.2" y1="460.6" x2="159.8" y2="449.1"/>
				</g>
				<g>
					<line class="st1" x1="434.5" y1="185.8" x2="452.2" y2="168.2"/>
					<line class="st1" x1="428.8" y1="180.1" x2="440.2" y2="191.6"/>
				</g>
			</g>
			<g>
				<g>
					<line class="st1" x1="434.5" y1="454.8" x2="452.2" y2="472.5"/>
					<line class="st1" x1="440.2" y1="449.1" x2="428.8" y2="460.6"/>
				</g>
				<g>
					<line class="st1" x1="165.5" y1="185.8" x2="147.8" y2="168.2"/>
					<line class="st1" x1="159.8" y1="191.6" x2="171.2" y2="180.1"/>
				</g>
			</g>
		</g>
		<g>
			<g>
				<g>
					<path class="st1" d="M300,535.5"/>
					<line class="st1" x1="300" y1="510.5" x2="300" y2="535.5"/>
				</g>
				<g>
					<line class="st1" x1="300" y1="130.1" x2="300" y2="105.1"/>
				</g>
			</g>
			<g>
				<g>
					<line class="st1" x1="490.2" y1="320.3" x2="515.2" y2="320.3"/>
					<line class="st1" x1="490.2" y1="312.2" x2="490.2" y2="328.5"/>
				</g>
				<g>
					<line class="st1" x1="109.8" y1="320.3" x2="84.8" y2="320.3"/>
					<line class="st1" x1="109.8" y1="328.5" x2="109.8" y2="312.2"/>
				</g>
			</g>
		</g>
	</g>
	<g>
		<path class="st3" d="M461.5,465.9c-11-21.4-32.9-36-58.6-36h-15.4c-22.4,0-40.5-18.1-40.5-40.4v-5.9c16.5-9.1,28.1-26.4,28.1-46.6
			v-65c0-29.6-24.1-53.6-53.6-53.6h-43.1c-29.5,0-53.5,24-53.5,53.6v65c0,20.3,11.3,37.5,27.9,46.6v5.9c0,22.3-18.1,40.4-40.4,40.4
			h-15.3c-25.6,0-47.6,14.6-58.6,36c38.8,46.3,96.4,76.4,161.5,76.4C365.1,542.2,422.8,512.2,461.5,465.9z"/>
	</g>
	<path class="st4" d="M252.8,383.5v5.9c0,3.4-0.4,6.6-1.2,9.8c0.4,0.2,0.8,0.5,1.2,0.7v5.9c0,22.3-18.1,40.4-40.4,40.4h-15.3
		c-21.5,0-40.6,10.4-52.6,26.4c38.6,42.4,93.7,69.5,155.5,69.5c61.9,0,117-27.1,155.6-69.5c-12-16-31-26.4-52.6-26.4h-15.4
		c-22.4,0-40.5-18.1-40.5-40.4v-5.9c0.4-0.2,0.8-0.5,1.2-0.7c-0.8-3.1-1.2-6.4-1.2-9.8v-5.9c16.5-9.1,28.1-26.4,28.1-46.6v-48.6
		c0-29.6-24.1-53.6-53.6-53.6h-43.1c-29.5,0-53.5,24-53.5,53.6v48.6C224.9,357.1,236.2,374.4,252.8,383.5z"/>
	<g>
		<path class="st5" d="M461.5,465.9c-11-21.4-32.9-36-58.6-36h-15.4c-22.4,0-40.5-18.1-40.5-40.4v-5.9c16.5-9.1,28.1-26.4,28.1-46.6
			v-65c0-29.6-24.1-53.6-53.6-53.6h-43.1c-29.5,0-53.5,24-53.5,53.6v65c0,20.3,11.3,37.5,27.9,46.6v5.9c0,22.3-18.1,40.4-40.4,40.4
			h-15.3c-25.6,0-47.6,14.6-58.6,36c38.8,46.3,96.4,76.4,161.5,76.4C365.1,542.2,422.8,512.2,461.5,465.9z"/>
	</g>
	<g>
		<g>
			<g>
				<path class="st6" d="M360.1,135.3c0-33.2-26.9-60.1-60.1-60.1c-33.2,0-60.1,26.9-60.1,60.1c0,16.8,6.9,32,18.1,43
					c9.6,10.7,15.4,24.7,15.4,40.2h53.2c0-15.5,5.8-29.5,15.5-40.2C353.2,167.4,360.1,152.2,360.1,135.3z"/>
				<path class="st7" d="M335.9,135.3c0-33.2-16.1-60.1-35.9-60.1c-19.8,0-35.9,26.9-35.9,60.1c0,16.8,4.1,32,10.8,43
					c5.7,10.7,9.2,24.7,9.2,40.2h31.8c0-15.5,3.5-29.5,9.2-40.2C331.8,167.4,335.9,152.2,335.9,135.3z"/>
				<path class="st8" d="M273.4,217.7v20.9c0,13.5,10.9,24.4,24.4,24.4h4.4c13.5,0,24.4-10.9,24.4-24.4v-20h-53.2
					C273.4,218.2,273.4,218,273.4,217.7z"/>
				<path class="st3" d="M284.2,217.7v20.9c0,13.5,6.5,24.4,14.4,24.4h2.6c8,0,14.4-10.9,14.4-24.4v-20h-31.5
					C284.3,218.2,284.2,218,284.2,217.7z"/>
			</g>
			<g>
				<path class="st9" d="M360.1,135.3c0-33.2-26.9-60.1-60.1-60.1c-33.2,0-60.1,26.9-60.1,60.1c0,16.8,6.9,32,18.1,43
					c9.6,10.7,15.4,24.7,15.4,40.2h53.2c0-15.5,5.8-29.5,15.5-40.2C353.2,167.4,360.1,152.2,360.1,135.3z"/>
				<path class="st9" d="M273.4,217.7v20.9c0,13.5,10.9,24.4,24.4,24.4h4.4c13.5,0,24.4-10.9,24.4-24.4v-20h-53.2
					C273.4,218.2,273.4,218,273.4,217.7z"/>
			</g>
		</g>
		<g>
			<line class="st10" x1="300" y1="154.1" x2="300" y2="209.8"/>
			<g>
				<polyline class="st10" points="300,152.7 287.5,165.2 275,152.7 				"/>
				<polyline class="st10" points="325,152.7 312.5,165.2 300,152.7 				"/>
			</g>
		</g>
		<line class="st10" x1="275.7" y1="229.8" x2="324.3" y2="229.8"/>
		<line class="st10" x1="275.7" y1="240.3" x2="324.3" y2="240.3"/>
		<line class="st10" x1="275.7" y1="250.8" x2="324.3" y2="250.8"/>
	</g>
	<g>
		<g>
			<g>
				<g>
					<path class="st6" d="M463.5,278.4c0-20.6-16.6-37.2-37.2-37.2c-20.5,0-37.2,16.6-37.2,37.2c0,10.4,4.3,19.8,11.2,26.6
						c5.9,6.6,9.5,15.3,9.5,24.9h32.9c0-9.6,3.6-18.3,9.6-24.9C459.2,298.2,463.5,288.8,463.5,278.4z"/>
					<path class="st7" d="M448.5,278.4c0-20.6-9.9-37.2-22.2-37.2c-12.3,0-22.2,16.6-22.2,37.2c0,10.4,2.6,19.8,6.7,26.6
						c3.5,6.6,5.7,15.3,5.7,24.9h19.7c0-9.6,2.2-18.3,5.7-24.9C445.9,298.2,448.5,288.8,448.5,278.4z"/>
					<path class="st8" d="M409.8,329.3v12.9c0,8.3,6.8,15.1,15.1,15.1h2.7c8.3,0,15.1-6.8,15.1-15.1v-12.4h-32.9
						C409.8,329.7,409.8,329.5,409.8,329.3z"/>
					<path class="st3" d="M416.5,329.3v12.9c0,8.3,4,15.1,8.9,15.1h1.6c4.9,0,8.9-6.8,8.9-15.1v-12.4h-19.5
						C416.5,329.7,416.5,329.5,416.5,329.3z"/>
				</g>
				<g>
					<path class="st9" d="M463.5,278.4c0-20.6-16.6-37.2-37.2-37.2c-20.5,0-37.2,16.6-37.2,37.2c0,10.4,4.3,19.8,11.2,26.6
						c5.9,6.6,9.5,15.3,9.5,24.9h32.9c0-9.6,3.6-18.3,9.6-24.9C459.2,298.2,463.5,288.8,463.5,278.4z"/>
					<path class="st9" d="M409.8,329.3v12.9c0,8.3,6.8,15.1,15.1,15.1h2.7c8.3,0,15.1-6.8,15.1-15.1v-12.4h-32.9
						C409.8,329.7,409.8,329.5,409.8,329.3z"/>
				</g>
			</g>
			<g>
				<line class="st10" x1="426.3" y1="290" x2="426.3" y2="324.4"/>
				<g>
					<polyline class="st10" points="426.3,289.1 418.5,296.9 410.8,289.1 					"/>
					<polyline class="st10" points="441.7,289.1 434,296.9 426.3,289.1 					"/>
				</g>
			</g>
			<line class="st10" x1="411.2" y1="338.4" x2="441.3" y2="338.4"/>
			<line class="st10" x1="411.2" y1="346.1" x2="441.3" y2="346.1"/>
		</g>
		<g>
			<g>
				<g>
					<path class="st6" d="M210.9,278.4c0-20.6-16.6-37.2-37.2-37.2c-20.5,0-37.2,16.6-37.2,37.2c0,10.4,4.3,19.8,11.2,26.6
						c5.9,6.6,9.6,15.3,9.6,24.9h32.9c0-9.6,3.6-18.3,9.6-24.9C206.6,298.2,210.9,288.8,210.9,278.4z"/>
					<path class="st7" d="M196,278.4c0-20.6-9.9-37.2-22.2-37.2c-12.3,0-22.2,16.6-22.2,37.2c0,10.4,2.6,19.8,6.7,26.6
						c3.5,6.6,5.7,15.3,5.7,24.9h19.7c0-9.6,2.2-18.3,5.7-24.9C193.4,298.2,196,288.8,196,278.4z"/>
					<path class="st8" d="M157.3,329.3v12.9c0,8.3,6.8,15.1,15.1,15.1h2.7c8.3,0,15.1-6.8,15.1-15.1v-12.4h-32.9
						C157.3,329.7,157.3,329.5,157.3,329.3z"/>
					<path class="st3" d="M164,329.3v12.9c0,8.3,4,15.1,8.9,15.1h1.6c4.9,0,8.9-6.8,8.9-15.1v-12.4H164
						C164,329.7,164,329.5,164,329.3z"/>
				</g>
				<g>
					<path class="st9" d="M210.9,278.4c0-20.6-16.6-37.2-37.2-37.2c-20.5,0-37.2,16.6-37.2,37.2c0,10.4,4.3,19.8,11.2,26.6
						c5.9,6.6,9.6,15.3,9.6,24.9h32.9c0-9.6,3.6-18.3,9.6-24.9C206.6,298.2,210.9,288.8,210.9,278.4z"/>
					<path class="st9" d="M157.3,329.3v12.9c0,8.3,6.8,15.1,15.1,15.1h2.7c8.3,0,15.1-6.8,15.1-15.1v-12.4h-32.9
						C157.3,329.7,157.3,329.5,157.3,329.3z"/>
				</g>
			</g>
			<g>
				<line class="st10" x1="173.7" y1="290" x2="173.7" y2="324.4"/>
				<g>
					<polyline class="st10" points="173.7,289.1 166,296.9 158.3,289.1 					"/>
					<polyline class="st10" points="189.2,289.1 181.5,296.9 173.7,289.1 					"/>
				</g>
			</g>
			<line class="st10" x1="158.7" y1="338.4" x2="188.8" y2="338.4"/>
			<line class="st10" x1="158.7" y1="346.1" x2="188.8" y2="346.1"/>
		</g>
	</g>
	<path class="st7" d="M265.2,334.6c0,19.2,15.6,34.8,34.8,34.8c19.2,0,34.8-15.6,34.8-34.8H265.2z"/>
	<path class="st8" d="M323.5,360.3c-6.2-5.7-14.4-9.1-23.5-9.1c-9.1,0-17.3,3.5-23.5,9.1c6.2,5.7,14.4,9.1,23.5,9.1
		C309.1,369.4,317.3,365.9,323.5,360.3z"/>
	<path class="st9" d="M265.2,334.6c0,19.2,15.6,34.8,34.8,34.8c19.2,0,34.8-15.6,34.8-34.8H265.2z"/>
	<g>
		<g>
			<g>
				<line class="st1" x1="222.2" y1="123.5" x2="236.5" y2="123.5"/>
				<line class="st1" x1="244.3" y1="123.5" x2="245.8" y2="123.5"/>
				<line class="st1" x1="251.8" y1="123.5" x2="253.4" y2="123.5"/>
				<line class="st1" x1="259.3" y1="123.5" x2="260.9" y2="123.5"/>
			</g>
			<g>
				<line class="st1" x1="377.8" y1="123.5" x2="363.5" y2="123.5"/>
				<line class="st1" x1="355.7" y1="123.5" x2="354.2" y2="123.5"/>
				<line class="st1" x1="348.2" y1="123.5" x2="346.6" y2="123.5"/>
				<line class="st1" x1="340.7" y1="123.5" x2="339.1" y2="123.5"/>
			</g>
		</g>
		<g>
			<g>
				<line class="st1" x1="245" y1="68.5" x2="255.1" y2="78.6"/>
				<line class="st1" x1="260.6" y1="84.1" x2="261.7" y2="85.2"/>
				<line class="st1" x1="265.9" y1="89.4" x2="267" y2="90.6"/>
				<line class="st1" x1="271.2" y1="94.8" x2="272.4" y2="95.9"/>
			</g>
			<g>
				<line class="st1" x1="355" y1="178.5" x2="344.9" y2="168.4"/>
				<line class="st1" x1="339.4" y1="162.9" x2="338.3" y2="161.8"/>
				<line class="st1" x1="334.1" y1="157.6" x2="333" y2="156.5"/>
				<line class="st1" x1="328.7" y1="152.3" x2="327.6" y2="151.2"/>
			</g>
		</g>
		<g>
			<g>
				<line class="st1" x1="300" y1="45.8" x2="300" y2="60"/>
				<line class="st1" x1="300" y1="67.8" x2="300" y2="69.4"/>
				<line class="st1" x1="300" y1="75.3" x2="300" y2="76.9"/>
				<line class="st1" x1="300" y1="82.9" x2="300" y2="84.4"/>
			</g>
			<g>
				<line class="st1" x1="300" y1="201.3" x2="300" y2="187"/>
				<line class="st1" x1="300" y1="179.3" x2="300" y2="177.7"/>
				<line class="st1" x1="300" y1="171.7" x2="300" y2="170.2"/>
				<line class="st1" x1="300" y1="164.2" x2="300" y2="162.6"/>
			</g>
		</g>
		<g>
			<g>
				<line class="st1" x1="355" y1="68.5" x2="344.9" y2="78.6"/>
				<line class="st1" x1="339.4" y1="84.1" x2="338.3" y2="85.2"/>
				<line class="st1" x1="334.1" y1="89.4" x2="333" y2="90.6"/>
				<line class="st1" x1="328.7" y1="94.8" x2="327.6" y2="95.9"/>
			</g>
			<g>
				<line class="st1" x1="245" y1="178.5" x2="255.1" y2="168.4"/>
				<line class="st1" x1="260.6" y1="162.9" x2="261.7" y2="161.8"/>
				<line class="st1" x1="265.9" y1="157.6" x2="267" y2="156.5"/>
				<line class="st1" x1="271.2" y1="152.3" x2="272.4" y2="151.2"/>
			</g>
		</g>
	</g>
	<path class="st1" d="M317.1,123.5c0,9.5-7.7,17.1-17.1,17.1c-9.5,0-17.1-7.7-17.1-17.1c0-9.5,7.7-17.1,17.1-17.1
		C309.5,106.4,317.1,114.1,317.1,123.5z"/>
	<g>
		<g>
			<g>
				<polygon class="st11" points="98.9,149.9 102.7,149.9 108.1,144.4 108.1,139.5 98.9,148.7 				"/>
				<polygon class="st11" points="105.3,149.9 108.1,149.9 108.1,147 				"/>
				<polygon class="st11" points="98.9,146.1 108.1,136.9 108.1,131.9 98.9,141.1 				"/>
				<polygon class="st11" points="98.9,131 108.1,121.7 108.1,102.7 114.7,102.7 103.5,91.6 92.4,102.7 98.9,102.7 				"/>
				<polygon class="st11" points="98.9,138.5 108.1,129.3 108.1,124.4 98.9,133.6 				"/>
			</g>
			<g>
				<g>
					<polygon class="st11" points="118.1,168.6 121.9,168.6 127.3,163.2 127.3,158.2 118.1,167.4 					"/>
					<polygon class="st11" points="124.5,168.6 127.3,168.6 127.3,165.8 					"/>
					<polygon class="st11" points="118.1,164.8 127.3,155.6 127.3,150.7 118.1,159.9 					"/>
					<polygon class="st11" points="118.1,149.7 127.3,140.5 127.3,121.5 133.9,121.5 122.7,110.3 111.6,121.5 118.1,121.5 					"/>
					<polygon class="st11" points="118.1,157.3 127.3,148 127.3,143.1 118.1,152.3 					"/>
				</g>
				<g>
					<polygon class="st11" points="79.7,168.6 83.5,168.6 89,163.2 89,158.2 79.7,167.4 					"/>
					<polygon class="st11" points="86.1,168.6 89,168.6 89,165.8 					"/>
					<polygon class="st11" points="79.7,164.8 89,155.6 89,150.7 79.7,159.9 					"/>
					<polygon class="st11" points="79.7,149.7 89,140.5 89,121.5 95.5,121.5 84.3,110.3 73.2,121.5 79.7,121.5 					"/>
					<polygon class="st11" points="79.7,157.3 89,148 89,143.1 79.7,152.3 					"/>
				</g>
			</g>
		</g>
		<g>
			<g>
				<polygon class="st11" points="491.8,149.9 495.6,149.9 501.1,144.4 501.1,139.5 491.8,148.7 				"/>
				<polygon class="st11" points="498.2,149.9 501.1,149.9 501.1,147 				"/>
				<polygon class="st11" points="491.8,146.1 501.1,136.9 501.1,131.9 491.8,141.1 				"/>
				<polygon class="st11" points="491.8,131 501.1,121.7 501.1,102.7 507.6,102.7 496.5,91.6 485.3,102.7 491.8,102.7 				"/>
				<polygon class="st11" points="491.8,138.5 501.1,129.3 501.1,124.4 491.8,133.6 				"/>
			</g>
			<g>
				<g>
					<polygon class="st11" points="511,168.6 514.8,168.6 520.3,163.2 520.3,158.2 511,167.4 					"/>
					<polygon class="st11" points="517.4,168.6 520.3,168.6 520.3,165.8 					"/>
					<polygon class="st11" points="511,164.8 520.3,155.6 520.3,150.7 511,159.9 					"/>
					<polygon class="st11" points="511,149.7 520.3,140.5 520.3,121.5 526.8,121.5 515.7,110.3 504.5,121.5 511,121.5 					"/>
					<polygon class="st11" points="511,157.3 520.3,148 520.3,143.1 511,152.3 					"/>
				</g>
				<g>
					<polygon class="st11" points="472.6,168.6 476.4,168.6 481.9,163.2 481.9,158.2 472.6,167.4 					"/>
					<polygon class="st11" points="479,168.6 481.9,168.6 481.9,165.8 					"/>
					<polygon class="st11" points="472.6,164.8 481.9,155.6 481.9,150.7 472.6,159.9 					"/>
					<polygon class="st11" points="472.6,149.7 481.9,140.5 481.9,121.5 488.4,121.5 477.3,110.3 466.1,121.5 472.6,121.5 					"/>
					<polygon class="st11" points="472.6,157.3 481.9,148 481.9,143.1 472.6,152.3 					"/>
				</g>
			</g>
		</g>
	</g>
	<g>
		<g>
			<g>
				<g>
					<g>
						<path class="st1" d="M154.7,402c0-8.9-7.2-16.1-16.1-16.1c-8.9,0-16.1,7.2-16.1,16.1c0,4.5,1.9,8.6,4.9,11.5
							c2.6,2.9,4.1,6.6,4.1,10.8h14.3c0-4.2,1.6-7.9,4.2-10.8C152.9,410.6,154.7,406.6,154.7,402z"/>
					</g>
				</g>
				<line class="st1" x1="138.6" y1="411.2" x2="138.6" y2="424.4"/>
				<g>
					<polyline class="st1" points="138.6,408.6 135.1,412.1 131.7,408.6 					"/>
					<polyline class="st1" points="145.5,408.6 142.1,412.1 138.6,408.6 					"/>
				</g>
				<g>
					<line class="st1" x1="131.7" y1="429.8" x2="145.5" y2="429.8"/>
					<path class="st1" d="M141.7,429.8v1.7c0,1.7-1.4,3.2-3.2,3.2l0,0c-1.7,0-3.2-1.4-3.2-3.2v-1.7"/>
				</g>
			</g>
			<g>
				<g>
					<g>
						<line class="st1" x1="138.6" y1="371" x2="138.6" y2="378.2"/>
					</g>
					<g>
						<line class="st1" x1="156.6" y1="378.5" x2="151.5" y2="383.5"/>
					</g>
					<g>
						<line class="st1" x1="125.7" y1="383.5" x2="120.6" y2="378.5"/>
					</g>
				</g>
			</g>
		</g>
		<g>
			<g>
				<g>
					<g>
						<path class="st1" d="M477.5,402c0-8.9-7.2-16.1-16.1-16.1c-8.9,0-16.1,7.2-16.1,16.1c0,4.5,1.9,8.6,4.9,11.5
							c2.6,2.9,4.1,6.6,4.1,10.8h14.3c0-4.2,1.6-7.9,4.2-10.8C475.7,410.6,477.5,406.6,477.5,402z"/>
					</g>
				</g>
				<line class="st1" x1="461.4" y1="411.2" x2="461.4" y2="424.4"/>
				<g>
					<polyline class="st1" points="461.4,408.6 457.9,412.1 454.5,408.6 					"/>
					<polyline class="st1" points="468.3,408.6 464.9,412.1 461.4,408.6 					"/>
				</g>
				<g>
					<line class="st1" x1="454.5" y1="429.8" x2="468.3" y2="429.8"/>
					<path class="st1" d="M464.6,429.8v1.7c0,1.7-1.4,3.2-3.2,3.2l0,0c-1.7,0-3.2-1.4-3.2-3.2v-1.7"/>
				</g>
			</g>
			<g>
				<g>
					<g>
						<line class="st1" x1="461.4" y1="371" x2="461.4" y2="378.2"/>
					</g>
					<g>
						<line class="st1" x1="479.4" y1="378.5" x2="474.3" y2="383.5"/>
					</g>
					<g>
						<line class="st1" x1="448.5" y1="383.5" x2="443.4" y2="378.5"/>
					</g>
				</g>
			</g>
		</g>
	</g>
	<g>
		<g>
			<g>
				<line class="st1" x1="68.6" y1="379.9" x2="79.1" y2="379.9"/>
				<line class="st1" x1="68.6" y1="393.8" x2="73" y2="393.8"/>
			</g>
			<g>
				<line class="st1" x1="68.6" y1="406.7" x2="79.1" y2="406.7"/>
				<line class="st1" x1="68.6" y1="420.6" x2="73" y2="420.6"/>
			</g>
			<g>
				<line class="st1" x1="68.6" y1="433.5" x2="79.1" y2="433.5"/>
				<line class="st1" x1="68.6" y1="447.4" x2="72.9" y2="447.4"/>
			</g>
			<g>
				<line class="st1" x1="68.6" y1="460.3" x2="79.1" y2="460.3"/>
				<line class="st1" x1="68.6" y1="474.2" x2="72.9" y2="474.2"/>
			</g>
			<g>
				<line class="st1" x1="68.6" y1="487.1" x2="79.1" y2="487.1"/>
				<line class="st1" x1="68.6" y1="501" x2="73" y2="501"/>
			</g>
			<g>
				<line class="st1" x1="68.6" y1="514" x2="79.1" y2="513.9"/>
				<line class="st1" x1="68.6" y1="527.8" x2="73" y2="527.8"/>
			</g>
		</g>
		<g>
			<g>
				<line class="st1" x1="531.4" y1="379.9" x2="520.9" y2="379.9"/>
				<line class="st1" x1="531.4" y1="393.8" x2="527" y2="393.8"/>
			</g>
			<g>
				<line class="st1" x1="531.4" y1="406.7" x2="520.9" y2="406.7"/>
				<line class="st1" x1="531.4" y1="420.6" x2="527" y2="420.6"/>
			</g>
			<g>
				<line class="st1" x1="531.4" y1="433.5" x2="520.9" y2="433.5"/>
				<line class="st1" x1="531.4" y1="447.4" x2="527.1" y2="447.4"/>
			</g>
			<g>
				<line class="st1" x1="531.4" y1="460.3" x2="520.9" y2="460.3"/>
				<line class="st1" x1="531.4" y1="474.2" x2="527.1" y2="474.2"/>
			</g>
			<g>
				<line class="st1" x1="531.4" y1="487.1" x2="520.9" y2="487.1"/>
				<line class="st1" x1="531.4" y1="501" x2="527" y2="501"/>
			</g>
			<g>
				<line class="st1" x1="531.4" y1="514" x2="520.9" y2="513.9"/>
				<line class="st1" x1="531.4" y1="527.8" x2="527" y2="527.8"/>
			</g>
		</g>
	</g>
	<g>
		<g>
			<g>
				<g>
					<path class="st1" d="M117.2,498.1c0,3.1-2.6,5.7-5.7,5.7c-3.1,0-5.7-2.6-5.7-5.7c0-3.1,2.5-5.7,5.7-5.7
						C114.6,492.4,117.2,494.9,117.2,498.1z"/>
				</g>
				<g>
					<path class="st1" d="M138.9,519.8c0,3.1-2.5,5.7-5.7,5.7c-3.1,0-5.7-2.6-5.7-5.7c0-3.1,2.5-5.7,5.7-5.7
						C136.4,514.2,138.9,516.7,138.9,519.8z"/>
				</g>
			</g>
			<line class="st1" x1="108.6" y1="522.7" x2="136.1" y2="495.2"/>
		</g>
		<g>
			<g>
				<g>
					<path class="st1" d="M472.5,498.1c0,3.1-2.6,5.7-5.7,5.7c-3.1,0-5.7-2.6-5.7-5.7c0-3.1,2.5-5.7,5.7-5.7
						C469.9,492.4,472.4,494.9,472.5,498.1z"/>
				</g>
				<g>
					<path class="st1" d="M494.2,519.8c0,3.1-2.5,5.7-5.7,5.7c-3.1,0-5.7-2.6-5.7-5.7c0-3.1,2.5-5.7,5.7-5.7
						C491.7,514.2,494.2,516.7,494.2,519.8z"/>
				</g>
			</g>
			<line class="st1" x1="463.9" y1="522.7" x2="491.4" y2="495.2"/>
		</g>
	</g>
	<g>
		<g>
			<g>
				<g>
					<path class="st1" d="M329.7,460.3c0,16.4-13.3,29.7-29.7,29.7"/>
					<path class="st1" d="M275.7,454.8l-1.5,1.5l-4,4c0-16.4,13.3-29.7,29.7-29.7"/>
				</g>
				<g>
					<path class="st1" d="M300,430.5c16.4,0,29.8,13.3,29.8,29.7"/>
					<path class="st1" d="M300,490c-8,0-15.3-3.1-20.6-8.3"/>
					<path class="st1" d="M294.5,484.5"/>
				</g>
			</g>
			<g>
				<g>
					<g>
						<g>
							<line class="st1" x1="300" y1="440.8" x2="300" y2="460.2"/>
						</g>
						<g>
							<g>
								<path class="st1" d="M300,485.7"/>
								<path class="st1" d="M300,460.2"/>
							</g>
						</g>
					</g>
					<path class="st1" d="M301.4,460.2c0,0.7-0.6,1.3-1.3,1.3c-0.8,0-1.4-0.6-1.4-1.3c0-0.7,0.6-1.3,1.4-1.3
						C300.7,458.9,301.4,459.5,301.4,460.2z"/>
				</g>
				<line class="st1" x1="289.5" y1="460.3" x2="300" y2="460.3"/>
			</g>
		</g>
	</g>
</g>
</svg>
