<?xml version="1.0" encoding="utf-8"?>
<!-- Generator: Adobe Illustrator 23.0.3, SVG Export Plug-In . SVG Version: 6.00 Build 0)  -->
<svg version="1.1" id="Layer_1" xmlns="http://www.w3.org/2000/svg" xmlns:xlink="http://www.w3.org/1999/xlink" x="0px" y="0px"
	 viewBox="0 0 600 600" style="enable-background:new 0 0 600 600;" xml:space="preserve">
<style type="text/css">
	.st0{fill:#DEF4FC;}
	.st1{fill:#E9F6FF;}
	.st2{fill:none;stroke:#C8DFF5;stroke-width:4;stroke-miterlimit:10;}
	.st3{fill:#FFFFFF;}
	.st4{fill:#5BA1E1;}
	.st5{fill:none;stroke:#2481D7;stroke-width:8;stroke-linecap:round;stroke-linejoin:round;stroke-miterlimit:10;}
	.st6{fill:#C8DFF5;}
	.st7{fill:#AFD8F9;}
	.st8{fill:#6AB0E5;}
	.st9{fill:none;stroke:#C8DFF5;stroke-width:4;stroke-linecap:round;stroke-miterlimit:10;}
	.st10{fill:none;stroke:#2481D7;stroke-width:6;stroke-linecap:round;stroke-linejoin:round;stroke-miterlimit:10;}
	.st11{fill:none;stroke:#2481D7;stroke-width:6;stroke-linejoin:round;stroke-miterlimit:10;}
	.st12{fill:none;stroke:#2481D7;stroke-width:4;stroke-linejoin:round;stroke-miterlimit:10;}
	.st13{fill:none;stroke:#2481D7;stroke-width:8;stroke-linecap:round;stroke-linejoin:bevel;stroke-miterlimit:10;}
</style>
<g>
	<g>
		<g>
			<polygon class="st0" points="549.1,50 395.8,50 87.2,358.6 280,551.4 549.1,282.2 			"/>
			<polygon class="st1" points="317,514.3 549.1,282.2 549.1,50 548,50 251.6,346.5 			"/>
		</g>
		<g>
			<polygon class="st0" points="48.9,549.2 201.9,549.2 510.1,50 317.6,48.6 48.9,317.4 			"/>
			<polygon class="st1" points="229.5,136.7 48.9,317.4 48.9,549.2 50,549.2 346,253.2 			"/>
		</g>
	</g>
	<g>
		<path class="st2" d="M535.7,301.1c0,10.6-8.6,19.2-19.2,19.2H296.7c-10.6,0-19.2-8.6-19.2-19.2V81.3c0-10.6,8.6-19.2,19.2-19.2
			h219.7c10.6,0,19.2,8.6,19.2,19.2V301.1z"/>
		<g>
			<line class="st2" x1="364.1" y1="62.1" x2="364.1" y2="320.3"/>
			<line class="st2" x1="449.1" y1="62.1" x2="449.1" y2="320.3"/>
		</g>
		<g>
			<line class="st2" x1="535.7" y1="148.7" x2="277.5" y2="148.7"/>
			<line class="st2" x1="535.7" y1="233.7" x2="277.5" y2="233.7"/>
		</g>
	</g>
	<g>
		<g>
			<path class="st3" d="M176.3,175.7H96.6c-4.8,0-8.6-3.9-8.6-8.6V87.4c0-4.7,3.9-8.6,8.6-8.6h79.7c4.8,0,8.6,3.9,8.6,8.6v79.7
				C184.9,171.8,181.1,175.7,176.3,175.7z"/>
		</g>
		<path class="st4" d="M176.3,78.8H96.6c-4.8,0-8.6,3.9-8.6,8.6v79.7c0,2.2,0.8,4.2,2.2,5.7L182,81
			C180.5,79.6,178.5,78.8,176.3,78.8z"/>
		<line class="st3" x1="90.6" y1="173.1" x2="182.3" y2="81.4"/>
		<g>
			<g>
				<line class="st3" x1="112" y1="91.1" x2="112" y2="114.6"/>
				<line class="st3" x1="123.8" y1="102.8" x2="100.3" y2="102.8"/>
			</g>
			<g>
				<path class="st3" d="M160.9,163.4"/>
				<path class="st3" d="M160.9,139.9"/>
				<line class="st3" x1="172.6" y1="151.7" x2="149.1" y2="151.7"/>
			</g>
		</g>
	</g>
	<g>
		<path class="st3" d="M334.2,537.6c0,4.4-3.6,8-8,8H61.5c-4.4,0-8-3.6-8-8v-309c0-4.4,3.6-8,8-8h264.8c4.4,0,8,3.6,8,8V537.6z"/>
		<path class="st0" d="M326.2,220.6H61.5c-4.4,0-8,3.6-8,8v309c0,4.4,3.6,8,8,8l272.8-317C334.2,224.2,330.7,220.6,326.2,220.6z"/>
		<path class="st5" d="M334.2,537.6c0,4.4-3.6,8-8,8H61.5c-4.4,0-8-3.6-8-8v-309c0-4.4,3.6-8,8-8h264.8c4.4,0,8,3.6,8,8V537.6z"/>
	</g>
	<g>
		<rect x="87.3" y="260.2" class="st6" width="213.1" height="133.9"/>
		<polygon class="st4" points="300.4,353.9 261,314.6 234.7,341 197.6,304 128.8,372.8 106.4,350.4 87.3,369.5 87.3,394 300.4,394 
					"/>
		<path class="st3" d="M155.9,300.8c0,10.7-8.7,19.4-19.4,19.4c-10.7,0-19.4-8.7-19.4-19.4c0-10.7,8.7-19.4,19.4-19.4
			C147.2,281.4,155.9,290.1,155.9,300.8z"/>
	</g>
	<g>
		<g>
			<path class="st3" d="M260,228.1c-10.3,17.4-1.6,33.2,17,31c18.6-2.1,59.2-2.6,97.9,8.1c28.8,7.9,60.5-0.4,74.8-5.2v-91.1
				c-26.2-1.6-138.6-50.6-160-47.5c0,0-73.5,45.1-73.8,52c-0.9,18,8.5,69.3,4.7,83.2c-3.8,13.9,26.3,16.3,31.9,3.9
				c4.7-10.3,2.5-36.2,3.9-37.7C258.3,222.6,260,228.1,260,228.1z"/>
			<path class="st0" d="M289.6,138.1c0,0-67.1,41.2-73.3,50.9c1.6,20.7,6.3,52,4.9,65.9c0.2,3.7,0.3,7,0.3,10c5.3,8,26.4,7.8,31-2.4
				c4.7-10.3,2.5-36.2,3.9-37.7c2-2.1,3.7,3.3,3.7,3.3c-3.6,6-4.8,11.9-4.2,16.9c0.1-3,0.2-5.1,0.5-5.4c2-2.2,3.7,3.3,3.7,3.3
				c-1.3,2.2-2.3,4.4-3,6.6c2.8,6.8,10,10.9,20,9.7c18.6-2.1,59.2-2.6,97.9,8.1c28.8,7.9,60.5-0.4,74.8-5.2v-76.4
				C423.4,184,311.1,135,289.6,138.1z"/>
			<path class="st7" d="M359.9,142.6L256,246.5c1.8,8.5,9.5,14,20.9,12.6c3.3-0.4,7.3-0.7,11.9-0.9l104-104
				C382.1,150.4,370.9,146.4,359.9,142.6z"/>
			<path class="st7" d="M266.1,222.5c3.4-1.6,7-4.2,7-4.2s12.7-6.2,30.4-2.5c17.7,3.7,31.1-1.2,31.1-1.2l-45.2-32.8L258,195.8
				c0,0-2.3,2-2.3,6"/>
			<path class="st8" d="M277.8,216.9l0.7-5.8l30.9-14.9l21.3,17.9c0,0-19.5,4.5-27.4,2.8c-7.9-1.8-25.6,0.4-25.6,0.4"/>
			<path class="st9" d="M467.5,194.5"/>
			<g>
				<path class="st0" d="M449.6,164.4c0-2.9,2.3-5.2,5.2-5.2H498c2.8,0,5.2,2.3,5.2,5.2v107c0,2.8-2.3,5.2-5.2,5.2h-43.2
					c-2.8,0-5.2-2.3-5.2-5.2V164.4z"/>
				<path class="st7" d="M449.6,183.2c0-1.8,2.3-3.3,5.2-3.3H498c2.8,0,5.2,1.5,5.2,3.3v69.3c0,1.8-2.3,3.3-5.2,3.3h-43.2
					c-2.8,0-5.2-1.5-5.2-3.3V183.2z"/>
			</g>
			<g>
				<path class="st5" d="M449.6,164.4c0-2.9,2.3-5.2,5.2-5.2H498c2.8,0,5.2,2.3,5.2,5.2v107c0,2.8-2.3,5.2-5.2,5.2h-43.2
					c-2.8,0-5.2-2.3-5.2-5.2V164.4z"/>
			</g>
			<path class="st5" d="M260,228.1c-10.3,17.4-1.6,33.2,17,31c18.6-2.1,59.2-2.6,97.9,8.1c28.8,7.9,60.5-0.4,74.8-5.2v-91.1
				c-26.2-1.6-138.6-50.6-160-47.5c0,0-73.5,45.1-73.8,52c-0.9,18,6.8,68.9,4.7,83.2c-2.5,17.3,26.3,16.3,31.9,3.9
				c4.7-10.3,2.5-36.2,3.9-37.7C258.3,222.6,260,228.1,260,228.1z"/>
			<path class="st5" d="M255.7,231.1c0,0-0.1-22.7-0.1-35.4l34.5-15.8c0,0,32.2,25.6,45.3,34.3"/>
			<polyline class="st5" points="275.7,214.2 275.7,210.8 310.6,195.8 			"/>
			<rect x="481.1" y="152.4" class="st8" width="64.2" height="131.9"/>
			<rect x="481.1" y="167.5" class="st4" width="64.2" height="100.8"/>
			<polyline class="st5" points="545.2,152.4 481.1,152.4 481.1,284.3 545.2,284.3 			"/>
			<path class="st3" d="M255.7,222.5"/>
			<g>
				<polyline class="st0" points="238.2,286.5 196.9,305.6 216,264.3 				"/>
				<polyline class="st7" points="238.2,286.5 196.9,305.6 224.7,273 				"/>
				<polyline class="st10" points="238.2,286.5 196.9,305.6 216,264.3 				"/>
				<g>
					<g>
						<g>
							<g>
								<polygon class="st7" points="238.3,286.5 216,264.3 361.7,118.6 384,140.8 								"/>
								<g>
									<path class="st7" d="M232.2,270.3c7.9,1,17.3-1.4,20.2-7.8c1.7-3.7,2.5-9.4,2.9-15.3L232.2,270.3z"/>
								</g>
								<path class="st0" d="M351,129.2l16.4-16.4c6.2-6.1,16.1-6.1,22.2,0l0,0c6.1,6.1,6.2,16.1,0,22.2l-16.4,16.4"/>
							</g>
						</g>
					</g>
					<g>
						<g>
							<g>
								<polygon class="st8" points="224.7,273 238.3,286.5 384,140.8 370.4,127.3 								"/>
								<path class="st7" d="M376.1,121.5l-16.4,16.4l13.6,13.6l16.4-16.4c4.6-4.6,5.8-11.3,3.5-17
									C387.5,115.8,380.7,116.9,376.1,121.5z"/>
							</g>
						</g>
					</g>
					<g>
						<g>
							<g>
								<polyline class="st10" points="384,140.8 238.3,286.5 216,264.3 361.7,118.6 								"/>
								<path class="st10" d="M351,129.2l16.4-16.4c6.2-6.1,16.1-6.1,22.2,0l0,0c6.1,6.1,6.2,16.1,0,22.2l-16.4,16.4"/>
							</g>
						</g>
					</g>
				</g>
			</g>
			<path class="st0" d="M254.8,238.5c0,12.1,13.8,21.8,30.9,21.8c17,0,57.5-17.3,57.5-29.3c0-12.1-40.5-14.4-57.5-14.4
				C268.6,216.7,254.8,226.5,254.8,238.5z"/>
			<path class="st5" d="M256,238.5c0,0,6.4-27.1,41.7-23.3c46.4,5,50.1-8,50.4-9.8"/>
		</g>
		<path class="st5" d="M256.3,224.8c2-2.1,3.7,3.3,3.7,3.3c-10.3,17.4-1.6,33.2,17,31c18.6-2.1,59.2-2.6,97.9,8.1"/>
	</g>
	<g>
		<g>
			<polyline class="st2" points="415.2,478.2 417.6,468.4 380,459.4 375.5,478.2 			"/>
			<polyline class="st2" points="373.4,487.2 371,497 408.6,506 413.1,487.2 			"/>
		</g>
		<line class="st2" x1="370.1" y1="482.7" x2="418.5" y2="482.7"/>
		<g>
			<path class="st2" d="M372.3,482.7c0,0.8-0.7,1.5-1.5,1.5l0,0c-0.8,0-1.5-0.7-1.5-1.5l0,0c0-0.8,0.7-1.5,1.5-1.5l0,0
				C371.6,481.2,372.3,481.9,372.3,482.7L372.3,482.7z"/>
			<path class="st2" d="M419.4,482.7c0,0.8-0.7,1.5-1.5,1.5l0,0c-0.8,0-1.5-0.7-1.5-1.5l0,0c0-0.8,0.7-1.5,1.5-1.5l0,0
				C418.7,481.2,419.4,481.9,419.4,482.7L419.4,482.7z"/>
		</g>
	</g>
	<g>
		<g>
			<line class="st2" x1="371.5" y1="376.7" x2="358.4" y2="376.7"/>
			<path class="st2" d="M411.3,429.6V390c0-7.4-6-13.4-13.4-13.4h-14.8"/>
			<line class="st2" x1="417.7" y1="410.8" x2="430.2" y2="410.8"/>
			<path class="st2" d="M377.3,357.8v39.6c0,7.4,6,13.4,13.4,13.4h13.9"/>
		</g>
		<circle class="st2" cx="394.3" cy="393.7" r="5.8"/>
	</g>
	<g>
		<g>
			<path class="st11" d="M176.3,175.7H96.6c-4.8,0-8.6-3.9-8.6-8.6V87.4c0-4.7,3.9-8.6,8.6-8.6h79.7c4.8,0,8.6,3.9,8.6,8.6v79.7
				C184.9,171.8,181.1,175.7,176.3,175.7z"/>
		</g>
		<line class="st11" x1="90.6" y1="173.1" x2="182.3" y2="81.4"/>
		<g>
			<g>
				<line class="st11" x1="112" y1="91.1" x2="112" y2="114.6"/>
				<line class="st11" x1="123.8" y1="102.8" x2="100.3" y2="102.8"/>
			</g>
			<g>
				<path class="st11" d="M160.9,163.4"/>
				<path class="st11" d="M160.9,139.9"/>
				<line class="st11" x1="172.6" y1="151.7" x2="149.1" y2="151.7"/>
			</g>
		</g>
	</g>
	<g>
		<path class="st12" d="M150.3,470.9c0,13.3-10.8,24.1-24.1,24.1c-13.3,0-24.1-10.8-24.1-24.1c0-13.3,10.8-24.1,24.1-24.1
			C139.5,446.8,150.3,457.6,150.3,470.9z"/>
		<g>
			<line class="st12" x1="106.7" y1="437.3" x2="111.3" y2="445.2"/>
			<line class="st12" x1="141" y1="496.6" x2="145.6" y2="504.6"/>
		</g>
		<g>
			<line class="st12" x1="87.3" y1="470.9" x2="96.5" y2="470.9"/>
			<line class="st12" x1="155.9" y1="470.9" x2="165" y2="470.9"/>
		</g>
		<g>
			<line class="st12" x1="106.8" y1="504.5" x2="111.3" y2="496.6"/>
			<line class="st12" x1="141" y1="445.2" x2="145.6" y2="437.3"/>
		</g>
	</g>
	<g>
		<polyline class="st2" points="155.5,420 148.7,413.1 155.5,406.2 		"/>
		<polyline class="st2" points="232.1,406.2 239,413.1 232.1,420 		"/>
	</g>
	<g>
		<g>
			<g>
				<line class="st12" x1="188.9" y1="444.2" x2="230.2" y2="444.2"/>
				<line class="st12" x1="259.1" y1="444.2" x2="300.4" y2="444.2"/>
			</g>
			<rect x="240.7" y="440.3" class="st13" width="7.9" height="7.9"/>
		</g>
		<g>
			<g>
				<line class="st12" x1="188.9" y1="470.9" x2="209.6" y2="470.9"/>
				<line class="st12" x1="238.4" y1="470.9" x2="300.4" y2="470.9"/>
			</g>
			<rect x="220" y="466.9" class="st13" width="7.9" height="7.9"/>
		</g>
		<g>
			<g>
				<line class="st12" x1="188.9" y1="497.6" x2="230.2" y2="497.6"/>
				<line class="st12" x1="259.1" y1="497.6" x2="300.4" y2="497.6"/>
			</g>
			<rect x="240.7" y="493.6" class="st13" width="7.9" height="7.9"/>
		</g>
	</g>
	<g>
		<g>
			<g>
				<line class="st2" x1="545" y1="544.8" x2="537.4" y2="544.8"/>
				<line class="st2" x1="545" y1="534.9" x2="541.8" y2="534.9"/>
			</g>
			<g>
				<line class="st2" x1="545" y1="525.6" x2="537.4" y2="525.6"/>
				<line class="st2" x1="545" y1="515.6" x2="541.8" y2="515.6"/>
			</g>
			<g>
				<line class="st2" x1="545" y1="506.3" x2="537.4" y2="506.3"/>
				<line class="st2" x1="545" y1="496.4" x2="541.8" y2="496.4"/>
			</g>
			<g>
				<line class="st2" x1="545" y1="487.1" x2="537.4" y2="487.1"/>
				<line class="st2" x1="545" y1="477.2" x2="541.8" y2="477.2"/>
			</g>
			<g>
				<line class="st2" x1="545" y1="467.9" x2="537.4" y2="467.9"/>
				<line class="st2" x1="545" y1="458" x2="541.8" y2="458"/>
			</g>
			<g>
				<line class="st2" x1="545" y1="448.7" x2="537.4" y2="448.7"/>
				<line class="st2" x1="545" y1="438.8" x2="541.8" y2="438.8"/>
			</g>
		</g>
		<g>
			<g>
				<line class="st2" x1="545" y1="428.5" x2="537.4" y2="428.5"/>
				<line class="st2" x1="545" y1="418.6" x2="541.8" y2="418.6"/>
			</g>
			<g>
				<line class="st2" x1="545" y1="409.3" x2="537.4" y2="409.3"/>
				<line class="st2" x1="545" y1="399.4" x2="541.8" y2="399.4"/>
			</g>
			<g>
				<line class="st2" x1="545" y1="390.1" x2="537.4" y2="390.1"/>
				<line class="st2" x1="545" y1="380.2" x2="541.8" y2="380.2"/>
			</g>
			<g>
				<line class="st2" x1="545" y1="370.9" x2="537.4" y2="370.9"/>
				<line class="st2" x1="545" y1="360.9" x2="541.8" y2="360.9"/>
			</g>
			<g>
				<line class="st2" x1="545" y1="351.6" x2="537.4" y2="351.6"/>
				<line class="st2" x1="545" y1="341.7" x2="541.8" y2="341.7"/>
			</g>
			<g>
				<line class="st2" x1="545" y1="332.4" x2="537.4" y2="332.4"/>
				<line class="st2" x1="545" y1="322.5" x2="541.8" y2="322.5"/>
			</g>
		</g>
	</g>
	<g>
		<line class="st2" x1="444.1" y1="368.7" x2="508.7" y2="368.7"/>
		<line class="st2" x1="444.1" y1="381.2" x2="492.6" y2="381.2"/>
		<line class="st2" x1="444.1" y1="393.7" x2="508.7" y2="393.7"/>
		<line class="st2" x1="444.1" y1="406.2" x2="492.6" y2="406.2"/>
		<line class="st2" x1="444.1" y1="418.7" x2="508.7" y2="418.7"/>
	</g>
	<rect x="447.3" y="438.5" class="st6" width="13.3" height="97.4"/>
	<rect x="471.5" y="492.9" class="st6" width="13.3" height="43"/>
	<rect x="495.6" y="518.4" class="st6" width="9.3" height="17.5"/>
</g>
</svg>
