<?xml version="1.0" encoding="utf-8"?>
<!-- Generator: Adobe Illustrator 23.0.3, SVG Export Plug-In . SVG Version: 6.00 Build 0)  -->
<svg version="1.1" id="Layer_1" xmlns="http://www.w3.org/2000/svg" xmlns:xlink="http://www.w3.org/1999/xlink" x="0px" y="0px"
	 viewBox="0 0 600 600" style="enable-background:new 0 0 600 600;" xml:space="preserve">
<style type="text/css">
	.st0{fill:none;stroke:#C8DFF5;stroke-width:4;stroke-miterlimit:10;}
	.st1{fill:#C8DFF5;}
	.st2{fill:#AFD8F9;}
	.st3{fill:none;stroke:#2481D7;stroke-width:8;stroke-linecap:round;stroke-linejoin:round;stroke-miterlimit:10;}
	.st4{fill:#FFFFFF;}
	.st5{fill:#5BA1E1;}
	.st6{fill:#DEF4FC;}
	.st7{fill:#288DE8;}
	.st8{fill:none;stroke:#2481D7;stroke-width:4;stroke-linecap:round;stroke-linejoin:round;stroke-miterlimit:10;}
	.st9{fill:none;stroke:#2481D7;stroke-width:6;stroke-linecap:round;stroke-linejoin:round;stroke-miterlimit:10;}
	.st10{fill:none;stroke:#2481D7;stroke-width:4;stroke-linejoin:round;stroke-miterlimit:10;}
	.st11{fill:none;stroke:#FFFFFF;stroke-width:4;stroke-linecap:round;stroke-linejoin:round;stroke-miterlimit:10;}
	.st12{fill:none;stroke:#C8DFF5;stroke-width:4;stroke-linecap:round;stroke-miterlimit:10;}
</style>
<g>
	<g>
		<g>
			<g>
				<g>
					<line class="st0" x1="61" y1="500.6" x2="68.7" y2="500.6"/>
					<line class="st0" x1="73" y1="500.6" x2="73.8" y2="500.6"/>
					<line class="st0" x1="77" y1="500.6" x2="77.9" y2="500.6"/>
					<line class="st0" x1="81.1" y1="500.6" x2="82" y2="500.6"/>
				</g>
				<g>
					<line class="st0" x1="145.4" y1="500.6" x2="137.6" y2="500.6"/>
					<line class="st0" x1="133.4" y1="500.6" x2="132.6" y2="500.6"/>
					<line class="st0" x1="129.3" y1="500.6" x2="128.5" y2="500.6"/>
					<line class="st0" x1="125.2" y1="500.6" x2="124.4" y2="500.6"/>
				</g>
			</g>
			<g>
				<g>
					<line class="st0" x1="73.4" y1="470.8" x2="78.8" y2="476.3"/>
					<line class="st0" x1="81.8" y1="479.2" x2="82.4" y2="479.8"/>
					<line class="st0" x1="84.7" y1="482.1" x2="85.3" y2="482.7"/>
					<line class="st0" x1="87.6" y1="485" x2="88.2" y2="485.6"/>
				</g>
				<g>
					<line class="st0" x1="133" y1="530.4" x2="127.5" y2="525"/>
					<line class="st0" x1="124.6" y1="522" x2="124" y2="521.4"/>
					<line class="st0" x1="121.7" y1="519.1" x2="121.1" y2="518.5"/>
					<line class="st0" x1="118.8" y1="516.2" x2="118.2" y2="515.6"/>
				</g>
			</g>
			<g>
				<g>
					<line class="st0" x1="103.2" y1="458.5" x2="103.2" y2="466.2"/>
					<line class="st0" x1="103.2" y1="470.4" x2="103.2" y2="471.2"/>
					<line class="st0" x1="103.2" y1="474.5" x2="103.2" y2="475.3"/>
					<line class="st0" x1="103.2" y1="478.6" x2="103.2" y2="479.4"/>
				</g>
				<g>
					<line class="st0" x1="103.2" y1="542.8" x2="103.2" y2="535.1"/>
					<line class="st0" x1="103.2" y1="530.9" x2="103.2" y2="530"/>
					<line class="st0" x1="103.2" y1="526.8" x2="103.2" y2="525.9"/>
					<line class="st0" x1="103.2" y1="522.7" x2="103.2" y2="521.8"/>
				</g>
			</g>
			<g>
				<g>
					<line class="st0" x1="133" y1="470.8" x2="127.5" y2="476.3"/>
					<line class="st0" x1="124.6" y1="479.2" x2="124" y2="479.8"/>
					<line class="st0" x1="121.7" y1="482.1" x2="121.1" y2="482.7"/>
					<line class="st0" x1="118.8" y1="485" x2="118.2" y2="485.6"/>
				</g>
				<g>
					<line class="st0" x1="73.4" y1="530.4" x2="78.8" y2="525"/>
					<line class="st0" x1="81.8" y1="522" x2="82.4" y2="521.4"/>
					<line class="st0" x1="84.7" y1="519.1" x2="85.3" y2="518.5"/>
					<line class="st0" x1="87.6" y1="516.2" x2="88.2" y2="515.6"/>
				</g>
			</g>
			<g>
				<path class="st0" d="M103.2,462c21.3,0,38.6,17.3,38.6,38.6"/>
				<path class="st0" d="M103.2,539.2c-21.3,0-38.6-17.3-38.6-38.6"/>
			</g>
			<g>
				<path class="st0" d="M120.7,500.6c0,9.7-7.8,17.5-17.5,17.5"/>
				<path class="st0" d="M85.7,500.6c0-9.7,7.8-17.5,17.5-17.5"/>
			</g>
		</g>
		<g>
			<g>
				<g>
					<line class="st0" x1="454.6" y1="500.6" x2="462.4" y2="500.6"/>
					<line class="st0" x1="466.6" y1="500.6" x2="467.4" y2="500.6"/>
					<line class="st0" x1="470.7" y1="500.6" x2="471.5" y2="500.6"/>
					<line class="st0" x1="474.8" y1="500.6" x2="475.6" y2="500.6"/>
				</g>
				<g>
					<line class="st0" x1="539" y1="500.6" x2="531.3" y2="500.6"/>
					<line class="st0" x1="527" y1="500.6" x2="526.2" y2="500.6"/>
					<line class="st0" x1="523" y1="500.6" x2="522.1" y2="500.6"/>
					<line class="st0" x1="518.9" y1="500.6" x2="518" y2="500.6"/>
				</g>
			</g>
			<g>
				<g>
					<line class="st0" x1="467" y1="470.8" x2="472.5" y2="476.3"/>
					<line class="st0" x1="475.4" y1="479.2" x2="476" y2="479.8"/>
					<line class="st0" x1="478.3" y1="482.1" x2="478.9" y2="482.7"/>
					<line class="st0" x1="481.2" y1="485" x2="481.8" y2="485.6"/>
				</g>
				<g>
					<line class="st0" x1="526.6" y1="530.4" x2="521.2" y2="525"/>
					<line class="st0" x1="518.2" y1="522" x2="517.6" y2="521.4"/>
					<line class="st0" x1="515.3" y1="519.1" x2="514.7" y2="518.5"/>
					<line class="st0" x1="512.4" y1="516.2" x2="511.8" y2="515.6"/>
				</g>
			</g>
			<g>
				<g>
					<line class="st0" x1="496.8" y1="458.5" x2="496.8" y2="466.2"/>
					<line class="st0" x1="496.8" y1="470.4" x2="496.8" y2="471.2"/>
					<line class="st0" x1="496.8" y1="474.5" x2="496.8" y2="475.3"/>
					<line class="st0" x1="496.8" y1="478.6" x2="496.8" y2="479.4"/>
				</g>
				<g>
					<line class="st0" x1="496.8" y1="542.8" x2="496.8" y2="535.1"/>
					<line class="st0" x1="496.8" y1="530.9" x2="496.8" y2="530"/>
					<line class="st0" x1="496.8" y1="526.8" x2="496.8" y2="525.9"/>
					<line class="st0" x1="496.8" y1="522.7" x2="496.8" y2="521.8"/>
				</g>
			</g>
			<g>
				<g>
					<line class="st0" x1="526.6" y1="470.8" x2="521.2" y2="476.3"/>
					<line class="st0" x1="518.2" y1="479.2" x2="517.6" y2="479.8"/>
					<line class="st0" x1="515.3" y1="482.1" x2="514.7" y2="482.7"/>
					<line class="st0" x1="512.4" y1="485" x2="511.8" y2="485.6"/>
				</g>
				<g>
					<line class="st0" x1="467" y1="530.4" x2="472.5" y2="525"/>
					<line class="st0" x1="475.4" y1="522" x2="476" y2="521.4"/>
					<line class="st0" x1="478.3" y1="519.1" x2="478.9" y2="518.5"/>
					<line class="st0" x1="481.2" y1="516.2" x2="481.8" y2="515.6"/>
				</g>
			</g>
			<g>
				<path class="st0" d="M496.8,462c21.3,0,38.6,17.3,38.6,38.6"/>
				<path class="st0" d="M496.8,539.2c-21.3,0-38.6-17.3-38.6-38.6"/>
			</g>
			<g>
				<path class="st0" d="M514.3,500.6c0,9.7-7.8,17.5-17.5,17.5"/>
				<path class="st0" d="M479.3,500.6c0-9.7,7.8-17.5,17.5-17.5"/>
			</g>
		</g>
	</g>
	<g>
		<g>
			<path class="st1" d="M347,524.9v-50h-91.7v50c0,11.5-9.3,20.8-20.8,20.8h133.3C356.4,545.7,347,536.4,347,524.9z"/>
			<rect x="255.4" y="474.9" class="st2" width="91.7" height="38.5"/>
			<path class="st3" d="M347,524.9v-50h-91.7v50c0,11.5-9.3,20.8-20.8,20.8h133.3C356.4,545.7,347,536.4,347,524.9z"/>
			<line class="st3" x1="182.5" y1="545.7" x2="420" y2="545.7"/>
			<g>
				<g>
					<line class="st3" x1="164.4" y1="545.7" x2="164.4" y2="545.7"/>
					<line class="st3" x1="147" y1="545.7" x2="147" y2="545.7"/>
					<line class="st3" x1="129.7" y1="545.7" x2="129.7" y2="545.7"/>
				</g>
				<g>
					<line class="st3" x1="472.8" y1="545.7" x2="472.8" y2="545.7"/>
					<line class="st3" x1="455.4" y1="545.7" x2="455.4" y2="545.7"/>
					<line class="st3" x1="438" y1="545.7" x2="438" y2="545.7"/>
				</g>
			</g>
		</g>
		<path class="st4" d="M546.4,454.1c0,11.5-9.3,20.8-20.8,20.8H74.5c-11.5,0-20.8-9.3-20.8-20.8V156.6c0-11.5,9.3-20.8,20.8-20.8
			h451.1c11.5,0,20.8,9.3,20.8,20.8V454.1z"/>
		<path class="st5" d="M525.5,135.7H74.5c-11.5,0-20.8,9.3-20.8,20.8V425h492.7V156.6C546.4,145.1,537,135.7,525.5,135.7z"/>
		<path class="st1" d="M525.5,148.9H74.5c-11.5,0-20.8,9.3-20.8,20.8v284.3c0,11.5,9.3,20.8,20.8,20.8h451.1
			c11.5,0,20.8-9.3,20.8-20.8V169.8C546.4,158.3,537,148.9,525.5,148.9z"/>
		<path class="st6" d="M525.5,148.9H74.5c-11.5,0-20.8,9.3-20.8,20.8v267.4c0,11.5,9.3,20.8,20.8,20.8h451.1
			c11.5,0,20.8-9.3,20.8-20.8V169.8C546.4,158.3,537,148.9,525.5,148.9z"/>
		<path class="st7" d="M525.5,148.9H74.5c-11.5,0-20.8,9.3-20.8,20.8V425h492.7V169.8C546.4,158.3,537,148.9,525.5,148.9z"/>
		<path class="st3" d="M546.4,454.1c0,11.5-9.3,20.8-20.8,20.8H74.5c-11.5,0-20.8-9.3-20.8-20.8V156.6c0-11.5,9.3-20.8,20.8-20.8
			h451.1c11.5,0,20.8,9.3,20.8,20.8V454.1z"/>
		<g>
			<path class="st4" d="M520.7,405.7c0,10.7-8.7,19.4-19.4,19.4H98.6c-10.7,0-19.4-8.7-19.4-19.4V180.8c0-10.7,8.7-19.4,19.4-19.4
				h402.7c10.7,0,19.4,8.7,19.4,19.4V405.7z"/>
			<g>
				<path class="st1" d="M501.4,161.5H98.6c-10.7,0-19.4,8.7-19.4,19.4v4.9h441.5v-4.9C520.7,170.1,512.1,161.5,501.4,161.5z"/>
				<path class="st8" d="M501.4,161.5H98.6c-10.7,0-19.4,8.7-19.4,19.4v4.9h441.5v-4.9C520.7,170.1,512.1,161.5,501.4,161.5z"/>
			</g>
			<path class="st9" d="M520.7,405.7c0,10.7-8.7,19.4-19.4,19.4H98.6c-10.7,0-19.4-8.7-19.4-19.4V180.8c0-10.7,8.7-19.4,19.4-19.4
				h402.7c10.7,0,19.4,8.7,19.4,19.4V405.7z"/>
			<line class="st3" x1="546.4" y1="425" x2="56.1" y2="425"/>
		</g>
		<g>
			<path class="st5" d="M309.2,454.2c-0.3-0.1-2.6-1.2-2.6-4.1c0-2.3,1.6-3.5,2.2-3.8c0.1-0.1,0.2-0.2,0.2-0.3c0-0.1,0-0.3-0.1-0.4
				c-1.5-2.2-3.8-2.4-4.4-2.5c-1.2-0.1-2.3,0.3-3.2,0.7c-0.5,0.2-0.9,0.4-1.1,0.4c-0.3,0-0.7-0.2-1.2-0.4c-0.7-0.3-1.5-0.6-2.5-0.6
				h0c-2,0-4,1.2-5,3.1c-2,3.5-0.7,8.7,1.4,11.9c0.8,1.2,2.1,3.1,3.8,3.1c0,0,0.1,0,0.1,0c0.7,0,1.3-0.3,1.8-0.5
				c0.5-0.2,1-0.4,1.8-0.4c0.8,0,1.2,0.2,1.7,0.4c0.5,0.2,1.1,0.5,1.9,0.5h0c1.8,0,2.9-1.7,3.8-3c1-1.4,1.4-2.8,1.6-3.3
				C309.6,454.6,309.4,454.3,309.2,454.2z"/>
			<path class="st5" d="M303.1,440c0.7-0.9,1.1-1.9,1.1-3c-0.9,0.2-2,0.8-2.6,1.6c-0.6,0.7-1.2,1.8-1.2,2.9
				C301.4,441.4,302.4,440.9,303.1,440z"/>
		</g>
	</g>
	<g>
		<rect x="209.4" y="218.1" class="st1" width="275.3" height="25.1"/>
		<rect x="452.4" y="218.1" class="st5" width="32.3" height="25.1"/>
		<line class="st10" x1="209.8" y1="335.1" x2="284.3" y2="335.1"/>
		<line class="st10" x1="209.8" y1="347.9" x2="284.3" y2="347.9"/>
		<line class="st10" x1="209.8" y1="360.8" x2="284.3" y2="360.8"/>
		<line class="st10" x1="209.8" y1="373.6" x2="284.3" y2="373.6"/>
		<line class="st10" x1="209.8" y1="386.4" x2="247" y2="386.4"/>
		<line class="st10" x1="301.9" y1="386.4" x2="339.1" y2="386.4"/>
		<line class="st10" x1="355" y1="386.4" x2="392.2" y2="386.4"/>
		<line class="st10" x1="344.9" y1="386.4" x2="349.2" y2="386.4"/>
		<line class="st10" x1="301.9" y1="373.6" x2="339.1" y2="373.6"/>
		<line class="st10" x1="355" y1="373.6" x2="392.2" y2="373.6"/>
		<line class="st10" x1="344.9" y1="373.6" x2="349.2" y2="373.6"/>
		<g>
			<line class="st10" x1="484.7" y1="272.4" x2="410.2" y2="272.4"/>
			<line class="st10" x1="484.7" y1="285.3" x2="410.2" y2="285.3"/>
			<line class="st10" x1="484.7" y1="298.1" x2="410.2" y2="298.1"/>
			<line class="st10" x1="484.7" y1="310.9" x2="410.2" y2="310.9"/>
			<line class="st10" x1="484.7" y1="323.7" x2="447.5" y2="323.7"/>
		</g>
		<rect x="209.4" y="270.4" class="st1" width="75.3" height="47.3"/>
		<polygon class="st5" points="284.7,303.6 270.8,289.7 261.5,299 248.4,285.9 224.1,310.3 216.1,302.3 209.4,309.1 209.4,317.8 
			284.7,317.8 		"/>
		<circle class="st4" cx="226.8" cy="284.8" r="6.9"/>
		<g>
			<path class="st11" d="M469.9,225.8c1.7,1.7,1.7,4.5,0,6.2c-1.7,1.7-4.5,1.7-6.2,0c-1.7-1.7-1.7-4.5,0-6.2
				C465.4,224.1,468.2,224.1,469.9,225.8z"/>
			<line class="st11" x1="469.9" y1="232" x2="474.7" y2="236.8"/>
		</g>
		<path class="st5" d="M392.2,315.6c0,24.9-20.2,45.2-45.2,45.2c-24.9,0-45.2-20.2-45.2-45.2c0-24.9,20.2-45.2,45.2-45.2
			C372,270.4,392.2,290.6,392.2,315.6z"/>
		<path class="st7" d="M347,270.4v45.2h45.2C392.2,290.6,372,270.4,347,270.4z"/>
		<g>
			<rect x="410.2" y="348.6" class="st7" width="32.8" height="39.2"/>
			<g>
				<g>
					<path class="st5" d="M435.3,376.2H434c-1.9,0-3.4-1.5-3.4-3.4v-0.5c1.4-0.8,2.4-2.2,2.4-3.9v-5.5c0-2.5-2-4.5-4.5-4.5h-3.6
						c-2.5,0-4.5,2-4.5,4.5v5.5c0,1.7,0.9,3.2,2.3,3.9v0.5c0,1.9-1.5,3.4-3.4,3.4H418c-3.1,0-5.6,2.5-5.6,5.6v3.9h28.4v-3.9
						C440.8,378.7,438.4,376.2,435.3,376.2z"/>
				</g>
			</g>
		</g>
		<g>
			<rect x="451.9" y="348.6" class="st7" width="32.8" height="39.2"/>
			<g>
				<g>
					<path class="st5" d="M477,376.2h-1.3c-1.9,0-3.4-1.5-3.4-3.4v-0.5c1.4-0.8,2.4-2.2,2.4-3.9v-5.5c0-2.5-2-4.5-4.5-4.5h-3.6
						c-2.5,0-4.5,2-4.5,4.5v5.5c0,1.7,0.9,3.2,2.3,3.9v0.5c0,1.9-1.5,3.4-3.4,3.4h-1.3c-3.1,0-5.6,2.5-5.6,5.6v3.9h28.4v-3.9
						C482.5,378.7,480,376.2,477,376.2z"/>
				</g>
			</g>
		</g>
	</g>
	<g>
		<g>
			<path class="st4" d="M220.9,354c0,6.5-5.3,11.8-11.8,11.8H65.5c-6.5,0-11.8-5.3-11.8-11.8V66.1c0-6.5,5.3-11.8,11.8-11.8h143.6
				c6.5,0,11.8,5.3,11.8,11.8V354z"/>
			<path class="st6" d="M204.4,354c0,6.5-4.3,11.8-9.5,11.8H79.6c-5.2,0-9.5-5.3-9.5-11.8V66.1c0-6.5,4.3-11.8,9.5-11.8h115.3
				c5.2,0,9.5,5.3,9.5,11.8V354z"/>
			<path class="st3" d="M220.9,354c0,6.5-5.3,11.8-11.8,11.8H65.5c-6.5,0-11.8-5.3-11.8-11.8V66.1c0-6.5,5.3-11.8,11.8-11.8h143.6
				c6.5,0,11.8,5.3,11.8,11.8V354z"/>
			<rect x="53.6" y="92" class="st1" width="167.2" height="236.1"/>
			<rect x="70.1" y="92" class="st6" width="134.3" height="236.1"/>
			<polygon class="st6" points="220.9,92 53.6,92 55.2,184.4 198.9,328.1 220.9,328.1 220.9,161.9 			"/>
			<polygon class="st4" points="151,92 147.6,92 70.1,92 70.1,199.3 198.9,328.1 204.4,328.1 204.4,92.3 			"/>
			<rect x="53.6" y="92" class="st3" width="167.2" height="236.1"/>
			<path class="st2" d="M155.6,349c0,3.6-2.9,6.5-6.5,6.5h-23.7c-3.6,0-6.5-2.9-6.5-6.5v-4.4c0-3.6,2.9-6.5,6.5-6.5h23.7
				c3.6,0,6.5,2.9,6.5,6.5V349z"/>
			<path class="st7" d="M167.1,73.6c0,1.4-1.1,2.5-2.5,2.5h-54.6c-1.4,0-2.5-1.1-2.5-2.5l0,0c0-1.4,1.1-2.5,2.5-2.5h54.6
				C166,71.1,167.1,72.2,167.1,73.6L167.1,73.6z"/>
			<path class="st7" d="M198.9,73.6c0,2.2-1.8,4-4,4c-2.2,0-4-1.8-4-4c0-2.2,1.8-4,4-4C197.1,69.6,198.9,71.4,198.9,73.6z"/>
		</g>
	</g>
	<g>
		<rect x="70.1" y="132.7" class="st1" width="134.3" height="16.3"/>
		<rect x="183.4" y="132.7" class="st5" width="21" height="16.3"/>
		<g>
			<path class="st11" d="M194.5,138.7c0.8,0.8,0.8,2,0,2.8c-0.8,0.8-2,0.8-2.8,0c-0.8-0.8-0.8-2,0-2.8
				C192.5,138,193.8,138,194.5,138.7z"/>
			<line class="st11" x1="194.5" y1="141.5" x2="196.6" y2="143.6"/>
		</g>
	</g>
	<line class="st10" x1="70.1" y1="106.4" x2="81.7" y2="106.4"/>
	<line class="st10" x1="70.1" y1="113.4" x2="81.7" y2="113.4"/>
	<line class="st10" x1="70.1" y1="120.4" x2="81.7" y2="120.4"/>
	<g>
		<line class="st10" x1="91.4" y1="243.5" x2="183.2" y2="243.5"/>
		<line class="st10" x1="91.4" y1="257" x2="183.2" y2="257"/>
		<line class="st10" x1="91.4" y1="270.4" x2="183.2" y2="270.4"/>
		<line class="st10" x1="91.4" y1="283.9" x2="183.2" y2="283.9"/>
		<line class="st10" x1="91.4" y1="297.3" x2="137.3" y2="297.3"/>
		<rect x="90.8" y="169.2" class="st1" width="92.8" height="58.3"/>
		<polygon class="st5" points="183.7,210.1 166.5,192.9 155,204.4 138.9,188.3 108.9,218.3 99.2,208.6 90.8,216.9 90.8,227.6 
			183.7,227.6 		"/>
		<circle class="st4" cx="112.3" cy="186.9" r="8.5"/>
	</g>
	<g>
		<g>
			<g>
				<g>
					<g>
						<g>
							<line class="st12" x1="252.2" y1="107.3" x2="242.7" y2="116.8"/>
							<line class="st12" x1="260.1" y1="99.5" x2="259.5" y2="100"/>
							<polyline class="st12" points="252.1,116.8 242.7,116.8 242.7,107.5 							"/>
						</g>
						<g>
							<line class="st12" x1="284.8" y1="74.7" x2="294.3" y2="65.2"/>
							<line class="st12" x1="277" y1="82.6" x2="277.5" y2="82"/>
							<polyline class="st12" points="285,65.2 294.3,65.2 294.3,74.6 							"/>
						</g>
					</g>
				</g>
				<g>
					<g>
						<g>
							<line class="st12" x1="284.8" y1="107.3" x2="294.3" y2="116.8"/>
							<line class="st12" x1="277" y1="99.5" x2="277.5" y2="100"/>
							<polyline class="st12" points="285,116.8 294.3,116.8 294.3,107.5 							"/>
						</g>
						<g>
							<line class="st12" x1="252.2" y1="74.7" x2="242.7" y2="65.2"/>
							<line class="st12" x1="260.1" y1="82.6" x2="259.5" y2="82"/>
							<polyline class="st12" points="252.1,65.2 242.7,65.2 242.7,74.6 							"/>
						</g>
					</g>
				</g>
			</g>
		</g>
		<rect x="264.8" y="87.3" class="st12" width="7.4" height="7.4"/>
	</g>
	<g>
		<g>
			<line class="st0" x1="305.6" y1="116.8" x2="305.6" y2="109.1"/>
			<line class="st0" x1="315.7" y1="116.8" x2="315.7" y2="113.6"/>
		</g>
		<g>
			<line class="st0" x1="325.2" y1="116.8" x2="325.2" y2="109.1"/>
			<line class="st0" x1="335.3" y1="116.8" x2="335.3" y2="113.6"/>
		</g>
		<g>
			<line class="st0" x1="344.8" y1="116.8" x2="344.8" y2="109.1"/>
			<line class="st0" x1="354.9" y1="116.8" x2="354.9" y2="113.6"/>
		</g>
		<g>
			<line class="st0" x1="364.4" y1="116.8" x2="364.4" y2="109.1"/>
			<line class="st0" x1="374.5" y1="116.8" x2="374.5" y2="113.6"/>
		</g>
		<g>
			<line class="st0" x1="383.9" y1="116.8" x2="383.9" y2="109.1"/>
			<line class="st0" x1="394.1" y1="116.8" x2="394.1" y2="113.6"/>
		</g>
		<g>
			<line class="st0" x1="403.6" y1="116.8" x2="403.5" y2="109.1"/>
			<line class="st0" x1="413.7" y1="116.8" x2="413.7" y2="113.6"/>
		</g>
	</g>
	<g>
		<g>
			<line class="st0" x1="424.1" y1="116.8" x2="424.1" y2="109.1"/>
			<line class="st0" x1="434.2" y1="116.8" x2="434.2" y2="113.6"/>
		</g>
		<g>
			<line class="st0" x1="443.7" y1="116.8" x2="443.7" y2="109.1"/>
			<line class="st0" x1="453.8" y1="116.8" x2="453.8" y2="113.6"/>
		</g>
		<g>
			<line class="st0" x1="463.2" y1="116.8" x2="463.2" y2="109.1"/>
			<line class="st0" x1="473.4" y1="116.8" x2="473.4" y2="113.6"/>
		</g>
		<g>
			<line class="st0" x1="482.8" y1="116.8" x2="482.8" y2="109.1"/>
			<line class="st0" x1="493" y1="116.8" x2="493" y2="113.6"/>
		</g>
		<g>
			<line class="st0" x1="502.4" y1="116.8" x2="502.4" y2="109.1"/>
			<line class="st0" x1="512.5" y1="116.8" x2="512.5" y2="113.6"/>
		</g>
		<g>
			<line class="st0" x1="522" y1="116.8" x2="522" y2="109.1"/>
			<line class="st0" x1="532.1" y1="116.8" x2="532.1" y2="113.6"/>
		</g>
	</g>
	<g>
		<g>
			<line class="st0" x1="166.4" y1="497.2" x2="224.5" y2="497.2"/>
			<line class="st0" x1="166.4" y1="509.4" x2="224.5" y2="509.4"/>
			<line class="st0" x1="166.4" y1="521.6" x2="224.5" y2="521.6"/>
		</g>
		<g>
			<line class="st0" x1="375.5" y1="497.2" x2="433.6" y2="497.2"/>
			<line class="st0" x1="375.5" y1="509.4" x2="433.6" y2="509.4"/>
			<line class="st0" x1="375.5" y1="521.6" x2="433.6" y2="521.6"/>
		</g>
	</g>
	<polyline class="st0" points="351,82.6 357.3,88.9 377,69.2 	"/>
	<polyline class="st0" points="391.5,82.6 397.8,88.9 417.6,69.2 	"/>
	<polyline class="st0" points="432.1,82.6 438.4,88.9 458.1,69.2 	"/>
	<polyline class="st0" points="472.7,82.6 479,88.9 498.7,69.2 	"/>
</g>
</svg>
