<?xml version="1.0" encoding="utf-8"?>
<!-- Generator: Adobe Illustrator 23.0.3, SVG Export Plug-In . SVG Version: 6.00 Build 0)  -->
<svg version="1.1" id="Layer_1" xmlns="http://www.w3.org/2000/svg" xmlns:xlink="http://www.w3.org/1999/xlink" x="0px" y="0px"
	 viewBox="0 0 600 600" style="enable-background:new 0 0 600 600;" xml:space="preserve">
<style type="text/css">
	.st0{fill:#DEF4FC;}
	.st1{fill:none;stroke:#C8DFF5;stroke-width:4;stroke-miterlimit:10;}
	.st2{fill:none;stroke:#C8DFF5;stroke-width:4;stroke-miterlimit:10;stroke-dasharray:4,4;}
	.st3{fill:#FFFFFF;}
	.st4{fill:none;stroke:#2481D7;stroke-width:8;stroke-linecap:round;stroke-linejoin:bevel;stroke-miterlimit:10;}
	.st5{fill:#288DE8;}
	.st6{fill:#5BA1E1;}
	.st7{fill:#E9F6FF;}
	.st8{fill:none;stroke:#2481D7;stroke-width:6;stroke-linecap:round;stroke-linejoin:round;stroke-miterlimit:10;}
	.st9{fill:none;stroke:#2481D7;stroke-width:4;stroke-linecap:round;stroke-linejoin:bevel;stroke-miterlimit:10;}
	.st10{fill:#AFD8F9;}
	.st11{fill:#C8DFF5;}
	.st12{fill:none;stroke:#2481D7;stroke-width:4;stroke-linecap:round;stroke-linejoin:round;stroke-miterlimit:10;}
	.st13{fill:#6AB0E5;}
	.st14{fill:none;stroke:#2481D7;stroke-width:8;stroke-linecap:round;stroke-linejoin:round;stroke-miterlimit:10;}
</style>
<g>
	<g>
		<g>
			<path class="st0" d="M300,70.2c125.9,0,227.9,102,227.8,227.8L300,298L300,70.2L300,70.2z"/>
			<path class="st0" d="M300,525.8c-125.9,0-227.9-102-227.8-227.8l227.8,0L300,525.8C300,525.8,300,525.8,300,525.8z"/>
		</g>
		<g>
			<g>
				<g>
					<g>
						<path class="st1" d="M300,203.8c52.1,0,94.2,42.2,94.2,94.2"/>
						<path class="st1" d="M300,392.2c-52,0-94.2-42.2-94.2-94.2"/>
					</g>
					<g>
						<path class="st2" d="M205.8,298c0-52,42.2-94.2,94.2-94.2"/>
						<path class="st2" d="M394.2,298c0,52-42.2,94.2-94.2,94.2"/>
					</g>
				</g>
				<g>
					<g>
						<path class="st1" d="M438.9,159.1c76.7,76.7,76.7,201.1,0,277.8"/>
						<path class="st1" d="M161.1,436.9c-76.7-76.7-76.7-201.1,0-277.8"/>
					</g>
					<g>
						<path class="st2" d="M161.1,159.1c76.7-76.7,201.1-76.7,277.8,0"/>
						<path class="st2" d="M438.9,436.9c-76.7,76.7-201.1,76.7-277.8,0"/>
					</g>
				</g>
			</g>
			<g>
				<line class="st1" x1="548.4" y1="298" x2="459.9" y2="298"/>
				<line class="st1" x1="140.1" y1="298" x2="51.6" y2="298"/>
			</g>
			<g>
				<line class="st1" x1="300" y1="546.4" x2="300" y2="457.9"/>
				<line class="st1" x1="300" y1="138.1" x2="300" y2="49.6"/>
			</g>
		</g>
		<g>
			<path class="st3" d="M186.6,298c0,31.9-25.9,57.8-57.8,57.8c-31.9,0-57.8-25.9-57.8-57.8c0-31.9,25.9-57.8,57.8-57.8
				C160.8,240.2,186.6,266.1,186.6,298z"/>
			<path class="st0" d="M169.7,257.1c22.6,22.6,22.6,59.2,0,81.7c-22.6,22.6-59.2,22.6-81.7,0"/>
			<path class="st4" d="M186.6,298c0,31.9-25.9,57.8-57.8,57.8c-31.9,0-57.8-25.9-57.8-57.8c0-31.9,25.9-57.8,57.8-57.8
				C160.8,240.2,186.6,266.1,186.6,298z"/>
		</g>
		<g>
			<path class="st4" d="M117.7,403.5"/>
			<path class="st4" d="M140,403.5"/>
			<line class="st4" x1="117.7" y1="381.2" x2="128.8" y2="381.2"/>
			<line class="st4" x1="140" y1="425.9" x2="117.7" y2="425.9"/>
			<path class="st4" d="M140,403.5"/>
			<line class="st4" x1="128.8" y1="381.2" x2="128.8" y2="425.9"/>
			<path class="st4" d="M117.7,403.5"/>
		</g>
		<g>
			<path class="st3" d="M357.8,298c0,31.9-25.9,57.8-57.8,57.8c-31.9,0-57.8-25.9-57.8-57.8c0-31.9,25.9-57.8,57.8-57.8
				C331.9,240.2,357.8,266.1,357.8,298z"/>
			<path class="st0" d="M340.9,257.1c22.6,22.6,22.6,59.2,0,81.7c-22.6,22.6-59.2,22.6-81.7,0"/>
			<path class="st4" d="M357.8,298c0,31.9-25.9,57.8-57.8,57.8c-31.9,0-57.8-25.9-57.8-57.8c0-31.9,25.9-57.8,57.8-57.8
				C331.9,240.2,357.8,266.1,357.8,298z"/>
		</g>
		<g>
			<polyline class="st4" points="288.8,381.2 311.2,381.2 311.2,403.5 288.8,403.5 			"/>
			<polyline class="st4" points="311.2,425.9 288.8,425.9 288.8,403.5 311.2,403.5 			"/>
		</g>
		<g>
			<path class="st5" d="M528.9,298c0,31.9-25.9,57.8-57.8,57.8c-31.9,0-57.8-25.9-57.8-57.8c0-31.9,25.9-57.8,57.8-57.8
				C503.1,240.2,528.9,266.1,528.9,298z"/>
			<path class="st6" d="M512,257.1c22.6,22.6,22.6,59.2,0,81.7c-22.6,22.6-59.2,22.6-81.7,0"/>
			<path class="st4" d="M528.9,298c0,31.9-25.9,57.8-57.8,57.8c-31.9,0-57.8-25.9-57.8-57.8c0-31.9,25.9-57.8,57.8-57.8
				C503.1,240.2,528.9,266.1,528.9,298z"/>
		</g>
		<g>
			<polyline class="st4" points="460,381.2 482.3,381.2 482.3,403.5 460,403.5 			"/>
			<polyline class="st4" points="460,403.5 482.3,403.5 482.3,425.9 460,425.9 			"/>
		</g>
		<g>
			<g>
				<path class="st7" d="M457.6,220.4c-3.2,0-6.4-1.2-8.8-3.6L428.2,196c-4.8-4.8-4.8-12.7,0-17.5c4.8-4.8,12.7-4.8,17.5,0
					l11.9,11.9l38.9-38.9c4.8-4.8,12.7-4.8,17.6,0c4.8,4.8,4.8,12.7,0,17.5l-47.7,47.7C464,219.1,460.8,220.4,457.6,220.4z"/>
			</g>
			<path class="st3" d="M496.6,151.5l-38.9,38.9l-11.9-11.9c-4.8-4.8-12.7-4.8-17.5,0c-0.1,0.1-0.2,0.2-0.3,0.3
				c0.1,0.1,0.2,0.2,0.3,0.3l20.7,20.7c2.4,2.4,5.6,3.6,8.8,3.6c3.2,0,6.4-1.2,8.8-3.6l47.7-47.7c0.1-0.1,0.2-0.2,0.3-0.3
				c-0.1-0.1-0.2-0.2-0.3-0.3C509.3,146.6,501.4,146.6,496.6,151.5z"/>
			<g>
				<path class="st8" d="M457.6,220.4c-3.2,0-6.4-1.2-8.8-3.6L428.2,196c-4.8-4.8-4.8-12.7,0-17.5c4.8-4.8,12.7-4.8,17.5,0
					l11.9,11.9l38.9-38.9c4.8-4.8,12.7-4.8,17.6,0c4.8,4.8,4.8,12.7,0,17.5l-47.7,47.7C464,219.1,460.8,220.4,457.6,220.4z"/>
			</g>
		</g>
		<g>
			<line class="st1" x1="338.2" y1="395.6" x2="402.9" y2="395.6"/>
			<line class="st1" x1="338.2" y1="408.1" x2="386.8" y2="408.1"/>
			<line class="st1" x1="338.2" y1="420.6" x2="402.9" y2="420.6"/>
			<line class="st1" x1="338.2" y1="433.1" x2="386.8" y2="433.1"/>
			<line class="st1" x1="338.2" y1="445.6" x2="402.9" y2="445.6"/>
		</g>
		<g>
			<line class="st1" x1="338.2" y1="503.4" x2="386.8" y2="503.4"/>
			<line class="st1" x1="338.2" y1="515.9" x2="402.9" y2="515.9"/>
			<line class="st1" x1="338.2" y1="528.4" x2="386.8" y2="528.4"/>
			<line class="st1" x1="338.2" y1="540.9" x2="402.9" y2="540.9"/>
		</g>
		<g>
			<path class="st9" d="M128.8,279.3c-13.2,0-24.7,7.6-30.2,18.7c5.6,11.1,17,18.7,30.2,18.7c13.2,0,24.7-7.6,30.2-18.7
				C153.5,286.9,142.1,279.3,128.8,279.3z"/>
			<g>
				<path class="st9" d="M130.7,298c0,1-0.8,1.9-1.9,1.9c-1,0-1.9-0.8-1.9-1.9c0-1,0.8-1.9,1.9-1.9C129.9,296.1,130.7,297,130.7,298
					z"/>
			</g>
		</g>
		<g>
			<path class="st10" d="M300,279.3c-13.2,0-24.7,7.6-30.2,18.7c5.6,11.1,17,18.7,30.2,18.7c13.2,0,24.7-7.6,30.2-18.7
				C324.6,286.9,313.2,279.3,300,279.3z"/>
		</g>
		<g>
			<path class="st11" d="M330.2,298c-5.6-11.1-17-18.7-30.2-18.7c-13.2,0-24.7,7.6-30.2,18.7"/>
		</g>
		<g>
			<path class="st1" d="M471.1,279.3c-13.2,0-24.7,7.6-30.2,18.7c5.6,11.1,17,18.7,30.2,18.7c13.2,0,24.7-7.6,30.2-18.7
				C495.8,286.9,484.4,279.3,471.1,279.3z"/>
			<g>
				<path class="st1" d="M473,298c0,1-0.8,1.9-1.9,1.9c-1,0-1.9-0.8-1.9-1.9c0-1,0.8-1.9,1.9-1.9C472.1,296.1,473,297,473,298z"/>
			</g>
		</g>
		<circle class="st6" cx="300" cy="298" r="11.5"/>
		<path class="st5" d="M311.5,298c0,6.4-5.1,11.5-11.5,11.5c-6.4,0-11.5-5.1-11.5-11.5"/>
		<g>
			<g>
				<line class="st1" x1="222.2" y1="181.4" x2="240.3" y2="163.4"/>
				<line class="st1" x1="236" y1="181.4" x2="254" y2="163.4"/>
				<line class="st1" x1="249.7" y1="181.4" x2="267.8" y2="163.4"/>
				<line class="st1" x1="263.5" y1="181.4" x2="281.5" y2="163.4"/>
				<line class="st1" x1="277.2" y1="181.4" x2="295.3" y2="163.4"/>
				<line class="st1" x1="291" y1="181.4" x2="309" y2="163.4"/>
				<line class="st1" x1="304.7" y1="181.4" x2="322.8" y2="163.4"/>
				<line class="st1" x1="318.5" y1="181.4" x2="336.5" y2="163.4"/>
				<line class="st1" x1="332.2" y1="181.4" x2="350.3" y2="163.4"/>
				<line class="st1" x1="346" y1="181.4" x2="364" y2="163.4"/>
				<line class="st1" x1="359.7" y1="181.4" x2="377.8" y2="163.4"/>
			</g>
			<polyline class="st1" points="222.2,169 222.2,163.4 227.8,163.4 			"/>
			<polyline class="st1" points="377.8,175.8 377.8,181.4 372.2,181.4 			"/>
		</g>
		<g>
			<polygon class="st10" points="478.6,494.6 478.6,477.2 488.3,477.2 471.1,451 454,477.2 463.7,477.2 463.7,494.6 			"/>
			<polygon class="st11" points="471.1,451 471.1,494.6 478.6,494.6 478.6,477.2 488.3,477.2 471.1,451 			"/>
			<polygon class="st12" points="478.6,494.6 478.6,477.2 488.3,477.2 471.1,451 454,477.2 463.7,477.2 463.7,494.6 			"/>
			<line class="st12" x1="463.7" y1="504.7" x2="478.6" y2="504.7"/>
			<line class="st12" x1="463.7" y1="515.3" x2="478.6" y2="515.3"/>
			<line class="st12" x1="463.7" y1="525.8" x2="478.6" y2="525.8"/>
		</g>
	</g>
	<g>
		<g>
			<path class="st12" d="M305.8,77.7c0,3.2-2.6,5.8-5.8,5.8c-3.2,0-5.8-2.6-5.8-5.8c0-3.2,2.6-5.8,5.8-5.8
				C303.2,72,305.8,74.6,305.8,77.7z"/>
			<line class="st12" x1="300" y1="62.1" x2="300" y2="72"/>
		</g>
		<g>
			<g>
				<path class="st5" d="M368.4,148.6c0,37.8-30.6,68.4-68.4,68.4c-37.8,0-68.4-30.6-68.4-68.4c0-37.8,30.6-68.4,68.4-68.4
					C337.8,80.2,368.4,110.8,368.4,148.6z"/>
				<path class="st12" d="M368.4,148.6c0,37.8-30.6,68.4-68.4,68.4c-37.8,0-68.4-30.6-68.4-68.4c0-37.8,30.6-68.4,68.4-68.4
					C337.8,80.2,368.4,110.8,368.4,148.6z"/>
				<g>
					<path class="st7" d="M359.2,148.6c0,32.7-26.5,59.2-59.2,59.2c-32.7,0-59.2-26.5-59.2-59.2c0-32.7,26.5-59.2,59.2-59.2
						C332.7,89.5,359.2,116,359.2,148.6z"/>
					<path class="st3" d="M348.7,148.6c0,26.9-21.8,48.7-48.7,48.7c-26.9,0-48.7-21.8-48.7-48.7c0-26.9,21.8-48.7,48.7-48.7
						C326.9,100,348.7,121.7,348.7,148.6z"/>
					<g>
						<g>
							<g>
								<g>
									<path class="st13" d="M300,105.2c-1,0-1.7-0.8-1.7-1.7v-6.9c0-1,0.8-1.7,1.7-1.7c1,0,1.7,0.8,1.7,1.7v6.9
										C301.7,104.4,301,105.2,300,105.2z"/>
								</g>
								<g>
									<path class="st13" d="M300,202.5c-1,0-1.7-0.8-1.7-1.7v-6.9c0-1,0.8-1.7,1.7-1.7c1,0,1.7,0.8,1.7,1.7v6.9
										C301.7,201.7,301,202.5,300,202.5z"/>
								</g>
							</g>
							<g>
								<g>
									<path class="st13" d="M331.9,118.4c-0.4,0-0.9-0.2-1.2-0.5c-0.7-0.7-0.7-1.8,0-2.5l4.9-4.9c0.7-0.7,1.8-0.7,2.5,0
										c0.7,0.7,0.7,1.8,0,2.5l-4.9,4.9C332.8,118.3,332.4,118.4,331.9,118.4z"/>
								</g>
								<g>
									<path class="st13" d="M263.2,187.2c-0.4,0-0.9-0.2-1.2-0.5c-0.7-0.7-0.7-1.8,0-2.5l4.9-4.9c0.7-0.7,1.8-0.7,2.5,0
										c0.7,0.7,0.7,1.8,0,2.5l-4.9,4.9C264,187,263.6,187.2,263.2,187.2z"/>
								</g>
							</g>
							<g>
								<g>
									<path class="st13" d="M352.1,150.4h-6.9c-1,0-1.7-0.8-1.7-1.7c0-1,0.8-1.7,1.7-1.7h6.9c1,0,1.7,0.8,1.7,1.7
										C353.8,149.6,353.1,150.4,352.1,150.4z"/>
								</g>
								<g>
									<path class="st13" d="M254.8,150.4h-6.9c-1,0-1.7-0.8-1.7-1.7c0-1,0.8-1.7,1.7-1.7h6.9c1,0,1.7,0.8,1.7,1.7
										C256.6,149.6,255.8,150.4,254.8,150.4z"/>
								</g>
							</g>
							<g>
								<g>
									<path class="st13" d="M336.8,187.2c-0.4,0-0.9-0.2-1.2-0.5l-4.9-4.9c-0.7-0.7-0.7-1.8,0-2.5c0.7-0.7,1.8-0.7,2.5,0l4.9,4.9
										c0.7,0.7,0.7,1.8,0,2.5C337.7,187,337.3,187.2,336.8,187.2z"/>
								</g>
								<g>
									<path class="st13" d="M268.1,118.4c-0.4,0-0.9-0.2-1.2-0.5l-4.9-4.9c-0.7-0.7-0.7-1.8,0-2.5c0.7-0.7,1.8-0.7,2.5,0l4.9,4.9
										c0.7,0.7,0.7,1.8,0,2.5C269,118.3,268.5,118.4,268.1,118.4z"/>
								</g>
							</g>
						</g>
						<g>
							<g>
								<g>
									<g>
										<path class="st13" d="M277.4,110.1c-0.2,0-0.4-0.1-0.5-0.3l-3.5-6c-0.2-0.3-0.1-0.6,0.2-0.8c0.3-0.2,0.6-0.1,0.8,0.2
											l3.5,6c0.2,0.3,0.1,0.6-0.2,0.8C277.6,110.1,277.5,110.1,277.4,110.1z"/>
									</g>
									<g>
										<path class="st13" d="M326,194.3c-0.2,0-0.4-0.1-0.5-0.3l-3.5-6c-0.2-0.3-0.1-0.6,0.2-0.8c0.3-0.2,0.6-0.1,0.8,0.2l3.5,6
											c0.2,0.3,0.1,0.6-0.2,0.8C326.2,194.3,326.1,194.3,326,194.3z"/>
									</g>
								</g>
								<g>
									<g>
										<path class="st13" d="M311.7,105.6c0,0-0.1,0-0.2,0c-0.3-0.1-0.5-0.4-0.4-0.7l1.8-6.7c0.1-0.3,0.4-0.5,0.7-0.4
											c0.3,0.1,0.5,0.4,0.4,0.7l-1.8,6.7C312.2,105.4,311.9,105.6,311.7,105.6z"/>
									</g>
									<g>
										<path class="st13" d="M286.5,199.5c0,0-0.1,0-0.1,0c-0.3-0.1-0.5-0.4-0.4-0.7l1.8-6.7c0.1-0.3,0.4-0.5,0.7-0.4
											c0.3,0.1,0.5,0.4,0.4,0.7l-1.8,6.7C287,199.4,286.8,199.5,286.5,199.5z"/>
									</g>
								</g>
								<g>
									<g>
										<path class="st13" d="M339.1,126.6c-0.2,0-0.4-0.1-0.5-0.3c-0.2-0.3-0.1-0.6,0.2-0.8l6-3.5c0.3-0.2,0.6-0.1,0.8,0.2
											c0.2,0.3,0.1,0.6-0.2,0.8l-6,3.5C339.3,126.6,339.2,126.6,339.1,126.6z"/>
									</g>
									<g>
										<path class="st13" d="M254.9,175.3c-0.2,0-0.4-0.1-0.5-0.3c-0.2-0.3-0.1-0.6,0.2-0.8l6-3.5c0.3-0.2,0.6-0.1,0.8,0.2
											c0.2,0.3,0.1,0.6-0.2,0.8l-6,3.5C255.1,175.2,255,175.3,254.9,175.3z"/>
									</g>
								</g>
								<g>
									<g>
										<path class="st13" d="M350.3,162.7c0,0-0.1,0-0.1,0l-6.7-1.8c-0.3-0.1-0.5-0.4-0.4-0.7c0.1-0.3,0.4-0.5,0.7-0.4l6.7,1.8
											c0.3,0.1,0.5,0.4,0.4,0.7C350.8,162.5,350.6,162.7,350.3,162.7z"/>
									</g>
									<g>
										<path class="st13" d="M256.4,137.5c0,0-0.1,0-0.2,0l-6.7-1.8c-0.3-0.1-0.5-0.4-0.4-0.7c0.1-0.3,0.4-0.5,0.7-0.4l6.7,1.8
											c0.3,0.1,0.5,0.4,0.4,0.7C256.9,137.4,256.6,137.5,256.4,137.5z"/>
									</g>
								</g>
							</g>
							<g>
								<g>
									<g>
										<path class="st13" d="M260.9,126.6c-0.1,0-0.2,0-0.3-0.1l-6-3.5c-0.3-0.2-0.4-0.5-0.2-0.8c0.2-0.3,0.5-0.4,0.8-0.2l6,3.5
											c0.3,0.2,0.4,0.5,0.2,0.8C261.3,126.5,261.1,126.6,260.9,126.6z"/>
									</g>
									<g>
										<path class="st13" d="M345.1,175.3c-0.1,0-0.2,0-0.3-0.1l-6-3.5c-0.3-0.2-0.4-0.5-0.2-0.8c0.2-0.3,0.5-0.4,0.8-0.2l6,3.5
											c0.3,0.2,0.4,0.5,0.2,0.8C345.5,175.2,345.3,175.3,345.1,175.3z"/>
									</g>
								</g>
								<g>
									<g>
										<path class="st13" d="M288.3,105.6c-0.3,0-0.5-0.2-0.6-0.4l-1.8-6.7c-0.1-0.3,0.1-0.6,0.4-0.7c0.3-0.1,0.6,0.1,0.7,0.4
											l1.8,6.7c0.1,0.3-0.1,0.6-0.4,0.7C288.4,105.6,288.4,105.6,288.3,105.6z"/>
									</g>
									<g>
										<path class="st13" d="M313.5,199.5c-0.3,0-0.5-0.2-0.6-0.4l-1.8-6.7c-0.1-0.3,0.1-0.6,0.4-0.7c0.3-0.1,0.6,0.1,0.7,0.4
											l1.8,6.7c0.1,0.3-0.1,0.6-0.4,0.7C313.6,199.5,313.5,199.5,313.5,199.5z"/>
									</g>
								</g>
								<g>
									<g>
										<path class="st13" d="M322.6,110.1c-0.1,0-0.2,0-0.3-0.1c-0.3-0.2-0.4-0.5-0.2-0.8l3.5-6c0.2-0.3,0.5-0.4,0.8-0.2
											c0.3,0.2,0.4,0.5,0.2,0.8l-3.5,6C323,110,322.8,110.1,322.6,110.1z"/>
									</g>
									<g>
										<path class="st13" d="M273.9,194.3c-0.1,0-0.2,0-0.3-0.1c-0.3-0.2-0.4-0.5-0.2-0.8l3.5-6c0.2-0.3,0.5-0.4,0.8-0.2
											c0.3,0.2,0.4,0.5,0.2,0.8l-3.5,6C274.3,194.2,274.1,194.3,273.9,194.3z"/>
									</g>
								</g>
								<g>
									<g>
										<path class="st13" d="M343.6,137.5c-0.3,0-0.5-0.2-0.6-0.4c-0.1-0.3,0.1-0.6,0.4-0.7l6.7-1.8c0.3-0.1,0.6,0.1,0.7,0.4
											c0.1,0.3-0.1,0.6-0.4,0.7l-6.7,1.8C343.7,137.5,343.7,137.5,343.6,137.5z"/>
									</g>
									<g>
										<path class="st13" d="M249.7,162.7c-0.3,0-0.5-0.2-0.6-0.4c-0.1-0.3,0.1-0.6,0.4-0.7l6.7-1.8c0.3-0.1,0.6,0.1,0.7,0.4
											c0.1,0.3-0.1,0.6-0.4,0.7l-6.7,1.8C249.8,162.7,249.7,162.7,249.7,162.7z"/>
									</g>
								</g>
							</g>
						</g>
					</g>
					<path class="st12" d="M359.2,148.6c0,32.7-26.5,59.2-59.2,59.2c-32.7,0-59.2-26.5-59.2-59.2c0-32.7,26.5-59.2,59.2-59.2
						C332.7,89.5,359.2,116,359.2,148.6z"/>
					<g>
						<g>
							<path class="st0" d="M343.4,149c0,2-1.6,3.6-3.6,3.6h-29.1c-2,0-3.6-1.6-3.6-3.6l0,0c0-2,1.6-3.6,3.6-3.6h29.1
								C341.8,145.4,343.4,147,343.4,149L343.4,149z"/>
							<path class="st11" d="M329.5,149c0-2-1.6-3.6-3.6-3.6l-15.2,0c-2,0-3.6,1.6-3.6,3.6c0,2,1.6,3.6,3.6,3.6l15.2,0
								C327.8,152.5,329.5,150.9,329.5,149z"/>
							<path class="st12" d="M343.4,149c0,2-1.6,3.6-3.6,3.6h-29.1c-2,0-3.6-1.6-3.6-3.6l0,0c0-2,1.6-3.6,3.6-3.6h29.1
								C341.8,145.4,343.4,147,343.4,149L343.4,149z"/>
						</g>
						<line class="st12" x1="276.1" y1="173.2" x2="303" y2="146.3"/>
						<path class="st12" d="M276.8,174.3c0,1-0.8,1.7-1.7,1.7c-1,0-1.7-0.8-1.7-1.7c0-1,0.8-1.7,1.7-1.7
							C276,172.6,276.8,173.4,276.8,174.3z"/>
					</g>
					<g>
						<path class="st5" d="M300,152.6c-2.2,0-3.9-1.8-3.9-3.9c0-2.2,1.8-3.9,3.9-3.9c2.2,0,3.9,1.8,3.9,3.9
							C303.9,150.8,302.2,152.6,300,152.6z"/>
						<path class="st12" d="M300,152.6c-2.2,0-3.9-1.8-3.9-3.9c0-2.2,1.8-3.9,3.9-3.9c2.2,0,3.9,1.8,3.9,3.9
							C303.9,150.8,302.2,152.6,300,152.6z"/>
					</g>
				</g>
				<g>
					<g>
						<path class="st13" d="M359.8,111.7c-1.8,1.8-3.5,0.5-5.3-1.3l-11.6-11.6c-1.8-1.8-3.1-3.5-1.3-5.3l5.1-5.1
							c1.8-1.8,4.8-1.8,6.6,0l11.6,11.6c1.8,1.8,1.8,4.8,0,6.6L359.8,111.7z"/>
						<path class="st12" d="M359.8,111.7c-1.8,1.8-3.5,0.5-5.3-1.3l-11.6-11.6c-1.8-1.8-3.1-3.5-1.3-5.3l5.1-5.1
							c1.8-1.8,4.8-1.8,6.6,0l11.6,11.6c1.8,1.8,1.8,4.8,0,6.6L359.8,111.7z"/>
					</g>
				</g>
			</g>
		</g>
	</g>
	<g>
		<path class="st6" d="M127.2,540.3c0,1.3-1.1,2.3-2.4,2.3H99.1v-70.4h25.7c1.3,0,2.4,1,2.4,2.3V540.3z"/>
		<path class="st5" d="M127.2,532.9c0,1-1.1,1.8-2.4,1.8H99.1v-54h25.7c1.3,0,2.4,0.8,2.4,1.8V532.9z"/>
		<path class="st0" d="M235.8,505.6l-4.6,0.2c-0.1,0-0.1,0-0.2,0l-5.4,0.2c-0.5,0-0.8,0.4-0.8,0.9c0,0.5,0.4,0.8,0.9,0.8l2.4-0.1
			c0,0,0,0,0.1,0c0,0,0,0,0,0l3-0.1c4.5-0.1,8.3,3.4,8.5,7.9c0.2,4.6-3.4,8.4-7.9,8.6l-4.4,0.2c0,0-0.1,0-0.1,0l-5.2,0.2
			c-0.5,0-0.8,0.4-0.8,0.9c0,0.4,0.4,0.8,0.9,0.8l2.3-0.1c0,0,0,0,0,0c0,0,0,0,0,0l2.9-0.1c2.1-0.1,4.1,0.7,5.6,2.1
			c1.6,1.4,2.5,3.4,2.6,5.5c0.2,4.2-2.6,6.2-7.8,8.3c-1.6,0.4-35.6,8.5-62.1,0c-15.3-5.7-31.3-6.9-36.2-6.2c-0.3,0-0.6,0.3-0.7,0.6
			V479c0.1,0.3,0.4,0.6,0.7,0.6c0.8,0.1,1.9,0.1,3,0.1c5.2,0,12.6-1.3,17.1-11.1c0,0,0,0,0,0c0,0,0,0,0,0c0.1-0.1,5.9-14.6,22-22.2
			c4.9-2.3,9.7-8.4,13.8-13.8c3.7-4.8,7.2-9.3,9.8-9.8c2.1-0.4,4.2,0.5,5.7,2.4c1.1,1.4,4.2,6.7-0.5,16.2c-1.3,2.7-3.4,5.4-5.6,8.2
			c-2.5,3.2-5.3,6.9-7.5,11.2c-1.4,2.8-1.6,4.9-0.6,6.4c1.4,2.3,4.9,2.6,8.3,2.6c0.8,0,1.7,0,2.5,0c0.7,0,1.3,0,1.8,0
			c0,0,0.1,0,0.1,0c0,0,0,0,0,0h0c5.5-0.2,34.5-0.6,34.8-0.6c2.3-0.1,4.6,0.7,6.3,2.3c1.7,1.6,2.7,3.7,2.8,6.1
			c0.1,2.3-0.7,4.6-2.3,6.3c-1.6,1.7-3.7,2.7-6.1,2.8l-7.8,0.3c-0.5,0-0.8,0.4-0.8,0.9c0,0.4,0.4,0.8,0.8,0.8c0,0,0,0,0,0l2.1-0.1
			c0,0,0,0,0,0l5.7-0.2c4.8-0.2,8.9,3.5,9.1,8.3C244.4,501.3,240.6,505.4,235.8,505.6z"/>
		<path class="st3" d="M191.8,545.6c16.9-0.3,31-3.6,32-3.8c5.2-2.1,8-4.1,7.8-8.3c-0.1-2.1-1-4.1-2.6-5.5c-1.1-1.1-2.5-1.7-4-2
			l-0.5,0c0,0,0,0,0,0c0,0,0,0,0,0l-2.3,0.1c-0.2,0-0.4,0-0.5-0.1l-1.1,0c0,0,0,0,0,0c0,0,0,0,0,0l-2.3,0.1c-0.5,0-0.8-0.3-0.9-0.8
			c0-0.5,0.3-0.8,0.8-0.9l5.2-0.2c0,0,0.1,0,0.1,0l4.4-0.2c4.6-0.2,8.1-4.1,7.9-8.6c-0.2-4-3.2-7.2-7-7.8l-0.6,0c0,0,0,0,0,0
			c0,0,0,0-0.1,0l-2.4,0.1c-0.2,0-0.3,0-0.5-0.1l-1,0c0,0,0,0,0,0c0,0,0,0-0.1,0l-2.4,0.1c-0.5,0-0.8-0.3-0.9-0.8
			c0-0.5,0.3-0.8,0.8-0.9l5.4-0.2c0.1,0,0.1,0,0.2,0l4.6-0.2c4.8-0.2,8.5-4.3,8.3-9.1c-0.2-4.2-3.3-7.6-7.3-8.2l-3.4,0.1
			c0,0,0,0,0,0l-2.1,0.1c0,0,0,0,0,0c-0.2,0-0.3-0.1-0.5-0.1l-1.3,0.1c0,0,0,0,0,0l-2.1,0.1c0,0,0,0,0,0c-0.4,0-0.8-0.3-0.8-0.8
			c0-0.5,0.3-0.8,0.8-0.9l7.8-0.3c2.3-0.1,4.5-1.1,6.1-2.8c1.6-1.7,2.4-4,2.3-6.3c-0.1-2.3-1.1-4.5-2.8-6.1
			c-1.4-1.3-3.2-2.1-5.1-2.3c-7.4,0.1-27.5,0.4-32,0.6h0c0,0,0,0,0,0c0,0-0.1,0-0.1,0c-0.5,0-1.2,0-1.8,0c-0.8,0-1.6,0-2.5,0
			c-0.6,0-1.1,0-1.7,0c-0.7,0-1.5,0-2.3,0c-3.4,0-6.9-0.4-8.3-2.6c-1-1.6-0.8-3.7,0.6-6.4c2.2-4.3,5-7.9,7.5-11.2
			c2.2-2.8,4.3-5.5,5.6-8.2c4.7-9.5,1.6-14.8,0.5-16.2c-0.7-1-1.6-1.7-2.6-2.1c-2.5,1.2-5.6,5.3-8.9,9.5
			c-4.2,5.4-8.9,11.5-13.8,13.8c-16.1,7.6-21.9,22-22,22.2c0,0,0,0,0,0c0,0,0,0,0,0c-4.5,9.8-11.9,11.1-17.1,11.1
			c-0.8,0-1.5,0-2.1-0.1c-0.6,0-1.1,0.1-1.6,0.1v55.6c0.7,0,1.4,0,2.2,0c6.1-0.3,20.7,1.1,34.7,6.3
			C174,544.4,183.2,545.4,191.8,545.6z"/>
		<g>
			<path class="st14" d="M124.8,543.4c1.8,0,3.2-1.4,3.2-3.2v-65.7c0-1.7-1.4-3.1-3.2-3.1H98.3v72H124.8z"/>
			<g>
				<path class="st8" d="M174,544.5"/>
				<path class="st8" d="M165.4,542.5c-14.8-5.6-30.9-6.9-35.8-6.1"/>
				<path class="st8" d="M222.1,525.2l5.2-0.2c4.8-0.2,8.9,3.6,9.1,8.4l0,0c0.2,4.8-3.1,7-8.4,9.1c0,0-35.1,8.8-62.6,0"/>
				<path class="st8" d="M225.7,506.8l5.4-0.2c5-0.2,9.3,3.7,9.5,8.7l0,0c0.2,5-3.7,9.3-8.7,9.5l-7.4,0.3"/>
				<path class="st8" d="M229.4,487.7l5.7-0.2c5.2-0.2,9.7,3.9,9.9,9.1l0,0c0.2,5.3-3.9,9.7-9.1,9.9l-7.8,0.3"/>
				<path class="st8" d="M227.2,487.7l7.8-0.3c5.3-0.2,9.4-4.7,9.2-10l0,0c-0.2-5.3-4.7-9.4-10-9.2c0,0-29.2,0.4-34.8,0.6"/>
				<path class="st8" d="M199.6,471.4"/>
				<path class="st8" d="M148.8,468.3c0,0,5.8-14.8,22.4-22.6c9.2-4.3,17.9-22.5,23.9-23.7c6-1.2,12.4,7.1,6.1,19.8
					c-2.9,5.9-9.1,11.4-13.1,19.4c-4.7,9.3,6.4,7.8,11.4,7.8"/>
				<path class="st8" d="M148.8,468.3c-5.2,11.3-14.3,10.8-19.3,10.5"/>
			</g>
		</g>
	</g>
</g>
</svg>
