<?xml version="1.0" encoding="utf-8"?>
<!-- Generator: Adobe Illustrator 23.0.6, SVG Export Plug-In . SVG Version: 6.00 Build 0)  -->
<svg version="1.1" id="Layer_1" xmlns="http://www.w3.org/2000/svg" xmlns:xlink="http://www.w3.org/1999/xlink" x="0px" y="0px"
	 viewBox="0 0 600 600" style="enable-background:new 0 0 600 600;" xml:space="preserve">
<style type="text/css">
	.st0{fill:#DEF4FC;}
	.st1{fill:#FFFFFF;}
	.st2{fill:#E9F6FF;}
	.st3{fill:#AFD8F9;}
	.st4{fill:#5BA1E1;}
	.st5{fill:#288DE8;}
	.st6{fill:#2481D7;}
	.st7{fill:#C8DFF5;}
	.st8{fill:#6AB0E5;}
</style>
<g>
	<g>
		<g>
			<path class="st0" d="M-4352,604.2L-4352,604.2l0,227.8l227.8,0C-4124.1,706.2-4226.2,604.1-4352,604.2z"/>
		</g>
	</g>
	<g>
		<g>
			<path class="st0" d="M-4352,832l-227.8,0c0,125.9,102,227.9,227.8,227.8L-4352,832z"/>
		</g>
	</g>
	<g>
		<g>
			<rect x="-4484.9" y="990.3" class="st1" width="87.2" height="87.2"/>
		</g>
	</g>
	<g>
		<g>
			<polygon class="st0" points="-4484.9,1077.5 -4397.8,1077.5 -4397.8,990.3 			"/>
		</g>
	</g>
	<g>
		<g>
			<polygon class="st2" points="-4484.9,990.3 -4397.8,1077.5 -4397.8,990.3 			"/>
		</g>
	</g>
	<g>
		<g>
			<polygon class="st3" points="-4441.3,1033.9 -4397.8,1077.5 -4397.8,990.3 			"/>
		</g>
	</g>
	<g>
		<g>
			<rect x="-4455.9" y="990.3" class="st4" width="29.1" height="31"/>
		</g>
	</g>
	<g>
		<g>
			<polygon class="st5" points="-4455.9,990.3 -4426.8,1021.3 -4426.8,990.3 			"/>
		</g>
	</g>
	<g>
		<g>
			<path class="st6" d="M-4426.8,987.3h-29.1c-1.7,0-3,1.3-3,3v31c0,1.7,1.3,3,3,3h29.1c1.7,0,3-1.3,3-3v-31
				C-4423.8,988.7-4425.1,987.3-4426.8,987.3z M-4429.8,1018.3h-23.1v-25h23.1V1018.3z"/>
		</g>
	</g>
	<g>
		<g>
			<path class="st6" d="M-4397.8,986.3h-87.2c-2.2,0-4,1.8-4,4v87.2c0,2.2,1.8,4,4,4h87.2c2.2,0,4-1.8,4-4v-87.2
				C-4393.8,988.1-4395.5,986.3-4397.8,986.3z M-4401.8,1073.5h-79.2v-79.2h79.2V1073.5z"/>
		</g>
	</g>
	<g>
		<g>
			<rect x="-4306.2" y="990.3" class="st1" width="87.2" height="87.2"/>
		</g>
	</g>
	<g>
		<g>
			<polygon class="st0" points="-4306.2,1077.5 -4219.1,1077.5 -4219.1,990.3 			"/>
		</g>
	</g>
	<g>
		<g>
			<polygon class="st2" points="-4306.2,990.3 -4219.1,1077.5 -4219.1,990.3 			"/>
		</g>
	</g>
	<g>
		<g>
			<polygon class="st3" points="-4262.7,1033.9 -4219.1,1077.5 -4219.1,990.3 			"/>
		</g>
	</g>
	<g>
		<g>
			<rect x="-4277.2" y="990.3" class="st4" width="29.1" height="31"/>
		</g>
	</g>
	<g>
		<g>
			<polygon class="st5" points="-4277.2,990.3 -4248.1,1021.3 -4248.1,990.3 			"/>
		</g>
	</g>
	<g>
		<g>
			<path class="st6" d="M-4248.1,987.3h-29.1c-1.7,0-3,1.3-3,3v31c0,1.7,1.3,3,3,3h29.1c1.7,0,3-1.3,3-3v-31
				C-4245.1,988.7-4246.5,987.3-4248.1,987.3z M-4251.1,1018.3h-23.1v-25h23.1V1018.3z"/>
		</g>
	</g>
	<g>
		<g>
			<path class="st6" d="M-4219.1,986.3h-87.2c-2.2,0-4,1.8-4,4v87.2c0,2.2,1.8,4,4,4h87.2c2.2,0,4-1.8,4-4v-87.2
				C-4215.1,988.1-4216.9,986.3-4219.1,986.3z M-4223.1,1073.5h-79.2v-79.2h79.2V1073.5z"/>
		</g>
	</g>
	<g>
		<g>
			<path class="st5" d="M-4446.5,845.5c8.4,17.6,21.6,32.5,37.9,43c18.8,12.2,33.3,30.3,41.2,51.6h0.1c0,2.1,6.9,3.8,15.4,3.8
				c8.5,0,15.4-1.7,15.4-3.8h0.1c7.9-21.3,22.4-39.4,41.2-51.7c16.3-10.5,29.4-25.4,37.8-43H-4446.5z"/>
		</g>
	</g>
	<g>
		<g>
			<path class="st6" d="M-4277.1,747.2c-20.1-4.9-46.7-7.6-74.9-7.6c-28.3,0-54.9,2.7-74.9,7.6c-22.4,5.5-33.7,12.8-33.7,21.9
				c0,9.1,11.3,16.5,33.7,21.9c20.1,4.9,46.7,7.6,74.9,7.6c28.3,0,54.9-2.7,74.9-7.6c22.4-5.5,33.7-12.8,33.7-21.9
				C-4243.4,760-4254.7,752.6-4277.1,747.2z M-4279,783.2c-19.5,4.7-45.4,7.4-73,7.4c-27.6,0-53.6-2.6-73-7.4
				c-21.8-5.3-27.6-11.4-27.6-14.1c0-2.8,5.8-8.8,27.6-14.1c19.5-4.7,45.4-7.4,73-7.4c27.6,0,53.6,2.6,73,7.4
				c21.8,5.3,27.6,11.4,27.6,14.1C-4251.4,771.8-4257.2,777.9-4279,783.2z"/>
		</g>
	</g>
	<g>
		<g>
			<path class="st4" d="M-4352,833.2c-49.6,0-89.7,9.8-89.7,21.9c0,12.1,40.2,21.9,89.7,21.9c49.6,0,89.7-9.8,89.7-21.9
				C-4262.3,843-4302.4,833.2-4352,833.2z"/>
		</g>
	</g>
	<g>
		<g>
			<path class="st3" d="M-4352,823.6c-49.6,0-89.7,9.8-89.7,21.9c0,12.1,40.2,21.9,89.7,21.9c49.6,0,89.7-9.8,89.7-21.9
				C-4262.3,833.4-4302.4,823.6-4352,823.6z"/>
		</g>
	</g>
	<g>
		<g>
			<path class="st7" d="M-4441.7,845.5c0,12.1,40.2,21.9,89.7,21.9c49.6,0,89.7-9.8,89.7-21.9H-4441.7z"/>
		</g>
	</g>
	<g>
		<g>
			<path class="st6" d="M-4277.1,747.2c-20.1-4.9-46.7-7.6-74.9-7.6c-28.3,0-54.9,2.7-74.9,7.6c-22.4,5.4-33.7,12.8-33.7,21.9v31.5
				c0,37,18.6,71.1,49.8,91.2c18.1,11.7,32.1,29.4,39.6,49.7c0,0.1,0,0.1,0.1,0.2c1.7,5.4,12.5,6.2,19.2,6.2s17.5-0.8,19.2-6.2
				c0,0,0-0.1,0.1-0.1c7.5-20.3,21.6-38,39.6-49.7c31.2-20.1,49.8-54.2,49.8-91.2v-31.5C-4243.4,760-4254.7,752.6-4277.1,747.2z
				 M-4251.4,800.6c0,34.2-17.2,65.8-46.1,84.5c-19.3,12.5-34.3,31.3-42.5,52.9c0,0.1-0.1,0.2-0.1,0.3c-1.4,0.6-5.4,1.6-11.9,1.6
				c-6.5,0-10.5-1-11.9-1.6c0-0.1-0.1-0.1-0.1-0.2c-8.1-21.6-23.2-40.4-42.5-53c-28.9-18.7-46.1-50.3-46.1-84.5v-31.5
				c0-2.8,5.8-8.8,27.6-14.1c19.5-4.7,45.4-7.4,73-7.4c27.6,0,53.6,2.6,73,7.4c21.8,5.3,27.6,11.4,27.6,14.1V800.6z"/>
		</g>
	</g>
	<g>
		<g>
			<path class="st6" d="M-4352,821.6c-44.5,0-91.7,8.4-91.7,23.9c0,15.5,47.3,23.9,91.7,23.9c44.5,0,91.7-8.4,91.7-23.9
				C-4260.3,830-4307.5,821.6-4352,821.6z M-4352,865.3c-51.7,0-87.7-10.5-87.7-19.9c0-9.4,36-19.9,87.7-19.9
				c51.7,0,87.7,10.5,87.7,19.9C-4264.3,854.9-4300.3,865.3-4352,865.3z"/>
		</g>
	</g>
	<g>
		<g>
			<path class="st1" d="M-4352,597.8c-23.2,0-42,18.8-42,42c0,11.8,4.8,22.4,12.6,30c6.7,7.5,10.8,17.3,10.8,28.1h37.2
				c0-10.8,4.1-20.6,10.8-28.1c7.8-7.6,12.6-18.2,12.6-30C-4310,616.6-4328.8,597.8-4352,597.8z"/>
		</g>
	</g>
	<g>
		<g>
			<path class="st2" d="M-4352,597.8c-13.8,0-25.1,18.8-25.1,42c0,11.8,2.9,22.4,7.6,30c4,7.5,6.4,17.3,6.4,28.1h22.2
				c0-10.8,2.4-20.6,6.4-28.1c4.6-7.6,7.5-18.2,7.5-30C-4326.9,616.6-4338.1,597.8-4352,597.8z"/>
		</g>
	</g>
	<g>
		<g>
			<path class="st3" d="M-4370.6,697.9c0-0.2,0-0.4,0-0.6v14.6c0,9.4,7.6,17,17,17h3.1c9.4,0,17-7.6,17-17v-14H-4370.6z"/>
		</g>
	</g>
	<g>
		<g>
			<path class="st8" d="M-4363,697.9c0-0.2,0-0.4,0-0.6v14.6c0,9.4,4.5,17,10.1,17h1.8c5.6,0,10.1-7.6,10.1-17v-14H-4363z"/>
		</g>
	</g>
	<g>
		<g>
			<path class="st6" d="M-4352,594.8c-24.8,0-45,20.2-45,45c0,12.2,4.8,23.5,13.5,32.1c6.4,7.2,10,16.4,10,26c0,1.7,1.3,3,3,3h37.2
				c1.7,0,3-1.3,3-3c0-9.6,3.5-18.8,10-26c8.7-8.5,13.4-19.9,13.4-32.1C-4307,615-4327.2,594.8-4352,594.8z M-4324.7,667.7
				c0,0-0.1,0.1-0.1,0.1c-6.8,7.5-10.8,17.1-11.5,27.1h-31.4c-0.7-10-4.7-19.5-11.5-27.1c0,0-0.1-0.1-0.1-0.1
				c-7.6-7.4-11.7-17.3-11.7-27.9c0-21.5,17.5-39,39-39c21.5,0,39,17.5,39,39C-4313,650.4-4317.2,660.3-4324.7,667.7z"/>
		</g>
	</g>
	<g>
		<g>
			<path class="st6" d="M-4333.4,694.9h-35.4c-0.5-0.4-1.1-0.6-1.8-0.6c-1.7,0-3,1.3-3,3v14.6c0,11.1,9,20,20,20h3.1
				c11.1,0,20-9,20-20v-14C-4330.4,696.3-4331.7,694.9-4333.4,694.9z M-4336.4,711.9c0,7.7-6.3,14-14,14h-3.1c-7.7,0-14-6.3-14-14
				v-11h31.2V711.9z"/>
		</g>
	</g>
	<g>
		<g>
			<path class="st6" d="M-4352,650.9c-1.1,0-2,0.9-2,2v38.8c0,1.1,0.9,2,2,2s2-0.9,2-2v-38.8C-4350,651.8-4350.9,650.9-4352,650.9z"
				/>
		</g>
	</g>
	<g>
		<g>
			<path class="st6" d="M-4350.6,650.5c-0.8-0.8-2-0.8-2.8,0l-7.3,7.3l-7.3-7.3c-0.8-0.8-2-0.8-2.8,0c-0.8,0.8-0.8,2,0,2.8l8.7,8.8
				c0.4,0.4,0.9,0.6,1.4,0.6s1-0.2,1.4-0.6l8.7-8.8C-4349.8,652.6-4349.8,651.3-4350.6,650.5z"/>
		</g>
	</g>
	<g>
		<g>
			<path class="st6" d="M-4333.1,650.5c-0.8-0.8-2-0.8-2.8,0l-7.3,7.3l-7.3-7.3c-0.8-0.8-2-0.8-2.8,0c-0.8,0.8-0.8,2,0,2.8l8.8,8.8
				c0.4,0.4,0.9,0.6,1.4,0.6h0c0.5,0,1-0.2,1.4-0.6l8.7-8.8C-4332.3,652.6-4332.3,651.3-4333.1,650.5z"/>
		</g>
	</g>
	<g>
		<g>
			<path class="st6" d="M-4335,705.6h-33.9c-1.1,0-2,0.9-2,2s0.9,2,2,2h33.9c1.1,0,2-0.9,2-2S-4333.9,705.6-4335,705.6z"/>
		</g>
	</g>
	<g>
		<g>
			<path class="st6" d="M-4335,714.2h-33.9c-1.1,0-2,0.9-2,2s0.9,2,2,2h33.9c1.1,0,2-0.9,2-2S-4333.9,714.2-4335,714.2z"/>
		</g>
	</g>
	<g>
		<g>
			<polygon class="st7" points="-4595.4,1075.4 -4595.4,976.5 -4599.4,976.5 -4599.4,1079.4 -4496.5,1079.4 -4496.5,1075.4 			"/>
		</g>
	</g>
	<g>
		<g>
			<path class="st7" d="M-4597.5,969.8c-2.4,0-4.4,2-4.4,4.4c0,2.4,2,4.4,4.4,4.4c2.4,0,4.4-2,4.4-4.4
				C-4593.1,971.7-4595.1,969.8-4597.5,969.8z M-4597.5,974.5c-0.2,0-0.4-0.2-0.4-0.4c0-0.2,0.2-0.4,0.4-0.4c0.2,0,0.4,0.2,0.4,0.4
				C-4597.1,974.4-4597.3,974.5-4597.5,974.5z"/>
		</g>
	</g>
	<g>
		<g>
			<path class="st7" d="M-4494.1,1073.1c-2.4,0-4.4,2-4.4,4.4c0,2.4,2,4.4,4.4,4.4c2.4,0,4.4-2,4.4-4.4
				C-4489.8,1075.1-4491.7,1073.1-4494.1,1073.1z M-4494.1,1077.9c-0.2,0-0.4-0.2-0.4-0.4c0-0.2,0.2-0.4,0.4-0.4
				c0.2,0,0.4,0.2,0.4,0.4C-4493.8,1077.7-4493.9,1077.9-4494.1,1077.9z"/>
		</g>
	</g>
	<g>
		<g>
			<path class="st7" d="M-4597.4,1021.4v4c28.7,0,52.1,23.4,52.1,52.1h4C-4541.3,1046.5-4566.5,1021.4-4597.4,1021.4z"/>
		</g>
	</g>
	<g>
		<g>
			<path class="st7" d="M-4575.4,1052.6l2.8,2.8l2.8-2.8l-2.8-2.8L-4575.4,1052.6z M-4569.8,1047l2.8,2.8l2.8-2.8l-2.8-2.8
				L-4569.8,1047z M-4558.4,1035.7l2.8,2.8l2.8-2.8l-2.8-2.8L-4558.4,1035.7z M-4564.1,1041.3l2.8,2.8l2.8-2.8l-2.8-2.8
				L-4564.1,1041.3z M-4592.4,1069.6l2.8,2.8l2.8-2.8l-2.8-2.8L-4592.4,1069.6z M-4581.1,1058.3l2.8,2.8l2.8-2.8l-2.8-2.8
				L-4581.1,1058.3z M-4597.6,1074.9l2.8,2.8l2.4-2.4l-2.8-2.8L-4597.6,1074.9z M-4552.8,1030l2.8,2.8l2.8-2.8l-2.8-2.8
				L-4552.8,1030z M-4586.7,1063.9l2.8,2.8l2.8-2.8l-2.8-2.8L-4586.7,1063.9z M-4513.2,990.4l2.8,2.8l2.8-2.8l-2.8-2.8
				L-4513.2,990.4z M-4507.5,984.7l2.8,2.8l2.8-2.8l-2.8-2.8L-4507.5,984.7z M-4499,976.3l-2.8,2.8l2.8,2.8l2.8-2.8L-4499,976.3z
				 M-4518.8,996.1l2.8,2.8l2.8-2.8l-2.8-2.8L-4518.8,996.1z M-4547.1,1024.3l2.8,2.8l2.8-2.8l-2.8-2.8L-4547.1,1024.3z
				 M-4524.5,1001.7l2.8,2.8l2.8-2.8l-2.8-2.8L-4524.5,1001.7z M-4535.8,1013l2.8,2.8l2.8-2.8l-2.8-2.8L-4535.8,1013z
				 M-4541.5,1018.7l2.8,2.8l2.8-2.8l-2.8-2.8L-4541.5,1018.7z M-4530.2,1007.4l2.8,2.8l2.8-2.8l-2.8-2.8L-4530.2,1007.4z"/>
		</g>
	</g>
	<g>
		<g>
			<polygon class="st7" points="-4207.5,584.6 -4207.5,588.6 -4108.6,588.6 -4108.6,687.5 -4104.6,687.5 -4104.6,584.6 			"/>
		</g>
	</g>
	<g>
		<g>
			<path class="st7" d="M-4106.5,685.5c-2.4,0-4.4,2-4.4,4.4c0,2.4,2,4.4,4.4,4.4c2.4,0,4.4-2,4.4-4.4
				C-4102.1,687.4-4104.1,685.5-4106.5,685.5z M-4106.5,690.2c-0.2,0-0.4-0.2-0.4-0.4c0-0.2,0.2-0.4,0.4-0.4c0.2,0,0.4,0.2,0.4,0.4
				C-4106.1,690.1-4106.3,690.2-4106.5,690.2z"/>
		</g>
	</g>
	<g>
		<g>
			<path class="st7" d="M-4209.9,582.1c-2.4,0-4.4,2-4.4,4.4c0,2.4,2,4.4,4.4,4.4c2.4,0,4.4-2,4.4-4.4
				C-4205.5,584.1-4207.4,582.1-4209.9,582.1z M-4209.9,586.9c-0.2,0-0.4-0.2-0.4-0.4c0-0.2,0.2-0.4,0.4-0.4c0.2,0,0.4,0.2,0.4,0.4
				S-4209.6,586.9-4209.9,586.9z"/>
		</g>
	</g>
	<g>
		<g>
			<path class="st7" d="M-4158.7,586.6h-4c0,30.9,25.2,56.1,56.1,56.1v-4C-4135.3,638.6-4158.7,615.3-4158.7,586.6z"/>
		</g>
	</g>
	<g>
		<g>
			<path class="st7" d="M-4185.2,662.3l2.8,2.8l2.8-2.8l-2.8-2.8L-4185.2,662.3z M-4179.5,656.6l2.8,2.8l2.8-2.8l-2.8-2.8
				L-4179.5,656.6z M-4162.5,639.7l2.8,2.8l2.8-2.8l-2.8-2.8L-4162.5,639.7z M-4173.8,651l2.8,2.8l2.8-2.8l-2.8-2.8L-4173.8,651z
				 M-4196.5,673.6l2.8,2.8l2.8-2.8l-2.8-2.8L-4196.5,673.6z M-4207.8,684.9l2.8,2.8l2.8-2.8l-2.8-2.8L-4207.8,684.9z
				 M-4202.1,679.3l2.8,2.8l2.8-2.8l-2.8-2.8L-4202.1,679.3z M-4190.8,667.9l2.8,2.8l2.8-2.8l-2.8-2.8L-4190.8,667.9z
				 M-4168.2,645.3l2.8,2.8l2.8-2.8l-2.8-2.8L-4168.2,645.3z M-4117.3,594.4l2.8,2.8l2.8-2.8l-2.8-2.8L-4117.3,594.4z
				 M-4128.6,605.7l2.8,2.8l2.8-2.8l-2.8-2.8L-4128.6,605.7z M-4122.9,600.1l2.8,2.8l2.8-2.8l-2.8-2.8L-4122.9,600.1z
				 M-4109.2,586.3l-2.4,2.4l2.8,2.8l2.4-2.4L-4109.2,586.3z M-4151.2,628.3l2.8,2.8l2.8-2.8l-2.8-2.8L-4151.2,628.3z
				 M-4145.6,622.7l2.8,2.8l2.8-2.8l-2.8-2.8L-4145.6,622.7z M-4134.3,611.4l2.8,2.8l2.8-2.8l-2.8-2.8L-4134.3,611.4z M-4156.9,634
				l2.8,2.8l2.8-2.8l-2.8-2.8L-4156.9,634z M-4139.9,617l2.8,2.8l2.8-2.8l-2.8-2.8L-4139.9,617z"/>
		</g>
	</g>
	<g>
		<g>
			<polygon class="st7" points="-4108.6,976.5 -4108.6,1075.4 -4207.5,1075.4 -4207.5,1079.4 -4104.6,1079.4 -4104.6,976.5 			"/>
		</g>
	</g>
	<g>
		<g>
			<path class="st7" d="M-4209.9,1073.1c-2.4,0-4.4,2-4.4,4.4c0,2.4,2,4.4,4.4,4.4c2.4,0,4.4-2,4.4-4.4
				C-4205.5,1075.1-4207.4,1073.1-4209.9,1073.1z M-4209.9,1077.9c-0.2,0-0.4-0.2-0.4-0.4c0-0.2,0.2-0.4,0.4-0.4
				c0.2,0,0.4,0.2,0.4,0.4C-4209.5,1077.7-4209.6,1077.9-4209.9,1077.9z"/>
		</g>
	</g>
	<g>
		<g>
			<path class="st7" d="M-4106.5,969.8c-2.4,0-4.4,2-4.4,4.4c0,2.4,2,4.4,4.4,4.4c2.4,0,4.4-2,4.4-4.4
				C-4102.1,971.7-4104.1,969.8-4106.5,969.8z M-4106.5,974.5c-0.2,0-0.4-0.2-0.4-0.4c0-0.2,0.2-0.4,0.4-0.4c0.2,0,0.4,0.2,0.4,0.4
				C-4106.1,974.4-4106.3,974.5-4106.5,974.5z"/>
		</g>
	</g>
	<g>
		<g>
			<path class="st7" d="M-4162.6,1077.4h4c0-28.7,23.4-52.1,52.1-52.1v-4C-4137.5,1021.3-4162.6,1046.5-4162.6,1077.4z"/>
		</g>
	</g>
	<g>
		<g>
			<path class="st7" d="M-4173.8,1013l2.8,2.8l2.8-2.8l-2.8-2.8L-4173.8,1013z M-4176.6,1004.5l-2.8,2.8l2.8,2.8l2.8-2.8
				L-4176.6,1004.5z M-4159.7,1021.5l-2.8,2.8l2.8,2.8l2.8-2.8L-4159.7,1021.5z M-4165.3,1015.8l-2.8,2.8l2.8,2.8l2.8-2.8
				L-4165.3,1015.8z M-4182.3,998.8l-2.8,2.8l2.8,2.8l2.8-2.8L-4182.3,998.8z M-4199.3,981.9l-2.8,2.8l2.8,2.8l2.8-2.8
				L-4199.3,981.9z M-4187.9,993.2l-2.8,2.8l2.8,2.8l2.8-2.8L-4187.9,993.2z M-4204.9,976.2l-2.8,2.8l2.8,2.8l2.8-2.8L-4204.9,976.2
				z M-4193.6,987.5l-2.8,2.8l2.8,2.8l2.8-2.8L-4193.6,987.5z M-4108.7,1072.4l-2.8,2.8l2.4,2.4l2.8-2.8L-4108.7,1072.4z
				 M-4131.4,1049.8l-2.8,2.8l2.8,2.8l2.8-2.8L-4131.4,1049.8z M-4125.7,1055.4l-2.8,2.8l2.8,2.8l2.8-2.8L-4125.7,1055.4z
				 M-4122.9,1063.9l2.8,2.8l2.8-2.8l-2.8-2.8L-4122.9,1063.9z M-4114.4,1066.7l-2.8,2.8l2.8,2.8l2.8-2.8L-4114.4,1066.7z
				 M-4148.3,1032.8l-2.8,2.8l2.8,2.8l2.8-2.8L-4148.3,1032.8z M-4154,1027.1l-2.8,2.8l2.8,2.8l2.8-2.8L-4154,1027.1z
				 M-4139.9,1046.9l2.8,2.8l2.8-2.8l-2.8-2.8L-4139.9,1046.9z M-4142.7,1038.4l-2.8,2.8l2.8,2.8l2.8-2.8L-4142.7,1038.4z"/>
		</g>
	</g>
	<g>
		<g>
			<polygon class="st7" points="-4599.4,584.6 -4599.4,687.5 -4595.4,687.5 -4595.4,588.6 -4496.5,588.6 -4496.5,584.6 			"/>
		</g>
	</g>
	<g>
		<g>
			<path class="st7" d="M-4494.1,582.1c-2.4,0-4.4,2-4.4,4.4c0,2.4,2,4.4,4.4,4.4c2.4,0,4.4-2,4.4-4.4
				C-4489.8,584.1-4491.7,582.1-4494.1,582.1z M-4494.1,586.9c-0.2,0-0.4-0.2-0.4-0.4c0-0.2,0.2-0.4,0.4-0.4c0.2,0,0.4,0.2,0.4,0.4
				C-4493.8,586.7-4493.9,586.9-4494.1,586.9z"/>
		</g>
	</g>
	<g>
		<g>
			<path class="st7" d="M-4597.5,685.5c-2.4,0-4.4,2-4.4,4.4c0,2.4,2,4.4,4.4,4.4c2.4,0,4.4-2,4.4-4.4
				C-4593.1,687.4-4595.1,685.5-4597.5,685.5z M-4597.5,690.2c-0.2,0-0.4-0.2-0.4-0.4c0-0.2,0.2-0.4,0.4-0.4s0.4,0.2,0.4,0.4
				C-4597.1,690.1-4597.3,690.2-4597.5,690.2z"/>
		</g>
	</g>
	<g>
		<g>
			<path class="st7" d="M-4545.4,586.6c0,28.7-23.4,52.1-52.1,52.1v4c30.9,0,56.1-25.2,56.1-56.1H-4545.4z"/>
		</g>
	</g>
	<g>
		<g>
			<path class="st7" d="M-4594.9,586.4l-2.8,2.8l2.4,2.4l2.8-2.8L-4594.9,586.4z M-4575.5,611.4l2.8,2.8l2.8-2.8l-2.8-2.8
				L-4575.5,611.4z M-4567,614.3l-2.8,2.8l2.8,2.8l2.8-2.8L-4567,614.3z M-4555.7,625.6l-2.8,2.8l2.8,2.8l2.8-2.8L-4555.7,625.6z
				 M-4561.3,619.9l-2.8,2.8l2.8,2.8l2.8-2.8L-4561.3,619.9z M-4592.4,594.5l2.8,2.8l2.8-2.8l-2.8-2.8L-4592.4,594.5z
				 M-4583.9,597.3l-2.8,2.8l2.8,2.8l2.8-2.8L-4583.9,597.3z M-4550,631.2l-2.8,2.8l2.8,2.8l2.8-2.8L-4550,631.2z M-4578.3,602.9
				l-2.8,2.8l2.8,2.8l2.8-2.8L-4578.3,602.9z M-4510.4,670.8l-2.8,2.8l2.8,2.8l2.8-2.8L-4510.4,670.8z M-4504.7,676.5l-2.8,2.8
				l2.8,2.8l2.8-2.8L-4504.7,676.5z M-4499.1,682.1l-2.8,2.8l2.8,2.8l2.8-2.8L-4499.1,682.1z M-4544.3,636.9l-2.8,2.8l2.8,2.8
				l2.8-2.8L-4544.3,636.9z M-4516.1,665.2l-2.8,2.8l2.8,2.8l2.8-2.8L-4516.1,665.2z M-4533,648.2l-2.8,2.8l2.8,2.8l2.8-2.8
				L-4533,648.2z M-4541.5,645.4l2.8,2.8l2.8-2.8l-2.8-2.8L-4541.5,645.4z M-4521.7,659.5l-2.8,2.8l2.8,2.8l2.8-2.8L-4521.7,659.5z
				 M-4527.4,653.8l-2.8,2.8l2.8,2.8l2.8-2.8L-4527.4,653.8z"/>
		</g>
	</g>
	<g>
		<g>
			
				<rect x="-4565.4" y="750.5" transform="matrix(0.7071 -0.7071 0.7071 0.7071 -1876.329 -3003.3035)" class="st7" width="4" height="25.5"/>
		</g>
	</g>
	<g>
		<g>
			
				<rect x="-4565.4" y="764.3" transform="matrix(0.7071 -0.7071 0.7071 0.7071 -1886.0127 -2999.2473)" class="st7" width="4" height="25.5"/>
		</g>
	</g>
	<g>
		<g>
			
				<rect x="-4565.4" y="778" transform="matrix(0.7071 -0.7071 0.7071 0.7071 -1895.7361 -2995.2197)" class="st7" width="4" height="25.5"/>
		</g>
	</g>
	<g>
		<g>
			
				<rect x="-4565.4" y="791.8" transform="matrix(0.7071 -0.7071 0.7071 0.7071 -1905.4604 -2991.1924)" class="st7" width="4" height="25.5"/>
		</g>
	</g>
	<g>
		<g>
			
				<rect x="-4565.4" y="805.5" transform="matrix(0.7071 -0.7071 0.7071 0.7071 -1915.1428 -2987.1355)" class="st7" width="4" height="25.5"/>
		</g>
	</g>
	<g>
		<g>
			
				<rect x="-4565.4" y="819.3" transform="matrix(0.7071 -0.7071 0.7071 0.7071 -1924.8658 -2983.1082)" class="st7" width="4" height="25.5"/>
		</g>
	</g>
	<g>
		<g>
			
				<rect x="-4565.4" y="833" transform="matrix(0.7071 -0.7071 0.7071 0.7071 -1934.6716 -2979.1375)" class="st7" width="4" height="25.5"/>
		</g>
	</g>
	<g>
		<g>
			
				<rect x="-4565.4" y="846.8" transform="matrix(0.7071 -0.7071 0.7071 0.7071 -1944.3555 -2975.0815)" class="st7" width="4" height="25.5"/>
		</g>
	</g>
	<g>
		<g>
			
				<rect x="-4565.4" y="860.5" transform="matrix(0.7071 -0.7071 0.7071 0.7071 -1954.1211 -2971.0811)" class="st7" width="4" height="25.5"/>
		</g>
	</g>
	<g>
		<g>
			
				<rect x="-4565.4" y="874.3" transform="matrix(0.7071 -0.7071 0.7071 0.7071 -1963.7615 -2966.9973)" class="st7" width="4" height="25.5"/>
		</g>
	</g>
	<g>
		<g>
			
				<rect x="-4565.4" y="888" transform="matrix(0.7071 -0.7071 0.7071 0.7071 -1973.5269 -2962.9976)" class="st7" width="4" height="25.5"/>
		</g>
	</g>
	<g>
		<g>
			<polygon class="st7" points="-4552.4,752.2 -4560,752.2 -4560,756.2 -4556.4,756.2 -4556.4,759.8 -4552.4,759.8 			"/>
		</g>
	</g>
	<g>
		<g>
			<polygon class="st7" points="-4570.4,907.8 -4570.4,904.2 -4574.4,904.2 -4574.4,911.8 -4566.8,911.8 -4566.8,907.8 			"/>
		</g>
	</g>
	<g>
		<g>
			
				<rect x="-4142.6" y="750.5" transform="matrix(0.7071 -0.7071 0.7071 0.7071 -1752.4796 -2704.3093)" class="st7" width="4" height="25.5"/>
		</g>
	</g>
	<g>
		<g>
			
				<rect x="-4142.6" y="764.3" transform="matrix(0.7071 -0.7071 0.7071 0.7071 -1762.1666 -2700.2563)" class="st7" width="4" height="25.5"/>
		</g>
	</g>
	<g>
		<g>
			
				<rect x="-4142.6" y="778" transform="matrix(0.7071 -0.7071 0.7071 0.7071 -1771.89 -2696.2288)" class="st7" width="4" height="25.5"/>
		</g>
	</g>
	<g>
		<g>
			
				<rect x="-4142.6" y="791.8" transform="matrix(0.7071 -0.7071 0.7071 0.7071 -1781.6141 -2692.2009)" class="st7" width="4" height="25.5"/>
		</g>
	</g>
	<g>
		<g>
			
				<rect x="-4142.6" y="805.5" transform="matrix(0.7071 -0.7071 0.7071 0.7071 -1791.3 -2688.1479)" class="st7" width="4" height="25.5"/>
		</g>
	</g>
	<g>
		<g>
			
				<rect x="-4142.6" y="819.3" transform="matrix(0.7071 -0.7071 0.7071 0.7071 -1801.0229 -2684.1206)" class="st7" width="4" height="25.5"/>
		</g>
	</g>
	<g>
		<g>
			
				<rect x="-4142.6" y="833" transform="matrix(0.7071 -0.7071 0.7071 0.7071 -1810.8224 -2680.1433)" class="st7" width="4" height="25.5"/>
		</g>
	</g>
	<g>
		<g>
			
				<rect x="-4142.6" y="846.8" transform="matrix(0.7071 -0.7071 0.7071 0.7071 -1820.5092 -2676.0901)" class="st7" width="4" height="25.5"/>
		</g>
	</g>
	<g>
		<g>
			
				<rect x="-4142.6" y="860.5" transform="matrix(0.7071 -0.7071 0.7071 0.7071 -1830.2719 -2672.0869)" class="st7" width="4" height="25.5"/>
		</g>
	</g>
	<g>
		<g>
			
				<rect x="-4142.6" y="874.3" transform="matrix(0.7071 -0.7071 0.7071 0.7071 -1839.9186 -2668.0098)" class="st7" width="4" height="25.5"/>
		</g>
	</g>
	<g>
		<g>
			
				<rect x="-4142.6" y="888" transform="matrix(0.7071 -0.7071 0.7071 0.7071 -1849.6808 -2664.0068)" class="st7" width="4" height="25.5"/>
		</g>
	</g>
	<g>
		<g>
			<polygon class="st7" points="-4137.2,752.2 -4137.2,756.2 -4133.6,756.2 -4133.6,759.8 -4129.6,759.8 -4129.6,752.2 			"/>
		</g>
	</g>
	<g>
		<g>
			<polygon class="st7" points="-4147.6,907.8 -4147.6,904.2 -4151.6,904.2 -4151.6,911.8 -4144,911.8 -4144,907.8 			"/>
		</g>
	</g>
	<g>
		<g>
			<rect x="-4409.9" y="961.8" class="st1" width="115.7" height="115.7"/>
		</g>
	</g>
	<g>
		<g>
			<polygon class="st0" points="-4409.9,1077.5 -4294.1,1077.5 -4294.1,961.8 			"/>
		</g>
	</g>
	<g>
		<g>
			<polygon class="st2" points="-4409.9,961.8 -4294.1,1077.5 -4294.1,961.8 			"/>
		</g>
	</g>
	<g>
		<g>
			<polygon class="st3" points="-4352,1019.6 -4294.1,1077.5 -4294.1,961.8 			"/>
		</g>
	</g>
	<g>
		<g>
			<rect x="-4371.3" y="961.8" class="st4" width="38.6" height="41.2"/>
		</g>
	</g>
	<g>
		<g>
			<polygon class="st5" points="-4371.3,961.8 -4332.7,1003 -4332.7,961.8 			"/>
		</g>
	</g>
	<g>
		<g>
			<path class="st6" d="M-4332.7,958.8h-38.6c-1.7,0-3,1.3-3,3v41.2c0,1.7,1.3,3,3,3h38.6c1.7,0,3-1.3,3-3v-41.2
				C-4329.7,960.1-4331,958.8-4332.7,958.8z M-4335.7,1000h-32.6v-35.2h32.6V1000z"/>
		</g>
	</g>
	<g>
		<g>
			<path class="st6" d="M-4294.1,957.8h-115.7c-2.2,0-4,1.8-4,4v115.7c0,2.2,1.8,4,4,4h115.7c2.2,0,4-1.8,4-4V961.8
				C-4290.1,959.6-4291.9,957.8-4294.1,957.8z M-4298.1,1073.5h-107.7V965.8h107.7V1073.5z"/>
		</g>
	</g>
	<g>
		<g>
			<polygon class="st7" points="-4492.3,888.8 -4498.2,894.7 -4498.2,900.1 -4488.2,890.1 -4488.2,888.8 			"/>
		</g>
	</g>
	<g>
		<g>
			<polygon class="st7" points="-4498.2,888.8 -4498.2,891.9 -4495.1,888.8 			"/>
		</g>
	</g>
	<g>
		<g>
			<polygon class="st7" points="-4498.2,902.9 -4498.2,908.3 -4488.2,898.3 -4488.2,892.9 			"/>
		</g>
	</g>
	<g>
		<g>
			<polygon class="st7" points="-4488.2,939.9 -4488.2,909.3 -4498.2,919.3 -4498.2,939.9 -4505.2,939.9 -4493.2,952 -4481.1,939.9 
							"/>
		</g>
	</g>
	<g>
		<g>
			<polygon class="st7" points="-4498.2,911.1 -4498.2,916.5 -4488.2,906.5 -4488.2,901.1 			"/>
		</g>
	</g>
	<g>
		<g>
			<polygon class="st7" points="-4513.1,868.5 -4519,874.4 -4519,879.8 -4509,869.8 -4509,868.5 			"/>
		</g>
	</g>
	<g>
		<g>
			<polygon class="st7" points="-4519,868.5 -4519,871.6 -4515.9,868.5 			"/>
		</g>
	</g>
	<g>
		<g>
			<polygon class="st7" points="-4519,882.6 -4519,888 -4509,877.9 -4509,872.6 			"/>
		</g>
	</g>
	<g>
		<g>
			<polygon class="st7" points="-4509,919.6 -4509,889 -4519,899 -4519,919.6 -4526.1,919.6 -4514,931.7 -4501.9,919.6 			"/>
		</g>
	</g>
	<g>
		<g>
			<polygon class="st7" points="-4519,890.8 -4519,896.2 -4509,886.1 -4509,880.8 			"/>
		</g>
	</g>
	<g>
		<g>
			<polygon class="st7" points="-4471.5,868.5 -4477.4,874.4 -4477.4,879.8 -4467.4,869.8 -4467.4,868.5 			"/>
		</g>
	</g>
	<g>
		<g>
			<polygon class="st7" points="-4477.4,868.5 -4477.4,871.6 -4474.3,868.5 			"/>
		</g>
	</g>
	<g>
		<g>
			<polygon class="st7" points="-4477.4,882.6 -4477.4,888 -4467.4,877.9 -4467.4,872.6 			"/>
		</g>
	</g>
	<g>
		<g>
			<polygon class="st7" points="-4467.4,919.6 -4467.4,889 -4477.4,899 -4477.4,919.6 -4484.4,919.6 -4472.4,931.7 -4460.3,919.6 
							"/>
		</g>
	</g>
	<g>
		<g>
			<polygon class="st7" points="-4477.4,890.8 -4477.4,896.2 -4467.4,886.1 -4467.4,880.8 			"/>
		</g>
	</g>
	<g>
		<g>
			<polygon class="st7" points="-4209.9,888.8 -4215.8,894.7 -4215.8,900.1 -4205.8,890.1 -4205.8,888.8 			"/>
		</g>
	</g>
	<g>
		<g>
			<polygon class="st7" points="-4215.8,888.8 -4215.8,891.9 -4212.8,888.8 			"/>
		</g>
	</g>
	<g>
		<g>
			<polygon class="st7" points="-4215.8,902.9 -4215.8,908.3 -4205.8,898.3 -4205.8,892.9 			"/>
		</g>
	</g>
	<g>
		<g>
			<polygon class="st7" points="-4205.8,939.9 -4205.8,909.3 -4215.8,919.3 -4215.8,939.9 -4222.9,939.9 -4210.8,952 -4198.8,939.9 
							"/>
		</g>
	</g>
	<g>
		<g>
			<polygon class="st7" points="-4215.8,911.1 -4215.8,916.5 -4205.8,906.5 -4205.8,901.1 			"/>
		</g>
	</g>
	<g>
		<g>
			<polygon class="st7" points="-4230.7,868.5 -4236.6,874.4 -4236.6,879.8 -4226.6,869.8 -4226.6,868.5 			"/>
		</g>
	</g>
	<g>
		<g>
			<polygon class="st7" points="-4236.6,868.5 -4236.6,871.6 -4233.6,868.5 			"/>
		</g>
	</g>
	<g>
		<g>
			<polygon class="st7" points="-4236.6,882.6 -4236.6,888 -4226.6,877.9 -4226.6,872.6 			"/>
		</g>
	</g>
	<g>
		<g>
			<polygon class="st7" points="-4226.6,919.6 -4226.6,889 -4236.6,899 -4236.6,919.6 -4243.7,919.6 -4231.6,931.7 -4219.6,919.6 
							"/>
		</g>
	</g>
	<g>
		<g>
			<polygon class="st7" points="-4236.6,890.8 -4236.6,896.2 -4226.6,886.1 -4226.6,880.8 			"/>
		</g>
	</g>
	<g>
		<g>
			<polygon class="st7" points="-4189.1,868.5 -4195,874.4 -4195,879.8 -4185,869.8 -4185,868.5 			"/>
		</g>
	</g>
	<g>
		<g>
			<polygon class="st7" points="-4195,868.5 -4195,871.6 -4191.9,868.5 			"/>
		</g>
	</g>
	<g>
		<g>
			<polygon class="st7" points="-4195,882.6 -4195,888 -4185,877.9 -4185,872.6 			"/>
		</g>
	</g>
	<g>
		<g>
			<polygon class="st7" points="-4185,919.6 -4185,889 -4195,899 -4195,919.6 -4202.1,919.6 -4190,931.7 -4177.9,919.6 			"/>
		</g>
	</g>
	<g>
		<g>
			<polygon class="st7" points="-4195,890.8 -4195,896.2 -4185,886.1 -4185,880.8 			"/>
		</g>
	</g>
	<g>
		<g>
			<polygon class="st7" points="-4360.9,893.3 -4356.5,901.1 -4352,908.8 -4347.5,901.1 -4343.1,893.3 			"/>
		</g>
	</g>
	<g>
		<g>
			<polygon class="st1" points="-4360.9,837.7 -4356.5,845.5 -4352,853.2 -4347.5,845.5 -4343.1,837.7 			"/>
		</g>
	</g>
	<g>
		<g>
			<path class="st6" d="M-4316.1,1035c-6.9-13.7-20.6-22.1-35.9-22.1c-15.2,0-29,8.5-35.9,22.1l-0.7,1.4l0.7,1.4
				c6.9,13.7,20.6,22.1,35.9,22.1c15.3,0,29-8.5,35.9-22.1l0.7-1.3L-4316.1,1035z M-4352,1053.8c-12.5,0-23.7-6.7-29.8-17.5
				c6.1-10.8,17.4-17.5,29.8-17.5c12.5,0,23.7,6.7,29.8,17.5C-4328.3,1047.1-4339.5,1053.8-4352,1053.8z"/>
		</g>
	</g>
	<g>
		<g>
			<path class="st6" d="M-4352,1028.8c-4.1,0-7.5,3.3-7.5,7.5c0,4.1,3.3,7.5,7.5,7.5c4.1,0,7.5-3.3,7.5-7.5
				C-4344.5,1032.2-4347.9,1028.8-4352,1028.8z"/>
		</g>
	</g>
	<g>
		<g>
			<path class="st6" d="M-4352,1025.8c-5.8,0-10.5,4.7-10.5,10.5c0,5.8,4.7,10.5,10.5,10.5c5.8,0,10.5-4.7,10.5-10.5
				C-4341.5,1030.5-4346.2,1025.8-4352,1025.8z M-4352,1040.8c-2.5,0-4.5-2-4.5-4.5c0-2.5,2-4.5,4.5-4.5c2.5,0,4.5,2,4.5,4.5
				C-4347.5,1038.8-4349.5,1040.8-4352,1040.8z"/>
		</g>
	</g>
	<g>
		<g>
			<path class="st2" d="M-4204.4,1008.6c-4.8-4.8-12.7-4.8-17.6,0l-38.9,38.9l-11.9-11.9c-4.8-4.8-12.7-4.8-17.5,0
				c-4.8,4.8-4.8,12.7,0,17.5l20.7,20.7c2.4,2.4,5.6,3.6,8.8,3.6c3.2,0,6.4-1.2,8.8-3.6l47.7-47.7
				C-4199.6,1021.3-4199.6,1013.4-4204.4,1008.6z"/>
		</g>
	</g>
	<g>
		<g>
			<path class="st1" d="M-4204.4,1008.6c-4.8-4.8-12.7-4.8-17.6,0l-38.9,38.9l-11.9-11.9c-4.8-4.8-12.7-4.8-17.5,0
				c-0.1,0.1-0.2,0.2-0.3,0.3c0.1,0.1,0.2,0.2,0.3,0.3l20.7,20.7c2.4,2.4,5.6,3.6,8.8,3.6c3.2,0,6.4-1.2,8.8-3.6l47.7-47.7
				c0.1-0.1,0.2-0.2,0.3-0.3C-4204.2,1008.8-4204.3,1008.7-4204.4,1008.6z"/>
		</g>
	</g>
	<g>
		<g>
			<path class="st6" d="M-4202.3,1006.5c-6-6-15.8-6-21.8,0l-36.8,36.8l-9.8-9.8c-6-6-15.8-6-21.8,0c-2.9,2.9-4.5,6.8-4.5,10.9
				s1.6,8,4.5,10.9l20.7,20.7c2.9,2.9,6.8,4.5,10.9,4.5s8-1.6,10.9-4.5l47.7-47.7c2.9-2.9,4.5-6.8,4.5-10.9
				C-4197.8,1013.3-4199.4,1009.4-4202.3,1006.5z M-4206.5,1024l-47.7,47.7c-1.8,1.8-4.1,2.8-6.7,2.8s-4.9-1-6.7-2.8l-20.7-20.7
				c-1.8-1.8-2.8-4.1-2.8-6.6c0-2.5,1-4.9,2.8-6.7c1.8-1.8,4.2-2.8,6.7-2.8c2.4,0,4.8,0.9,6.6,2.7l11.9,11.9c1.2,1.2,3.1,1.2,4.2,0
				l38.9-38.9c3.7-3.7,9.6-3.7,13.3,0c1.8,1.8,2.8,4.1,2.8,6.7S-4204.7,1022.2-4206.5,1024z"/>
		</g>
	</g>
	<g>
		<g>
			<rect x="-4572.4" y="691.6" class="st7" width="58.4" height="4"/>
		</g>
	</g>
	<g>
		<g>
			<rect x="-4572.4" y="702.9" class="st7" width="43.9" height="4"/>
		</g>
	</g>
	<g>
		<g>
			<rect x="-4572.4" y="714.2" class="st7" width="58.4" height="4"/>
		</g>
	</g>
	<g>
		<g>
			<rect x="-4572.4" y="725.5" class="st7" width="43.9" height="4"/>
		</g>
	</g>
	<g>
		<g>
			<rect x="-4572.4" y="736.8" class="st7" width="58.4" height="4"/>
		</g>
	</g>
	<g>
		<g>
			<rect x="-4190" y="691.6" class="st7" width="58.4" height="4"/>
		</g>
	</g>
	<g>
		<g>
			<rect x="-4175.4" y="702.9" class="st7" width="43.9" height="4"/>
		</g>
	</g>
	<g>
		<g>
			<rect x="-4190" y="714.2" class="st7" width="58.4" height="4"/>
		</g>
	</g>
	<g>
		<g>
			<rect x="-4175.4" y="725.5" class="st7" width="43.9" height="4"/>
		</g>
	</g>
	<g>
		<g>
			<rect x="-4190" y="736.8" class="st7" width="58.4" height="4"/>
		</g>
	</g>
</g>
<g>
	<g>
		<g>
			<path class="st0" d="M287.5,162.2L287.5,162.2l0,134.8l134.8,0C422.3,222.5,361.9,162.1,287.5,162.2z"/>
		</g>
	</g>
	<g>
		<g>
			<path class="st0" d="M287.5,296.9l-134.8,0c0,74.5,60.3,134.8,134.8,134.8L287.5,296.9z"/>
		</g>
	</g>
	<g>
		<g>
			<path class="st7" d="M145.3,155.6l2.8,2.8c20.8-20.8,54.8-20.8,75.6,0l2.8-2.8C204.1,133.2,167.7,133.2,145.3,155.6z"/>
		</g>
	</g>
	<g>
		<g>
			<path class="st7" d="M223.7,234c-10.1,10.1-23.5,15.7-37.8,15.7c-14.3,0-27.7-5.6-37.8-15.7l-2.8,2.8
				c10.9,10.9,25.3,16.8,40.6,16.8c15.4,0,29.8-6,40.6-16.8L223.7,234z"/>
		</g>
	</g>
	<g>
		<g>
			<path class="st7" d="M133,188.1l-4-0.6c-0.2,1.4-0.4,2.7-0.5,4.1l4,0.3C132.7,190.7,132.8,189.4,133,188.1z M132.4,196.2l0-0.4
				l-4,0l0,0.4c0,1.2,0,2.5,0.1,3.7l4-0.3C132.5,198.5,132.4,197.3,132.4,196.2z M137.5,173.4l-3.6-1.7c-0.6,1.2-1.1,2.5-1.6,3.8
				l3.7,1.4C136.5,175.8,137,174.6,137.5,173.4z M141.3,166.7l-3.3-2.2c-0.8,1.1-1.5,2.3-2.2,3.5l3.5,2
				C139.9,168.9,140.6,167.8,141.3,166.7z M146,160.6l-3-2.7c-0.9,1-1.8,2.1-2.6,3.2l3.2,2.4C144.3,162.6,145.1,161.6,146,160.6z
				 M134.7,180.6l-3.8-1.2c-0.4,1.3-0.8,2.7-1.1,4l3.9,0.9C134,183.1,134.4,181.8,134.7,180.6z M140.8,225l-3.4,2.2
				c0.7,1.2,1.5,2.3,2.4,3.4l3.2-2.4C142.3,227.2,141.5,226.1,140.8,225z M145.5,231.2l-3,2.6c0.9,1,1.9,2.1,2.8,3l2.8-2.8
				C147.2,233.1,146.3,232.2,145.5,231.2z M132.9,203.5l-4,0.5c0.2,1.4,0.4,2.7,0.7,4.1l3.9-0.8C133.3,206,133.1,204.7,132.9,203.5z
				 M137.2,218.2l-3.6,1.7c0.6,1.3,1.2,2.5,1.8,3.7l3.5-1.9C138.3,220.6,137.7,219.4,137.2,218.2z M134.5,211l-3.8,1.1
				c0.4,1.3,0.8,2.6,1.3,3.9l3.8-1.4C135.3,213.5,134.9,212.2,134.5,211z"/>
		</g>
	</g>
	<g>
		<g>
			<path class="st7" d="M234.6,174.2l3.6-1.7c-0.6-1.3-1.2-2.5-1.8-3.7l-3.5,1.9C233.5,171.8,234.1,173,234.6,174.2z M229.4,158.6
				c-0.9-1-1.9-2.1-2.8-3l-2.8,2.8c0.9,0.9,1.8,1.9,2.6,2.8L229.4,158.6z M225.8,231.8l3,2.7c0.9-1,1.8-2.1,2.6-3.2l-3.2-2.4
				C227.5,229.9,226.7,230.8,225.8,231.8z M238.9,188.9l4-0.5c-0.2-1.4-0.4-2.7-0.7-4.1l-3.9,0.8
				C238.5,186.4,238.7,187.7,238.9,188.9z M237.3,181.4l3.8-1.1c-0.4-1.3-0.8-2.6-1.3-3.9l-3.8,1.4
				C236.5,178.9,236.9,180.2,237.3,181.4z M231,167.4l3.4-2.2c-0.7-1.2-1.5-2.3-2.4-3.4l-3.2,2.4C229.5,165.2,230.3,166.3,231,167.4
				z M243.3,192.5l-4,0.3c0.1,1.1,0.1,2.3,0.1,3.4l0,0.4l4,0l0-0.4C243.4,195,243.3,193.7,243.3,192.5z M230.5,225.7l3.3,2.2
				c0.8-1.1,1.5-2.3,2.2-3.5l-3.5-2C231.9,223.5,231.2,224.6,230.5,225.7z M238.8,204.3l4,0.6c0.2-1.4,0.4-2.7,0.5-4.1l-4-0.3
				C239.1,201.8,239,203,238.8,204.3z M237.1,211.8l3.8,1.2c0.4-1.3,0.8-2.7,1.1-4l-3.9-0.9C237.8,209.3,237.4,210.6,237.1,211.8z
				 M234.3,219l3.6,1.7c0.6-1.2,1.1-2.5,1.6-3.8l-3.7-1.4C235.3,216.7,234.8,217.9,234.3,219z"/>
		</g>
	</g>
	<g>
		<g>
			<path class="st7" d="M185.9,78.6v4c62.7,0,113.6,51,113.6,113.6h4C303.5,131.3,250.8,78.6,185.9,78.6z"/>
		</g>
	</g>
	<g>
		<g>
			<path class="st7" d="M72.3,196.2h-4c0,64.9,52.8,117.6,117.6,117.6v-4C123.2,309.8,72.3,258.9,72.3,196.2z"/>
		</g>
	</g>
	<g>
		<g>
			<path class="st7" d="M81.8,141.4l3.5,1.9c0.6-1.1,1.2-2.3,1.9-3.4l-3.5-2C83.1,139,82.4,140.2,81.8,141.4z M85.8,134.3l3.4,2.1
				c0.7-1.1,1.4-2.2,2.1-3.3l-3.3-2.2C87.3,132,86.5,133.2,85.8,134.3z M78.2,148.7l3.7,1.6c0.5-1.2,1.1-2.4,1.7-3.6l-3.6-1.7
				C79.4,146.3,78.8,147.5,78.2,148.7z M90.3,127.6l3.2,2.3c0.8-1.1,1.6-2.1,2.4-3.2l-3.2-2.4C92,125.4,91.1,126.5,90.3,127.6z
				 M95.3,121.1l3.1,2.6c0.8-1,1.7-2,2.6-3l-3-2.7C97.1,119,96.2,120.1,95.3,121.1z M100.7,115l2.9,2.8c0.9-1,1.8-1.9,2.8-2.8
				l-2.8-2.9C102.6,113.1,101.7,114.1,100.7,115z M75.2,156.3l3.8,1.4c0.4-1.2,0.9-2.5,1.4-3.7l-3.7-1.5
				C76.1,153.8,75.6,155,75.2,156.3z M68.3,196.2h4c0-1.3,0-2.6,0.1-3.9l-4-0.1C68.3,193.5,68.3,194.8,68.3,196.2z M69.4,180l4,0.5
				c0.2-1.3,0.4-2.6,0.6-3.9L70,176C69.8,177.3,69.5,178.6,69.4,180z M72.7,164.1l3.8,1.1c0.4-1.3,0.7-2.5,1.1-3.8l-3.8-1.2
				C73.5,161.5,73.1,162.8,72.7,164.1z M70.8,172l3.9,0.8c0.3-1.3,0.6-2.6,0.9-3.8l-3.9-1C71.3,169.3,71,170.6,70.8,172z
				 M68.5,188.1l4,0.3c0.1-1.3,0.2-2.6,0.3-3.9l-4-0.4C68.7,185.3,68.6,186.7,68.5,188.1z M156,82.4l1,3.9c1.3-0.3,2.5-0.6,3.8-0.9
				l-0.9-3.9C158.6,81.7,157.3,82.1,156,82.4z M163.9,80.6l0.7,3.9c1.3-0.2,2.6-0.5,3.9-0.7l-0.6-4
				C166.6,80.1,165.3,80.4,163.9,80.6z M184.2,78.6c-1.4,0-2.7,0.1-4.1,0.1l0.2,4c1.3-0.1,2.6-0.1,3.9-0.1L184.2,78.6z M148.2,84.7
				l1.3,3.8c1.2-0.4,2.5-0.8,3.7-1.2l-1.1-3.8C150.8,83.9,149.5,84.3,148.2,84.7z M172,79.4l0.5,4c1.3-0.2,2.6-0.3,3.9-0.4l-0.3-4
				C174.7,79.1,173.3,79.2,172,79.4z M133.2,91l1.8,3.6c1.2-0.6,2.4-1.2,3.5-1.7l-1.7-3.6C135.7,89.8,134.4,90.4,133.2,91z
				 M119.3,99.2l2.3,3.3c1.1-0.7,2.2-1.5,3.3-2.2l-2.2-3.4C121.5,97.7,120.4,98.5,119.3,99.2z M112.7,104.1l2.5,3.1
				c1-0.8,2.1-1.6,3.1-2.4l-2.4-3.2C114.9,102.4,113.8,103.2,112.7,104.1z M106.5,109.4l2.7,3c1-0.9,2-1.8,2.9-2.6l-2.6-3
				C108.6,107.5,107.5,108.4,106.5,109.4z M126.1,94.9l2,3.4c1.1-0.7,2.3-1.3,3.4-1.9l-1.9-3.5C128.5,93.5,127.3,94.2,126.1,94.9z
				 M140.6,87.6l1.5,3.7c1.2-0.5,2.4-1,3.6-1.4l-1.4-3.7C143.1,86.6,141.9,87.1,140.6,87.6z"/>
		</g>
	</g>
	<g>
		<g>
			<path class="st7" d="M240.2,296l1.9,3.5c1.2-0.6,2.4-1.3,3.5-2l-2-3.4C242.5,294.8,241.4,295.4,240.2,296z M233.2,299.5l1.7,3.6
				c1.2-0.6,2.5-1.2,3.7-1.8l-1.8-3.6C235.6,298.4,234.4,299,233.2,299.5z M226,302.6l1.4,3.7c1.3-0.5,2.5-1,3.8-1.5l-1.5-3.7
				C228.4,301.6,227.2,302.1,226,302.6z M247,292l2.2,3.4c1.1-0.7,2.3-1.5,3.4-2.2l-2.3-3.3C249.2,290.6,248.1,291.3,247,292z
				 M253.5,287.6l2.4,3.2c1.1-0.8,2.2-1.6,3.2-2.5l-2.5-3.1C255.5,286,254.5,286.8,253.5,287.6z M210.9,307.1l0.9,3.9
				c1.3-0.3,2.6-0.6,4-1l-1-3.9C213.5,306.5,212.2,306.8,210.9,307.1z M187.6,309.8l0.1,4c1.4,0,2.7-0.1,4.1-0.1l-0.2-4
				C190.2,309.8,188.9,309.8,187.6,309.8z M218.5,305.1l1.1,3.8c1.3-0.4,2.6-0.8,3.9-1.2l-1.3-3.8
				C221.1,304.3,219.8,304.7,218.5,305.1z M195.4,309.4l0.3,4c1.3-0.1,2.7-0.2,4-0.4l-0.5-4C198,309.2,196.7,309.3,195.4,309.4z
				 M259.6,282.7l2.6,3c1-0.9,2.1-1.8,3-2.7l-2.7-3C261.6,281,260.6,281.9,259.6,282.7z M203.2,308.5l0.6,4c1.3-0.2,2.7-0.4,4-0.7
				l-0.7-3.9C205.8,308.1,204.5,308.3,203.2,308.5z M298.9,208l4,0.4c0.1-1.3,0.3-2.7,0.3-4.1l-4-0.3
				C299.2,205.4,299.1,206.7,298.9,208z M294.1,231l3.8,1.2c0.4-1.3,0.8-2.6,1.2-3.9l-3.8-1.1C294.9,228.5,294.5,229.8,294.1,231z
				 M265.4,277.4l2.8,2.9c1-0.9,1.9-1.9,2.9-2.9l-2.9-2.8C267.3,275.6,266.3,276.5,265.4,277.4z M299.5,196.2c0,1.3,0,2.6-0.1,3.9
				l4,0.1c0-1.3,0.1-2.7,0.1-4.1H299.5z M291.4,238.4l3.7,1.5c0.5-1.3,1-2.5,1.5-3.8l-3.8-1.4C292.4,236,291.9,237.2,291.4,238.4z
				 M297.9,215.8l3.9,0.7c0.2-1.3,0.4-2.7,0.6-4l-4-0.5C298.3,213.2,298.1,214.5,297.9,215.8z M296.2,223.5l3.9,1
				c0.3-1.3,0.6-2.6,0.9-4l-3.9-0.8C296.8,220.9,296.6,222.2,296.2,223.5z M270.8,271.7l3,2.7c0.9-1,1.8-2,2.7-3.1l-3.1-2.6
				C272.5,269.7,271.7,270.7,270.8,271.7z M275.8,265.7l3.2,2.4c0.8-1.1,1.6-2.2,2.4-3.3l-3.2-2.3
				C277.4,263.6,276.6,264.6,275.8,265.7z M280.4,259.3l3.3,2.2c0.8-1.1,1.5-2.3,2.2-3.4l-3.4-2.1
				C281.9,257.1,281.2,258.2,280.4,259.3z M288.3,245.6l3.6,1.7c0.6-1.2,1.2-2.5,1.7-3.7l-3.7-1.6
				C289.4,243.3,288.8,244.5,288.3,245.6z M284.6,252.6l3.5,2c0.7-1.2,1.3-2.4,2-3.6l-3.5-1.9C285.9,250.3,285.2,251.5,284.6,252.6z
				"/>
		</g>
	</g>
	<g>
		<g>
			
				<rect x="244.8" y="109.2" transform="matrix(0.7071 -0.7071 0.7071 0.7071 0.7023 224.1199)" class="st7" width="52.1" height="4"/>
		</g>
	</g>
	<g>
		<g>
			
				<rect x="74.9" y="279.2" transform="matrix(0.7071 -0.7071 0.7071 0.7071 -169.2854 153.7202)" class="st7" width="52.1" height="4"/>
		</g>
	</g>
	<g>
		<g>
			
				<rect x="268.9" y="255.1" transform="matrix(0.7071 -0.7071 0.7071 0.7071 -119.4941 273.9093)" class="st7" width="4" height="52.1"/>
		</g>
	</g>
	<g>
		<g>
			
				<rect x="98.9" y="85.2" transform="matrix(0.7071 -0.7071 0.7071 0.7071 -49.0861 103.9236)" class="st7" width="4" height="52.1"/>
		</g>
	</g>
	<g>
		<g>
			<path class="st8" d="M406,246.1h-22.1c-24.7,0-44.8,20-44.8,44.8v78.3c0,24.7,20,44.8,44.8,44.8H406c24.7,0,44.8-20,44.8-44.8
				v-78.3C450.8,266.1,430.7,246.1,406,246.1z"/>
		</g>
	</g>
	<g>
		<g>
			<path class="st4" d="M406,260.9h-22.1c-24.7,0-44.8,20-44.8,44.8v63.5c0,24.7,20,44.8,44.8,44.8H406c24.7,0,44.8-20,44.8-44.8
				v-63.5C450.8,280.9,430.7,260.9,406,260.9z"/>
		</g>
	</g>
	<g>
		<g>
			<path class="st6" d="M406,243.1h-22.1c-26.3,0-47.8,21.4-47.8,47.8v78.3c0,26.3,21.4,47.8,47.8,47.8H406
				c26.3,0,47.8-21.4,47.8-47.8v-78.3C453.8,264.5,432.4,243.1,406,243.1z M447.8,369.2c0,23-18.7,41.8-41.8,41.8h-22.1
				c-23,0-41.8-18.7-41.8-41.8v-78.3c0-23,18.7-41.8,41.8-41.8H406c23,0,41.8,18.7,41.8,41.8V369.2z"/>
		</g>
	</g>
	<g>
		<g>
			<path class="st7" d="M344.5,299h4c0-18.8,15.3-34.1,34.1-34.1v-4C361.6,260.9,344.5,278,344.5,299z"/>
		</g>
	</g>
	<g>
		<g>
			<path class="st7" d="M416.6,299c0,18.8-15.3,34.1-34.1,34.1v4c21,0,38.1-17.1,38.1-38.1H416.6z"/>
		</g>
	</g>
	<g>
		<g>
			<path class="st7" d="M348.5,299l-4,0l0,0.7l4-0.1L348.5,299z M350.6,310.7l-3.8,1.4c0.5,1.3,1,2.6,1.7,3.9l3.6-1.8
				C351.5,313.1,351,311.9,350.6,310.7z M353.9,317.5l-3.4,2.2c0.8,1.2,1.6,2.3,2.5,3.4l3.1-2.5
				C355.4,319.5,354.6,318.5,353.9,317.5z M348.8,303.4l-4,0.5c0.2,1.4,0.4,2.8,0.8,4.1l3.9-0.9
				C349.2,305.9,348.9,304.6,348.8,303.4z M378.8,332.8l-0.4,4c1.4,0.2,2.8,0.2,4.2,0.2v-4C381.3,333.1,380,333,378.8,332.8z
				 M370.1,335c1.3,0.5,2.7,0.8,4.1,1.2l0.9-3.9c-1.2-0.3-2.4-0.6-3.6-1L370.1,335z M362.5,331.4c1.2,0.7,2.4,1.4,3.7,2l1.7-3.6
				c-1.1-0.5-2.2-1.1-3.3-1.8L362.5,331.4z M355.9,326.2c1,1,2.1,1.9,3.2,2.8l2.5-3.1c-1-0.8-1.9-1.6-2.8-2.5L355.9,326.2z"/>
		</g>
	</g>
	<g>
		<g>
			<path class="st7" d="M397.2,268.2c1.1,0.5,2.2,1.1,3.3,1.8l2.1-3.4c-1.2-0.7-2.4-1.4-3.7-2L397.2,268.2z M406.1,269l-2.5,3.1
				c1,0.8,1.9,1.6,2.8,2.5l2.8-2.9C408.2,270.8,407.2,269.9,406.1,269z M390.1,265.7c1.2,0.3,2.4,0.6,3.6,1l1.3-3.8
				c-1.3-0.5-2.7-0.8-4.1-1.2L390.1,265.7z M382.6,264.9c1.3,0,2.5,0.1,3.8,0.2l0.4-4c-1.4-0.2-2.8-0.2-4.2-0.2V264.9z M420.6,298.3
				l-4,0.1l0,0.6l4,0L420.6,298.3z M419.5,289.9l-3.9,0.9c0.3,1.2,0.5,2.5,0.7,3.7l4-0.5C420.1,292.7,419.9,291.3,419.5,289.9z
				 M416.6,282l-3.6,1.8c0.6,1.1,1.1,2.3,1.5,3.5l3.8-1.4C417.8,284.6,417.3,283.3,416.6,282z M412.1,274.9l-3.1,2.5
				c0.8,1,1.5,2,2.2,3.1l3.4-2.2C413.8,277.2,413,276,412.1,274.9z"/>
		</g>
	</g>
	<g>
		<g>
			<path class="st7" d="M328,244.4l2.8,2.8c28.5-28.5,75-28.5,103.5,0l2.8-2.8C407,214.3,358.1,214.3,328,244.4z"/>
		</g>
	</g>
	<g>
		<g>
			<path class="st7" d="M434.3,350.7c-28.5,28.5-75,28.5-103.5,0l-2.8,2.8c15,15,34.8,22.6,54.6,22.6c19.8,0,39.5-7.5,54.6-22.6
				L434.3,350.7z"/>
		</g>
	</g>
	<g>
		<g>
			<path class="st7" d="M313.3,275.1l-3.8-1.3c-0.4,1.3-0.9,2.6-1.2,3.9l3.8,1.1C312.5,277.6,312.9,276.4,313.3,275.1z M311.2,282.6
				l-3.9-0.9c-0.3,1.3-0.6,2.7-0.8,4l3.9,0.7C310.7,285.2,310.9,283.9,311.2,282.6z M316.3,267.9l-3.6-1.7c-0.6,1.2-1.1,2.5-1.6,3.8
				l3.7,1.5C315.2,270.3,315.7,269.1,316.3,267.9z M329.4,248.7l-2.9-2.7c-0.9,1-1.9,2-2.7,3.1l3,2.6
				C327.6,250.6,328.5,249.7,329.4,248.7z M319.9,261.1l-3.4-2.1c-0.7,1.2-1.4,2.4-2,3.6l3.5,1.9
				C318.6,263.3,319.3,262.2,319.9,261.1z M309.9,290.3l-4-0.5c-0.2,1.3-0.3,2.7-0.4,4.1l4,0.3C309.6,292.9,309.7,291.6,309.9,290.3
				z M324.3,254.7l-3.2-2.4c-0.8,1.1-1.6,2.2-2.4,3.3l3.3,2.3C322.8,256.7,323.5,255.7,324.3,254.7z M328.1,347.9l-3,2.7
				c0.9,1,1.9,2,2.8,3l2.8-2.8C329.9,349.8,329,348.9,328.1,347.9z M319,335.3l-3.5,2c0.7,1.2,1.4,2.4,2.1,3.5l3.4-2.2
				C320.3,337.6,319.6,336.4,319,335.3z M309.4,299c0-0.3,0-0.6,0-0.9l-4,0c0,0.3,0,0.6,0,1c0,1,0,2.1,0.1,3.1l4-0.2
				C309.4,301,309.4,300,309.4,299z M323.2,341.9l-3.2,2.3c0.8,1.1,1.6,2.2,2.5,3.3l3.1-2.5C324.8,343.9,324,342.9,323.2,341.9z
				 M315.5,328.4l-3.7,1.6c0.5,1.2,1.1,2.5,1.7,3.7l3.6-1.8C316.6,330.7,316,329.6,315.5,328.4z M312.8,321.1l-3.8,1.2
				c0.4,1.3,0.9,2.6,1.3,3.9l3.7-1.4C313.6,323.5,313.2,322.3,312.8,321.1z M309.7,305.8l-4,0.4c0.1,1.4,0.3,2.7,0.5,4.1l4-0.6
				C310,308.4,309.8,307.1,309.7,305.8z M310.8,313.5l-3.9,0.8c0.3,1.3,0.6,2.7,0.9,4l3.9-1C311.4,316.1,311.1,314.8,310.8,313.5z"
				/>
		</g>
	</g>
	<g>
		<g>
			<path class="st7" d="M449.6,269.6l3.7-1.6c-0.5-1.2-1.1-2.5-1.7-3.7l-3.6,1.8C448.5,267.2,449.1,268.4,449.6,269.6z M446.1,262.7
				l3.5-2c-0.7-1.2-1.4-2.4-2.1-3.5l-3.4,2.2C444.8,260.4,445.5,261.5,446.1,262.7z M441.9,256.1l3.2-2.3c-0.8-1.1-1.6-2.2-2.5-3.3
				l-3.1,2.5C440.3,254,441.1,255.1,441.9,256.1z M454.3,284.4l3.9-0.8c-0.3-1.3-0.6-2.7-0.9-4l-3.9,1
				C453.7,281.9,454,283.2,454.3,284.4z M455.4,292.1l4-0.4c-0.1-1.4-0.3-2.7-0.5-4.1l-4,0.6C455.1,289.5,455.3,290.8,455.4,292.1z
				 M440,247.4c-0.9-1-1.9-2-2.8-3l-2.8,2.8c0.9,0.9,1.8,1.9,2.7,2.8L440,247.4z M452.3,276.9l3.8-1.2c-0.4-1.3-0.9-2.6-1.3-3.9
				l-3.7,1.4C451.5,274.4,452,275.7,452.3,276.9z M455.2,307.7l4,0.5c0.2-1.3,0.3-2.7,0.4-4.1l-4-0.3
				C455.5,305.1,455.4,306.4,455.2,307.7z M435.7,349.3l2.9,2.7c0.9-1,1.9-2,2.7-3.1l-3-2.6C437.5,347.3,436.6,348.3,435.7,349.3z
				 M459.7,295.9l-4,0.2c0,1,0.1,2,0.1,3c0,0.3,0,0.6,0,0.9l4,0c0-0.3,0-0.6,0-1C459.7,297.9,459.7,296.9,459.7,295.9z M451.8,322.8
				l3.8,1.3c0.4-1.3,0.9-2.6,1.2-3.9l-3.8-1.1C452.6,320.4,452.2,321.6,451.8,322.8z M453.9,315.3l3.9,0.9c0.3-1.3,0.6-2.7,0.8-4
				l-3.9-0.7C454.4,312.8,454.2,314.1,453.9,315.3z M448.8,330l3.6,1.7c0.6-1.2,1.1-2.5,1.6-3.8l-3.7-1.5
				C449.9,327.7,449.4,328.9,448.8,330z M440.8,343.3l3.2,2.4c0.8-1.1,1.6-2.2,2.4-3.3l-3.3-2.3
				C442.3,341.2,441.6,342.3,440.8,343.3z M445.2,336.9l3.4,2.1c0.7-1.2,1.4-2.4,2-3.6l-3.5-1.9
				C446.5,334.7,445.8,335.8,445.2,336.9z"/>
		</g>
	</g>
	<g>
		<g>
			<rect x="380.6" y="203.9" class="st7" width="4" height="33.9"/>
		</g>
	</g>
	<g>
		<g>
			<rect x="380.6" y="360.2" class="st7" width="4" height="33.9"/>
		</g>
	</g>
	<g>
		<g>
			<rect x="443.8" y="297" class="st7" width="33.9" height="4"/>
		</g>
	</g>
	<g>
		<g>
			<rect x="287.5" y="297" class="st7" width="33.9" height="4"/>
		</g>
	</g>
	<g>
		<g>
			<path class="st1" d="M479.3,314.5c-6.9,0-12.4,5.6-12.4,12.4v17.9h-7.4v-55.6c0-6.9-5.6-12.4-12.4-12.4
				c-6.9,0-12.4,5.6-12.4,12.4v55.6h-7.4v-68.5c0-6.9-5.6-12.4-12.4-12.4c-6.9,0-12.4,5.6-12.4,12.4v68.5H395v-42.7
				c0-6.9-5.6-12.4-12.4-12.4c-6.9,0-12.4,5.6-12.4,12.4v97.8l-7.9-1.3v-7.5c0-11.5-9.3-20.8-20.8-20.8c-1.2,0-2.3,1-2.3,2.3v52.7
				l35.9,35.9c0,0,0,0,0,0l0.5,0.5l0-0.1c1.9,1.8,4.3,3.1,6.8,3.9v63.1h90.3v-63.8c8.9-4,18.8-16.9,18.8-44.2v-93.9
				C491.7,320,486.1,314.5,479.3,314.5z"/>
		</g>
	</g>
	<g>
		<g>
			<path class="st0" d="M479.3,324.8c-6.9,0-12.4,5.6-12.4,12.4v17.9h-7.4v-55.6c0-6.9-5.6-12.4-12.4-12.4
				c-6.9,0-12.4,5.6-12.4,12.4v55.6h-7.4v-68.5c0-6.9-5.6-12.4-12.4-12.4c-6.9,0-12.4,5.6-12.4,12.4v68.5H395v-42.7
				c0-6.9-5.6-12.4-12.4-12.4c-6.9,0-12.4,5.6-12.4,12.4v97.8l-7.9-1.3v-7.5c0-11.5-9.3-20.8-20.8-20.8c-1.2,0-2.3,1-2.3,2.3v42.4
				l35.9,35.9c0,0,0,0,0,0l0.5,0.5l0-0.1c1.9,1.8,4.3,3.1,6.8,3.9v63.1h90.3v-63.8c8.9-4,18.8-16.9,18.8-44.2v-83.6
				C491.7,330.3,486.1,324.8,479.3,324.8z"/>
		</g>
	</g>
	<g>
		<g>
			<rect x="382.2" y="502.9" class="st2" width="90.6" height="19.7"/>
		</g>
	</g>
	<g>
	</g>
	<g>
	</g>
	<g>
	</g>
	<g>
	</g>
	<g>
	</g>
	<g>
		<g>
			<path class="st6" d="M479.3,311.5c-8.5,0-15.4,6.9-15.4,15.4v14.9h-1.4v-52.6c0-8.5-6.9-15.4-15.4-15.4
				c-8.5,0-15.4,6.9-15.4,15.4v52.6h-1.4v-65.5c0-8.5-6.9-15.4-15.4-15.4c-8.5,0-15.4,6.9-15.4,15.4v65.5H398v-39.7
				c0-8.5-6.9-15.4-15.4-15.4s-15.4,6.9-15.4,15.4v94.2l-1.9-0.3v-4.9c0-13.1-10.7-23.8-23.8-23.8c-2.9,0-5.3,2.4-5.3,5.3v52.7
				c0,0.8,0.3,1.6,0.9,2.1l35.9,35.9c0,0,0,0,0.1,0.1l0.5,0.5c0.2,0.2,0.3,0.3,0.5,0.4c1.6,1.4,3.5,2.6,5.5,3.4v61c0,1.7,1.3,3,3,3
				h90.3c1.7,0,3-1.3,3-3v-61.9c11.8-6.6,18.8-23.5,18.8-46v-93.9C494.7,318.4,487.8,311.5,479.3,311.5z M488.7,420.8
				c0,31.3-13.1,39.6-17.1,41.4c-1.1,0.5-1.8,1.6-1.8,2.7v60.8h-84.3v-60.1c0-1.3-0.9-2.5-2.2-2.9c-2.1-0.6-4-1.7-5.7-3.2
				c-0.1-0.1-0.2-0.1-0.3-0.2l-0.1-0.1c0,0,0-0.1-0.1-0.1l-35.1-35.1v-50.7c9.5,0.4,17,8.2,17,17.8v7.5c0,1.5,1.1,2.7,2.5,3l7.9,1.3
				c0.9,0.1,1.8-0.1,2.4-0.7c0.7-0.6,1.1-1.4,1.1-2.3v-97.8c0-5.2,4.2-9.4,9.4-9.4c5.2,0,9.4,4.2,9.4,9.4v42.7c0,1.7,1.3,3,3,3h7.4
				c1.7,0,3-1.3,3-3v-68.5c0-5.2,4.2-9.4,9.4-9.4c5.2,0,9.4,4.2,9.4,9.4v68.5c0,1.7,1.3,3,3,3h7.4c1.7,0,3-1.3,3-3v-55.6
				c0-5.2,4.2-9.4,9.4-9.4c5.2,0,9.4,4.2,9.4,9.4v55.6c0,1.7,1.3,3,3,3h7.4c1.7,0,3-1.3,3-3v-17.9c0-5.2,4.2-9.4,9.4-9.4
				c5.2,0,9.4,4.2,9.4,9.4V420.8z"/>
		</g>
	</g>
	<g>
		<g>
			<path class="st6" d="M382.6,456.6c-1.7,0-3,1.3-3,3v69.1c0,1.7,1.3,3,3,3c1.7,0,3-1.3,3-3v-69.1
				C385.6,458,384.2,456.6,382.6,456.6z"/>
		</g>
	</g>
	<g>
		<g>
			<path class="st6" d="M370.1,392c-1.7,0-3,1.3-3,3v14.3c0,1.7,1.3,3,3,3c1.7,0,3-1.3,3-3V395C373.1,393.3,371.8,392,370.1,392z"/>
		</g>
	</g>
	<g>
		<g>
			<path class="st6" d="M406.7,341.8H395c-1.7,0-3,1.3-3,3s1.3,3,3,3h11.7c1.7,0,3-1.3,3-3S408.3,341.8,406.7,341.8z"/>
		</g>
	</g>
	<g>
		<g>
			<path class="st6" d="M471.2,341.8h-11.7c-1.7,0-3,1.3-3,3s1.3,3,3,3h11.7c1.7,0,3-1.3,3-3S472.8,341.8,471.2,341.8z"/>
		</g>
	</g>
	<g>
		<g>
			<path class="st6" d="M438.9,341.8h-11.7c-1.7,0-3,1.3-3,3s1.3,3,3,3h11.7c1.7,0,3-1.3,3-3S440.6,341.8,438.9,341.8z"/>
		</g>
	</g>
	<g>
		<g>
			<rect x="374.5" y="519" class="st3" width="107.1" height="27.4"/>
		</g>
	</g>
	<g>
		<g>
			<rect x="374.5" y="532.7" class="st0" width="107.1" height="13.7"/>
		</g>
	</g>
	<g>
		<g>
			<path class="st6" d="M481.6,515H374.5c-2.2,0-4,1.8-4,4v27.4c0,2.2,1.8,4,4,4h107.1c2.2,0,4-1.8,4-4V519
				C485.6,516.8,483.9,515,481.6,515z M477.6,542.5h-99.1V523h99.1V542.5z"/>
		</g>
	</g>
	<g>
		<g>
			<path class="st6" d="M467.9,517c-1.1,0-2,0.9-2,2v27.4c0,1.1,0.9,2,2,2s2-0.9,2-2V519C469.9,517.9,469,517,467.9,517z"/>
		</g>
	</g>
	<g>
		<g>
			<path class="st6" d="M454.6,517c-1.1,0-2,0.9-2,2v27.4c0,1.1,0.9,2,2,2c1.1,0,2-0.9,2-2V519C456.6,517.9,455.8,517,454.6,517z"/>
		</g>
	</g>
	<g>
		<g>
			<path class="st6" d="M441.4,517c-1.1,0-2,0.9-2,2v27.4c0,1.1,0.9,2,2,2c1.1,0,2-0.9,2-2V519C443.4,517.9,442.5,517,441.4,517z"/>
		</g>
	</g>
	<g>
		<g>
			<path class="st6" d="M428.1,517c-1.1,0-2,0.9-2,2v27.4c0,1.1,0.9,2,2,2s2-0.9,2-2V519C430.1,517.9,429.2,517,428.1,517z"/>
		</g>
	</g>
	<g>
		<g>
			<path class="st6" d="M414.8,517c-1.1,0-2,0.9-2,2v27.4c0,1.1,0.9,2,2,2s2-0.9,2-2V519C416.8,517.9,415.9,517,414.8,517z"/>
		</g>
	</g>
	<g>
		<g>
			<path class="st6" d="M401.5,517c-1.1,0-2,0.9-2,2v27.4c0,1.1,0.9,2,2,2c1.1,0,2-0.9,2-2V519C403.5,517.9,402.7,517,401.5,517z"/>
		</g>
	</g>
	<g>
		<g>
			<path class="st6" d="M388.3,517c-1.1,0-2,0.9-2,2v27.4c0,1.1,0.9,2,2,2c1.1,0,2-0.9,2-2V519C390.3,517.9,389.4,517,388.3,517z"/>
		</g>
	</g>
	<g>
		<g>
			<path class="st8" d="M190.7,139.4c-2.9-1.9-6.8-1.9-9.7,0c-19.1,12.7-30.5,33.9-30.5,56.8c0,22.9,11.4,44.1,30.5,56.8
				c1.5,1,3.2,1.5,4.8,1.5s3.4-0.5,4.8-1.5c19.1-12.7,30.5-33.9,30.5-56.8C221.2,173.3,209.8,152.1,190.7,139.4z"/>
		</g>
	</g>
	<g>
		<g>
			<path class="st4" d="M188.3,139.4c-1.5-1.9-3.4-1.9-4.8,0c-9.5,12.7-15.2,33.9-15.2,56.8c0,22.9,5.7,44.1,15.2,56.8
				c0.7,1,1.6,1.5,2.4,1.5c0.8,0,1.7-0.5,2.4-1.5c9.5-12.7,15.2-33.9,15.2-56.8C203.6,173.3,197.9,152.1,188.3,139.4z"/>
		</g>
	</g>
	<g>
		<g>
			<path class="st6" d="M193,136.1c-4.3-2.8-9.8-2.8-14.1,0c-20.2,13.4-32.3,35.9-32.3,60.1c0,24.2,12.1,46.7,32.3,60.1
				c2.1,1.4,4.5,2.1,7.1,2.1c2.5,0,5-0.7,7.1-2.1c20.2-13.4,32.3-35.9,32.3-60.1C225.2,172,213.2,149.5,193,136.1z M188.5,249.7
				c-1.6,1-3.7,1-5.3,0c-18-11.9-28.7-31.9-28.7-53.5c0-21.5,10.7-41.5,28.7-53.5c0.8-0.5,1.7-0.8,2.6-0.8c0.9,0,1.8,0.3,2.6,0.8
				c18,11.9,28.7,31.9,28.7,53.5C217.2,217.7,206.5,237.7,188.5,249.7z"/>
		</g>
	</g>
	<g>
		<g>
			<path class="st6" d="M185.9,265.4c-2.2,0-4,1.8-4,4V304c0,0.9-0.8,1.7-1.7,1.7H164c-0.9,0-1.7-0.8-1.7-1.7v-10.1c0-2.2-1.8-4-4-4
				c-2.2,0-4,1.8-4,4V304c0,5.3,4.3,9.7,9.7,9.7h16.2c5.3,0,9.7-4.3,9.7-9.7v-34.5C189.9,267.2,188.1,265.4,185.9,265.4z"/>
		</g>
	</g>
	<g>
		<g>
			<path class="st6" d="M165.8,288.9l-4.7-4.7c-0.8-0.8-1.8-1.2-2.8-1.2c-1.1,0-2.1,0.4-2.8,1.2l-4.7,4.7c-1.6,1.6-1.6,4.1,0,5.7
				c1.6,1.6,4.1,1.6,5.7,0l1.9-1.9l1.9,1.9c0.8,0.8,1.8,1.2,2.8,1.2c1,0,2-0.4,2.8-1.2C167.4,293,167.4,290.5,165.8,288.9z"/>
		</g>
	</g>
	<g>
		<g>
			<path class="st6" d="M213.5,289.9c-2.2,0-4,1.8-4,4V304c0,0.9-0.8,1.7-1.7,1.7h-16.2c-0.9,0-1.7-0.8-1.7-1.7v-34.5
				c0-2.2-1.8-4-4-4c-2.2,0-4,1.8-4,4V304c0,5.3,4.3,9.7,9.7,9.7h16.2c5.3,0,9.7-4.3,9.7-9.7v-10.1
				C217.5,291.7,215.7,289.9,213.5,289.9z"/>
		</g>
	</g>
	<g>
		<g>
			<path class="st6" d="M221,288.9l-4.7-4.7c-0.8-0.8-1.8-1.2-2.8-1.2c-1.1,0-2.1,0.4-2.8,1.2l-4.7,4.7c-1.6,1.6-1.6,4.1,0,5.7
				c1.6,1.6,4.1,1.6,5.7,0l1.9-1.9l1.9,1.9c0.8,0.8,1.8,1.2,2.8,1.2c1,0,2-0.4,2.8-1.2C222.6,293,222.6,290.5,221,288.9z"/>
		</g>
	</g>
	<g>
		<g>
			<path class="st6" d="M218.2,174h-64.6c-1.1,0-2,0.9-2,2s0.9,2,2,2h64.6c1.1,0,2-0.9,2-2S219.3,174,218.2,174z"/>
		</g>
	</g>
	<g>
		<g>
			<path class="st6" d="M218.2,194.2h-64.6c-1.1,0-2,0.9-2,2s0.9,2,2,2h64.6c1.1,0,2-0.9,2-2S219.3,194.2,218.2,194.2z"/>
		</g>
	</g>
	<g>
		<g>
			<path class="st6" d="M218.2,214.4h-64.6c-1.1,0-2,0.9-2,2c0,1.1,0.9,2,2,2h64.6c1.1,0,2-0.9,2-2
				C220.2,215.3,219.3,214.4,218.2,214.4z"/>
		</g>
	</g>
	<g>
		<g>
			<path class="st6" d="M185.9,52.6c-1.1,0-2,0.9-2,2v69c0,1.1,0.9,2,2,2c1.1,0,2-0.9,2-2v-69C187.9,53.5,187,52.6,185.9,52.6z"/>
		</g>
	</g>
	<g>
		<g>
			<path class="st6" d="M185.9,49.5c-2.6,0-4.7,2.1-4.7,4.7c0,2.6,2.1,4.7,4.7,4.7c2.6,0,4.7-2.1,4.7-4.7
				C190.6,51.7,188.5,49.5,185.9,49.5z M185.9,55c-0.4,0-0.7-0.3-0.7-0.7c0-0.4,0.3-0.7,0.7-0.7c0.4,0,0.7,0.3,0.7,0.7
				C186.6,54.7,186.3,55,185.9,55z"/>
		</g>
	</g>
	<g>
		<g>
			<path class="st6" d="M185.9,325.3c-2.6,0-4.7,2.1-4.7,4.7s2.1,4.7,4.7,4.7c2.6,0,4.7-2.1,4.7-4.7S188.5,325.3,185.9,325.3z
				 M185.9,330.8c-0.4,0-0.7-0.3-0.7-0.7s0.3-0.7,0.7-0.7c0.4,0,0.7,0.3,0.7,0.7S186.3,330.8,185.9,330.8z"/>
		</g>
	</g>
	<g>
		<g>
			<path class="st6" d="M225.1,372.2c-1.1,0-2,0.9-2,2v57c0,6.9-5.7,12.6-12.6,12.6h-10c-6.9,0-12.6-5.7-12.6-12.6V330
				c0-1.1-0.9-2-2-2c-1.1,0-2,0.9-2,2v101.1c0,9.2,7.4,16.6,16.6,16.6h10c9.2,0,16.6-7.4,16.6-16.6v-57
				C227.1,373.1,226.2,372.2,225.1,372.2z"/>
		</g>
	</g>
	<g>
		<g>
			<path class="st6" d="M303.6,372.2c-1.1,0-2,0.9-2,2v57c0,6.9-5.7,12.6-12.6,12.6h-10c-6.9,0-12.6-5.7-12.6-12.6v-82.9
				c0-1.1-0.9-2-2-2s-2,0.9-2,2v82.9c0,9.2,7.4,16.6,16.6,16.6h10c9.2,0,16.6-7.4,16.6-16.6v-57
				C305.6,373.1,304.7,372.2,303.6,372.2z"/>
		</g>
	</g>
	<g>
		<g>
			<path class="st6" d="M359.1,56.6h-22.6c-19.2,0-34.9,15.7-34.9,34.9v296.4c0,1.1,0.9,2,2,2s2-0.9,2-2V91.4
				c0-17,13.9-30.9,30.9-30.9h22.6c17,0,30.9,13.9,30.9,30.9v154.6c0,1.1,0.9,2,2,2c1.1,0,2-0.9,2-2V91.4
				C394,72.2,378.3,56.6,359.1,56.6z"/>
		</g>
	</g>
	<g>
		<g>
			<path class="st6" d="M249.7,324.4h-10c-9.2,0-16.6,7.4-16.6,16.6v57c0,1.1,0.9,2,2,2s2-0.9,2-2v-57c0-6.9,5.7-12.6,12.6-12.6h10
				c6.9,0,12.6,5.7,12.6,12.6v80c0,1.1,0.9,2,2,2s2-0.9,2-2v-80C266.3,331.8,258.9,324.4,249.7,324.4z"/>
		</g>
	</g>
	<g>
		<g>
			<path class="st8" d="M500.8,116c-18.2-18.2-47.6-18.2-65.8,0c-18.2,18.2-18.2,47.6,0,65.8c18.2,18.2,47.6,18.2,65.8,0
				C519,163.6,519,134.1,500.8,116z"/>
		</g>
	</g>
	<g>
		<g>
			<path class="st4" d="M435,116c-18.2,18.2-18.2,47.6,0,65.8l65.8-65.8C482.6,97.8,453.2,97.8,435,116z"/>
		</g>
	</g>
	<g>
		<g>
			<path class="st7" d="M467.9,100.4c-26.7,0-48.5,21.8-48.5,48.5s21.8,48.5,48.5,48.5c26.7,0,48.5-21.8,48.5-48.5
				S494.7,100.4,467.9,100.4z M467.9,193.4c-24.5,0-44.5-20-44.5-44.5c0-24.5,20-44.5,44.5-44.5c24.5,0,44.5,20,44.5,44.5
				C512.4,173.4,492.5,193.4,467.9,193.4z"/>
		</g>
	</g>
	<g>
		<g>
			<path class="st7" d="M467.9,100.4c-26.7,0-48.5,21.8-48.5,48.5s21.8,48.5,48.5,48.5c26.7,0,48.5-21.8,48.5-48.5
				S494.7,100.4,467.9,100.4z M467.9,193.4c-24.5,0-44.5-20-44.5-44.5c0-24.5,20-44.5,44.5-44.5c24.5,0,44.5,20,44.5,44.5
				C512.4,173.4,492.5,193.4,467.9,193.4z"/>
		</g>
	</g>
	<g>
		<g>
			
				<rect x="408.2" y="191.1" transform="matrix(0.7071 -0.7071 0.7071 0.7071 -12.2986 356.5869)" class="st7" width="32.2" height="4"/>
		</g>
	</g>
	<g>
		<g>
			<path class="st2" d="M526.6,98.2c-3-3-7.7-3-10.7,0l-56.5,56.5L446,141.3c-3-2.9-7.7-2.9-10.7,0c-3,3-3,7.7,0,10.7l18.8,18.8
				c1.5,1.5,3.4,2.2,5.3,2.2c1.9,0,3.9-0.7,5.3-2.2l61.9-61.9C529.6,105.9,529.6,101.1,526.6,98.2z"/>
		</g>
	</g>
	<g>
		<g>
			<path class="st1" d="M526.6,98.2c-3-3-7.7-3-10.7,0l-56.5,56.5L446,141.3c-3-2.9-7.7-2.9-10.7,0c-0.1,0.1-0.1,0.1-0.2,0.2
				c0.1,0.1,0.1,0.1,0.2,0.2l18.8,18.8c1.5,1.5,3.4,2.2,5.3,2.2c1.9,0,3.9-0.7,5.3-2.2l61.9-61.9c0.1-0.1,0.1-0.1,0.2-0.2
				C526.7,98.3,526.7,98.3,526.6,98.2z"/>
		</g>
	</g>
	<g>
		<g>
			<path class="st7" d="M528,96.8c-3.7-3.7-9.8-3.7-13.5,0l-55.1,55.1l-12-12c-3.7-3.7-9.8-3.7-13.5,0c-1.8,1.8-2.8,4.2-2.8,6.8
				c0,2.6,1,5,2.8,6.8l18.8,18.8c1.8,1.8,4.2,2.8,6.8,2.8c2.6,0,5-1,6.8-2.8l61.9-61.9C531.7,106.6,531.7,100.5,528,96.8z
				 M525.2,107.5l-61.9,61.9c-1,1-2.4,1.6-3.9,1.6c-1.5,0-2.9-0.6-3.9-1.6l-18.8-18.8c-1-1-1.6-2.4-1.6-3.9c0-1.5,0.6-2.9,1.6-3.9
				c1.1-1.1,2.5-1.6,3.9-1.6c1.4,0,2.8,0.5,3.9,1.6l14.9,14.9l57.9-57.9c2.2-2.2,5.7-2.2,7.9,0C527.4,101.8,527.4,105.3,525.2,107.5
				z"/>
		</g>
	</g>
	<g>
		<g>
			<path class="st7" d="M347.8,99.4c-4.4,0-7.9,3.6-7.9,7.9v2.2c0,4.4,3.6,7.9,7.9,7.9v-4c-2.2,0-3.9-1.8-3.9-3.9v-2.2
				c0-2.2,1.8-3.9,3.9-3.9c2.2,0,3.9,1.8,3.9,3.9h4C355.7,102.9,352.1,99.4,347.8,99.4z"/>
		</g>
	</g>
	<g>
		<g>
			<path class="st7" d="M347.8,113.4v4c2.2,0,3.9,1.8,3.9,3.9v2.2c0,2.2-1.8,3.9-3.9,3.9c-2.2,0-3.9-1.8-3.9-3.9h-4
				c0,4.4,3.6,7.9,7.9,7.9c4.4,0,7.9-3.6,7.9-7.9v-2.2C355.7,117,352.1,113.4,347.8,113.4z"/>
		</g>
	</g>
	<g>
		<g>
			<rect x="345.8" y="90.5" class="st7" width="4" height="10.4"/>
		</g>
	</g>
	<g>
		<g>
			<rect x="345.8" y="129.9" class="st7" width="4" height="10.4"/>
		</g>
	</g>
	<g>
		<g>
			<path class="st7" d="M347.8,161.9c-4.4,0-7.9,3.6-7.9,7.9v2.2c0,4.4,3.6,7.9,7.9,7.9v-4c-2.2,0-3.9-1.8-3.9-3.9v-2.2
				c0-2.2,1.8-3.9,3.9-3.9c2.2,0,3.9,1.8,3.9,3.9h4C355.7,165.5,352.1,161.9,347.8,161.9z"/>
		</g>
	</g>
	<g>
		<g>
			<path class="st7" d="M347.8,176v4c2.2,0,3.9,1.8,3.9,3.9v2.2c0,2.2-1.8,3.9-3.9,3.9c-2.2,0-3.9-1.8-3.9-3.9h-4
				c0,4.4,3.6,7.9,7.9,7.9c4.4,0,7.9-3.6,7.9-7.9v-2.2C355.7,179.5,352.1,176,347.8,176z"/>
		</g>
	</g>
	<g>
		<g>
			<rect x="345.8" y="153.1" class="st7" width="4" height="10.4"/>
		</g>
	</g>
	<g>
		<g>
			<rect x="345.8" y="192.4" class="st7" width="4" height="10.4"/>
		</g>
	</g>
	<g>
		<g>
			<path class="st7" d="M330,496.5c-2,0-3.6,1.6-3.6,3.6c0,2,1.6,3.6,3.6,3.6s3.6-1.6,3.6-3.6C333.5,498.1,331.9,496.5,330,496.5z
				 M330,500.5c-0.2,0-0.4-0.2-0.4-0.4c0-0.2,0.2-0.4,0.4-0.4c0.2,0,0.4,0.2,0.4,0.4C330.4,500.3,330.2,500.5,330,500.5z"/>
		</g>
	</g>
	<g>
		<g>
			<path class="st7" d="M325.6,484.2v4c8.9,0,16.2,7.3,16.2,16.2h4C345.8,493.3,336.7,484.2,325.6,484.2z"/>
		</g>
	</g>
	<g>
		<g>
			<path class="st7" d="M325.6,471.6v4c15.9,0,28.8,12.9,28.8,28.8h4C358.4,486.4,343.7,471.6,325.6,471.6z"/>
		</g>
	</g>
	<g>
		<g>
			<path class="st7" d="M159.5,496.5c-2,0-3.5,1.6-3.5,3.6c0,2,1.6,3.6,3.5,3.6c2,0,3.5-1.6,3.5-3.6
				C163.1,498.1,161.5,496.5,159.5,496.5z M159.5,500.5c-0.2,0-0.5-0.2-0.5-0.4c0-0.2,0.2-0.4,0.5-0.4c0.2,0,0.5,0.2,0.5,0.4
				C160,500.3,159.8,500.5,159.5,500.5z"/>
		</g>
	</g>
	<g>
		<g>
			<path class="st7" d="M143.7,504.4h4c0-8.9,7.3-16.2,16.2-16.2v-4C152.7,484.2,143.7,493.3,143.7,504.4z"/>
		</g>
	</g>
	<g>
		<g>
			<path class="st7" d="M131.1,504.4h4c0-15.9,12.9-28.8,28.8-28.8v-4C145.8,471.6,131.1,486.4,131.1,504.4z"/>
		</g>
	</g>
	<g>
		<g>
			<path class="st7" d="M89.2,319.6c-2,0-3.6,1.6-3.6,3.6c0,2,1.6,3.6,3.6,3.6c2,0,3.6-1.6,3.6-3.6
				C92.8,321.3,91.2,319.6,89.2,319.6z M89.2,323.6c-0.2,0-0.4-0.2-0.4-0.4c0-0.2,0.2-0.4,0.4-0.4c0.2,0,0.4,0.2,0.4,0.4
				C89.5,323.5,89.4,323.6,89.2,323.6z"/>
		</g>
	</g>
	<g>
		<g>
			<rect x="97.5" y="321.3" class="st7" width="38" height="4"/>
		</g>
	</g>
	<g>
		<g>
			<path class="st7" d="M89.2,339.3c-2,0-3.6,1.6-3.6,3.6c0,2,1.6,3.6,3.6,3.6c2,0,3.6-1.6,3.6-3.6C92.8,341,91.2,339.3,89.2,339.3z
				 M89.2,343.3c-0.2,0-0.4-0.2-0.4-0.4c0-0.2,0.2-0.4,0.4-0.4c0.2,0,0.4,0.2,0.4,0.4C89.5,343.2,89.4,343.3,89.2,343.3z"/>
		</g>
	</g>
	<g>
		<g>
			<rect x="97.5" y="341" class="st7" width="38" height="4"/>
		</g>
	</g>
	<g>
		<g>
			<path class="st7" d="M89.2,359c-2,0-3.6,1.6-3.6,3.6c0,2,1.6,3.6,3.6,3.6c2,0,3.6-1.6,3.6-3.6C92.8,360.7,91.2,359,89.2,359z
				 M89.2,363c-0.2,0-0.4-0.2-0.4-0.4c0-0.2,0.2-0.4,0.4-0.4c0.2,0,0.4,0.2,0.4,0.4C89.5,362.9,89.4,363,89.2,363z"/>
		</g>
	</g>
	<g>
		<g>
			<rect x="97.5" y="360.7" class="st7" width="38" height="4"/>
		</g>
	</g>
	<g>
		<g>
			<path class="st7" d="M89.2,393.2c-2,0-3.6,1.6-3.6,3.6c0,2,1.6,3.6,3.6,3.6c2,0,3.6-1.6,3.6-3.6
				C92.8,394.9,91.2,393.2,89.2,393.2z M89.2,397.2c-0.2,0-0.4-0.2-0.4-0.4c0-0.2,0.2-0.4,0.4-0.4c0.2,0,0.4,0.2,0.4,0.4
				C89.5,397.1,89.4,397.2,89.2,397.2z"/>
		</g>
	</g>
	<g>
		<g>
			<rect x="97.5" y="394.9" class="st7" width="38" height="4"/>
		</g>
	</g>
	<g>
		<g>
			<path class="st7" d="M89.2,412.9c-2,0-3.6,1.6-3.6,3.6c0,2,1.6,3.6,3.6,3.6c2,0,3.6-1.6,3.6-3.6
				C92.8,414.6,91.2,412.9,89.2,412.9z M89.2,416.9c-0.2,0-0.4-0.2-0.4-0.4c0-0.2,0.2-0.4,0.4-0.4c0.2,0,0.4,0.2,0.4,0.4
				C89.5,416.8,89.4,416.9,89.2,416.9z"/>
		</g>
	</g>
	<g>
		<g>
			<rect x="97.5" y="414.6" class="st7" width="38" height="4"/>
		</g>
	</g>
	<g>
		<g>
			<path class="st7" d="M89.2,432.6c-2,0-3.6,1.6-3.6,3.6c0,2,1.6,3.6,3.6,3.6c2,0,3.6-1.6,3.6-3.6
				C92.8,434.2,91.2,432.6,89.2,432.6z M89.2,436.6c-0.2,0-0.4-0.2-0.4-0.4c0-0.2,0.2-0.4,0.4-0.4c0.2,0,0.4,0.2,0.4,0.4
				C89.5,436.4,89.4,436.6,89.2,436.6z"/>
		</g>
	</g>
	<g>
		<g>
			<rect x="97.5" y="434.3" class="st7" width="38" height="4"/>
		</g>
	</g>
	<g>
		<g>
			<polygon class="st7" points="203.6,460.3 189.4,468.5 189.4,476.2 203.6,467.9 217.7,476.2 217.7,468.5 			"/>
		</g>
	</g>
	<g>
		<g>
			<polygon class="st7" points="203.6,475 189.4,483.3 189.4,490.9 203.6,482.7 217.7,490.9 217.7,483.3 			"/>
		</g>
	</g>
	<g>
		<g>
			<polygon class="st7" points="203.6,489.8 189.4,498.1 189.4,505.7 203.6,497.4 217.7,505.7 217.7,498.1 			"/>
		</g>
	</g>
	<g>
		<g>
			<polygon class="st7" points="284,460.3 269.8,468.5 269.8,476.2 284,467.9 298.1,476.2 298.1,468.5 			"/>
		</g>
	</g>
	<g>
		<g>
			<polygon class="st7" points="284,475 269.8,483.3 269.8,490.9 284,482.7 298.1,490.9 298.1,483.3 			"/>
		</g>
	</g>
	<g>
		<g>
			<polygon class="st7" points="284,489.8 269.8,498.1 269.8,505.7 284,497.4 298.1,505.7 298.1,498.1 			"/>
		</g>
	</g>
</g>
</svg>
