<?xml version="1.0" encoding="utf-8"?>
<!-- Generator: Adobe Illustrator 23.0.3, SVG Export Plug-In . SVG Version: 6.00 Build 0)  -->
<svg version="1.1" id="Layer_1" xmlns="http://www.w3.org/2000/svg" xmlns:xlink="http://www.w3.org/1999/xlink" x="0px" y="0px"
	 viewBox="0 0 900 900" style="enable-background:new 0 0 900 900;" xml:space="preserve">
<style type="text/css">
	.st0{fill:#90A4AE;}
	.st1{fill:#00E5FF;}
	.st2{fill:#FFFFFF;}
	.st3{fill:#033A7C;}
	.st4{fill:#D0DDEA;}
	.st5{fill:#F580DC;}
	.st6{fill:#9E25A5;}
	.st7{fill:#CEDFEF;}
	.st8{fill:#A8C3DD;}
</style>
<g>
	<path class="st0" d="M856,154.8v609.8c0,17.8-14.4,32.3-32.3,32.3H75.8c-17.8,0-32.3-14.4-32.3-32.3V154.8
		c0-28.8,23.3-52.1,52.1-52.1h708.2C832.7,102.7,856,126,856,154.8z"/>
	<path class="st1" d="M856,154.8v55.7H43.6v-55.7c0-28.8,23.3-52.1,52.1-52.1h708.2C832.7,102.7,856,126,856,154.8z"/>
	<g>
		<path class="st2" d="M125.8,156.6c0-7.1-5.7-12.8-12.8-12.8c-7.1,0-12.8,5.7-12.8,12.8s5.7,12.8,12.8,12.8
			C120,169.4,125.8,163.7,125.8,156.6z"/>
		<path class="st2" d="M185.2,156.6c0-7.1-5.7-12.8-12.8-12.8c-7.1,0-12.8,5.7-12.8,12.8s5.7,12.8,12.8,12.8
			C179.4,169.4,185.2,163.7,185.2,156.6z"/>
		<path class="st2" d="M244.6,156.6c0-7.1-5.7-12.8-12.8-12.8c-7.1,0-12.8,5.7-12.8,12.8s5.7,12.8,12.8,12.8
			C238.9,169.4,244.6,163.7,244.6,156.6z"/>
	</g>
	<path class="st2" d="M809.1,156.6c0-20.2-16.4-36.5-36.5-36.5c-20.2,0-36.5,16.3-36.5,36.5c0,20.2,16.4,36.5,36.5,36.5
		C792.8,193.1,809.1,176.8,809.1,156.6z"/>
	<g>
		<path class="st3" d="M788.7,175.4c-0.7,0-1.4-0.3-1.9-0.8l-31.8-31.8c-1.1-1.1-1.1-2.8,0-3.9c1.1-1.1,2.8-1.1,3.9,0l31.8,31.8
			c1.1,1.1,1.1,2.8,0,3.9C790.1,175.2,789.4,175.4,788.7,175.4z"/>
		<path class="st3" d="M756.9,175.4c-0.7,0-1.4-0.3-2-0.8c-1.1-1.1-1.1-2.8,0-3.9l31.8-31.8c1.1-1.1,2.8-1.1,3.9,0
			c1.1,1.1,1.1,2.8,0,3.9l-31.8,31.8C758.3,175.2,757.6,175.4,756.9,175.4z"/>
	</g>
	<path class="st2" d="M755.9,370H153.3c-29.4,0-53.2-23.8-53.2-53.2l0,0c0-29.4,23.8-53.2,53.2-53.2h602.6
		c29.4,0,53.2,23.8,53.2,53.2l0,0C809.1,346.1,785.3,370,755.9,370z"/>
	<path class="st4" d="M755.9,250.9H153.3c-36.3,0-65.8,29.5-65.8,65.8c0,36.3,29.5,65.8,65.8,65.8h602.6c36.3,0,65.8-29.5,65.8-65.8
		C821.7,280.5,792.2,250.9,755.9,250.9z M755.9,370H153.3c-29.4,0-53.2-23.8-53.2-53.2c0-29.4,23.8-53.2,53.2-53.2h602.6
		c29.4,0,53.2,23.8,53.2,53.2C809.1,346.1,785.3,370,755.9,370z"/>
	<g>
		<path class="st3" d="M512.5,325.9l8.3-0.8c0.5,2.8,1.5,4.8,3,6.1c1.5,1.3,3.6,2,6.2,2c2.7,0,4.8-0.6,6.2-1.7
			c1.4-1.2,2.1-2.5,2.1-4.1c0-1-0.3-1.8-0.9-2.5c-0.6-0.7-1.6-1.3-3.1-1.8c-1-0.3-3.3-1-6.8-1.8c-4.6-1.1-7.8-2.5-9.6-4.2
			c-2.6-2.3-3.9-5.1-3.9-8.5c0-2.2,0.6-4.2,1.8-6c1.2-1.9,3-3.3,5.3-4.3c2.3-1,5.1-1.5,8.3-1.5c5.3,0,9.3,1.2,12,3.5
			c2.7,2.3,4.1,5.4,4.2,9.3l-8.5,0.4c-0.4-2.2-1.1-3.7-2.3-4.7c-1.2-0.9-3-1.4-5.4-1.4c-2.5,0-4.4,0.5-5.8,1.5
			c-0.9,0.7-1.4,1.5-1.4,2.6c0,1,0.4,1.8,1.3,2.6c1.1,0.9,3.7,1.8,7.8,2.8c4.1,1,7.2,2,9.2,3c2,1,3.5,2.5,4.7,4.3
			c1.1,1.8,1.7,4.1,1.7,6.7c0,2.4-0.7,4.7-2,6.8c-1.3,2.1-3.2,3.7-5.7,4.7c-2.5,1-5.5,1.5-9.2,1.5c-5.3,0-9.4-1.2-12.3-3.7
			C514.8,334.2,513.1,330.6,512.5,325.9z"/>
		<path class="st3" d="M555.2,339.6v-42.2h31.3v7.1h-22.8v9.4h21.2v7.1h-21.2v11.5h23.6v7.1H555.2z"/>
		<path class="st3" d="M634.9,339.6h-9.3L622,330h-16.9l-3.5,9.6h-9l16.4-42.2h9L634.9,339.6z M619.3,322.9l-5.8-15.6l-5.7,15.6
			H619.3z"/>
		<path class="st3" d="M641.1,339.6v-42.2H659c4.5,0,7.8,0.4,9.8,1.1c2,0.8,3.7,2.1,4.9,4c1.2,1.9,1.8,4.2,1.8,6.6
			c0,3.2-0.9,5.8-2.8,7.8c-1.9,2.1-4.6,3.4-8.3,3.9c1.8,1.1,3.4,2.3,4.6,3.5c1.2,1.3,2.8,3.6,4.8,6.8l5.1,8.2h-10.2l-6.2-9.2
			c-2.2-3.3-3.7-5.3-4.5-6.2c-0.8-0.9-1.7-1.4-2.6-1.8c-0.9-0.3-2.3-0.5-4.3-0.5h-1.7v17.6H641.1z M649.6,315.2h6.3
			c4.1,0,6.6-0.2,7.7-0.5c1-0.3,1.8-0.9,2.4-1.8c0.6-0.8,0.9-1.9,0.9-3.2c0-1.4-0.4-2.6-1.1-3.4c-0.8-0.9-1.8-1.4-3.2-1.6
			c-0.7-0.1-2.8-0.1-6.2-0.1h-6.6V315.2z"/>
		<path class="st3" d="M711,324.1l8.3,2.6c-1.3,4.6-3.4,8-6.3,10.3c-2.9,2.2-6.7,3.4-11.2,3.4c-5.6,0-10.2-1.9-13.8-5.7
			c-3.6-3.8-5.4-9.1-5.4-15.7c0-7,1.8-12.5,5.4-16.3c3.6-3.9,8.4-5.8,14.3-5.8c5.2,0,9.3,1.5,12.6,4.6c1.9,1.8,3.4,4.4,4.3,7.8
			l-8.4,2c-0.5-2.2-1.5-3.9-3.1-5.2c-1.6-1.3-3.5-1.9-5.8-1.9c-3.1,0-5.7,1.1-7.6,3.4c-1.9,2.2-2.9,5.9-2.9,10.9
			c0,5.3,1,9.1,2.9,11.4c1.9,2.3,4.4,3.4,7.5,3.4c2.3,0,4.2-0.7,5.8-2.2C709.1,329.4,710.3,327.2,711,324.1z"/>
		<path class="st3" d="M727.3,339.6v-42.2h8.5V314h16.7v-16.6h8.5v42.2h-8.5v-18.4h-16.7v18.4H727.3z"/>
	</g>
	<path class="st2" d="M110.4,607.7h476c2.2,0,3.9-1.8,3.9-3.9V412.3c0-2.2-1.8-3.9-3.9-3.9h-476c-2.2,0-3.9,1.8-3.9,3.9v191.5
		C106.4,606,108.2,607.7,110.4,607.7z"/>
	<path class="st2" d="M110.4,758.3h701c2.2,0,3.9-1.8,3.9-3.9V645.5c0-2.2-1.8-3.9-3.9-3.9h-701c-2.2,0-3.9,1.8-3.9,3.9v108.8
		C106.4,756.5,108.2,758.3,110.4,758.3z"/>
	<path class="st2" d="M620,607.7h191.5c2.2,0,3.9-1.8,3.9-3.9V412.3c0-2.2-1.8-3.9-3.9-3.9H620c-2.2,0-3.9,1.8-3.9,3.9v191.5
		C616.1,606,617.9,607.7,620,607.7z"/>
	<g>
		<path class="st5" d="M436.3,456.6c-9,9-15.1,19.9-18.2,31.4c-4.5,16.5-2.9,34.4,4.7,50l19.6-13c-5.3-12.8-4.8-27.4,1.5-39.9
			c2.2-4.4,5.1-8.5,8.8-12.2c2.6-2.6,5.5-4.9,8.5-6.7l-13.5-18.9C443.7,450,439.8,453.1,436.3,456.6z"/>
		<path class="st1" d="M552.5,481.2c-3-7.8-7.5-15.3-13.4-21.8l-16.5,16.5c4.8,5.6,8,12,9.8,18.7c4.2,15.9,0.1,33.6-12.3,46
			c-11.1,11.1-26.5,15.6-41,13.4l-10.5,21.5c23.5,6.1,49.5-0.1,67.9-18.5C557.1,536.5,562.4,506.6,552.5,481.2z"/>
		<path class="st6" d="M422.8,538.1c3.3,6.8,7.8,13.2,13.5,18.9c3.6,3.6,7.5,6.7,11.6,9.4c6.5,4.2,13.5,7.2,20.8,9.1l10.5-21.5
			c-5.4-0.8-10.7-2.5-15.6-5.2c-3.9-2.1-7.6-4.9-10.9-8.1c-4.6-4.6-8-9.8-10.3-15.5L422.8,538.1z"/>
		<path class="st3" d="M447.7,447.4l13.5,18.9c11.2-7,24.7-8.9,37.2-5.7c8,2,15.6,6.2,21.8,12.4c0.9,0.9,1.7,1.8,2.5,2.7l16.5-16.5
			c-0.8-0.9-1.7-1.8-2.6-2.7c-7.2-7.2-15.4-12.4-24.3-15.9C491.2,432.5,467,434.7,447.7,447.4z"/>
	</g>
	
		<rect x="303.7" y="500.2" transform="matrix(-1.836970e-16 1 -1 -1.836970e-16 871.5639 151.8206)" class="st7" width="112.3" height="23.1"/>
	
		<rect x="278.6" y="513.8" transform="matrix(-1.836970e-16 1 -1 -1.836970e-16 846.4355 204.1425)" class="st8" width="85.1" height="23.1"/>
	
		<rect x="248" y="521.9" transform="matrix(-1.836970e-16 1 -1 -1.836970e-16 815.8839 251.0466)" class="st7" width="68.8" height="23.1"/>
	
		<rect x="174.9" y="487.5" transform="matrix(-1.836970e-16 1 -1 -1.836970e-16 742.7725 255.3848)" class="st8" width="137.5" height="23.1"/>
	
		<rect x="177.3" y="528.7" transform="matrix(-1.836970e-16 1 -1 -1.836970e-16 745.1927 335.2606)" class="st7" width="55.2" height="23.1"/>
	<g>
		<g>
			<g>
				<rect x="205.7" y="663.6" class="st7" width="81.9" height="12.3"/>
				<rect x="180.6" y="663.6" class="st7" width="14.8" height="12.3"/>
				<rect x="268.7" y="683.8" class="st7" width="81.9" height="12.3"/>
				<rect x="243.6" y="683.8" class="st7" width="14.8" height="12.3"/>
				<rect x="299.2" y="663.6" class="st7" width="51.4" height="12.3"/>
				<rect x="180.6" y="683.8" class="st7" width="51.4" height="12.3"/>
			</g>
			<g>
				<rect x="205.7" y="705.9" class="st7" width="81.9" height="12.3"/>
				<rect x="180.6" y="705.9" class="st7" width="14.8" height="12.3"/>
				<rect x="268.7" y="726.1" class="st7" width="81.9" height="12.3"/>
				<rect x="243.6" y="726.1" class="st7" width="14.8" height="12.3"/>
				<rect x="299.2" y="705.9" class="st7" width="51.4" height="12.3"/>
				<rect x="180.6" y="726.1" class="st7" width="51.4" height="12.3"/>
			</g>
		</g>
		<g>
			<g>
				<rect x="414.5" y="663.6" class="st7" width="81.9" height="12.3"/>
				<rect x="389.3" y="663.6" class="st7" width="14.8" height="12.3"/>
				<rect x="477.5" y="683.8" class="st7" width="81.9" height="12.3"/>
				<rect x="452.3" y="683.8" class="st7" width="14.8" height="12.3"/>
				<rect x="508" y="663.6" class="st7" width="51.4" height="12.3"/>
				<rect x="389.3" y="683.8" class="st7" width="51.4" height="12.3"/>
			</g>
			<g>
				<rect x="414.5" y="705.9" class="st7" width="81.9" height="12.3"/>
				<rect x="389.3" y="705.9" class="st7" width="14.8" height="12.3"/>
				<rect x="477.5" y="726.1" class="st7" width="81.9" height="12.3"/>
				<rect x="452.3" y="726.1" class="st7" width="14.8" height="12.3"/>
				<rect x="508" y="705.9" class="st7" width="51.4" height="12.3"/>
				<rect x="389.3" y="726.1" class="st7" width="51.4" height="12.3"/>
			</g>
		</g>
		<g>
			<g>
				<rect x="623.2" y="663.6" class="st7" width="81.9" height="12.3"/>
				<rect x="598.1" y="663.6" class="st7" width="14.8" height="12.3"/>
				<rect x="686.3" y="683.8" class="st7" width="81.9" height="12.3"/>
				<rect x="661.1" y="683.8" class="st7" width="14.8" height="12.3"/>
				<rect x="716.7" y="663.6" class="st7" width="51.4" height="12.3"/>
				<rect x="598.1" y="683.8" class="st7" width="51.4" height="12.3"/>
			</g>
			<g>
				<rect x="623.2" y="705.9" class="st7" width="81.9" height="12.3"/>
				<rect x="598.1" y="705.9" class="st7" width="14.8" height="12.3"/>
				<rect x="686.3" y="726.1" class="st7" width="81.9" height="12.3"/>
				<rect x="661.1" y="726.1" class="st7" width="14.8" height="12.3"/>
				<rect x="716.7" y="705.9" class="st7" width="51.4" height="12.3"/>
				<rect x="598.1" y="726.1" class="st7" width="51.4" height="12.3"/>
			</g>
		</g>
	</g>
	<g>
		<g>
			<rect x="662.5" y="475.6" class="st5" width="17.6" height="97.6"/>
			<rect x="690.6" y="506.6" class="st5" width="17.6" height="66.6"/>
			<rect x="718.7" y="489.9" class="st5" width="17.6" height="83.3"/>
			<rect x="746.7" y="531.5" class="st5" width="17.6" height="41.7"/>
			<rect x="774.8" y="545.1" class="st5" width="17.6" height="28.1"/>
		</g>
		<g>
			<g>
				<path class="st7" d="M648.7,563.8h-10.2c-1,0-1.8-0.8-1.8-1.8c0-1,0.8-1.8,1.8-1.8h10.2c1,0,1.8,0.8,1.8,1.8
					C650.5,563,649.7,563.8,648.7,563.8z"/>
				<path class="st7" d="M648.7,546.9h-10.2c-1,0-1.8-0.8-1.8-1.8c0-1,0.8-1.8,1.8-1.8h10.2c1,0,1.8,0.8,1.8,1.8
					C650.5,546.1,649.7,546.9,648.7,546.9z"/>
				<path class="st7" d="M648.7,530h-10.2c-1,0-1.8-0.8-1.8-1.8c0-1,0.8-1.8,1.8-1.8h10.2c1,0,1.8,0.8,1.8,1.8
					C650.5,529.2,649.7,530,648.7,530z"/>
				<path class="st7" d="M648.7,513.1h-10.2c-1,0-1.8-0.8-1.8-1.8c0-1,0.8-1.8,1.8-1.8h10.2c1,0,1.8,0.8,1.8,1.8
					C650.5,512.3,649.7,513.1,648.7,513.1z"/>
				<path class="st7" d="M648.7,496.1h-10.2c-1,0-1.8-0.8-1.8-1.8c0-1,0.8-1.8,1.8-1.8h10.2c1,0,1.8,0.8,1.8,1.8
					C650.5,495.3,649.7,496.1,648.7,496.1z"/>
				<path class="st7" d="M648.7,479.2h-10.2c-1,0-1.8-0.8-1.8-1.8c0-1,0.8-1.8,1.8-1.8h10.2c1,0,1.8,0.8,1.8,1.8
					C650.5,478.4,649.7,479.2,648.7,479.2z"/>
				<path class="st7" d="M648.7,462.3h-10.2c-1,0-1.8-0.8-1.8-1.8c0-1,0.8-1.8,1.8-1.8h10.2c1,0,1.8,0.8,1.8,1.8
					C650.5,461.5,649.7,462.3,648.7,462.3z"/>
			</g>
			<path class="st3" d="M794.7,575H646.9V450.2c0-1,0.8-1.8,1.8-1.8c1,0,1.8,0.8,1.8,1.8v121.2h144.2c1,0,1.8,0.8,1.8,1.8
				C796.5,574.2,795.7,575,794.7,575z"/>
		</g>
	</g>
	<path class="st2" d="M433.6,203.7c-4.4,0-7.9-3.5-7.9-7.9c0-24.7-20.1-44.9-44.9-44.9c-4.4,0-7.9-3.5-7.9-7.9s3.5-7.9,7.9-7.9
		c33.4,0,60.6,27.2,60.6,60.6C441.5,200.2,437.9,203.7,433.6,203.7z"/>
</g>
</svg>
