<?xml version="1.0" encoding="utf-8"?>
<!-- Generator: Adobe Illustrator 23.0.3, SVG Export Plug-In . SVG Version: 6.00 Build 0)  -->
<svg version="1.1" id="Layer_1" xmlns="http://www.w3.org/2000/svg" xmlns:xlink="http://www.w3.org/1999/xlink" x="0px" y="0px"
	 viewBox="0 0 900 900" style="enable-background:new 0 0 900 900;" xml:space="preserve">
<style type="text/css">
	.st0{fill:#607D8B;}
	.st1{fill:#F9D5CA;}
	.st2{fill:#AD1457;}
	.st3{fill:#033A7C;}
	.st4{fill:#00ACC1;}
	.st5{fill:#18FFFF;}
	.st6{fill:#FF4081;}
	.st7{fill:#3D5AFE;}
	.st8{fill:#BBDEFB;}
	.st9{fill:#383E3F;}
</style>
<g>
	<path class="st0" d="M233.6,843.7c0,7.9,122.9,14.3,274.5,14.3c151.6,0,274.5-6.4,274.5-14.3c0-7.9-122.9-14.3-274.5-14.3
		C356.5,829.3,233.6,835.8,233.6,843.7z"/>
	<g>
		<g>
			<path class="st1" d="M380,380.6c0,0-17.5,20.9-19.7,21.8c-2.2,1-17.8,1.2-23,6.3c-3.9,3.8-10.7,9.7-11.4,11.7
				c-0.7,2,6.2-1.1,7.5-2.1c1.3-1.1,6.1-3.3,6.5-3c0.4,0.3-9.4,6.3-13.3,9.7c-3.9,3.4-5.7,5.9-5.3,6.6c0.3,0.7,8.6-3.1,11-4.7
				c2.4-1.6-8.2,6.4-9.8,9.6c-1.5,3.1,11-3.5,13.8-5.7c2.8-2.3-10.8,7.8-11,9.9c-0.2,2.1,13.3-4.9,16.4-7.2
				c3.2-2.3-9.9,6.3-10.2,7.8c-0.3,1.5,16.3-5.5,21.7-8.6c5-2.9,8.9-5.2,15.7-18.8c1.3-2.5,20.7-19.1,20.7-19.1L380,380.6z"/>
			<path class="st2" d="M464.7,203.1c0.4-20.3,15.8-17.3,28.5-1.4c3.1,3.9,5.9,8.8,7.9,14.7c11.2,33.6-42.5,120.8-54.9,135.4
				c-12.4,14.6-69.9,65.8-69.9,65.8l-17.7-21.5l59.2-65.9l23.7-62.6L464.7,203.1z"/>
		</g>
		<g>
			<path class="st3" d="M523.7,812.1c0,0-18,22.2-16.5,36.6c1.5,14.4,35.4-22.7,35.4-22.7s6.7,8,8.7,7.8c2.1-0.2-2.3-21.4-10.7-27.2
				C532.3,800.8,523.7,812.1,523.7,812.1z"/>
			<path class="st1" d="M517.5,787l9.2,22.4c0,0-10.3,18.1-4.6,22.5c5.7,4.4,22.3-21,22.3-21l-5.9-26L517.5,787z"/>
			<path class="st4" d="M436.4,412c0,0,12,174.7,23.2,234.5c11.2,59.9,56.9,153.3,56.9,153.3l30.3-9.3c0,0-24-131.9-24.8-155.3
				c-2-58,14-202.8,14-202.8l-37.1-60.2L436.4,412z"/>
		</g>
		<g>
			<path class="st3" d="M415,818.7c0,0-24.4,14.7-27.9,28.8c-3.5,14,41.1-9.4,41.1-9.4s3.6,9.8,5.6,10.3c2,0.5,5.1-20.9-0.9-29.2
				C426.8,811,415,818.7,415,818.7z"/>
			<path class="st1" d="M417.7,793l1.1,24.2c0,0-15.8,13.5-12,19.6c3.8,6.1,28.1-12.2,28.1-12.2l3.3-26.5L417.7,793z"/>
			<path class="st5" d="M536,432.4c0,0-1.9,30.1-21,62.7c-10.4,17.8-44.2,86.6-55.5,133.4c-16.7,69.4-12.4,177.6-12.4,177.6l-38-1.8
				c0,0-27-157.5-25.8-204.5c1.3-49.7,16.3-92.3,38.8-206.4C446.4,372.8,536,432.4,536,432.4z"/>
		</g>
		<path class="st6" d="M439.7,197.3c0,0-36.7,36.5-43.1,77.2c-2.4,15.2,13.6,40.7,14.1,52.7c0.5,12.1-4.8,69.3-23.3,109.9
			c0,0,68.8,20,148.8-4.7c0,0,20.8-212.3-51.6-248.1L439.7,197.3z"/>
		<path class="st1" d="M433,80.3c0,0-9.9,14.9-7.8,23.1c2.1,8.3-7.8,21.5-7.4,24.1c0.2,1.3,5.8,3,6.5,5c3.4,8.9,7.5,21.3,11.7,27.5
			c1.4,2.1,3.8,3.5,6.4,3.4c12.3-0.7,6.5,23.9-2.7,33.9c-10.2,11-13.4,19.2-10.1,23.8c3.3,4.6,50-30.1,54.9-36.3
			c0.3-20.6,5.1-41.3,6-43c0.9-1.7,13.4,0.1,14.1-10.7c0.6-9.2-6.4-15.3-16.2-10.4c0,0,10.2-31.9-11.4-42.5
			C455.3,67.7,433,80.3,433,80.3z"/>
		<g>
			<path class="st7" d="M126.4,178l57.1,73.3c9.1,11.7,26,13.8,37.6,4.7l29.3-22.9c11.7-9.1,13.8-26,4.7-37.6l-57.1-73.3
				c35.1-6.5,72.4,6.3,95.8,36.4v0c23.3,29.8,26.6,68.8,12.2,101.1l175.1,246.9c5.9,8.3,4.2,19.8-3.8,26.1L456.2,549
				c-8.1,6.3-19.6,5.1-26.3-2.7L233.3,316.3c-34.8,6.1-71.8-6.7-95-36.5l0,0C114.8,249.7,111.6,210.4,126.4,178z"/>
			<path class="st8" d="M455.5,526.3L455.5,526.3c5.3-4.1,5.5-12.8,0.4-19.3L303.5,297.1c-2.4-3.2-6.5-4.3-9-2.3l-24.1,18.8
				c-2.6,2-2.6,6.2,0,9.3L436.7,522C441.7,528.6,450.2,530.5,455.5,526.3z"/>
		</g>
		<g>
			<path class="st1" d="M396.5,393.4c0,0-20.9,14.2-23.2,14.5c-2.3,0.3-16.2-4-22.2-0.8c-4.4,2.3-12.1,5.9-13.2,7.5
				c-1.1,1.6,5.8,0.8,7.2,0.2c1.4-0.6,6.3-1.3,6.6-0.9c0.3,0.4-10,3.1-14.4,5.1c-4.4,2-7.8,4.4-7.5,5.7c0.2,1.2,9.6-1.5,12.1-2.3
				c2.5-0.8-12.6,4.2-14.8,6.7c-2.2,2.5,17.4-2,17.4-2s-12.2,3-12.4,5.2c-0.2,2,16.6-1.2,16.6-1.2s-11,2.2-11.6,3.6
				c-0.6,1.3,16.4,0.3,22.1-1c5.2-1.2,9.3-2.2,18.9-12.8c1.8-1.9,23.4-11.6,23.4-11.6L396.5,393.4z"/>
			<path class="st2" d="M466.6,228.8c2.2-20.2,28.5-27.1,39.8-10.2c2.8,4.2,5.1,9.2,6.6,15.3c8.3,34.4-9.3,113.3-22.9,126.8
				c-13.6,13.5-101.2,60.5-101.2,60.5l-15.8-22.9l83.1-56.4c4.7-3.2,7.6-8.4,7.9-14l2.7-50.5L466.6,228.8z"/>
		</g>
		<path class="st9" d="M461,82.4c0,0-34.2-1.1-41.7,21c0,0-12.6-34.2,17.6-42C458.9,55.8,461,82.4,461,82.4z"/>
		<path class="st9" d="M490.2,141.2c0,0,4.2,0.4,7.8-3.5c4.8-5.1,2.6-19.7-10.4-13.9c0,0-38.4-10.3-44-38.2c0,0-0.3-27.1,37.2-24.9
			c43.4,2.6,42.9,61.5,25.2,81.5c-6.9,7.8-18.3,9.1-18.3,9.1L490.2,141.2z"/>
		<path class="st9" d="M493.7,74c0,0,17.6-39,53.8-30.9c36.2,8,30.8,78.6,27.8,99.2c-3,20.6,20.5,32.7,39.6,30.1
			c0,0-64.8,32-78.9,1.8c-12.3-26.5-5.8-84.4-24.4-85.4C492.9,87.8,493.7,74,493.7,74z"/>
		<path class="st6" d="M514.9,90.6c-6.4-3.2-17.4-13.8-16.4-24.8c1-10.9,4.8,2.5,6.9,6.4C507.5,76.1,524.3,95.2,514.9,90.6z"/>
		<path class="st2" d="M484.4,184.3c0,0-47,37.9-53.8,36.4c-6.8-1.5,9-23.4,9-23.4s-6.6,6.5-7.8,8.6c-1.2,2.1-9.7,15.4-1.7,16.6
			c12.4,1.9,56.9-36.9,56.9-36.9L484.4,184.3z"/>
	</g>
</g>
</svg>
