<?xml version="1.0" encoding="utf-8"?>
<!-- Generator: Adobe Illustrator 23.0.6, SVG Export Plug-In . SVG Version: 6.00 Build 0)  -->
<svg version="1.1" id="Layer_1" xmlns="http://www.w3.org/2000/svg" xmlns:xlink="http://www.w3.org/1999/xlink" x="0px" y="0px"
	 viewBox="0 0 600 600" style="enable-background:new 0 0 600 600;" xml:space="preserve">
<style type="text/css">
	.st0{fill:#DEF4FC;}
	.st1{fill:#C8DFF5;}
	.st2{fill:#6AB0E5;}
	.st3{fill:#288DE8;}
	.st4{fill:#2481D7;}
	.st5{fill:#FFFFFF;}
	.st6{fill:#E9F6FF;}
	.st7{fill:#AFD8F9;}
</style>
<g>
	<g>
		<g>
			<rect x="50" y="198.2" class="st0" width="500" height="113.1"/>
		</g>
	</g>
	<g>
		<g>
			<path class="st1" d="M300,180.6c-38.4,0-74.5,15-101.6,42.1l2.8,2.8c26.4-26.4,61.5-41,98.8-41c37.3,0,72.4,14.5,98.8,41l2.8-2.8
				C374.5,195.5,338.4,180.6,300,180.6z"/>
		</g>
	</g>
	<g>
	</g>
	<g>
		<g>
			<path class="st1" d="M398.8,423.1c-26.4,26.4-61.5,41-98.8,41c-37.3,0-72.4-14.5-98.8-41l-2.8,2.8
				c27.1,27.2,63.2,42.1,101.6,42.1c38.4,0,74.5-15,101.6-42.1L398.8,423.1z"/>
		</g>
	</g>
	<g>
	</g>
	<g>
		<g>
			<path class="st1" d="M424.3,260.4l3.6-1.8c-0.6-1.2-1.3-2.4-1.9-3.6l-3.5,1.9C423.1,258.1,423.7,259.3,424.3,260.4z M427.7,267.6
				l3.7-1.6c-0.5-1.2-1.1-2.5-1.7-3.7l-3.6,1.7C426.7,265.2,427.2,266.4,427.7,267.6z M420.5,253.5l3.4-2c-0.7-1.2-1.4-2.3-2.1-3.5
				l-3.4,2.1C419.2,251.3,419.9,252.4,420.5,253.5z M416.3,246.8l3.3-2.2c-0.8-1.1-1.5-2.2-2.3-3.3l-3.3,2.3
				C414.8,244.7,415.6,245.7,416.3,246.8z M406.8,234.2l3.1-2.6c-0.9-1-1.8-2.1-2.7-3.1l-3,2.7C405.1,232.2,406,233.2,406.8,234.2z
				 M411.8,240.4l3.2-2.4c-0.8-1.1-1.6-2.1-2.5-3.2l-3.1,2.5C410.2,238.3,411,239.3,411.8,240.4z M430.7,274.9l3.7-1.4
				c-0.5-1.3-1-2.5-1.5-3.8l-3.7,1.5C429.8,272.4,430.3,273.6,430.7,274.9z M438.5,305.4l4-0.5c-0.2-1.3-0.4-2.7-0.6-4l-3.9,0.7
				C438.1,302.8,438.3,304.1,438.5,305.4z M439.3,313.2l4-0.3c-0.1-1.3-0.2-2.7-0.4-4l-4,0.4C439.1,310.6,439.2,311.9,439.3,313.2z
				 M433.3,282.3l3.8-1.2c-0.4-1.3-0.8-2.6-1.3-3.9l-3.8,1.3C432.5,279.8,432.9,281.1,433.3,282.3z M439.7,321.1l4-0.1
				c0-1.4-0.1-2.7-0.1-4.1l-4,0.2C439.6,318.5,439.7,319.8,439.7,321.1z M435.5,289.9l3.9-1c-0.3-1.3-0.7-2.6-1.1-3.9l-3.8,1.1
				C434.8,287.4,435.1,288.6,435.5,289.9z M404.5,225.6c-0.9-1-1.9-1.9-2.8-2.9l-2.8,2.8c0.9,0.9,1.9,1.9,2.8,2.8L404.5,225.6z
				 M437.2,297.6l3.9-0.8c-0.3-1.3-0.5-2.7-0.8-4l-3.9,0.9C436.7,295,436.9,296.3,437.2,297.6z M435.1,360.1l3.9,1
				c0.3-1.3,0.7-2.6,1-3.9l-3.9-0.9C435.8,357.6,435.4,358.9,435.1,360.1z M432.9,367.7l3.8,1.2c0.4-1.3,0.8-2.6,1.2-3.9l-3.8-1.1
				C433.7,365.2,433.3,366.4,432.9,367.7z M430.2,375.1l3.7,1.5c0.5-1.3,1-2.5,1.4-3.8l-3.8-1.3
				C431.2,372.7,430.7,373.9,430.2,375.1z M436.9,352.5l3.9,0.8c0.3-1.3,0.5-2.7,0.8-4l-3.9-0.7
				C437.4,349.9,437.2,351.2,436.9,352.5z M400.7,421.2l2.9,2.8c0.9-1,1.9-2,2.8-3l-3-2.7C402.5,419.3,401.6,420.3,400.7,421.2z
				 M438.3,344.7l4,0.6c0.2-1.3,0.4-2.7,0.5-4l-4-0.5C438.6,342.1,438.5,343.4,438.3,344.7z M439.2,336.9l4,0.4
				c0.1-1.3,0.2-2.7,0.3-4l-4-0.2C439.4,334.2,439.3,335.6,439.2,336.9z M439.8,325c0,1.3,0,2.6-0.1,3.9l4,0.1
				c0-1.4,0.1-2.7,0.1-4.1L439.8,325z M415.6,402.9l3.3,2.3c0.8-1.1,1.5-2.2,2.2-3.4l-3.4-2.2C417,400.7,416.3,401.8,415.6,402.9z
				 M411,409.3l3.2,2.4c0.8-1.1,1.6-2.2,2.4-3.2l-3.2-2.3C412.6,407.2,411.8,408.3,411,409.3z M427.2,382.4l3.6,1.7
				c0.6-1.2,1.1-2.5,1.6-3.7l-3.7-1.6C428.2,380,427.7,381.2,427.2,382.4z M406,415.4l3,2.6c0.9-1,1.8-2.1,2.6-3.1l-3.1-2.5
				C407.7,413.4,406.9,414.4,406,415.4z M419.8,396.3l3.4,2.1c0.7-1.2,1.4-2.3,2-3.5l-3.5-2C421.2,394,420.5,395.2,419.8,396.3z
				 M423.7,389.4l3.5,1.9c0.6-1.2,1.2-2.4,1.8-3.6l-3.6-1.8C424.9,387.1,424.3,388.3,423.7,389.4z"/>
		</g>
	</g>
	<g>
	</g>
	<g>
		<g>
			<path class="st1" d="M167.1,281l-3.8-1.2c-0.4,1.3-0.8,2.6-1.2,3.9l3.8,1.1C166.3,283.5,166.7,282.2,167.1,281z M169.8,273.6
				l-3.7-1.5c-0.5,1.3-1,2.5-1.4,3.8l3.8,1.3C168.8,276,169.3,274.8,169.8,273.6z M172.8,266.3l-3.6-1.7c-0.6,1.2-1.1,2.5-1.6,3.7
				l3.7,1.6C171.8,268.7,172.3,267.5,172.8,266.3z M160.3,319.7l-4-0.1c0,1.4-0.1,2.7-0.1,4.1l4,0
				C160.2,322.3,160.3,321,160.3,319.7z M160.8,311.8l-4-0.4c-0.1,1.3-0.2,2.7-0.3,4l4,0.2C160.6,314.4,160.7,313.1,160.8,311.8z
				 M161.7,304l-4-0.6c-0.2,1.3-0.4,2.7-0.5,4l4,0.5C161.4,306.6,161.5,305.3,161.7,304z M163.1,296.2l-3.9-0.8
				c-0.3,1.3-0.5,2.7-0.8,4l3.9,0.7C162.6,298.8,162.8,297.5,163.1,296.2z M194,233.3l-3-2.6c-0.9,1-1.8,2.1-2.6,3.1l3.1,2.5
				C192.3,235.3,193.1,234.3,194,233.3z M189,239.4l-3.2-2.4c-0.8,1.1-1.6,2.2-2.4,3.2l3.2,2.3C187.4,241.5,188.2,240.4,189,239.4z
				 M199.3,227.4l-2.9-2.8c-0.9,1-1.9,2-2.8,3l3,2.7C197.5,229.3,198.4,228.4,199.3,227.4z M184.4,245.7l-3.3-2.3
				c-0.8,1.1-1.5,2.2-2.2,3.4l3.4,2.2C182.9,247.9,183.7,246.8,184.4,245.7z M180.2,252.4l-3.4-2.1c-0.7,1.2-1.4,2.3-2,3.5l3.5,2
				C178.8,254.6,179.5,253.5,180.2,252.4z M176.3,259.2l-3.5-1.9c-0.6,1.2-1.2,2.4-1.8,3.6l3.6,1.8
				C175.1,261.6,175.7,260.4,176.3,259.2z M164.9,288.5l-3.9-1c-0.3,1.3-0.7,2.6-1,3.9l3.9,0.9C164.2,291.1,164.5,289.8,164.9,288.5
				z M160.3,327.6l-4,0.1c0,1.4,0.1,2.7,0.1,4.1l4-0.2C160.4,330.2,160.3,328.9,160.3,327.6z M183.7,401.8l-3.3,2.2
				c0.8,1.1,1.5,2.2,2.3,3.3l3.3-2.3C185.2,404,184.4,402.9,183.7,401.8z M175.7,388.2l-3.6,1.8c0.6,1.2,1.3,2.4,1.9,3.6l3.5-1.9
				C176.9,390.6,176.3,389.4,175.7,388.2z M179.5,395.1l-3.4,2c0.7,1.2,1.4,2.3,2.1,3.5l3.4-2.1
				C180.8,397.4,180.1,396.3,179.5,395.1z M198.4,420.3l-2.9,2.8c0.9,1,1.9,1.9,2.8,2.9l2.8-2.8
				C200.3,422.2,199.3,421.3,198.4,420.3z M193.2,414.4l-3.1,2.6c0.9,1,1.8,2.1,2.7,3.1l3-2.7C194.9,416.4,194,415.4,193.2,414.4z
				 M188.2,408.3l-3.2,2.4c0.8,1.1,1.6,2.1,2.5,3.2l3.1-2.5C189.8,410.4,189,409.3,188.2,408.3z M172.3,381.1l-3.7,1.6
				c0.5,1.2,1.1,2.5,1.7,3.7l3.6-1.7C173.3,383.5,172.8,382.3,172.3,381.1z M162.8,351.1l-3.9,0.8c0.3,1.3,0.5,2.7,0.8,4l3.9-0.9
				C163.3,353.6,163.1,352.3,162.8,351.1z M161.5,343.3l-4,0.5c0.2,1.3,0.4,2.7,0.6,4l3.9-0.7C161.9,345.9,161.7,344.6,161.5,343.3z
				 M169.3,373.8l-3.7,1.4c0.5,1.3,1,2.5,1.5,3.8l3.7-1.5C170.2,376.3,169.7,375,169.3,373.8z M160.7,335.4l-4,0.3
				c0.1,1.3,0.2,2.7,0.4,4l4-0.4C160.9,338.1,160.8,336.7,160.7,335.4z M166.7,366.3l-3.8,1.2c0.4,1.3,0.8,2.6,1.3,3.9l3.8-1.3
				C167.5,368.8,167.1,367.6,166.7,366.3z M164.5,358.8l-3.9,1c0.3,1.3,0.7,2.6,1.1,3.9l3.8-1.1C165.2,361.3,164.8,360,164.5,358.8z
				"/>
		</g>
	</g>
	<g>
	</g>
	<g>
	</g>
	<g>
	</g>
	<g>
		<g>
			
				<rect x="203" y="221.1" transform="matrix(0.7071 -0.7071 0.7071 0.7071 -102.1392 212.1665)" class="st1" width="4" height="16.6"/>
		</g>
	</g>
	<g>
		<g>
			
				<rect x="205.5" y="233.2" transform="matrix(0.7072 -0.707 0.707 0.7072 -104.5613 217.9851)" class="st1" width="10.8" height="4"/>
		</g>
	</g>
	<g>
		<g>
			
				<rect x="393" y="411" transform="matrix(0.7071 -0.7071 0.7071 0.7071 -180.8044 402.0892)" class="st1" width="4" height="16.6"/>
		</g>
	</g>
	<g>
		<g>
			
				<rect x="383.7" y="411.4" transform="matrix(0.7071 -0.7071 0.7071 0.7071 -178.379 396.2158)" class="st1" width="10.8" height="4"/>
		</g>
	</g>
	<g>
		<g>
			
				<rect x="196.8" y="417.3" transform="matrix(0.7072 -0.707 0.707 0.7072 -236.4067 267.7309)" class="st1" width="16.6" height="4"/>
		</g>
	</g>
	<g>
		<g>
			
				<rect x="208.9" y="408.1" transform="matrix(0.707 -0.7072 0.7072 0.707 -230.5862 270.2589)" class="st1" width="4" height="10.8"/>
		</g>
	</g>
	<g>
		<g>
			
				<rect x="386.7" y="227.4" transform="matrix(0.7071 -0.7071 0.7071 0.7071 -46.519 346.4385)" class="st1" width="16.6" height="4"/>
		</g>
	</g>
	<g>
		<g>
			
				<rect x="387.1" y="229.9" transform="matrix(0.707 -0.7073 0.7073 0.707 -52.3467 344.1247)" class="st1" width="4" height="10.8"/>
		</g>
	</g>
	<g>
	</g>
	<g>
		<g>
			<rect x="157.4" y="322.3" class="st1" width="16.6" height="4"/>
		</g>
	</g>
	<g>
		<g>
			<rect x="426" y="322.3" class="st1" width="16.6" height="4"/>
		</g>
	</g>
	<g>
		<g>
			<rect x="298" y="450.3" class="st1" width="4" height="16.6"/>
		</g>
	</g>
	<g>
		<g>
			<rect x="294.6" y="448.3" class="st1" width="10.8" height="4"/>
		</g>
	</g>
	<g>
		<g>
			<rect x="298" y="181.8" class="st1" width="4" height="16.6"/>
		</g>
	</g>
	<g>
		<g>
			<rect x="294.6" y="196.3" class="st1" width="10.8" height="4"/>
		</g>
	</g>
	<g>
		<g>
			<path class="st1" d="M150.1,174.4l-2.8-2.8c-40.8,40.8-63.3,95-63.3,152.7c0,57.7,22.5,111.9,63.3,152.7l2.8-2.8
				C110.1,434.2,88,381,88,324.3S110.1,214.5,150.1,174.4z"/>
		</g>
	</g>
	<g>
	</g>
	<g>
		<g>
			<path class="st1" d="M452.7,171.6l-2.8,2.8c40.1,40,62.1,93.3,62.1,149.9c0,56.6-22.1,109.9-62.1,149.9l2.8,2.8
				c40.8-40.8,63.3-95,63.3-152.7C516,266.6,493.5,212.4,452.7,171.6z"/>
		</g>
	</g>
	<g>
	</g>
	<g>
		<g>
			<path class="st1" d="M244.2,115.7l1,3.9c1.3-0.3,2.6-0.7,3.8-1l-1-3.9C246.8,115,245.5,115.3,244.2,115.7z M236.4,117.9l1.2,3.8
				c1.3-0.4,2.5-0.8,3.8-1.1l-1.1-3.8C239,117.1,237.7,117.5,236.4,117.9z M228.7,120.4l1.3,3.8c1.2-0.4,2.5-0.9,3.8-1.3l-1.2-3.8
				C231.3,119.5,230,120,228.7,120.4z M221.2,123.2l1.5,3.7c1.2-0.5,2.5-1,3.7-1.4l-1.4-3.8C223.7,122.2,222.4,122.7,221.2,123.2z
				 M252,113.7l0.9,3.9c1.3-0.3,2.6-0.6,3.9-0.8l-0.8-3.9C254.7,113.1,253.3,113.4,252,113.7z M213.7,126.3l1.6,3.7
				c1.2-0.5,2.4-1,3.7-1.6l-1.5-3.7C216.2,125.2,214.9,125.7,213.7,126.3z M275.9,109.7l0.4,4c1.3-0.1,2.6-0.3,3.9-0.4l-0.4-4
				C278.6,109.4,277.3,109.5,275.9,109.7z M259.9,112.1l0.7,3.9c1.3-0.2,2.6-0.5,3.9-0.7l-0.7-3.9
				C262.6,111.6,261.3,111.8,259.9,112.1z M284,108.9l0.3,4c1.3-0.1,2.6-0.2,4-0.3l-0.2-4C286.6,108.8,285.3,108.8,284,108.9z
				 M267.9,110.7l0.6,4c1.3-0.2,2.6-0.4,3.9-0.5l-0.5-4C270.6,110.3,269.2,110.5,267.9,110.7z M206.3,129.7l1.7,3.6
				c1.2-0.6,2.4-1.1,3.6-1.7l-1.7-3.6C208.8,128.5,207.6,129.1,206.3,129.7z M165.3,155.5l2.5,3.1c1-0.8,2.1-1.6,3.1-2.5l-2.4-3.2
				C167.5,153.8,166.4,154.6,165.3,155.5z M159.1,160.6l2.6,3c1-0.9,2-1.7,3-2.6l-2.6-3.1C161.2,158.9,160.1,159.8,159.1,160.6z
				 M153.1,166l2.7,2.9c1-0.9,1.9-1.8,2.9-2.7l-2.7-3C155.1,164.2,154.1,165.1,153.1,166z M147.3,171.6l2.8,2.8
				c0.9-0.9,1.9-1.9,2.8-2.8l-2.8-2.9C149.2,169.7,148.2,170.7,147.3,171.6z M292,108.5l0.1,4c1.3,0,2.6-0.1,4-0.1l-0.1-4
				C294.7,108.4,293.4,108.4,292,108.5z M171.8,150.5l2.4,3.2c1.1-0.8,2.1-1.6,3.2-2.3l-2.3-3.3
				C173.9,148.9,172.8,149.7,171.8,150.5z M192,137.2l2,3.5c1.1-0.7,2.3-1.3,3.5-2l-1.9-3.5C194.4,135.9,193.2,136.5,192,137.2z
				 M199.1,133.3l1.9,3.5c1.2-0.6,2.3-1.2,3.5-1.8l-1.8-3.6C201.5,132.1,200.3,132.7,199.1,133.3z M178.3,145.8l2.3,3.3
				c1.1-0.7,2.2-1.5,3.3-2.2l-2.2-3.3C180.6,144.3,179.5,145.1,178.3,145.8z M185.1,141.4l2.1,3.4c1.1-0.7,2.2-1.4,3.4-2.1l-2.1-3.4
				C187.4,140,186.3,140.7,185.1,141.4z M425.8,153.7c1.1,0.8,2.1,1.6,3.2,2.4l2.4-3.2c-1.1-0.8-2.1-1.6-3.2-2.4L425.8,153.7z
				 M419.3,149.1c1.1,0.7,2.2,1.5,3.2,2.3l2.3-3.3c-1.1-0.8-2.2-1.5-3.3-2.3L419.3,149.1z M405.9,140.7c1.1,0.7,2.3,1.3,3.4,2
				l2.1-3.4c-1.2-0.7-2.3-1.4-3.5-2L405.9,140.7z M412.7,144.8c1.1,0.7,2.2,1.4,3.3,2.1l2.2-3.3c-1.1-0.7-2.3-1.5-3.4-2.2
				L412.7,144.8z M384.8,130c1.2,0.5,2.4,1.1,3.6,1.6l1.7-3.6c-1.2-0.6-2.4-1.1-3.7-1.6L384.8,130z M300.1,112.3c1.3,0,2.6,0,4,0
				l0.1-4c-1.3,0-2.7,0-4,0L300.1,112.3z M392,133.3c1.2,0.6,2.4,1.2,3.5,1.8l1.8-3.6c-1.2-0.6-2.4-1.2-3.6-1.8L392,133.3z
				 M432,158.5c1,0.8,2,1.7,3.1,2.5l2.6-3.1c-1-0.9-2.1-1.7-3.1-2.5L432,158.5z M452.6,171.5l-2.8,2.8l0.1,0.1l2.8-2.8L452.6,171.5z
				 M444,168.8c1,0.9,1.9,1.8,2.9,2.7l2.8-2.9c-1-0.9-1.9-1.9-2.9-2.8L444,168.8z M438.1,163.5c1,0.9,2,1.7,3,2.6l2.7-3
				c-1-0.9-2-1.8-3-2.7L438.1,163.5z M399,136.9c1.2,0.6,2.3,1.2,3.5,1.9l1.9-3.5c-1.2-0.7-2.4-1.3-3.5-1.9L399,136.9z M323.8,113.7
				c1.3,0.1,2.6,0.3,3.9,0.5l0.5-4c-1.3-0.2-2.7-0.3-4-0.5L323.8,113.7z M331.7,114.7c1.3,0.2,2.6,0.4,3.9,0.6l0.7-3.9
				c-1.3-0.2-2.7-0.4-4-0.6L331.7,114.7z M315.9,112.9c1.3,0.1,2.6,0.2,3.9,0.3l0.4-4c-1.3-0.1-2.7-0.2-4-0.3L315.9,112.9z
				 M308,112.5c1.3,0,2.6,0.1,4,0.2l0.2-4c-1.3-0.1-2.7-0.1-4-0.2L308,112.5z M339.5,116c1.3,0.2,2.6,0.5,3.9,0.8l0.8-3.9
				c-1.3-0.3-2.6-0.5-4-0.8L339.5,116z M362.5,121.7c1.3,0.4,2.5,0.8,3.8,1.2l1.2-3.8c-1.3-0.4-2.6-0.8-3.8-1.2L362.5,121.7z
				 M377.5,127c1.2,0.5,2.5,1,3.7,1.5l1.5-3.7c-1.2-0.5-2.5-1-3.7-1.5L377.5,127z M370,124.2c1.2,0.4,2.5,0.9,3.7,1.3l1.4-3.8
				c-1.3-0.5-2.5-0.9-3.8-1.4L370,124.2z M347.2,117.7c1.3,0.3,2.6,0.6,3.9,0.9l1-3.9c-1.3-0.3-2.6-0.6-3.9-0.9L347.2,117.7z
				 M354.9,119.6c1.3,0.3,2.5,0.7,3.8,1.1l1.1-3.8c-1.3-0.4-2.6-0.7-3.9-1.1L354.9,119.6z"/>
		</g>
	</g>
	<g>
	</g>
	<g>
		<g>
			<path class="st1" d="M247.9,534c1.3,0.3,2.6,0.6,3.9,0.9l0.9-3.9c-1.3-0.3-2.6-0.6-3.9-0.9L247.9,534z M255.8,535.8
				c1.3,0.3,2.6,0.5,4,0.8l0.7-3.9c-1.3-0.2-2.6-0.5-3.9-0.8L255.8,535.8z M240.2,531.9c1.3,0.4,2.6,0.7,3.9,1.1l1-3.9
				c-1.3-0.3-2.5-0.7-3.8-1.1L240.2,531.9z M224.8,526.9c1.3,0.5,2.5,0.9,3.8,1.4l1.3-3.8c-1.2-0.4-2.5-0.9-3.7-1.3L224.8,526.9z
				 M232.4,529.5c1.3,0.4,2.6,0.8,3.8,1.2l1.2-3.8c-1.3-0.4-2.5-0.8-3.8-1.2L232.4,529.5z M263.7,537.3c1.3,0.2,2.7,0.4,4,0.6l0.6-4
				c-1.3-0.2-2.6-0.4-3.9-0.6L263.7,537.3z M217.3,523.9c1.2,0.5,2.5,1,3.7,1.5l1.5-3.7c-1.2-0.5-2.5-1-3.7-1.5L217.3,523.9z
				 M295.9,540.3c1.3,0,2.7,0,4,0l0-4c-1.3,0-2.6,0-4,0L295.9,540.3z M279.7,539.4c1.3,0.1,2.7,0.2,4,0.3l0.3-4
				c-1.3-0.1-2.6-0.2-3.9-0.3L279.7,539.4z M271.7,538.5c1.3,0.2,2.7,0.3,4,0.5l0.4-4c-1.3-0.1-2.6-0.3-3.9-0.5L271.7,538.5z
				 M181.8,505.1c1.1,0.7,2.3,1.5,3.4,2.2l2.1-3.4c-1.1-0.7-2.2-1.4-3.3-2.1L181.8,505.1z M168.6,495.8c1.1,0.8,2.1,1.6,3.2,2.4
				l2.4-3.2c-1.1-0.8-2.1-1.6-3.2-2.4L168.6,495.8z M162.3,490.8c1,0.9,2.1,1.7,3.1,2.5l2.5-3.1c-1-0.8-2-1.7-3.1-2.5L162.3,490.8z
				 M156.2,485.5c1,0.9,2,1.8,3,2.7l2.6-3c-1-0.9-2-1.7-3-2.6L156.2,485.5z M175.1,500.6c1.1,0.8,2.2,1.5,3.3,2.3l2.3-3.3
				c-1.1-0.7-2.2-1.5-3.2-2.3L175.1,500.6z M150.3,480c1,0.9,1.9,1.9,2.9,2.8l2.7-2.9c-1-0.9-1.9-1.8-2.9-2.7L150.3,480z
				 M202.7,517.2c1.2,0.6,2.4,1.2,3.6,1.8l1.7-3.6c-1.2-0.6-2.4-1.2-3.5-1.8L202.7,517.2z M195.5,513.4c1.2,0.7,2.4,1.3,3.5,1.9
				l1.9-3.5c-1.2-0.6-2.3-1.2-3.5-1.9L195.5,513.4z M209.9,520.7c1.2,0.6,2.4,1.1,3.7,1.6l1.6-3.7c-1.2-0.5-2.4-1.1-3.6-1.6
				L209.9,520.7z M188.6,509.4c1.2,0.7,2.3,1.4,3.5,2l2-3.5c-1.1-0.7-2.3-1.3-3.4-2L188.6,509.4z M147.3,477l0.2,0.2l2.8-2.8
				l-0.2-0.2L147.3,477z M287.8,540c1.3,0.1,2.7,0.1,4,0.2l0.2-4c-1.3,0-2.6-0.1-4-0.2L287.8,540z M409.4,506l2.1,3.4
				c1.2-0.7,2.3-1.4,3.4-2.1l-2.1-3.4C411.6,504.6,410.5,505.3,409.4,506z M416.1,501.7l2.2,3.3c1.1-0.7,2.2-1.5,3.4-2.3l-2.3-3.3
				C418.3,500.3,417.2,501,416.1,501.7z M402.5,509.9l1.9,3.5c1.2-0.7,2.4-1.3,3.5-2l-2-3.5C404.8,508.7,403.6,509.3,402.5,509.9z
				 M395.5,513.7l1.8,3.6c1.2-0.6,2.4-1.2,3.6-1.9l-1.9-3.5C397.8,512.5,396.7,513.1,395.5,513.7z M422.6,497.3l2.3,3.3
				c1.1-0.8,2.2-1.6,3.3-2.4l-2.4-3.2C424.8,495.7,423.7,496.5,422.6,497.3z M303.9,536.3l0.1,4c1.3,0,2.7-0.1,4-0.1l-0.1-4
				C306.5,536.2,305.2,536.3,303.9,536.3z M388.3,517.1l1.7,3.6c1.2-0.6,2.4-1.1,3.7-1.7l-1.7-3.6
				C390.7,516,389.5,516.5,388.3,517.1z M449.9,474.2c-0.9,0.9-1.9,1.9-2.8,2.8l2.8,2.9c1-0.9,1.9-1.9,2.9-2.8L449.9,474.2z
				 M429,492.5l2.4,3.2c1.1-0.8,2.1-1.7,3.2-2.5l-2.5-3.1C431.1,490.9,430.1,491.7,429,492.5z M435.2,487.6l2.6,3.1
				c1-0.9,2.1-1.7,3.1-2.6l-2.6-3C437.3,485.9,436.2,486.7,435.2,487.6z M441.2,482.4l2.7,3c1-0.9,2-1.8,3-2.7l-2.7-2.9
				C443.2,480.6,442.2,481.5,441.2,482.4z M343.2,531.9l0.8,3.9c1.3-0.3,2.6-0.6,3.9-0.9l-0.9-3.9
				C345.8,531.3,344.5,531.6,343.2,531.9z M381,520.3l1.5,3.7c1.2-0.5,2.5-1,3.7-1.6l-1.6-3.7C383.5,519.2,382.3,519.8,381,520.3z
				 M335.4,533.4l0.7,3.9c1.3-0.2,2.7-0.5,4-0.7l-0.7-3.9C338,532.9,336.7,533.1,335.4,533.4z M311.8,536l0.2,4
				c1.3-0.1,2.7-0.2,4-0.3l-0.3-4C314.4,535.8,313.1,535.9,311.8,536z M319.7,535.4l0.4,4c1.3-0.1,2.7-0.3,4-0.4l-0.4-4
				C322.3,535.2,321,535.3,319.7,535.4z M327.6,534.5l0.5,4c1.3-0.2,2.7-0.4,4-0.6l-0.6-4C330.2,534.2,328.9,534.4,327.6,534.5z
				 M373.7,523.2l1.4,3.8c1.3-0.5,2.5-0.9,3.8-1.4l-1.5-3.7C376.1,522.2,374.9,522.7,373.7,523.2z M366.2,525.8l1.2,3.8
				c1.3-0.4,2.6-0.9,3.8-1.3l-1.3-3.8C368.7,524.9,367.4,525.4,366.2,525.8z M350.9,530.1l1,3.9c1.3-0.3,2.6-0.7,3.9-1l-1-3.9
				C353.5,529.5,352.2,529.8,350.9,530.1z M358.6,528.1l1.1,3.8c1.3-0.4,2.6-0.8,3.9-1.2l-1.2-3.8
				C361.1,527.4,359.9,527.7,358.6,528.1z"/>
		</g>
	</g>
	<g>
	</g>
	<g>
	</g>
	<g>
	</g>
	<g>
		<g>
			
				<rect x="144.2" y="465.7" transform="matrix(0.707 -0.7072 0.7072 0.707 -284.829 247.7906)" class="st1" width="25" height="4"/>
		</g>
	</g>
	<g>
		<g>
			
				<rect x="163.5" y="450.7" transform="matrix(0.7072 -0.707 0.707 0.7072 -275.9344 251.332)" class="st1" width="4" height="16.2"/>
		</g>
	</g>
	<g>
		<g>
			<rect x="430.8" y="179" transform="matrix(0.7071 -0.7071 0.7071 0.7071 1.8721 366.512)" class="st1" width="25" height="4"/>
		</g>
	</g>
	<g>
		<g>
			
				<rect x="432.5" y="181.7" transform="matrix(0.7071 -0.7071 0.7071 0.7071 -6.97 362.8403)" class="st1" width="4" height="16.2"/>
		</g>
	</g>
	<g>
		<g>
			
				<rect x="441.3" y="455.2" transform="matrix(0.7072 -0.707 0.707 0.7072 -200.842 450.3615)" class="st1" width="4" height="25"/>
		</g>
	</g>
	<g>
		<g>
			
				<rect x="426.4" y="456.8" transform="matrix(0.7071 -0.7071 0.7071 0.7071 -197.1824 441.6272)" class="st1" width="16.2" height="4"/>
		</g>
	</g>
	<g>
		<g>
			
				<rect x="154.7" y="168.5" transform="matrix(0.7072 -0.707 0.707 0.7072 -82.0971 163.7473)" class="st1" width="4" height="25"/>
		</g>
	</g>
	<g>
		<g>
			
				<rect x="157.4" y="187.8" transform="matrix(0.707 -0.7072 0.7072 0.707 -85.7629 172.6672)" class="st1" width="16.2" height="4"/>
		</g>
	</g>
	<g>
	</g>
	<g>
		<g>
			<rect x="298" y="514.5" class="st1" width="4" height="25"/>
		</g>
	</g>
	<g>
		<g>
			<rect x="298" y="109.1" class="st1" width="4" height="25"/>
		</g>
	</g>
	<g>
		<g>
			<rect x="490.2" y="322.3" class="st1" width="25" height="4"/>
		</g>
	</g>
	<g>
		<g>
			<rect x="488.2" y="316.2" class="st1" width="4" height="16.2"/>
		</g>
	</g>
	<g>
		<g>
			<rect x="84.8" y="322.3" class="st1" width="25" height="4"/>
		</g>
	</g>
	<g>
		<g>
			<rect x="107.8" y="316.2" class="st1" width="4" height="16.2"/>
		</g>
	</g>
	<g>
		<g>
			<path class="st2" d="M403,433.9h-15.4c-22.4,0-40.5-18.1-40.5-40.4v-5.9c16.5-9.1,28.1-26.4,28.1-46.6v-65
				c0-29.6-24.1-53.6-53.6-53.6h-43.1c-29.5,0-53.5,24-53.5,53.6v65c0,20.3,11.3,37.5,27.9,46.6v5.9c0,22.3-18.1,40.4-40.4,40.4
				h-15.3c-25.6,0-47.6,14.6-58.6,36c38.8,46.3,96.4,76.4,161.5,76.4c65.2,0,122.8-30.1,161.6-76.4
				C450.5,448.5,428.6,433.9,403,433.9z"/>
		</g>
	</g>
	<g>
		<g>
			<path class="st3" d="M403,450.3h-15.4c-22.4,0-40.5-18.1-40.5-40.4v-5.9c0.4-0.2,0.8-0.5,1.2-0.7c-0.8-3.1-1.2-6.4-1.2-9.8v-5.9
				c16.5-9.1,28.1-26.4,28.1-46.6v-48.6c0-29.6-24.1-53.6-53.6-53.6h-43.1c-29.5,0-53.5,24-53.5,53.6v48.6
				c0,20.3,11.3,37.5,27.9,46.6v5.9c0,3.4-0.4,6.6-1.2,9.8c0.4,0.2,0.8,0.5,1.2,0.7v5.9c0,22.3-18.1,40.4-40.4,40.4h-15.3
				c-21.5,0-40.6,10.4-52.6,26.4c38.6,42.4,93.7,69.5,155.5,69.5c61.9,0,117-27.1,155.6-69.5C443.5,460.7,424.6,450.3,403,450.3z"/>
		</g>
	</g>
	<g>
		<g>
			<path class="st4" d="M465.1,468c-12.1-23.5-35.9-38.1-62.1-38.1h-15.4c-20.1,0-36.5-16.3-36.5-36.4v-3.6
				c17.4-10.5,28.1-29,28.1-48.9v-65c0-31.7-25.8-57.6-57.6-57.6h-43.1c-31.7,0-57.5,25.8-57.5,57.6v65c0,20,10.6,38.5,27.9,48.9
				v3.6c0,20.1-16.3,36.4-36.4,36.4h-15.3c-26.2,0-50,14.6-62.2,38.1c-0.7,1.4-0.5,3.2,0.5,4.4c41.4,49.4,101.4,77.8,164.5,77.8
				c63.2,0,123.3-28.4,164.7-77.8C465.6,471.2,465.8,469.5,465.1,468z M299.9,542.2c-59.9,0-116.8-26.5-156.7-72.9
				c11.1-19.5,31.5-31.5,53.8-31.5h15.3c24.5,0,44.4-19.9,44.4-44.4v-5.9c0-1.5-0.8-2.8-2.1-3.5c-15.9-8.7-25.8-25.3-25.8-43.1v-65
				c0-27.3,22.2-49.6,49.5-49.6h43.1c27.3,0,49.6,22.2,49.6,49.6v65c0,17.8-10,34.3-26,43.1c-1.3,0.7-2.1,2-2.1,3.5v5.9
				c0,24.5,19.9,44.4,44.5,44.4H403c22.3,0,42.6,12,53.7,31.5C416.9,515.7,359.9,542.2,299.9,542.2z"/>
		</g>
	</g>
	<g>
		<g>
			<path class="st5" d="M300,79.2c-33.2,0-60.1,26.9-60.1,60.1c0,16.8,6.9,32,18.1,43c9.6,10.7,15.4,24.7,15.4,40.2h53.2
				c0-15.5,5.8-29.5,15.5-40.2c11.1-10.9,18.1-26.1,18.1-43C360.1,106.1,333.2,79.2,300,79.2z"/>
		</g>
	</g>
	<g>
		<g>
			<path class="st6" d="M300,79.2c-19.8,0-35.9,26.9-35.9,60.1c0,16.8,4.1,32,10.8,43c5.7,10.7,9.2,24.7,9.2,40.2h31.8
				c0-15.5,3.5-29.5,9.2-40.2c6.7-10.9,10.8-26.1,10.8-43C335.9,106.1,319.8,79.2,300,79.2z"/>
		</g>
	</g>
	<g>
		<g>
			<path class="st7" d="M273.4,222.5c0-0.3,0-0.6,0-0.8v20.9c0,13.5,10.9,24.4,24.4,24.4h4.4c13.5,0,24.4-10.9,24.4-24.4v-20H273.4z
				"/>
		</g>
	</g>
	<g>
		<g>
			<path class="st2" d="M284.3,222.5c0-0.3,0-0.6,0-0.8v20.9c0,13.5,6.5,24.4,14.4,24.4h2.6c8,0,14.4-10.9,14.4-24.4v-20H284.3z"/>
		</g>
	</g>
	<g>
		<g>
			<path class="st4" d="M300,76.2c-34.8,0-63.1,28.3-63.1,63.1c0,17.1,6.7,33.1,18.9,45c9.4,10.5,14.6,24.1,14.6,38.2
				c0,1.7,1.3,3,3,3h53.2c1.7,0,3-1.3,3-3c0-14.1,5.2-27.6,14.6-38.2c12.2-12,18.9-28,18.9-45C363.1,104.5,334.8,76.2,300,76.2z
				 M340,180.2c0,0-0.1,0.1-0.1,0.1c-9.8,10.9-15.5,24.7-16.2,39.2h-47.3c-0.7-14.5-6.4-28.3-16.1-39.2c0,0-0.1-0.1-0.1-0.1
				c-11.1-10.8-17.2-25.3-17.2-40.8c0-31.5,25.6-57.1,57.1-57.1c31.5,0,57.1,25.6,57.1,57.1C357.1,154.8,351,169.3,340,180.2z"/>
		</g>
	</g>
	<g>
		<g>
			<path class="st4" d="M326.6,219.5h-51.2c-0.5-0.5-1.3-0.8-2.1-0.8c-1.7,0-3,1.3-3,3v20.9c0,15.1,12.3,27.4,27.4,27.4h4.4
				c15.1,0,27.4-12.3,27.4-27.4v-20C329.6,220.9,328.3,219.5,326.6,219.5z M323.6,242.6c0,11.8-9.6,21.4-21.4,21.4h-4.4
				c-11.8,0-21.4-9.6-21.4-21.4v-17h47.2V242.6z"/>
		</g>
	</g>
	<g>
		<g>
			<path class="st4" d="M300,156.1c-1.1,0-2,0.9-2,2v55.6c0,1.1,0.9,2,2,2s2-0.9,2-2v-55.6C302,157,301.1,156.1,300,156.1z"/>
		</g>
	</g>
	<g>
		<g>
			<path class="st4" d="M301.4,155.3c-0.8-0.8-2-0.8-2.8,0l-11.1,11.1l-11.1-11.1c-0.8-0.8-2-0.8-2.8,0c-0.8,0.8-0.8,2,0,2.8
				l12.5,12.6c0.4,0.4,0.9,0.6,1.4,0.6c0.5,0,1-0.2,1.4-0.6l12.5-12.6C302.2,157.3,302.2,156.1,301.4,155.3z"/>
		</g>
	</g>
	<g>
		<g>
			<path class="st4" d="M326.4,155.3c-0.8-0.8-2-0.8-2.8,0l-11.1,11.1l-11.1-11.1c-0.8-0.8-2-0.8-2.8,0c-0.8,0.8-0.8,2,0,2.8
				l12.5,12.6c0.4,0.4,0.9,0.6,1.4,0.6h0c0.5,0,1-0.2,1.4-0.6l12.5-12.6C327.2,157.3,327.2,156.1,326.4,155.3z"/>
		</g>
	</g>
	<g>
		<g>
			<path class="st4" d="M324.3,231.8h-48.6c-1.1,0-2,0.9-2,2c0,1.1,0.9,2,2,2h48.6c1.1,0,2-0.9,2-2
				C326.3,232.7,325.4,231.8,324.3,231.8z"/>
		</g>
	</g>
	<g>
		<g>
			<path class="st4" d="M324.3,242.3h-48.6c-1.1,0-2,0.9-2,2s0.9,2,2,2h48.6c1.1,0,2-0.9,2-2S325.4,242.3,324.3,242.3z"/>
		</g>
	</g>
	<g>
		<g>
			<path class="st4" d="M324.3,252.8h-48.6c-1.1,0-2,0.9-2,2c0,1.1,0.9,2,2,2h48.6c1.1,0,2-0.9,2-2
				C326.3,253.7,325.4,252.8,324.3,252.8z"/>
		</g>
	</g>
	<g>
		<g>
			<path class="st5" d="M426.3,245.2c-20.5,0-37.2,16.6-37.2,37.2c0,10.4,4.3,19.8,11.2,26.6c5.9,6.6,9.5,15.3,9.5,24.9h32.9
				c0-9.6,3.6-18.3,9.6-24.9c6.9-6.8,11.2-16.1,11.2-26.6C463.5,261.9,446.8,245.2,426.3,245.2z"/>
		</g>
	</g>
	<g>
		<g>
			<path class="st6" d="M426.3,245.2c-12.3,0-22.2,16.6-22.2,37.2c0,10.4,2.6,19.8,6.7,26.6c3.5,6.6,5.7,15.3,5.7,24.9h19.7
				c0-9.6,2.2-18.3,5.7-24.9c4.1-6.8,6.7-16.1,6.7-26.6C448.5,261.9,438.5,245.2,426.3,245.2z"/>
		</g>
	</g>
	<g>
		<g>
			<path class="st7" d="M409.8,333.8c0-0.2,0-0.3,0-0.5v12.9c0,8.3,6.8,15.1,15.1,15.1h2.7c8.3,0,15.1-6.8,15.1-15.1v-12.4H409.8z"
				/>
		</g>
	</g>
	<g>
		<g>
			<path class="st2" d="M416.5,333.8c0-0.2,0-0.3,0-0.5v12.9c0,8.3,4,15.1,8.9,15.1h1.6c4.9,0,8.9-6.8,8.9-15.1v-12.4H416.5z"/>
		</g>
	</g>
	<g>
		<g>
			<path class="st4" d="M426.3,242.2c-22.2,0-40.2,18-40.2,40.2c0,10.9,4.3,21,12,28.6c5.6,6.3,8.7,14.4,8.7,22.8c0,1.7,1.3,3,3,3
				h32.9c1.7,0,3-1.3,3-3c0-8.4,3.1-16.5,8.7-22.8c7.7-7.6,12-17.8,12-28.6C466.5,260.2,448.4,242.2,426.3,242.2z M450.2,306.8
				c0,0-0.1,0.1-0.1,0.1c-6,6.7-9.6,15-10.2,23.9h-27.1c-0.7-8.8-4.2-17.2-10.2-23.9c0,0-0.1-0.1-0.1-0.1
				c-6.6-6.5-10.3-15.2-10.3-24.4c0-18.9,15.3-34.2,34.2-34.2c18.8,0,34.2,15.3,34.2,34.2C460.5,291.7,456.8,300.3,450.2,306.8z"/>
		</g>
	</g>
	<g>
		<g>
			<path class="st4" d="M442.7,330.8h-31.2c-0.5-0.3-1.1-0.5-1.7-0.5c-1.7,0-3,1.3-3,3v12.9c0,10,8.1,18.1,18.1,18.1h2.7
				c10,0,18.1-8.1,18.1-18.1v-12.4C445.7,332.2,444.4,330.8,442.7,330.8z M439.7,346.2c0,6.7-5.4,12.1-12.1,12.1h-2.7
				c-6.7,0-12.1-5.4-12.1-12.1v-9.4h26.9V346.2z"/>
		</g>
	</g>
	<g>
		<g>
			<path class="st4" d="M426.3,292c-1.1,0-2,0.9-2,2v34.4c0,1.1,0.9,2,2,2s2-0.9,2-2V294C428.3,292.9,427.4,292,426.3,292z"/>
		</g>
	</g>
	<g>
		<g>
			<path class="st4" d="M427.7,291.7c-0.8-0.8-2-0.8-2.8,0l-6.3,6.3l-6.3-6.3c-0.8-0.8-2-0.8-2.8,0c-0.8,0.8-0.8,2,0,2.8l7.7,7.8
				c0.4,0.4,0.9,0.6,1.4,0.6c0.5,0,1-0.2,1.4-0.6l7.7-7.8C428.5,293.8,428.5,292.5,427.7,291.7z"/>
		</g>
	</g>
	<g>
		<g>
			<path class="st4" d="M443.2,291.7c-0.8-0.8-2-0.8-2.8,0l-6.3,6.3l-6.3-6.3c-0.8-0.8-2-0.8-2.8,0c-0.8,0.8-0.8,2,0,2.8l7.8,7.8
				c0.4,0.4,0.9,0.6,1.4,0.6h0c0.5,0,1-0.2,1.4-0.6l7.7-7.8C443.9,293.8,443.9,292.5,443.2,291.7z"/>
		</g>
	</g>
	<g>
		<g>
			<path class="st4" d="M441.3,340.4h-30c-1.1,0-2,0.9-2,2s0.9,2,2,2h30c1.1,0,2-0.9,2-2S442.4,340.4,441.3,340.4z"/>
		</g>
	</g>
	<g>
		<g>
			<path class="st4" d="M441.3,348.1h-30c-1.1,0-2,0.9-2,2s0.9,2,2,2h30c1.1,0,2-0.9,2-2S442.4,348.1,441.3,348.1z"/>
		</g>
	</g>
	<g>
		<g>
			<path class="st5" d="M173.7,245.2c-20.5,0-37.2,16.6-37.2,37.2c0,10.4,4.3,19.8,11.2,26.6c5.9,6.6,9.6,15.3,9.6,24.9h32.9
				c0-9.6,3.6-18.3,9.6-24.9c6.9-6.8,11.2-16.1,11.2-26.6C210.9,261.9,194.3,245.2,173.7,245.2z"/>
		</g>
	</g>
	<g>
		<g>
			<path class="st6" d="M173.7,245.2c-12.3,0-22.2,16.6-22.2,37.2c0,10.4,2.6,19.8,6.7,26.6c3.5,6.6,5.7,15.3,5.7,24.9h19.7
				c0-9.6,2.2-18.3,5.7-24.9c4.1-6.8,6.7-16.1,6.7-26.6C196,261.9,186,245.2,173.7,245.2z"/>
		</g>
	</g>
	<g>
		<g>
			<path class="st7" d="M157.3,333.8c0-0.2,0-0.3,0-0.5v12.9c0,8.3,6.8,15.1,15.1,15.1h2.7c8.3,0,15.1-6.8,15.1-15.1v-12.4H157.3z"
				/>
		</g>
	</g>
	<g>
		<g>
			<path class="st2" d="M164,333.8c0-0.2,0-0.3,0-0.5v12.9c0,8.3,4,15.1,8.9,15.1h1.6c4.9,0,8.9-6.8,8.9-15.1v-12.4H164z"/>
		</g>
	</g>
	<g>
		<g>
			<path class="st4" d="M173.7,242.2c-22.2,0-40.2,18-40.2,40.2c0,10.9,4.3,21,12,28.6c5.6,6.3,8.7,14.4,8.7,22.8c0,1.7,1.3,3,3,3
				h32.9c1.7,0,3-1.3,3-3c0-8.4,3.1-16.5,8.7-22.8c7.7-7.6,12-17.8,12-28.6C213.9,260.2,195.9,242.2,173.7,242.2z M197.7,306.8
				c0,0-0.1,0.1-0.1,0.1c-6,6.7-9.6,15-10.2,23.9h-27.1c-0.7-8.8-4.2-17.2-10.2-23.9c0,0-0.1-0.1-0.1-0.1
				c-6.6-6.5-10.3-15.2-10.3-24.4c0-18.9,15.3-34.2,34.2-34.2c18.8,0,34.2,15.3,34.2,34.2C207.9,291.7,204.3,300.3,197.7,306.8z"/>
		</g>
	</g>
	<g>
		<g>
			<path class="st4" d="M190.2,330.8H159c-0.5-0.3-1.1-0.5-1.7-0.5c-1.7,0-3,1.3-3,3v12.9c0,10,8.1,18.1,18.1,18.1h2.7
				c10,0,18.1-8.1,18.1-18.1v-12.4C193.2,332.2,191.9,330.8,190.2,330.8z M187.2,346.2c0,6.7-5.4,12.1-12.1,12.1h-2.7
				c-6.7,0-12.1-5.4-12.1-12.1v-9.4h26.9V346.2z"/>
		</g>
	</g>
	<g>
		<g>
			<path class="st4" d="M173.7,292c-1.1,0-2,0.9-2,2v34.4c0,1.1,0.9,2,2,2c1.1,0,2-0.9,2-2V294C175.7,292.9,174.8,292,173.7,292z"/>
		</g>
	</g>
	<g>
		<g>
			<path class="st4" d="M175.1,291.7c-0.8-0.8-2-0.8-2.8,0l-6.3,6.3l-6.3-6.3c-0.8-0.8-2-0.8-2.8,0c-0.8,0.8-0.8,2,0,2.8l7.7,7.8
				c0.4,0.4,0.9,0.6,1.4,0.6c0.5,0,1-0.2,1.4-0.6l7.7-7.8C175.9,293.8,175.9,292.5,175.1,291.7z"/>
		</g>
	</g>
	<g>
		<g>
			<path class="st4" d="M190.6,291.7c-0.8-0.8-2-0.8-2.8,0l-6.3,6.3l-6.3-6.3c-0.8-0.8-2-0.8-2.8,0c-0.8,0.8-0.8,2,0,2.8l7.8,7.8
				c0.4,0.4,0.9,0.6,1.4,0.6h0c0.5,0,1-0.2,1.4-0.6l7.7-7.8C191.4,293.8,191.4,292.5,190.6,291.7z"/>
		</g>
	</g>
	<g>
		<g>
			<path class="st4" d="M188.8,340.4h-30c-1.1,0-2,0.9-2,2s0.9,2,2,2h30c1.1,0,2-0.9,2-2S189.9,340.4,188.8,340.4z"/>
		</g>
	</g>
	<g>
		<g>
			<path class="st4" d="M188.8,348.1h-30c-1.1,0-2,0.9-2,2s0.9,2,2,2h30c1.1,0,2-0.9,2-2S189.9,348.1,188.8,348.1z"/>
		</g>
	</g>
	<g>
		<g>
			<path class="st6" d="M265.2,338.6c0,19.2,15.6,34.8,34.8,34.8c19.2,0,34.8-15.6,34.8-34.8H265.2z"/>
		</g>
	</g>
	<g>
		<g>
			<path class="st7" d="M300,355.1c-9.1,0-17.3,3.5-23.5,9.1c6.2,5.7,14.4,9.1,23.5,9.1c9.1,0,17.3-3.5,23.5-9.1
				C317.3,358.6,309.1,355.1,300,355.1z"/>
		</g>
	</g>
	<g>
		<g>
			<path class="st4" d="M334.8,335.6h-69.6c-1.7,0-3,1.3-3,3c0,20.8,16.9,37.8,37.8,37.8c20.8,0,37.8-16.9,37.8-37.8
				C337.8,337,336.4,335.6,334.8,335.6z M300,370.4c-16.5,0-30.1-12.7-31.6-28.8h63.3C330.1,357.7,316.5,370.4,300,370.4z"/>
		</g>
	</g>
	<g>
		<g>
			<rect x="222.2" y="125.5" class="st1" width="14.2" height="4"/>
		</g>
	</g>
	<g>
		<g>
			<rect x="244.3" y="125.5" class="st1" width="1.6" height="4"/>
		</g>
	</g>
	<g>
		<g>
			<rect x="251.8" y="125.5" class="st1" width="1.6" height="4"/>
		</g>
	</g>
	<g>
		<g>
			<rect x="259.3" y="125.5" class="st1" width="1.6" height="4"/>
		</g>
	</g>
	<g>
		<g>
			<rect x="363.5" y="125.5" class="st1" width="14.3" height="4"/>
		</g>
	</g>
	<g>
		<g>
			<rect x="354.2" y="125.5" class="st1" width="1.6" height="4"/>
		</g>
	</g>
	<g>
		<g>
			<rect x="346.6" y="125.5" class="st1" width="1.6" height="4"/>
		</g>
	</g>
	<g>
		<g>
			<rect x="339.1" y="125.5" class="st1" width="1.6" height="4"/>
		</g>
	</g>
	<g>
		<g>
			
				<rect x="248.1" y="70.5" transform="matrix(0.7074 -0.7069 0.7069 0.7074 18.3389 199.4592)" class="st1" width="4" height="14.3"/>
		</g>
	</g>
	<g>
		<g>
			<rect x="259.1" y="87.9" transform="matrix(0.706 -0.7082 0.7082 0.706 13.9803 210.9982)" class="st1" width="4" height="1.6"/>
		</g>
	</g>
	<g>
		<g>
			
				<rect x="264.5" y="93.2" transform="matrix(0.7071 -0.7071 0.7071 0.7071 11.583 215.9587)" class="st1" width="4" height="1.6"/>
		</g>
	</g>
	<g>
		<g>
			
				<rect x="269.8" y="98.5" transform="matrix(0.7081 -0.7061 0.7061 0.7081 9.2011 220.9219)" class="st1" width="4" height="1.6"/>
		</g>
	</g>
	<g>
		<g>
			
				<rect x="347.9" y="170.3" transform="matrix(0.707 -0.7073 0.7073 0.707 -22.9678 299.5005)" class="st1" width="4" height="14.3"/>
		</g>
	</g>
	<g>
		<g>
			
				<rect x="336.9" y="165.6" transform="matrix(0.706 -0.7082 0.7082 0.706 -18.2129 288.9055)" class="st1" width="4" height="1.6"/>
		</g>
	</g>
	<g>
		<g>
			
				<rect x="331.5" y="160.3" transform="matrix(0.7053 -0.7089 0.7089 0.7053 -15.8761 283.9191)" class="st1" width="4" height="1.6"/>
		</g>
	</g>
	<g>
		<g>
			
				<rect x="326.2" y="154.9" transform="matrix(0.7065 -0.7077 0.7077 0.7065 -13.8769 277.9781)" class="st1" width="4" height="1.6"/>
		</g>
	</g>
	<g>
		<g>
			<rect x="298" y="49.8" class="st1" width="4" height="14.2"/>
		</g>
	</g>
	<g>
		<g>
			<rect x="298" y="71.8" class="st1" width="4" height="1.6"/>
		</g>
	</g>
	<g>
		<g>
			<rect x="298" y="79.3" class="st1" width="4" height="1.6"/>
		</g>
	</g>
	<g>
		<g>
			
				<rect x="299.2" y="85.7" transform="matrix(1.242283e-03 -1 1 1.242283e-03 211.9724 387.542)" class="st1" width="1.6" height="4"/>
		</g>
	</g>
	<g>
		<g>
			<rect x="298" y="191" class="st1" width="4" height="14.3"/>
		</g>
	</g>
	<g>
		<g>
			<rect x="298" y="181.7" class="st1" width="4" height="1.6"/>
		</g>
	</g>
	<g>
		<g>
			<rect x="298" y="174.2" class="st1" width="4" height="1.6"/>
		</g>
	</g>
	<g>
		<g>
			
				<rect x="299.2" y="165.4" transform="matrix(1.241079e-03 -1 1 1.241079e-03 132.2245 467.1914)" class="st1" width="1.6" height="4"/>
		</g>
	</g>
	<g>
		<g>
			<rect x="342.8" y="75.6" transform="matrix(0.707 -0.7072 0.7072 0.707 47.6739 270.227)" class="st1" width="14.3" height="4"/>
		</g>
	</g>
	<g>
		<g>
			<rect x="338.1" y="86.7" transform="matrix(0.7082 -0.706 0.706 0.7082 36.2913 265.123)" class="st1" width="1.6" height="4"/>
		</g>
	</g>
	<g>
		<g>
			<rect x="332.7" y="92" transform="matrix(0.7077 -0.7065 0.7065 0.7077 31.0725 263.1046)" class="st1" width="1.6" height="4"/>
		</g>
	</g>
	<g>
		<g>
			
				<rect x="327.4" y="97.3" transform="matrix(0.7074 -0.7068 0.7068 0.7074 25.8112 261.0194)" class="st1" width="1.6" height="4"/>
		</g>
	</g>
	<g>
		<g>
			
				<rect x="242.9" y="175.5" transform="matrix(0.7071 -0.7071 0.7071 0.7071 -52.247 228.8031)" class="st1" width="14.2" height="4"/>
		</g>
	</g>
	<g>
		<g>
			
				<rect x="260.3" y="164.4" transform="matrix(0.7063 -0.7079 0.7079 0.7063 -41.1011 233.7072)" class="st1" width="1.6" height="4"/>
		</g>
	</g>
	<g>
		<g>
			
				<rect x="265.7" y="159.1" transform="matrix(0.7084 -0.7058 0.7058 0.7084 -35.9679 235.0526)" class="st1" width="1.6" height="4"/>
		</g>
	</g>
	<g>
		<g>
			<rect x="271" y="153.7" transform="matrix(0.709 -0.7052 0.7052 0.709 -30.7159 237.0061)" class="st1" width="1.6" height="4"/>
		</g>
	</g>
	<g>
		<g>
			<path class="st1" d="M300,108.4c-10.5,0-19.1,8.6-19.1,19.1c0,10.5,8.6,19.1,19.1,19.1c10.5,0,19.1-8.6,19.1-19.1
				C319.1,117,310.5,108.4,300,108.4z M300,142.6c-8.3,0-15.1-6.8-15.1-15.1c0-8.3,6.8-15.1,15.1-15.1c8.3,0,15.1,6.8,15.1,15.1
				C315.1,135.9,308.3,142.6,300,142.6z"/>
		</g>
	</g>
	<g>
		<g>
			<polygon class="st1" points="98.9,152.7 98.9,153.9 102.7,153.9 108.1,148.4 108.1,143.5 			"/>
		</g>
	</g>
	<g>
		<g>
			<polygon class="st1" points="105.3,153.9 108.1,153.9 108.1,151 			"/>
		</g>
	</g>
	<g>
		<g>
			<polygon class="st1" points="98.9,145.1 98.9,150.1 108.1,140.9 108.1,135.9 			"/>
		</g>
	</g>
	<g>
		<g>
			<polygon class="st1" points="103.5,95.6 92.4,106.7 98.9,106.7 98.9,135 108.1,125.7 108.1,106.7 114.7,106.7 			"/>
		</g>
	</g>
	<g>
		<g>
			<polygon class="st1" points="98.9,137.6 98.9,142.5 108.1,133.3 108.1,128.4 			"/>
		</g>
	</g>
	<g>
		<g>
			<polygon class="st1" points="118.1,171.4 118.1,172.6 121.9,172.6 127.3,167.2 127.3,162.2 			"/>
		</g>
	</g>
	<g>
		<g>
			<polygon class="st1" points="124.5,172.6 127.3,172.6 127.3,169.8 			"/>
		</g>
	</g>
	<g>
		<g>
			<polygon class="st1" points="118.1,163.9 118.1,168.8 127.3,159.6 127.3,154.7 			"/>
		</g>
	</g>
	<g>
		<g>
			<polygon class="st1" points="122.7,114.3 111.6,125.5 118.1,125.5 118.1,153.7 127.3,144.5 127.3,125.5 133.9,125.5 			"/>
		</g>
	</g>
	<g>
		<g>
			<polygon class="st1" points="118.1,156.3 118.1,161.3 127.3,152 127.3,147.1 			"/>
		</g>
	</g>
	<g>
		<g>
			<polygon class="st1" points="79.7,171.4 79.7,172.6 83.5,172.6 89,167.2 89,162.2 			"/>
		</g>
	</g>
	<g>
		<g>
			<polygon class="st1" points="86.1,172.6 89,172.6 89,169.8 			"/>
		</g>
	</g>
	<g>
		<g>
			<polygon class="st1" points="79.7,163.9 79.7,168.8 89,159.6 89,154.7 			"/>
		</g>
	</g>
	<g>
		<g>
			<polygon class="st1" points="84.3,114.3 73.2,125.5 79.7,125.5 79.7,153.7 89,144.5 89,125.5 95.5,125.5 			"/>
		</g>
	</g>
	<g>
		<g>
			<polygon class="st1" points="79.7,156.3 79.7,161.3 89,152 89,147.1 			"/>
		</g>
	</g>
	<g>
		<g>
			<polygon class="st1" points="491.8,152.7 491.8,153.9 495.6,153.9 501.1,148.4 501.1,143.5 			"/>
		</g>
	</g>
	<g>
		<g>
			<polygon class="st1" points="498.2,153.9 501.1,153.9 501.1,151 			"/>
		</g>
	</g>
	<g>
		<g>
			<polygon class="st1" points="491.8,145.1 491.8,150.1 501.1,140.9 501.1,135.9 			"/>
		</g>
	</g>
	<g>
		<g>
			<polygon class="st1" points="496.5,95.6 485.3,106.7 491.8,106.7 491.8,135 501.1,125.7 501.1,106.7 507.6,106.7 			"/>
		</g>
	</g>
	<g>
		<g>
			<polygon class="st1" points="491.8,137.6 491.8,142.5 501.1,133.3 501.1,128.4 			"/>
		</g>
	</g>
	<g>
		<g>
			<polygon class="st1" points="511,171.4 511,172.6 514.8,172.6 520.3,167.2 520.3,162.2 			"/>
		</g>
	</g>
	<g>
		<g>
			<polygon class="st1" points="517.4,172.6 520.3,172.6 520.3,169.8 			"/>
		</g>
	</g>
	<g>
		<g>
			<polygon class="st1" points="511,163.9 511,168.8 520.3,159.6 520.3,154.7 			"/>
		</g>
	</g>
	<g>
		<g>
			<polygon class="st1" points="515.7,114.3 504.5,125.5 511,125.5 511,153.7 520.3,144.5 520.3,125.5 526.8,125.5 			"/>
		</g>
	</g>
	<g>
		<g>
			<polygon class="st1" points="511,156.3 511,161.3 520.3,152 520.3,147.1 			"/>
		</g>
	</g>
	<g>
		<g>
			<polygon class="st1" points="472.6,171.4 472.6,172.6 476.4,172.6 481.9,167.2 481.9,162.2 			"/>
		</g>
	</g>
	<g>
		<g>
			<polygon class="st1" points="479,172.6 481.9,172.6 481.9,169.8 			"/>
		</g>
	</g>
	<g>
		<g>
			<polygon class="st1" points="472.6,163.9 472.6,168.8 481.9,159.6 481.9,154.7 			"/>
		</g>
	</g>
	<g>
		<g>
			<polygon class="st1" points="477.3,114.3 466.1,125.5 472.6,125.5 472.6,153.7 481.9,144.5 481.9,125.5 488.4,125.5 			"/>
		</g>
	</g>
	<g>
		<g>
			<polygon class="st1" points="472.6,156.3 472.6,161.3 481.9,152 481.9,147.1 			"/>
		</g>
	</g>
	<g>
		<g>
			<path class="st1" d="M138.6,387.9c-10,0-18.1,8.1-18.1,18.1c0,4.9,1.9,9.5,5.4,12.9c2.3,2.6,3.6,5.9,3.6,9.4v2h18.3v-2
				c0-3.5,1.3-6.8,3.6-9.4c3.5-3.4,5.4-8,5.4-12.9C156.7,396,148.6,387.9,138.6,387.9z M148.5,416.1L148.5,416.1
				c-2.6,2.9-4.2,6.5-4.6,10.2h-10.5c-0.4-3.7-2-7.3-4.5-10.1l-0.1-0.1c-2.7-2.7-4.3-6.3-4.3-10.1c0-7.8,6.3-14.1,14.1-14.1
				c7.8,0,14.1,6.3,14.1,14.1C152.7,409.9,151.2,413.4,148.5,416.1z"/>
		</g>
	</g>
	<g>
		<g>
			<rect x="136.6" y="415.2" class="st1" width="4" height="13.2"/>
		</g>
	</g>
	<g>
		<g>
			<polygon class="st1" points="137.2,411.2 135.1,413.2 133.1,411.2 130.3,414 135.1,418.9 140,414 			"/>
		</g>
	</g>
	<g>
		<g>
			<polygon class="st1" points="144.1,411.2 142.1,413.2 140,411.2 137.2,414 142.1,418.9 146.9,414 			"/>
		</g>
	</g>
	<g>
		<g>
			<rect x="131.7" y="431.8" class="st1" width="13.8" height="4"/>
		</g>
	</g>
	<g>
		<g>
			<path class="st1" d="M139.7,433.8v1.7c0,0.6-0.5,1.1-1.2,1.1c-0.6,0-1.2-0.5-1.2-1.1v-1.7h-4v1.7c0,2.8,2.3,5.1,5.2,5.1
				c2.8,0,5.2-2.3,5.2-5.1v-1.7H139.7z"/>
		</g>
	</g>
	<g>
		<g>
			<rect x="136.6" y="375" class="st1" width="4" height="7.2"/>
		</g>
	</g>
	<g>
		<g>
			
				<rect x="150.4" y="383" transform="matrix(0.7078 -0.7064 0.7064 0.7078 -226.9629 221.3195)" class="st1" width="7.2" height="4"/>
		</g>
	</g>
	<g>
		<g>
			
				<rect x="121.2" y="381.4" transform="matrix(0.7061 -0.7081 0.7081 0.7061 -236.4223 200.3474)" class="st1" width="4" height="7.2"/>
		</g>
	</g>
	<g>
		<g>
			<path class="st1" d="M461.4,387.9c-10,0-18.1,8.1-18.1,18.1c0,4.9,1.9,9.5,5.4,12.9c2.3,2.6,3.6,5.9,3.6,9.4v2h18.3v-2
				c0-3.5,1.3-6.8,3.6-9.4c3.5-3.4,5.4-8,5.4-12.9C479.5,396,471.4,387.9,461.4,387.9z M471.3,416.1L471.3,416.1
				c-2.6,2.9-4.2,6.5-4.6,10.2h-10.5c-0.4-3.7-2-7.3-4.5-10.1l-0.1-0.1c-2.7-2.7-4.3-6.3-4.3-10.1c0-7.8,6.3-14.1,14.1-14.1
				c7.8,0,14.1,6.3,14.1,14.1C475.5,409.9,474,413.4,471.3,416.1z"/>
		</g>
	</g>
	<g>
		<g>
			<rect x="459.4" y="415.2" class="st1" width="4" height="13.2"/>
		</g>
	</g>
	<g>
		<g>
			<polygon class="st1" points="460,411.2 457.9,413.2 455.9,411.2 453.1,414 457.9,418.9 462.8,414 			"/>
		</g>
	</g>
	<g>
		<g>
			<polygon class="st1" points="466.9,411.2 464.9,413.2 462.8,411.2 460,414 464.9,418.9 469.7,414 			"/>
		</g>
	</g>
	<g>
		<g>
			<rect x="454.5" y="431.8" class="st1" width="13.8" height="4"/>
		</g>
	</g>
	<g>
		<g>
			<path class="st1" d="M462.6,433.8v1.7c0,0.6-0.5,1.1-1.2,1.1c-0.6,0-1.2-0.5-1.2-1.1v-1.7h-4v1.7c0,2.8,2.3,5.1,5.2,5.1
				c2.8,0,5.2-2.3,5.2-5.1v-1.7H462.6z"/>
		</g>
	</g>
	<g>
		<g>
			<rect x="459.4" y="375" class="st1" width="4" height="7.2"/>
		</g>
	</g>
	<g>
		<g>
			
				<rect x="473.2" y="383" transform="matrix(0.7079 -0.7063 0.7063 0.7079 -132.645 449.2451)" class="st1" width="7.2" height="4"/>
		</g>
	</g>
	<g>
		<g>
			
				<rect x="444" y="381.4" transform="matrix(0.7061 -0.7081 0.7081 0.7061 -141.5548 428.9328)" class="st1" width="4" height="7.2"/>
		</g>
	</g>
	<g>
		<g>
			<rect x="68.6" y="381.9" class="st1" width="10.6" height="4"/>
		</g>
	</g>
	<g>
		<g>
			
				<rect x="68.8" y="395.6" transform="matrix(1.937863e-03 -1 1 1.937863e-03 -327.1454 467.7517)" class="st1" width="4" height="4.4"/>
		</g>
	</g>
	<g>
		<g>
			<rect x="68.6" y="408.7" class="st1" width="10.5" height="4"/>
		</g>
	</g>
	<g>
		<g>
			
				<rect x="68.8" y="422.4" transform="matrix(1.220702e-03 -1 1 1.220702e-03 -353.8979 494.8168)" class="st1" width="4" height="4.4"/>
		</g>
	</g>
	<g>
		<g>
			<rect x="68.6" y="435.5" class="st1" width="10.5" height="4"/>
		</g>
	</g>
	<g>
		<g>
			
				<rect x="68.6" y="449.4" transform="matrix(1 -1.779381e-03 1.779381e-03 1 -0.803 0.1266)" class="st1" width="4.4" height="4"/>
		</g>
	</g>
	<g>
		<g>
			
				<rect x="71.8" y="459.1" transform="matrix(1.358031e-03 -1 1 1.358031e-03 -390.5955 537.5329)" class="st1" width="4" height="10.5"/>
		</g>
	</g>
	<g>
		<g>
			<rect x="68.6" y="476.2" class="st1" width="4.4" height="4"/>
		</g>
	</g>
	<g>
		<g>
			<rect x="68.6" y="489.1" class="st1" width="10.5" height="4"/>
		</g>
	</g>
	<g>
		<g>
			
				<rect x="68.8" y="502.8" transform="matrix(4.409747e-03 -1 1 4.409747e-03 -434.5175 573.4888)" class="st1" width="4" height="4.4"/>
		</g>
	</g>
	<g>
		<g>
			
				<rect x="68.6" y="515.9" transform="matrix(1 -1.622471e-03 1.622471e-03 1 -0.8402 0.1205)" class="st1" width="10.5" height="4"/>
		</g>
	</g>
	<g>
		<g>
			
				<rect x="68.6" y="529.8" transform="matrix(1 -1.682820e-03 1.682820e-03 1 -0.8948 0.1198)" class="st1" width="4.4" height="4"/>
		</g>
	</g>
	<g>
		<g>
			<rect x="520.9" y="381.9" class="st1" width="10.6" height="4"/>
		</g>
	</g>
	<g>
		<g>
			
				<rect x="527" y="395.8" transform="matrix(1 -1.994677e-03 1.994677e-03 1 -0.7924 1.0565)" class="st1" width="4.4" height="4"/>
		</g>
	</g>
	<g>
		<g>
			<rect x="520.9" y="408.7" class="st1" width="10.5" height="4"/>
		</g>
	</g>
	<g>
		<g>
			<rect x="527" y="422.6" transform="matrix(1 -1.110108e-03 1.110108e-03 1 -0.471 0.5878)" class="st1" width="4.4" height="4"/>
		</g>
	</g>
	<g>
		<g>
			<rect x="520.9" y="435.5" class="st1" width="10.5" height="4"/>
		</g>
	</g>
	<g>
		<g>
			
				<rect x="527.2" y="449.2" transform="matrix(1.708982e-03 -1 1 1.708982e-03 76.9783 979.8438)" class="st1" width="4" height="4.4"/>
		</g>
	</g>
	<g>
		<g>
			
				<rect x="520.9" y="462.3" transform="matrix(1 -1.337238e-03 1.337238e-03 1 -0.6204 0.704)" class="st1" width="10.5" height="4"/>
		</g>
	</g>
	<g>
		<g>
			
				<rect x="527.1" y="476.2" transform="matrix(1 -1.002687e-03 1.002687e-03 1 -0.4792 0.5309)" class="st1" width="4.4" height="4"/>
		</g>
	</g>
	<g>
		<g>
			<rect x="520.9" y="489.1" class="st1" width="10.5" height="4"/>
		</g>
	</g>
	<g>
		<g>
			<rect x="527" y="503" transform="matrix(1 -4.345370e-03 4.345370e-03 1 -2.1893 2.3045)" class="st1" width="4.4" height="4"/>
		</g>
	</g>
	<g>
		<g>
			
				<rect x="524.2" y="512.7" transform="matrix(1.724241e-03 -1 1 1.724241e-03 7.3201 1043.2174)" class="st1" width="4" height="10.5"/>
		</g>
	</g>
	<g>
		<g>
			
				<rect x="527.2" y="529.6" transform="matrix(1.724241e-03 -1 1 1.724241e-03 -3.4425 1060.0974)" class="st1" width="4" height="4.4"/>
		</g>
	</g>
	<g>
		<g>
			<path class="st1" d="M111.5,494.4c-2.1,0-4,0.8-5.4,2.3c-1.5,1.5-2.2,3.4-2.2,5.4c0,2.1,0.8,4,2.3,5.4c1.4,1.4,3.4,2.2,5.4,2.2
				c0,0,0,0,0,0c2,0,4-0.8,5.4-2.2c1.5-1.5,2.3-3.4,2.3-5.4v0C119.1,497.8,115.7,494.4,111.5,494.4z M114.1,504.7
				c-0.7,0.7-1.6,1.1-2.6,1.1h0c-1,0-1.9-0.4-2.6-1.1c-0.7-0.7-1.1-1.6-1.1-2.6c0-1,0.4-1.9,1.1-2.6c0.7-0.7,1.6-1.1,2.6-1.1
				c2,0,3.7,1.7,3.7,3.7C115.2,503.1,114.8,504,114.1,504.7z"/>
		</g>
	</g>
	<g>
		<g>
			<path class="st1" d="M133.2,516.2c-2.1,0-4,0.8-5.5,2.3c-1.4,1.4-2.2,3.4-2.2,5.4c0,2.1,0.8,4,2.2,5.4c1.5,1.5,3.4,2.3,5.4,2.3
				c4.2,0,7.7-3.5,7.7-7.7C140.9,519.6,137.5,516.2,133.2,516.2z M133.2,527.5c-1,0-1.9-0.4-2.6-1.1c-0.7-0.7-1.1-1.6-1.1-2.6
				c0-1,0.4-1.9,1.1-2.6c0.7-0.7,1.6-1.1,2.6-1.1c2,0,3.7,1.6,3.7,3.7C136.9,525.9,135.3,527.5,133.2,527.5z"/>
		</g>
	</g>
	<g>
		<g>
			
				<rect x="102.9" y="511" transform="matrix(0.7071 -0.7071 0.7071 0.7071 -326.8656 236.7394)" class="st1" width="38.8" height="4"/>
		</g>
	</g>
	<g>
		<g>
			<path class="st1" d="M466.8,494.4c-2.1,0-4,0.8-5.4,2.3c-1.5,1.5-2.2,3.4-2.2,5.4c0,2.1,0.8,4,2.3,5.4c1.4,1.4,3.4,2.2,5.4,2.2
				c0,0,0,0,0,0c2,0,4-0.8,5.4-2.2c1.5-1.5,2.3-3.4,2.3-5.4v0C474.4,497.8,471,494.4,466.8,494.4z M469.4,504.7
				c-0.7,0.7-1.6,1.1-2.6,1.1h0c-1,0-1.9-0.4-2.6-1.1c-0.7-0.7-1.1-1.6-1.1-2.6c0-1,0.4-1.9,1.1-2.6c0.7-0.7,1.6-1.1,2.6-1.1
				c2,0,3.7,1.7,3.7,3.7C470.4,503.1,470.1,504,469.4,504.7z"/>
		</g>
	</g>
	<g>
		<g>
			<path class="st1" d="M488.5,516.2c-2.1,0-4,0.8-5.5,2.3c-1.4,1.4-2.2,3.4-2.2,5.4c0,2.1,0.8,4,2.2,5.4c1.5,1.5,3.4,2.3,5.4,2.3
				c4.2,0,7.7-3.5,7.7-7.7C496.2,519.6,492.8,516.2,488.5,516.2z M488.5,527.5c-1,0-1.9-0.4-2.6-1.1c-0.7-0.7-1.1-1.6-1.1-2.6
				c0-1,0.4-1.9,1.1-2.6c0.7-0.7,1.6-1.1,2.6-1.1c2,0,3.7,1.6,3.7,3.7C492.2,525.9,490.6,527.5,488.5,527.5z"/>
		</g>
	</g>
	<g>
		<g>
			
				<rect x="458.2" y="511" transform="matrix(0.7071 -0.7071 0.7071 0.7071 -222.8141 487.9572)" class="st1" width="38.8" height="4"/>
		</g>
	</g>
	<g>
		<g>
			<path class="st1" d="M327.7,464.3c0,15.3-12.4,27.7-27.7,27.7v4c17.5,0,31.7-14.2,31.7-31.7H327.7z"/>
		</g>
	</g>
	<g>
		<g>
			<path class="st1" d="M268.3,464.2v4.8l8.9-8.9l-2.8-2.8l-1.5,1.5c2.5-12.7,13.8-22.4,27.2-22.4v-4
				C282.5,432.5,268.3,446.7,268.3,464.2z"/>
		</g>
	</g>
	<g>
		<g>
			<path class="st1" d="M322.4,441.8c-6-6-14-9.3-22.5-9.3v4c7.4,0,14.4,2.9,19.6,8.1c5.2,5.2,8.1,12.2,8.1,19.6l4,0
				C331.7,455.8,328.4,447.8,322.4,441.8z"/>
		</g>
	</g>
	<g>
		<g>
			<path class="st1" d="M280.8,484.3l-2.8,2.9c5.9,5.7,13.7,8.8,22,8.8v-4C292.8,492,286,489.3,280.8,484.3z"/>
		</g>
	</g>
	<g>
	</g>
	<g>
		<g>
			<rect x="298" y="444.8" class="st1" width="4" height="19.4"/>
		</g>
	</g>
	<g>
	</g>
	<g>
	</g>
	<g>
		<g>
			<path class="st1" d="M300,460.9c-1.9,0-3.4,1.5-3.4,3.3c0,1.8,1.5,3.3,3.4,3.3c1.8,0,3.3-1.5,3.3-3.3
				C303.4,462.4,301.9,460.9,300,460.9z M300,464.9c-0.4,0-0.7-0.3-0.7-0.7c0-0.4,0.3-0.7,0.7-0.7c0.4,0,0.6,0.3,0.6,0.7
				C300.7,464.6,300.4,464.9,300,464.9z"/>
		</g>
	</g>
	<g>
		<g>
			<rect x="289.5" y="462.3" class="st1" width="10.5" height="4"/>
		</g>
	</g>
</g>
</svg>
