<?xml version="1.0" encoding="utf-8"?>
<!-- Generator: Adobe Illustrator 23.0.6, SVG Export Plug-In . SVG Version: 6.00 Build 0)  -->
<svg version="1.1" id="Layer_1" xmlns="http://www.w3.org/2000/svg" xmlns:xlink="http://www.w3.org/1999/xlink" x="0px" y="0px"
	 viewBox="0 0 600 600" style="enable-background:new 0 0 600 600;" xml:space="preserve">
<style type="text/css">
	.st0{fill:#DEF4FC;}
	.st1{fill:#FFFFFF;}
	.st2{fill:#E9F6FF;}
	.st3{fill:#AFD8F9;}
	.st4{fill:#5BA1E1;}
	.st5{fill:#288DE8;}
	.st6{fill:#2481D7;}
	.st7{fill:#C8DFF5;}
	.st8{fill:#6AB0E5;}
</style>
<g>
	<g>
		<g>
			<path class="st0" d="M-4352,604.2L-4352,604.2l0,227.8l227.8,0C-4124.1,706.2-4226.2,604.1-4352,604.2z"/>
		</g>
	</g>
	<g>
		<g>
			<path class="st0" d="M-4352,832l-227.8,0c0,125.9,102,227.9,227.8,227.8L-4352,832z"/>
		</g>
	</g>
	<g>
		<g>
			<rect x="-4484.9" y="990.3" class="st1" width="87.2" height="87.2"/>
		</g>
	</g>
	<g>
		<g>
			<polygon class="st0" points="-4484.9,1077.5 -4397.8,1077.5 -4397.8,990.3 			"/>
		</g>
	</g>
	<g>
		<g>
			<polygon class="st2" points="-4484.9,990.3 -4397.8,1077.5 -4397.8,990.3 			"/>
		</g>
	</g>
	<g>
		<g>
			<polygon class="st3" points="-4441.3,1033.9 -4397.8,1077.5 -4397.8,990.3 			"/>
		</g>
	</g>
	<g>
		<g>
			<rect x="-4455.9" y="990.3" class="st4" width="29.1" height="31"/>
		</g>
	</g>
	<g>
		<g>
			<polygon class="st5" points="-4455.9,990.3 -4426.8,1021.3 -4426.8,990.3 			"/>
		</g>
	</g>
	<g>
		<g>
			<path class="st6" d="M-4426.8,987.3h-29.1c-1.7,0-3,1.3-3,3v31c0,1.7,1.3,3,3,3h29.1c1.7,0,3-1.3,3-3v-31
				C-4423.8,988.7-4425.1,987.3-4426.8,987.3z M-4429.8,1018.3h-23.1v-25h23.1V1018.3z"/>
		</g>
	</g>
	<g>
		<g>
			<path class="st6" d="M-4397.8,986.3h-87.2c-2.2,0-4,1.8-4,4v87.2c0,2.2,1.8,4,4,4h87.2c2.2,0,4-1.8,4-4v-87.2
				C-4393.8,988.1-4395.5,986.3-4397.8,986.3z M-4401.8,1073.5h-79.2v-79.2h79.2V1073.5z"/>
		</g>
	</g>
	<g>
		<g>
			<rect x="-4306.2" y="990.3" class="st1" width="87.2" height="87.2"/>
		</g>
	</g>
	<g>
		<g>
			<polygon class="st0" points="-4306.2,1077.5 -4219.1,1077.5 -4219.1,990.3 			"/>
		</g>
	</g>
	<g>
		<g>
			<polygon class="st2" points="-4306.2,990.3 -4219.1,1077.5 -4219.1,990.3 			"/>
		</g>
	</g>
	<g>
		<g>
			<polygon class="st3" points="-4262.7,1033.9 -4219.1,1077.5 -4219.1,990.3 			"/>
		</g>
	</g>
	<g>
		<g>
			<rect x="-4277.2" y="990.3" class="st4" width="29.1" height="31"/>
		</g>
	</g>
	<g>
		<g>
			<polygon class="st5" points="-4277.2,990.3 -4248.1,1021.3 -4248.1,990.3 			"/>
		</g>
	</g>
	<g>
		<g>
			<path class="st6" d="M-4248.1,987.3h-29.1c-1.7,0-3,1.3-3,3v31c0,1.7,1.3,3,3,3h29.1c1.7,0,3-1.3,3-3v-31
				C-4245.1,988.7-4246.5,987.3-4248.1,987.3z M-4251.1,1018.3h-23.1v-25h23.1V1018.3z"/>
		</g>
	</g>
	<g>
		<g>
			<path class="st6" d="M-4219.1,986.3h-87.2c-2.2,0-4,1.8-4,4v87.2c0,2.2,1.8,4,4,4h87.2c2.2,0,4-1.8,4-4v-87.2
				C-4215.1,988.1-4216.9,986.3-4219.1,986.3z M-4223.1,1073.5h-79.2v-79.2h79.2V1073.5z"/>
		</g>
	</g>
	<g>
		<g>
			<path class="st5" d="M-4446.5,845.5c8.4,17.6,21.6,32.5,37.9,43c18.8,12.2,33.3,30.3,41.2,51.6h0.1c0,2.1,6.9,3.8,15.4,3.8
				c8.5,0,15.4-1.7,15.4-3.8h0.1c7.9-21.3,22.4-39.4,41.2-51.7c16.3-10.5,29.4-25.4,37.8-43H-4446.5z"/>
		</g>
	</g>
	<g>
		<g>
			<path class="st6" d="M-4277.1,747.2c-20.1-4.9-46.7-7.6-74.9-7.6c-28.3,0-54.9,2.7-74.9,7.6c-22.4,5.5-33.7,12.8-33.7,21.9
				c0,9.1,11.3,16.5,33.7,21.9c20.1,4.9,46.7,7.6,74.9,7.6c28.3,0,54.9-2.7,74.9-7.6c22.4-5.5,33.7-12.8,33.7-21.9
				C-4243.4,760-4254.7,752.6-4277.1,747.2z M-4279,783.2c-19.5,4.7-45.4,7.4-73,7.4c-27.6,0-53.6-2.6-73-7.4
				c-21.8-5.3-27.6-11.4-27.6-14.1c0-2.8,5.8-8.8,27.6-14.1c19.5-4.7,45.4-7.4,73-7.4c27.6,0,53.6,2.6,73,7.4
				c21.8,5.3,27.6,11.4,27.6,14.1C-4251.4,771.8-4257.2,777.9-4279,783.2z"/>
		</g>
	</g>
	<g>
		<g>
			<path class="st4" d="M-4352,833.2c-49.6,0-89.7,9.8-89.7,21.9c0,12.1,40.2,21.9,89.7,21.9c49.6,0,89.7-9.8,89.7-21.9
				C-4262.3,843-4302.4,833.2-4352,833.2z"/>
		</g>
	</g>
	<g>
		<g>
			<path class="st3" d="M-4352,823.6c-49.6,0-89.7,9.8-89.7,21.9c0,12.1,40.2,21.9,89.7,21.9c49.6,0,89.7-9.8,89.7-21.9
				C-4262.3,833.4-4302.4,823.6-4352,823.6z"/>
		</g>
	</g>
	<g>
		<g>
			<path class="st7" d="M-4441.7,845.5c0,12.1,40.2,21.9,89.7,21.9c49.6,0,89.7-9.8,89.7-21.9H-4441.7z"/>
		</g>
	</g>
	<g>
		<g>
			<path class="st6" d="M-4277.1,747.2c-20.1-4.9-46.7-7.6-74.9-7.6c-28.3,0-54.9,2.7-74.9,7.6c-22.4,5.4-33.7,12.8-33.7,21.9v31.5
				c0,37,18.6,71.1,49.8,91.2c18.1,11.7,32.1,29.4,39.6,49.7c0,0.1,0,0.1,0.1,0.2c1.7,5.4,12.5,6.2,19.2,6.2s17.5-0.8,19.2-6.2
				c0,0,0-0.1,0.1-0.1c7.5-20.3,21.6-38,39.6-49.7c31.2-20.1,49.8-54.2,49.8-91.2v-31.5C-4243.4,760-4254.7,752.6-4277.1,747.2z
				 M-4251.4,800.6c0,34.2-17.2,65.8-46.1,84.5c-19.3,12.5-34.3,31.3-42.5,52.9c0,0.1-0.1,0.2-0.1,0.3c-1.4,0.6-5.4,1.6-11.9,1.6
				c-6.5,0-10.5-1-11.9-1.6c0-0.1-0.1-0.1-0.1-0.2c-8.1-21.6-23.2-40.4-42.5-53c-28.9-18.7-46.1-50.3-46.1-84.5v-31.5
				c0-2.8,5.8-8.8,27.6-14.1c19.5-4.7,45.4-7.4,73-7.4c27.6,0,53.6,2.6,73,7.4c21.8,5.3,27.6,11.4,27.6,14.1V800.6z"/>
		</g>
	</g>
	<g>
		<g>
			<path class="st6" d="M-4352,821.6c-44.5,0-91.7,8.4-91.7,23.9c0,15.5,47.3,23.9,91.7,23.9c44.5,0,91.7-8.4,91.7-23.9
				C-4260.3,830-4307.5,821.6-4352,821.6z M-4352,865.3c-51.7,0-87.7-10.5-87.7-19.9c0-9.4,36-19.9,87.7-19.9
				c51.7,0,87.7,10.5,87.7,19.9C-4264.3,854.9-4300.3,865.3-4352,865.3z"/>
		</g>
	</g>
	<g>
		<g>
			<path class="st1" d="M-4352,597.8c-23.2,0-42,18.8-42,42c0,11.8,4.8,22.4,12.6,30c6.7,7.5,10.8,17.3,10.8,28.1h37.2
				c0-10.8,4.1-20.6,10.8-28.1c7.8-7.6,12.6-18.2,12.6-30C-4310,616.6-4328.8,597.8-4352,597.8z"/>
		</g>
	</g>
	<g>
		<g>
			<path class="st2" d="M-4352,597.8c-13.8,0-25.1,18.8-25.1,42c0,11.8,2.9,22.4,7.6,30c4,7.5,6.4,17.3,6.4,28.1h22.2
				c0-10.8,2.4-20.6,6.4-28.1c4.6-7.6,7.5-18.2,7.5-30C-4326.9,616.6-4338.1,597.8-4352,597.8z"/>
		</g>
	</g>
	<g>
		<g>
			<path class="st3" d="M-4370.6,697.9c0-0.2,0-0.4,0-0.6v14.6c0,9.4,7.6,17,17,17h3.1c9.4,0,17-7.6,17-17v-14H-4370.6z"/>
		</g>
	</g>
	<g>
		<g>
			<path class="st8" d="M-4363,697.9c0-0.2,0-0.4,0-0.6v14.6c0,9.4,4.5,17,10.1,17h1.8c5.6,0,10.1-7.6,10.1-17v-14H-4363z"/>
		</g>
	</g>
	<g>
		<g>
			<path class="st6" d="M-4352,594.8c-24.8,0-45,20.2-45,45c0,12.2,4.8,23.5,13.5,32.1c6.4,7.2,10,16.4,10,26c0,1.7,1.3,3,3,3h37.2
				c1.7,0,3-1.3,3-3c0-9.6,3.5-18.8,10-26c8.7-8.5,13.4-19.9,13.4-32.1C-4307,615-4327.2,594.8-4352,594.8z M-4324.7,667.7
				c0,0-0.1,0.1-0.1,0.1c-6.8,7.5-10.8,17.1-11.5,27.1h-31.4c-0.7-10-4.7-19.5-11.5-27.1c0,0-0.1-0.1-0.1-0.1
				c-7.6-7.4-11.7-17.3-11.7-27.9c0-21.5,17.5-39,39-39c21.5,0,39,17.5,39,39C-4313,650.4-4317.2,660.3-4324.7,667.7z"/>
		</g>
	</g>
	<g>
		<g>
			<path class="st6" d="M-4333.4,694.9h-35.4c-0.5-0.4-1.1-0.6-1.8-0.6c-1.7,0-3,1.3-3,3v14.6c0,11.1,9,20,20,20h3.1
				c11.1,0,20-9,20-20v-14C-4330.4,696.3-4331.7,694.9-4333.4,694.9z M-4336.4,711.9c0,7.7-6.3,14-14,14h-3.1c-7.7,0-14-6.3-14-14
				v-11h31.2V711.9z"/>
		</g>
	</g>
	<g>
		<g>
			<path class="st6" d="M-4352,650.9c-1.1,0-2,0.9-2,2v38.8c0,1.1,0.9,2,2,2s2-0.9,2-2v-38.8C-4350,651.8-4350.9,650.9-4352,650.9z"
				/>
		</g>
	</g>
	<g>
		<g>
			<path class="st6" d="M-4350.6,650.5c-0.8-0.8-2-0.8-2.8,0l-7.3,7.3l-7.3-7.3c-0.8-0.8-2-0.8-2.8,0c-0.8,0.8-0.8,2,0,2.8l8.7,8.8
				c0.4,0.4,0.9,0.6,1.4,0.6s1-0.2,1.4-0.6l8.7-8.8C-4349.8,652.6-4349.8,651.3-4350.6,650.5z"/>
		</g>
	</g>
	<g>
		<g>
			<path class="st6" d="M-4333.1,650.5c-0.8-0.8-2-0.8-2.8,0l-7.3,7.3l-7.3-7.3c-0.8-0.8-2-0.8-2.8,0c-0.8,0.8-0.8,2,0,2.8l8.8,8.8
				c0.4,0.4,0.9,0.6,1.4,0.6h0c0.5,0,1-0.2,1.4-0.6l8.7-8.8C-4332.3,652.6-4332.3,651.3-4333.1,650.5z"/>
		</g>
	</g>
	<g>
		<g>
			<path class="st6" d="M-4335,705.6h-33.9c-1.1,0-2,0.9-2,2s0.9,2,2,2h33.9c1.1,0,2-0.9,2-2S-4333.9,705.6-4335,705.6z"/>
		</g>
	</g>
	<g>
		<g>
			<path class="st6" d="M-4335,714.2h-33.9c-1.1,0-2,0.9-2,2s0.9,2,2,2h33.9c1.1,0,2-0.9,2-2S-4333.9,714.2-4335,714.2z"/>
		</g>
	</g>
	<g>
		<g>
			<polygon class="st7" points="-4595.4,1075.4 -4595.4,976.5 -4599.4,976.5 -4599.4,1079.4 -4496.5,1079.4 -4496.5,1075.4 			"/>
		</g>
	</g>
	<g>
		<g>
			<path class="st7" d="M-4597.5,969.8c-2.4,0-4.4,2-4.4,4.4c0,2.4,2,4.4,4.4,4.4c2.4,0,4.4-2,4.4-4.4
				C-4593.1,971.7-4595.1,969.8-4597.5,969.8z M-4597.5,974.5c-0.2,0-0.4-0.2-0.4-0.4c0-0.2,0.2-0.4,0.4-0.4c0.2,0,0.4,0.2,0.4,0.4
				C-4597.1,974.4-4597.3,974.5-4597.5,974.5z"/>
		</g>
	</g>
	<g>
		<g>
			<path class="st7" d="M-4494.1,1073.1c-2.4,0-4.4,2-4.4,4.4c0,2.4,2,4.4,4.4,4.4c2.4,0,4.4-2,4.4-4.4
				C-4489.8,1075.1-4491.7,1073.1-4494.1,1073.1z M-4494.1,1077.9c-0.2,0-0.4-0.2-0.4-0.4c0-0.2,0.2-0.4,0.4-0.4
				c0.2,0,0.4,0.2,0.4,0.4C-4493.8,1077.7-4493.9,1077.9-4494.1,1077.9z"/>
		</g>
	</g>
	<g>
		<g>
			<path class="st7" d="M-4597.4,1021.4v4c28.7,0,52.1,23.4,52.1,52.1h4C-4541.3,1046.5-4566.5,1021.4-4597.4,1021.4z"/>
		</g>
	</g>
	<g>
		<g>
			<path class="st7" d="M-4575.4,1052.6l2.8,2.8l2.8-2.8l-2.8-2.8L-4575.4,1052.6z M-4569.8,1047l2.8,2.8l2.8-2.8l-2.8-2.8
				L-4569.8,1047z M-4558.4,1035.7l2.8,2.8l2.8-2.8l-2.8-2.8L-4558.4,1035.7z M-4564.1,1041.3l2.8,2.8l2.8-2.8l-2.8-2.8
				L-4564.1,1041.3z M-4592.4,1069.6l2.8,2.8l2.8-2.8l-2.8-2.8L-4592.4,1069.6z M-4581.1,1058.3l2.8,2.8l2.8-2.8l-2.8-2.8
				L-4581.1,1058.3z M-4597.6,1074.9l2.8,2.8l2.4-2.4l-2.8-2.8L-4597.6,1074.9z M-4552.8,1030l2.8,2.8l2.8-2.8l-2.8-2.8
				L-4552.8,1030z M-4586.7,1063.9l2.8,2.8l2.8-2.8l-2.8-2.8L-4586.7,1063.9z M-4513.2,990.4l2.8,2.8l2.8-2.8l-2.8-2.8
				L-4513.2,990.4z M-4507.5,984.7l2.8,2.8l2.8-2.8l-2.8-2.8L-4507.5,984.7z M-4499,976.3l-2.8,2.8l2.8,2.8l2.8-2.8L-4499,976.3z
				 M-4518.8,996.1l2.8,2.8l2.8-2.8l-2.8-2.8L-4518.8,996.1z M-4547.1,1024.3l2.8,2.8l2.8-2.8l-2.8-2.8L-4547.1,1024.3z
				 M-4524.5,1001.7l2.8,2.8l2.8-2.8l-2.8-2.8L-4524.5,1001.7z M-4535.8,1013l2.8,2.8l2.8-2.8l-2.8-2.8L-4535.8,1013z
				 M-4541.5,1018.7l2.8,2.8l2.8-2.8l-2.8-2.8L-4541.5,1018.7z M-4530.2,1007.4l2.8,2.8l2.8-2.8l-2.8-2.8L-4530.2,1007.4z"/>
		</g>
	</g>
	<g>
		<g>
			<polygon class="st7" points="-4207.5,584.6 -4207.5,588.6 -4108.6,588.6 -4108.6,687.5 -4104.6,687.5 -4104.6,584.6 			"/>
		</g>
	</g>
	<g>
		<g>
			<path class="st7" d="M-4106.5,685.5c-2.4,0-4.4,2-4.4,4.4c0,2.4,2,4.4,4.4,4.4c2.4,0,4.4-2,4.4-4.4
				C-4102.1,687.4-4104.1,685.5-4106.5,685.5z M-4106.5,690.2c-0.2,0-0.4-0.2-0.4-0.4c0-0.2,0.2-0.4,0.4-0.4c0.2,0,0.4,0.2,0.4,0.4
				C-4106.1,690.1-4106.3,690.2-4106.5,690.2z"/>
		</g>
	</g>
	<g>
		<g>
			<path class="st7" d="M-4209.9,582.1c-2.4,0-4.4,2-4.4,4.4c0,2.4,2,4.4,4.4,4.4c2.4,0,4.4-2,4.4-4.4
				C-4205.5,584.1-4207.4,582.1-4209.9,582.1z M-4209.9,586.9c-0.2,0-0.4-0.2-0.4-0.4c0-0.2,0.2-0.4,0.4-0.4c0.2,0,0.4,0.2,0.4,0.4
				S-4209.6,586.9-4209.9,586.9z"/>
		</g>
	</g>
	<g>
		<g>
			<path class="st7" d="M-4158.7,586.6h-4c0,30.9,25.2,56.1,56.1,56.1v-4C-4135.3,638.6-4158.7,615.3-4158.7,586.6z"/>
		</g>
	</g>
	<g>
		<g>
			<path class="st7" d="M-4185.2,662.3l2.8,2.8l2.8-2.8l-2.8-2.8L-4185.2,662.3z M-4179.5,656.6l2.8,2.8l2.8-2.8l-2.8-2.8
				L-4179.5,656.6z M-4162.5,639.7l2.8,2.8l2.8-2.8l-2.8-2.8L-4162.5,639.7z M-4173.8,651l2.8,2.8l2.8-2.8l-2.8-2.8L-4173.8,651z
				 M-4196.5,673.6l2.8,2.8l2.8-2.8l-2.8-2.8L-4196.5,673.6z M-4207.8,684.9l2.8,2.8l2.8-2.8l-2.8-2.8L-4207.8,684.9z
				 M-4202.1,679.3l2.8,2.8l2.8-2.8l-2.8-2.8L-4202.1,679.3z M-4190.8,667.9l2.8,2.8l2.8-2.8l-2.8-2.8L-4190.8,667.9z
				 M-4168.2,645.3l2.8,2.8l2.8-2.8l-2.8-2.8L-4168.2,645.3z M-4117.3,594.4l2.8,2.8l2.8-2.8l-2.8-2.8L-4117.3,594.4z
				 M-4128.6,605.7l2.8,2.8l2.8-2.8l-2.8-2.8L-4128.6,605.7z M-4122.9,600.1l2.8,2.8l2.8-2.8l-2.8-2.8L-4122.9,600.1z
				 M-4109.2,586.3l-2.4,2.4l2.8,2.8l2.4-2.4L-4109.2,586.3z M-4151.2,628.3l2.8,2.8l2.8-2.8l-2.8-2.8L-4151.2,628.3z
				 M-4145.6,622.7l2.8,2.8l2.8-2.8l-2.8-2.8L-4145.6,622.7z M-4134.3,611.4l2.8,2.8l2.8-2.8l-2.8-2.8L-4134.3,611.4z M-4156.9,634
				l2.8,2.8l2.8-2.8l-2.8-2.8L-4156.9,634z M-4139.9,617l2.8,2.8l2.8-2.8l-2.8-2.8L-4139.9,617z"/>
		</g>
	</g>
	<g>
		<g>
			<polygon class="st7" points="-4108.6,976.5 -4108.6,1075.4 -4207.5,1075.4 -4207.5,1079.4 -4104.6,1079.4 -4104.6,976.5 			"/>
		</g>
	</g>
	<g>
		<g>
			<path class="st7" d="M-4209.9,1073.1c-2.4,0-4.4,2-4.4,4.4c0,2.4,2,4.4,4.4,4.4c2.4,0,4.4-2,4.4-4.4
				C-4205.5,1075.1-4207.4,1073.1-4209.9,1073.1z M-4209.9,1077.9c-0.2,0-0.4-0.2-0.4-0.4c0-0.2,0.2-0.4,0.4-0.4
				c0.2,0,0.4,0.2,0.4,0.4C-4209.5,1077.7-4209.6,1077.9-4209.9,1077.9z"/>
		</g>
	</g>
	<g>
		<g>
			<path class="st7" d="M-4106.5,969.8c-2.4,0-4.4,2-4.4,4.4c0,2.4,2,4.4,4.4,4.4c2.4,0,4.4-2,4.4-4.4
				C-4102.1,971.7-4104.1,969.8-4106.5,969.8z M-4106.5,974.5c-0.2,0-0.4-0.2-0.4-0.4c0-0.2,0.2-0.4,0.4-0.4c0.2,0,0.4,0.2,0.4,0.4
				C-4106.1,974.4-4106.3,974.5-4106.5,974.5z"/>
		</g>
	</g>
	<g>
		<g>
			<path class="st7" d="M-4162.6,1077.4h4c0-28.7,23.4-52.1,52.1-52.1v-4C-4137.5,1021.3-4162.6,1046.5-4162.6,1077.4z"/>
		</g>
	</g>
	<g>
		<g>
			<path class="st7" d="M-4173.8,1013l2.8,2.8l2.8-2.8l-2.8-2.8L-4173.8,1013z M-4176.6,1004.5l-2.8,2.8l2.8,2.8l2.8-2.8
				L-4176.6,1004.5z M-4159.7,1021.5l-2.8,2.8l2.8,2.8l2.8-2.8L-4159.7,1021.5z M-4165.3,1015.8l-2.8,2.8l2.8,2.8l2.8-2.8
				L-4165.3,1015.8z M-4182.3,998.8l-2.8,2.8l2.8,2.8l2.8-2.8L-4182.3,998.8z M-4199.3,981.9l-2.8,2.8l2.8,2.8l2.8-2.8
				L-4199.3,981.9z M-4187.9,993.2l-2.8,2.8l2.8,2.8l2.8-2.8L-4187.9,993.2z M-4204.9,976.2l-2.8,2.8l2.8,2.8l2.8-2.8L-4204.9,976.2
				z M-4193.6,987.5l-2.8,2.8l2.8,2.8l2.8-2.8L-4193.6,987.5z M-4108.7,1072.4l-2.8,2.8l2.4,2.4l2.8-2.8L-4108.7,1072.4z
				 M-4131.4,1049.8l-2.8,2.8l2.8,2.8l2.8-2.8L-4131.4,1049.8z M-4125.7,1055.4l-2.8,2.8l2.8,2.8l2.8-2.8L-4125.7,1055.4z
				 M-4122.9,1063.9l2.8,2.8l2.8-2.8l-2.8-2.8L-4122.9,1063.9z M-4114.4,1066.7l-2.8,2.8l2.8,2.8l2.8-2.8L-4114.4,1066.7z
				 M-4148.3,1032.8l-2.8,2.8l2.8,2.8l2.8-2.8L-4148.3,1032.8z M-4154,1027.1l-2.8,2.8l2.8,2.8l2.8-2.8L-4154,1027.1z
				 M-4139.9,1046.9l2.8,2.8l2.8-2.8l-2.8-2.8L-4139.9,1046.9z M-4142.7,1038.4l-2.8,2.8l2.8,2.8l2.8-2.8L-4142.7,1038.4z"/>
		</g>
	</g>
	<g>
		<g>
			<polygon class="st7" points="-4599.4,584.6 -4599.4,687.5 -4595.4,687.5 -4595.4,588.6 -4496.5,588.6 -4496.5,584.6 			"/>
		</g>
	</g>
	<g>
		<g>
			<path class="st7" d="M-4494.1,582.1c-2.4,0-4.4,2-4.4,4.4c0,2.4,2,4.4,4.4,4.4c2.4,0,4.4-2,4.4-4.4
				C-4489.8,584.1-4491.7,582.1-4494.1,582.1z M-4494.1,586.9c-0.2,0-0.4-0.2-0.4-0.4c0-0.2,0.2-0.4,0.4-0.4c0.2,0,0.4,0.2,0.4,0.4
				C-4493.8,586.7-4493.9,586.9-4494.1,586.9z"/>
		</g>
	</g>
	<g>
		<g>
			<path class="st7" d="M-4597.5,685.5c-2.4,0-4.4,2-4.4,4.4c0,2.4,2,4.4,4.4,4.4c2.4,0,4.4-2,4.4-4.4
				C-4593.1,687.4-4595.1,685.5-4597.5,685.5z M-4597.5,690.2c-0.2,0-0.4-0.2-0.4-0.4c0-0.2,0.2-0.4,0.4-0.4s0.4,0.2,0.4,0.4
				C-4597.1,690.1-4597.3,690.2-4597.5,690.2z"/>
		</g>
	</g>
	<g>
		<g>
			<path class="st7" d="M-4545.4,586.6c0,28.7-23.4,52.1-52.1,52.1v4c30.9,0,56.1-25.2,56.1-56.1H-4545.4z"/>
		</g>
	</g>
	<g>
		<g>
			<path class="st7" d="M-4594.9,586.4l-2.8,2.8l2.4,2.4l2.8-2.8L-4594.9,586.4z M-4575.5,611.4l2.8,2.8l2.8-2.8l-2.8-2.8
				L-4575.5,611.4z M-4567,614.3l-2.8,2.8l2.8,2.8l2.8-2.8L-4567,614.3z M-4555.7,625.6l-2.8,2.8l2.8,2.8l2.8-2.8L-4555.7,625.6z
				 M-4561.3,619.9l-2.8,2.8l2.8,2.8l2.8-2.8L-4561.3,619.9z M-4592.4,594.5l2.8,2.8l2.8-2.8l-2.8-2.8L-4592.4,594.5z
				 M-4583.9,597.3l-2.8,2.8l2.8,2.8l2.8-2.8L-4583.9,597.3z M-4550,631.2l-2.8,2.8l2.8,2.8l2.8-2.8L-4550,631.2z M-4578.3,602.9
				l-2.8,2.8l2.8,2.8l2.8-2.8L-4578.3,602.9z M-4510.4,670.8l-2.8,2.8l2.8,2.8l2.8-2.8L-4510.4,670.8z M-4504.7,676.5l-2.8,2.8
				l2.8,2.8l2.8-2.8L-4504.7,676.5z M-4499.1,682.1l-2.8,2.8l2.8,2.8l2.8-2.8L-4499.1,682.1z M-4544.3,636.9l-2.8,2.8l2.8,2.8
				l2.8-2.8L-4544.3,636.9z M-4516.1,665.2l-2.8,2.8l2.8,2.8l2.8-2.8L-4516.1,665.2z M-4533,648.2l-2.8,2.8l2.8,2.8l2.8-2.8
				L-4533,648.2z M-4541.5,645.4l2.8,2.8l2.8-2.8l-2.8-2.8L-4541.5,645.4z M-4521.7,659.5l-2.8,2.8l2.8,2.8l2.8-2.8L-4521.7,659.5z
				 M-4527.4,653.8l-2.8,2.8l2.8,2.8l2.8-2.8L-4527.4,653.8z"/>
		</g>
	</g>
	<g>
		<g>
			
				<rect x="-4565.4" y="750.5" transform="matrix(0.7071 -0.7071 0.7071 0.7071 -1876.329 -3003.3035)" class="st7" width="4" height="25.5"/>
		</g>
	</g>
	<g>
		<g>
			
				<rect x="-4565.4" y="764.3" transform="matrix(0.7071 -0.7071 0.7071 0.7071 -1886.0127 -2999.2473)" class="st7" width="4" height="25.5"/>
		</g>
	</g>
	<g>
		<g>
			
				<rect x="-4565.4" y="778" transform="matrix(0.7071 -0.7071 0.7071 0.7071 -1895.7361 -2995.2197)" class="st7" width="4" height="25.5"/>
		</g>
	</g>
	<g>
		<g>
			
				<rect x="-4565.4" y="791.8" transform="matrix(0.7071 -0.7071 0.7071 0.7071 -1905.4604 -2991.1924)" class="st7" width="4" height="25.5"/>
		</g>
	</g>
	<g>
		<g>
			
				<rect x="-4565.4" y="805.5" transform="matrix(0.7071 -0.7071 0.7071 0.7071 -1915.1428 -2987.1355)" class="st7" width="4" height="25.5"/>
		</g>
	</g>
	<g>
		<g>
			
				<rect x="-4565.4" y="819.3" transform="matrix(0.7071 -0.7071 0.7071 0.7071 -1924.8658 -2983.1082)" class="st7" width="4" height="25.5"/>
		</g>
	</g>
	<g>
		<g>
			
				<rect x="-4565.4" y="833" transform="matrix(0.7071 -0.7071 0.7071 0.7071 -1934.6716 -2979.1375)" class="st7" width="4" height="25.5"/>
		</g>
	</g>
	<g>
		<g>
			
				<rect x="-4565.4" y="846.8" transform="matrix(0.7071 -0.7071 0.7071 0.7071 -1944.3555 -2975.0815)" class="st7" width="4" height="25.5"/>
		</g>
	</g>
	<g>
		<g>
			
				<rect x="-4565.4" y="860.5" transform="matrix(0.7071 -0.7071 0.7071 0.7071 -1954.1211 -2971.0811)" class="st7" width="4" height="25.5"/>
		</g>
	</g>
	<g>
		<g>
			
				<rect x="-4565.4" y="874.3" transform="matrix(0.7071 -0.7071 0.7071 0.7071 -1963.7615 -2966.9973)" class="st7" width="4" height="25.5"/>
		</g>
	</g>
	<g>
		<g>
			
				<rect x="-4565.4" y="888" transform="matrix(0.7071 -0.7071 0.7071 0.7071 -1973.5269 -2962.9976)" class="st7" width="4" height="25.5"/>
		</g>
	</g>
	<g>
		<g>
			<polygon class="st7" points="-4552.4,752.2 -4560,752.2 -4560,756.2 -4556.4,756.2 -4556.4,759.8 -4552.4,759.8 			"/>
		</g>
	</g>
	<g>
		<g>
			<polygon class="st7" points="-4570.4,907.8 -4570.4,904.2 -4574.4,904.2 -4574.4,911.8 -4566.8,911.8 -4566.8,907.8 			"/>
		</g>
	</g>
	<g>
		<g>
			
				<rect x="-4142.6" y="750.5" transform="matrix(0.7071 -0.7071 0.7071 0.7071 -1752.4796 -2704.3093)" class="st7" width="4" height="25.5"/>
		</g>
	</g>
	<g>
		<g>
			
				<rect x="-4142.6" y="764.3" transform="matrix(0.7071 -0.7071 0.7071 0.7071 -1762.1666 -2700.2563)" class="st7" width="4" height="25.5"/>
		</g>
	</g>
	<g>
		<g>
			
				<rect x="-4142.6" y="778" transform="matrix(0.7071 -0.7071 0.7071 0.7071 -1771.89 -2696.2288)" class="st7" width="4" height="25.5"/>
		</g>
	</g>
	<g>
		<g>
			
				<rect x="-4142.6" y="791.8" transform="matrix(0.7071 -0.7071 0.7071 0.7071 -1781.6141 -2692.2009)" class="st7" width="4" height="25.5"/>
		</g>
	</g>
	<g>
		<g>
			
				<rect x="-4142.6" y="805.5" transform="matrix(0.7071 -0.7071 0.7071 0.7071 -1791.3 -2688.1479)" class="st7" width="4" height="25.5"/>
		</g>
	</g>
	<g>
		<g>
			
				<rect x="-4142.6" y="819.3" transform="matrix(0.7071 -0.7071 0.7071 0.7071 -1801.0229 -2684.1206)" class="st7" width="4" height="25.5"/>
		</g>
	</g>
	<g>
		<g>
			
				<rect x="-4142.6" y="833" transform="matrix(0.7071 -0.7071 0.7071 0.7071 -1810.8224 -2680.1433)" class="st7" width="4" height="25.5"/>
		</g>
	</g>
	<g>
		<g>
			
				<rect x="-4142.6" y="846.8" transform="matrix(0.7071 -0.7071 0.7071 0.7071 -1820.5092 -2676.0901)" class="st7" width="4" height="25.5"/>
		</g>
	</g>
	<g>
		<g>
			
				<rect x="-4142.6" y="860.5" transform="matrix(0.7071 -0.7071 0.7071 0.7071 -1830.2719 -2672.0869)" class="st7" width="4" height="25.5"/>
		</g>
	</g>
	<g>
		<g>
			
				<rect x="-4142.6" y="874.3" transform="matrix(0.7071 -0.7071 0.7071 0.7071 -1839.9186 -2668.0098)" class="st7" width="4" height="25.5"/>
		</g>
	</g>
	<g>
		<g>
			
				<rect x="-4142.6" y="888" transform="matrix(0.7071 -0.7071 0.7071 0.7071 -1849.6808 -2664.0068)" class="st7" width="4" height="25.5"/>
		</g>
	</g>
	<g>
		<g>
			<polygon class="st7" points="-4137.2,752.2 -4137.2,756.2 -4133.6,756.2 -4133.6,759.8 -4129.6,759.8 -4129.6,752.2 			"/>
		</g>
	</g>
	<g>
		<g>
			<polygon class="st7" points="-4147.6,907.8 -4147.6,904.2 -4151.6,904.2 -4151.6,911.8 -4144,911.8 -4144,907.8 			"/>
		</g>
	</g>
	<g>
		<g>
			<rect x="-4409.9" y="961.8" class="st1" width="115.7" height="115.7"/>
		</g>
	</g>
	<g>
		<g>
			<polygon class="st0" points="-4409.9,1077.5 -4294.1,1077.5 -4294.1,961.8 			"/>
		</g>
	</g>
	<g>
		<g>
			<polygon class="st2" points="-4409.9,961.8 -4294.1,1077.5 -4294.1,961.8 			"/>
		</g>
	</g>
	<g>
		<g>
			<polygon class="st3" points="-4352,1019.6 -4294.1,1077.5 -4294.1,961.8 			"/>
		</g>
	</g>
	<g>
		<g>
			<rect x="-4371.3" y="961.8" class="st4" width="38.6" height="41.2"/>
		</g>
	</g>
	<g>
		<g>
			<polygon class="st5" points="-4371.3,961.8 -4332.7,1003 -4332.7,961.8 			"/>
		</g>
	</g>
	<g>
		<g>
			<path class="st6" d="M-4332.7,958.8h-38.6c-1.7,0-3,1.3-3,3v41.2c0,1.7,1.3,3,3,3h38.6c1.7,0,3-1.3,3-3v-41.2
				C-4329.7,960.1-4331,958.8-4332.7,958.8z M-4335.7,1000h-32.6v-35.2h32.6V1000z"/>
		</g>
	</g>
	<g>
		<g>
			<path class="st6" d="M-4294.1,957.8h-115.7c-2.2,0-4,1.8-4,4v115.7c0,2.2,1.8,4,4,4h115.7c2.2,0,4-1.8,4-4V961.8
				C-4290.1,959.6-4291.9,957.8-4294.1,957.8z M-4298.1,1073.5h-107.7V965.8h107.7V1073.5z"/>
		</g>
	</g>
	<g>
		<g>
			<polygon class="st7" points="-4492.3,888.8 -4498.2,894.7 -4498.2,900.1 -4488.2,890.1 -4488.2,888.8 			"/>
		</g>
	</g>
	<g>
		<g>
			<polygon class="st7" points="-4498.2,888.8 -4498.2,891.9 -4495.1,888.8 			"/>
		</g>
	</g>
	<g>
		<g>
			<polygon class="st7" points="-4498.2,902.9 -4498.2,908.3 -4488.2,898.3 -4488.2,892.9 			"/>
		</g>
	</g>
	<g>
		<g>
			<polygon class="st7" points="-4488.2,939.9 -4488.2,909.3 -4498.2,919.3 -4498.2,939.9 -4505.2,939.9 -4493.2,952 -4481.1,939.9 
							"/>
		</g>
	</g>
	<g>
		<g>
			<polygon class="st7" points="-4498.2,911.1 -4498.2,916.5 -4488.2,906.5 -4488.2,901.1 			"/>
		</g>
	</g>
	<g>
		<g>
			<polygon class="st7" points="-4513.1,868.5 -4519,874.4 -4519,879.8 -4509,869.8 -4509,868.5 			"/>
		</g>
	</g>
	<g>
		<g>
			<polygon class="st7" points="-4519,868.5 -4519,871.6 -4515.9,868.5 			"/>
		</g>
	</g>
	<g>
		<g>
			<polygon class="st7" points="-4519,882.6 -4519,888 -4509,877.9 -4509,872.6 			"/>
		</g>
	</g>
	<g>
		<g>
			<polygon class="st7" points="-4509,919.6 -4509,889 -4519,899 -4519,919.6 -4526.1,919.6 -4514,931.7 -4501.9,919.6 			"/>
		</g>
	</g>
	<g>
		<g>
			<polygon class="st7" points="-4519,890.8 -4519,896.2 -4509,886.1 -4509,880.8 			"/>
		</g>
	</g>
	<g>
		<g>
			<polygon class="st7" points="-4471.5,868.5 -4477.4,874.4 -4477.4,879.8 -4467.4,869.8 -4467.4,868.5 			"/>
		</g>
	</g>
	<g>
		<g>
			<polygon class="st7" points="-4477.4,868.5 -4477.4,871.6 -4474.3,868.5 			"/>
		</g>
	</g>
	<g>
		<g>
			<polygon class="st7" points="-4477.4,882.6 -4477.4,888 -4467.4,877.9 -4467.4,872.6 			"/>
		</g>
	</g>
	<g>
		<g>
			<polygon class="st7" points="-4467.4,919.6 -4467.4,889 -4477.4,899 -4477.4,919.6 -4484.4,919.6 -4472.4,931.7 -4460.3,919.6 
							"/>
		</g>
	</g>
	<g>
		<g>
			<polygon class="st7" points="-4477.4,890.8 -4477.4,896.2 -4467.4,886.1 -4467.4,880.8 			"/>
		</g>
	</g>
	<g>
		<g>
			<polygon class="st7" points="-4209.9,888.8 -4215.8,894.7 -4215.8,900.1 -4205.8,890.1 -4205.8,888.8 			"/>
		</g>
	</g>
	<g>
		<g>
			<polygon class="st7" points="-4215.8,888.8 -4215.8,891.9 -4212.8,888.8 			"/>
		</g>
	</g>
	<g>
		<g>
			<polygon class="st7" points="-4215.8,902.9 -4215.8,908.3 -4205.8,898.3 -4205.8,892.9 			"/>
		</g>
	</g>
	<g>
		<g>
			<polygon class="st7" points="-4205.8,939.9 -4205.8,909.3 -4215.8,919.3 -4215.8,939.9 -4222.9,939.9 -4210.8,952 -4198.8,939.9 
							"/>
		</g>
	</g>
	<g>
		<g>
			<polygon class="st7" points="-4215.8,911.1 -4215.8,916.5 -4205.8,906.5 -4205.8,901.1 			"/>
		</g>
	</g>
	<g>
		<g>
			<polygon class="st7" points="-4230.7,868.5 -4236.6,874.4 -4236.6,879.8 -4226.6,869.8 -4226.6,868.5 			"/>
		</g>
	</g>
	<g>
		<g>
			<polygon class="st7" points="-4236.6,868.5 -4236.6,871.6 -4233.6,868.5 			"/>
		</g>
	</g>
	<g>
		<g>
			<polygon class="st7" points="-4236.6,882.6 -4236.6,888 -4226.6,877.9 -4226.6,872.6 			"/>
		</g>
	</g>
	<g>
		<g>
			<polygon class="st7" points="-4226.6,919.6 -4226.6,889 -4236.6,899 -4236.6,919.6 -4243.7,919.6 -4231.6,931.7 -4219.6,919.6 
							"/>
		</g>
	</g>
	<g>
		<g>
			<polygon class="st7" points="-4236.6,890.8 -4236.6,896.2 -4226.6,886.1 -4226.6,880.8 			"/>
		</g>
	</g>
	<g>
		<g>
			<polygon class="st7" points="-4189.1,868.5 -4195,874.4 -4195,879.8 -4185,869.8 -4185,868.5 			"/>
		</g>
	</g>
	<g>
		<g>
			<polygon class="st7" points="-4195,868.5 -4195,871.6 -4191.9,868.5 			"/>
		</g>
	</g>
	<g>
		<g>
			<polygon class="st7" points="-4195,882.6 -4195,888 -4185,877.9 -4185,872.6 			"/>
		</g>
	</g>
	<g>
		<g>
			<polygon class="st7" points="-4185,919.6 -4185,889 -4195,899 -4195,919.6 -4202.1,919.6 -4190,931.7 -4177.9,919.6 			"/>
		</g>
	</g>
	<g>
		<g>
			<polygon class="st7" points="-4195,890.8 -4195,896.2 -4185,886.1 -4185,880.8 			"/>
		</g>
	</g>
	<g>
		<g>
			<polygon class="st7" points="-4360.9,893.3 -4356.5,901.1 -4352,908.8 -4347.5,901.1 -4343.1,893.3 			"/>
		</g>
	</g>
	<g>
		<g>
			<polygon class="st1" points="-4360.9,837.7 -4356.5,845.5 -4352,853.2 -4347.5,845.5 -4343.1,837.7 			"/>
		</g>
	</g>
	<g>
		<g>
			<path class="st6" d="M-4316.1,1035c-6.9-13.7-20.6-22.1-35.9-22.1c-15.2,0-29,8.5-35.9,22.1l-0.7,1.4l0.7,1.4
				c6.9,13.7,20.6,22.1,35.9,22.1c15.3,0,29-8.5,35.9-22.1l0.7-1.3L-4316.1,1035z M-4352,1053.8c-12.5,0-23.7-6.7-29.8-17.5
				c6.1-10.8,17.4-17.5,29.8-17.5c12.5,0,23.7,6.7,29.8,17.5C-4328.3,1047.1-4339.5,1053.8-4352,1053.8z"/>
		</g>
	</g>
	<g>
		<g>
			<path class="st6" d="M-4352,1028.8c-4.1,0-7.5,3.3-7.5,7.5c0,4.1,3.3,7.5,7.5,7.5c4.1,0,7.5-3.3,7.5-7.5
				C-4344.5,1032.2-4347.9,1028.8-4352,1028.8z"/>
		</g>
	</g>
	<g>
		<g>
			<path class="st6" d="M-4352,1025.8c-5.8,0-10.5,4.7-10.5,10.5c0,5.8,4.7,10.5,10.5,10.5c5.8,0,10.5-4.7,10.5-10.5
				C-4341.5,1030.5-4346.2,1025.8-4352,1025.8z M-4352,1040.8c-2.5,0-4.5-2-4.5-4.5c0-2.5,2-4.5,4.5-4.5c2.5,0,4.5,2,4.5,4.5
				C-4347.5,1038.8-4349.5,1040.8-4352,1040.8z"/>
		</g>
	</g>
	<g>
		<g>
			<path class="st2" d="M-4204.4,1008.6c-4.8-4.8-12.7-4.8-17.6,0l-38.9,38.9l-11.9-11.9c-4.8-4.8-12.7-4.8-17.5,0
				c-4.8,4.8-4.8,12.7,0,17.5l20.7,20.7c2.4,2.4,5.6,3.6,8.8,3.6c3.2,0,6.4-1.2,8.8-3.6l47.7-47.7
				C-4199.6,1021.3-4199.6,1013.4-4204.4,1008.6z"/>
		</g>
	</g>
	<g>
		<g>
			<path class="st1" d="M-4204.4,1008.6c-4.8-4.8-12.7-4.8-17.6,0l-38.9,38.9l-11.9-11.9c-4.8-4.8-12.7-4.8-17.5,0
				c-0.1,0.1-0.2,0.2-0.3,0.3c0.1,0.1,0.2,0.2,0.3,0.3l20.7,20.7c2.4,2.4,5.6,3.6,8.8,3.6c3.2,0,6.4-1.2,8.8-3.6l47.7-47.7
				c0.1-0.1,0.2-0.2,0.3-0.3C-4204.2,1008.8-4204.3,1008.7-4204.4,1008.6z"/>
		</g>
	</g>
	<g>
		<g>
			<path class="st6" d="M-4202.3,1006.5c-6-6-15.8-6-21.8,0l-36.8,36.8l-9.8-9.8c-6-6-15.8-6-21.8,0c-2.9,2.9-4.5,6.8-4.5,10.9
				s1.6,8,4.5,10.9l20.7,20.7c2.9,2.9,6.8,4.5,10.9,4.5s8-1.6,10.9-4.5l47.7-47.7c2.9-2.9,4.5-6.8,4.5-10.9
				C-4197.8,1013.3-4199.4,1009.4-4202.3,1006.5z M-4206.5,1024l-47.7,47.7c-1.8,1.8-4.1,2.8-6.7,2.8s-4.9-1-6.7-2.8l-20.7-20.7
				c-1.8-1.8-2.8-4.1-2.8-6.6c0-2.5,1-4.9,2.8-6.7c1.8-1.8,4.2-2.8,6.7-2.8c2.4,0,4.8,0.9,6.6,2.7l11.9,11.9c1.2,1.2,3.1,1.2,4.2,0
				l38.9-38.9c3.7-3.7,9.6-3.7,13.3,0c1.8,1.8,2.8,4.1,2.8,6.7S-4204.7,1022.2-4206.5,1024z"/>
		</g>
	</g>
	<g>
		<g>
			<rect x="-4572.4" y="691.6" class="st7" width="58.4" height="4"/>
		</g>
	</g>
	<g>
		<g>
			<rect x="-4572.4" y="702.9" class="st7" width="43.9" height="4"/>
		</g>
	</g>
	<g>
		<g>
			<rect x="-4572.4" y="714.2" class="st7" width="58.4" height="4"/>
		</g>
	</g>
	<g>
		<g>
			<rect x="-4572.4" y="725.5" class="st7" width="43.9" height="4"/>
		</g>
	</g>
	<g>
		<g>
			<rect x="-4572.4" y="736.8" class="st7" width="58.4" height="4"/>
		</g>
	</g>
	<g>
		<g>
			<rect x="-4190" y="691.6" class="st7" width="58.4" height="4"/>
		</g>
	</g>
	<g>
		<g>
			<rect x="-4175.4" y="702.9" class="st7" width="43.9" height="4"/>
		</g>
	</g>
	<g>
		<g>
			<rect x="-4190" y="714.2" class="st7" width="58.4" height="4"/>
		</g>
	</g>
	<g>
		<g>
			<rect x="-4175.4" y="725.5" class="st7" width="43.9" height="4"/>
		</g>
	</g>
	<g>
		<g>
			<rect x="-4190" y="736.8" class="st7" width="58.4" height="4"/>
		</g>
	</g>
</g>
<g>
	<g>
		<g>
			<path class="st0" d="M300,72.2L300,72.2l0,227.8l227.8,0C527.9,174.2,425.8,72.1,300,72.2z"/>
		</g>
	</g>
	<g>
		<g>
			<path class="st0" d="M300,300l-227.8,0c0,125.9,102,227.9,227.8,227.8L300,300z"/>
		</g>
	</g>
	<g>
		<g>
			<rect x="167.1" y="458.3" class="st1" width="87.2" height="87.2"/>
		</g>
	</g>
	<g>
		<g>
			<polygon class="st0" points="167.1,545.5 254.2,545.5 254.2,458.3 			"/>
		</g>
	</g>
	<g>
		<g>
			<polygon class="st2" points="167.1,458.3 254.2,545.5 254.2,458.3 			"/>
		</g>
	</g>
	<g>
		<g>
			<polygon class="st3" points="210.7,501.9 254.2,545.5 254.2,458.3 			"/>
		</g>
	</g>
	<g>
		<g>
			<rect x="196.1" y="458.3" class="st4" width="29.1" height="31"/>
		</g>
	</g>
	<g>
		<g>
			<polygon class="st5" points="196.1,458.3 225.2,489.3 225.2,458.3 			"/>
		</g>
	</g>
	<g>
		<g>
			<path class="st6" d="M225.2,455.3h-29.1c-1.7,0-3,1.3-3,3v31c0,1.7,1.3,3,3,3h29.1c1.7,0,3-1.3,3-3v-31
				C228.2,456.7,226.9,455.3,225.2,455.3z M222.2,486.3h-23.1v-25h23.1V486.3z"/>
		</g>
	</g>
	<g>
		<g>
			<path class="st6" d="M254.2,454.3h-87.2c-2.2,0-4,1.8-4,4v87.2c0,2.2,1.8,4,4,4h87.2c2.2,0,4-1.8,4-4v-87.2
				C258.2,456.1,256.5,454.3,254.2,454.3z M250.2,541.5h-79.2v-79.2h79.2V541.5z"/>
		</g>
	</g>
	<g>
		<g>
			<rect x="345.8" y="458.3" class="st1" width="87.2" height="87.2"/>
		</g>
	</g>
	<g>
		<g>
			<polygon class="st0" points="345.8,545.5 432.9,545.5 432.9,458.3 			"/>
		</g>
	</g>
	<g>
		<g>
			<polygon class="st2" points="345.8,458.3 432.9,545.5 432.9,458.3 			"/>
		</g>
	</g>
	<g>
		<g>
			<polygon class="st3" points="389.3,501.9 432.9,545.5 432.9,458.3 			"/>
		</g>
	</g>
	<g>
		<g>
			<rect x="374.8" y="458.3" class="st4" width="29.1" height="31"/>
		</g>
	</g>
	<g>
		<g>
			<polygon class="st5" points="374.8,458.3 403.9,489.3 403.9,458.3 			"/>
		</g>
	</g>
	<g>
		<g>
			<path class="st6" d="M403.9,455.3h-29.1c-1.7,0-3,1.3-3,3v31c0,1.7,1.3,3,3,3h29.1c1.7,0,3-1.3,3-3v-31
				C406.9,456.7,405.5,455.3,403.9,455.3z M400.9,486.3h-23.1v-25h23.1V486.3z"/>
		</g>
	</g>
	<g>
		<g>
			<path class="st6" d="M432.9,454.3h-87.2c-2.2,0-4,1.8-4,4v87.2c0,2.2,1.8,4,4,4h87.2c2.2,0,4-1.8,4-4v-87.2
				C436.9,456.1,435.1,454.3,432.9,454.3z M428.9,541.5h-79.2v-79.2h79.2V541.5z"/>
		</g>
	</g>
	<g>
		<g>
			<path class="st5" d="M205.5,313.5c8.4,17.6,21.6,32.5,37.9,43c18.8,12.2,33.3,30.3,41.2,51.6h0.1c0,2.1,6.9,3.8,15.4,3.8
				c8.5,0,15.4-1.7,15.4-3.8h0.1c7.9-21.3,22.4-39.4,41.2-51.7c16.3-10.5,29.4-25.4,37.8-43H205.5z"/>
		</g>
	</g>
	<g>
		<g>
			<path class="st6" d="M374.9,215.2c-20.1-4.9-46.7-7.6-74.9-7.6c-28.3,0-54.9,2.7-74.9,7.6c-22.4,5.5-33.7,12.8-33.7,21.9
				c0,9.1,11.3,16.5,33.7,21.9c20.1,4.9,46.7,7.6,74.9,7.6c28.3,0,54.9-2.7,74.9-7.6c22.4-5.5,33.7-12.8,33.7-21.9
				C408.6,228,397.3,220.6,374.9,215.2z M373,251.2c-19.5,4.7-45.4,7.4-73,7.4c-27.6,0-53.6-2.6-73-7.4
				c-21.8-5.3-27.6-11.4-27.6-14.1c0-2.8,5.8-8.8,27.6-14.1c19.5-4.7,45.4-7.4,73-7.4c27.6,0,53.6,2.6,73,7.4
				c21.8,5.3,27.6,11.4,27.6,14.1C400.6,239.8,394.8,245.9,373,251.2z"/>
		</g>
	</g>
	<g>
		<g>
			<path class="st4" d="M300,301.2c-49.6,0-89.7,9.8-89.7,21.9c0,12.1,40.2,21.9,89.7,21.9c49.6,0,89.7-9.8,89.7-21.9
				C389.7,311,349.6,301.2,300,301.2z"/>
		</g>
	</g>
	<g>
		<g>
			<path class="st3" d="M300,291.6c-49.6,0-89.7,9.8-89.7,21.9c0,12.1,40.2,21.9,89.7,21.9c49.6,0,89.7-9.8,89.7-21.9
				C389.7,301.4,349.6,291.6,300,291.6z"/>
		</g>
	</g>
	<g>
		<g>
			<path class="st7" d="M210.3,313.5c0,12.1,40.2,21.9,89.7,21.9c49.6,0,89.7-9.8,89.7-21.9H210.3z"/>
		</g>
	</g>
	<g>
		<g>
			<path class="st6" d="M374.9,215.2c-20.1-4.9-46.7-7.6-74.9-7.6c-28.3,0-54.9,2.7-74.9,7.6c-22.4,5.4-33.7,12.8-33.7,21.9v31.5
				c0,37,18.6,71.1,49.8,91.2c18.1,11.7,32.1,29.4,39.6,49.7c0,0.1,0,0.1,0.1,0.2c1.7,5.4,12.5,6.2,19.2,6.2
				c6.7,0,17.5-0.8,19.2-6.2c0,0,0-0.1,0.1-0.1c7.5-20.3,21.6-38,39.6-49.7c31.2-20.1,49.8-54.2,49.8-91.2v-31.5
				C408.6,228,397.3,220.6,374.9,215.2z M400.6,268.6c0,34.2-17.2,65.8-46.1,84.5c-19.3,12.5-34.3,31.3-42.5,52.9
				c0,0.1-0.1,0.2-0.1,0.3c-1.4,0.6-5.4,1.6-11.9,1.6c-6.5,0-10.5-1-11.9-1.6c0-0.1-0.1-0.1-0.1-0.2c-8.1-21.6-23.2-40.4-42.5-53
				c-28.9-18.7-46.1-50.3-46.1-84.5v-31.5c0-2.8,5.8-8.8,27.6-14.1c19.5-4.7,45.4-7.4,73-7.4c27.6,0,53.6,2.6,73,7.4
				c21.8,5.3,27.6,11.4,27.6,14.1V268.6z"/>
		</g>
	</g>
	<g>
		<g>
			<path class="st6" d="M300,289.6c-44.5,0-91.7,8.4-91.7,23.9c0,15.5,47.3,23.9,91.7,23.9c44.5,0,91.7-8.4,91.7-23.9
				C391.7,298,344.5,289.6,300,289.6z M300,333.3c-51.7,0-87.7-10.5-87.7-19.9c0-9.4,36-19.9,87.7-19.9c51.7,0,87.7,10.5,87.7,19.9
				C387.7,322.9,351.7,333.3,300,333.3z"/>
		</g>
	</g>
	<g>
		<g>
			<path class="st1" d="M300,65.8c-23.2,0-42,18.8-42,42c0,11.8,4.8,22.4,12.6,30c6.7,7.5,10.8,17.3,10.8,28.1h37.2
				c0-10.8,4.1-20.6,10.8-28.1c7.8-7.6,12.6-18.2,12.6-30C342,84.6,323.2,65.8,300,65.8z"/>
		</g>
	</g>
	<g>
		<g>
			<path class="st2" d="M300,65.8c-13.8,0-25.1,18.8-25.1,42c0,11.8,2.9,22.4,7.6,30c4,7.5,6.4,17.3,6.4,28.1h22.2
				c0-10.8,2.4-20.6,6.4-28.1c4.6-7.6,7.5-18.2,7.5-30C325.1,84.6,313.9,65.8,300,65.8z"/>
		</g>
	</g>
	<g>
		<g>
			<path class="st3" d="M281.4,165.9c0-0.2,0-0.4,0-0.6v14.6c0,9.4,7.6,17,17,17h3.1c9.4,0,17-7.6,17-17v-14H281.4z"/>
		</g>
	</g>
	<g>
		<g>
			<path class="st8" d="M289,165.9c0-0.2,0-0.4,0-0.6v14.6c0,9.4,4.5,17,10.1,17h1.8c5.6,0,10.1-7.6,10.1-17v-14H289z"/>
		</g>
	</g>
	<g>
		<g>
			<path class="st6" d="M300,62.8c-24.8,0-45,20.2-45,45c0,12.2,4.8,23.5,13.5,32.1c6.4,7.2,10,16.4,10,26c0,1.7,1.3,3,3,3h37.2
				c1.7,0,3-1.3,3-3c0-9.6,3.5-18.8,10-26c8.7-8.5,13.4-19.9,13.4-32.1C345,83,324.8,62.8,300,62.8z M327.3,135.7
				c0,0-0.1,0.1-0.1,0.1c-6.8,7.5-10.8,17.1-11.5,27.1h-31.4c-0.7-10-4.7-19.5-11.5-27.1c0,0-0.1-0.1-0.1-0.1
				c-7.6-7.4-11.7-17.3-11.7-27.9c0-21.5,17.5-39,39-39c21.5,0,39,17.5,39,39C339,118.4,334.8,128.3,327.3,135.7z"/>
		</g>
	</g>
	<g>
		<g>
			<path class="st6" d="M318.6,162.9h-35.4c-0.5-0.4-1.1-0.6-1.8-0.6c-1.7,0-3,1.3-3,3v14.6c0,11.1,9,20,20,20h3.1
				c11.1,0,20-9,20-20v-14C321.6,164.3,320.3,162.9,318.6,162.9z M315.6,179.9c0,7.7-6.3,14-14,14h-3.1c-7.7,0-14-6.3-14-14v-11
				h31.2V179.9z"/>
		</g>
	</g>
	<g>
		<g>
			<path class="st6" d="M300,118.9c-1.1,0-2,0.9-2,2v38.8c0,1.1,0.9,2,2,2s2-0.9,2-2v-38.8C302,119.8,301.1,118.9,300,118.9z"/>
		</g>
	</g>
	<g>
		<g>
			<path class="st6" d="M301.4,118.5c-0.8-0.8-2-0.8-2.8,0l-7.3,7.3l-7.3-7.3c-0.8-0.8-2-0.8-2.8,0c-0.8,0.8-0.8,2,0,2.8l8.7,8.8
				c0.4,0.4,0.9,0.6,1.4,0.6c0.5,0,1-0.2,1.4-0.6l8.7-8.8C302.2,120.6,302.2,119.3,301.4,118.5z"/>
		</g>
	</g>
	<g>
		<g>
			<path class="st6" d="M318.9,118.5c-0.8-0.8-2-0.8-2.8,0l-7.3,7.3l-7.3-7.3c-0.8-0.8-2-0.8-2.8,0c-0.8,0.8-0.8,2,0,2.8l8.8,8.8
				c0.4,0.4,0.9,0.6,1.4,0.6h0c0.5,0,1-0.2,1.4-0.6l8.7-8.8C319.7,120.6,319.7,119.3,318.9,118.5z"/>
		</g>
	</g>
	<g>
		<g>
			<path class="st6" d="M317,173.6H283c-1.1,0-2,0.9-2,2c0,1.1,0.9,2,2,2H317c1.1,0,2-0.9,2-2C319,174.5,318.1,173.6,317,173.6z"/>
		</g>
	</g>
	<g>
		<g>
			<path class="st6" d="M317,182.2H283c-1.1,0-2,0.9-2,2s0.9,2,2,2H317c1.1,0,2-0.9,2-2S318.1,182.2,317,182.2z"/>
		</g>
	</g>
	<g>
		<g>
			<polygon class="st7" points="56.6,543.4 56.6,444.5 52.6,444.5 52.6,547.4 155.5,547.4 155.5,543.4 			"/>
		</g>
	</g>
	<g>
		<g>
			<path class="st7" d="M54.5,437.8c-2.4,0-4.4,2-4.4,4.4c0,2.4,2,4.4,4.4,4.4c2.4,0,4.4-2,4.4-4.4
				C58.9,439.7,56.9,437.8,54.5,437.8z M54.5,442.5c-0.2,0-0.4-0.2-0.4-0.4c0-0.2,0.2-0.4,0.4-0.4c0.2,0,0.4,0.2,0.4,0.4
				C54.9,442.4,54.7,442.5,54.5,442.5z"/>
		</g>
	</g>
	<g>
		<g>
			<path class="st7" d="M157.9,541.1c-2.4,0-4.4,2-4.4,4.4c0,2.4,2,4.4,4.4,4.4c2.4,0,4.4-2,4.4-4.4
				C162.2,543.1,160.3,541.1,157.9,541.1z M157.9,545.9c-0.2,0-0.4-0.2-0.4-0.4c0-0.2,0.2-0.4,0.4-0.4c0.2,0,0.4,0.2,0.4,0.4
				C158.2,545.7,158.1,545.9,157.9,545.9z"/>
		</g>
	</g>
	<g>
		<g>
			<path class="st7" d="M54.6,489.4v4c28.7,0,52.1,23.4,52.1,52.1h4C110.7,514.5,85.5,489.4,54.6,489.4z"/>
		</g>
	</g>
	<g>
		<g>
			<path class="st7" d="M76.6,520.6l2.8,2.8l2.8-2.8l-2.8-2.8L76.6,520.6z M82.3,515l2.8,2.8l2.8-2.8l-2.8-2.8L82.3,515z
				 M93.6,503.7l2.8,2.8l2.8-2.8l-2.8-2.8L93.6,503.7z M99.2,498l2.8,2.8l2.8-2.8l-2.8-2.8L99.2,498z M87.9,509.3l2.8,2.8l2.8-2.8
				l-2.8-2.8L87.9,509.3z M59.6,537.6l2.8,2.8l2.8-2.8l-2.8-2.8L59.6,537.6z M54.4,542.9l2.8,2.8l2.4-2.4l-2.8-2.8L54.4,542.9z
				 M70.9,526.3l2.8,2.8l2.8-2.8l-2.8-2.8L70.9,526.3z M65.3,531.9l2.8,2.8l2.8-2.8l-2.8-2.8L65.3,531.9z M133.2,464.1l2.8,2.8
				l2.8-2.8l-2.8-2.8L133.2,464.1z M144.5,452.7l2.8,2.8l2.8-2.8l-2.8-2.8L144.5,452.7z M127.5,469.7l2.8,2.8l2.8-2.8l-2.8-2.8
				L127.5,469.7z M138.8,458.4l2.8,2.8l2.8-2.8l-2.8-2.8L138.8,458.4z M153,444.3l-2.8,2.8l2.8,2.8l2.8-2.8L153,444.3z M121.8,475.4
				l2.8,2.8l2.8-2.8l-2.8-2.8L121.8,475.4z M110.5,486.7l2.8,2.8l2.8-2.8l-2.8-2.8L110.5,486.7z M116.2,481l2.8,2.8l2.8-2.8
				l-2.8-2.8L116.2,481z M104.9,492.3l2.8,2.8l2.8-2.8l-2.8-2.8L104.9,492.3z"/>
		</g>
	</g>
	<g>
		<g>
			<polygon class="st7" points="444.5,52.6 444.5,56.6 543.4,56.6 543.4,155.5 547.4,155.5 547.4,52.6 			"/>
		</g>
	</g>
	<g>
		<g>
			<path class="st7" d="M545.5,153.5c-2.4,0-4.4,2-4.4,4.4c0,2.4,2,4.4,4.4,4.4c2.4,0,4.4-2,4.4-4.4
				C549.9,155.4,547.9,153.5,545.5,153.5z M545.5,158.2c-0.2,0-0.4-0.2-0.4-0.4c0-0.2,0.2-0.4,0.4-0.4c0.2,0,0.4,0.2,0.4,0.4
				C545.9,158.1,545.7,158.2,545.5,158.2z"/>
		</g>
	</g>
	<g>
		<g>
			<path class="st7" d="M442.1,50.1c-2.4,0-4.4,2-4.4,4.4c0,2.4,2,4.4,4.4,4.4c2.4,0,4.4-2,4.4-4.4
				C446.5,52.1,444.6,50.1,442.1,50.1z M442.1,54.9c-0.2,0-0.4-0.2-0.4-0.4c0-0.2,0.2-0.4,0.4-0.4c0.2,0,0.4,0.2,0.4,0.4
				S442.4,54.9,442.1,54.9z"/>
		</g>
	</g>
	<g>
		<g>
			<path class="st7" d="M493.3,54.6h-4c0,30.9,25.2,56.1,56.1,56.1v-4C516.7,106.6,493.3,83.3,493.3,54.6z"/>
		</g>
	</g>
	<g>
		<g>
			<path class="st7" d="M478.2,119l2.8,2.8l2.8-2.8l-2.8-2.8L478.2,119z M472.5,124.6l2.8,2.8l2.8-2.8l-2.8-2.8L472.5,124.6z
				 M483.8,113.3l2.8,2.8l2.8-2.8l-2.8-2.8L483.8,113.3z M466.8,130.3l2.8,2.8l2.8-2.8l-2.8-2.8L466.8,130.3z M449.9,147.3l2.8,2.8
				l2.8-2.8l-2.8-2.8L449.9,147.3z M489.5,107.7l2.8,2.8l2.8-2.8l-2.8-2.8L489.5,107.7z M461.2,135.9l2.8,2.8l2.8-2.8l-2.8-2.8
				L461.2,135.9z M455.5,141.6l2.8,2.8l2.8-2.8l-2.8-2.8L455.5,141.6z M444.2,152.9l2.8,2.8l2.8-2.8l-2.8-2.8L444.2,152.9z
				 M534.7,62.4l2.8,2.8l2.8-2.8l-2.8-2.8L534.7,62.4z M529.1,68.1l2.8,2.8l2.8-2.8l-2.8-2.8L529.1,68.1z M542.8,54.3l-2.4,2.4
				l2.8,2.8l2.4-2.4L542.8,54.3z M523.4,73.7l2.8,2.8l2.8-2.8l-2.8-2.8L523.4,73.7z M517.7,79.4l2.8,2.8l2.8-2.8l-2.8-2.8
				L517.7,79.4z M500.8,96.3l2.8,2.8l2.8-2.8l-2.8-2.8L500.8,96.3z M506.4,90.7l2.8,2.8l2.8-2.8l-2.8-2.8L506.4,90.7z M512.1,85
				l2.8,2.8l2.8-2.8l-2.8-2.8L512.1,85z M495.1,102l2.8,2.8l2.8-2.8l-2.8-2.8L495.1,102z"/>
		</g>
	</g>
	<g>
		<g>
			<polygon class="st7" points="543.4,444.5 543.4,543.4 444.5,543.4 444.5,547.4 547.4,547.4 547.4,444.5 			"/>
		</g>
	</g>
	<g>
		<g>
			<path class="st7" d="M442.1,541.1c-2.4,0-4.4,2-4.4,4.4c0,2.4,2,4.4,4.4,4.4c2.4,0,4.4-2,4.4-4.4
				C446.5,543.1,444.6,541.1,442.1,541.1z M442.1,545.9c-0.2,0-0.4-0.2-0.4-0.4c0-0.2,0.2-0.4,0.4-0.4c0.2,0,0.4,0.2,0.4,0.4
				C442.5,545.7,442.4,545.9,442.1,545.9z"/>
		</g>
	</g>
	<g>
		<g>
			<path class="st7" d="M545.5,437.8c-2.4,0-4.4,2-4.4,4.4c0,2.4,2,4.4,4.4,4.4c2.4,0,4.4-2,4.4-4.4
				C549.9,439.7,547.9,437.8,545.5,437.8z M545.5,442.5c-0.2,0-0.4-0.2-0.4-0.4c0-0.2,0.2-0.4,0.4-0.4c0.2,0,0.4,0.2,0.4,0.4
				C545.9,442.4,545.7,442.5,545.5,442.5z"/>
		</g>
	</g>
	<g>
		<g>
			<path class="st7" d="M489.4,545.4h4c0-28.7,23.4-52.1,52.1-52.1v-4C514.5,489.3,489.4,514.5,489.4,545.4z"/>
		</g>
	</g>
	<g>
		<g>
			<path class="st7" d="M475.4,472.5l-2.8,2.8l2.8,2.8l2.8-2.8L475.4,472.5z M478.2,481l2.8,2.8l2.8-2.8l-2.8-2.8L478.2,481z
				 M486.7,483.8l-2.8,2.8l2.8,2.8l2.8-2.8L486.7,483.8z M469.7,466.8l-2.8,2.8l2.8,2.8l2.8-2.8L469.7,466.8z M464.1,461.2l-2.8,2.8
				l2.8,2.8l2.8-2.8L464.1,461.2z M452.7,449.9l-2.8,2.8l2.8,2.8l2.8-2.8L452.7,449.9z M492.3,489.5l-2.8,2.8l2.8,2.8l2.8-2.8
				L492.3,489.5z M447.1,444.2l-2.8,2.8l2.8,2.8l2.8-2.8L447.1,444.2z M458.4,455.5l-2.8,2.8l2.8,2.8l2.8-2.8L458.4,455.5z
				 M503.7,500.8l-2.8,2.8l2.8,2.8l2.8-2.8L503.7,500.8z M537.6,534.7l-2.8,2.8l2.8,2.8l2.8-2.8L537.6,534.7z M498,495.1l-2.8,2.8
				l2.8,2.8l2.8-2.8L498,495.1z M529.1,531.9l2.8,2.8l2.8-2.8l-2.8-2.8L529.1,531.9z M543.3,540.4l-2.8,2.8l2.4,2.4l2.8-2.8
				L543.3,540.4z M526.3,523.4l-2.8,2.8l2.8,2.8l2.8-2.8L526.3,523.4z M520.6,517.8l-2.8,2.8l2.8,2.8l2.8-2.8L520.6,517.8z
				 M509.3,506.4l-2.8,2.8l2.8,2.8l2.8-2.8L509.3,506.4z M512.1,514.9l2.8,2.8l2.8-2.8l-2.8-2.8L512.1,514.9z"/>
		</g>
	</g>
	<g>
		<g>
			<polygon class="st7" points="52.6,52.6 52.6,155.5 56.6,155.5 56.6,56.6 155.5,56.6 155.5,52.6 			"/>
		</g>
	</g>
	<g>
		<g>
			<path class="st7" d="M157.9,50.1c-2.4,0-4.4,2-4.4,4.4c0,2.4,2,4.4,4.4,4.4c2.4,0,4.4-2,4.4-4.4
				C162.2,52.1,160.3,50.1,157.9,50.1z M157.9,54.9c-0.2,0-0.4-0.2-0.4-0.4c0-0.2,0.2-0.4,0.4-0.4c0.2,0,0.4,0.2,0.4,0.4
				C158.2,54.7,158.1,54.9,157.9,54.9z"/>
		</g>
	</g>
	<g>
		<g>
			<path class="st7" d="M54.5,153.5c-2.4,0-4.4,2-4.4,4.4c0,2.4,2,4.4,4.4,4.4c2.4,0,4.4-2,4.4-4.4
				C58.9,155.4,56.9,153.5,54.5,153.5z M54.5,158.2c-0.2,0-0.4-0.2-0.4-0.4c0-0.2,0.2-0.4,0.4-0.4c0.2,0,0.4,0.2,0.4,0.4
				C54.9,158.1,54.7,158.2,54.5,158.2z"/>
		</g>
	</g>
	<g>
		<g>
			<path class="st7" d="M106.6,54.6c0,28.7-23.4,52.1-52.1,52.1v4c30.9,0,56.1-25.2,56.1-56.1H106.6z"/>
		</g>
	</g>
	<g>
		<g>
			<path class="st7" d="M85,82.3l-2.8,2.8l2.8,2.8l2.8-2.8L85,82.3z M152.9,150.1l-2.8,2.8l2.8,2.8l2.8-2.8L152.9,150.1z M90.7,87.9
				l-2.8,2.8l2.8,2.8l2.8-2.8L90.7,87.9z M96.3,93.6l-2.8,2.8l2.8,2.8l2.8-2.8L96.3,93.6z M57.1,54.4l-2.8,2.8l2.4,2.4l2.8-2.8
				L57.1,54.4z M102,99.2l-2.8,2.8l2.8,2.8l2.8-2.8L102,99.2z M73.7,70.9l-2.8,2.8l2.8,2.8l2.8-2.8L73.7,70.9z M59.6,62.5l2.8,2.8
				l2.8-2.8l-2.8-2.8L59.6,62.5z M68.1,65.3l-2.8,2.8l2.8,2.8l2.8-2.8L68.1,65.3z M76.5,79.4l2.8,2.8l2.8-2.8l-2.8-2.8L76.5,79.4z
				 M135.9,133.2l-2.8,2.8l2.8,2.8l2.8-2.8L135.9,133.2z M141.6,138.8l-2.8,2.8l2.8,2.8l2.8-2.8L141.6,138.8z M147.3,144.5l-2.8,2.8
				l2.8,2.8l2.8-2.8L147.3,144.5z M130.3,127.5l-2.8,2.8l2.8,2.8l2.8-2.8L130.3,127.5z M110.5,113.4l2.8,2.8l2.8-2.8l-2.8-2.8
				L110.5,113.4z M107.7,104.9l-2.8,2.8l2.8,2.8l2.8-2.8L107.7,104.9z M124.6,121.8l-2.8,2.8l2.8,2.8l2.8-2.8L124.6,121.8z
				 M119,116.2l-2.8,2.8l2.8,2.8l2.8-2.8L119,116.2z"/>
		</g>
	</g>
	<g>
		<g>
			
				<rect x="86.6" y="218.5" transform="matrix(0.7071 -0.7071 0.7071 0.7071 -137.5715 130.3745)" class="st7" width="4" height="25.5"/>
		</g>
	</g>
	<g>
		<g>
			
				<rect x="86.6" y="232.3" transform="matrix(0.7071 -0.7071 0.7071 0.7071 -147.2914 134.3918)" class="st7" width="4" height="25.5"/>
		</g>
	</g>
	<g>
		<g>
			
				<rect x="86.6" y="246" transform="matrix(0.7071 -0.7071 0.7071 0.7071 -157.0147 138.4193)" class="st7" width="4" height="25.5"/>
		</g>
	</g>
	<g>
		<g>
			
				<rect x="86.6" y="259.8" transform="matrix(0.7071 -0.7071 0.7071 0.7071 -166.7376 142.4436)" class="st7" width="4" height="25.5"/>
		</g>
	</g>
	<g>
		<g>
			
				<rect x="86.6" y="273.5" transform="matrix(0.7071 -0.7071 0.7071 0.7071 -176.4624 146.4746)" class="st7" width="4" height="25.5"/>
		</g>
	</g>
	<g>
		<g>
			
				<rect x="86.6" y="287.3" transform="matrix(0.7071 -0.7071 0.7071 0.7071 -186.1853 150.502)" class="st7" width="4" height="25.5"/>
		</g>
	</g>
	<g>
		<g>
			
				<rect x="86.6" y="301" transform="matrix(0.7071 -0.7071 0.7071 0.7071 -195.9104 154.5325)" class="st7" width="4" height="25.5"/>
		</g>
	</g>
	<g>
		<g>
			
				<rect x="86.6" y="314.8" transform="matrix(0.7071 -0.7071 0.7071 0.7071 -205.6336 158.5568)" class="st7" width="4" height="25.5"/>
		</g>
	</g>
	<g>
		<g>
			
				<rect x="86.6" y="328.5" transform="matrix(0.7071 -0.7071 0.7071 0.7071 -215.3615 162.5919)" class="st7" width="4" height="25.5"/>
		</g>
	</g>
	<g>
		<g>
			
				<rect x="86.6" y="342.3" transform="matrix(0.7071 -0.7071 0.7071 0.7071 -225.0789 166.6094)" class="st7" width="4" height="25.5"/>
		</g>
	</g>
	<g>
		<g>
			
				<rect x="86.6" y="356" transform="matrix(0.7071 -0.7071 0.7071 0.7071 -234.8025 170.6369)" class="st7" width="4" height="25.5"/>
		</g>
	</g>
	<g>
		<g>
			<polygon class="st7" points="99.6,220.2 92,220.2 92,224.2 95.6,224.2 95.6,227.8 99.6,227.8 			"/>
		</g>
	</g>
	<g>
		<g>
			<polygon class="st7" points="81.6,375.8 81.6,372.2 77.6,372.2 77.6,379.8 85.2,379.8 85.2,375.8 			"/>
		</g>
	</g>
	<g>
		<g>
			
				<rect x="509.4" y="218.5" transform="matrix(0.7071 -0.7071 0.7071 0.7071 -13.7158 429.3751)" class="st7" width="4" height="25.5"/>
		</g>
	</g>
	<g>
		<g>
			
				<rect x="509.4" y="232.3" transform="matrix(0.7071 -0.7071 0.7071 0.7071 -23.4466 433.3852)" class="st7" width="4" height="25.5"/>
		</g>
	</g>
	<g>
		<g>
			
				<rect x="509.4" y="246" transform="matrix(0.7071 -0.7071 0.7071 0.7071 -33.17 437.4128)" class="st7" width="4" height="25.5"/>
		</g>
	</g>
	<g>
		<g>
			
				<rect x="509.4" y="259.8" transform="matrix(0.7071 -0.7071 0.7071 0.7071 -42.8959 441.4347)" class="st7" width="4" height="25.5"/>
		</g>
	</g>
	<g>
		<g>
			
				<rect x="509.4" y="273.5" transform="matrix(0.7071 -0.7071 0.7071 0.7071 -52.6178 445.4684)" class="st7" width="4" height="25.5"/>
		</g>
	</g>
	<g>
		<g>
			
				<rect x="509.4" y="287.3" transform="matrix(0.7071 -0.7071 0.7071 0.7071 -62.3409 449.4958)" class="st7" width="4" height="25.5"/>
		</g>
	</g>
	<g>
		<g>
			
				<rect x="509.4" y="301" transform="matrix(0.7071 -0.7071 0.7071 0.7071 -72.0628 453.5296)" class="st7" width="4" height="25.5"/>
		</g>
	</g>
	<g>
		<g>
			
				<rect x="509.4" y="314.8" transform="matrix(0.7071 -0.7071 0.7071 0.7071 -81.7891 457.5515)" class="st7" width="4" height="25.5"/>
		</g>
	</g>
	<g>
		<g>
			
				<rect x="509.4" y="328.5" transform="matrix(0.7071 -0.7071 0.7071 0.7071 -91.5109 461.5925)" class="st7" width="4" height="25.5"/>
		</g>
	</g>
	<g>
		<g>
			
				<rect x="509.4" y="342.3" transform="matrix(0.7071 -0.7071 0.7071 0.7071 -101.2381 465.6004)" class="st7" width="4" height="25.5"/>
		</g>
	</g>
	<g>
		<g>
			
				<rect x="509.4" y="356" transform="matrix(0.7071 -0.7071 0.7071 0.7071 -110.9618 469.6281)" class="st7" width="4" height="25.5"/>
		</g>
	</g>
	<g>
		<g>
			<polygon class="st7" points="514.8,220.2 514.8,224.2 518.4,224.2 518.4,227.8 522.4,227.8 522.4,220.2 			"/>
		</g>
	</g>
	<g>
		<g>
			<polygon class="st7" points="504.4,375.8 504.4,372.2 500.4,372.2 500.4,379.8 508,379.8 508,375.8 			"/>
		</g>
	</g>
	<g>
		<g>
			<rect x="242.1" y="429.8" class="st1" width="115.7" height="115.7"/>
		</g>
	</g>
	<g>
		<g>
			<polygon class="st0" points="242.1,545.5 357.9,545.5 357.9,429.8 			"/>
		</g>
	</g>
	<g>
		<g>
			<polygon class="st2" points="242.1,429.8 357.9,545.5 357.9,429.8 			"/>
		</g>
	</g>
	<g>
		<g>
			<polygon class="st3" points="300,487.6 357.9,545.5 357.9,429.8 			"/>
		</g>
	</g>
	<g>
		<g>
			<rect x="280.7" y="429.8" class="st4" width="38.6" height="41.2"/>
		</g>
	</g>
	<g>
		<g>
			<polygon class="st5" points="280.7,429.8 319.3,471 319.3,429.8 			"/>
		</g>
	</g>
	<g>
		<g>
			<path class="st6" d="M319.3,426.8h-38.6c-1.7,0-3,1.3-3,3V471c0,1.7,1.3,3,3,3h38.6c1.7,0,3-1.3,3-3v-41.2
				C322.3,428.1,321,426.8,319.3,426.8z M316.3,468h-32.6v-35.2h32.6V468z"/>
		</g>
	</g>
	<g>
		<g>
			<path class="st6" d="M357.9,425.8H242.1c-2.2,0-4,1.8-4,4v115.7c0,2.2,1.8,4,4,4h115.7c2.2,0,4-1.8,4-4V429.8
				C361.9,427.6,360.1,425.8,357.9,425.8z M353.9,541.5H246.1V433.8h107.7V541.5z"/>
		</g>
	</g>
	<g>
		<g>
			<polygon class="st7" points="159.7,356.8 153.8,362.7 153.8,368.1 163.8,358.1 163.8,356.8 			"/>
		</g>
	</g>
	<g>
		<g>
			<polygon class="st7" points="153.8,356.8 153.8,359.9 156.9,356.8 			"/>
		</g>
	</g>
	<g>
		<g>
			<polygon class="st7" points="153.8,370.9 153.8,376.3 163.8,366.3 163.8,360.9 			"/>
		</g>
	</g>
	<g>
		<g>
			<polygon class="st7" points="163.8,407.9 163.8,377.3 153.8,387.3 153.8,407.9 146.8,407.9 158.8,420 170.9,407.9 			"/>
		</g>
	</g>
	<g>
		<g>
			<polygon class="st7" points="153.8,379.1 153.8,384.5 163.8,374.5 163.8,369.1 			"/>
		</g>
	</g>
	<g>
		<g>
			<polygon class="st7" points="138.9,336.5 133,342.4 133,347.8 143,337.8 143,336.5 			"/>
		</g>
	</g>
	<g>
		<g>
			<polygon class="st7" points="133,336.5 133,339.6 136.1,336.5 			"/>
		</g>
	</g>
	<g>
		<g>
			<polygon class="st7" points="133,350.6 133,356 143,345.9 143,340.6 			"/>
		</g>
	</g>
	<g>
		<g>
			<polygon class="st7" points="143,387.6 143,357 133,367 133,387.6 125.9,387.6 138,399.7 150.1,387.6 			"/>
		</g>
	</g>
	<g>
		<g>
			<polygon class="st7" points="133,358.8 133,364.2 143,354.1 143,348.8 			"/>
		</g>
	</g>
	<g>
		<g>
			<polygon class="st7" points="180.5,336.5 174.6,342.4 174.6,347.8 184.6,337.8 184.6,336.5 			"/>
		</g>
	</g>
	<g>
		<g>
			<polygon class="st7" points="174.6,336.5 174.6,339.6 177.7,336.5 			"/>
		</g>
	</g>
	<g>
		<g>
			<polygon class="st7" points="174.6,350.6 174.6,356 184.6,345.9 184.6,340.6 			"/>
		</g>
	</g>
	<g>
		<g>
			<polygon class="st7" points="184.6,387.6 184.6,357 174.6,367 174.6,387.6 167.6,387.6 179.6,399.7 191.7,387.6 			"/>
		</g>
	</g>
	<g>
		<g>
			<polygon class="st7" points="174.6,358.8 174.6,364.2 184.6,354.1 184.6,348.8 			"/>
		</g>
	</g>
	<g>
		<g>
			<polygon class="st7" points="442.1,356.8 436.2,362.7 436.2,368.1 446.2,358.1 446.2,356.8 			"/>
		</g>
	</g>
	<g>
		<g>
			<polygon class="st7" points="436.2,356.8 436.2,359.9 439.2,356.8 			"/>
		</g>
	</g>
	<g>
		<g>
			<polygon class="st7" points="436.2,370.9 436.2,376.3 446.2,366.3 446.2,360.9 			"/>
		</g>
	</g>
	<g>
		<g>
			<polygon class="st7" points="446.2,407.9 446.2,377.3 436.2,387.3 436.2,407.9 429.1,407.9 441.2,420 453.2,407.9 			"/>
		</g>
	</g>
	<g>
		<g>
			<polygon class="st7" points="436.2,379.1 436.2,384.5 446.2,374.5 446.2,369.1 			"/>
		</g>
	</g>
	<g>
		<g>
			<polygon class="st7" points="421.3,336.5 415.4,342.4 415.4,347.8 425.4,337.8 425.4,336.5 			"/>
		</g>
	</g>
	<g>
		<g>
			<polygon class="st7" points="415.4,336.5 415.4,339.6 418.4,336.5 			"/>
		</g>
	</g>
	<g>
		<g>
			<polygon class="st7" points="415.4,350.6 415.4,356 425.4,345.9 425.4,340.6 			"/>
		</g>
	</g>
	<g>
		<g>
			<polygon class="st7" points="425.4,387.6 425.4,357 415.4,367 415.4,387.6 408.3,387.6 420.4,399.7 432.4,387.6 			"/>
		</g>
	</g>
	<g>
		<g>
			<polygon class="st7" points="415.4,358.8 415.4,364.2 425.4,354.1 425.4,348.8 			"/>
		</g>
	</g>
	<g>
		<g>
			<polygon class="st7" points="462.9,336.5 457,342.4 457,347.8 467,337.8 467,336.5 			"/>
		</g>
	</g>
	<g>
		<g>
			<polygon class="st7" points="457,336.5 457,339.6 460.1,336.5 			"/>
		</g>
	</g>
	<g>
		<g>
			<polygon class="st7" points="457,350.6 457,356 467,345.9 467,340.6 			"/>
		</g>
	</g>
	<g>
		<g>
			<polygon class="st7" points="467,387.6 467,357 457,367 457,387.6 449.9,387.6 462,399.7 474.1,387.6 			"/>
		</g>
	</g>
	<g>
		<g>
			<polygon class="st7" points="457,358.8 457,364.2 467,354.1 467,348.8 			"/>
		</g>
	</g>
	<g>
		<g>
			<polygon class="st7" points="291.1,361.3 295.5,369.1 300,376.8 304.5,369.1 308.9,361.3 			"/>
		</g>
	</g>
	<g>
		<g>
			<polygon class="st1" points="291.1,305.7 295.5,313.5 300,321.2 304.5,313.5 308.9,305.7 			"/>
		</g>
	</g>
	<g>
		<g>
			<path class="st6" d="M335.9,503c-6.9-13.7-20.6-22.1-35.9-22.1c-15.2,0-29,8.5-35.9,22.1l-0.7,1.4l0.7,1.4
				c6.9,13.7,20.6,22.1,35.9,22.1c15.3,0,29-8.5,35.9-22.1l0.7-1.3L335.9,503z M300,521.8c-12.5,0-23.7-6.7-29.8-17.5
				c6.1-10.8,17.4-17.5,29.8-17.5c12.5,0,23.7,6.7,29.8,17.5C323.7,515.1,312.5,521.8,300,521.8z"/>
		</g>
	</g>
	<g>
		<g>
			<path class="st6" d="M300,496.8c-4.1,0-7.5,3.3-7.5,7.5c0,4.1,3.3,7.5,7.5,7.5c4.1,0,7.5-3.3,7.5-7.5
				C307.5,500.2,304.1,496.8,300,496.8z"/>
		</g>
	</g>
	<g>
		<g>
			<path class="st6" d="M300,493.8c-5.8,0-10.5,4.7-10.5,10.5c0,5.8,4.7,10.5,10.5,10.5c5.8,0,10.5-4.7,10.5-10.5
				C310.5,498.5,305.8,493.8,300,493.8z M300,508.8c-2.5,0-4.5-2-4.5-4.5c0-2.5,2-4.5,4.5-4.5c2.5,0,4.5,2,4.5,4.5
				C304.5,506.8,302.5,508.8,300,508.8z"/>
		</g>
	</g>
	<g>
		<g>
			<path class="st2" d="M447.6,476.6c-4.8-4.8-12.7-4.8-17.6,0l-38.9,38.9l-11.9-11.9c-4.8-4.8-12.7-4.8-17.5,0
				c-4.8,4.8-4.8,12.7,0,17.5l20.7,20.7c2.4,2.4,5.6,3.6,8.8,3.6c3.2,0,6.4-1.2,8.8-3.6l47.7-47.7
				C452.4,489.3,452.4,481.4,447.6,476.6z"/>
		</g>
	</g>
	<g>
		<g>
			<path class="st1" d="M447.6,476.6c-4.8-4.8-12.7-4.8-17.6,0l-38.9,38.9l-11.9-11.9c-4.8-4.8-12.7-4.8-17.5,0
				c-0.1,0.1-0.2,0.2-0.3,0.3c0.1,0.1,0.2,0.2,0.3,0.3l20.7,20.7c2.4,2.4,5.6,3.6,8.8,3.6c3.2,0,6.4-1.2,8.8-3.6l47.7-47.7
				c0.1-0.1,0.2-0.2,0.3-0.3C447.8,476.8,447.7,476.7,447.6,476.6z"/>
		</g>
	</g>
	<g>
		<g>
			<path class="st6" d="M449.7,474.5c-6-6-15.8-6-21.8,0l-36.8,36.8l-9.8-9.8c-6-6-15.8-6-21.8,0c-2.9,2.9-4.5,6.8-4.5,10.9
				s1.6,8,4.5,10.9l20.7,20.7c2.9,2.9,6.8,4.5,10.9,4.5c4.1,0,8-1.6,10.9-4.5l47.7-47.7c2.9-2.9,4.5-6.8,4.5-10.9
				C454.2,481.3,452.6,477.4,449.7,474.5z M445.5,492l-47.7,47.7c-1.8,1.8-4.1,2.8-6.7,2.8c-2.5,0-4.9-1-6.7-2.8l-20.7-20.7
				c-1.8-1.8-2.8-4.1-2.8-6.6c0-2.5,1-4.9,2.8-6.7c1.8-1.8,4.2-2.8,6.7-2.8c2.4,0,4.8,0.9,6.6,2.7l11.9,11.9c1.2,1.2,3.1,1.2,4.2,0
				l38.9-38.9c3.7-3.7,9.6-3.7,13.3,0c1.8,1.8,2.8,4.1,2.8,6.7S447.3,490.2,445.5,492z"/>
		</g>
	</g>
	<g>
		<g>
			<rect x="79.6" y="159.6" class="st7" width="58.4" height="4"/>
		</g>
	</g>
	<g>
		<g>
			<rect x="79.6" y="170.9" class="st7" width="43.9" height="4"/>
		</g>
	</g>
	<g>
		<g>
			<rect x="79.6" y="182.2" class="st7" width="58.4" height="4"/>
		</g>
	</g>
	<g>
		<g>
			<rect x="79.6" y="193.5" class="st7" width="43.9" height="4"/>
		</g>
	</g>
	<g>
		<g>
			<rect x="79.6" y="204.8" class="st7" width="58.4" height="4"/>
		</g>
	</g>
	<g>
		<g>
			<rect x="462" y="159.6" class="st7" width="58.4" height="4"/>
		</g>
	</g>
	<g>
		<g>
			<rect x="476.6" y="170.9" class="st7" width="43.9" height="4"/>
		</g>
	</g>
	<g>
		<g>
			<rect x="462" y="182.2" class="st7" width="58.4" height="4"/>
		</g>
	</g>
	<g>
		<g>
			<rect x="476.6" y="193.5" class="st7" width="43.9" height="4"/>
		</g>
	</g>
	<g>
		<g>
			<rect x="462" y="204.8" class="st7" width="58.4" height="4"/>
		</g>
	</g>
</g>
</svg>
