<?xml version="1.0" encoding="utf-8"?>
<!-- Generator: Adobe Illustrator 23.0.3, SVG Export Plug-In . SVG Version: 6.00 Build 0)  -->
<svg version="1.1" id="Layer_1" xmlns="http://www.w3.org/2000/svg" xmlns:xlink="http://www.w3.org/1999/xlink" x="0px" y="0px"
	 viewBox="0 0 900 900" style="enable-background:new 0 0 900 900;" xml:space="preserve">
<style type="text/css">
	.st0{fill:#CEDFEF;}
	.st1{fill:#FFFFFF;}
	.st2{fill:#E8F0F9;}
	.st3{fill:#B2FF59;}
	.st4{fill:#F8BBD0;}
	.st5{fill:#1DE9B6;}
	.st6{fill:#F9D5CA;}
	.st7{fill:#1E88E5;}
	.st8{fill:#262626;}
	.st9{fill:#00BFA5;}
	.st10{fill:#033A7C;}
	.st11{fill:#42A5F5;}
</style>
<g>
	<g>
		<path class="st0" d="M680.1,480.5v321.9c0,30.3-28.3,55.1-63,55.1H282.9c-34.8,0-63-24.8-63-55.1V480.5c0-30.5,28.3-55.1,63-55.1
			h334.2C651.8,425.4,680.1,450,680.1,480.5z"/>
		<path class="st1" d="M679.9,484.3v314.2c0,5.9-1.1,11.6-3.2,16.9c-1.2,3.1-2.7,6.1-4.5,8.9c-3.8,6.1-9,11.5-15.1,15.8
			c-1.4,1-2.9,2-4.5,2.9c-4.6,2.7-9.7,4.9-15,6.4c-1.4,0.5-3,0.8-4.5,1.2c-4.7,1.1-9.7,1.6-14.9,1.6H292.2c-2.1,0-4.2,0-6.2-0.3
			c-1.5-0.1-3-0.3-4.5-0.6c-5.3-0.8-10.4-2.2-15.1-4.2c-1.5-0.6-3-1.2-4.5-2c-5.6-2.8-10.7-6.3-15.1-10.5c-1.6-1.5-3-3.1-4.4-4.7
			c-7.4-8.9-11.8-19.8-11.8-31.6V484.3c0-29.7,27.6-53.7,61.5-53.7h326.1C652.3,430.6,679.9,454.6,679.9,484.3z"/>
		<g>
			<path class="st2" d="M264.8,511.5h236.7c4.1,0,7.4-3.3,7.4-7.4l0,0c0-4.1-3.3-7.4-7.4-7.4H264.8c-4.1,0-7.4,3.3-7.4,7.4l0,0
				C257.4,508.2,260.7,511.5,264.8,511.5z"/>
			<path class="st2" d="M330,537.2h171.6c4.1,0,7.4-3.3,7.4-7.4l0,0c0-4.1-3.3-7.4-7.4-7.4H330c-4.1,0-7.4,3.3-7.4,7.4l0,0
				C322.5,533.9,325.9,537.2,330,537.2z"/>
			<path class="st2" d="M264.8,562.8h160.7c4.1,0,7.4-3.3,7.4-7.4l0,0c0-4.1-3.3-7.4-7.4-7.4H264.8c-4.1,0-7.4,3.3-7.4,7.4l0,0
				C257.4,559.5,260.7,562.8,264.8,562.8z"/>
			<path class="st2" d="M264.8,537.2h40.7c4.1,0,7.4-3.3,7.4-7.4l0,0c0-4.1-3.3-7.4-7.4-7.4h-40.7c-4.1,0-7.4,3.3-7.4,7.4l0,0
				C257.4,533.9,260.7,537.2,264.8,537.2z"/>
			<path class="st2" d="M450,562.8h51.6c4.1,0,7.4-3.3,7.4-7.4l0,0c0-4.1-3.3-7.4-7.4-7.4H450c-4.1,0-7.4,3.3-7.4,7.4l0,0
				C442.5,559.5,445.9,562.8,450,562.8z"/>
		</g>
		<g>
			<path class="st2" d="M246.9,709.7v125.2c-1.6-1.5-3-3.1-4.4-4.7V709.7H246.9z"/>
			<path class="st2" d="M266.4,668.8v178.5c-1.5-0.6-3-1.2-4.4-2V668.8H266.4z"/>
			<path class="st2" d="M286,637.1V852c-1.5-0.1-3-0.3-4.4-0.5V637.1H286z"/>
			<rect x="301.1" y="621.7" class="st2" width="4.4" height="230.6"/>
			<rect x="320.6" y="623.8" class="st2" width="4.4" height="228.5"/>
			<rect x="340.2" y="641.4" class="st2" width="4.4" height="210.8"/>
			<rect x="359.7" y="664.5" class="st2" width="4.4" height="187.8"/>
			<rect x="379.2" y="688.6" class="st2" width="4.4" height="163.6"/>
			<rect x="398.8" y="712.6" class="st2" width="4.4" height="139.7"/>
			<rect x="418.3" y="719.3" class="st2" width="4.4" height="132.9"/>
			<rect x="437.8" y="713.4" class="st2" width="4.4" height="138.9"/>
			<rect x="457.4" y="691.9" class="st2" width="4.4" height="160.3"/>
			<rect x="476.9" y="675.4" class="st2" width="4.4" height="176.9"/>
			<rect x="496.4" y="664.5" class="st2" width="4.4" height="187.8"/>
			<rect x="516" y="674.4" class="st2" width="4.4" height="177.9"/>
			<rect x="535.5" y="693.5" class="st2" width="4.4" height="158.8"/>
			<rect x="555.1" y="711.6" class="st2" width="4.4" height="140.6"/>
			<rect x="574.6" y="717.9" class="st2" width="4.4" height="134.3"/>
			<rect x="594.1" y="699.8" class="st2" width="4.4" height="152.5"/>
			<rect x="613.7" y="656" class="st2" width="4.4" height="196.3"/>
			<path class="st2" d="M637.6,610v239.5c-1.4,0.5-2.9,0.8-4.4,1.2V610H637.6z"/>
			<path class="st2" d="M657.1,575.3v264.9c-1.4,1-2.9,2-4.4,2.9V575.3H657.1z"/>
			<path class="st2" d="M676.7,561.3v254.1c-1.1,3.1-2.6,6.1-4.4,8.9v-263H676.7z"/>
		</g>
		<path class="st3" d="M679.9,554.5v4.1c-22.6,7.1-41.1,56.6-56.1,93.5c-12.6,31.1-23.5,58-36.6,66.1c-20,12.5-37.4-6.2-52.8-22.6
			c-10.9-11.6-22.1-23.6-33.2-25.2c-13.1-2-25.9,12.3-38.3,26.1c-12.7,14-25.7,28.5-41.4,28.8c-17.8-0.1-34-20.8-52.7-45.1
			c-14.8-19.2-31.6-41-50.4-53.3c-4-2.6-8-3.2-12.4-1.9c-28.8,8.6-65.3,90.7-75.2,122l0,0v-13.5c10.8-30.5,40.6-106.4,72.4-115.9
			c7.1-2.1,14.2-1.1,20.5,3.1c20,13,37.2,35.4,52.4,55.1c16.7,21.6,32.3,41.8,45.2,41.7c11.5-0.2,23.3-13.2,34.7-25.8
			c14.1-15.6,28.6-31.6,46.7-28.9c14.3,2.1,26.6,15.3,38.5,28c17.2,18.4,28.5,29,40.8,21.3c10.8-6.8,22.3-35.1,33.4-62.5
			C633.3,605.6,651.8,560.3,679.9,554.5z"/>
		<g>
			<g>
				<path class="st4" d="M320.2,620.4c0-5.3-4.9-9.7-11-9.7c-6.1,0-11,4.3-11,9.7c0,5.4,4.9,9.7,11,9.7
					C315.2,630.1,320.2,625.8,320.2,620.4z"/>
			</g>
			<g>
				<path class="st4" d="M432.9,719.3c0-5.3-4.9-9.7-11-9.7c-6.1,0-11,4.3-11,9.7c0,5.3,4.9,9.7,11,9.7
					C428,729,432.9,724.7,432.9,719.3z"/>
			</g>
			<g>
				<path class="st4" d="M509,665.7c0-5.4-4.9-9.7-11-9.7c-6.1,0-11,4.3-11,9.7c0,5.3,4.9,9.7,11,9.7C504,675.4,509,671,509,665.7z"
					/>
			</g>
			<g>
				<path class="st4" d="M587,716.4c0-5.3-4.9-9.7-11-9.7c-6.1,0-11,4.3-11,9.7c0,5.3,4.9,9.7,11,9.7C582,726,587,721.7,587,716.4z"
					/>
			</g>
		</g>
		<rect x="547.5" y="537.2" class="st3" width="79" height="25.7"/>
		<rect x="547.5" y="498.7" class="st4" width="79" height="25.7"/>
	</g>
	<g>
		<path class="st5" d="M478.4,177.1c0,0,43.9-2.4,70.4,15.7c26.5,18.1,80.7,102.3,81.9,110.2c1.2,7.8-73.4,105.9-73.4,105.9
			l-12.6-18.1c0,0,41.5-71,40.3-82.5c-1.2-11.4-31.9-42.7-36.1-42.7s5.7,95.7,5.7,95.7s-59.3,39.7-142.3,17.5c0,0,0-104.7,0-124.6
			c0-19.9-44,47.6-42.2,56c1.8,8.4,37.3,41.5,37.3,41.5l-8.4,22.9c0,0-63.8-43.3-65-70.4c-1.2-27.1,57.2-99.9,78.3-112.6
			C433.2,178.9,478.4,177.1,478.4,177.1z"/>
		<path class="st6" d="M434,99.2c0,0-1.8,57.5,44.3,60.8c46.2,3.3,41.4-78.4,41.4-78.4l-51.3-25.3L434,99.2z"/>
		<path class="st7" d="M403.9,381.8c0,0-8.6,35,1.4,48.1c7.1,9.4,143.3,10.7,150.1,1.1c8.9-12.8,4.1-57.2,0.4-57.6
			C552,372.9,403.9,381.8,403.9,381.8z"/>
		<path class="st8" d="M525.8,99L525.8,99c3.4-10.1,6.2-26.3-4.7-37.7c-13.6-14.2-29.9-17.4-46.1-12.9c0.9-2.9,3-6,3-6
			c-10,1.3-12.7,6.8-13.5,10c-0.4,0.2-4.2-3.3-15.2-0.9c0,0,2.9,1.1,5.1,2.7c-10.9,2.4-28.2,8.8-29.2,26.6
			c-1.5,26,13.6,38.9,13.6,38.9s-6.6-30.1,34.8-36.7c31.2,31.5,59,26.1,59,26.1C522.8,108.7,525.8,99,525.8,99z"/>
		<g>
			<path class="st2" d="M560.6,407.3H398.2l-12.1-108.5c-0.4-3.2,2.2-6.1,5.4-6.1h175.6c3.2,0,5.8,2.8,5.4,6.1L560.6,407.3z"/>
			<rect x="397.9" y="407.3" class="st0" width="162.7" height="6"/>
		</g>
		<path class="st6" d="M495,146.6c2-10.8-33.2,2.4-33.2,2.4s-0.5,20.5-6.4,30.8c0,0,1.1,0.5,2.9,1.2l20.5,14.4l17.9-7.5l5.1-10.1
			C501.8,178,493,157.4,495,146.6z"/>
		<polygon class="st4" points="467.6,195.5 490.6,195.5 484.7,209.1 495.6,275.4 483.6,285.7 468.8,275.3 473.8,209.1 		"/>
		<polygon class="st9" points="455.7,179.2 478.9,195.5 457.4,209.1 448,180.4 		"/>
		<polygon class="st9" points="501.8,178 478.3,195.5 499.8,209.1 509.4,178.9 		"/>
		<g>
			<path class="st10" d="M437.4,661.3l21.8,0.9c0,0,7.6,27.3,5.9,41.5c-1.6,13.2-24.2,17.9-32.9,4.7
				C423.3,695.2,437.4,661.3,437.4,661.3z"/>
			<path class="st6" d="M458.3,641.8c0.2,0.5,0.5,12.8,0.9,20.4c1.1,6.6-16.5,21.7-21.8-0.9l-0.5-18.8L458.3,641.8z"/>
			<path class="st1" d="M447.7,683.6c-5.1,0-9-1.8-9.3-1.9c-0.9-0.4-1.3-1.5-0.9-2.5c0.4-0.9,1.5-1.3,2.5-0.9c0.1,0,7.7,3.4,14.6,0
				c0.9-0.5,2-0.1,2.5,0.9c0.5,0.9,0.1,2-0.8,2.5C453.3,683.2,450.4,683.6,447.7,683.6z"/>
			<path class="st1" d="M447.8,695.1c-5.8,0-10.3-2-10.6-2.2c-1.1-0.5-1.5-1.7-1-2.8c0.5-1.1,1.7-1.5,2.8-1c0.1,0,8.7,3.9,16.6,0
				c1-0.5,2.3-0.1,2.8,1c0.5,1.1,0.1,2.3-1,2.8C454.1,694.6,450.8,695.1,447.8,695.1z"/>
		</g>
		<g>
			<path class="st10" d="M506.4,657.9l21.8,0.9c0,0,7.6,27.3,5.9,41.5c-1.6,13.2-24.2,17.9-32.9,4.7
				C492.3,691.9,506.4,657.9,506.4,657.9z"/>
			<path class="st6" d="M527.3,638.5c0.2,0.5,0.5,12.8,0.9,20.4c1.1,6.6-16.5,21.7-21.8-0.9l-0.5-18.8L527.3,638.5z"/>
			<path class="st1" d="M516.7,680.3c-5.1,0-9-1.8-9.3-1.9c-0.9-0.4-1.3-1.5-0.9-2.5c0.4-0.9,1.5-1.3,2.5-0.9c0.1,0,7.7,3.4,14.6,0
				c0.9-0.5,2-0.1,2.5,0.8c0.5,0.9,0.1,2-0.8,2.5C522.3,679.8,519.3,680.3,516.7,680.3z"/>
			<path class="st1" d="M516.7,691.7c-5.8,0-10.3-2-10.6-2.2c-1.1-0.5-1.5-1.7-1-2.8c0.5-1.1,1.7-1.5,2.8-1c0.1,0,8.7,3.9,16.6,0
				c1-0.5,2.3-0.1,2.8,1c0.5,1,0.1,2.3-1,2.8C523.1,691.2,519.7,691.7,516.7,691.7z"/>
		</g>
		<path class="st11" d="M430.4,645.3l-21.9-196.2c-2.7-20.8,13.2-39.4,34.2-40.2l0,0c20.6-0.7,37.6,16.2,36.8,36.9l-11,198.2
			L430.4,645.3z"/>
		<path class="st11" d="M496,645.1l-19.3-196.4c-2.4-20.9,13.7-39.3,34.7-39.7l0,0c20.6-0.4,37.3,16.7,36.4,37.3l-13.6,198
			L496,645.1z"/>
	</g>
</g>
</svg>
