<?xml version="1.0" encoding="utf-8"?>
<!-- Generator: Adobe Illustrator 23.0.3, SVG Export Plug-In . SVG Version: 6.00 Build 0)  -->
<svg version="1.1" id="Layer_1" xmlns="http://www.w3.org/2000/svg" xmlns:xlink="http://www.w3.org/1999/xlink" x="0px" y="0px"
	 viewBox="0 0 900 900" style="enable-background:new 0 0 900 900;" xml:space="preserve">
<style type="text/css">
	.st0{fill:#FFFFFF;}
	.st1{fill:#90A4AE;}
	.st2{fill:#78909C;}
	.st3{fill:#D2DBEA;}
	.st4{fill:#194866;}
	.st5{fill:#FCD2C5;}
	.st6{fill:#2D5EEA;}
	.st7{fill:#536DFE;}
	.st8{fill:#86C0F2;}
	.st9{fill:#D2D9E9;}
	.st10{fill:#B0BFDD;}
	.st11{fill:#3EC7C9;}
	.st12{fill:#0E2529;}
</style>
<path class="st0" d="M353.5,274.7v-11.5l-9.2-0.8c-0.5-2.9-1.2-5.7-2.3-8.4l7.6-5.3l-5.7-9.9l-8.4,3.9c-1.8-2.3-3.9-4.3-6.1-6.1
	l3.9-8.4l-9.9-5.7l-5.3,7.6c-2.7-1-5.5-1.8-8.4-2.3l-0.8-9.2h-11.5l-0.8,9.2c-2.9,0.5-5.7,1.2-8.4,2.3l-5.3-7.6l-9.9,5.7l3.9,8.4
	c-2.3,1.8-4.3,3.9-6.1,6.1l-8.4-3.9l-5.7,9.9l7.6,5.3c-1,2.7-1.8,5.5-2.3,8.4l-9.2,0.8v11.5l9.2,0.8c0.5,2.9,1.2,5.7,2.3,8.4
	l-7.6,5.3l5.7,9.9l8.4-3.9c1.8,2.3,3.9,4.3,6.1,6.1l-3.9,8.4l9.9,5.7l5.3-7.6c2.7,1,5.5,1.8,8.4,2.3l0.8,9.2h11.5l0.8-9.2
	c2.9-0.5,5.7-1.2,8.4-2.3l5.3,7.6l9.9-5.7l-3.9-8.4c2.3-1.8,4.3-3.9,6.1-6.1l8.4,3.9l5.7-9.9l-7.6-5.3c1-2.7,1.8-5.5,2.3-8.4
	L353.5,274.7z M303.2,295.6c-14.7,0-26.6-11.9-26.6-26.6c0-14.7,11.9-26.6,26.6-26.6c14.7,0,26.6,11.9,26.6,26.6
	C329.9,283.7,317.9,295.6,303.2,295.6z"/>
<g>
	<g>
		<g>
			<rect x="105.6" y="151.6" class="st1" width="674.9" height="445.4"/>
		</g>
		<g>
			<rect x="105.6" y="124" class="st2" width="674.9" height="47.1"/>
		</g>
		
			<rect x="269.7" y="79.3" transform="matrix(-1.836970e-16 1 -1 -1.836970e-16 822.9057 -61.3363)" class="st0" width="344.9" height="602.9"/>
		
			<rect x="427" y="-30.4" transform="matrix(-1.836970e-16 1 -1 -1.836970e-16 684.1922 -200.0481)" class="st3" width="30.1" height="544.9"/>
		<g>
			
				<rect x="373.6" y="464.2" transform="matrix(-1 -1.224647e-16 1.224647e-16 -1 916.4236 982.6096)" class="st3" width="169.3" height="54.2"/>
		</g>
		<g>
			<g>
				<rect x="496" y="474.8" class="st0" width="31.5" height="7.9"/>
			</g>
			<g>
				<rect x="411.3" y="474.8" class="st0" width="69" height="7.9"/>
			</g>
			<g>
				<rect x="388.9" y="474.8" class="st0" width="14.3" height="7.9"/>
			</g>
			<g>
				<rect x="388.9" y="487.3" class="st0" width="47.5" height="7.9"/>
			</g>
			<g>
				<rect x="516.1" y="487.3" class="st0" width="11.3" height="7.9"/>
			</g>
			<g>
				<rect x="447.6" y="487.3" class="st0" width="62.7" height="7.9"/>
			</g>
			<g>
				<rect x="489.7" y="499.9" class="st0" width="37.8" height="7.9"/>
			</g>
			<g>
				<rect x="388.9" y="499.9" class="st0" width="93.2" height="7.9"/>
			</g>
		</g>
		<g>
			<path class="st0" d="M763.8,156.8c0,2.8-2.1,5-4.7,5s-4.7-2.2-4.7-5c0-2.8,2.1-5,4.7-5S763.8,154,763.8,156.8z"/>
		</g>
		<g>
			<path class="st0" d="M744.8,156.8c0,2.8-2.1,5-4.7,5s-4.7-2.2-4.7-5c0-2.8,2.1-5,4.7-5S744.8,154,744.8,156.8z"/>
		</g>
		<g>
			<rect x="181.8" y="249.5" class="st4" width="496.2" height="2.9"/>
		</g>
		<g>
			<g>
				<polygon class="st4" points="702.5,253.1 695.8,246 697.7,244 704.4,251.1 				"/>
			</g>
			<g>
				<path class="st4" d="M692.8,247.8c-4.2,0-7.7-3.6-7.7-8.1s3.4-8.1,7.7-8.1c4.2,0,7.7,3.6,7.7,8.1S697.1,247.8,692.8,247.8z
					 M692.8,234.4c-2.7,0-4.9,2.3-4.9,5.2s2.2,5.2,4.9,5.2c2.7,0,4.9-2.3,4.9-5.2S695.6,234.4,692.8,234.4z"/>
			</g>
		</g>
	</g>
	<g>
		<g>
			<path class="st5" d="M638.9,457.2c1.5,1.4,3.2,2.6,5,3.4c-2.1-0.6-2.3,0.8-4.6,0.5c-0.9-0.4-3.3-3.9-2.6-4.7
				C637.5,455.2,638.1,456.3,638.9,457.2z"/>
			<path class="st5" d="M629.3,459.2c0.4,0,6.7,0.1,9.4,0.5c2.3,0.3,4.7,0.7,6.8,1.3c0.1,0,0.8,8,0.4,10.6
				c-3.9-0.4-15.9-2.8-16.2-2.8c-4.9,0-6-1.6-5.1-2.7c0.2-0.3-3-1.4-2.3-2.6c0,0-0.9-0.7-0.6-1.8c0.2-0.8,1.6-2.1,2.2-2.3
				C624.9,459,628,459.3,629.3,459.2z"/>
			<path class="st5" d="M756.4,405.8c1.6-1.2,9.1,12.1,10.1,16.1c2.3,9.4-34.1,42-50.6,48.6c-6.3,2.5-21.3-4.7-4.8-18.6
				C724.5,440.6,747.4,412.3,756.4,405.8z"/>
			<path class="st5" d="M712.5,455c0.6,0,1.4,0.1,2.2,0.4c3.5,1.3,7.6,5.3,4.5,12.5c-3.4,7.9-54.6,6.4-74.9,3.4
				c0.6-2.7,0.7-6.2,0.5-10.5C657.1,462.9,700.7,455,712.5,455z"/>
			<path class="st6" d="M708.3,452.5c0.9-1,33-35.3,42.3-49.3c6.1-9.1,26.2,9.1,21.9,20.4c-4.6,11.9-40.7,42.9-53.6,48.4
				c-12.5,5.4-53.7,4.5-71.1,2.2c0,0,2.2-2.1,2.4-7.2c0.2-5.3-1.4-8.1-1.4-8.1C667.7,457.6,703.4,453.1,708.3,452.5z"/>
		</g>
		<path class="st4" d="M770.1,391.7c-1.1-7.6-1.3-17.9-2.8-23.6c-0.1-0.2-10.2-12.4-14-6.5c-2.6,7.3,1.3,23.2-2.9,34.2
			C748.8,399.7,770.3,393.4,770.1,391.7z"/>
		<path class="st4" d="M845.1,782.2c0.2-2.4,9.1-7.9,11.2-6.1c1.1,0.9,3.9,1.9,3.7,5.1c-0.3,3.5-3.3,3-5.5,9.3
			c-0.9,2.6-1.7,5.5-5.9,8.8c-3.4,2.6-12.7,2-14.4,0.2C830.7,795.9,844.4,791.9,845.1,782.2z"/>
		<path class="st5" d="M856.3,776.1c0,0-0.7,4.2-4.4,6c-6.3,3-6.8,0.2-6.8,0.2c-0.1-2.6-1.1-5.1-1.1-5.1l9.6-4.8
			C853.5,772.2,854.1,774.1,856.3,776.1z"/>
		<path class="st5" d="M814,629.1c0.8-25.3,0-50.1,1.3-83.9l-49.3-4c3.9,37.9,14.4,89.7,14.4,89.7c3.4,35.8,47.9,96.8,64.1,147.8
			c0,0,5.1-1.5,9.1-6.5C823.9,651,813.6,641.1,814,629.1z"/>
		<path class="st5" d="M780.1,549.2l-51.5,16.4c3.8,38.3,8.7,53.2,10.7,78c5.5,68.2,7.8,141.1,7.8,141.1s3.7,3.2,9.6,2.1
			c0,0,15.4-98.5,11.7-140.4C766.1,619.1,778,614.5,780.1,549.2z"/>
		<path class="st5" d="M785.4,366.1c1.3,4.6,1.3,22.7,3.3,25.8c-4.5,11.2-21.5,11.5-22.8,5c5.2-5.7,1.2-18-0.6-21.3
			C769.5,376.2,784,367.2,785.4,366.1z"/>
		<path class="st7" d="M765.8,396.9c0,0-0.1,1.9,3.9,3.2c6.3,2.1,19-8.2,19-8.2c10.7,4.3,23,11.7,23.2,27
			c0.2,13.4-5.7,46.7-1.9,74.2c4.9,34.4,19.8,75.5,24.3,120.6c-41.7,20.1-98.9,7.1-117.9-4.1c7.7-45.6,24.8-74.5,27.3-149.7
			c0.2-4.5-11.7-9-10.2-20.9c1.4-10.5,11.3-16.9,16.7-35.4C752.4,396.3,765.8,396.9,765.8,396.9z"/>
		<g>
			<path class="st5" d="M776,558.5c0.2-0.4,2.9-6.3,4.4-8.8c1.2-2.1,2.6-4.1,4-5.9c0.1-0.1,7.2,2.6,9.2,4.1c-2,3.5-9.2,14-9.3,14.3
				c-2,4.7-3.9,5.1-4.5,3.7c-0.1-0.3-2.5,2.3-3.3,1.1c0,0-1,0.6-1.8-0.2c-0.6-0.6-1.1-2.5-1-3.1C773.9,562.7,775.5,559.7,776,558.5z
				"/>
			<path class="st5" d="M791.5,412.2c-0.3-2.1,15-4.8,18.9-4c9,1.8,13.5,53.5,12.2,72.1c-0.5,7.1-13.1,18.4-17.9-3.3
				C800.7,459.4,793.2,423.6,791.5,412.2z"/>
			<path class="st5" d="M807.9,477c0.3-0.6,0.7-1.3,1.3-1.9c2.6-2.8,7.8-5,12.6,1c5.3,6.6-17.8,55.1-29,73.2c-2-1.7-5.1-3.3-8.8-4.9
				C791,533.5,802.8,488.3,807.9,477z"/>
			<path class="st6" d="M804.2,480.3c-4.2-16.7-14.7-58.3-14.7-67.2c0-4.1,5.7-14.7,19.7-7.3c10.9,5.7,16.9,57.9,16.1,72.7
				c-0.6,14.3-19,53.3-28.4,69c0,0-2.1-3.3-5.2-5.5c-3.4-2.4-7.4-1.9-7.4-1.9C786.7,531.2,802.5,485.2,804.2,480.3z"/>
			<path class="st5" d="M778.4,548.5c1.8-0.8,3.6-1.9,5.1-3.3c1.3,0.1,1.9,2.7,0.5,4c-0.7,0.6-6.8,2.2-7.2,1.2
				C776.1,549,777.4,548.9,778.4,548.5z"/>
		</g>
		<path class="st5" d="M768.2,343.5c8.3,0.4,15.9,8.5,15.5,17.3c0,0.1-1.5,9.8-1.5,9.8c-0.3,6.6-10.3,16.5-15.7,15
			c-12.7-3.5-14.3-28.4-13.8-31.2C754.3,346.5,760.5,343.1,768.2,343.5z"/>
		<path class="st4" d="M754.7,370c-3-18.4,3.9-24.5,3.9-24.5s9.4-2.6,17.1,4.8c8,7.6,8.2,39.7,5.5,50.6c-1.4,5.6,18.7-1.1,22.2-9.6
			c10.7-26.2,2.6-46.2-5.8-55.3c-8.7-9.5-28.2-12.7-33.3-0.6c0,0-3.8-1-8,1.4C747.3,341.7,747.7,363.2,754.7,370z"/>
		<path class="st5" d="M782.7,358.1c2.1,0.4,3.6,4.5,2.3,7.5c-0.9,1.9-2.3,4-4.4,4.2c-0.4-2.5-1.2-7.6-1.3-10.7
			C780.5,357.8,781.9,357.9,782.7,358.1z"/>
		<path class="st4" d="M857.4,793.8c0,0.2,0.8,0.3,0.9,0.1c0.4-0.8,1.7-13.2,1.7-13.2l-1.8-0.1C858.2,780.5,857.3,792.2,857.4,793.8
			z"/>
		<path class="st4" d="M746.3,781.5c0.9-2.2,11.2-3.9,12.5-1.4c0.7,1.3,3.1,3,3.1,6.2c0,5-4.8,3-8.1,6.7c-1.8,2-6.8,6.6-11.2,6.6
			c-4.2,0-10.5-0.5-11.5-2.8C729.1,792.1,741.7,792.4,746.3,781.5z"/>
		<path class="st5" d="M757.3,774.6c0,0,0.6,3.7,1.5,5.4c0,0-8,3.7-10.1,3.9c-4,0.3-2.9-1.7-2.5-2.4c1.7-2.8,0.7-6.1,0.7-6.1
			L757.3,774.6z"/>
		<path class="st4" d="M757.5,799.3c0.1,0.2,0.9,0.2,0.9,0c0.9-5.3,2.7-10.6,2.7-10.6l-1.8-2.8C759.3,786,757.2,798.2,757.5,799.3z"
			/>
	</g>
	<g>
		<g>
			<path class="st8" d="M575.3,427.5c0.3,0.3,0.5,0.6,0.8,0.8l86.2,84c6.1,6,15.6,5.5,21.2-0.9c5.6-6.4,5.2-16.5-0.9-22.4l-86.1-84
				c-0.3-0.3-0.6-0.5-0.9-0.8c-2.6,4.4-5.7,8.6-9.1,12.6C583,420.8,579.2,424.3,575.3,427.5z"/>
			<path class="st9" d="M544,319.4c-2.6-0.5-5.3-0.8-8-0.8c-2.7,0-5.4,0.3-8,0.8c-20.9,3.9-36.8,23.3-36.9,46.5
				c-0.1,23.4,16,42.9,37,46.8c2.5,0.5,5,0.7,7.6,0.7c2.6,0,5.1-0.2,7.6-0.7c21.1-3.8,37.2-23.2,37.3-46.6
				C580.7,342.9,564.9,323.5,544,319.4z"/>
			<path class="st6" d="M540.9,337.1c-1.6-0.3-3.3-0.5-5-0.5c-1.7,0-3.4,0.2-5,0.5c-13,2.5-22.9,14.5-22.9,28.9
				c0,14.6,9.9,26.7,23,29.1c1.5,0.3,3.1,0.4,4.7,0.4c1.6,0,3.2-0.1,4.7-0.4c13.1-2.3,23.1-14.4,23.2-29
				C563.8,351.6,553.9,339.6,540.9,337.1z"/>
			<path class="st4" d="M600.5,465.8l36.9,35.9c4.9,4.8,12.6,4.4,17.1-0.8l16.8-19.5c4.5-5.2,4.2-13.3-0.7-18l-36.9-35.9
				c-4.9-4.8-12.6-4.4-17.1,0.8l-16.8,19.5C595.2,453,595.6,461,600.5,465.8z"/>
			<path class="st6" d="M642.5,492.3c-1.4-1.4-1.5-3.7-0.2-5.2l14.8-17.1c1.3-1.5,3.5-1.6,4.9-0.2l0,0c1.4,1.4,1.5,3.7,0.2,5.2
				L647.5,492C646.2,493.5,643.9,493.6,642.5,492.3L642.5,492.3z"/>
			<path class="st6" d="M625.7,475.9c-1.4-1.4-1.5-3.7-0.2-5.2l14.8-17.1c1.3-1.5,3.5-1.6,5-0.2l0,0c1.4,1.4,1.5,3.7,0.2,5.2
				l-14.8,17.1C629.3,477.2,627.1,477.3,625.7,475.9L625.7,475.9z"/>
			<path class="st6" d="M608.8,459.5c-1.4-1.4-1.5-3.7-0.2-5.2l14.8-17.1c1.3-1.5,3.5-1.6,5-0.2l0,0c1.4,1.4,1.5,3.7,0.2,5.2
				l-14.8,17.1C612.4,460.8,610.2,460.9,608.8,459.5L608.8,459.5z"/>
			<g id="XMLID_79_">
				<g>
					<g>
						<path class="st4" d="M473.2,397.8l-9.8,7.5l14.9,21.9l9.8-7.5c7.2,7.3,15.6,12.7,24.6,16.1l-1.9,12.6l25.1,4.3l1.9-12.6
							c7.5-0.2,15.1-1.7,22.4-4.5c1.9-0.7,3.8-1.5,5.6-2.5c0.1,0,0.1-0.1,0.2-0.1l7,10.4l20.7-15.8l-7.1-10.4c1.8-2,3.5-4.1,5.1-6.3
							c4.4-6.1,7.8-12.8,10.2-19.8l11.9,2l4.1-26.6l-11.9-2c-0.2-10.1-2.4-20.3-6.7-29.8l9.8-7.5l-14.9-21.9l-9.8,7.5
							c-7.2-7.3-15.6-12.7-24.6-16.1l1.9-12.6l-25.1-4.3l-1.9,12.6c-9.6,0.2-19.2,2.5-28.2,7.1l-7.1-10.4l-20.6,15.8l7.1,10.4
							c-1.8,2-3.5,4.1-5.1,6.3c-4.4,6.1-7.8,12.8-10.2,19.8l-11.9-2l-4.1,26.6l11.9,2C466.7,378.1,468.9,388.3,473.2,397.8z
							 M495.3,333.2c3-4.2,6.6-8,10.9-11.2c23.1-17.6,55.2-12.1,71.9,12.3c13.6,20,12.6,46.4-0.8,65c-3,4.2-6.6,8-10.9,11.2
							c-2.4,1.9-5,3.5-7.6,4.8c-1.8,1-3.7,1.8-5.6,2.5c-21,7.7-45.1,0.4-58.7-19.6C480.9,378.2,481.9,351.8,495.3,333.2z"/>
					</g>
				</g>
			</g>
		</g>
		<path class="st10" d="M338.5,360c-6.5-3.6-35.6-10.7-41.7-14.7c-2.7-1.8-4.6-4.8-4.4-8.4c0.2-3.9,2.9-6.4,6-8
			c6.5-3.3,16.1-3.6,22.7-0.4c3,1.4,5.2,3.8,6.6,6.9c0.9,1.8,1.4,3.7,1.8,5.7c0.3,1.2,0,1.5,0.8,1.7c1.3,0.4,20.2-0.7,20.6-1
			c0.7-0.4,0.4-1,0.3-2.1c-0.6-7.9-3.5-15.4-8.8-21.1c-4.9-5.2-11.3-8.2-18-9.6c-8.4-1.8-17.4-1.9-25.8-0.2
			c-7.7,1.6-15.3,5.1-20.4,11.7c-5.3,6.8-7.4,15.8-5.9,24.5c1.3,7.6,5.7,14.4,11.6,18.8c6.2,4.6,34.2,12,40.4,14.6
			c3.3,1.4,6.6,3.4,7.9,7.1c1.4,3.8,0.6,8.2-1.6,11.4c-4.6,7-13.2,8.5-20.7,8c-7.4-0.4-14.1-3.8-17.8-10.8c-0.9-1.8-1.6-3.6-2.2-5.5
			c-0.3-1-1.2-5.2-1.2-5.2l-20.8,2.1c0,0,2.9,19.3,12.1,28c7.2,6.8,16.8,9.7,26.2,10.4c17,1.3,38.3-1.2,46-21.1
			C358.8,385.9,352.8,368,338.5,360z"/>
		<g>
			<polygon class="st10" points="388.7,372.6 442,372.6 442,353.6 388.7,353.6 388.7,328.7 446,328.7 446,309.6 367.2,309.6 
				367.2,422.2 448.1,422.2 448.1,403.2 388.7,403.2 			"/>
		</g>
	</g>
	<g>
		<rect x="39.7" y="341.3" class="st3" width="145.4" height="99"/>
	</g>
	<g>
		<g>
			<path class="st11" d="M69,390.2c0-0.1,0-0.1,0-0.2c0-0.1,0-0.1,0-0.2V390.2z"/>
			<path class="st11" d="M126.8,360.5H96.7c-15.6,0-27.6,13.1-27.7,29.6c0.1,16.5,12.1,30,27.7,30h30.1c15.6,0,28.4-13.3,28.4-29.8
				C155.2,373.8,142.4,360.5,126.8,360.5z"/>
		</g>
		<g>
			<polygon class="st0" points="101.9,408.1 132.5,389.4 101.9,370.6 			"/>
		</g>
	</g>
	<g>
		<g>
			<g>
				<path class="st3" d="M634.4,591.3c-4.6-4.7-12.1-6.6-17.4-2.9c-10.2,7.2-3.2,17.6-1.3,23.4c8.1,24.4-18.2,22.9-24.7,41.7
					c-3.4,10,16.3,37.6,15.6,39.9c-1.1,3.6-4.1,5.5-7.4,6.6c-3.3,1.2-8.2,5.9-8.2,12.7c0,17.9,15.5,27.4,26.1,30.2
					c9.6,2.5,30.4,1.2,38.3-8.2c7.9-9.4,9.2-21.2,6.6-33.6c-1.3-6-7-16.2-6.2-22.9c1.3-11.2,9-20.8,11-28c2-7.2,1.2-16.7-4.5-22.1
					C647.8,614.5,638.2,595.2,634.4,591.3z"/>
			</g>
			<path class="st4" d="M628.6,642.8c-0.4,8.1-0.5,16.3-0.7,24.4c-0.1,8.1-0.1,16.3-0.2,24.4l0.2,24.4c0.1,8.1,0.3,16.3,0.7,24.4
				c0.4-8.1,0.5-16.3,0.7-24.4l0.2-24.4c-0.1-8.1-0.1-16.3-0.2-24.4C629.2,659.1,629,651,628.6,642.8z"/>
			<path class="st4" d="M642.1,672.9c-1.7,2.1-3.4,4.4-5,6.6c-3.2,4.5-6.3,9.1-9,14c3.8-4,7.1-8.4,10.4-12.9
				c1.6-2.2,3.2-4.5,4.7-6.8c1.5-2.3,2.9-4.7,4.6-6.8C645.6,668.6,643.8,670.8,642.1,672.9z"/>
			<path class="st4" d="M626,721.2c-1.1-1.7-2.3-3.2-3.6-4.8c-2.6-3-5.4-5.8-8.7-8.1c2.3,3.3,4.9,6.3,7.4,9.3c1.3,1.5,2.6,3,3.9,4.4
				l2,2.2c0.7,0.7,1.2,1.5,1.5,2.5c0.2-1.1-0.3-2.1-0.8-3C627.1,722.9,626.6,722.1,626,721.2z"/>
			<path class="st4" d="M615,649.2c1.9,4,3.8,7.9,5.9,11.8c2.1,3.8,4.3,7.7,7.3,11c-1.8-4.1-3.7-8-5.8-11.9
				C620.2,656.3,618,652.4,615,649.2z"/>
		</g>
		<g>
			<g>
				<path class="st4" d="M608.6,711.8c-0.8-1.6-0.9-2.9-0.7-4.3c0.4-2.7,1.4-3.6,2.3-6c0.9-2.5,1.5-4.8,0.1-7.7
					c-2.7-5.6-10.9-6.7-13.1-13.1c-1-3,0.4-5.3,1.6-8.3c1.2-3,3-6.9,2.4-10.6c-0.6-3.7-2.2-7.5-6.4-8.2c-4.2-0.7-8.1,2.5-11,5.9
					c-1.9,2.3-4.1,4.2-5.8,7.2c-4.5,8.3-8.7,15.1-5.9,25.4c2.3,8.3,12.5,10.9,8.7,30.9c-3.4,18.2,16.9,22.4,23.5,22.4
					c5.9,0,12.9-1.1,15.4-7.7c2.6-6.6,0.4-13.2-4-18.3C613.6,716.9,610.1,714.8,608.6,711.8z"/>
			</g>
			<path class="st12" d="M601.5,715.1c-1.8-4.5-3.7-9-5.6-13.5c-1.9-4.5-3.9-8.9-6-13.3c1.5,4.7,3.2,9.3,4.8,13.9
				c1.7,4.6,3.5,9.1,5.3,13.7c1.8,4.5,3.7,9,5.6,13.5c1.9,4.5,3.9,8.9,6,13.3c-1.5-4.7-3.2-9.3-4.8-13.9
				C605.1,724.2,603.3,719.6,601.5,715.1z"/>
			<path class="st12" d="M601.1,696.6c-0.7,1.6-1.1,3.4-1.4,5.1c-0.6,3.5-0.6,6.9-0.7,10.4c1.4-3.2,1.7-6.7,2.4-10
				c0.3-1.7,0.6-3.3,1-4.9c0.4-1.6,0.9-3.2,1.7-4.7C602.7,693.4,601.8,695,601.1,696.6z"/>
			<path class="st12" d="M603.6,729c-1.3-0.5-2.6-0.6-3.8-0.6c-1.2,0-2.4,0.1-3.6,0c1,0.8,2.3,1.1,3.5,1.4c1.2,0.3,2.3,0.5,3.3,0.9
				c2.1,0.7,3.7,2.4,5.4,4.3c-0.3-1.3-0.8-2.6-1.7-3.6C606,730.4,604.8,729.5,603.6,729z"/>
			<path class="st12" d="M589.1,693.7c-2.3-1.5-4.8-2.6-7.4-3.4c2,2,4.3,3.5,6.5,5c1.1,0.7,2.2,1.5,3.3,2.2c1.1,0.8,2.1,1.5,3.1,2.6
				c-0.3-1.4-1.2-2.7-2.2-3.7C591.4,695.3,590.3,694.5,589.1,693.7z"/>
		</g>
		<g>
			<path class="st6" d="M592.9,653.5c-3.4,0.4-6.6,3.1-9,6c-1.9,2.3-4.1,4.2-5.8,7.2c-4.5,8.3-8.7,15.1-5.9,25.4
				c2.2,8.1,12,10.9,8.9,29.8c3-3.9,3.1-8.6,9.6-15.3c11.1-11.4-5.3-23.1-5.3-33.9C585.4,663.9,586.9,656.4,592.9,653.5z"/>
		</g>
		<path class="st0" d="M665.3,730.1h-92.4c-2.9,0-5.2,2.5-5.2,5.5v9.4c0,3.1,2.3,5.5,5.2,5.5h92.4c2.9,0,5.2-2.5,5.2-5.5v-9.4
			C670.5,732.6,668.2,730.1,665.3,730.1z"/>
		<path class="st3" d="M584,795.5c0.7,3.2,3.3,5.5,6.4,5.5h57.3c3.1,0,5.7-2.3,6.4-5.5l9.2-45h-88.4L584,795.5z"/>
	</g>
</g>
</svg>
