<?xml version="1.0" encoding="utf-8"?>
<!-- Generator: Adobe Illustrator 23.0.6, SVG Export Plug-In . SVG Version: 6.00 Build 0)  -->
<svg version="1.1" id="Layer_1" xmlns="http://www.w3.org/2000/svg" xmlns:xlink="http://www.w3.org/1999/xlink" x="0px" y="0px"
	 viewBox="0 0 600 600" style="enable-background:new 0 0 600 600;" xml:space="preserve">
<style type="text/css">
	.st0{fill:#DEF4FC;}
	.st1{fill:#AFD8F9;}
	.st2{fill:#AAD2F9;}
	.st3{fill:none;stroke:#C8DFF5;stroke-width:4;stroke-miterlimit:10;}
	.st4{fill:none;stroke:#2481D7;stroke-width:4;stroke-linecap:round;stroke-linejoin:round;stroke-miterlimit:10;}
	.st5{fill:#288DE8;}
	.st6{fill:#6AB0E5;}
	.st7{fill:#C8DFF5;}
	.st8{fill:#5BA1E1;}
	.st9{fill:none;stroke:#C8DFF5;stroke-width:4;stroke-miterlimit:10;stroke-dasharray:3.9597,3.9597;}
	.st10{fill:none;stroke:#C8DFF5;stroke-width:4;stroke-miterlimit:10;stroke-dasharray:3.9598,3.9598;}
	.st11{fill:none;stroke:#C8DFF5;stroke-width:4;stroke-miterlimit:10;stroke-dasharray:4.0619,4.0619;}
	.st12{fill:none;stroke:#C8DFF5;stroke-width:4;stroke-miterlimit:10;stroke-dasharray:4.062,4.062;}
	.st13{fill:none;stroke:#2481D7;stroke-width:8;stroke-linecap:round;stroke-linejoin:round;stroke-miterlimit:10;}
	.st14{fill:none;stroke:#C8DFF5;stroke-width:4;stroke-linecap:round;stroke-miterlimit:10;}
</style>
<g>
	<polygon class="st0" points="498.8,444.8 283.9,568.8 69,444.8 69,444.8 283.9,320.7 498.8,444.8 	"/>
	<polygon class="st1" points="283.9,72.6 283.8,320.7 69,444.8 69,444.8 69,223.8 283.9,99.7 	"/>
	<polyline class="st2" points="283.9,99.7 283.9,72.6 283.8,320.7 69,444.8 69,444.8 	"/>
	<g>
		<line class="st3" x1="102.4" y1="157.2" x2="78.2" y2="171.3"/>
		<line class="st3" x1="90.7" y1="183.5" x2="78.2" y2="190.7"/>
		<line class="st3" x1="102.4" y1="194.9" x2="78.2" y2="208.9"/>
		<line class="st4" x1="90.7" y1="221.1" x2="78.2" y2="228.3"/>
		<line class="st4" x1="102.4" y1="232.6" x2="78.2" y2="246.6"/>
		<line class="st4" x1="90.7" y1="258.8" x2="78.2" y2="266"/>
		<line class="st4" x1="102.4" y1="270.3" x2="78.2" y2="284.3"/>
		<line class="st4" x1="90.7" y1="296.5" x2="78.2" y2="303.7"/>
		<line class="st4" x1="102.4" y1="307.9" x2="78.2" y2="322"/>
		<line class="st4" x1="90.7" y1="334.1" x2="78.2" y2="341.4"/>
		<line class="st4" x1="102.4" y1="345.6" x2="78.2" y2="359.6"/>
		<line class="st4" x1="90.7" y1="371.8" x2="78.2" y2="379"/>
		<line class="st4" x1="102.4" y1="383.3" x2="78.2" y2="397.3"/>
		<line class="st4" x1="90.7" y1="409.5" x2="78.2" y2="416.7"/>
	</g>
	<g>
		<g>
			<polyline class="st5" points="114.8,249.4 114.8,444.8 160.3,471 205.8,444.8 205.8,249.4 			"/>
			<line class="st6" x1="160.3" y1="275.7" x2="160.3" y2="471"/>
		</g>
		<g>
			<polygon class="st1" points="238.4,444.8 238.4,542.6 283.9,568.8 329.4,542.6 329.4,444.8 283.9,471 			"/>
			<g>
				<polygon class="st0" points="283.9,303 238.4,303 238.4,346.5 283.9,372.7 				"/>
				<polygon class="st7" points="238.4,542.6 283.9,568.8 283.9,470.5 238.4,444.2 				"/>
				<polygon class="st1" points="453,471.3 453,444.8 407.5,471 362,444.8 362,523.8 				"/>
				<polygon class="st7" points="407.5,497.5 407.5,470.5 362,444.2 362,523.8 				"/>
				<polygon class="st1" points="114.8,444.8 114.8,471.3 205.8,523.8 205.8,444.8 160.3,471 				"/>
				<polygon class="st7" points="114.8,471.3 160.3,497.5 160.3,470.5 114.8,444.2 				"/>
			</g>
			<polyline class="st5" points="238.4,205.2 238.4,444.8 283.9,471 329.4,444.8 329.4,205.2 			"/>
			<polygon class="st8" points="238.4,205.2 238.4,444.8 283.9,471 283.9,205.2 			"/>
			<polygon class="st6" points="329.4,205.2 283.9,231.5 238.4,205.2 238.4,205.2 283.9,178.9 329.4,205.2 			"/>
			<polygon class="st6" points="329.4,444.8 283.9,471 238.4,444.8 238.4,444.8 283.9,418.5 329.4,444.8 			"/>
			<line class="st6" x1="283.9" y1="231.5" x2="283.9" y2="471"/>
		</g>
	</g>
	<polygon class="st8" points="114.8,249.4 114.8,444.8 160.3,471 160.3,249.4 	"/>
	<polygon class="st6" points="205.8,249.4 160.3,275.7 114.8,249.4 114.8,249.4 160.3,223.1 205.8,249.4 	"/>
	<polygon class="st6" points="205.8,444.8 160.3,471 114.8,444.8 114.8,444.8 160.3,418.5 205.8,444.8 	"/>
	<g>
		<g>
			<g>
				<g>
					<line class="st3" x1="449.1" y1="197.4" x2="418.8" y2="197.4"/>
					<line class="st3" x1="402.3" y1="197.4" x2="399" y2="197.4"/>
					<line class="st3" x1="386.3" y1="197.4" x2="383" y2="197.4"/>
					<line class="st3" x1="370.3" y1="197.4" x2="366.9" y2="197.4"/>
				</g>
				<g>
					<line class="st3" x1="118.7" y1="197.4" x2="149" y2="197.4"/>
					<line class="st3" x1="165.5" y1="197.4" x2="168.8" y2="197.4"/>
					<line class="st3" x1="181.5" y1="197.4" x2="184.8" y2="197.4"/>
					<line class="st3" x1="197.5" y1="197.4" x2="200.9" y2="197.4"/>
				</g>
			</g>
			<g>
				<g>
					<line class="st3" x1="367.6" y1="281.1" x2="365.3" y2="278.7"/>
					<line class="st3" x1="356.3" y1="269.8" x2="353.9" y2="267.4"/>
					<line class="st3" x1="345" y1="258.4" x2="342.6" y2="256.1"/>
				</g>
				<g>
					<line class="st3" x1="167.1" y1="80.6" x2="188.5" y2="102"/>
					<line class="st3" x1="200.2" y1="113.6" x2="202.5" y2="116"/>
					<line class="st3" x1="211.5" y1="125" x2="213.9" y2="127.3"/>
					<line class="st3" x1="222.8" y1="136.3" x2="225.2" y2="138.6"/>
				</g>
			</g>
			<g>
				<g>
					<line class="st3" x1="283.9" y1="362.5" x2="283.9" y2="332.3"/>
					<line class="st3" x1="283.9" y1="315.8" x2="283.9" y2="312.4"/>
					<line class="st3" x1="283.9" y1="299.8" x2="283.9" y2="296.4"/>
					<line class="st3" x1="283.9" y1="283.7" x2="283.9" y2="280.4"/>
				</g>
				<g>
					<line class="st3" x1="283.9" y1="32.2" x2="283.9" y2="62.5"/>
					<line class="st3" x1="283.9" y1="78.9" x2="283.9" y2="82.3"/>
					<line class="st3" x1="283.9" y1="95" x2="283.9" y2="98.3"/>
					<line class="st3" x1="283.9" y1="111" x2="283.9" y2="114.3"/>
				</g>
			</g>
			<g>
				<g>
					<line class="st3" x1="167.1" y1="314.2" x2="188.5" y2="292.8"/>
					<line class="st3" x1="200.2" y1="281.1" x2="202.5" y2="278.7"/>
					<line class="st3" x1="211.5" y1="269.8" x2="213.9" y2="267.4"/>
					<line class="st3" x1="222.8" y1="258.4" x2="225.2" y2="256.1"/>
				</g>
				<g>
					<line class="st3" x1="387.3" y1="93.9" x2="379.3" y2="102"/>
					<line class="st3" x1="367.6" y1="113.6" x2="365.3" y2="116"/>
					<line class="st3" x1="356.3" y1="125" x2="353.9" y2="127.3"/>
					<line class="st3" x1="345" y1="136.3" x2="342.6" y2="138.6"/>
				</g>
			</g>
			<g>
				<path class="st3" d="M283.9,348.6c-83.5,0-151.3-67.7-151.3-151.3"/>
				<path class="st3" d="M283.9,46.1c83.5,0,151.3,67.7,151.3,151.3"/>
			</g>
			<g>
				<g>
					<g>
						<path class="st3" d="M435.2,197.4c0,0.7,0,1.3,0,2"/>
						<path class="st9" d="M435.1,203.3c-3.1,79.5-67.5,143.2-147.2,145.3"/>
						<path class="st3" d="M285.9,348.6c-0.7,0-1.3,0-2,0"/>
					</g>
				</g>
				<g>
					<g>
						<path class="st3" d="M132.6,197.4c0-0.7,0-1.3,0-2"/>
						<path class="st10" d="M132.7,191.4c3.1-79.5,67.5-143.2,147.2-145.3"/>
						<path class="st3" d="M281.9,46.1c0.7,0,1.3,0,2,0"/>
					</g>
				</g>
			</g>
			<g>
				<g>
					<path class="st3" d="M185.7,197.4c0-54.2,44-98.2,98.2-98.2"/>
					<path class="st3" d="M382.1,197.4c0,54.2-44,98.2-98.2,98.2"/>
				</g>
				<g>
					<g>
						<g>
							<path class="st3" d="M283.9,295.6c-0.7,0-1.3,0-2,0"/>
							<path class="st11" d="M277.8,295.4c-50.1-3-90-43.6-92.1-94"/>
							<path class="st3" d="M185.7,199.4c0-0.7,0-1.3,0-2"/>
						</g>
					</g>
					<g>
						<g>
							<path class="st3" d="M283.9,99.1c0.7,0,1.3,0,2,0"/>
							<path class="st12" d="M290,99.3c50.1,3,90,43.6,92.1,94"/>
							<path class="st3" d="M382.1,195.4c0,0.7,0,1.3,0,2"/>
						</g>
					</g>
				</g>
			</g>
			<g>
				<path class="st3" d="M283.9,348.6c-83.5,0-151.3-67.7-151.3-151.3"/>
				<path class="st3" d="M283.9,46.1c83.5,0,151.3,67.7,151.3,151.3"/>
			</g>
			<g>
				<g>
					<g>
						<path class="st3" d="M435.2,197.4c0,0.7,0,1.3,0,2"/>
						<path class="st9" d="M435.1,203.3c-3.1,79.5-67.5,143.2-147.2,145.3"/>
						<path class="st3" d="M285.9,348.6c-0.7,0-1.3,0-2,0"/>
					</g>
				</g>
				<g>
					<g>
						<path class="st3" d="M132.6,197.4c0-0.7,0-1.3,0-2"/>
						<path class="st10" d="M132.7,191.4c3.1-79.5,67.5-143.2,147.2-145.3"/>
						<path class="st3" d="M281.9,46.1c0.7,0,1.3,0,2,0"/>
					</g>
				</g>
			</g>
			<g>
				<path class="st3" d="M215.4,197.4c0-37.8,30.6-68.5,68.5-68.5"/>
				<path class="st3" d="M352.4,197.4c0,37.8-30.6,68.5-68.5,68.5"/>
			</g>
		</g>
		<g>
			<polygon class="st13" points="205.8,249.4 160.3,275.7 114.8,249.4 114.8,249.4 160.3,223.1 205.8,249.4 			"/>
			<polyline class="st13" points="114.8,249.4 114.8,444.8 160.3,471 205.8,444.8 205.8,249.4 			"/>
			<line class="st13" x1="160.3" y1="275.7" x2="160.3" y2="471"/>
		</g>
		<g>
			<polygon class="st13" points="329.4,205.2 283.9,231.5 238.4,205.2 238.4,205.2 283.9,178.9 329.4,205.2 			"/>
			<polyline class="st13" points="238.4,205.2 238.4,444.8 283.9,471 329.4,444.8 329.4,205.2 			"/>
			<line class="st13" x1="283.9" y1="231.5" x2="283.9" y2="471"/>
		</g>
	</g>
	<g>
		<polyline class="st3" points="468,381 476.5,372.5 485,381 		"/>
		<line class="st3" x1="476.5" y1="372.5" x2="476.5" y2="391.8"/>
		<line class="st3" x1="476.5" y1="396.5" x2="476.5" y2="401.1"/>
		<line class="st3" x1="476.5" y1="404" x2="476.5" y2="408.6"/>
		<line class="st3" x1="476.5" y1="411.5" x2="476.5" y2="416.1"/>
		<line class="st3" x1="476.5" y1="420" x2="476.5" y2="432.3"/>
	</g>
	<g>
		<polyline class="st3" points="468,296.8 476.5,288.3 485,296.8 		"/>
		<line class="st3" x1="476.5" y1="288.3" x2="476.5" y2="307.7"/>
		<line class="st3" x1="476.5" y1="312.4" x2="476.5" y2="317"/>
		<line class="st3" x1="476.5" y1="319.9" x2="476.5" y2="324.5"/>
		<line class="st3" x1="476.5" y1="327.4" x2="476.5" y2="332"/>
		<line class="st3" x1="476.5" y1="335.9" x2="476.5" y2="348.1"/>
	</g>
	<g>
		<polyline class="st3" points="468,212.7 476.5,204.2 485,212.7 		"/>
		<line class="st3" x1="476.5" y1="204.2" x2="476.5" y2="223.5"/>
		<line class="st3" x1="476.5" y1="228.2" x2="476.5" y2="232.8"/>
		<line class="st3" x1="476.5" y1="235.7" x2="476.5" y2="240.3"/>
		<line class="st3" x1="476.5" y1="243.2" x2="476.5" y2="247.8"/>
		<line class="st3" x1="476.5" y1="251.7" x2="476.5" y2="264"/>
	</g>
	<g>
		<polyline class="st3" points="468,128.5 476.5,120 485,128.5 		"/>
		<line class="st3" x1="476.5" y1="120" x2="476.5" y2="139.4"/>
		<line class="st3" x1="476.5" y1="144.1" x2="476.5" y2="148.7"/>
		<line class="st3" x1="476.5" y1="151.6" x2="476.5" y2="156.2"/>
		<line class="st3" x1="476.5" y1="159.1" x2="476.5" y2="163.7"/>
		<line class="st3" x1="476.5" y1="167.6" x2="476.5" y2="179.8"/>
	</g>
	<g>
		<g>
			<polyline class="st5" points="362,161 362,444.8 407.5,471 453,444.8 453,161 			"/>
			<polygon class="st8" points="362,161 362,444.8 407.5,471 407.5,161 			"/>
			<polygon class="st6" points="453,161 407.5,187.2 362,161 362,161 407.5,134.7 453,161 			"/>
			<polygon class="st6" points="453,444.8 407.5,471 362,444.8 362,444.8 407.5,418.5 453,444.8 			"/>
			<g>
				<g>
					<path class="st5" d="M373.2,209.1c-0.1,0-0.3,0-0.4-0.1c-0.4-0.2-0.6-0.5-0.6-0.9v-9.3c0-0.3,0.1-0.5,0.3-0.7l11.6-11.6
						c0.4-0.4,1-0.4,1.4,0l11.6,11.6c0.2,0.2,0.3,0.4,0.3,0.7v9.3c0,0.4-0.2,0.8-0.6,0.9c-0.4,0.2-0.8,0.1-1.1-0.2l-10.9-10.9
						l-10.9,10.9C373.7,209,373.4,209.1,373.2,209.1z"/>
				</g>
				<g>
					<path class="st5" d="M396.3,225.3c-0.3,0-0.5-0.1-0.7-0.3l-10.9-10.9L373.9,225c-0.3,0.3-0.7,0.4-1.1,0.2
						c-0.4-0.2-0.6-0.5-0.6-0.9V215c0-0.3,0.1-0.5,0.3-0.7l11.6-11.6c0.4-0.4,1-0.4,1.4,0l11.6,11.6c0.2,0.2,0.3,0.4,0.3,0.7v9.3
						c0,0.4-0.2,0.8-0.6,0.9C396.6,225.3,396.4,225.3,396.3,225.3z"/>
				</g>
				<g>
					<g>
						<path class="st5" d="M396.3,237.6c-0.3,0-0.5-0.1-0.7-0.3l-10.9-10.9l-10.9,10.9c-0.4,0.4-1,0.4-1.4,0c-0.4-0.4-0.4-1,0-1.4
							l11.6-11.6c0.2-0.2,0.4-0.3,0.7-0.3l0,0c0.3,0,0.5,0.1,0.7,0.3L397,236c0.4,0.4,0.4,1,0,1.4
							C396.8,237.5,396.6,237.6,396.3,237.6z"/>
					</g>
				</g>
				<g>
					<g>
						<path class="st5" d="M396.3,249.1c-0.3,0-0.5-0.1-0.7-0.3l-10.9-10.9l-10.9,10.9c-0.4,0.4-1,0.4-1.4,0c-0.4-0.4-0.4-1,0-1.4
							l11.6-11.6c0.2-0.2,0.4-0.3,0.7-0.3l0,0c0.3,0,0.5,0.1,0.7,0.3l11.6,11.6c0.4,0.4,0.4,1,0,1.4
							C396.8,249,396.6,249.1,396.3,249.1z"/>
					</g>
				</g>
			</g>
			<g>
				<g>
					<path class="st5" d="M373.2,273.5c-0.1,0-0.3,0-0.4-0.1c-0.4-0.2-0.6-0.5-0.6-0.9v-9.3c0-0.3,0.1-0.5,0.3-0.7L384,251
						c0.4-0.4,1-0.4,1.4,0l11.6,11.6c0.2,0.2,0.3,0.4,0.3,0.7v9.3c0,0.4-0.2,0.8-0.6,0.9c-0.4,0.2-0.8,0.1-1.1-0.2l-10.9-10.9
						l-10.9,10.9C373.7,273.4,373.4,273.5,373.2,273.5z"/>
				</g>
				<g>
					<path class="st5" d="M396.3,289.7c-0.3,0-0.5-0.1-0.7-0.3l-10.9-10.9l-10.9,10.9c-0.3,0.3-0.7,0.4-1.1,0.2
						c-0.4-0.1-0.6-0.5-0.6-0.9v-9.3c0-0.3,0.1-0.5,0.3-0.7l11.6-11.6c0.4-0.4,1-0.4,1.4,0l11.6,11.6c0.2,0.2,0.3,0.4,0.3,0.7v9.3
						c0,0.4-0.2,0.8-0.6,0.9C396.6,289.7,396.4,289.7,396.3,289.7z"/>
				</g>
				<g>
					<g>
						<path class="st5" d="M396.3,302.1c-0.3,0-0.5-0.1-0.7-0.3l-10.9-10.9l-10.9,10.9c-0.4,0.4-1,0.4-1.4,0c-0.4-0.4-0.4-1,0-1.4
							l11.6-11.6c0.2-0.2,0.4-0.3,0.7-0.3l0,0c0.3,0,0.5,0.1,0.7,0.3l11.6,11.6c0.4,0.4,0.4,1,0,1.4
							C396.8,302,396.6,302.1,396.3,302.1z"/>
					</g>
				</g>
				<g>
					<g>
						<path class="st5" d="M396.3,313.5c-0.3,0-0.5-0.1-0.7-0.3l-10.9-10.9l-10.9,10.9c-0.4,0.4-1,0.4-1.4,0c-0.4-0.4-0.4-1,0-1.4
							l11.6-11.6c0.2-0.2,0.4-0.3,0.7-0.3l0,0c0.3,0,0.5,0.1,0.7,0.3l11.6,11.6c0.4,0.4,0.4,1,0,1.4
							C396.8,313.4,396.6,313.5,396.3,313.5z"/>
					</g>
				</g>
			</g>
			<g>
				<g>
					<path class="st5" d="M373.2,338c-0.1,0-0.3,0-0.4-0.1c-0.4-0.2-0.6-0.5-0.6-0.9v-9.3c0-0.3,0.1-0.5,0.3-0.7l11.6-11.6
						c0.4-0.4,1-0.4,1.4,0L397,327c0.2,0.2,0.3,0.4,0.3,0.7v9.3c0,0.4-0.2,0.8-0.6,0.9c-0.4,0.2-0.8,0.1-1.1-0.2l-10.9-10.9
						l-10.9,10.9C373.7,337.9,373.4,338,373.2,338z"/>
				</g>
				<g>
					<path class="st5" d="M396.3,354.1c-0.3,0-0.5-0.1-0.7-0.3L384.7,343l-10.9,10.9c-0.3,0.3-0.7,0.4-1.1,0.2
						c-0.4-0.2-0.6-0.5-0.6-0.9v-9.3c0-0.3,0.1-0.5,0.3-0.7l11.6-11.6c0.4-0.4,1-0.4,1.4,0l11.6,11.6c0.2,0.2,0.3,0.4,0.3,0.7v9.3
						c0,0.4-0.2,0.8-0.6,0.9C396.6,354.1,396.4,354.1,396.3,354.1z"/>
				</g>
				<g>
					<g>
						<path class="st5" d="M396.3,366.5c-0.3,0-0.5-0.1-0.7-0.3l-10.9-10.9l-10.9,10.9c-0.4,0.4-1,0.4-1.4,0c-0.4-0.4-0.4-1,0-1.4
							l11.6-11.6c0.2-0.2,0.4-0.3,0.7-0.3l0,0c0.3,0,0.5,0.1,0.7,0.3l11.6,11.6c0.4,0.4,0.4,1,0,1.4
							C396.8,366.4,396.6,366.5,396.3,366.5z"/>
					</g>
				</g>
				<g>
					<g>
						<path class="st5" d="M396.3,377.9c-0.3,0-0.5-0.1-0.7-0.3l-10.9-10.9l-10.9,10.9c-0.4,0.4-1,0.4-1.4,0c-0.4-0.4-0.4-1,0-1.4
							l11.6-11.6c0.2-0.2,0.4-0.3,0.7-0.3l0,0c0.3,0,0.5,0.1,0.7,0.3l11.6,11.6c0.4,0.4,0.4,1,0,1.4
							C396.8,377.8,396.6,377.9,396.3,377.9z"/>
					</g>
				</g>
			</g>
			<g>
				<g>
					<path class="st5" d="M373.2,402.4c-0.1,0-0.3,0-0.4-0.1c-0.4-0.2-0.6-0.5-0.6-0.9v-9.3c0-0.3,0.1-0.5,0.3-0.7l11.6-11.6
						c0.4-0.4,1-0.4,1.4,0l11.6,11.6c0.2,0.2,0.3,0.4,0.3,0.7v9.3c0,0.4-0.2,0.8-0.6,0.9c-0.4,0.2-0.8,0.1-1.1-0.2l-10.9-10.9
						l-10.9,10.9C373.7,402.3,373.4,402.4,373.2,402.4z"/>
				</g>
				<g>
					<path class="st5" d="M396.3,418.5c-0.3,0-0.5-0.1-0.7-0.3l-10.9-10.9l-10.9,10.9c-0.3,0.3-0.7,0.4-1.1,0.2
						c-0.4-0.2-0.6-0.5-0.6-0.9v-9.3c0-0.3,0.1-0.5,0.3-0.7L384,396c0.4-0.4,1-0.4,1.4,0l11.6,11.6c0.2,0.2,0.3,0.4,0.3,0.7v9.3
						c0,0.4-0.2,0.8-0.6,0.9C396.6,418.5,396.4,418.5,396.3,418.5z"/>
				</g>
				<g>
					<g>
						<path class="st5" d="M396.3,430.9c-0.3,0-0.5-0.1-0.7-0.3l-10.9-10.9l-10.9,10.9c-0.4,0.4-1,0.4-1.4,0c-0.4-0.4-0.4-1,0-1.4
							l11.6-11.6c0.2-0.2,0.4-0.3,0.7-0.3l0,0c0.3,0,0.5,0.1,0.7,0.3l11.6,11.6c0.4,0.4,0.4,1,0,1.4
							C396.8,430.8,396.6,430.9,396.3,430.9z"/>
					</g>
				</g>
				<g>
					<g>
						<path class="st5" d="M396.3,442.3c-0.3,0-0.5-0.1-0.7-0.3l-10.9-10.9L373.9,442c-0.4,0.4-1,0.4-1.4,0c-0.4-0.4-0.4-1,0-1.4
							l11.6-11.6c0.2-0.2,0.4-0.3,0.7-0.3l0,0c0.3,0,0.5,0.1,0.7,0.3l11.6,11.6c0.4,0.4,0.4,1,0,1.4
							C396.8,442.2,396.6,442.3,396.3,442.3z"/>
					</g>
				</g>
			</g>
			<line class="st6" x1="407.5" y1="187.2" x2="407.5" y2="471"/>
		</g>
		<g>
			<polygon class="st13" points="453,161 407.5,187.2 362,161 362,161 407.5,134.7 453,161 			"/>
			<polyline class="st13" points="362,161 362,444.8 407.5,471 453,444.8 453,161 			"/>
			<line class="st13" x1="407.5" y1="187.2" x2="407.5" y2="471"/>
		</g>
	</g>
	<g>
		<path class="st8" d="M407.5,113.3c21.8,0,39.5-17.7,39.5-39.5c0-21.8-17.7-39.5-39.5-39.5C385.7,34.3,368,52,368,73.8
			C368,95.6,385.7,113.3,407.5,113.3z"/>
		<path class="st3" d="M407.5,113.3c21.8,0,39.5-17.7,39.5-39.5c0-21.8-17.7-39.5-39.5-39.5C385.7,34.3,368,52,368,73.8
			C368,95.6,385.7,113.3,407.5,113.3z"/>
		<g>
			<g>
				<g>
					<path class="st3" d="M402.5,63.4c0,3-2.4,5.4-5.4,5.4c-3,0-5.4-2.4-5.4-5.4c0-3,2.4-5.4,5.4-5.4
						C400.1,58,402.5,60.4,402.5,63.4z"/>
				</g>
				<g>
					<path class="st3" d="M423.3,84.2c0,3-2.4,5.4-5.4,5.4c-3,0-5.4-2.4-5.4-5.4c0-3,2.4-5.4,5.4-5.4
						C420.9,78.8,423.3,81.2,423.3,84.2z"/>
				</g>
			</g>
			<line class="st3" x1="394.4" y1="86.9" x2="420.6" y2="60.7"/>
		</g>
	</g>
	<line class="st14" x1="407.5" y1="161" x2="407.5" y2="113.3"/>
	<g>
		<path class="st3" d="M530,413.6c0,9.5-7.7,17.1-17.1,17.1c-9.5,0-17.1-7.7-17.1-17.1c0-9.5,7.7-17.1,17.1-17.1
			C522.3,396.5,530,404.1,530,413.6z"/>
		<g>
			<g>
				<line class="st14" x1="512.9" y1="405" x2="512.9" y2="413.6"/>
			</g>
			<g>
				<g>
					<line class="st14" x1="512.9" y1="403.1" x2="512.9" y2="413.6"/>
				</g>
				<g>
					<path class="st14" d="M512.9,422.2"/>
					<path class="st14" d="M512.9,413.6"/>
				</g>
			</g>
			<g>
				<g>
					<line class="st14" x1="519.7" y1="413.6" x2="512.9" y2="413.6"/>
				</g>
			</g>
		</g>
		<path class="st3" d="M513.8,413.6c0,0.5-0.4,0.9-0.9,0.9c-0.5,0-0.9-0.4-0.9-0.9c0-0.5,0.4-0.9,0.9-0.9
			C513.4,412.7,513.8,413.1,513.8,413.6z"/>
	</g>
</g>
</svg>
