<?xml version="1.0" encoding="utf-8"?>
<!-- Generator: Adobe Illustrator 23.0.3, SVG Export Plug-In . SVG Version: 6.00 Build 0)  -->
<svg version="1.1" id="Layer_1" xmlns="http://www.w3.org/2000/svg" xmlns:xlink="http://www.w3.org/1999/xlink" x="0px" y="0px"
	 viewBox="0 0 600 600" style="enable-background:new 0 0 600 600;" xml:space="preserve">
<style type="text/css">
	.st0{fill:#C8DFF5;}
	.st1{fill:#E9F6FF;}
	.st2{fill:#6AB0E5;}
	.st3{fill:#5BA1E1;}
	.st4{fill:#288DE8;}
	.st5{fill:#FFFFFF;}
	.st6{fill:#2481D7;}
	.st7{fill:#DEF4FC;}
</style>
<g>
	<g>
		<g>
			<path class="st0" d="M88.4,463.7c-2.1,0-3.7,1.7-3.7,3.7c0,2.1,1.7,3.7,3.7,3.7c2.1,0,3.7-1.7,3.7-3.7
				C92.1,465.3,90.4,463.7,88.4,463.7z M88.1,467.4c0-0.1,0.1-0.3,0.3-0.3c0.1,0,0.3,0.1,0.3,0.3C88.7,467.7,88.1,467.7,88.1,467.4z
				"/>
		</g>
	</g>
	<g>
		<g>
			<rect x="97.1" y="465.4" class="st0" width="40" height="4"/>
		</g>
	</g>
	<g>
		<g>
			<path class="st0" d="M88.4,484.4c-2.1,0-3.7,1.7-3.7,3.7c0,2.1,1.7,3.7,3.7,3.7c2.1,0,3.7-1.7,3.7-3.7
				C92.1,486.1,90.4,484.4,88.4,484.4z M88.1,488.1c0-0.1,0.1-0.3,0.3-0.3c0.1,0,0.3,0.1,0.3,0.3C88.7,488.4,88.1,488.4,88.1,488.1z
				"/>
		</g>
	</g>
	<g>
		<g>
			<rect x="97.1" y="486.1" class="st0" width="40" height="4"/>
		</g>
	</g>
	<g>
		<g>
			<path class="st0" d="M88.4,505.1c-2.1,0-3.7,1.7-3.7,3.7c0,2.1,1.7,3.7,3.7,3.7c2.1,0,3.7-1.7,3.7-3.7
				C92.1,506.8,90.4,505.1,88.4,505.1z M88.1,508.9c0-0.1,0.1-0.3,0.3-0.3c0.1,0,0.3,0.1,0.3,0.3C88.7,509.2,88.1,509.2,88.1,508.9z
				"/>
		</g>
	</g>
	<g>
		<g>
			<rect x="97.1" y="506.9" class="st0" width="40" height="4"/>
		</g>
	</g>
	<g>
		<g>
			<polygon class="st1" points="148.5,387.5 300,475 451.5,387.5 			"/>
		</g>
	</g>
	<g>
		<g>
			<polygon class="st1" points="300,125 148.5,212.5 451.5,212.5 			"/>
		</g>
	</g>
	<g>
		<g>
			<path class="st2" d="M328.7,197.1c-9.9,0-19.4,1.4-28.7,4c-9.2-2.6-18.8-4-28.6-4c-60.5,0-109.3,52.2-149.6,107.4
				c40.3,55.3,89.1,98.4,149.6,98.4c9.9,0,19.4-1.2,28.6-3.3c9.3,2.2,18.8,3.3,28.7,3.3c60.6,0,109.3-43.2,149.6-98.4
				C438,249.3,389.2,197.1,328.7,197.1z"/>
		</g>
	</g>
	<g>
		<g>
			<path class="st3" d="M328.7,220.7c-9.9,0-19.4,1.1-28.7,3.1c-9.2-2-18.8-3.1-28.6-3.1c-60.5,0-109.3,40.3-149.6,82.8
				c40.3,42.6,89.1,75.9,149.6,75.9c9.9,0,19.4-0.9,28.6-2.6c9.3,1.7,18.8,2.6,28.7,2.6c60.6,0,109.3-33.3,149.6-75.9
				C438,260.9,389.2,220.7,328.7,220.7z"/>
		</g>
	</g>
	<g>
		<g>
			<path class="st4" d="M300,278.2c-48.9,0-88.4,11.1-121,29.1c32.6,18,72.1,16.1,121,16.1c49,0,88.4,1.9,121-16.1
				C388.4,289.3,349,278.2,300,278.2z"/>
		</g>
	</g>
	<g>
		<g>
			<path class="st0" d="M300,275.3c-41.6,0-75.1,9.4-102.9,24.7c27.7,15.3,61.3,13.7,102.9,13.7c41.6,0,75.2,1.6,102.9-13.7
				C375.2,284.7,341.6,275.3,300,275.3z"/>
		</g>
	</g>
	<g>
		<g>
			<path class="st5" d="M300,290.4c-33.7,0-62.1,6.2-86.4,16.7c24.3,7.7,52.7,6.7,86.4,6.7c33.7,0,62.1,1,86.4-6.7
				C362.1,296.6,333.7,290.4,300,290.4z"/>
		</g>
	</g>
	<g>
		<g>
			<path class="st6" d="M481.5,302.2c-37.1-50.8-88-109.1-152.9-109.1c-9.5,0-19.1,1.3-28.7,3.9c-9.5-2.6-19.1-3.9-28.6-3.9
				c-64.9,0-115.8,58.3-152.9,109.1c-1,1.4-1,3.3,0,4.7c49.1,67.3,99.1,100.1,152.9,100.1c9.6,0,19.3-1.1,28.6-3.2
				c9.4,2.1,19.1,3.2,28.7,3.2c53.7,0,103.7-32.7,152.9-100.1C482.5,305.5,482.5,303.6,481.5,302.2z M328.7,398.9
				c-9.3,0-18.6-1.1-27.8-3.2c-0.3-0.1-0.6-0.1-0.9-0.1c-0.3,0-0.6,0-0.9,0.1c-9.1,2.1-18.4,3.2-27.7,3.2
				c-50.4,0-97.7-30.9-144.7-94.4c35.8-48.7,84.4-103.4,144.7-103.4c9.1,0,18.4,1.3,27.6,3.9c0.7,0.2,1.4,0.2,2.1,0
				c9.2-2.6,18.5-3.9,27.6-3.9c60.3,0,108.8,54.8,144.7,103.4C426.4,368,379,398.9,328.7,398.9z"/>
		</g>
	</g>
	<g>
		<g>
			<path class="st6" d="M404.8,296.5c-30.8-17-65-25.2-104.8-25.2c-39.8,0-74,8.2-104.8,25.2c-1.3,0.7-2.1,2-2.1,3.5
				c0,1.5,0.8,2.8,2.1,3.5c23.8,13.1,51.9,14.2,84.1,14.2c3.3,0,6.5,0,9.9,0c7.1,0,14.5,0,21.6,0c36.4,0.1,67.8,0.2,94-14.2
				c1.3-0.7,2.1-2,2.1-3.5C406.9,298.6,406.1,297.2,404.8,296.5z M310.8,309.7c-7.1,0-14.5,0-21.6,0c-33.3,0.1-60.3,0.2-83.2-9.8
				c27.8-13.9,58.6-20.6,94.1-20.6c35.4,0,66.3,6.7,94.1,20.6C371.1,309.9,344.2,309.9,310.8,309.7z"/>
		</g>
	</g>
	<g>
		<g>
			<path class="st6" d="M201.1,298.6c-0.8-2-3.2-3-5.2-2.2c-11.7,4.7-27.2,7.6-35.6,3.5c-2.1-1-3.3-2.3-3.8-3.9
				c-0.6-2.1-2.8-3.3-5-2.7c-2.1,0.6-3.3,2.8-2.7,5c1.1,3.8,3.9,6.9,8,8.9c3.8,1.8,8.6,2.7,14.1,2.7c8.3,0,18.1-2.1,28-6
				C200.9,303,201.9,300.7,201.1,298.6z"/>
		</g>
	</g>
	<g>
		<g>
			<path class="st6" d="M448.5,293.3c-2.1-0.6-4.3,0.6-5,2.7c-0.5,1.6-1.8,2.9-3.8,3.9c-8.4,4.1-24,1.1-35.6-3.5
				c-2.1-0.8-4.4,0.2-5.2,2.2c-0.8,2,0.2,4.4,2.2,5.2c9.9,4,19.7,6,28,6c5.5,0,10.3-0.9,14.1-2.7c4.1-2,6.9-5.1,8-8.9
				C451.9,296.2,450.6,293.9,448.5,293.3z"/>
		</g>
	</g>
	<g>
		<g>
			<polygon class="st1" points="176.9,86.9 144,144 242.9,86.9 			"/>
		</g>
	</g>
	<g>
		<g>
			<polygon class="st1" points="423.1,86.9 357.1,86.9 456,144 			"/>
		</g>
	</g>
	<g>
		<g>
			<polygon class="st1" points="357.1,513.1 423.1,513.1 456,456 			"/>
		</g>
	</g>
	<g>
		<g>
			<polygon class="st1" points="144,456 176.9,513.1 242.9,513.1 			"/>
		</g>
	</g>
	<g>
		<g>
			<polygon class="st0" points="512.1,421.3 300,543.8 87.9,421.3 85.9,424.8 299,547.8 300,548.4 514.1,424.8 			"/>
		</g>
	</g>
	<g>
		<g>
			<polygon class="st0" points="301,52.2 300,51.6 85.9,175.2 87.9,178.7 300,56.2 512.1,178.7 514.1,175.2 			"/>
		</g>
	</g>
	<g>
		<g>
			<polygon class="st0" points="449.5,385.5 449.5,386.3 448.8,386.8 450.8,390.2 453.5,388.6 453.5,385.5 			"/>
		</g>
	</g>
	<g>
		<g>
			<path class="st0" d="M352.4,442.4l2,3.5l3.4-2l-2-3.5L352.4,442.4z M345.5,446.4l2,3.5l3.4-2l-2-3.5L345.5,446.4z M366.2,434.5
				l2,3.5l3.4-2l-2-3.5L366.2,434.5z M359.3,438.4l2,3.5l3.4-2l-2-3.5L359.3,438.4z M338.6,450.4l2,3.5l3.4-2l-2-3.5L338.6,450.4z
				 M311.1,466.3l2,3.5l3.4-2l-2-3.5L311.1,466.3z M304.2,470.3l2,3.5l3.4-2l-2-3.5L304.2,470.3z M373,430.5l2,3.5l3.4-2l-2-3.5
				L373,430.5z M324.8,458.3l2,3.5l3.4-2l-2-3.5L324.8,458.3z M331.7,454.4l2,3.5l3.4-2l-2-3.5L331.7,454.4z M317.9,462.3l2,3.5
				l3.4-2l-2-3.5L317.9,462.3z M414.4,406.6l2,3.5l3.4-2l-2-3.5L414.4,406.6z M421.3,402.7l2,3.5l3.4-2l-2-3.5L421.3,402.7z
				 M428.1,398.7l2,3.5l3.4-2l-2-3.5L428.1,398.7z M435,394.7l2,3.5l3.4-2l-2-3.5L435,394.7z M445.4,388.7l-3.4,2l2,3.5l3.4-2
				L445.4,388.7z M407.5,410.6l2,3.5l3.4-2l-2-3.5L407.5,410.6z M393.7,418.6l2,3.5l3.4-2l-2-3.5L393.7,418.6z M386.8,422.5l2,3.5
				l3.4-2l-2-3.5L386.8,422.5z M400.6,414.6l2,3.5l3.4-2l-2-3.5L400.6,414.6z M379.9,426.5l2,3.5l3.4-2l-2-3.5L379.9,426.5z"/>
		</g>
	</g>
	<g>
		<g>
			<polygon class="st0" points="300.7,472.2 300,472.7 299.3,472.2 297.3,475.7 300,477.3 302.7,475.7 			"/>
		</g>
	</g>
	<g>
		<g>
			<path class="st0" d="M221.5,432l3.4,2l2-3.5l-3.4-2L221.5,432z M194,416.1l3.4,2l2-3.5l-3.4-2L194,416.1z M207.7,424l3.4,2l2-3.5
				l-3.4-2L207.7,424z M214.6,428l3.4,2l2-3.5l-3.4-2L214.6,428z M187.1,412.1l3.4,2l2-3.5l-3.4-2L187.1,412.1z M200.8,420l3.4,2
				l2-3.5l-3.4-2L200.8,420z M180.2,408.1l3.4,2l2-3.5l-3.4-2L180.2,408.1z M159.5,396.2l3.4,2l2-3.5l-3.4-2L159.5,396.2z
				 M166.4,400.2l3.4,2l2-3.5l-3.4-2L166.4,400.2z M173.3,404.1l3.4,2l2-3.5l-3.4-2L173.3,404.1z M152.6,392.2l3.4,2l2-3.5l-3.4-2
				L152.6,392.2z M262.8,455.8l3.4,2l2-3.5l-3.4-2L262.8,455.8z M269.7,459.8l3.4,2l2-3.5l-3.4-2L269.7,459.8z M276.6,463.8l3.4,2
				l2-3.5l-3.4-2L276.6,463.8z M283.5,467.8l3.4,2l2-3.5l-3.4-2L283.5,467.8z M228.4,435.9l3.4,2l2-3.5l-3.4-2L228.4,435.9z
				 M292.4,468.3l-2,3.5l3.4,2l2-3.5L292.4,468.3z M242.2,443.9l3.4,2l2-3.5l-3.4-2L242.2,443.9z M235.3,439.9l3.4,2l2-3.5l-3.4-2
				L235.3,439.9z M249.1,447.9l3.4,2l2-3.5l-3.4-2L249.1,447.9z M255.9,451.9l3.4,2l2-3.5l-3.4-2L255.9,451.9z"/>
		</g>
	</g>
	<g>
		<g>
			<polygon class="st0" points="150.5,386.3 150.5,385.5 146.5,385.5 146.5,388.6 149.2,390.2 151.2,386.8 			"/>
		</g>
	</g>
	<g>
		<g>
			<path class="st0" d="M146.5,325.8h4v-4h-4V325.8z M146.5,341.8h4v-4h-4V341.8z M146.5,317.9h4v-4h-4V317.9z M146.5,309.9h4v-4h-4
				V309.9z M146.5,333.8h4v-4h-4V333.8z M146.5,349.7h4v-4h-4V349.7z M146.5,302h4v-4h-4V302z M146.5,373.6h4v-4h-4V373.6z
				 M146.5,357.7h4v-4h-4V357.7z M146.5,365.6h4v-4h-4V365.6z M146.5,381.5h4v-4h-4V381.5z M146.5,246.3h4v-4h-4V246.3z
				 M146.5,254.3h4v-4h-4V254.3z M146.5,238.4h4v-4h-4V238.4z M146.5,218.5v4h4v-4H146.5z M146.5,230.4h4v-4h-4V230.4z M146.5,262.2
				h4v-4h-4V262.2z M146.5,278.1h4v-4h-4V278.1z M146.5,286.1h4v-4h-4V286.1z M146.5,294h4v-4h-4V294z M146.5,270.2h4v-4h-4V270.2z"
				/>
		</g>
	</g>
	<g>
		<g>
			<polygon class="st0" points="149.2,209.8 146.5,211.4 146.5,214.5 150.5,214.5 150.5,213.7 151.2,213.2 			"/>
		</g>
	</g>
	<g>
		<g>
			<path class="st0" d="M187.1,187.9l2,3.5l3.4-2l-2-3.5L187.1,187.9z M194,183.9l2,3.5l3.4-2l-2-3.5L194,183.9z M214.6,172l2,3.5
				l3.4-2l-2-3.5L214.6,172z M207.7,176l2,3.5l3.4-2l-2-3.5L207.7,176z M200.8,180l2,3.5l3.4-2l-2-3.5L200.8,180z M180.2,191.9
				l2,3.5l3.4-2l-2-3.5L180.2,191.9z M152.6,207.8l2,3.5l3.4-2l-2-3.5L152.6,207.8z M159.5,203.8l2,3.5l3.4-2l-2-3.5L159.5,203.8z
				 M166.4,199.8l2,3.5l3.4-2l-2-3.5L166.4,199.8z M173.3,195.9l2,3.5l3.4-2l-2-3.5L173.3,195.9z M242.2,156.1l2,3.5l3.4-2l-2-3.5
				L242.2,156.1z M262.8,144.2l2,3.5l3.4-2l-2-3.5L262.8,144.2z M276.6,136.2l2,3.5l3.4-2l-2-3.5L276.6,136.2z M269.7,140.2l2,3.5
				l3.4-2l-2-3.5L269.7,140.2z M293.8,126.3l-3.4,2l2,3.5l3.4-2L293.8,126.3z M283.5,132.2l2,3.5l3.4-2l-2-3.5L283.5,132.2z
				 M221.5,168l2,3.5l3.4-2l-2-3.5L221.5,168z M235.3,160.1l2,3.5l3.4-2l-2-3.5L235.3,160.1z M228.4,164.1l2,3.5l3.4-2l-2-3.5
				L228.4,164.1z M255.9,148.1l2,3.5l3.4-2l-2-3.5L255.9,148.1z M249.1,152.1l2,3.5l3.4-2l-2-3.5L249.1,152.1z"/>
		</g>
	</g>
	<g>
		<g>
			<polygon class="st0" points="300,122.7 297.3,124.3 299.3,127.8 300,127.3 300.7,127.8 302.7,124.3 			"/>
		</g>
	</g>
	<g>
		<g>
			<path class="st0" d="M345.5,153.6l3.4,2l2-3.5l-3.4-2L345.5,153.6z M338.6,149.6l3.4,2l2-3.5l-3.4-2L338.6,149.6z M359.3,161.6
				l3.4,2l2-3.5l-3.4-2L359.3,161.6z M366.2,165.5l3.4,2l2-3.5l-3.4-2L366.2,165.5z M311.1,133.7l3.4,2l2-3.5l-3.4-2L311.1,133.7z
				 M373,169.5l3.4,2l2-3.5l-3.4-2L373,169.5z M304.2,129.7l3.4,2l2-3.5l-3.4-2L304.2,129.7z M331.7,145.6l3.4,2l2-3.5l-3.4-2
				L331.7,145.6z M324.8,141.7l3.4,2l2-3.5l-3.4-2L324.8,141.7z M317.9,137.7l3.4,2l2-3.5l-3.4-2L317.9,137.7z M352.4,157.6l3.4,2
				l2-3.5l-3.4-2L352.4,157.6z M428.1,201.3l3.4,2l2-3.5l-3.4-2L428.1,201.3z M414.4,193.4l3.4,2l2-3.5l-3.4-2L414.4,193.4z
				 M421.3,197.3l3.4,2l2-3.5l-3.4-2L421.3,197.3z M443.9,205.8l-2,3.5l3.4,2l2-3.5L443.9,205.8z M435,205.3l3.4,2l2-3.5l-3.4-2
				L435,205.3z M386.8,177.5l3.4,2l2-3.5l-3.4-2L386.8,177.5z M379.9,173.5l3.4,2l2-3.5l-3.4-2L379.9,173.5z M407.5,189.4l3.4,2
				l2-3.5l-3.4-2L407.5,189.4z M393.7,181.4l3.4,2l2-3.5l-3.4-2L393.7,181.4z M400.6,185.4l3.4,2l2-3.5l-3.4-2L400.6,185.4z"/>
		</g>
	</g>
	<g>
		<g>
			<polygon class="st0" points="450.8,209.8 448.8,213.2 449.5,213.7 449.5,214.5 453.5,214.5 453.5,211.4 			"/>
		</g>
	</g>
	<g>
		<g>
			<path class="st0" d="M449.5,325.8h4v-4h-4V325.8z M449.5,333.8h4v-4h-4V333.8z M449.5,317.9h4v-4h-4V317.9z M449.5,341.8h4v-4h-4
				V341.8z M449.5,309.9h4v-4h-4V309.9z M449.5,381.5h4v-4h-4V381.5z M449.5,302h4v-4h-4V302z M449.5,349.7h4v-4h-4V349.7z
				 M449.5,365.6h4v-4h-4V365.6z M449.5,357.7h4v-4h-4V357.7z M449.5,373.6h4v-4h-4V373.6z M449.5,246.3h4v-4h-4V246.3z
				 M449.5,238.4h4v-4h-4V238.4z M449.5,218.5v4h4v-4H449.5z M449.5,230.4h4v-4h-4V230.4z M449.5,254.3h4v-4h-4V254.3z M449.5,270.2
				h4v-4h-4V270.2z M449.5,286.1h4v-4h-4V286.1z M449.5,278.1h4v-4h-4V278.1z M449.5,262.2h4v-4h-4V262.2z M449.5,294h4v-4h-4V294z"
				/>
		</g>
	</g>
	<g>
		<g>
			<path class="st5" d="M196.5,160.2c0-36.8-29.8-66.6-66.6-66.6c-36.8,0-66.6,29.8-66.6,66.6c0,36.8,29.8,66.6,66.6,66.6
				c15.4,0,29.5-5.2,40.8-14l22.2,10.4L182.5,201C191.2,189.7,196.5,175.6,196.5,160.2z"/>
		</g>
	</g>
	<g>
		<g>
			<path class="st7" d="M185.4,207.1l-2.9-6.1c7.8-10,12.8-22.3,13.8-35.7c-2.6-34.4-31.3-61.6-66.4-61.6
				c-35.1,0-63.8,27.1-66.4,61.5c2.6,34.4,31.3,61.5,66.4,61.5c15.4,0,29.5-5.2,40.8-14l16.1,7.6l-4.3-9.2
				C183.5,209.8,184.4,208.5,185.4,207.1z"/>
		</g>
	</g>
	<g>
		<g>
			<path class="st6" d="M184.8,201.8c9-11.9,13.7-26.1,13.7-41.1c0-37.8-30.8-68.6-68.6-68.6c-37.8,0-68.6,30.8-68.6,68.6
				c0,37.8,30.8,68.6,68.6,68.6c15,0,29.1-4.7,41.1-13.7l21.1,9.9c0.8,0.4,1.7,0.2,2.3-0.4c0.6-0.6,0.8-1.5,0.4-2.3L184.8,201.8z
				 M171.6,211.5c-0.7-0.3-1.5-0.2-2.1,0.2c-11.4,8.9-25.1,13.6-39.6,13.6c-35.6,0-64.6-29-64.6-64.6c0-35.6,29-64.6,64.6-64.6
				c35.6,0,64.6,29,64.6,64.6c0,14.5-4.7,28.2-13.6,39.6c-0.5,0.6-0.6,1.4-0.2,2.1l8.1,17.2L171.6,211.5z"/>
		</g>
	</g>
	<g>
		<g>
			<path class="st0" d="M92.1,175.6l-3.7,1.5c0.5,1.3,1.1,2.6,1.7,3.8l3.6-1.8C93.1,177.9,92.6,176.8,92.1,175.6z M90,168.3
				l-3.9,0.7c0.3,1.4,0.6,2.7,1,4.1l3.8-1.1C90.6,170.8,90.3,169.5,90,168.3z M89.3,160.7h-4c0,1.4,0.1,2.8,0.2,4.2l4-0.4
				C89.4,163.3,89.3,162,89.3,160.7z M95.6,182.4l-3.4,2.1c0.7,1.2,1.5,2.3,2.4,3.4l3.2-2.4C97,184.5,96.3,183.5,95.6,182.4z
				 M127.1,201.2l-0.3,4c1,0.1,2.1,0.1,3.1,0.1l0-4C129,201.3,128,201.3,127.1,201.2z M118.6,203.9c1.3,0.4,2.7,0.6,4.1,0.9l0.6-3.9
				c-1.2-0.2-2.5-0.5-3.7-0.8L118.6,203.9z M110.7,201c1.3,0.6,2.6,1.1,3.9,1.6l1.4-3.8c-1.2-0.4-2.4-0.9-3.5-1.5L110.7,201z
				 M100.2,188.4l-2.9,2.7c0.9,1,2,2,3,2.9l2.7-3C102,190.2,101.1,189.3,100.2,188.4z M103.6,196.7c1.1,0.8,2.3,1.6,3.5,2.3l2.1-3.4
				c-1.1-0.7-2.2-1.4-3.2-2.1L103.6,196.7z"/>
		</g>
	</g>
	<g>
		<g>
			<path class="st0" d="M143.9,122.6c1.2,0.4,2.4,0.9,3.5,1.5l1.7-3.6c-1.3-0.6-2.6-1.1-3.9-1.6L143.9,122.6z M136.5,120.6
				c1.2,0.2,2.5,0.5,3.7,0.8l1-3.9c-1.3-0.4-2.7-0.6-4.1-0.9L136.5,120.6z M129.9,120.1c0.9,0,1.9,0,2.8,0.1l0.3-4
				c-1-0.1-2.1-0.1-3.1-0.1L129.9,120.1z M150.7,125.8c1.1,0.7,2.2,1.4,3.2,2.1l2.4-3.2c-1.1-0.8-2.3-1.6-3.5-2.3L150.7,125.8z
				 M174.3,156.5l-4,0.4c0.1,1.3,0.2,2.5,0.2,3.8h4C174.5,159.3,174.5,157.9,174.3,156.5z M169.7,140.5l-3.6,1.8
				c0.6,1.1,1.1,2.3,1.6,3.5l3.7-1.5C170.9,143.1,170.3,141.8,169.7,140.5z M159.5,127.4l-2.7,3c0.9,0.8,1.9,1.7,2.7,2.7l2.9-2.7
				C161.6,129.3,160.6,128.3,159.5,127.4z M172.8,148.3l-3.8,1.1c0.4,1.2,0.6,2.5,0.9,3.7l3.9-0.7
				C173.5,151,173.2,149.7,172.8,148.3z M165.2,133.5l-3.2,2.4c0.8,1,1.5,2.1,2.2,3.1l3.4-2.1C166.9,135.7,166.1,134.6,165.2,133.5z
				"/>
		</g>
	</g>
	<g>
		<g>
			<polygon class="st0" points="106,161.2 149.3,149.7 148.3,145.8 102,158.1 102,174 148.3,186.3 149.3,182.4 106,171 			"/>
		</g>
	</g>
	<g>
		<g>
			<polygon class="st0" points="148.8,142 148.8,146 153.8,146 153.8,186.1 148.8,186.1 148.8,190.1 157.8,190.1 157.8,142 			"/>
		</g>
	</g>
	<g>
		<g>
			<rect x="102" y="156.6" class="st0" width="4" height="18.9"/>
		</g>
	</g>
	<g>
		<g>
			<path class="st0" d="M122.4,178.1c0,2.3-1.9,4.2-4.2,4.2c-2.3,0-4.2-1.9-4.2-4.2v-3.2h-4v3.2c0,4.5,3.7,8.2,8.2,8.2
				c4.5,0,8.2-3.7,8.2-8.2L122.4,178.1z"/>
		</g>
	</g>
	<g>
		<g>
			<rect x="122.4" y="154.2" class="st0" width="4" height="16.7"/>
		</g>
	</g>
	<g>
		<g>
			<path class="st5" d="M470.1,373.2c-15.4,0-29.5,5.2-40.8,14l-22.2-10.4l10.4,22.2c-8.8,11.3-14,25.4-14,40.8
				c0,36.8,29.8,66.6,66.6,66.6c36.8,0,66.6-29.8,66.6-66.6C536.6,403,506.8,373.2,470.1,373.2z"/>
		</g>
	</g>
	<g>
		<g>
			<path class="st7" d="M470.1,373.2c-15.4,0-29.5,5.2-40.8,14l-16.1-7.6l4.3,9.2c-1,1.3-2,2.6-2.9,4l2.9,6.1
				c-7.8,10-12.8,22.3-13.8,35.7c2.6,34.4,31.3,61.6,66.4,61.6c35.1,0,63.8-27.1,66.4-61.5C533.8,400.4,505.1,373.2,470.1,373.2z"/>
		</g>
	</g>
	<g>
		<g>
			<path class="st6" d="M470.1,370.7c-15,0-29.1,4.7-41.1,13.7l-21.1-9.9c-0.8-0.4-1.7-0.2-2.3,0.4c-0.6,0.6-0.8,1.5-0.4,2.3
				l9.9,21.1c-9,11.9-13.7,26.1-13.7,41.1c0,37.8,30.8,68.6,68.6,68.6c37.8,0,68.6-30.8,68.6-68.6S507.9,370.7,470.1,370.7z
				 M470.1,503.9c-35.6,0-64.6-29-64.6-64.6c0-14.5,4.7-28.2,13.6-39.6c0.5-0.6,0.6-1.4,0.2-2.1l-8.1-17.2l17.2,8.1
				c0.7,0.3,1.5,0.2,2.1-0.2c11.4-8.9,25.1-13.6,39.6-13.6c35.6,0,64.6,29,64.6,64.6S505.7,503.9,470.1,503.9z"/>
		</g>
	</g>
	<g>
		<g>
			<path class="st0" d="M484,401.1c1.2,0.4,2.4,0.9,3.5,1.5l1.7-3.6c-1.3-0.6-2.6-1.1-3.9-1.6L484,401.1z M470.1,398.7
				c0.9,0,1.9,0,2.8,0.1l0.3-4c-1-0.1-2.1-0.1-3.1-0.1L470.1,398.7z M490.9,404.4c1.1,0.7,2.2,1.4,3.2,2.1l2.4-3.2
				c-1.1-0.8-2.3-1.6-3.5-2.3L490.9,404.4z M476.7,399.2c1.2,0.2,2.5,0.5,3.7,0.8l1-3.9c-1.3-0.4-2.7-0.6-4.1-0.9L476.7,399.2z
				 M509.9,419.1l-3.6,1.8c0.6,1.1,1.1,2.3,1.6,3.5l3.7-1.5C511.1,421.6,510.5,420.4,509.9,419.1z M499.7,405.9l-2.7,3
				c0.9,0.8,1.9,1.7,2.7,2.7l2.9-2.7C501.7,407.8,500.7,406.9,499.7,405.9z M512.9,426.9l-3.8,1.1c0.4,1.2,0.6,2.5,0.9,3.7l3.9-0.7
				C513.7,429.6,513.3,428.2,512.9,426.9z M514.5,435.1l-4,0.4c0.1,1.3,0.2,2.5,0.2,3.8h4C514.7,437.9,514.6,436.5,514.5,435.1z
				 M505.4,412l-3.2,2.4c0.8,1,1.5,2.1,2.2,3.1l3.4-2.1C507.1,414.3,506.3,413.1,505.4,412z"/>
		</g>
	</g>
	<g>
		<g>
			<path class="st0" d="M432.3,454.2l-3.7,1.5c0.5,1.3,1.1,2.6,1.7,3.8l3.6-1.8C433.3,456.5,432.8,455.4,432.3,454.2z M435.7,461
				l-3.4,2.1c0.7,1.2,1.5,2.3,2.4,3.4l3.2-2.4C437.2,463.1,436.4,462,435.7,461z M440.4,467l-2.9,2.7c0.9,1,2,2,3,2.9l2.7-3
				C442.2,468.8,441.3,467.9,440.4,467z M429.5,439.3h-4c0,1.4,0.1,2.8,0.2,4.2l4-0.4C429.5,441.8,429.5,440.6,429.5,439.3z
				 M430.2,446.9l-3.9,0.7c0.3,1.4,0.6,2.7,1,4.1l3.8-1.1C430.7,449.4,430.4,448.1,430.2,446.9z M443.7,475.3
				c1.1,0.8,2.3,1.6,3.5,2.3l2.1-3.4c-1.1-0.7-2.2-1.4-3.2-2.1L443.7,475.3z M458.7,482.4c1.3,0.4,2.7,0.6,4.1,0.9l0.6-3.9
				c-1.2-0.2-2.5-0.5-3.7-0.8L458.7,482.4z M467.3,479.8l-0.3,4c1,0.1,2.1,0.1,3.1,0.1l0-4C469.1,479.9,468.2,479.9,467.3,479.8z
				 M450.9,479.6c1.3,0.6,2.6,1.1,3.9,1.6l1.4-3.8c-1.2-0.4-2.4-0.9-3.5-1.5L450.9,479.6z"/>
		</g>
	</g>
	<g>
		<g>
			<path class="st0" d="M497.3,423.2h-16.7v4h16.7c1.2,0,2.2,1,2.2,2.2c0,1.2-1,2.2-2.2,2.2h-7.1v4h7.1c3.4,0,6.2-2.8,6.2-6.2
				C503.5,426,500.7,423.2,497.3,423.2z"/>
		</g>
	</g>
	<g>
		<g>
			<path class="st0" d="M495.1,431.6h-4v4h4c1.2,0,2.2,1,2.2,2.2c0,1.2-1,2.2-2.2,2.2h-7v4h7c3.4,0,6.2-2.8,6.2-6.2
				C501.3,434.4,498.5,431.6,495.1,431.6z"/>
		</g>
	</g>
	<g>
		<g>
			<path class="st0" d="M492.9,440h-4v4h4c1.2,0,2.2,1,2.2,2.2c0,1.2-1,2.2-2.2,2.2h-7.1v4h7.1c3.4,0,6.2-2.8,6.2-6.2
				C499.1,442.8,496.3,440,492.9,440z"/>
		</g>
	</g>
	<g>
		<g>
			<path class="st0" d="M490.7,448.4H489v4h1.7c1.2,0,2.2,1,2.2,2.2c0,1.2-1,2.2-2.2,2.2h-9.4v4h9.4c3.4,0,6.2-2.8,6.2-6.2
				C496.9,451.2,494.1,448.4,490.7,448.4z"/>
		</g>
	</g>
	<g>
		<g>
			<rect x="469.5" y="423.2" class="st0" width="13.2" height="4"/>
		</g>
	</g>
	<g>
		<g>
			<path class="st0" d="M503.5,429.4c0-3.4-2.8-6.2-6.2-6.2h-20.9l1.1-7.8c0.5-1.5,0.4-3.2-0.2-4.6c-0.7-1.6-2-2.7-3.6-3.3
				c-3.3-1.2-7,0.5-8.2,3.8l-4.9,15.6H451v30.4h10.4c2,2.3,4.9,3.6,8,3.6h12.4c0.1,0,0.2,0,0.4,0h8.5c3.4,0,6.2-2.8,6.2-6.2
				c0-1.1-0.3-2.2-0.8-3.1c1.8-1.1,3-3.1,3-5.3c0-1.1-0.3-2.2-0.8-3.1c1.8-1.1,3-3.1,3-5.3c0-1.1-0.3-2.2-0.8-3.1
				C502.3,433.6,503.5,431.6,503.5,429.4z M497.3,431.6h-2.2v4c1.2,0,2.2,1,2.2,2.2c0,1.2-1,2.2-2.2,2.2h-2.2v4c1.2,0,2.2,1,2.2,2.2
				c0,1.2-1,2.2-2.2,2.2h-2.2v4c1.2,0,2.2,1,2.2,2.2c0,1.2-1,2.2-2.2,2.2H482c-0.1,0-0.2,0-0.4,0h-12.3c-2.1,0-4.1-1-5.4-2.8
				l-0.6-0.8H455v-22.4h8.5l5.8-18.2c0.5-1.2,1.8-1.8,3-1.4c0.6,0.2,1.1,0.7,1.3,1.2c0.3,0.6,0.3,1.2,0.1,1.8l-1.9,12.9h25.5
				c1.2,0,2.2,1,2.2,2.2C499.5,430.6,498.5,431.6,497.3,431.6z"/>
		</g>
	</g>
	<g>
		<g>
			<path class="st0" d="M450.4,425h-9.1c-2.5,0-4.6,2.1-4.6,4.6v24.7c0,2.5,2.1,4.6,4.6,4.6h9.1c2.5,0,4.6-2.1,4.6-4.6v-24.7
				C455,427.1,452.9,425,450.4,425z M451,454.4c0,0.3-0.3,0.6-0.6,0.6h-9.1c-0.3,0-0.6-0.3-0.6-0.6v-24.7c0-0.3,0.3-0.6,0.6-0.6h9.1
				c0.3,0,0.6,0.3,0.6,0.6V454.4z"/>
		</g>
	</g>
	<g>
		<g>
			<rect x="443.8" y="448.3" class="st0" width="4" height="2.2"/>
		</g>
	</g>
	<g>
	</g>
	<g>
		<g>
			<path class="st0" d="M88.4,463.7c-2.1,0-3.7,1.7-3.7,3.7c0,2.1,1.7,3.7,3.7,3.7c2.1,0,3.7-1.7,3.7-3.7
				C92.1,465.3,90.4,463.7,88.4,463.7z M88.1,467.4c0-0.1,0.1-0.3,0.3-0.3c0.1,0,0.3,0.1,0.3,0.3C88.7,467.7,88.1,467.7,88.1,467.4z
				"/>
		</g>
	</g>
	<g>
		<g>
			<rect x="97.1" y="465.4" class="st0" width="40" height="4"/>
		</g>
	</g>
	<g>
		<g>
			<path class="st0" d="M88.4,484.4c-2.1,0-3.7,1.7-3.7,3.7c0,2.1,1.7,3.7,3.7,3.7c2.1,0,3.7-1.7,3.7-3.7
				C92.1,486.1,90.4,484.4,88.4,484.4z M88.1,488.1c0-0.1,0.1-0.3,0.3-0.3c0.1,0,0.3,0.1,0.3,0.3C88.7,488.4,88.1,488.4,88.1,488.1z
				"/>
		</g>
	</g>
	<g>
		<g>
			<rect x="97.1" y="486.1" class="st0" width="40" height="4"/>
		</g>
	</g>
	<g>
		<g>
			<path class="st0" d="M88.4,505.1c-2.1,0-3.7,1.7-3.7,3.7c0,2.1,1.7,3.7,3.7,3.7c2.1,0,3.7-1.7,3.7-3.7
				C92.1,506.8,90.4,505.1,88.4,505.1z M88.1,508.9c0-0.1,0.1-0.3,0.3-0.3c0.1,0,0.3,0.1,0.3,0.3C88.7,509.2,88.1,509.2,88.1,508.9z
				"/>
		</g>
	</g>
	<g>
		<g>
			<rect x="97.1" y="506.9" class="st0" width="40" height="4"/>
		</g>
	</g>
	<g>
		<g>
			<path class="st0" d="M511.6,128.9c-2.1,0-3.7,1.7-3.7,3.7c0,2.1,1.7,3.7,3.7,3.7c2.1,0,3.7-1.7,3.7-3.7
				C515.3,130.6,513.7,128.9,511.6,128.9z M511.3,132.6c0-0.1,0.1-0.3,0.3-0.3c0.1,0,0.3,0.1,0.3,0.3
				C511.9,132.9,511.3,132.9,511.3,132.6z"/>
		</g>
	</g>
	<g>
		<g>
			<rect x="462.9" y="130.6" class="st0" width="40" height="4"/>
		</g>
	</g>
	<g>
		<g>
			<path class="st0" d="M511.6,108.1c-2.1,0-3.7,1.7-3.7,3.7c0,2.1,1.7,3.7,3.7,3.7c2.1,0,3.7-1.7,3.7-3.7
				C515.3,109.8,513.7,108.1,511.6,108.1z M511.3,111.9c0-0.1,0.1-0.3,0.3-0.3c0.1,0,0.3,0.1,0.3,0.3
				C511.9,112.2,511.3,112.2,511.3,111.9z"/>
		</g>
	</g>
	<g>
		<g>
			<rect x="462.9" y="109.9" class="st0" width="40" height="4"/>
		</g>
	</g>
	<g>
		<g>
			<path class="st0" d="M511.6,87.4c-2.1,0-3.7,1.7-3.7,3.7c0,2.1,1.7,3.7,3.7,3.7c2.1,0,3.7-1.7,3.7-3.7
				C515.3,89.1,513.7,87.4,511.6,87.4z M511.3,91.1c0-0.1,0.1-0.3,0.3-0.3c0.1,0,0.3,0.1,0.3,0.3C511.9,91.4,511.3,91.4,511.3,91.1z
				"/>
		</g>
	</g>
	<g>
		<g>
			<rect x="462.9" y="89.1" class="st0" width="40" height="4"/>
		</g>
	</g>
	<g>
		<g>
			<path class="st0" d="M108,295.6c0-1.9,0-3.7,0-5.4c0-16.4,0-35.1-21.2-35.1C67,255.1,51,270.8,51,290.2c0,9.5,4.6,23,11.8,34.3
				c8.2,13,18,20.4,27,20.4c3.9,0,7.2-1.4,9.9-4.1C108.3,332.1,108.1,311,108,295.6z M96.9,338c-1.9,1.9-4.2,2.9-7.1,2.9
				c-16.9,0-34.8-33-34.8-50.7c0-17.1,14.2-31.1,31.7-31.1c16.1,0,17.2,11.7,17.2,31.1c0,1.7,0,3.5,0,5.4
				C104.1,309.5,104.3,330.5,96.9,338z"/>
		</g>
	</g>
	<g>
		<g>
			<path class="st0" d="M68.6,295.2h-4c0,3.9,3.2,7,7,7v-4C70,298.2,68.6,296.8,68.6,295.2z"/>
		</g>
	</g>
	<g>
		<g>
			<path class="st0" d="M93,291.6v-4c-7.2,0-13,5.8-13,13c0,7.2,5.8,13,13,13v-4c-5,0-9-4-9-9C84,295.6,88,291.6,93,291.6z"/>
		</g>
	</g>
	<g>
		<g>
			<path class="st0" d="M96,297.5c0-1,0-1.9,0-2.8c0-8.5,0-19.1-11.9-19.1c-10.7,0-19.4,8.6-19.4,19.1h4c0-8.3,6.9-15.1,15.4-15.1
				c6.7,0,7.9,4,7.9,15.1c0,0.9,0,1.8,0,2.8c0.1,7,0.2,17.6-3.4,21.3c-0.8,0.8-1.8,1.2-3,1.2v4c2.3,0,4.2-0.8,5.8-2.4
				C96.2,316.8,96.1,305.6,96,297.5z"/>
		</g>
	</g>
	<g>
		<g>
			<path class="st0" d="M513.3,255.1c-21.2,0-21.2,18.6-21.2,35.1c0,1.7,0,3.5,0,5.4c-0.2,15.4-0.4,36.5,8.3,45.3
				c2.7,2.7,6,4.1,9.9,4.1c8.9,0,18.7-7.4,27-20.4c7.2-11.3,11.8-24.8,11.8-34.3C549,270.8,533,255.1,513.3,255.1z M533.8,322.3
				c-7.5,11.8-16.1,18.5-23.6,18.5c-2.8,0-5.1-0.9-7.1-2.9c-7.5-7.6-7.3-28.5-7.1-42.4c0-1.9,0-3.7,0-5.4c0-19.3,1.2-31.1,17.2-31.1
				c17.5,0,31.7,13.9,31.7,31.1C545,298.9,540.5,311.8,533.8,322.3z"/>
		</g>
	</g>
	<g>
		<g>
			<path class="st0" d="M531.4,295.2c0,1.7-1.4,3-3,3v4c3.9,0,7-3.2,7-7H531.4z"/>
		</g>
	</g>
	<g>
		<g>
			<path class="st0" d="M507,287.6v4c5,0,9,4,9,9c0,4.9-4,9-9,9v4c7.2,0,13-5.8,13-13C520,293.4,514.2,287.6,507,287.6z"/>
		</g>
	</g>
	<g>
		<g>
			<path class="st0" d="M515.9,275.6c-11.9,0-11.9,10.6-11.9,19.1c0,0.9,0,1.8,0,2.8c-0.1,8.1-0.2,19.3,4.6,24.1
				c1.6,1.6,3.5,2.4,5.8,2.4v-4c-1.2,0-2.2-0.4-3-1.2c-3.6-3.6-3.5-14.2-3.4-21.2c0-1,0-1.9,0-2.8c0-11.1,1.2-15.1,7.9-15.1
				c8.5,0,15.4,6.8,15.4,15.1h4C535.4,284.2,526.7,275.6,515.9,275.6z"/>
		</g>
	</g>
	<g>
		<g>
			<path class="st0" d="M447,195.9l22.4,15l22,25.2l44.1-69.6L447,195.9z M490.9,229.5L472.1,208L456,197.2l70.1-23.3L490.9,229.5z"
				/>
		</g>
	</g>
	<g>
		<g>
			
				<rect x="464.9" y="187.9" transform="matrix(0.8372 -0.5469 0.5469 0.8372 -22.2987 304.8038)" class="st0" width="71.7" height="4"/>
		</g>
	</g>
	<g>
		<g>
			<polygon class="st0" points="478.4,218.3 472.8,223.3 472.8,209.5 468.8,209.5 468.8,232.2 481.1,221.3 			"/>
		</g>
	</g>
	<g>
		<g>
			<path class="st0" d="M64.7,388.1l22.4,15l22,25.2l44.1-69.6L64.7,388.1z M108.6,421.6l-18.8-21.6l-16.1-10.8l70.1-23.3
				L108.6,421.6z"/>
		</g>
	</g>
	<g>
		<g>
			
				<rect x="82.6" y="380" transform="matrix(0.8372 -0.5469 0.5469 0.8372 -189.6077 126.9519)" class="st0" width="71.7" height="4"/>
		</g>
	</g>
	<g>
		<g>
			<polygon class="st0" points="96.1,410.4 90.4,415.4 90.4,401.6 86.4,401.6 86.4,424.3 98.7,413.4 			"/>
		</g>
	</g>
	<g>
		<g>
			<path class="st1" d="M316.6,90c-0.4-1.3-1.5-2.2-2.8-2.4l-7.3-1.1l-3.3-6.6c-0.6-1.2-1.8-2-3.2-2c-1.3,0-2.6,0.8-3.2,2l-3.3,6.6
				l-7.3,1.1c-1.3,0.2-2.4,1.1-2.8,2.4c-0.4,1.3-0.1,2.7,0.9,3.6l5.3,5.2l-1.3,7.3c-0.2,1.3,0.3,2.7,1.4,3.4
				c1.1,0.8,2.5,0.9,3.7,0.3l6.6-3.4l6.6,3.4c0.5,0.3,1.1,0.4,1.6,0.4c0.7,0,1.5-0.2,2.1-0.7c1.1-0.8,1.6-2.1,1.4-3.4l-1.3-7.3
				l5.3-5.2C316.7,92.6,317,91.2,316.6,90z"/>
		</g>
	</g>
	<g>
		<g>
			<path class="st0" d="M318.5,89.3c-0.6-2-2.4-3.5-4.5-3.8l-6.3-0.9l-2.8-5.7c-0.9-1.9-2.8-3.1-4.9-3.1c-2.1,0-4,1.2-4.9,3.1
				l-2.8,5.7l-6.3,0.9c-2.1,0.3-3.8,1.7-4.5,3.7c-0.7,2-0.1,4.2,1.4,5.7l4.6,4.4l-1.1,6.3c-0.3,2.1,0.5,4.1,2.2,5.4
				c1.7,1.2,4,1.4,5.8,0.4l5.6-3l5.6,3c0.8,0.4,1.7,0.6,2.6,0.6c1.2,0,2.3-0.4,3.2-1.1c1.7-1.2,2.6-3.3,2.2-5.4l-1.1-6.3l4.6-4.4
				C318.6,93.5,319.2,91.4,318.5,89.3z M314.3,92.1l-6.1,5.9l1.4,8.3c0.1,0.6-0.1,1.1-0.6,1.5c-0.5,0.3-1.1,0.4-1.6,0.1L300,104
				l-7.5,3.9c-0.5,0.3-1.1,0.2-1.6-0.1c-0.5-0.3-0.7-0.9-0.6-1.5l1.4-8.3l-6.1-5.9c-0.4-0.4-0.6-1-0.4-1.6c0.2-0.6,0.6-0.9,1.2-1
				l8.4-1.2l3.7-7.6c0.3-0.5,0.8-0.8,1.4-0.8c0.6,0,1.1,0.3,1.4,0.8l3.7,7.6l8.4,1.2c0.6,0.1,1,0.5,1.2,1
				C314.9,91.1,314.7,91.7,314.3,92.1z"/>
		</g>
	</g>
	<g>
		<g>
			<polygon class="st0" points="317.3,429 299.9,446.4 290.7,437.3 287.9,440.1 299.9,452.1 320.1,431.8 			"/>
		</g>
	</g>
	<g>
		<g>
			<path class="st0" d="M308.4,494.4l-8-8c-0.3-0.3-0.7-0.3-0.9,0l-8,8c-0.1,0.1-0.2,0.3-0.2,0.5v6.4c0,0.3,0.2,0.5,0.4,0.6
				c0.2,0.1,0.5,0,0.7-0.1l7.5-7.5l7.5,7.5c0.1,0.1,0.3,0.2,0.5,0.2c0.1,0,0.2,0,0.3-0.1c0.3-0.1,0.4-0.4,0.4-0.6v-6.4
				C308.6,494.7,308.6,494.5,308.4,494.4z"/>
		</g>
	</g>
	<g>
		<g>
			<path class="st0" d="M308.4,505.5l-8-8c-0.3-0.3-0.7-0.3-0.9,0l-8,8c-0.1,0.1-0.2,0.3-0.2,0.5v6.4c0,0.3,0.2,0.5,0.4,0.6
				c0.1,0,0.2,0.1,0.3,0.1c0.2,0,0.3-0.1,0.5-0.2l7.5-7.5l7.5,7.5c0.2,0.2,0.5,0.2,0.7,0.1c0.3-0.1,0.4-0.3,0.4-0.6V506
				C308.6,505.8,308.6,505.6,308.4,505.5z"/>
		</g>
	</g>
	<g>
		<g>
			<path class="st0" d="M308.4,520.4l-8-8c-0.1-0.1-0.3-0.2-0.5-0.2c-0.2,0-0.3,0.1-0.5,0.2l-8,8c-0.3,0.3-0.3,0.7,0,1
				c0.1,0.1,0.3,0.2,0.5,0.2c0.2,0,0.3-0.1,0.5-0.2l7.5-7.5l7.5,7.5c0.3,0.3,0.7,0.3,1,0C308.7,521.1,308.7,520.6,308.4,520.4z"/>
		</g>
	</g>
	<g>
		<g>
			<path class="st0" d="M308.4,528.2l-8-8c-0.1-0.1-0.3-0.2-0.5-0.2c-0.2,0-0.3,0.1-0.5,0.2l-8,8c-0.3,0.3-0.3,0.7,0,1
				c0.1,0.1,0.3,0.2,0.5,0.2c0.2,0,0.3-0.1,0.5-0.2l7.5-7.5l7.5,7.5c0.3,0.3,0.7,0.3,1,0C308.7,528.9,308.7,528.5,308.4,528.2z"/>
		</g>
	</g>
</g>
</svg>
