<?xml version="1.0" encoding="utf-8"?>
<!-- Generator: Adobe Illustrator 23.0.3, SVG Export Plug-In . SVG Version: 6.00 Build 0)  -->
<svg version="1.1" id="Layer_1" xmlns="http://www.w3.org/2000/svg" xmlns:xlink="http://www.w3.org/1999/xlink" x="0px" y="0px"
	 viewBox="0 0 600 600" style="enable-background:new 0 0 600 600;" xml:space="preserve">
<style type="text/css">
	.st0{fill:#E9F6FF;}
	.st1{fill:#C8DFF5;}
	.st2{fill:#FFFFFF;}
	.st3{fill:#DEF4FC;}
	.st4{fill:#2481D7;}
	.st5{fill:#AFD8F9;}
	.st6{fill:#6AB0E5;}
	.st7{fill:#5BA1E1;}
</style>
<g>
	<g>
		<g>
			<polygon class="st0" points="176.9,86.9 144,144 242.9,86.9 			"/>
		</g>
	</g>
	<g>
		<g>
			<polygon class="st0" points="423.1,86.9 357.1,86.9 456,144 			"/>
		</g>
	</g>
	<g>
		<g>
			<polygon class="st0" points="357.1,513.1 423.1,513.1 456,456 			"/>
		</g>
	</g>
	<g>
		<g>
			<polygon class="st0" points="144,456 176.9,513.1 242.9,513.1 			"/>
		</g>
	</g>
	<g>
		<g>
			<polygon class="st1" points="512.1,421.3 300,543.8 87.9,421.3 85.9,424.8 299,547.8 300,548.4 514.1,424.8 			"/>
		</g>
	</g>
	<g>
		<g>
			<polygon class="st1" points="301,52.2 300,51.6 85.9,175.2 87.9,178.7 300,56.2 512.1,178.7 514.1,175.2 			"/>
		</g>
	</g>
	<g>
		<g>
			<polygon class="st1" points="449.5,385.5 449.5,386.3 448.8,386.8 450.8,390.2 453.5,388.6 453.5,385.5 			"/>
		</g>
	</g>
	<g>
		<g>
			<path class="st1" d="M352.4,442.4l2,3.5l3.4-2l-2-3.5L352.4,442.4z M345.5,446.4l2,3.5l3.4-2l-2-3.5L345.5,446.4z M338.6,450.4
				l2,3.5l3.4-2l-2-3.5L338.6,450.4z M366.2,434.5l2,3.5l3.4-2l-2-3.5L366.2,434.5z M359.3,438.4l2,3.5l3.4-2l-2-3.5L359.3,438.4z
				 M331.7,454.4l2,3.5l3.4-2l-2-3.5L331.7,454.4z M373,430.5l2,3.5l3.4-2l-2-3.5L373,430.5z M304.2,470.3l2,3.5l3.4-2l-2-3.5
				L304.2,470.3z M311.1,466.3l2,3.5l3.4-2l-2-3.5L311.1,466.3z M324.8,458.3l2,3.5l3.4-2l-2-3.5L324.8,458.3z M317.9,462.3l2,3.5
				l3.4-2l-2-3.5L317.9,462.3z M428.1,398.7l2,3.5l3.4-2l-2-3.5L428.1,398.7z M421.3,402.7l2,3.5l3.4-2l-2-3.5L421.3,402.7z
				 M435,394.7l2,3.5l3.4-2l-2-3.5L435,394.7z M414.4,406.6l2,3.5l3.4-2l-2-3.5L414.4,406.6z M445.4,388.7l-3.4,2l2,3.5l3.4-2
				L445.4,388.7z M386.8,422.5l2,3.5l3.4-2l-2-3.5L386.8,422.5z M393.7,418.6l2,3.5l3.4-2l-2-3.5L393.7,418.6z M407.5,410.6l2,3.5
				l3.4-2l-2-3.5L407.5,410.6z M379.9,426.5l2,3.5l3.4-2l-2-3.5L379.9,426.5z M400.6,414.6l2,3.5l3.4-2l-2-3.5L400.6,414.6z"/>
		</g>
	</g>
	<g>
		<g>
			<polygon class="st1" points="300.7,472.2 300,472.7 299.3,472.2 297.3,475.7 300,477.3 302.7,475.7 			"/>
		</g>
	</g>
	<g>
		<g>
			<path class="st1" d="M194,416.1l3.4,2l2-3.5l-3.4-2L194,416.1z M200.8,420l3.4,2l2-3.5l-3.4-2L200.8,420z M214.6,428l3.4,2l2-3.5
				l-3.4-2L214.6,428z M187.1,412.1l3.4,2l2-3.5l-3.4-2L187.1,412.1z M207.7,424l3.4,2l2-3.5l-3.4-2L207.7,424z M180.2,408.1l3.4,2
				l2-3.5l-3.4-2L180.2,408.1z M159.5,396.2l3.4,2l2-3.5l-3.4-2L159.5,396.2z M166.4,400.2l3.4,2l2-3.5l-3.4-2L166.4,400.2z
				 M221.5,432l3.4,2l2-3.5l-3.4-2L221.5,432z M173.3,404.1l3.4,2l2-3.5l-3.4-2L173.3,404.1z M152.6,392.2l3.4,2l2-3.5l-3.4-2
				L152.6,392.2z M269.7,459.8l3.4,2l2-3.5l-3.4-2L269.7,459.8z M262.8,455.8l3.4,2l2-3.5l-3.4-2L262.8,455.8z M276.6,463.8l3.4,2
				l2-3.5l-3.4-2L276.6,463.8z M283.5,467.8l3.4,2l2-3.5l-3.4-2L283.5,467.8z M292.4,468.3l-2,3.5l3.4,2l2-3.5L292.4,468.3z
				 M228.4,435.9l3.4,2l2-3.5l-3.4-2L228.4,435.9z M242.2,443.9l3.4,2l2-3.5l-3.4-2L242.2,443.9z M255.9,451.9l3.4,2l2-3.5l-3.4-2
				L255.9,451.9z M235.3,439.9l3.4,2l2-3.5l-3.4-2L235.3,439.9z M249.1,447.9l3.4,2l2-3.5l-3.4-2L249.1,447.9z"/>
		</g>
	</g>
	<g>
		<g>
			<polygon class="st1" points="150.5,386.3 150.5,385.5 146.5,385.5 146.5,388.6 149.2,390.2 151.2,386.8 			"/>
		</g>
	</g>
	<g>
		<g>
			<path class="st1" d="M146.5,309.9h4v-4h-4V309.9z M146.5,325.8h4v-4h-4V325.8z M146.5,341.8h4v-4h-4V341.8z M146.5,317.9h4v-4h-4
				V317.9z M146.5,333.8h4v-4h-4V333.8z M146.5,381.5h4v-4h-4V381.5z M146.5,373.6h4v-4h-4V373.6z M146.5,357.7h4v-4h-4V357.7z
				 M146.5,365.6h4v-4h-4V365.6z M146.5,349.7h4v-4h-4V349.7z M146.5,286.1h4v-4h-4V286.1z M146.5,246.3h4v-4h-4V246.3z
				 M146.5,238.4h4v-4h-4V238.4z M146.5,254.3h4v-4h-4V254.3z M146.5,218.5v4h4v-4H146.5z M146.5,230.4h4v-4h-4V230.4z M146.5,270.2
				h4v-4h-4V270.2z M146.5,262.2h4v-4h-4V262.2z M146.5,278.1h4v-4h-4V278.1z M146.5,294h4v-4h-4V294z M146.5,302h4v-4h-4V302z"/>
		</g>
	</g>
	<g>
		<g>
			<polygon class="st1" points="149.2,209.8 146.5,211.4 146.5,214.5 150.5,214.5 150.5,213.7 151.2,213.2 			"/>
		</g>
	</g>
	<g>
		<g>
			<path class="st1" d="M180.2,191.9l2,3.5l3.4-2l-2-3.5L180.2,191.9z M187.1,187.9l2,3.5l3.4-2l-2-3.5L187.1,187.9z M194,183.9
				l2,3.5l3.4-2l-2-3.5L194,183.9z M200.8,180l2,3.5l3.4-2l-2-3.5L200.8,180z M207.7,176l2,3.5l3.4-2l-2-3.5L207.7,176z
				 M152.6,207.8l2,3.5l3.4-2l-2-3.5L152.6,207.8z M214.6,172l2,3.5l3.4-2l-2-3.5L214.6,172z M159.5,203.8l2,3.5l3.4-2l-2-3.5
				L159.5,203.8z M166.4,199.8l2,3.5l3.4-2l-2-3.5L166.4,199.8z M173.3,195.9l2,3.5l3.4-2l-2-3.5L173.3,195.9z M276.6,136.2l2,3.5
				l3.4-2l-2-3.5L276.6,136.2z M255.9,148.1l2,3.5l3.4-2l-2-3.5L255.9,148.1z M262.8,144.2l2,3.5l3.4-2l-2-3.5L262.8,144.2z
				 M269.7,140.2l2,3.5l3.4-2l-2-3.5L269.7,140.2z M283.5,132.2l2,3.5l3.4-2l-2-3.5L283.5,132.2z M293.8,126.3l-3.4,2l2,3.5l3.4-2
				L293.8,126.3z M221.5,168l2,3.5l3.4-2l-2-3.5L221.5,168z M249.1,152.1l2,3.5l3.4-2l-2-3.5L249.1,152.1z M235.3,160.1l2,3.5l3.4-2
				l-2-3.5L235.3,160.1z M228.4,164.1l2,3.5l3.4-2l-2-3.5L228.4,164.1z M242.2,156.1l2,3.5l3.4-2l-2-3.5L242.2,156.1z"/>
		</g>
	</g>
	<g>
		<g>
			<polygon class="st1" points="300,122.7 297.3,124.3 299.3,127.8 300,127.3 300.7,127.8 302.7,124.3 			"/>
		</g>
	</g>
	<g>
		<g>
			<path class="st1" d="M366.2,165.5l3.4,2l2-3.5l-3.4-2L366.2,165.5z M345.5,153.6l3.4,2l2-3.5l-3.4-2L345.5,153.6z M331.7,145.6
				l3.4,2l2-3.5l-3.4-2L331.7,145.6z M352.4,157.6l3.4,2l2-3.5l-3.4-2L352.4,157.6z M359.3,161.6l3.4,2l2-3.5l-3.4-2L359.3,161.6z
				 M338.6,149.6l3.4,2l2-3.5l-3.4-2L338.6,149.6z M311.1,133.7l3.4,2l2-3.5l-3.4-2L311.1,133.7z M304.2,129.7l3.4,2l2-3.5l-3.4-2
				L304.2,129.7z M324.8,141.7l3.4,2l2-3.5l-3.4-2L324.8,141.7z M317.9,137.7l3.4,2l2-3.5l-3.4-2L317.9,137.7z M428.1,201.3l3.4,2
				l2-3.5l-3.4-2L428.1,201.3z M414.4,193.4l3.4,2l2-3.5l-3.4-2L414.4,193.4z M421.3,197.3l3.4,2l2-3.5l-3.4-2L421.3,197.3z
				 M435,205.3l3.4,2l2-3.5l-3.4-2L435,205.3z M407.5,189.4l3.4,2l2-3.5l-3.4-2L407.5,189.4z M443.9,205.8l-2,3.5l3.4,2l2-3.5
				L443.9,205.8z M386.8,177.5l3.4,2l2-3.5l-3.4-2L386.8,177.5z M373,169.5l3.4,2l2-3.5l-3.4-2L373,169.5z M400.6,185.4l3.4,2l2-3.5
				l-3.4-2L400.6,185.4z M379.9,173.5l3.4,2l2-3.5l-3.4-2L379.9,173.5z M393.7,181.4l3.4,2l2-3.5l-3.4-2L393.7,181.4z"/>
		</g>
	</g>
	<g>
		<g>
			<polygon class="st1" points="450.8,209.8 448.8,213.2 449.5,213.7 449.5,214.5 453.5,214.5 453.5,211.4 			"/>
		</g>
	</g>
	<g>
		<g>
			<path class="st1" d="M449.5,341.8h4v-4h-4V341.8z M449.5,349.7h4v-4h-4V349.7z M449.5,333.8h4v-4h-4V333.8z M449.5,325.8h4v-4h-4
				V325.8z M449.5,317.9h4v-4h-4V317.9z M449.5,373.6h4v-4h-4V373.6z M449.5,309.9h4v-4h-4V309.9z M449.5,381.5h4v-4h-4V381.5z
				 M449.5,365.6h4v-4h-4V365.6z M449.5,357.7h4v-4h-4V357.7z M449.5,218.5v4h4v-4H449.5z M449.5,246.3h4v-4h-4V246.3z M449.5,254.3
				h4v-4h-4V254.3z M449.5,262.2h4v-4h-4V262.2z M449.5,230.4h4v-4h-4V230.4z M449.5,238.4h4v-4h-4V238.4z M449.5,278.1h4v-4h-4
				V278.1z M449.5,294h4v-4h-4V294z M449.5,286.1h4v-4h-4V286.1z M449.5,270.2h4v-4h-4V270.2z M449.5,302h4v-4h-4V302z"/>
		</g>
	</g>
	<g>
		<g>
			<circle class="st2" cx="300" cy="158.6" r="33"/>
		</g>
	</g>
	<g>
		<g>
			<circle class="st3" cx="300" cy="171.3" r="33"/>
		</g>
	</g>
	<g>
		<g>
			<path class="st4" d="M300,121.6c-20.4,0-37,16.6-37,37s16.6,37,37,37s37-16.6,37-37S320.4,121.6,300,121.6z M300,187.6
				c-16,0-29-13-29-29s13-29,29-29s29,13,29,29S316,187.6,300,187.6z"/>
		</g>
	</g>
	<g>
		<g>
			<polygon class="st3" points="105.5,409.3 105.5,512.6 121.6,512.6 171.6,409.3 			"/>
		</g>
	</g>
	<g>
		<g>
			<polygon class="st5" points="123,409.3 123,509.6 171.6,409.3 			"/>
		</g>
	</g>
	<g>
		<g>
			<path class="st4" d="M175,407.1c-0.7-1.2-2-1.9-3.4-1.9h-66.1c-2.2,0-4,1.8-4,4v103.3c0,2.2,1.8,4,4,4h16.1
				c1.5,0,2.9-0.9,3.6-2.3l50-103.3C175.8,409.8,175.7,408.3,175,407.1z M119.1,508.6h-9.6v-95.3h55.7L119.1,508.6z"/>
		</g>
	</g>
	<g>
		<g>
			<polygon class="st3" points="428.4,409.3 478.4,512.6 494.5,512.6 494.5,409.3 			"/>
		</g>
	</g>
	<g>
		<g>
			<polygon class="st5" points="428.4,409.3 477,509.6 477,409.3 			"/>
		</g>
	</g>
	<g>
		<g>
			<path class="st4" d="M494.5,405.3h-66.1c-1.4,0-2.7,0.7-3.4,1.9c-0.7,1.2-0.8,2.6-0.2,3.9l50,103.3c0.7,1.4,2.1,2.3,3.6,2.3h16.1
				c2.2,0,4-1.8,4-4V409.3C498.5,407,496.7,405.3,494.5,405.3z M490.5,508.6h-9.6l-46.1-95.3h55.7V508.6z"/>
		</g>
	</g>
	<g>
		<g>
			<path class="st5" d="M480.3,157.2H119.7c-7.8,0-14.2,6.3-14.2,14.2v270.1c0,7.8,6.3,14.2,14.2,14.2h360.6
				c7.8,0,14.2-6.3,14.2-14.2V171.4C494.5,163.5,488.1,157.2,480.3,157.2z"/>
		</g>
	</g>
	<g>
		<g>
			<path class="st6" d="M480.3,174.2H119.7c-7.8,0-14.2,6.3-14.2,14.2v253.1c0,7.8,6.3,14.2,14.2,14.2h360.6
				c7.8,0,14.2-6.3,14.2-14.2V188.4C494.5,180.5,488.1,174.2,480.3,174.2z"/>
		</g>
	</g>
	<g>
		<g>
			<rect x="144.2" y="362.9" class="st7" width="271.5" height="92.7"/>
		</g>
	</g>
	<g>
		<g>
			<path class="st2" d="M368.5,194.1H191.4c-26.1,0-47.2,21.1-47.2,47.2v130.4c0,26.1,21.1,47.2,47.2,47.2h177.1
				c26.1,0,47.2-21.1,47.2-47.2V241.3C415.7,215.2,394.6,194.1,368.5,194.1z"/>
		</g>
	</g>
	<g>
		<g>
			<path class="st3" d="M368.5,213.1H191.4c-26.1,0-47.2,21.1-47.2,47.2v111.4c0,26.1,21.1,47.2,47.2,47.2h177.1
				c26.1,0,47.2-21.1,47.2-47.2V260.3C415.7,234.2,394.6,213.1,368.5,213.1z"/>
		</g>
	</g>
	<g>
		<g>
			<path class="st4" d="M480.3,153.2H119.7c-10,0-18.2,8.2-18.2,18.2v270.1c0,10,8.2,18.2,18.2,18.2h360.6c10,0,18.2-8.2,18.2-18.2
				V171.4C498.5,161.4,490.3,153.2,480.3,153.2z M490.5,441.5c0,5.6-4.6,10.2-10.2,10.2H119.7c-5.6,0-10.2-4.6-10.2-10.2V171.4
				c0-5.6,4.6-10.2,10.2-10.2h360.6c5.6,0,10.2,4.6,10.2,10.2V441.5z"/>
		</g>
	</g>
	<g>
		<g>
			<path class="st4" d="M368.5,190.1H191.4c-28.2,0-51.2,23-51.2,51.2v130.4c0,28.7,23.1,51.2,52.5,51.2h177.1
				c13.1,0,25.6-5.3,35.1-15c9.5-9.7,14.8-22.6,14.8-36.2V241.3C419.7,213,396.8,190.1,368.5,190.1z M411.7,371.6
				c0,23.4-19.2,43.2-41.9,43.2H192.7c-25,0-44.5-19-44.5-43.2V241.3c0-23.8,19.4-43.2,43.2-43.2h177.1c23.8,0,43.2,19.4,43.2,43.2
				V371.6z"/>
		</g>
	</g>
	<g>
		<g>
			<path class="st5" d="M455.1,216.8c-10,0-18.2,8.1-18.2,18.2c0,10,8.1,18.2,18.2,18.2c10,0,18.2-8.1,18.2-18.2
				C473.3,225,465.2,216.8,455.1,216.8z"/>
		</g>
	</g>
	<g>
		<g>
			<path class="st6" d="M449.1,235v17.1c1.9,0.7,3.9,1,6,1c2.1,0,4.1-0.4,6-1V235H449.1z"/>
		</g>
	</g>
	<g>
		<g>
			<path class="st4" d="M455.1,213.8c-11.7,0-21.2,9.5-21.2,21.2c0,11.7,9.5,21.2,21.2,21.2c11.7,0,21.2-9.5,21.2-21.2
				C476.3,223.3,466.8,213.8,455.1,213.8z M455.1,250.2c-8.4,0-15.2-6.8-15.2-15.2c0-8.4,6.8-15.2,15.2-15.2
				c8.4,0,15.2,6.8,15.2,15.2C470.3,243.4,463.5,250.2,455.1,250.2z"/>
		</g>
	</g>
	<g>
		<g>
			<path class="st5" d="M455.1,229c-3.3,0-6,2.7-6,6c0,3.3,2.7,6,6,6c3.3,0,6-2.7,6-6C461.1,231.7,458.4,229,455.1,229z"/>
		</g>
	</g>
	<g>
		<g>
			<path class="st4" d="M455.1,227c-4.4,0-8,3.6-8,8s3.6,8,8,8c4.4,0,8-3.6,8-8S459.5,227,455.1,227z M455.1,239c-2.2,0-4-1.8-4-4
				c0-2.2,1.8-4,4-4c2.2,0,4,1.8,4,4C459.1,237.2,457.3,239,455.1,239z"/>
		</g>
	</g>
	<g>
		<g>
			<path class="st4" d="M473.3,266.6H437c-1.1,0-2,0.9-2,2s0.9,2,2,2h36.3c1.1,0,2-0.9,2-2S474.4,266.6,473.3,266.6z"/>
		</g>
	</g>
	<g>
		<g>
			<path class="st4" d="M473.3,280.1H437c-1.1,0-2,0.9-2,2s0.9,2,2,2h36.3c1.1,0,2-0.9,2-2S474.4,280.1,473.3,280.1z"/>
		</g>
	</g>
	<g>
		<g>
			<path class="st4" d="M473.3,293.6H437c-1.1,0-2,0.9-2,2s0.9,2,2,2h36.3c1.1,0,2-0.9,2-2S474.4,293.6,473.3,293.6z"/>
		</g>
	</g>
	<g>
		<g>
			<path class="st4" d="M473.3,307.1H437c-1.1,0-2,0.9-2,2s0.9,2,2,2h36.3c1.1,0,2-0.9,2-2S474.4,307.1,473.3,307.1z"/>
		</g>
	</g>
	<g>
		<g>
			<rect x="437" y="326.4" class="st7" width="14" height="14"/>
		</g>
	</g>
	<g>
		<g>
			<rect x="437" y="319.4" class="st3" width="14" height="14"/>
		</g>
	</g>
	<g>
		<g>
			<path class="st4" d="M450.9,317.4h-14c-1.1,0-2,0.9-2,2v14c0,1.1,0.9,2,2,2h14c1.1,0,2-0.9,2-2v-14
				C452.9,318.3,452,317.4,450.9,317.4z M448.9,331.4h-10v-10h10V331.4z"/>
		</g>
	</g>
	<g>
		<g>
			<rect x="459.3" y="326.4" class="st7" width="14" height="14"/>
		</g>
	</g>
	<g>
		<g>
			<rect x="459.3" y="319.4" class="st3" width="14" height="14"/>
		</g>
	</g>
	<g>
		<g>
			<path class="st4" d="M473.3,317.4h-14c-1.1,0-2,0.9-2,2v14c0,1.1,0.9,2,2,2h14c1.1,0,2-0.9,2-2v-14
				C475.3,318.3,474.4,317.4,473.3,317.4z M471.3,331.4h-10v-10h10V331.4z"/>
		</g>
	</g>
	<g>
		<g>
			<rect x="437" y="349" class="st7" width="14" height="14"/>
		</g>
	</g>
	<g>
		<g>
			<rect x="437" y="342" class="st3" width="14" height="14"/>
		</g>
	</g>
	<g>
		<g>
			<path class="st4" d="M450.9,340h-14c-1.1,0-2,0.9-2,2v14c0,1.1,0.9,2,2,2h14c1.1,0,2-0.9,2-2v-14C452.9,340.9,452,340,450.9,340z
				 M448.9,353.9h-10v-10h10V353.9z"/>
		</g>
	</g>
	<g>
		<g>
			<rect x="459.3" y="349" class="st7" width="14" height="14"/>
		</g>
	</g>
	<g>
		<g>
			<rect x="459.3" y="342" class="st3" width="14" height="14"/>
		</g>
	</g>
	<g>
		<g>
			<path class="st4" d="M473.3,340h-14c-1.1,0-2,0.9-2,2v14c0,1.1,0.9,2,2,2h14c1.1,0,2-0.9,2-2v-14
				C475.3,340.9,474.4,340,473.3,340z M471.3,353.9h-10v-10h10V353.9z"/>
		</g>
	</g>
	<g>
		<g>
			<rect x="437" y="371.5" class="st7" width="14" height="14"/>
		</g>
	</g>
	<g>
		<g>
			<rect x="437" y="364.6" class="st3" width="14" height="14"/>
		</g>
	</g>
	<g>
		<g>
			<path class="st4" d="M450.9,362.6h-14c-1.1,0-2,0.9-2,2v14c0,1.1,0.9,2,2,2h14c1.1,0,2-0.9,2-2v-14
				C452.9,363.5,452,362.6,450.9,362.6z M448.9,376.5h-10v-10h10V376.5z"/>
		</g>
	</g>
	<g>
		<g>
			<rect x="459.3" y="371.5" class="st7" width="14" height="14"/>
		</g>
	</g>
	<g>
		<g>
			<rect x="459.3" y="364.6" class="st3" width="14" height="14"/>
		</g>
	</g>
	<g>
		<g>
			<path class="st4" d="M473.3,362.6h-14c-1.1,0-2,0.9-2,2v14c0,1.1,0.9,2,2,2h14c1.1,0,2-0.9,2-2v-14
				C475.3,363.5,474.4,362.6,473.3,362.6z M471.3,376.5h-10v-10h10V376.5z"/>
		</g>
	</g>
	<g>
		<g>
			<rect x="437" y="394.7" class="st7" width="36.3" height="14"/>
		</g>
	</g>
	<g>
		<g>
			<rect x="437" y="387.7" class="st3" width="36.3" height="14"/>
		</g>
	</g>
	<g>
		<g>
			<path class="st4" d="M473.3,385.7H437c-1.1,0-2,0.9-2,2v14c0,1.1,0.9,2,2,2h36.3c1.1,0,2-0.9,2-2v-14
				C475.3,386.6,474.4,385.7,473.3,385.7z M471.3,399.7H439v-10h32.3V399.7z"/>
		</g>
	</g>
	<g>
		<g>
			<path class="st4" d="M287.8,140.7l-50.3-50.3c-1.2-1.2-3.1-1.2-4.2,0c-1.2,1.2-1.2,3.1,0,4.2l50.3,50.3c0.6,0.6,1.4,0.9,2.1,0.9
				c0.8,0,1.5-0.3,2.1-0.9C289,143.8,289,141.9,287.8,140.7z"/>
		</g>
	</g>
	<g>
		<g>
			<path class="st4" d="M234.1,84.4c-3.8,0-6.9,3.1-6.9,6.9c0,3.8,3.1,6.9,6.9,6.9c3.8,0,6.9-3.1,6.9-6.9
				C241,87.5,237.9,84.4,234.1,84.4z M234.1,92.2c-0.5,0-0.9-0.4-0.9-0.9c0-0.5,0.4-0.9,0.9-0.9s0.9,0.4,0.9,0.9
				C235,91.8,234.6,92.2,234.1,92.2z"/>
		</g>
	</g>
	<g>
		<g>
			<path class="st4" d="M366.8,90.4c-1.2-1.2-3.1-1.2-4.2,0l-50.3,50.3c-1.2,1.2-1.2,3.1,0,4.2c0.6,0.6,1.4,0.9,2.1,0.9
				c0.8,0,1.5-0.3,2.1-0.9l50.3-50.3C367.9,93.5,367.9,91.6,366.8,90.4z"/>
		</g>
	</g>
	<g>
		<g>
			<path class="st4" d="M365.9,84.4c-3.8,0-6.9,3.1-6.9,6.9c0,3.8,3.1,6.9,6.9,6.9c3.8,0,6.9-3.1,6.9-6.9
				C372.8,87.5,369.7,84.4,365.9,84.4z M365.9,92.2c-0.5,0-0.9-0.4-0.9-0.9c0-0.5,0.4-0.9,0.9-0.9s0.9,0.4,0.9,0.9
				C366.8,91.8,366.4,92.2,365.9,92.2z"/>
		</g>
	</g>
	<g>
		<g>
			<path class="st2" d="M280,392.2c47.3,0,85.7-38.4,85.7-85.7L280,392.2z"/>
		</g>
	</g>
	<g>
		<g>
			<path class="st2" d="M194.3,306.4l85.7-85.7C232.6,220.7,194.3,259.1,194.3,306.4z"/>
		</g>
	</g>
	<g>
		<g>
			<path class="st1" d="M278.5,371.6l-0.1,4c0.5,0,1.1,0,1.6,0l0-4C279.5,371.6,279,371.6,278.5,371.6z M226,343l-3.3,2.2
				c0.8,1.1,1.6,2.3,2.4,3.3l3.2-2.4C227.5,345.1,226.7,344.1,226,343z M218.9,329.2l-3.7,1.4c0.5,1.3,1,2.6,1.6,3.8l3.7-1.6
				C219.8,331.7,219.3,330.4,218.9,329.2z M222,336.3l-3.6,1.8c0.6,1.2,1.3,2.4,2,3.6l3.4-2C223.3,338.6,222.6,337.5,222,336.3z
				 M214.8,306.4h-4c0,1.4,0,2.8,0.1,4.1l4-0.2C214.8,309,214.8,307.7,214.8,306.4z M216.6,321.8l-3.9,0.9c0.3,1.3,0.7,2.7,1.1,4
				l3.8-1.2C217.3,324.3,216.9,323.1,216.6,321.8z M215.2,314.2l-4,0.5c0.2,1.4,0.4,2.7,0.6,4.1l3.9-0.7
				C215.6,316.8,215.4,315.5,215.2,314.2z M227.7,351.8c0.9,1,1.8,2,2.8,3l2.9-2.8c-0.9-0.9-1.8-1.9-2.6-2.9L227.7,351.8z
				 M262.1,373.3c1.3,0.4,2.7,0.7,4,0.9l0.8-3.9c-1.3-0.3-2.5-0.6-3.8-0.9L262.1,373.3z M270.2,374.9c1.4,0.2,2.7,0.3,4.1,0.5l0.3-4
				c-1.3-0.1-2.6-0.3-3.9-0.4L270.2,374.9z M254.3,370.7c1.3,0.5,2.6,1,3.9,1.4l1.3-3.8c-1.2-0.4-2.4-0.9-3.6-1.3L254.3,370.7z
				 M239.9,362.8c1.1,0.8,2.3,1.6,3.4,2.3l2.1-3.4c-1.1-0.7-2.2-1.4-3.2-2.2L239.9,362.8z M246.8,367.2c1.2,0.7,2.4,1.3,3.7,1.9
				l1.7-3.6c-1.2-0.5-2.3-1.1-3.5-1.8L246.8,367.2z M233.5,357.7c1,0.9,2.1,1.8,3.1,2.7l2.5-3.1c-1-0.8-2-1.7-2.9-2.5L233.5,357.7z"
				/>
		</g>
	</g>
	<g>
		<g>
			<path class="st1" d="M307.7,247.5c1.2,0.5,2.3,1.1,3.5,1.8l1.9-3.5c-1.2-0.7-2.4-1.3-3.7-1.9L307.7,247.5z M314.5,251.2
				c1.1,0.7,2.2,1.4,3.2,2.2l2.3-3.3c-1.1-0.8-2.3-1.6-3.4-2.3L314.5,251.2z M320.8,255.7c1,0.8,2,1.7,2.9,2.5l2.7-3
				c-1-0.9-2.1-1.8-3.1-2.7L320.8,255.7z M280,241.3c0.5,0,1,0,1.5,0l0.1-4c-0.5,0-1.1,0-1.6,0V241.3z M293,242.6
				c1.3,0.3,2.5,0.6,3.8,0.9l1-3.9c-1.3-0.4-2.7-0.7-4-0.9L293,242.6z M285.3,241.5c1.3,0.1,2.6,0.3,3.9,0.4l0.6-4
				c-1.4-0.2-2.7-0.3-4.1-0.5L285.3,241.5z M300.5,244.6c1.2,0.4,2.4,0.9,3.6,1.3l1.5-3.7c-1.3-0.5-2.6-1-3.9-1.4L300.5,244.6z
				 M348,294.2l-3.9,0.7c0.2,1.3,0.4,2.6,0.6,3.8l4-0.5C348.5,296.9,348.3,295.5,348,294.2z M346.1,286.2l-3.8,1.2
				c0.4,1.2,0.7,2.5,1,3.7l3.9-0.9C346.9,288.8,346.5,287.5,346.1,286.2z M349,302.3l-4,0.2c0.1,1.3,0.1,2.6,0.1,3.9h4
				C349.1,305.1,349.1,303.7,349,302.3z M343.2,278.4l-3.7,1.6c0.5,1.2,1,2.4,1.5,3.6l3.7-1.4C344.3,281,343.8,279.7,343.2,278.4z
				 M329.4,258.1l-2.9,2.8c0.9,0.9,1.8,1.9,2.6,2.9l3-2.6C331.3,260.1,330.4,259.1,329.4,258.1z M334.8,264.3l-3.2,2.4
				c0.8,1,1.6,2.1,2.3,3.1l3.3-2.2C336.5,266.5,335.7,265.4,334.8,264.3z M339.4,271.1l-3.4,2c0.7,1.1,1.3,2.3,1.9,3.4l3.6-1.8
				C340.8,273.5,340.1,272.3,339.4,271.1z"/>
		</g>
	</g>
	<g>
		<g>
			<path class="st1" d="M345.1,306.4c0,17.4-6.8,33.8-19.1,46.1c-12.3,12.3-28.7,19.1-46.1,19.1v4c0,0,0,0,0,0
				c18.5,0,35.8-7.2,48.9-20.3c13.1-13.1,20.3-30.4,20.3-48.9H345.1z"/>
		</g>
	</g>
	<g>
		<g>
			<path class="st1" d="M210.8,306.4h4c0-35.9,29.2-65.2,65.2-65.2v-4C241.8,237.3,210.8,268.3,210.8,306.4z"/>
		</g>
	</g>
	<g>
		<g>
			<path class="st1" d="M280,218.7v4c46.2,0,83.7,37.6,83.7,83.7h4C367.7,258.1,328.3,218.7,280,218.7z"/>
		</g>
	</g>
	<g>
		<g>
			<path class="st1" d="M196.3,306.4h-4c0,48.4,39.3,87.7,87.7,87.7v-4C233.8,390.2,196.3,352.6,196.3,306.4z"/>
		</g>
	</g>
	<g>
		<g>
			<path class="st4" d="M310.2,334.7l-69-18.3v-17.2l69-18.3c1.1-0.3,1.7-1.4,1.4-2.4c-0.3-1.1-1.4-1.7-2.4-1.4l-70.5,18.7
				c-0.9,0.2-1.5,1-1.5,1.9V318c0,0.9,0.6,1.7,1.5,1.9l70.5,18.7c0.2,0,0.3,0.1,0.5,0.1c0.9,0,1.7-0.6,1.9-1.5
				C311.9,336.1,311.3,335,310.2,334.7z"/>
		</g>
	</g>
	<g>
		<g>
			<path class="st4" d="M320.7,271.1l-11,0h0c-0.5,0-1,0.2-1.4,0.6s-0.6,0.9-0.6,1.4v69.4c0,1.1,0.9,2,2,2l11,0h0
				c0.5,0,1-0.2,1.4-0.6c0.4-0.4,0.6-0.9,0.6-1.4v-69.4C322.7,272,321.9,271.1,320.7,271.1z M318.7,340.5l-7,0v-65.4l7,0V340.5z"/>
		</g>
	</g>
	<g>
		<g>
			<path class="st4" d="M239.2,290.9c-1.1,0-2,0.9-2,2v29.8c0,1.1,0.9,2,2,2c1.1,0,2-0.9,2-2v-29.8
				C241.2,291.8,240.3,290.9,239.2,290.9z"/>
		</g>
	</g>
	<g>
		<g>
			<path class="st4" d="M229.9,290.9c-1.1,0-2,0.9-2,2v29.8c0,1.1,0.9,2,2,2s2-0.9,2-2v-29.8C231.9,291.8,231,290.9,229.9,290.9z"/>
		</g>
	</g>
	<g>
		<g>
			<path class="st4" d="M271.3,324.9L271.3,324.9c-1.1,0-2,0.9-2,2c0,4.3-3.5,7.8-7.8,7.8c-4.3,0-7.8-3.5-7.8-7.8v-5.1
				c0-1.1-0.9-2-2-2s-2,0.9-2,2v5.1c0,6.5,5.3,11.8,11.8,11.8c6.5,0,11.8-5.3,11.8-11.8C273.3,325.7,272.4,324.9,271.3,324.9z"/>
		</g>
	</g>
	<g>
		<g>
			<path class="st4" d="M271.3,287.1c-1.1,0-2,0.9-2,2v26.3c0,1.1,0.9,2,2,2c1.1,0,2-0.9,2-2v-26.3
				C273.3,288,272.4,287.1,271.3,287.1z"/>
		</g>
	</g>
	<g>
		<g>
			<path class="st1" d="M262.5,503.2l22.4,15l22,25.2l44.1-69.6L262.5,503.2z M306.4,536.8l-18.8-21.6l-16.1-10.8l70.1-23.3
				L306.4,536.8z"/>
		</g>
	</g>
	<g>
		<g>
			
				<rect x="280.4" y="495.1" transform="matrix(0.8372 -0.5469 0.5469 0.8372 -220.367 253.8974)" class="st1" width="71.7" height="4"/>
		</g>
	</g>
	<g>
		<g>
			<polygon class="st1" points="293.9,525.5 288.2,530.5 288.2,516.7 284.2,516.7 284.2,539.4 296.5,528.5 			"/>
		</g>
	</g>
	<g>
		<g>
			<path class="st1" d="M460.7,114.4c-2.1,0-3.8,1.7-3.8,3.8c0,2.1,1.7,3.8,3.8,3.8c2.1,0,3.8-1.7,3.8-3.8
				C464.5,116.1,462.7,114.4,460.7,114.4z M460.5,118.2c0-0.1,0.1-0.2,0.2-0.2c0.1,0,0.2,0.1,0.2,0.2
				C460.8,118.4,460.5,118.4,460.5,118.2z"/>
		</g>
	</g>
	<g>
		<g>
			<path class="st1" d="M455.6,100.1v4c10.6,0,19.2,8.6,19.2,19.2h4C478.8,110.5,468.4,100.1,455.6,100.1z"/>
		</g>
	</g>
	<g>
		<g>
			<path class="st1" d="M455.6,85.4v4c18.6,0,33.8,15.2,33.8,33.8h4C493.4,102.4,476.4,85.4,455.6,85.4z"/>
		</g>
	</g>
	<g>
		<g>
			<path class="st1" d="M139.3,114.4c-2.1,0-3.8,1.7-3.8,3.8c0,2.1,1.7,3.8,3.8,3.8c2.1,0,3.8-1.7,3.8-3.8
				C143.2,116.1,141.4,114.4,139.3,114.4z M139.2,118.2c0-0.1,0.1-0.2,0.2-0.2c0.1,0,0.2,0.1,0.2,0.2
				C139.5,118.4,139.2,118.4,139.2,118.2z"/>
		</g>
	</g>
	<g>
		<g>
			<path class="st1" d="M121.2,123.2h4c0-10.6,8.6-19.2,19.2-19.2v-4C131.6,100.1,121.2,110.5,121.2,123.2z"/>
		</g>
	</g>
	<g>
		<g>
			<path class="st1" d="M106.6,123.2h4c0-18.6,15.2-33.8,33.8-33.8v-4C123.6,85.4,106.6,102.4,106.6,123.2z"/>
		</g>
	</g>
	<g>
		<g>
			<path class="st1" d="M330.4,91.4C323.2,81.6,312.1,76,300,76c-12.1,0-23.2,5.6-30.4,15.3l-0.9,1.2l0.9,1.2
				c7.2,9.8,18.3,15.3,30.4,15.3c12.1,0,23.1-5.6,30.4-15.3l0.9-1.2L330.4,91.4z M300,105.1c-10.3,0-19.8-4.6-26.2-12.5
				c6.5-8,15.9-12.5,26.2-12.5c10.3,0,19.8,4.5,26.2,12.5C319.8,100.5,310.3,105.1,300,105.1z"/>
		</g>
	</g>
	<g>
		<g>
			<path class="st1" d="M300,83c-5.3,0-9.5,4.3-9.5,9.5c0,5.3,4.3,9.5,9.5,9.5c5.3,0,9.6-4.3,9.6-9.5C309.5,87.3,305.3,83,300,83z
				 M300,98.1c-3.1,0-5.5-2.5-5.5-5.5c0-3.1,2.5-5.5,5.5-5.5c3.1,0,5.6,2.5,5.6,5.5C305.5,95.6,303.1,98.1,300,98.1z"/>
		</g>
	</g>
	<g>
		<g>
			<polygon class="st1" points="80,311.4 73.6,317.8 76.4,320.6 80,317 83.6,320.6 86.5,317.8 			"/>
		</g>
	</g>
	<g>
		<g>
			<rect x="78" y="315.7" class="st1" width="4" height="14.7"/>
		</g>
	</g>
	<g>
		<g>
			<polygon class="st1" points="80,341.2 73.6,347.7 76.4,350.5 80,346.9 83.6,350.5 86.5,347.7 			"/>
		</g>
	</g>
	<g>
		<g>
			<rect x="78" y="345.5" class="st1" width="4" height="14.7"/>
		</g>
	</g>
	<g>
		<g>
			<polygon class="st1" points="80,371.1 73.6,377.5 76.4,380.3 80,376.7 83.6,380.3 86.5,377.5 			"/>
		</g>
	</g>
	<g>
		<g>
			<rect x="78" y="375.4" class="st1" width="4" height="14.7"/>
		</g>
	</g>
	<g>
		<g>
			<polygon class="st1" points="80,207.1 73.6,213.6 76.4,216.4 80,212.8 83.6,216.4 86.5,213.6 			"/>
		</g>
	</g>
	<g>
		<g>
			<rect x="78" y="211.4" class="st1" width="4" height="14.7"/>
		</g>
	</g>
	<g>
		<g>
			<polygon class="st1" points="80,237 73.6,243.4 76.4,246.2 80,242.6 83.6,246.2 86.5,243.4 			"/>
		</g>
	</g>
	<g>
		<g>
			<rect x="78" y="241.3" class="st1" width="4" height="14.7"/>
		</g>
	</g>
	<g>
		<g>
			<polygon class="st1" points="80,266.8 73.6,273.2 76.4,276.1 80,272.5 83.6,276.1 86.5,273.2 			"/>
		</g>
	</g>
	<g>
		<g>
			<rect x="78" y="271.1" class="st1" width="4" height="14.7"/>
		</g>
	</g>
	<g>
		<g>
			<polygon class="st1" points="523.6,279.4 520,283 516.4,279.4 513.5,282.2 520,288.6 526.4,282.2 			"/>
		</g>
	</g>
	<g>
		<g>
			<rect x="518" y="269.6" class="st1" width="4" height="14.7"/>
		</g>
	</g>
	<g>
		<g>
			<polygon class="st1" points="523.6,249.5 520,253.1 516.4,249.5 513.5,252.3 520,258.8 526.4,252.3 			"/>
		</g>
	</g>
	<g>
		<g>
			<rect x="518" y="239.8" class="st1" width="4" height="14.7"/>
		</g>
	</g>
	<g>
		<g>
			<polygon class="st1" points="523.6,219.7 520,223.3 516.4,219.7 513.5,222.5 520,228.9 526.4,222.5 			"/>
		</g>
	</g>
	<g>
		<g>
			<rect x="518" y="209.9" class="st1" width="4" height="14.7"/>
		</g>
	</g>
	<g>
		<g>
			<polygon class="st1" points="523.6,383.6 520,387.2 516.4,383.6 513.5,386.4 520,392.9 526.4,386.4 			"/>
		</g>
	</g>
	<g>
		<g>
			<rect x="518" y="373.9" class="st1" width="4" height="14.7"/>
		</g>
	</g>
	<g>
		<g>
			<polygon class="st1" points="523.6,353.8 520,357.4 516.4,353.8 513.5,356.6 520,363 526.4,356.6 			"/>
		</g>
	</g>
	<g>
		<g>
			<rect x="518" y="344" class="st1" width="4" height="14.7"/>
		</g>
	</g>
	<g>
		<g>
			<polygon class="st1" points="523.6,323.9 520,327.5 516.4,323.9 513.5,326.8 520,333.2 526.4,326.8 			"/>
		</g>
	</g>
	<g>
		<g>
			<rect x="518" y="314.2" class="st1" width="4" height="14.7"/>
		</g>
	</g>
</g>
</svg>
