<?xml version="1.0" encoding="utf-8"?>
<!-- Generator: Adobe Illustrator 23.0.2, SVG Export Plug-In . SVG Version: 6.00 Build 0)  -->
<svg version="1.1" id="Layer_1" xmlns="http://www.w3.org/2000/svg" xmlns:xlink="http://www.w3.org/1999/xlink" x="0px" y="0px"
	 viewBox="0 0 600 400" style="enable-background:new 0 0 600 400;" xml:space="preserve">
<style type="text/css">
	.st0{fill:#03A9F4;}
	.st1{fill:#37474F;}
	.st2{fill:#30363D;}
	.st3{fill:#E5E8EC;}
	.st4{fill:#CDD5D7;}
	.st5{fill:#484F59;}
	.st6{fill:#F1FAFC;}
	.st7{opacity:0.2;}
	.st8{opacity:0.2;fill:#FFFFFF;}
	.st9{fill:#7DC2F5;}
	.st10{fill:#BDE3FF;}
	.st11{fill:#D9EFFF;}
	.st12{fill:#387BFF;}
	.st13{fill:#F4511E;}
	.st14{fill:#ACD4F8;}
	.st15{fill:#0063CB;}
	.st16{fill:none;}
	.st17{fill:#B0BEC5;}
	.st18{fill:#78909C;}
	.st19{fill:#2B83FD;}
	.st20{fill:#0277BD;}
	.st21{fill:#B0BFDE;}
	.st22{fill:#BDCFE8;}
	.st23{fill:#E2C59C;}
	.st24{fill:#01579B;}
	.st25{fill:#E9D6B8;}
	.st26{fill:#B6C2C9;}
	.st27{fill:#879BA6;}
	.st28{fill:#E4EEF3;}
	.st29{fill:#8DCFFF;}
	.st30{fill:#ECB60D;}
	.st31{fill:#C4D1E1;}
	.st32{fill:#6D4C41;}
	.st33{fill:#795548;}
	.st34{fill:#D8E5ED;}
	.st35{fill:#FFFFFF;}
</style>
<path class="st0" d="M401.9,101.9c-15.2,13.7-38.3,28.3-63.4,43.3c-25.5,14.6-53,29.6-87,36.5c-34.5,6.8-55.8,3.5-79.9-11.5
	c-23.1-14.7-49-41.1-70.5-72.6C79.5,66.2,88.4,37.7,120,23.1C150.7,8.1,204.1,7,251.5,17.8c47.9,10.7,95.1,28,124.3,42.6
	C405.4,75.5,417.2,87.9,401.9,101.9z"/>
<path class="st1" d="M143.5,347.4c39,0.3,161.3-15.6,232.2-2.6c114.9,21,247.8,2.2,174.8-17.9c-20.4-5.6,38.2-39.8-105.7-47
	c-126.3-6.3-255,8.6-317.3,15c-62.3,6.4-91,17.5-104.3,22.5C11.5,321.8,7.2,346.3,143.5,347.4z"/>
<g>
	<path class="st2" d="M525.4,223V47.7c0-4.5-3.7-8.2-8.3-8.2H232.6c-4.5,0-8.2,3.7-8.2,8.2V223H525.4z"/>
	<path class="st3" d="M223.8,223.3v25.3c0,4.9,4,8.8,8.8,8.8h284.6c4.9,0,8.8-4,8.8-8.8v-25.3H223.8z"/>
	<path class="st3" d="M426.9,294.8c0,0-2.2-1.1-4.7-2c-2.7-1-5.9-2.3-7.8-3.2c-3.3-1.6-3.6-2.7-4.9-8.1c-1.4-6-2.6-18.5-3.1-24h-63
		c-0.5,5.5-1.8,18.1-3.1,24c-1.2,5.5-1.5,6.5-4.9,8.1c-1.9,0.9-5.1,2.1-7.7,3.1l0,0c-2.6,1-4.6,1.7-4.6,1.7s-2,1.1,1.2,1.3h101.3
		C428.6,295.8,426.9,294.8,426.9,294.8z"/>
	<path class="st4" d="M407.1,264.1c-0.3-2.6-0.5-4.9-0.7-6.6h-63c-0.2,1.7-0.4,4-0.7,6.6H407.1z"/>
	<polygon class="st5" points="278.4,223 341.1,223 455.6,39.5 393,39.5 	"/>
	<polygon class="st5" points="359,223 381.8,223 496.4,39.5 473.5,39.5 	"/>
	<rect x="238.3" y="53.6" class="st6" width="273.1" height="153.8"/>
	<g class="st7">
		<polygon class="st8" points="288.2,207.4 350.8,207.4 446.8,53.6 384.1,53.6 		"/>
		<polygon class="st8" points="391.6,207.4 487.6,53.6 464.7,53.6 368.7,207.4 		"/>
	</g>
	<g>
		<rect x="249.9" y="72.7" class="st9" width="116.7" height="2"/>
		<rect x="249.9" y="76.4" class="st9" width="96.9" height="2"/>
		<rect x="249.9" y="64.6" class="st10" width="46" height="3.3"/>
	</g>
	<g>
		<g>
			<rect x="381.3" y="152.3" class="st10" width="23.3" height="2"/>
			<rect x="381.3" y="156" class="st9" width="8.8" height="2"/>
		</g>
		<g>
			<rect x="381.5" y="172.5" class="st9" width="21.3" height="2"/>
			<rect x="381.5" y="176.1" class="st9" width="22" height="2"/>
			<rect x="381.5" y="179.8" class="st9" width="21.4" height="2"/>
			<rect x="381.5" y="183.5" class="st9" width="15.3" height="2"/>
		</g>
		<g>
			<g>
				<rect x="412.7" y="152.3" class="st11" width="3.4" height="33.3"/>
				<rect x="417.6" y="152.3" class="st11" width="3.4" height="33.3"/>
				<rect x="422.6" y="152.3" class="st11" width="3.4" height="33.3"/>
				<rect x="427.5" y="152.3" class="st11" width="3.4" height="33.3"/>
				<rect x="432.5" y="152.3" class="st11" width="3.4" height="33.3"/>
				<rect x="437.5" y="152.3" class="st11" width="3.4" height="33.3"/>
				<rect x="442.4" y="152.3" class="st11" width="3.4" height="33.3"/>
				<rect x="447.4" y="152.3" class="st11" width="3.4" height="33.3"/>
				<rect x="452.4" y="152.3" class="st11" width="3.4" height="33.3"/>
				<rect x="457.3" y="152.3" class="st11" width="3.4" height="33.3"/>
				<rect x="462.3" y="152.3" class="st11" width="3.4" height="33.3"/>
				<rect x="467.3" y="152.3" class="st11" width="3.4" height="33.3"/>
				<rect x="472.2" y="152.3" class="st11" width="3.4" height="33.3"/>
				<rect x="477.2" y="152.3" class="st11" width="3.4" height="33.3"/>
				<rect x="482.1" y="152.3" class="st11" width="3.4" height="33.3"/>
				<rect x="487.1" y="152.3" class="st11" width="3.4" height="33.3"/>
				<rect x="492.1" y="152.3" class="st11" width="3.4" height="33.3"/>
				<rect x="497" y="152.3" class="st11" width="3.4" height="33.3"/>
			</g>
			<g>
				<rect x="412.7" y="158.4" class="st12" width="3.4" height="27.2"/>
				<rect x="417.6" y="162.4" class="st12" width="3.4" height="23.2"/>
				<rect x="422.6" y="172.5" class="st12" width="3.4" height="13"/>
				<rect x="427.5" y="167" class="st12" width="3.4" height="18.5"/>
				<rect x="432.5" y="180.3" class="st12" width="3.4" height="5.2"/>
				<rect x="437.5" y="172.5" class="st12" width="3.4" height="13"/>
				<rect x="442.4" y="167.9" class="st12" width="3.4" height="17.6"/>
				<rect x="447.4" y="172" class="st12" width="3.4" height="13.6"/>
				<rect x="452.4" y="158.4" class="st12" width="3.4" height="27.2"/>
				<rect x="457.3" y="161.8" class="st12" width="3.4" height="23.7"/>
				<rect x="462.3" y="155.2" class="st12" width="3.4" height="30.4"/>
				<rect x="467.3" y="166.2" class="st12" width="3.4" height="19.4"/>
				<rect x="472.2" y="158.9" class="st12" width="3.4" height="26.6"/>
				<rect x="477.2" y="163.9" class="st12" width="3.4" height="21.7"/>
				<rect x="482.1" y="172.2" class="st12" width="3.4" height="13.3"/>
				<rect x="487.1" y="183.5" class="st12" width="3.4" height="2"/>
				<rect x="492.1" y="162.4" class="st12" width="3.4" height="23.1"/>
				<rect x="497" y="157.8" class="st12" width="3.4" height="27.8"/>
			</g>
		</g>
	</g>
	<g>
		<g>
			<rect x="381.3" y="88.4" class="st10" width="23.3" height="2"/>
			<rect x="381.3" y="92.1" class="st9" width="8.8" height="2"/>
		</g>
		<g>
			<rect x="381.5" y="108.6" class="st9" width="21.3" height="2"/>
			<rect x="381.5" y="112.3" class="st9" width="22" height="2"/>
			<rect x="381.5" y="116" class="st9" width="21.4" height="2"/>
			<rect x="381.5" y="119.7" class="st9" width="15.3" height="2"/>
		</g>
		<g>
			<g>
				<rect x="412.7" y="88.4" class="st11" width="3.4" height="33.3"/>
				<rect x="417.6" y="88.4" class="st11" width="3.4" height="33.3"/>
				<rect x="422.6" y="88.4" class="st11" width="3.4" height="33.3"/>
				<rect x="427.5" y="88.4" class="st11" width="3.4" height="33.3"/>
				<rect x="432.5" y="88.4" class="st11" width="3.4" height="33.3"/>
				<rect x="437.5" y="88.4" class="st11" width="3.4" height="33.3"/>
				<rect x="442.4" y="88.4" class="st11" width="3.4" height="33.3"/>
				<rect x="447.4" y="88.4" class="st11" width="3.4" height="33.3"/>
				<rect x="452.4" y="88.4" class="st11" width="3.4" height="33.3"/>
				<rect x="457.3" y="88.4" class="st11" width="3.4" height="33.3"/>
				<rect x="462.3" y="88.4" class="st11" width="3.4" height="33.3"/>
				<rect x="467.3" y="88.4" class="st11" width="3.4" height="33.3"/>
				<rect x="472.2" y="88.4" class="st11" width="3.4" height="33.3"/>
				<rect x="477.2" y="88.4" class="st11" width="3.4" height="33.3"/>
				<rect x="482.1" y="88.4" class="st11" width="3.4" height="33.3"/>
				<rect x="487.1" y="88.4" class="st11" width="3.4" height="33.3"/>
				<rect x="492.1" y="88.4" class="st11" width="3.4" height="33.3"/>
				<rect x="497" y="88.4" class="st11" width="3.4" height="33.3"/>
			</g>
			<g>
				<rect x="497" y="113.2" class="st13" width="3.4" height="8.5"/>
				<rect x="492.1" y="105.6" class="st13" width="3.4" height="16.1"/>
				<rect x="487.1" y="108.7" class="st13" width="3.4" height="13"/>
				<rect x="482.1" y="103.2" class="st13" width="3.4" height="18.5"/>
				<rect x="477.2" y="116.5" class="st13" width="3.4" height="5.2"/>
				<rect x="472.2" y="108.7" class="st13" width="3.4" height="13"/>
				<rect x="467.3" y="104.1" class="st13" width="3.4" height="17.6"/>
				<rect x="462.3" y="114.6" class="st13" width="3.4" height="7.1"/>
				<rect x="457.3" y="118" class="st13" width="3.4" height="3.7"/>
				<rect x="452.4" y="110.1" class="st13" width="3.4" height="11.6"/>
				<rect x="447.4" y="106.4" class="st13" width="3.4" height="15.3"/>
				<rect x="442.4" y="102.3" class="st13" width="3.4" height="19.4"/>
				<rect x="437.5" y="105.1" class="st13" width="3.4" height="16.6"/>
				<rect x="432.5" y="100" class="st13" width="3.4" height="21.7"/>
				<rect x="427.5" y="108.4" class="st13" width="3.4" height="13.3"/>
				<rect x="422.6" y="110.6" class="st13" width="3.4" height="11.1"/>
				<rect x="417.6" y="98.6" class="st13" width="3.4" height="23.1"/>
				<rect x="412.7" y="93.9" class="st13" width="3.4" height="27.8"/>
			</g>
		</g>
	</g>
	<g>
		<g>
			<path class="st13" d="M292.8,94.6c0.3,0,0.2-0.4,0.6-0.3c0.5,0.2,0.8,0.7,1.6,0.6c0.5-0.4-0.7-0.7-0.3-1c0.2,0.1,0.4,0.2,0.6,0.3
				c0.1-0.6-0.2-0.7-0.3-1c1.2-0.1,0.8-1.7,0.6-2.6c0.4-0.1,0.8-0.2,1.3-0.2c0-0.7-0.8-0.6-1.2-1c0.5,0.1,0.3-0.5,0.9-0.3
				c0.1-0.5-0.3-0.5-0.1-1c0.5,0.1,0.4-0.6,0.9-0.5c0.4-0.1,1.2,0.3,1.2-0.3c0.1-0.6-0.6-0.2-0.7-0.5c-0.3,0-0.3-0.6-0.7-0.5
				c-0.6-0.1-1.3,0.6-1.6,0.3c0.1-0.8,1.3-0.4,1.5-1.1c-0.3-0.5-0.9-0.6-1.7-0.5c-0.5-0.2-1.1-0.4-1.3,0c-0.1-0.2-0.5-0.2-0.7-0.3
				c-0.6,0.4-2-0.1-2.6,0.3c-0.7,0-1.5-0.1-1.8,0.3c0,0.3,0.4,1,0.2,1.1c-1.1-0.2-1.6,0.1-2.6-0.2c-1.5,0.2-2.1,1.3-3.6,1.5
				c-0.1,0.6,0.7,0.1,0.6,0.6c-0.4,0.4-1.2,0.4-1.6,0.8c-0.4-0.2-0.8-0.2-1,0.5c0.5-0.1,0.5,0.3,0.7,0.3c0-0.4,0.7-0.4,0.7,0
				c0.4-0.1,1-0.7,1,0.2c-0.6,0.1-1.5-0.2-1.9,0.2c0.1,0.6,0.7,0.8,1.2,1c0.4,0.1,0.3-0.4,0.7-0.3c0.4,0.3,0.9,0.6,1.7,0.5
				c-0.1,0.7,0.1,1.1,0.3,1.5c-0.1,0.4-0.2,0.6-0.2,1.1c0.6,0.3,0.7-0.7,1-0.2c0.1,0.6-0.4,0.5-0.9,0.5c0.1,0.7,1.1,0.5,1.3,1.1
				c-0.3,0.3-0.7,0.5-1,0.8c0.4,0.2-0.5,0.3-0.3,0.8c1,0.8,0.2,2.6,1,3.7c0.3,0,0.7,0,1,0c0.4,0,0.3,0.7,0.7,0.6
				c0.1-0.3,0.2-0.7,0.6-0.8c-0.2-1.2,0.7-1.2,0.6-2.4c0.4,0,0.2-0.6,0.6-0.6c0.6,0.3,0.6-0.4,1.2,0c0.2-0.2,0.5-0.5,0.7-0.6
				c0.7-0.2,1-0.8,1.8-1c0-0.6,1.3-0.7,0.9-1.3C293.8,95.3,293.2,94.7,292.8,94.6z M294.2,94c-0.4-0.3,0-1.1,0.4-1
				C294.6,93.4,294.3,93.5,294.2,94z M295.3,86.2c0,0.5-0.3,0.6-0.6,0.8c-0.4-0.3-1.1-0.4-1.9-0.3C293.3,86,294.6,86.3,295.3,86.2z"
				/>
			<path class="st13" d="M274.7,88.6c0,0.3,0,0.6,0,1c0.4-0.1,0.5,0.2,0.9,0.2c0.1-0.7,0.9-1.4,1.5-1.1c0.2,0.7-0.8,0-0.7,0.5
				c0.4,0.2-0.5,0.3-0.4,0.7c0.4-0.1,0.5,0.1,0.4,0.5c-0.3,0-0.4-0.3-0.9-0.2c0,0.5-0.5,0.3-0.3,1c0.9-0.1,1.5-0.2,1.9,0.5
				c-1.2,0.3-1.9-0.6-2.6-0.3c-0.1,0.8,0.9,0.3,0.9,1c1.1-0.2,2.6,0.7,2.9-0.5c0.4,0,0.6-0.1,0.6-0.5c0.1-0.4-0.7,0.1-0.6-0.3
				c0.3,0,0.7,0,1,0c0-0.9,0.9-0.7,0.7-1.8c0.8,0,0.8-0.8,1.8-0.7c0.2-0.4,0.5-0.7,1-0.6c0.2-0.4-0.3-0.8,0-0.8
				c0.6-0.3,1.5,0.2,1.7-0.8c0-0.3-0.4-0.1-0.4-0.3c-2.4,0.4-5.6-0.5-8.2,0.6c-0.2,1,0.6,0.8,0.7,1.5c-0.9,0.1-0.6-1.2-1.7-1
				c0,0.2-0.2,0.3-0.1,0.7c-0.2,0-0.5,0-0.4,0.3C274.1,88.5,274.6,88.3,274.7,88.6z M277.7,91.5c0.1,0.1-0.1,0.2-0.1,0.2
				C277.5,91.6,277.7,91.5,277.7,91.5z"/>
			<path class="st13" d="M310.5,88.3c0.1-0.5,0.8-0.2,0.6-1c-1.3-0.2-2.6-0.3-3.8-0.3c0,0.3,0,0.5,0.1,0.7
				C308.4,88,309.2,88.5,310.5,88.3z"/>
			<path class="st13" d="M304.9,89.1c0,0.4-0.3,0.5,0,0.8c0.6,0,0.6-0.7,1.3-0.7c0,0.7-0.7,0.7-0.7,1.5c0.2,0.2,0.5,0.4,1,0.3
				c-0.1,0.5,0.3,0.5,0.7,0.5c0.1-0.6,0.3-1.2,0.4-1.8c0.4,0.4,0.6,1.1,1.6,0.8c0.1-1.2-0.8-1.3-1.2-1.9c0,0.4-0.4-0.2-0.6-0.2
				c-0.4,0-0.6-0.1-0.7-0.3c0.3-0.4-0.1-1-0.7-0.8c-0.4,0.3,0.2,0.8-0.1,1c-0.3-0.8-1.7-1.5-1.8,0C304.2,88.8,304.8,88.7,304.9,89.1
				z"/>
			<path class="st13" d="M319.6,88c0-1-1.4-0.7-1.3,0.2C318.8,88.6,319.1,87.9,319.6,88z"/>
			<path class="st13" d="M327.8,89c1.1-0.2,2.3,0.6,2.6-0.5c-0.3-0.6-1.7-0.9-2.5-0.5C327.6,88,327.9,88.7,327.8,89z"/>
			<path class="st13" d="M357.2,98.7c0.3-0.1,0.3-0.6,0.7-0.5c0.8,0,0.7,1,1.6,0.8c0.2-0.3-0.1-0.8,0.2-1.3c-0.4-0.2-1-1.1-1.3-0.3
				c0.1-0.4,0-0.6-0.1-0.8c-0.8-0.3-1.2-1-2.5-0.8c-0.2-0.3-0.6-0.4-0.7-0.7c-0.9,0.1-1.2-0.6-2.2-0.3c-0.2,0.5,0.4,0.8,0,1
				c-0.4-0.1-0.3-0.7-0.7-0.8c-0.4,0.5-1.2,0-2,0.3c-0.5-0.4-0.5-1.4-1.6-1.1c-0.2,0-0.1,0.5-0.3,0.5c-0.6-0.3-1.2-0.6-1.8-1
				c-0.1,0.1-0.1,0.3-0.3,0.3c0.2-0.6-0.3-0.5-0.7-0.5c0.4-0.4-0.2-0.4-0.3-0.6c-0.7,0.3-0.6-0.1-1.3-0.2c0,0.2-0.4,0.1-0.6,0.2
				c-0.1,0.3,0.4,0.5,0,0.6c-1.2-0.2-2.8,0.3-3.9,0c-0.4-0.1-0.5-0.6-0.9-0.5c-0.7,0.2-1.1-0.2-1.6-0.3c-0.2-0.1-0.4,0-0.6,0
				c-0.4-0.1-0.6-0.5-1.5-0.3c0-0.4,0.4-0.5,0.4-1c-0.2-0.5-0.7-0.7-0.9-1.1c-0.4,0.2-1.1,0.2-1.8,0.2c-0.4-0.1-0.3-0.7-0.9-0.6
				c-0.4,0.2-0.5,0.6-0.4,1.1c-0.7-0.3-0.5,0.6-1,0.5c-0.3-0.1-0.1-0.6-0.6-0.5c-0.4,0.4-0.9,0.7-1.7,0.6c-0.3,0.2-0.4,0.5-0.9,0.5
				c-0.2,0.2-0.1,0.8-0.4,0.8c-0.3,0.1-1-0.3-0.9,0.3c0,0.6,0.9,0.2,0.7,1c-0.5-0.2-0.7-0.8-1.5-0.7c0,0.4,0.1,1-0.3,1
				c-0.2-0.2-0.2-0.6-0.1-1c-0.6-0.1-0.2,0.7-0.9,0.5c-0.2-0.3-0.2-0.9-0.9-0.6c-0.4,0.7-1,1.2-1.5,1.8c-1,0.1-0.9-0.3-1.9-0.3
				c-0.2,0.8,0.8,0.2,0.6,1c-0.6-0.2-1.3,0.1-2.2,0c-0.7,0.3-1,0.9-1.8,1.1c0-0.3,0-0.6,0-1c-0.4,0-0.7,0-0.9-0.2
				c0,0.9,0,1.7-0.9,1.6c0,0.6-0.5,0.5-0.9,0.6c-0.4,0.2,0.3,0.5-0.2,0.7c-0.8,0.2-0.9-1.2-0.9-1.5c0.7,0,1.4-0.1,1.9,0.2
				c0.4-1-0.8-1.5-1.8-1.6c-0.2-0.4-0.6-0.6-1.2-0.7c-0.2-0.4-0.4-0.7-0.7-1c-0.4,0-0.9,0-1.3,0c-0.4,0.3-0.8,0.7-1.2,1
				c-0.1-0.2-0.2,0.1-0.4,0c-0.5,0.6-1.2,1.1-1.7,1.6c-0.2,0.7-0.5,1.3-0.9,1.8c0-0.2-0.3-0.1-0.4-0.2c0,0.2,0,0.4,0,0.6
				c-0.9,0.1-1,1-1.3,1.8c0.3,0.4,0.3,1,0.3,1.8c0.2,0.4,0.9,0.2,1.2,0.5c-0.3,0.5-0.6,0.7-0.6,1.1c0.3-0.1,0.3,0.2,0.3,0.5
				c-0.5,0-0.8,0.3-1.3,0.3c-0.1,0.3-0.4,0.4-0.3,1c-0.8-0.3-0.3,0.9-1,0.8c0,0.2,0,0.3-0.2,0.3c-0.6-0.1-0.8,0.4-1.2,0.7
				c-0.3,0.1-0.7,0.1-0.7,0.6c0.2,0.2,0.6,0.2,1,0.2c-0.1,0.7,0.7,0.5,0.6,1.3c-0.1,0.2-0.1,0.6-0.4,0.6c-0.7-0.4-1.3,0.1-2.2,0
				c-0.1,0.5,0.3,1.8-0.3,1.8c0.1,0.5,0.4,0.7,0.3,1.5c0.7-0.2,0.9,0.2,1.3,0.3c0.6-0.3,0.6-0.3,1.2,0c0.3-0.7,0.8-1.1,0.7-2.3
				c0.6-0.2,0.5-1.2,1.3-1.3c0.6,0.4,0.9-0.1,1.5-0.2c-0.4,0.6-0.2,1.6,0,2.4c0.9-0.1,0.4-0.9,0.4-1.8c-0.2,0-0.2-0.3,0-0.3
				c0,0.1,0,0.2,0,0.3c0.3,0.1,0.3,0.4,0.4,0.7c0.7,0,1.2,0.3,1.3,1c0,0.3-0.4,0.3-0.7,0.3c0,0.6,0.5,0.5,0.7,0.8
				c-0.1-0.7,0.4-0.9,0.7-1.1c0.1-0.4-0.3-0.2-0.3-0.5c0.3-0.5,0.5,0.5,0.7,0c-0.4-0.9-2.2-1-1.8-2.3c0.4,0.7,1.3,1.1,1.8,1.8
				c0.1,0.1,0.2,0.5,0.3,0.7c0.1,0.2,0.4,0.4,0.3,0.6c0,0.3,0,0.7,0,1c0.2,0.2,0.6,0.2,1,0.2c0.2-0.6-0.3-1.4,0.1-2
				c0.1,0,0.3,0,0.4,0c-0.2,0.6,0,0.6-0.1,1.3c0.3-0.1,0.2,0.5,0.4,0.7c0.5,0.4,1.5,0.3,1.9,0c0.4,0.2-0.4,0.8,0.3,0.8
				c0.6,0.1,0-1.1,0.7-0.8c0,0.3,0,0.6,0,1c-0.4,0.3-0.1,1.4-0.7,1.5c-1.1-0.4-2.4-0.6-3.8-0.6c-0.4,0.1-0.3,0.8-0.7,1
				c-0.7-0.8-2-0.8-2.6-1.6c0.1-0.6-0.2-0.7-0.3-1c0.3,0,0.3-0.4,0.1-0.6c-0.9,0-1.6,0.2-2.2,0.5c-1.2-0.1-2.2,0-2.8,0.6
				c-0.1-0.3-0.4-0.5-0.9-0.5c-0.1,0.6-0.6,0.7-1,1c-0.4,0.8-0.2,1.8-0.6,2.4c-0.2,0.4-1,0.9-1.3,1.3c0,0.9-0.4,1.6-0.7,2.1
				c0,1.4,0,2.8,0,4.2c0.5,0.6,0.9,1.3,1.2,2.3c0.7,0.4,1.1,1.1,2,1.3c0.6-0.2,1.3-0.2,2-0.2c0.3-0.3,0.3-0.9,0.9-0.8
				c0.3,0,0.1,0.6,0.3,0.7c0.7-0.1,0.9,0.3,1.5,0.3c0.3-0.1,0.4-0.5,0.9-0.3c0.1,1.3-0.3,1.8-0.3,2.9c0.4,0.8,1.1,1.5,0.9,2.6
				c0.4,0.6,0.4,1.5,0.6,2.3c-0.4,0.7-0.3,2-0.6,2.8c0.6,0.7,1.1,1.5,1.3,2.6c0,0.5,0,1,0,1.5c0.6,0.8,0.6,2.4,1.3,3.3
				c1.4-0.1,2.1-1,3.3-1.3c0.2-0.9,0.7-1.5,1.3-2c-0.1-0.6,0.3-0.8,0.1-1.5c0.3-0.1,0.4-0.5,0.9-0.3c0-1.9,0.6-3.1,1.8-3.7
				c0.2-1.3,0.2-3.2,0-4.5c0.3-0.6,0.6-1.3,0.7-2.1c0.4-0.3,0.6-0.6,1-0.8c0.7-1.1,1.3-2.3,2-3.4c0.1-0.6,0.3-1.4-0.1-1.8
				c-0.6-0.1-0.6,0.5-1.2,0.5c-0.4,0-0.9,0-1.3,0c-0.1-1.1-0.8-1.5-1.3-2.1c0.1-1.1-0.9-0.9-0.6-2.1c-0.3-0.4-0.7-0.5-0.9-1
				c0.1-0.5-0.2-1.3,0-1.3c0.3,0.3,0.7,1.1,0.6,1.5c0.6,0.7,1,1.6,1.6,2.3c0.3,0.7,0.3,1.7,1,2.3c1-0.4,1.7-1.1,2.9-1.3
				c0.2-0.1,0-0.6,0.3-0.6c0.6-0.1,0.9-0.6,1.4-0.8c-0.1-0.7,0.4-0.7,0.4-1.3c-0.3-0.6-1-0.6-0.9-1.6c-0.6-0.1-0.9,0-1.2,0.3
				c-0.1-0.6-0.7-0.8-0.6-1.6c-0.5,0-0.4-0.5-0.7-0.6c0.2-0.1,0.4-0.2,0.6-0.3c0.8,0.6,0.6,2.3,2,2.1c0.1,0.3,0.4,0.3,0.3,0.8
				c0.7,0.1,0.8-0.5,1.5-0.5c0.1,0.1,0.1,0.4,0.4,0.3c1-0.2,1.3,0.5,1.9,0.8c-0.2-0.1-0.3,0.1-0.3,0.3c0.2,0.3,0.7,0.2,0.9,0.5
				c-0.1,0.5,0.3,0.6,0.1,1.1c0.4,0.5,0.6,1.4,0.9,2.1c0.3,0.3,0.6,0.6,0.7,1.1c0,0.3,0,0.7,0,1c0.2,0.2,0.6,0.2,1,0.2
				c0.2-1,0.7-1.7,0.6-3.1c0.2,0,0.4,0,0.6,0c0-0.2,0-0.4,0-0.7c0.6,0.2,0.3-0.4,0.7-0.3c0-0.7,0.5-0.8,0.7-1.3
				c0.4-0.3,0.8-0.6,1.3-0.6c0.3,0.4,0.3,1.3,0.9,1.5c0.1,0.4-0.3,0.4-0.2,0.8c0.2,0.5,1.2,0.1,1.5,0.5c-0.2,0.3,0.1,0.5-0.1,1
				c0.4,0.2,0.6,0.5,0.7,1c0,0.3-0.4,0.3-0.3,0.8c0,0.5,0.5,0.6,0.3,1.3c0.7,0.7,1.4,1.4,2.2,2c0-1.1-0.7-1.3-0.7-2.3
				c-0.4-0.3-0.8-0.6-1-1.1c0.1-0.5-0.2-1.4,0.3-1.5c0.3,0.5,0.5,1,1.2,1.1c0.1,0.2,0.2,0.4,0.1,0.6c1.4-0.2,1.8-1.6,1.6-3.6
				c-0.2-0.2-0.5-0.2-0.7-0.3c0.2-0.7-0.7-0.7-0.3-1.1c0.4-0.5,0.4,0.5,1,0.3c0.1-0.7,0.8-0.7,1.6-0.7c0.5-0.8,1.1-1.4,1.3-2.4
				c0.2,0,0.3-0.2,0.4-0.2c0.2-0.7,0-1.9,0.4-2.3c-0.3-0.2-0.4-0.5-0.4-1c-0.3-0.2-0.6-0.3-0.6-0.8c-0.1-0.4,0.3-0.4,0.1-0.8
				c0.3,0.1,0.5,0,0.4-0.3c0.4-0.2-0.7-1,0.3-1c0.2,0.5,0.7,0.7,0.9,1.1c-0.1,0.9,0.3,1.1,0.7,1.3c0.9-0.7,0-2.5,0.4-3.7
				c0.3-0.3,0.7-0.5,1.2-0.7c0.3-0.8,0.6-1.6,1.2-2.1c0.2-1.3-0.3-2.7,0-3.6c-0.2,0.9,0.3,1,0.4,1.6c0,1,0.1,2,0.7,2.3
				c0.3-0.3-0.1-0.4,0-1c0.4,0,0.3,0.3,0.6,0c0-0.5-0.4-0.6-0.3-1.1c-0.5-0.1-0.7-0.7-0.9-1.1c-0.1-0.6,0.1-1.4-0.4-1.5
				c-0.3,0,0,0.7-0.4,0.7c-0.2-1.2-1.2,0.7-1.6-0.5c0.1-0.4,0.4-0.6,0.6-0.8c0.2-0.5,0.1-1.3,0.6-1.5c0.3,0.4,0.3-0.2,0.7-0.2
				c0.7,0.1,1.3,0.4,2.2,0.3c-0.1,0.3,0.1,0.3,0.3,0.3c0.2-0.2,0.6-0.2,1-0.2c0.1-0.5-0.3-0.6-0.1-1.1c0.3-0.1,0.3-0.4,0.6-0.5
				c0.3,0,0.3,0.4,0.6,0.5c-0.1-0.4,0.4-0.9,0.6-0.5c-0.5,1-1.2,1.8-1.3,3.2c0.1,0.4,0.4,0.6,0.6,1c0.1,0.6,0.2,1.2,0.6,1.5
				c0.4-0.4,0.6-1,1-1.3c-0.1-0.8,0.5-0.7,0.1-1.3c0-0.3,0.4-0.3,0.4-0.7c-0.2-0.2-0.7-0.1-0.6-0.7c0.1-1.4,1.1-1.1,2.2-1
				c0.2-0.2,0.2-0.8,0.4-1c0.8-0.1,1.5-0.5,2-0.5C357.9,99.3,357.2,99.4,357.2,98.7z M308.2,100.5c0.3,0.3,0.7,0.6,1.2,0.7
				c0,0.5,0,1.1,0,1.6c-0.3-0.1,0.1-1-0.6-0.6c-0.3,0.6-0.1,1.7-0.6,2.1c-0.5,0-0.8-0.1-1.2,0c-0.4,0.1-0.5,0.5-0.9,0.5
				c0-0.2-0.4-0.6-0.4-0.2c-0.3,0-0.3-0.4,0-0.5c-0.3-0.4-0.6-0.9-0.6-1.6c0.7,0.1,0.4,2.3,1.8,1.6c0.3-0.7,0.5-1.4,0.9-2.1
				c0-0.4-0.2-0.7-0.3-1c0.1-1.5,1.1-2,1.6-3.1c0.2,0,0.3,0,0.3,0.2C309.3,99.2,308.1,99.1,308.2,100.5z M309.8,101.6
				c0-0.5,0.5-0.4,0.9-0.5C310.7,101.6,310.3,101.6,309.8,101.6z M311,95.3c-0.1-0.1,0.1-0.2,0.1-0.2C311.2,95.2,311,95.3,311,95.3z
				 M313.6,118.7c-0.1-0.1,0.1-0.2,0.1-0.2C313.8,118.6,313.7,118.7,313.6,118.7z M313.8,98.5c-0.1-0.1,0.1-0.2,0.1-0.2
				C314,98.5,313.8,98.6,313.8,98.5z M324.6,95.9c-0.3-0.1-0.6-0.1-0.6-0.5c-0.4,0,0.1-0.7,0,0C324.1,95.7,324.7,95.4,324.6,95.9z
				 M333.6,93c-0.1-0.1,0.1-0.2,0.2-0.2C333.8,92.9,333.6,93.1,333.6,93z M334,92.8c-0.1-0.1,0.1-0.2,0.1-0.2
				C334.2,92.8,334.1,92.9,334,92.8z M334.5,92.5c-0.1-0.1,0.1-0.2,0.2-0.2C334.7,92.4,334.5,92.6,334.5,92.5z M341,113
				c0.2-0.3,0.3-0.7,0.9-0.6c0,0.3-0.1,0.6,0.2,0.6C341.8,113.5,341.4,112.8,341,113z"/>
			<path class="st13" d="M289.3,132.1c-0.3-0.3-0.4,0.1-0.7,0.2c-0.2-0.6-0.8-0.7-1.3-1c-0.3,0-0.7,0-1,0c-0.3-0.5-1.2-0.1-1.3-0.8
				c-0.4,0-0.9,0.1-0.9-0.3c0.4-0.8-0.4-2.8-1.8-2.1c-0.5-0.3-0.8-0.7-0.9-1.5c-0.7-0.2-1.3-0.7-2-1c-0.2,0.1-0.2,0.3-0.4,0.3
				c-0.2-0.6-0.9-0.6-1-1.3c-0.5-0.1-0.3,0.4-0.6,0.5c-0.3-0.1-0.4-0.5-0.7-0.6c-0.1,0.3-0.3,0.6-0.7,0.5c-0.2,0.7-0.8,0.9-1.2,1.5
				c0-0.5-0.2-0.8-0.6-0.8c-0.4,0.2-0.5,0.6-1,0.7c-0.3-0.8,0.1-1.6,0-2.6c-0.3-0.6-1.2-0.3-1.8-0.6c0.1-0.7,0.6-1.1,0.4-2.1
				c-0.7,0.1-0.8,0.1-1.4,0c-0.3,0.3-0.1,1.1-0.6,1.3c-1.9,0.1-0.7-2.8-1.2-4.1c0.5-0.1,0.8-0.5,1.3-0.6c0.8-0.1,1,0.5,1.8,0.5
				c0-0.2,0-0.4,0.1-0.5c0.7,0,1.6-0.2,1.8,0.5c-0.1,0.9,0.3,1.4,1,1.5c-0.2-0.8-0.1-1.1,0-1.6c-0.2-0.2-0.4-0.4-0.4-0.8
				c0.2-1.1,0.9-1.7,1.9-2c0.1-0.5,0.1-0.5,0-1c0.3,0,0.6,0,0.7-0.2c-0.4-0.9,0.5-0.7,0.3-1.8c0.5-0.2,0.9-0.5,1.5-0.7
				c0.1-0.5-0.4-0.4-0.3-1c0.5-0.5,1.3-0.7,2-1c0.1,0.4-0.3,0.3-0.3,0.7c0.6-0.3,1.2-0.5,1.6-1c-0.4-0.3-1.1-0.1-1-0.8
				c0.1-0.5,0.6-0.5,0.9-0.6c0.1-0.4-0.3-0.4-0.1-0.8c0.7,0.5,1.5-0.8,2-0.5c-0.3,0.9-1,1.3-1.3,2.3c0.5,0.1,0.6-0.3,1.2-0.2
				c0,0.2-0.1,0.6,0.1,0.7c0.1-0.4,0.6,0.2,1,0c-0.1-0.4-0.3-0.8,0-1.1c-0.5-0.1-0.7-0.6-0.9-1c0-1,0-1.1,0-2.1
				c-0.3-0.3-0.4,0-0.7,0c0-0.8-0.7-0.8-0.7-1.5c0.1-0.1,0.2-0.4,0.1-0.7c-0.6-0.3-0.4-1.6-1.2-1.6c-0.1,0.2,0.2,0.8-0.1,0.8
				c-0.3-0.1-1,0.2-1-0.2c0-0.5,0-1.1,0-1.6c-0.8,0.4-0.6-0.4-1.3-0.5c-0.4,0.5-0.3-0.2-0.7-0.2c-0.4-0.1-0.3,0.3-0.7,0.2
				c0.2,1.6-0.4,2.5-0.2,3.7c-0.2,0-0.7-0.5-0.9,0c0.1,0.5,0.5,0.1,0.6,0.3c-0.5,0.4-0.5,1.3-0.7,2c-0.3-0.5-0.4-1.3-0.6-2
				c-0.3-0.3-0.3,0.1-0.6,0.2c-0.1-0.5-0.2-0.2-0.6-0.2c-0.4-0.5-0.9-0.9-1.6-1.1c0.2-0.8-0.5-0.5-0.4-1.1c0.3,0.1,0.3-0.2,0.3-0.5
				c0.5-0.3,0.7-0.9,1.2-1.1c0.3-0.6,0.5-1.2,1.3-1.3c0-0.3-0.2-0.3-0.1-0.7c1-0.2,1.5-0.3,2.2-0.6c0-0.6,0-1.2,0.2-1.6
				c-0.2-0.2-0.6-0.3-0.7-0.5c0.6,0,1.1,0,1.3,0.3c0.3-0.5,0.7,0.2,1.2,0c-0.2,0.8,0.7,0.5,0.6,1.1c-0.1,1.2-1.7,0.8-1.9,1.9
				c0.2,0.4,0.8,0.4,1.5,0.3c0.9,0.5,1.3,1.5,2.5,1.6c-0.3-0.8,0.3-0.8,0.1-1.8c-0.1-0.4-0.4-0.5-0.4-1c0.6,0,0.7,0.5,1.2,0.6
				c0-0.4-0.1-0.8,0.4-0.6c-0.1-0.5,0.1-0.6,0.1-1c-0.4,0.1-0.3-0.3-0.4-0.5c-0.5-0.1-0.9-0.3-1.3-0.5c0-0.3,0.4-0.3,0.4-0.6
				c-0.2-0.4-0.6-0.5-0.6-1.1c-0.4,0-0.9,0-1.3,0c0.1-0.5-0.4-0.4-0.4-0.8c-0.6-0.1-1,0.1-1.5,0.2c0.1-1-1.1-0.7-1.3-0.2
				c0.1-0.6-0.1-1-0.6-1c-0.7,0.5-1.6,2.2-0.7,3.1c0.2,0.1,0.8-0.2,0.7,0.2c-0.2,0.5-0.5,0.8-0.7,1.1c-0.4-0.4,0.3-0.3,0.1-1
				c-0.5-0.4-1-0.8-1.2-1.5c-0.6,0.1-0.5-0.6-1.2-0.3c0,0.4-0.3,0.4-0.2,0.8c0.5,0.2,0.3,1.5,0,1.8c-0.2-0.1-0.3-0.4-0.3-0.8
				c-0.7-0.1-0.7,0.6-1.3,0.6c-0.5-0.3-1.1-0.5-1.5-1c0.7-0.1,0.9,0.2,1.5,0.2c0.3-0.3-0.1-0.5,0-1c0.8-0.2,1.1-0.9,1.9-1.1
				c-0.3-0.5-0.2-0.9-0.3-1.3c-0.7,0-1.5,0-2.2,0c-0.3,0.5-1,0.5-1.2,1.1c-0.1-0.2-0.2-0.4-0.3-0.6c-0.4,0-0.9,0.1-0.7-0.5
				c1.1,0.3,2.4-0.6,3.3-1c0,0.8,1.2,0.6,1.5,0.2c-0.1-0.4-0.1-0.8-0.3-1.1c-0.9,0.1-1.3,0.7-2.2,0.8c0-0.3,0-0.7,0-1
				c-0.8-0.3-0.9,0.8-0.4,1c-0.8,0.1-1.3-0.2-2-0.2c0.2,0.8-0.7,0.4-0.7,1c0.4,0.2,0.5-0.1,0.6,0.2c-0.1,0.2-0.3,0.3-0.6,0.3
				c-0.2-0.9-1.4-0.8-2.5-0.8c-0.1,0.8-0.4,1.2-0.9,1.6c0,0.5,0.4,0.5,0.3,1.1c0.7,0,1.1-0.3,1.6-0.5c-0.3,0.9,0.8,0.2,0.9,0.6
				c0.1,0.4-0.7-0.1-0.6,0.3c0,0.9,1.6,0,1.3,1.1c0.6-0.4,0.7-0.3,1.3,0c0.1,0,0.1,0,0.2,0c-0.1-0.2,0.4-0.6,0.4-0.2
				c0,0.2-0.2,0.2-0.4,0.2c0,0.4,0.6,0.9,0,1.1c-0.2,0-0.1-0.3-0.2-0.5c-1.3-0.1-1.9-1-3.5-0.8c-0.4-0.2-0.5-0.8-1-0.8
				c-0.1,0.5-0.5,0.6-0.9,0.6c0-0.4,0-0.6-0.1-0.8c-0.6,0-0.6,0.7-1.2,0.6c-0.5,0.1-0.7-0.2-1.2-0.2c-0.2,0-0.1,0.3-0.3,0.3
				c-0.1,0-0.1-0.2-0.1-0.3c-0.3,0.1-0.6,0.3-1,0.2c-1.2-0.8-3.4-0.4-4.7-1.1c-1.1,0.5-2.5,0.7-3.2,0.8c-0.3,0.6,0.3,0.6,0.4,1.1
				c0.6-0.1,0.9,0.1,1,0.5c-0.6-0.2-0.5,0.3-0.7,0.5c-0.3-0.1-0.4-0.4-0.7-0.5c-0.6,0.6-1.9,0.4-2.3,1.1c0.8,0,1.1,0.5,1.2,1.3
				c0.8-0.3,1.3,0,2-0.2c-0.7,1.4-3.7,0.3-3.5,2.8c0.5,0.4,0.6,0.4,0.4,1.3c0.3,0,0.3-0.2,0.6-0.2c0,0.3-0.1,0.6,0.1,0.7
				c0.2-0.5,0.1,0.7,0.4,0.5c0.2-0.6,0.8-0.8,1.3-0.3c-0.6,0.5-0.9,1.5-1.6,1.9c-0.7,0.2-0.9,1-1.8,1c0.1,0.5-0.2,0.5-0.3,0.8
				c0.7,0.1,0.9-0.3,1.6-0.2c0.2-0.5,0.6-0.6,1.2-0.6c0.5-1.1,1.5-1.8,2.3-2.6c0.1,0,0.2,0,0.3,0c0.2-0.1,0-0.6,0.4-0.5
				c0-0.1,0-0.2,0.1-0.2c0,0.1,0,0.2-0.1,0.2c0.1,0.7-0.4,0.9-0.6,1.3c1.2,0.1,1.5-0.7,2.5-0.8c0.1-0.7-0.1-1.2-0.1-1.8
				c0.7,0.2,0.7-0.4,1.3-0.3c0.4,0.3,0.7,0.7,1,1.1c0.9,0.3,1.7,0.8,1.6,2.3c0.7-0.1,0-0.9,0.6-1c0,1.4,0,2.9,0.4,3.7
				c-0.4,0.4-0.2,0.6,0,1.1c0,0.3-0.4,0.2-0.3,0.6c-0.1,1.8-0.2,3,0,4.7c0.4,0.3,0.6,0.7,1,1c0.4,0.6,0.4,1.7,0.9,2.3
				c-0.2,0-0.1,0.3-0.1,0.5c0.6,0.2,0.7,1,1,1.6c0.4-0.1,0.4,0.3,0.9,0.2c0-0.7-0.3-0.5-0.3-1.4c-0.1,0-0.2-0.1,0-0.2
				c0,0,0,0.1,0,0.2c0.3-0.1,0.3,0.2,0.3,0.5c0.5,0.4,0.8,0.8,1.2,1.3c-0.1,1.1,0.3,1.7,0.6,2.4c1.2,0.3,1.9,1.2,3.4,0.8
				c0.2,0.4,0.4,0.8,0.6,1.1c0.5-0.1,0.7,0.2,1.2,0.2c0.1,0.4,0.4,0.6,0.7,0.8c0,0.2,0,0.3,0,0.5c0.8,0.1,1,0.9,1.8,1.1
				c0.1-0.2,0.1-0.6,0.4-0.6c0,0.6,0.3,1,0.4,1.5c0,0.3-0.4,0.2-0.3,0.6c0.1,0.8-0.5,1-0.6,1.6c-0.3,1.1,0.6,1.7,0,2.3
				c0.3,0.3,0.7,0.4,1,0.6c-0.1,0.2-0.5,0.2-0.7,0.3c-0.1,1.3,0.5,1.8,1.3,2.1c0.1,0.4-0.3,0.4-0.1,0.8c0.6,0.5,0.7,1.3,1.6,1.5
				c0.3,0.7,0.7,1.2,0.7,2.3c-0.1,0.2-0.1,0.6-0.3,0.8c0.2,0.1,0.3,0.3,0.3,0.6c-0.4,0.7,0.2,1.6,0,2.6c-0.8,0.5-0.4,2.4-0.7,3.4
				c0.2,0.5,0.6-0.3,0.7,0.2c0.1,0.8-0.5,0.7-0.7,1.1c-0.2,0.5,0.5,0.1,0.3,0.6c-0.3,0.4,0.2,0.8-0.2,1.3c0.1,1.1,0.6,1.7,0.3,2.6
				c0.4,0.4,0.4,1.3,0.9,1.6c0,0.3,0.2,0.3,0.1,0.6c0.4,0.1,0.6,0.3,0.9,0.5c0.6-0.1,1.5,0.3,1.6-0.3c-0.4-0.1-0.7-0.3-0.9-0.7
				c0.1-0.5-0.6-0.2-0.4-0.8c-0.1-0.7,0.4-0.8,0.4-1.5c0.4,0,0.6-0.2,0.6-0.6c0.1-0.6-0.5-0.4-0.4-1c0.4-0.5,1-2.1,0-2.3
				c1,0.3,0.9-0.6,1.2-1.1c0.8,0.1,1.1-0.5,1.6-0.6c0.1-0.8-0.2-1-0.3-1.6c0.4,0,0.8,0,1.2,0c0-0.2,0.2-0.1,0.3-0.2
				c0.1-0.4,0.1-0.8,0.6-0.8c0-0.9,0.6-1.1,0.9-1.6c0-0.4,0-0.7,0-1.1c0.3-0.3,0.4-0.7,0.7-1c0.7-0.2,0.7-0.2,1.3-0.5
				c0.1-1,0.8-1.9,0.3-3.1c0.2-0.1,0.3-0.4,0.3-0.8c0.2,0.1,0.2-0.1,0.4-0.2c0-0.5,0.4-0.7,0.6-1.1c0.4-0.4,0-0.8,0.4-1
				c-0.1-0.5,0.1-0.6,0.1-1C289.6,133,289.4,132.6,289.3,132.1z M282.6,105.2c0.1,0.1-0.1,0.2-0.1,0.2
				C282.3,105.3,282.5,105.1,282.6,105.2z M271.3,92.5c0.4,0.2-0.2,0.4-0.1,0.7C270.7,93,271.2,92.6,271.3,92.5z M270.7,93.3
				c0.5-0.1,0.5,0.3,1,0.2c0,0.6-0.6,0.7-1,0.8C270.7,94,270.7,93.7,270.7,93.3z M266.2,93.7c-0.1-0.1,0.1-0.2,0.1-0.2
				C266.4,93.6,266.3,93.7,266.2,93.7z M263.2,117c0-0.2,0.1-0.1,0.1,0C263.3,117.2,263.2,117.1,263.2,117z M263.3,117.4
				c0.3,0.1,0.3,0.5,0.6,0.6C263.7,118.4,263.2,117.8,263.3,117.4z"/>
			<path class="st13" d="M319,95c-0.2-0.7-0.9-1-0.7-2.1c1-0.1,1.4-0.9,2.2-1.3c0.9,0.1,1.4-0.3,1.5-1.1c-0.2,0-0.5,0-0.7,0
				c0,0.1,0,0.3-0.2,0.3c-1.1,0.1-1.9,0.6-2.8,1c0.1,0.8-0.7,0.7-0.6,1.6c-0.2,0.3-0.5,0.5-0.6,1c0.5,0.3,0.9,0.7,1.5,1
				C318.6,95.1,318.8,95,319,95z"/>
			<path class="st13" d="M343.4,92c0.4-0.3,0.5-0.7,0.9-1c-0.6-0.1-0.7-0.8-1.2-0.7c-0.1,0-0.1,0.4-0.3,0.3c-0.3,0-0.6,0-0.9,0
				C341.7,91.9,343,91.5,343.4,92z"/>
			<path class="st13" d="M296.8,99.3c0-0.4,0.5-0.3,0.7-0.5c0.2-0.8-0.3-0.9-0.3-1.6c-0.6,0.2-0.9-0.1-1.5,0.2
				c-0.4-0.1-0.4-0.7-0.9-0.6c0.2,0.8-0.6,0.5-0.6,1.1c0.4,0.1,0.4-0.2,0.7-0.2c-0.1,0.4-0.6,0.3-0.4,1c0.7-0.2,0.6,0.6,1,0.6
				C295.8,99,296.7,99.2,296.8,99.3z"/>
			<path class="st13" d="M276.9,99.3c-0.6-0.2-0.2-0.4-0.6-0.8c-0.4,0.1-0.4-0.3-0.9-0.2c-0.2,0.3-0.1,1-0.7,0.8
				c0,0.6,0.5,0.6,1,0.6C275.7,98.6,276.7,100.4,276.9,99.3z"/>
			<path class="st13" d="M302.5,105.2c-0.2-0.2-0.4-0.3-0.6-0.5c0.2-1-1-1.1-0.4-1.9c-0.2-0.2-0.4-0.3-0.6-0.5
				c0.2-0.1,0.5-0.2,0.4-0.6c-0.5-0.1-0.8,0.2-1.2,0.3c0.1,0.9-0.2,1.3-0.1,2.1c0.4,0.2,0.5,0.3,0.7,0.3c0.1,0.6-0.5,0.9-0.7,0.6
				c-0.1,0.7,0.1,1.1,0.3,1.5c-0.3,0.1-0.8,0-0.7,0.5c0.7-0.1,1.5-0.2,2.3-0.2C302.1,106.1,302,105.7,302.5,105.2z"/>
			<path class="st13" d="M298.6,105.8c0.3-0.2,0.9-0.1,1.2-0.3c-0.2-0.7,0-0.7,0-1.5c-0.2,0-0.5,0-0.7,0c0,0.7-0.3,0.2-0.6,0.5
				C298.5,105,298.4,105.6,298.6,105.8z"/>
			<path class="st13" d="M348.6,110.5c0.3,0,0.1,0.5,0.4,0.5c0.3-0.4,0.3-1.2,0.9-1.3c-0.8-0.1-1.3-0.6-2-0.7
				c0.1,0.8-0.2,1.1-0.1,1.8C348.1,111.3,348.1,110.5,348.6,110.5z"/>
			<path class="st13" d="M345.3,115.6c0,0.6,0.3,0.7,0.6,1c0.1-0.6,0.5-0.9,0.9-1.1c0.2,0,0.3,0.1,0.4,0.2c0.5-0.6,1.4-0.7,1.9-1.3
				c0-1.2-0.3-2-0.3-3.3c-0.2,0-0.4,0-0.6,0c0.2,0.8-0.1,1.1,0.1,2c-0.1,0-0.2,0.1-0.1,0.3c-0.5,0.2-0.8,0.4-1.3,1
				c-0.5,0.3-1.4,0.1-1.5,1c-0.1,0.4,0.8-0.1,0.7,0.3C345.8,115.6,345.6,115.6,345.3,115.6z"/>
			<path class="st13" d="M309.7,114.3c0,0.5,0.5,0.1,0.9,0.5c0.1-0.6-0.2-0.7-0.7-0.6C309.8,114.3,309.8,114.3,309.7,114.3z"/>
			<path class="st13" d="M342.2,119.8c0.2,0.2,0.4,0.6,0.4,1c0.6,0,0.6-0.8,0.6-1.5C342.9,119,342.4,119.4,342.2,119.8z"/>
			<path class="st13" d="M274.7,119.3c0,0.2,0,0.4,0,0.7c0.2,0,0.4,0,0.6,0C275.3,119.6,275.1,119.3,274.7,119.3z"/>
			<path class="st13" d="M276.3,120.1c0.1-0.4,0-0.6-0.1-0.8c-0.1,0-0.3,0-0.4,0C275.7,119.9,275.7,120.2,276.3,120.1z"/>
			<path class="st13" d="M276.4,120c0,0.3,0,0.5,0,0.8c0.3,0.1,0.4-0.1,0.6-0.2C277,120.2,276.8,120,276.4,120z"/>
			<path class="st13" d="M276.1,122.6c0.5-0.1,0.7,0.2,1,0.3c0-0.5,0.6-0.3,1-0.3c-0.2-1.1-1-0.9-1.9-1c0.1-0.4-0.3-0.3-0.3-0.6
				c-0.3-0.2-0.8-0.2-0.9-0.7c-0.7,0-1.5,0-2.2,0c-0.1,0.3-0.3,0.4-0.3,0.8c0.6,0.1,0.6-0.5,1.3-0.3c0.6,0.1,0.7,0.9,1.3,1
				c0.3,0.1,1.1-0.2,1.2,0.2C275.9,121.9,276.1,122.2,276.1,122.6z"/>
			<path class="st13" d="M277.6,120.8c0-0.2-0.4-0.1-0.6-0.2C276.7,121.2,277.8,121.4,277.6,120.8z"/>
			<path class="st13" d="M342.8,122.6c0.2,0.4,0.5,0.7,0.9,1c0.2-0.5,0.7-0.7,0.6-1.5C343.8,121.5,342.8,121.8,342.8,122.6z"/>
			<path class="st13" d="M339.3,123.1c0.4-0.1,0.4-0.6,0.6-1c-0.1-0.1-0.3-0.2-0.6-0.2C339,122.5,339.1,122,339.3,123.1z"/>
			<path class="st13" d="M274.5,122.2c0,0.2,0,0.4,0,0.7c0.5-0.2,0.5,0.1,1-0.2C275.7,122.1,275,122.3,274.5,122.2z"/>
			<path class="st13" d="M278.5,122.9c0.5,0,1,0,0.9-0.7c-0.3,0-0.6,0-0.9,0C278.5,122.5,278.5,122.7,278.5,122.9z"/>
			<path class="st13" d="M293.8,122.9c0,0.3-0.4,0.2-0.3,0.6c0.2,0,0.4,0,0.6,0C294.1,123.2,294,122.9,293.8,122.9z"/>
			<path class="st13" d="M343.9,125.5c0.3,0.3,0.4-0.1,0.9,0c0,0.4-0.3,0.7,0.1,0.8c0.2-0.5,0.6-0.7,1.3-0.7c0.1-0.7-0.5-0.7-0.7-1
				c0-0.5-0.2-0.8-0.6-0.8c-0.2,0.2-0.1,0.7-0.1,1.1C344.3,124.7,344.2,125.1,343.9,125.5z"/>
			<path class="st13" d="M329.5,126c0.2,1-0.5,1.2,0,1.6c0.5,0.1,0.4-0.4,0.7-0.5C330.1,126.6,329.8,126.3,329.5,126z"/>
			<path class="st13" d="M339.1,130.4c0.2,0.7,0.8,0.8,0.7,1.6c0.9-0.2,0.8,0.7,1.8,0.5c-0.1-0.4,0.4-0.2,0.4-0.5
				c-0.1,0-0.3,0-0.3-0.2c0.5-0.2,0.2-1.2,0.7-1.5c-0.3-0.5,0.1-1.1-0.2-1.5c0.2-0.1,0.5-0.3,0.4-0.8c-0.4-0.3-0.6-0.7-1.3-0.7
				C341.3,129.1,339.4,128.8,339.1,130.4z"/>
			<path class="st13" d="M336.4,129.2c-0.2-0.4-0.7-0.6-0.6-1.1c-0.4,0.1-0.3-0.3-0.6-0.3c0,0.7-0.4,0-0.7,0.2
				c0,1.9,2.1,1.5,1.8,3.7c0.7,0.1,0.9,1.2,1.6,0.8c0.3-0.6-0.3-1.3-0.3-2.1C337.1,130,336.6,129.6,336.4,129.2z"/>
			<path class="st13" d="M344.5,130.5c0-0.7-0.9-0.5-1.2-1c-0.8,0.7-1.3,2.5-0.2,3.1c0-0.5,0-0.8,0.3-1c0.3,0.3,0.3,0.8,0.9,0.5
				c-0.1-0.7-0.6-0.9-0.6-1.6C344,130.7,344.3,130.7,344.5,130.5z"/>
			<path class="st13" d="M347.7,129.9c-0.5-0.3-1.6-0.3-1.6,0.5C346.6,130.7,347.7,130.5,347.7,129.9z"/>
			<path class="st13" d="M349.3,130.5c-0.3,0-0.7,0-1,0c-0.1,0.2-0.2,0.5-0.6,0.5c-0.4,0.1-0.3-0.5-0.7-0.3c0,0.4-0.6,0.1-0.5,0.6
				c0,0.4,0.4-0.2,0.7,0c0.6,0.6,1.5,0.9,2,1.6c0,0.3,0,0.6,0,1c0.8-0.5,1,0.3,1.6,0.5c0.5,0,0.3-0.8,1-0.7c0.3,0.2,0.7,1.2,1.3,0.7
				c-0.3-0.1-0.5-0.5-0.4-1c-0.4-0.4-0.9-0.6-1.2-1.1c0-0.2,0-0.3,0-0.5C350.6,131.8,350.2,130.8,349.3,130.5z"/>
			<path class="st13" d="M341.6,134.3c0.1-0.6-0.5-0.4-0.4-1c-1.2,0-2-0.3-2.9-0.7c-0.1,0.3-0.4,0.4-0.3,1
				C339.4,133.6,340,134.5,341.6,134.3z"/>
			<path class="st13" d="M352.4,140.6c0.1-0.8-0.3-1.1-0.1-1.9c-0.3-0.1-0.3-0.5-0.6-0.7c-0.1-1.2-1-1.4-0.9-2.9
				c-0.3,0-0.3-0.2-0.6-0.2c-0.4,0.7,0.2,2.3-0.4,2.8c-0.6,0.2-0.3-0.5-0.9-0.3c0-0.5-0.7-0.2-0.6-0.8c-0.1-0.5,0.7-0.1,0.6-0.7
				c-0.5-0.6-2-0.2-2.8-0.5c-0.3,0.1,0,0.8-0.3,0.8c-0.5,0.1-1,0.3-1.5,0.5c-0.2,0.5-0.1,1.4-0.6,1.5c-0.3-0.4-0.7,0-1.2,0
				c-0.3,0.1,0,0.9-0.3,1c-0.3-0.1-0.3-0.5-0.6-0.2c-0.4,0.4-0.2,1.4-0.7,1.6c-0.3,0.2-1,0.1-1.2,0.5c0.1,0.7,0.5,1.6,0.1,2.4
				c0.3,0.1,0.4,0.4,0.4,0.8c0.1,0.7-0.3,1-0.2,1.8c0.4,0,0.5,0.4,0.9,0.3c0.6-0.3,1-0.9,2-0.7c0.5-0.7,1.5-0.9,2.8-0.8
				c0.4,0.3,0.7,0.9,0.9,1.5c0.6-0.3,0.4,0.4,1,0c0,0.4,0.1,0.9-0.1,1.1c0.9,0.6,1.5,0.6,2.9,0.6c0.4-0.3,0.6-0.7,1.2-0.8
				c-0.1-0.8,0.7-0.7,0.6-1.6c0.5,0,0.4-0.8,0.9-0.8c-0.2-0.6,0.2-0.9,0.3-1.5c0.1-1-0.3-2-0.4-2.9
				C352.8,140.4,352.5,141.1,352.4,140.6z"/>
			<path class="st13" d="M318.4,135.4c-0.3,0.5-0.5,1-0.6,1.6c-0.6,0.2-0.9,0.7-1.3,1.1c-0.1,0.6,0.2,0.6,0.1,1.1
				c-0.1,0.3-0.2,0.7-0.4,1c0.3,0.7-0.1,1.4,0.4,1.9c0.5,0,0.6-0.3,1.2-0.2c0.3-0.7,0.2-1.1,0.6-1.8c0-0.3,0-0.5,0-0.8
				c0-0.2,0.2-0.2,0.3-0.3c-0.3-0.7,0.3-1.4,0.3-2.6C318.5,136.5,319,135.3,318.4,135.4z"/>
			<path class="st13" d="M360.4,146.4c0-0.5,0-0.9-0.4-0.8c0,0.4,0,0.9,0,1.3c-0.1,0.5-0.7,0.4-0.6,1.1c1-0.2,0.3,0.5,0.3,1
				c0.9-0.1,1-1.1,1.3-1.8c0.2-0.2,0.6-0.3,0.7-0.7C361.4,146.1,361.1,146.5,360.4,146.4z"/>
			<path class="st13" d="M358.8,148.4c-0.1,0.3-0.4,0.5-0.4,1c-0.2,0-0.4,0-0.6,0.2c-0.3,0.3-0.3,0.8-0.7,1c-0.6,0.3-0.8,1-1,1.6
				c0.5-0.3,0.8-0.1,1.3,0c0.1-0.4,0.6-0.4,0.4-1.1c0.2,0,0.4,0,0.6,0c0-0.9,1.2-0.7,1.2-1.6C359.5,148.8,359.1,148.7,358.8,148.4z"
				/>
			<path class="st13" d="M348.9,148.9c-0.2,0.2,0.5,1,0.6,1.5c0.7-0.1,1.2-0.4,1-1.5C349.9,149,349.2,148.7,348.9,148.9z"/>
			<path class="st13" d="M282.9,153.9c0.2,0,0.4,0,0.6,0C283.5,153.3,282.8,153.4,282.9,153.9z"/>
		</g>
		<g>
			<g>
				<path class="st12" d="M268.9,113.4c-1.1,0-1.9,0.9-1.9,1.9c0,1.1,1.5,3,1.9,3c0.5,0,1.9-1.9,1.9-3
					C270.8,114.2,270,113.4,268.9,113.4z M268.9,116.4c-0.6,0-1.2-0.5-1.2-1.1c0-0.6,0.5-1.1,1.2-1.1c0.7,0,1.2,0.5,1.2,1.1
					C270.1,115.9,269.6,116.4,268.9,116.4z"/>
			</g>
			<path class="st14" d="M268.9,116.4c-0.6,0-1.2-0.5-1.2-1.1c0-0.6,0.5-1.1,1.2-1.1c0.7,0,1.2,0.5,1.2,1.1
				C270.1,115.9,269.6,116.4,268.9,116.4z"/>
		</g>
		<g>
			<g>
				<path class="st12" d="M279.1,106.9c-1.1,0-1.9,0.9-1.9,1.9c0,1.1,1.5,3,1.9,3c0.5,0,1.9-1.9,1.9-3
					C281,107.8,280.2,106.9,279.1,106.9z M279.1,109.9c-0.6,0-1.2-0.5-1.2-1.1c0-0.6,0.5-1.1,1.2-1.1c0.6,0,1.2,0.5,1.2,1.1
					C280.3,109.4,279.8,109.9,279.1,109.9z"/>
			</g>
			<path class="st14" d="M279.1,109.9c-0.6,0-1.2-0.5-1.2-1.1c0-0.6,0.5-1.1,1.2-1.1c0.6,0,1.2,0.5,1.2,1.1
				C280.3,109.4,279.8,109.9,279.1,109.9z"/>
		</g>
		<g>
			<g>
				<path class="st12" d="M307.4,108.3c-1.1,0-1.9,0.9-1.9,1.9c0,1.1,1.5,3,1.9,3c0.5,0,1.9-1.9,1.9-3
					C309.3,109.2,308.4,108.3,307.4,108.3z M307.4,111.4c-0.6,0-1.2-0.5-1.2-1.1c0-0.6,0.5-1.1,1.2-1.1c0.6,0,1.2,0.5,1.2,1.1
					C308.5,110.8,308,111.4,307.4,111.4z"/>
			</g>
			<path class="st14" d="M307.4,111.4c-0.6,0-1.2-0.5-1.2-1.1c0-0.6,0.5-1.1,1.2-1.1c0.6,0,1.2,0.5,1.2,1.1
				C308.5,110.8,308,111.4,307.4,111.4z"/>
		</g>
		<g>
			<g>
				<path class="st12" d="M330.6,97.9c-1.1,0-1.9,0.9-1.9,1.9c0,1.1,1.5,3,1.9,3c0.5,0,1.9-1.9,1.9-3
					C332.5,98.7,331.6,97.9,330.6,97.9z M330.6,100.9c-0.6,0-1.2-0.5-1.2-1.1c0-0.6,0.5-1.1,1.2-1.1c0.6,0,1.2,0.5,1.2,1.1
					C331.7,100.4,331.2,100.9,330.6,100.9z"/>
			</g>
			<path class="st14" d="M330.6,100.9c-0.6,0-1.2-0.5-1.2-1.1c0-0.6,0.5-1.1,1.2-1.1c0.6,0,1.2,0.5,1.2,1.1
				C331.7,100.4,331.2,100.9,330.6,100.9z"/>
		</g>
		<g>
			<g>
				<path class="st12" d="M337.5,113.9c-1.1,0-1.9,0.9-1.9,1.9c0,1.1,1.5,3,1.9,3c0.5,0,1.9-1.9,1.9-3
					C339.5,114.8,338.6,113.9,337.5,113.9z M337.5,116.9c-0.6,0-1.2-0.5-1.2-1.1c0-0.6,0.5-1.1,1.2-1.1c0.6,0,1.2,0.5,1.2,1.1
					C338.7,116.4,338.2,116.9,337.5,116.9z"/>
			</g>
			<path class="st14" d="M337.5,116.9c-0.6,0-1.2-0.5-1.2-1.1c0-0.6,0.5-1.1,1.2-1.1c0.6,0,1.2,0.5,1.2,1.1
				C338.7,116.4,338.2,116.9,337.5,116.9z"/>
		</g>
		<g>
			<g>
				<path class="st12" d="M319.9,113.4c-1.1,0-1.9,0.9-1.9,1.9c0,1.1,1.5,3,1.9,3c0.5,0,1.9-1.9,1.9-3
					C321.8,114.2,320.9,113.4,319.9,113.4z M319.9,116.4c-0.6,0-1.2-0.5-1.2-1.1c0-0.6,0.5-1.1,1.2-1.1c0.6,0,1.2,0.5,1.2,1.1
					C321.1,115.9,320.5,116.4,319.9,116.4z"/>
			</g>
			<path class="st14" d="M319.9,116.4c-0.6,0-1.2-0.5-1.2-1.1c0-0.6,0.5-1.1,1.2-1.1c0.6,0,1.2,0.5,1.2,1.1
				C321.1,115.9,320.5,116.4,319.9,116.4z"/>
		</g>
		<g>
			<g>
				<path class="st12" d="M352.3,136.8c-1.1,0-1.9,0.9-1.9,1.9c0,1.1,1.5,3,1.9,3c0.5,0,1.9-1.9,1.9-3
					C354.2,137.7,353.4,136.8,352.3,136.8z M352.3,139.9c-0.6,0-1.2-0.5-1.2-1.1c0-0.6,0.5-1.1,1.2-1.1c0.7,0,1.2,0.5,1.2,1.1
					C353.5,139.3,353,139.9,352.3,139.9z"/>
			</g>
			<path class="st14" d="M352.3,139.9c-0.6,0-1.2-0.5-1.2-1.1c0-0.6,0.5-1.1,1.2-1.1c0.7,0,1.2,0.5,1.2,1.1
				C353.5,139.3,353,139.9,352.3,139.9z"/>
		</g>
		<g>
			<g>
				<path class="st12" d="M273.1,120.7c-1.1,0-1.9,0.9-1.9,1.9c0,1.1,1.5,3,1.9,3c0.5,0,1.9-1.9,1.9-3
					C275,121.5,274.1,120.7,273.1,120.7z M273.1,123.7c-0.6,0-1.2-0.5-1.2-1.1c0-0.6,0.5-1.1,1.2-1.1c0.6,0,1.2,0.5,1.2,1.1
					C274.3,123.2,273.7,123.7,273.1,123.7z"/>
			</g>
			<path class="st14" d="M273.1,123.7c-0.6,0-1.2-0.5-1.2-1.1c0-0.6,0.5-1.1,1.2-1.1c0.6,0,1.2,0.5,1.2,1.1
				C274.3,123.2,273.7,123.7,273.1,123.7z"/>
		</g>
		<g>
			<g>
				<path class="st12" d="M300.9,99.3c-1.1,0-1.9,0.9-1.9,1.9c0,1.1,1.5,3,1.9,3c0.5,0,1.9-1.9,1.9-3
					C302.8,100.1,302,99.3,300.9,99.3z M300.9,102.3c-0.6,0-1.2-0.5-1.2-1.1c0-0.6,0.5-1.1,1.2-1.1c0.6,0,1.2,0.5,1.2,1.1
					C302.1,101.8,301.6,102.3,300.9,102.3z"/>
			</g>
			<path class="st14" d="M300.9,102.3c-0.6,0-1.2-0.5-1.2-1.1c0-0.6,0.5-1.1,1.2-1.1c0.6,0,1.2,0.5,1.2,1.1
				C302.1,101.8,301.6,102.3,300.9,102.3z"/>
		</g>
		<g>
			<g>
				<path class="st12" d="M316,98.7c-1.1,0-1.9,0.9-1.9,1.9c0,1.1,1.5,3,1.9,3c0.5,0,1.9-1.9,1.9-3C317.9,99.6,317.1,98.7,316,98.7z
					 M316,101.7c-0.6,0-1.2-0.5-1.2-1.1c0-0.6,0.5-1.1,1.2-1.1c0.6,0,1.2,0.5,1.2,1.1C317.2,101.2,316.7,101.7,316,101.7z"/>
			</g>
			<path class="st14" d="M316,101.7c-0.6,0-1.2-0.5-1.2-1.1c0-0.6,0.5-1.1,1.2-1.1c0.6,0,1.2,0.5,1.2,1.1
				C317.2,101.2,316.7,101.7,316,101.7z"/>
		</g>
	</g>
	<g>
		<g>
			<g>
				<rect x="314.3" y="185.7" class="st10" width="23.2" height="2"/>
				<rect x="314.3" y="189.4" class="st9" width="8.7" height="2"/>
			</g>
			<g>
				<path class="st9" d="M316.8,170.4c0.7,0,1.2-0.5,1.2-1.2c0-0.7-0.5-1.2-1.2-1.2c-0.7,0-1.2,0.5-1.2,1.2
					C315.6,169.9,316.1,170.4,316.8,170.4z"/>
				<path class="st9" d="M319.2,171.2c0-0.3-0.2-0.5-0.5-0.5c0,0-0.1,0-0.1,0c-1.2-0.1-2.5-0.1-3.7,0c0,0-0.1,0-0.1,0
					c-0.2,0-0.4,0.2-0.4,0.5l-0.2,4.2c0,0.3,0.2,0.5,0.5,0.6c0,0,0,0,0,0c0.3,0,0.5-0.2,0.5-0.5l0-0.5c0,0,0,0,0,0c0,0,0.1,0,0.1,0
					c0,0,0,0.1,0,0.1v4.2c0,0.4,0.3,0.7,0.7,0.7c0.4,0,0.7-0.3,0.7-0.7V175c0-0.1,0-0.1,0-0.1c0.1,0,0.2,0,0.2,0c0,0,0,0.1,0,0.1
					v4.2c0,0.4,0.3,0.7,0.7,0.7c0.4,0,0.7-0.3,0.7-0.7V175c0,0,0-0.1,0-0.1c0,0,0.1,0,0.1,0c0,0,0,0,0,0l0,0.5
					c0,0.3,0.3,0.5,0.5,0.5c0,0,0,0,0,0c0.3,0,0.5-0.3,0.5-0.6L319.2,171.2z"/>
			</g>
			<g>
				<rect x="322.7" y="168.8" class="st9" width="45.9" height="2.4"/>
				<rect x="322.7" y="172.9" class="st9" width="45.9" height="2.4"/>
				<rect x="322.7" y="176.9" class="st9" width="45.9" height="2.4"/>
				<rect x="322.7" y="168.8" class="st13" width="42.8" height="2.4"/>
				<rect x="322.7" y="172.9" class="st15" width="16.2" height="2.4"/>
				<rect x="322.7" y="176.9" class="st12" width="21.5" height="2.4"/>
			</g>
			<rect x="314.1" y="157.8" class="st10" width="25.1" height="3.3"/>
		</g>
		<g>
			<g>
				<rect x="249.9" y="185.7" class="st10" width="23.2" height="2"/>
				<rect x="249.9" y="189.4" class="st9" width="8.7" height="2"/>
			</g>
			<g>
				<path class="st9" d="M256.3,175.6l-1.3-4.3c-0.1-0.2-0.2-0.3-0.4-0.4c0,0,0,0,0,0c-1-0.4-2-0.4-2.9,0c0,0,0,0,0,0
					c-0.2,0-0.3,0.2-0.4,0.4l-1.3,4.3c-0.1,0.3,0.1,0.6,0.4,0.7c0.1,0,0.1,0,0.2,0c0.2,0,0.4-0.1,0.5-0.4l0.7-2.2h0.1
					c-0.2,0.8-0.3,1.7-0.5,2.5c-0.1,0.4,0.1,0.7,0.5,0.8v2.3c0,0.4,0.3,0.7,0.7,0.7c0.4,0,0.7-0.3,0.7-0.7V177c0.1,0,0.1,0,0.2,0
					v2.2c0,0.4,0.3,0.7,0.7,0.7c0.4,0,0.7-0.3,0.7-0.7V177c0.4-0.1,0.6-0.4,0.5-0.8c-0.2-0.8-0.3-1.7-0.5-2.5h0.1l0.7,2.2
					c0.1,0.2,0.3,0.4,0.5,0.4c0.1,0,0.1,0,0.2,0C256.2,176.2,256.3,175.9,256.3,175.6z"/>
				<path class="st9" d="M253.1,170.4c0.7,0,1.2-0.5,1.2-1.2c0-0.7-0.5-1.2-1.2-1.2c-0.7,0-1.2,0.5-1.2,1.2
					C251.9,169.9,252.4,170.4,253.1,170.4z"/>
			</g>
			<g>
				<rect x="259.1" y="168.8" class="st9" width="45.9" height="2.4"/>
				<rect x="259.1" y="172.9" class="st9" width="45.9" height="2.4"/>
				<rect x="259.1" y="176.9" class="st9" width="45.9" height="2.4"/>
				<rect x="259.1" y="168.8" class="st13" width="17.4" height="2.4"/>
				<rect x="259.1" y="172.9" class="st15" width="6.6" height="2.4"/>
				<rect x="259.1" y="176.9" class="st12" width="41.5" height="2.4"/>
			</g>
			<rect x="249.9" y="157.8" class="st10" width="25.1" height="3.3"/>
		</g>
	</g>
</g>
<g>
	<g>
		<path class="st16" d="M203.1,263.7"/>
	</g>
	<g>
		<path class="st17" d="M305.9,326.9c23.2-7.1,42.1-22.8,53.5-44.1c11.4-21.4,13.7-46,6.5-69.1c-7.1-23.1-22.8-42-44.1-53.3
			c-44.1-23.4-99.1-6.6-122.5,37.5c-11.4,21.4-13.7,46-6.5,69.2c7.1,23.1,22.8,42,44,53.3C258.2,331.7,282.7,334,305.9,326.9z
			 M209,262.1c-5.8-18.9-3.9-38.9,5.3-56.3c19-35.9,63.7-49.6,99.6-30.5c17.3,9.2,30,24.6,35.8,43.4c5.8,18.9,3.9,38.9-5.3,56.2
			c-9.2,17.4-24.7,30.1-43.5,35.9c-18.8,5.8-38.8,3.9-56.1-5.3C227.5,296.3,214.7,280.9,209,262.1z"/>
		<path class="st8" d="M349.4,218.7c-5.8-18.7-18.4-34.1-35.7-43.2c-35.8-19-80.3-5.3-99.3,30.4c-9.2,17.3-11.1,37.2-5.3,56.1l0,0
			c5.8,18.7,18.4,34,35.7,43.2c17.3,9.2,37.2,11.1,55.9,5.3c18.8-5.7,34.2-18.4,43.4-35.7C353.4,257.4,355.3,237.5,349.4,218.7
			L349.4,218.7z"/>
		<path class="st8" d="M243.7,183.6c18.1-5.6,37.3-3.7,54,5.1c16.7,8.9,28.9,23.7,34.5,41.8c5.6,18.1,3.8,37.3-5,54.1l0,0.1
			c-3.4,6.5-7.8,12.3-12.9,17.3c11.7-6.6,21.3-16.3,27.7-28.5l0-0.1c8.8-16.7,10.6-36,5-54.1c-5.6-18.1-17.8-32.9-34.5-41.8
			c-16.7-8.9-35.9-10.7-54-5.1c-11.1,3.4-21,9.3-29,17.2C234,187.2,238.7,185.2,243.7,183.6z"/>
		<path class="st18" d="M210.6,203.8c20.1-37.9,67.3-52.4,105.3-32.3c18.3,9.7,31.8,26,37.9,45.8c6.2,20,4.2,41.1-5.6,59.4l0,0
			l6.7,3.6c0-0.1,0-0.1,0.1-0.1c10.7-20.1,12.8-43.3,6.1-65.1c-6.7-21.8-21.5-39.6-41.6-50.3c-41.6-22.1-93.5-6.2-115.5,35.4
			L210.6,203.8L210.6,203.8z"/>
	</g>
	<path class="st17" d="M181.2,282.4c6.6-1.9,13.2-3.9,19.8-5.8c3-0.9,5.5-3,6.8-5.5c-1-2.5-2-5-2.8-7.6c-0.8-2.7-1.5-5.4-2.1-8.2
		c-2.5-1.4-5.7-1.7-8.7-0.8c-6.6,1.9-13.3,3.9-19.9,5.8c-6.3,1.9-7.5,7.5-5.5,13.8l0,0C170.8,280.3,174.9,284.3,181.2,282.4z"/>
	
		<rect x="57.1" y="270.8" transform="matrix(0.9562 -0.2929 0.2929 0.9562 -79.5007 47.6557)" class="st19" width="124.6" height="37"/>
	
		<rect x="59.4" y="289.2" transform="matrix(0.9562 -0.2929 0.2929 0.9562 -81.6071 48.6615)" class="st15" width="124.6" height="15.3"/>
	<polygon class="st3" points="175.9,291.4 165,256 173.5,253.4 184.4,288.8 	"/>
	<rect x="173" y="271" transform="matrix(0.9561 -0.293 0.293 0.9561 -74.0648 63.8484)" class="st4" width="6.1" height="16.3"/>
	<path class="st3" d="M56.8,327.8C44,321.1,39.2,305.3,46,292.5c2.8-0.9,5.7-1.7,8.5-2.6c3.6,11.8,7.2,23.6,10.8,35.4
		C62.4,326.1,59.6,327,56.8,327.8z"/>
	<polygon class="st4" points="55.9,324.5 51.1,308.9 58.4,306.7 63.2,322.3 	"/>
</g>
<g>
	<path class="st20" d="M103.4,280.3c0,0,25.2,0.1,34.9,0.2c6.7,0.1,7.3-9.5,4.7-10.9c-8.1-4.4-33.2-6.6-33.2-6.6l-17.1,15.7
		C92.7,278.6,93.6,278.6,103.4,280.3z"/>
	<path class="st21" d="M127.1,228.9c0,0,6.5-1.8,9.3,6.6c4.3,13,3.9,24.9,3.3,27.4c-0.3,1.2-1.1,5.2-8.3,5.4
		c-2.9,0.1-1.8-6.2-1.8-6.2s-1.9-5.3-3.9-14.4C123.8,238.7,127.1,228.9,127.1,228.9z"/>
	<path class="st22" d="M132.2,229.6l-16.6-5.4l-12.6-0.8l-13.8,4.2c0,0-4.5,3.1-0.3,13.1c4.2,10,2.6,25.6,2.6,25.6l35.5,1.1
		c0,0,0.7-14.5,3-28.9C130.6,235.3,130.7,231.5,132.2,229.6z"/>
	<path class="st21" d="M107.9,266.7h1.8c1.9-14,1.8-28.4-0.3-42.3c-0.5,0.3-1.1,0.7-1.6,1C108.2,239.6,107.4,253.9,107.9,266.7z"/>
	<g>
		<path class="st23" d="M114.9,228.2c-0.2,1.9-1.8,3.6-3.5,3.7c-1.6,0-3.1,0-4.7,0c-1.6-0.1-3.2-1.7-3.5-3.7
			c-0.4-3.2-0.8-6.3-1.2-9.5c-0.3-1.9,0.9-5.7,3.4-6.8c2.3-1,4.9-1,7.2,0c2.5,1.1,3.6,4.9,3.4,6.8
			C115.7,221.8,115.3,225,114.9,228.2z"/>
	</g>
	<polygon class="st21" points="108.9,232.1 106,236.9 100.5,230.1 101.3,226.5 103.1,225.1 103.1,227.8 	"/>
	<polygon class="st21" points="109.3,232.1 112.3,236.9 117.4,230.6 116.5,226.7 115.2,225 114.7,228.2 	"/>
	<g>
		<path class="st24" d="M108.4,205.8c-1.3,0-2.5,0.7-3.1,1.7H104c-1.6,0-2.9,1.3-2.9,2.9v7.2h2v-2.9c0-1.1,0.9-2,2-2h1.2h-1.9h1.3
			c2.1,0,3.8-1.7,3.8-3.8v-3.1H108.4z"/>
		<path class="st23" d="M104.8,220.3c0,1-0.8,1.8-1.8,1.8h-0.1c-1,0-1.8-0.8-1.8-1.8v-2.2c0-1,0.8-1.8,1.8-1.8h0.1
			c0.7,0,1.4,0.4,1.6,1.1L104.8,220.3z"/>
		<path class="st24" d="M106.8,208.7v-2.9h1.2h3.1h1.9c2.1,0,3.8,1.7,3.8,3.8v2.9h-1.2h-3.1h-1.9
			C108.5,212.4,106.8,210.7,106.8,208.7z"/>
		<path class="st25" d="M116.2,223c0,1.5-1.1,4-3,4.8c-2.6,1.1-5.6,1.1-8.2,0c-1.9-0.8-3-3.3-3-4.8c0-4.2,0-8.5,0-12.7
			c0-1.5,1.5-2.8,3.3-2.8c2.5,0,5.1,0,7.6,0c1.8,0,3.4,1.3,3.3,2.8C116.2,214.5,116.2,218.8,116.2,223z"/>
		<path class="st24" d="M110.5,205.8c1.3,0,2.5,0.7,3.1,1.7h1.3c1.6,0,2.9,1.3,2.9,2.9v7.2h-2v-2.9c0-1.1-0.9-2-2-2h0h0.7h-3.3
			c-2.1,0-3.8-1.7-3.8-3.8v-3.1H110.5z"/>
		<path class="st25" d="M114.2,218.1c0-1,0.8-1.8,1.8-1.8h0.2c1,0,1.8,0.8,1.8,1.8v2.2c0,1-0.8,1.8-1.8,1.8H116
			c-0.7,0-1.4-0.4-1.6-1.1L114.2,218.1z"/>
		<path class="st24" d="M107.4,209.4c0-0.2,0.1-0.5,0.1-0.7v-2.9h-1.2h-1.5c-2.1,0-3.8,1.7-3.8,3.8v2.9h0.8h0.4h1.5
			c0.3,0,0.5,0,0.8-0.1C104.8,210.9,105.9,209.7,107.4,209.4z"/>
	</g>
	<path class="st17" d="M74.4,328.4c-0.4,0.5-0.1,1.7-0.1,1.7s6.8,0.8,9,0.2c0.6-0.1,1.5-0.6,2.4-1.1c0.1-0.1,0.4-0.6,0.6-0.7
		c0.3-0.2,0.4,0.1,0.6,0c0.6-0.4,1-0.7,1-0.7c0.6-3.1-0.2-4.4-0.2-4.4s-5.8-1.9-6.9-0.6C78.4,326,75.3,327.4,74.4,328.4z"/>
	<path class="st17" d="M137.8,325l0.5,5.1l5.1,0.5c0,0,0.4-0.7,0.8-0.6c0.4,0,0.8,0.8,1.3,0.8c1.1,0.1,2.3,0.2,2.8,0.3
		c1,0.1,10.3,1,10.3,1s0.3-1,0.1-1.4c-0.1-0.2-0.9-0.6-1.5-0.8c-2.6-1-9.9-4.1-11-6.7C144.8,319.9,137.8,325,137.8,325z"/>
	<g>
		<path class="st25" d="M130,260.2l-17.3,7.1c0,0,12.3,1.8,20,0.2C137.9,266.4,130.3,260,130,260.2z"/>
	</g>
	<path class="st20" d="M90.7,271c0,0-1.7,15.8-1.4,24.2c0.2,6.3,0.2,18.4-1.3,28.7c-0.1,0.6-8.2,0.2-8.2,0.2s-2.9-39.2-3.8-45.7
		C75.2,271.9,77.7,267.2,90.7,271z"/>
	<path class="st24" d="M141.4,274.8c0,0-2.6,4.1-9.7,5.1c-2.6,0.4,4.2,45.9,4.2,45.9l10.5-3.4l-2-50.4L141.4,274.8z"/>
	<path class="st24" d="M112.4,279.9c0,0-13.8,2-23,2.9c-3.4,0.4-6.3-9.1-6.7-9.5c-2.5-2.6-4.9-2.2-4.8-2.3c2-2.2,12.3-4.1,23.1-6.7
		c10.8-2.5,12.4-0.9,12.4-0.9L112.4,279.9z"/>
	<path class="st20" d="M101,264.3c-10.8,2.5-21.1,4.5-23.1,6.7c-0.1,0.1,2.3-0.2,4.8,2.3c0.1,0.1,0.7,3.1,1.2,4.2
		c-1.8-3.2,23.6-12.1,29-14.4C111.9,262.8,108.9,262.4,101,264.3z"/>
	<polygon class="st24" points="89.2,279.8 88.1,310.6 87.1,317.7 86.9,310.6 87.2,306.1 84.7,299.2 83.4,283.2 85.3,283.9 
		85.1,276.8 	"/>
	<path class="st20" d="M141,271l2.6,0.7l0.9,37l-5.4,13.2l2.6-9l-1.1-18.6c0,0-3.7,9-3.7,8.6c0-0.5,3.2-19.6,3.2-19.6
		s-3.5,2.9-3.2,2.8C137.3,286,139.1,272.7,141,271z"/>
	<path class="st22" d="M96.9,227.7c0,0-5.5-4.3-10.9,3.7c-7.9,11.8-11.4,24.3-12.6,28c-1,2.8-0.4,10.7,2.8,13.9
		c0.8,0.8,5.5,0.2,5.5,0.2l3.1-2.1l-1.3-2.5l-0.1-2c0,0,3.9-9.5,8.8-18.5C96.9,239.5,96.9,227.7,96.9,227.7z"/>
	<g>
		<path class="st25" d="M83.4,263.8l18,0.9c0,0-17.3,7.9-17.9,6.6C80.2,263.5,83.4,263.8,83.4,263.8z"/>
		<g>
			<path class="st25" d="M93.3,263.2c1-0.5,1-0.5,1-0.5s1,1.1,2.3,1.4c0.7,0.1,2.9,0.1,2.9,0.1l3.3,0.1l1.5-0.1c0,0,0.9-0.1,1.1,0
				c0.7,0.4,0.1,0.8,0.1,0.8l-5.9,0.8l5.7,0.7c0,0,0.7,0.2,0.7,0.6c0,0.4-0.2,0.3-0.2,0.3l-6.6,0.7l2.9,0.7c0,0,0.7,0.2,0.7,0.6
				c0.1,0.4,0.1,0.5,0.1,0.5l-6.1-0.6C96.9,269.4,92.2,263.7,93.3,263.2z"/>
			<path class="st25" d="M99.8,266.9l4,0.7c0,0,0.9,0.1,1.3,0.4c0.5,0.3,0.2,0.7,0.2,0.7l-6.1-0.5L99.8,266.9z"/>
		</g>
	</g>
	<g>
		<path class="st26" d="M124.8,270C124.8,270,124.8,270,124.8,270v-1.2H89.4v1.1c0,0,0,0,0,0l0.1,0.2c0.6,1,1.7,1.2,2.9,1.2h29.3
			c1.2,0,2.3-0.2,2.9-1.2L124.8,270z"/>
		<g>
			<rect x="95.4" y="269.1" class="st27" width="23.4" height="0.8"/>
		</g>
		<g>
			<path class="st28" d="M124.8,269l0.1-23.2c0-0.6-0.5-1.1-1.1-1.1H90.6c-0.6,0-1.1,0.5-1.1,1.1L89.4,269H124.8z"/>
			<path class="st26" d="M109.3,256.8c0,1.2-1,2.1-2.2,2.1c-1.2,0-2.1-1-2.1-2.1c0-1.2,1-2.1,2.2-2.1
				C108.4,254.7,109.3,255.6,109.3,256.8z"/>
		</g>
	</g>
	<polygon class="st21" points="81,272.7 79.8,264.9 81.9,262.8 86.4,263.5 85.5,272.2 	"/>
	<polygon class="st22" points="136.1,267.1 136.6,264.2 130.9,259 127.8,260.4 131.8,268.2 	"/>
</g>
<g>
	<g>
		<path class="st9" d="M488.1,244c3.4,0.9,9.6,3.9,10.9,9.1c2,7.8-2,19.2,4.3,30.4c2,3.6-34.3,8.4-34.3,8.4l-7-39.4
			c0,0,8.8-8.6,10.5-9.1C476.2,242.2,481.3,242.3,488.1,244z"/>
		<g>
			<path class="st29" d="M461.9,252.6c-1.3,3.1-4.5,21.9-0.9,26.3c0.4,0.5-1.8,1.3-1.4,3.6c0.1,0.4,0.7,2.2,0.7,2.2l2.9,0.8l8.8-5
				l-1.7-2l-0.8,0c0,0-0.8-0.7-0.5-1.6c0.2-0.9-2-2.3-5.4-16.8C462.6,255.8,462.1,251.9,461.9,252.6z"/>
			<path class="st30" d="M465.2,278l2.6-0.6l1.1-0.2c0,0.7,0.6,1.2,0.6,1.2l-2,0.1l-2.4,0.5l-2.9,1.6L465.2,278z"/>
		</g>
		<path class="st31" d="M469,280.4c0,0-2,0-3.7,1c-1.3,0.8-2.5,2.5-1.3,3.5c1.2,0.9,3,1.8,3,1.8S471.5,286.9,469,280.4z"/>
		<path class="st28" d="M463.9,285l1.2-0.3c0,0,4.2-0.4,4.8-0.1c0.6,0.3,2.5,1.6,2.5,1.6l0.4,0.4c0,0-0.9,0.6-2.2-0.3
			c-1.3-0.9-1.4-0.2-1.4-0.2l0.2,1.1l0,1.4l0.2,0.6c0,0,0.2,0.3,0,0.4c-0.4,0.3-0.8,0.2-0.8,0.2l-1.3-2.2l-0.3,2.4
			c0,0-0.2,0.3-0.6,0.4c-0.4,0.1-0.4,0-0.4,0l-0.3-0.6c0,0.1-0.1,0.3-0.3,0.4c-0.3,0.3-0.8,0.2-0.8,0.2l0.1-2.6l-0.5,1.3
			c0,0-0.2,0.3-0.6,0.4c-0.4,0.1-0.5,0.1-0.5,0.1L463.9,285z"/>
		<g>
			<g>
				<path class="st25" d="M485.7,275c0,0-3.1,7.7-10.4,9.8c-1.3,0.4-2,1.7-1.4,2.2c0.8,0.6,1.9,0.7,3.7,0.7c3.8,0,9.1-1.2,12.7-4.7
					c5.3-5.2,7-7.5,6.5-10.1C496.2,270.2,485.7,275,485.7,275z"/>
				<path class="st29" d="M498,250.5c1.6,2.6,2.5,6.7,2.4,12.5c0,4.5-3.9,12-4.5,14.3c-0.1,0.4-0.3,2-0.3,2l-4.3,4.3l-8.7-5.9
					l2.7-4.1l0.8,0.1c0,0,0.5-2.2,0.4-3.1c-0.1-0.9,2.4-12.6,3.7-20.1C490.7,246.2,496.4,248,498,250.5z"/>
				<path class="st9" d="M490.2,273.6l-2.5-0.8l-1-0.3c-0.1,0.7-0.7,1.2-0.7,1.2l2,0.2l2.3,0.7l2.7,1.9L490.2,273.6z"/>
			</g>
			<path class="st25" d="M475.9,284.7l-4.4-1.2c0,0-1.3,1.7-1,2.1c0.2,0.4,0,2.9,0,2.9l2.1,1.8l1.7-0.6c0,0,0.1-0.8-0.5-0.8
				c-0.6-0.1,0.4-0.5,0.7-0.7C474.9,288.1,477.5,286.8,475.9,284.7z"/>
		</g>
		<path class="st28" d="M482.7,243.7c0.5,1.4-0.3,3-1.7,3.5l-2.5,0.9c-1.4,0.5-3-0.3-3.5-1.7l-2.2-6.4c-0.5-1.4,0.3-3,1.7-3.5
			l2.5-0.9c1.4-0.5,3,0.3,3.5,1.7L482.7,243.7z"/>
		<g>
			<path class="st25" d="M471.7,249.3c0.3,0.9,1.2,1.5,2.2,1.2l7.6-2.1c0.9-0.3,1.5-1.2,1.2-2.2l-3.1-11.3c-0.3-0.9-1.2-1.5-2.2-1.2
				l-7.6,2.1c-0.9,0.3-1.5,1.2-1.2,2.2L471.7,249.3z"/>
			<path class="st32" d="M469.2,240.4c0,0-1.3-0.8-1.7-1.4c-0.2-0.3-0.2-1.7,0.5-2.4c0.7-0.7,1.7,0,1.7,0s-1.1,1.1-1.1,1.4
				C468.6,238.2,469.2,240.4,469.2,240.4z"/>
			<path class="st33" d="M481.8,239.9c0,0,0-4.6-0.6-5.8c-0.6-1.2-0.9-2.1-2.5-1.8c-2.4,0.4-2.3,0.9-3.6,0.5
				c-1.3-0.4-3.8-1.5-4.6-1.5c-1.2,0-3,0.9-2.4,3.1c0.4,1.6-0.5,2.3-0.5,2.4c0.1,0.2,0.6,0.2,1.5,0.4c2.4,0.5,3.7,0.3,5.2-0.5
				c1.5-0.9,4.3-2.6,4.9-1.5c0.7,1.1,1.5,4.8,1.8,5C481.2,240.4,481.5,240.2,481.8,239.9z"/>
			<path class="st25" d="M480.3,243.9c0.1,0.3,0.4,0.5,0.7,0.4l1.6-0.5c0.3-0.1,0.5-0.4,0.4-0.7l-0.8-3c-0.1-0.3-0.4-0.5-0.7-0.4
				l-1.6,0.5c-0.3,0.1-0.5,0.4-0.4,0.7L480.3,243.9z"/>
			<path class="st25" d="M470.5,246.6c0.1,0.3,0.4,0.5,0.7,0.4l1.6-0.5c0.3-0.1,0.5-0.4,0.4-0.7l-0.8-3c-0.1-0.3-0.4-0.5-0.7-0.4
				l-1.6,0.5c-0.3,0.1-0.5,0.4-0.4,0.7L470.5,246.6z"/>
			<path class="st33" d="M481.3,241.1c0,0,1.2,4.4,1.6,5.9c0.4,1.3,0.6,4.4-6.9,6.5c-4.5,1.2-5.2-2.1-5.5-3.2
				c-0.2-0.8,0-3.5,0.4-4.1c0,0,0.5,1.8,0.5,1.8s0.4-2,2.6-2.6c3.4-0.9,4.8,0.8,6.3,0.4C481.4,245.4,481.7,243.3,481.3,241.1z"/>
			<path class="st25" d="M476.2,247.9l-2.3,0.6c-0.3,0.1-0.6-0.1-0.7-0.4l-0.1-0.3l3.5-1l0.1,0.3
				C476.7,247.5,476.5,247.8,476.2,247.9z"/>
		</g>
	</g>
	<path class="st24" d="M439.1,292.8c1.1,3,20,14,26.4,13.3l19.1,0.9c16.3-2,24-27.3,24-27.3c-0.6-6.4-16.7,2.9-22.4,5.7
		c-9.1,4.5-14.8,4.7-14.8,4.7c-6.1,0.6-13.1-4.1-20.7-4.2C442.3,285.9,437.4,288.1,439.1,292.8z"/>
	<g>
		<path class="st26" d="M480.8,289.8C480.8,289.8,480.8,289.8,480.8,289.8l0-0.8l-33-0.6l0,0.8c0,0,0,0,0,0l0.1,0.1
			c0.4,0.7,1.2,0.8,2,0.9l28.7,0.5c0.9,0,1.6-0.1,2.1-0.8L480.8,289.8z"/>
		<path class="st34" d="M472.8,289.8C472.8,289.8,472.8,289.8,472.8,289.8l0.1,0.1c0.1,0.2,0.3,0.3,0.5,0.4l5,0.1
			c0.8,0,1.6-0.1,2-0.6l0.1-0.1c0,0,0,0,0,0l0-0.4l-7.6-0.1L472.8,289.8z"/>
		<g>
			
				<rect x="459.9" y="280.8" transform="matrix(1.823606e-02 -0.9998 0.9998 1.823606e-02 162.7448 743.8397)" class="st27" width="0.6" height="16.5"/>
		</g>
		<g>
			<path class="st21" d="M472.6,288.8l-4-16.3c-0.1-0.4-0.5-0.8-1-0.8l-23.1-0.4c-0.4,0-0.7,0.3-0.6,0.8l4,16.3L472.6,288.8z"/>
		</g>
	</g>
	<g>
		<path class="st25" d="M487.6,311.3c-2.3,0.4-4-2.3-4-2.3l-5.9-4.6l1.2-3.1l11.5,5.2C490.4,306.4,489.8,310.9,487.6,311.3z"/>
		<path class="st13" d="M483.5,308.9c0,0,0,0.3,0.4,1.5c0.4,1.2,1,1.6,1.5,1.8c2.2,0.6,3.8,0.3,9.1,1.3c5.3,1,6.9,0.3,8.4-2.2
			c1.6-2.4-0.1-4.4-2.6-4.6c-3.7-0.3-5.8,0.1-7.8-0.1c-2-0.3-2.2-0.8-3.4-1.5c-1.1-0.7-2.2,3.4-1.1,4.4
			C489.1,310.3,484.3,310.4,483.5,308.9z"/>
		<path class="st35" d="M484.7,311.2c2.2,0.6,3.8,0.3,9.1,1.3c5.3,1,6.9,0.2,8.4-2.2c0.7-1.1,0.8-2.1,0.3-2.9
			c1.2,0.8,1.6,2.2,0.5,3.8c-1.5,2.4-3.1,3.2-8.4,2.2c-5.3-1-6.9-0.7-9.1-1.3c-0.4-0.1-0.9-0.4-1.2-1.1
			C484.4,311.1,484.5,311.2,484.7,311.2z"/>
		<path class="st25" d="M483.5,308.9C483.5,308.9,483.5,308.9,483.5,308.9C483.6,308.9,483.6,308.9,483.5,308.9
			C483.6,308.9,483.6,308.9,483.5,308.9z"/>
		<g>
			<path class="st35" d="M495,310.8c0.2,0.1,0.3-0.3,0.4-0.7c0.1-0.9,0.3-1.8,0.6-2.7c0.2-0.4,0.1-0.8,0-0.9c-0.2,0-0.5,0.3-0.6,0.7
				c-0.3,0.9-0.5,1.8-0.6,2.7C494.7,310.3,494.8,310.7,495,310.8z"/>
			<path class="st35" d="M493.3,310.5c0.2,0,0.3-0.3,0.4-0.7c0.1-0.9,0.3-1.7,0.6-2.6c0.1-0.4,0.1-0.8-0.1-0.8
				c-0.2,0-0.5,0.3-0.6,0.7c-0.3,0.8-0.5,1.7-0.6,2.5C493,310.1,493.2,310.4,493.3,310.5z"/>
			<path class="st35" d="M491.6,310.4c0.2,0,0.4-0.3,0.4-0.7c0.1-0.9,0.4-1.8,0.7-2.6c0.2-0.4,0.2-0.8,0-0.8c-0.2,0-0.5,0.3-0.7,0.8
				c-0.3,0.9-0.6,1.7-0.7,2.6C491.3,310,491.4,310.4,491.6,310.4z"/>
		</g>
	</g>
	<path class="st24" d="M487.2,303.7c0,0-40.5-16.6-42.8-16.7c-7.8-0.1-6,7.8-2.1,11.6c4.7,4.4,40.2,12.4,40.2,12.4L487.2,303.7z"/>
	<g>
		<polygon class="st25" points="471.1,306.6 482.2,296.1 477.4,291.5 465.4,304.2 		"/>
		<path class="st20" d="M468.8,298.4c0,0,28.1-25.8,30-26.6c6.4-2.6,10.4,4.5,10.2,6.9c-0.3,3.2-28.9,29-28.9,29L468.8,298.4z"/>
		<g>
			<path class="st13" d="M452.1,307.4c-0.7,0.6-0.8,2.4-0.8,2.4s9.4,3.5,12.7,3.6c0.9,0,2.4-0.3,3.9-0.7c0.2-0.1,0.8-0.7,1.1-0.8
				c0.5-0.1,0.6,0.3,0.9,0.2c1-0.3,1.7-0.6,1.7-0.6c2-4.2,1.3-6.3,1.3-6.3s-4.3,1.2-3.6,0.3c1.6-2.1-2.9-4.2-3.9-3.1
				C461.4,306.8,454,305.7,452.1,307.4z"/>
			<path class="st35" d="M451.6,308.3c2.9,1.1,8.9,3.5,10.2,3.6c4.9,0.3,8.4-1.4,10.7-2.4c-0.2,0.6-0.5,1.3-0.8,2
				c0,0-0.7,0.3-1.7,0.6c-0.4,0.1-0.5-0.3-0.9-0.2c-0.2,0.1-0.8,0.7-1.1,0.8c-1.5,0.4-3,0.8-3.9,0.7c-3.3-0.1-12.7-3.6-12.7-3.6
				S451.4,309,451.6,308.3z"/>
			<g>
				<path class="st35" d="M458.3,305.6c-0.1,0.2,0.3,0.4,0.8,0.5c1.1,0.2,2.1,0.5,3.2,1c0.5,0.2,1,0.3,1.1,0.1
					c0.1-0.2-0.3-0.5-0.8-0.7c-1-0.4-2.1-0.7-3.1-0.9C458.8,305.3,458.3,305.4,458.3,305.6z"/>
				<path class="st35" d="M460.4,304.8c-0.1,0.2,0.3,0.4,0.8,0.5c1,0.3,2.1,0.7,3.1,1.2c0.5,0.2,0.9,0.3,1,0.1
					c0.1-0.2-0.3-0.6-0.8-0.8c-1-0.5-2-0.9-3-1.2C460.9,304.6,460.4,304.7,460.4,304.8z"/>
				<path class="st35" d="M462.4,304.2c-0.1,0.2,0.3,0.4,0.8,0.6c1,0.4,2,0.9,3,1.4c0.5,0.3,0.9,0.4,1,0.2c0.1-0.2-0.3-0.6-0.7-0.9
					c-1-0.6-1.9-1-2.9-1.4C462.9,304,462.5,304,462.4,304.2z"/>
			</g>
		</g>
	</g>
</g>
</svg>
