<?xml version="1.0" encoding="utf-8"?>
<!-- Generator: Adobe Illustrator 23.0.2, SVG Export Plug-In . SVG Version: 6.00 Build 0)  -->
<svg version="1.1" id="Layer_1" xmlns="http://www.w3.org/2000/svg" xmlns:xlink="http://www.w3.org/1999/xlink" x="0px" y="0px"
	 viewBox="0 0 600 400" style="enable-background:new 0 0 600 400;" xml:space="preserve">
<style type="text/css">
	.st0{fill:#1A237E;}
	.st1{enable-background:new    ;}
	.st2{fill:#C2E7FF;}
	.st3{fill:#92BADF;}
	.st4{fill:#92BADE;}
	.st5{fill:#A5CDF1;}
	.st6{fill:#A0C9ED;}
	.st7{fill:#B5DDFF;}
	.st8{fill:#B3DBFF;}
	.st9{fill:#BFE5FF;}
	.st10{fill:#BAE0FF;}
	.st11{clip-path:url(#SVGID_2_);fill:#96BEE2;}
	.st12{clip-path:url(#SVGID_4_);enable-background:new    ;}
	.st13{fill:#96BEE2;}
	.st14{clip-path:url(#SVGID_6_);enable-background:new    ;}
	.st15{fill:#91B9DE;}
	.st16{fill:#C1E6FF;}
	.st17{clip-path:url(#SVGID_8_);enable-background:new    ;}
	.st18{fill:#BEE4FF;}
	.st19{fill:#9FC7EB;}
	.st20{clip-path:url(#SVGID_10_);enable-background:new    ;}
	.st21{fill:#A0C8EC;}
	.st22{fill:#A4CDF1;}
	.st23{fill:#9AC3E8;}
	.st24{clip-path:url(#SVGID_12_);enable-background:new    ;}
	.st25{fill:#9AC3E7;}
	.st26{fill:#B5DCFF;}
	.st27{fill:#B3DCFF;}
	.st28{clip-path:url(#SVGID_14_);enable-background:new    ;}
	.st29{fill:#AED7FB;}
	.st30{fill:#AFD7FB;}
	.st31{clip-path:url(#SVGID_16_);enable-background:new    ;}
	.st32{fill:#A9D2F6;}
	.st33{clip-path:url(#SVGID_18_);enable-background:new    ;}
	.st34{fill:#B4DCFF;}
	.st35{fill:#B6DDFF;}
	.st36{fill:#BDE3FF;}
	.st37{clip-path:url(#SVGID_20_);enable-background:new    ;}
	.st38{clip-path:url(#SVGID_22_);enable-background:new    ;}
	.st39{fill:#B7DDFF;}
	.st40{fill:#B0D8FC;}
	.st41{fill:#96BFE3;}
	.st42{fill:#B3E5FC;}
	.st43{fill:#99C1E6;}
	.st44{fill:#97C1E4;}
	.st45{fill:#A6D0F3;}
	.st46{fill:#BCE2FF;}
	.st47{clip-path:url(#SVGID_24_);enable-background:new    ;}
	.st48{fill:#9AC3E6;}
	.st49{fill:#9FC8EB;}
	.st50{fill:#A4CDF0;}
	.st51{fill:#A8D2F5;}
	.st52{fill:#AED7FA;}
	.st53{fill:#B2DCFF;}
	.st54{fill:#B4DBFF;}
	.st55{fill:#B5DEFF;}
	.st56{fill:#B9E0FF;}
	.st57{fill:#C4E9FF;}
	.st58{fill:#9CC3E8;}
	.st59{clip-path:url(#SVGID_26_);enable-background:new    ;}
	.st60{clip-path:url(#SVGID_28_);enable-background:new    ;}
	.st61{fill:#C1E8FF;}
	.st62{fill:#ACD5F8;}
	.st63{clip-path:url(#SVGID_30_);enable-background:new    ;}
	.st64{clip-path:url(#SVGID_32_);enable-background:new    ;}
	.st65{fill:#B0D8FD;}
	.st66{fill:#C2E9FF;}
	.st67{opacity:0.4;}
	.st68{fill:#96A9BD;}
	.st69{fill:#9AC1E2;}
	.st70{fill:#9FC4E5;}
	.st71{fill:#BBE0FF;}
	.st72{fill:#C7EAFF;}
	.st73{clip-path:url(#SVGID_34_);enable-background:new    ;}
	.st74{fill:#97BEDF;}
	.st75{fill:#9DC3E4;}
	.st76{fill:#A2C8E9;}
	.st77{fill:#A7CEEE;}
	.st78{fill:#ADD3F3;}
	.st79{fill:#B2D8F8;}
	.st80{fill:#B7DDFD;}
	.st81{fill:#BCE1FF;}
	.st82{clip-path:url(#SVGID_36_);enable-background:new    ;}
	.st83{fill:#92B9DA;}
	.st84{fill:#C5E8FF;}
	.st85{clip-path:url(#SVGID_38_);enable-background:new    ;}
	.st86{fill:#A9D0F0;}
	.st87{fill:#C3E6FF;}
	.st88{clip-path:url(#SVGID_40_);enable-background:new    ;}
	.st89{fill:#ACD2F2;}
	.st90{clip-path:url(#SVGID_42_);enable-background:new    ;}
	.st91{clip-path:url(#SVGID_44_);enable-background:new    ;}
	.st92{fill:#B8DEFE;}
	.st93{fill:#C0E4FF;}
	.st94{clip-path:url(#SVGID_46_);enable-background:new    ;}
	.st95{fill:#95BCDD;}
	.st96{fill:#BEE2FF;}
	.st97{fill:#98BFE0;}
	.st98{fill:#163F59;}
	.st99{fill:#DECCAF;}
	.st100{fill:#E9D6B8;}
	.st101{fill:#F99B1C;}
	.st102{fill:#0063CB;}
	.st103{fill:#03A9F4;}
	.st104{fill:#FFAA00;}
	.st105{fill:#0253A2;}
	.st106{fill:#E9DBC4;}
	.st107{fill:#194866;}
	.st108{fill:#FBC02D;}
	.st109{fill:#89D5DA;}
	.st110{fill:#E2C59C;}
	.st111{fill:#73A9FF;}
	.st112{fill:#7DC2F5;}
	.st113{fill:#387BFF;}
	.st114{fill:#8DCFFF;}
	.st115{fill:#D0DEE6;}
	.st116{fill:#B6C2C9;}
	.st117{fill:#001F46;}
	.st118{fill:#FEC00F;}
	.st119{fill:#E5E8EC;}
	.st120{fill:#F4DA80;}
	.st121{fill:#FFF176;}
	.st122{fill:#F44336;}
	.st123{fill:#E53935;}
	.st124{fill:#2162A3;}
	.st125{fill:#081832;}
	.st126{fill:#E4EEF3;}
</style>
<path class="st0" d="M15,178c77-238,227.4-59.4,375-67c136-7,165,185,136,231S-62,416,15,178z"/>
<g>
	<g class="st1">
		<g>
			<polygon class="st2" points="303.1,100.2 313.9,121.6 313.2,122 302.4,100.6 			"/>
		</g>
		<g>
			<polygon class="st3" points="336.8,76.7 347.5,98.1 350.2,103.6 339.4,82.2 			"/>
		</g>
		<g>
			<polygon class="st4" points="284.8,112 295.6,133.3 290.5,129.2 279.7,107.8 			"/>
		</g>
		<g>
			<polygon class="st5" points="378,62.8 388.8,84.2 386.6,91.7 375.8,70.3 			"/>
		</g>
		<g>
			<polygon class="st6" points="257.2,135 267.9,156.3 258.7,155.1 247.9,133.7 			"/>
		</g>
		<g>
			<polygon class="st7" points="414.7,57.4 425.5,78.7 418.7,87.4 407.9,66 			"/>
		</g>
		<g>
			<polygon class="st8" points="239.5,157.7 250.3,179.1 238,180.9 227.3,159.5 			"/>
		</g>
		<g>
			<polygon class="st9" points="442.4,61 453.2,82.4 442.6,91.1 431.8,69.8 			"/>
		</g>
		<g>
			<polygon class="st10" points="234,177.5 244.8,198.8 231,203.5 220.2,182.1 			"/>
		</g>
		<g class="st1">
			<defs>
				<path id="SVGID_1_" class="st1" d="M272.6,193.7l-10.8-21.4c-5-9.8,2.1-24.6,17.5-39.6c9.8-9.5,23-19.2,38.6-27.7
					c42.4-23.2,86.7-29.5,99-14.1l10.8,21.4c-12.3-15.3-56.6-9-98.9,14.1c-15.6,8.5-28.8,18.2-38.6,27.7
					C274.7,169.2,267.7,183.9,272.6,193.7z"/>
			</defs>
			<clipPath id="SVGID_2_">
				<use xlink:href="#SVGID_1_"  style="overflow:visible;"/>
			</clipPath>
			<path class="st11" d="M400.9,83.2c-2.7-0.4-5.6-0.6-8.7-0.6c-2.6,0-5.3,0.1-8.2,0.4c-2.6,0.2-5.3,0.6-8.1,1.1
				c-2.7,0.5-5.5,1-8.4,1.7c-3,0.7-6,1.5-9.1,2.4c-3.4,1-6.8,2.1-10.2,3.3c-4.3,1.5-8.7,3.3-13.1,5.2c-5.7,2.5-11.5,5.3-17.2,8.5
				c-10.3,5.6-19.5,11.7-27.4,17.9c-3.4,2.7-6.6,5.4-9.5,8.2c-0.6,0.5-1.2,1.1-1.7,1.6c-1.7,1.7-3.3,3.3-4.8,4.9
				c-1.8,2-3.4,3.9-4.9,5.9c-1.4,1.9-2.7,3.7-3.8,5.6c-1.1,1.9-2.1,3.7-2.9,5.4c-0.9,1.9-1.5,3.8-2,5.6c-0.5,2.1-0.8,4.2-0.7,6.1
				c0.1,2.2,0.6,4.2,1.5,6.1l10.8,21.4c-0.9-1.8-1.4-3.9-1.5-6.1c-0.1-1.9,0.1-4,0.7-6.1c0.4-1.8,1.1-3.6,2-5.6
				c0.8-1.8,1.8-3.6,2.9-5.4c1.1-1.8,2.4-3.7,3.8-5.6c1.5-1.9,3.1-3.9,4.9-5.9c1.5-1.6,3.1-3.3,4.8-4.9c0.6-0.5,1.1-1.1,1.7-1.6
				c2.9-2.7,6.1-5.5,9.5-8.2c7.9-6.2,17.1-12.3,27.4-17.9c5.7-3.1,11.5-6,17.2-8.5c4.4-1.9,8.8-3.7,13.1-5.2
				c3.5-1.2,6.9-2.4,10.2-3.3c3.1-0.9,6.1-1.7,9.1-2.4c2.9-0.7,5.7-1.2,8.4-1.7c2.8-0.5,5.5-0.8,8.1-1.1c2.8-0.3,5.6-0.4,8.2-0.4
				c3.1,0,6,0.2,8.7,0.6c7.2,1.1,12.7,3.7,16,7.7L416.9,91C413.6,86.9,408.1,84.3,400.9,83.2z"/>
		</g>
		<g class="st1">
			<defs>
				<path id="SVGID_3_" class="st1" d="M418.5,93.5c3.6,7.1,7.2,14.3,10.8,21.4c-0.4-0.9-1-1.7-1.6-2.5L416.9,91
					C417.5,91.8,418.1,92.6,418.5,93.5z"/>
			</defs>
			<clipPath id="SVGID_4_">
				<use xlink:href="#SVGID_3_"  style="overflow:visible;"/>
			</clipPath>
			<g class="st12">
				<path class="st13" d="M418.5,93.5l10.8,21.4c-0.4-0.9-1-1.7-1.6-2.5L416.9,91C417.5,91.8,418.1,92.6,418.5,93.5L418.5,93.5z"/>
			</g>
		</g>
		<g>
			<polygon class="st2" points="457.7,73.4 468.5,94.8 455.4,102.5 444.7,81.1 			"/>
		</g>
		<g class="st1">
			<defs>
				<path id="SVGID_5_" class="st1" d="M444.7,81.1l10.8,21.4c0.9,2.1,1.5,4.6,1.7,7.3l-10.8-21.4C446.2,85.7,445.6,83.2,444.7,81.1
					z"/>
			</defs>
			<clipPath id="SVGID_6_">
				<use xlink:href="#SVGID_5_"  style="overflow:visible;"/>
			</clipPath>
			<g class="st14">
				<path class="st13" d="M444.7,81.1l10.8,21.4c0.9,2.1,1.5,4.6,1.7,7.3l-10.8-21.4C446.2,85.7,445.6,83.2,444.7,81.1L444.7,81.1z"
					/>
			</g>
		</g>
		<g>
			<polygon class="st15" points="227.6,198.8 238.4,220.1 233.4,213.8 222.6,192.5 			"/>
		</g>
		<g>
			
				<rect x="232.2" y="194" transform="matrix(0.893 -0.4501 0.4501 0.893 -67.0386 129.9988)" class="st16" width="15.4" height="23.9"/>
		</g>
		<g class="st1">
			<defs>
				<path id="SVGID_7_" class="st1" d="M248.6,196.1l10.8,21.4c-2.7-1.1-5.1-2.6-7.2-4.3l-10.8-21.4
					C243.4,193.5,245.9,195,248.6,196.1z"/>
			</defs>
			<clipPath id="SVGID_8_">
				<use xlink:href="#SVGID_7_"  style="overflow:visible;"/>
			</clipPath>
			<g class="st17">
				<path class="st13" d="M248.6,196.1l10.8,21.4c-2.7-1.1-5.1-2.6-7.2-4.3l-10.8-21.4C243.4,193.5,245.9,195,248.6,196.1
					L248.6,196.1z"/>
			</g>
		</g>
		<g>
			<polygon class="st18" points="458.9,92.9 469.7,114.3 455.7,120.1 444.9,98.8 			"/>
		</g>
		<g>
			<polygon class="st19" points="460.1,83.8 470.9,105.2 469.7,114.3 458.9,92.9 			"/>
		</g>
		<g class="st1">
			<defs>
				<path id="SVGID_9_" class="st1" d="M444.9,98.8l10.8,21.4c-0.9,2.9-2.3,6.1-4.1,9.4l-10.8-21.4
					C442.6,104.9,444,101.7,444.9,98.8z"/>
			</defs>
			<clipPath id="SVGID_10_">
				<use xlink:href="#SVGID_9_"  style="overflow:visible;"/>
			</clipPath>
			<g class="st20">
				<path class="st21" d="M444.9,98.8l10.8,21.4c-0.5,1.6-1.2,3.3-2,5.1L443,103.9C443.8,102.1,444.4,100.4,444.9,98.8L444.9,98.8z"
					/>
				<path class="st22" d="M443,103.9l10.8,21.4c-0.6,1.4-1.3,2.8-2.1,4.3l-10.8-21.4C441.6,106.7,442.3,105.3,443,103.9L443,103.9z"
					/>
			</g>
		</g>
		<g>
			<polygon class="st16" points="260.6,199.1 271.3,220.5 259.4,228.9 248.6,207.5 			"/>
		</g>
		<g>
			<polygon class="st23" points="248.6,207.5 259.4,228.9 248.7,226.2 238,204.8 			"/>
		</g>
		<g class="st1">
			<defs>
				<path id="SVGID_11_" class="st1" d="M272.5,199.8l10.8,21.4c-3.9,0-8.1-0.2-11.9-0.7l-10.8-21.4
					C264.4,199.7,268.5,199.9,272.5,199.8z"/>
			</defs>
			<clipPath id="SVGID_12_">
				<use xlink:href="#SVGID_11_"  style="overflow:visible;"/>
			</clipPath>
			<g class="st24">
				<path class="st21" d="M272.5,199.8l10.8,21.4c-0.3,0-0.7,0-1,0l-10.8-21.4C271.8,199.8,272.1,199.8,272.5,199.8L272.5,199.8z"/>
				<path class="st25" d="M271.4,199.8l10.8,21.4c-3.6,0-7.4-0.2-10.9-0.7l-10.8-21.4C264,199.6,267.8,199.8,271.4,199.8
					L271.4,199.8z"/>
			</g>
		</g>
		<g>
			<polygon class="st26" points="445.8,117.3 456.6,138.7 443.3,141.9 432.5,120.5 			"/>
		</g>
		<g>
			<polygon class="st27" points="453.1,106.4 463.9,127.8 456.6,138.7 445.8,117.3 			"/>
		</g>
		<g class="st1">
			<defs>
				<path id="SVGID_13_" class="st1" d="M432.5,120.5l10.8,21.4c-2.5,3.2-5.8,6.8-9.4,10.4l-10.8-21.4
					C426.8,127.3,430,123.7,432.5,120.5z"/>
			</defs>
			<clipPath id="SVGID_14_">
				<use xlink:href="#SVGID_13_"  style="overflow:visible;"/>
			</clipPath>
			<g class="st28">
				<path class="st29" d="M432.5,120.5l10.8,21.4c-1.4,1.8-3.1,3.7-4.9,5.6l-10.8-21.4C429.5,124.2,431.1,122.3,432.5,120.5
					L432.5,120.5z"/>
				<path class="st8" d="M427.7,126.1l10.8,21.4c-1.4,1.6-2.9,3.2-4.5,4.8l-10.8-21.4C424.8,129.3,426.3,127.7,427.7,126.1
					L427.7,126.1z"/>
			</g>
		</g>
		<g>
			<polygon class="st10" points="289.4,198.4 300.2,219.8 291.5,228.6 280.7,207.2 			"/>
		</g>
		<g>
			<polygon class="st30" points="280.7,207.2 291.5,228.6 276.4,229.9 265.7,208.5 			"/>
		</g>
		<g class="st1">
			<defs>
				<path id="SVGID_15_" class="st1" d="M304.6,195.5l10.8,21.4c-4.8,1.1-10.1,2.1-15.2,2.9l-10.8-21.4
					C294.5,197.7,299.8,196.6,304.6,195.5z"/>
			</defs>
			<clipPath id="SVGID_16_">
				<use xlink:href="#SVGID_15_"  style="overflow:visible;"/>
			</clipPath>
			<g class="st31">
				<path class="st29" d="M304.6,195.5l10.8,21.4c0,0-0.1,0-0.1,0L304.6,195.5C304.5,195.5,304.5,195.5,304.6,195.5L304.6,195.5z"/>
				<path class="st32" d="M304.5,195.5l10.8,21.4c-3.8,0.9-7.8,1.7-11.9,2.4l-10.8-21.4C296.6,197.2,300.7,196.4,304.5,195.5
					L304.5,195.5z"/>
				<path class="st22" d="M292.6,197.9l10.8,21.4c-1.1,0.2-2.1,0.3-3.2,0.5l-10.8-21.4C290.5,198.3,291.5,198.1,292.6,197.9
					L292.6,197.9z"/>
			</g>
		</g>
		<g class="st1">
			<defs>
				<path id="SVGID_17_" class="st1" d="M409,143.7l10.8,21.4c-3.9,3.2-8.6,6.7-13.5,10.2l-10.8-21.4
					C400.5,150.4,405.1,146.9,409,143.7z"/>
			</defs>
			<clipPath id="SVGID_18_">
				<use xlink:href="#SVGID_17_"  style="overflow:visible;"/>
			</clipPath>
			<g class="st33">
				<path class="st34" d="M409,143.7l10.8,21.4c-0.8,0.6-1.6,1.3-2.4,2l-10.8-21.4C407.4,145,408.3,144.4,409,143.7L409,143.7z"/>
				<path class="st35" d="M406.6,145.7l10.8,21.4c-3.4,2.6-7.1,5.5-11.1,8.2l-10.8-21.4C399.5,151.1,403.2,148.3,406.6,145.7
					L406.6,145.7z"/>
			</g>
		</g>
		<g>
			<polygon class="st36" points="432.4,132.2 443.2,153.6 430.7,164.9 419.9,143.6 			"/>
		</g>
		<g>
			<polygon class="st32" points="419.9,143.6 430.7,164.9 419.8,165.1 409,143.7 			"/>
		</g>
		<g class="st1">
			<defs>
				<path id="SVGID_19_" class="st1" d="M340.9,183.7l10.8,21.4c-5.3,2.2-11,4.3-16.6,6.2l-10.8-21.4
					C330,187.9,335.7,185.8,340.9,183.7z"/>
			</defs>
			<clipPath id="SVGID_20_">
				<use xlink:href="#SVGID_19_"  style="overflow:visible;"/>
			</clipPath>
			<g class="st37">
				<path class="st34" d="M340.9,183.7l10.8,21.4c-3.6,1.5-7.5,3-11.4,4.4L329.6,188C333.4,186.6,337.3,185.1,340.9,183.7
					L340.9,183.7z"/>
				<path class="st8" d="M329.6,188l10.8,21.4c-1.7,0.6-3.5,1.2-5.2,1.8l-10.8-21.4C326.1,189.2,327.8,188.6,329.6,188L329.6,188z"
					/>
			</g>
		</g>
		<g class="st1">
			<defs>
				<path id="SVGID_21_" class="st1" d="M377.9,165.2l10.8,21.4c-2.7,1.6-5.4,3.1-8.2,4.7c-2.8,1.5-5.7,3-8.5,4.5l-10.8-21.4
					c2.8-1.4,5.7-2.9,8.5-4.4C372.5,168.4,375.2,166.8,377.9,165.2z"/>
			</defs>
			<clipPath id="SVGID_22_">
				<use xlink:href="#SVGID_21_"  style="overflow:visible;"/>
			</clipPath>
			<g class="st38">
				<path class="st35" d="M377.9,165.2l10.8,21.4c-2.7,1.6-5.4,3.1-8.2,4.7c-2.8,1.5-5.7,3-8.5,4.5l-10.8-21.4
					c2.8-1.4,5.7-2.9,8.5-4.4C372.5,168.4,375.2,166.8,377.9,165.2L377.9,165.2z"/>
			</g>
		</g>
		<g>
			<polygon class="st39" points="319.9,198 330.7,219.4 313.1,224.4 302.3,203.1 			"/>
		</g>
		<g>
			<polygon class="st40" points="324.4,189.8 335.1,211.2 330.7,219.4 319.9,198 			"/>
		</g>
		<g>
			<polygon class="st41" points="384.4,168.5 395.2,189.9 388,187 377.2,165.7 			"/>
		</g>
		<g>
			<polygon class="st2" points="400.6,158.1 411.4,179.4 395.2,189.9 384.4,168.5 			"/>
		</g>
		<g>
			<path class="st42" d="M407.9,66c3.9,0,8.1,0.2,11.9,0.7l11.9-8.4l10.7,2.7l-10.6,8.7c2.7,1.1,5.1,2.5,7.2,4.3l13.7-6.9l5,6.3
				l-13.1,7.7c0.9,2.1,1.5,4.6,1.7,7.3l13.8-4.6l-1.2,9.2l-14,5.8c-0.9,2.9-2.3,6.1-4.1,9.4l12.3-1.8l-7.3,10.9l-13.2,3.2
				c-2.5,3.2-5.8,6.8-9.4,10.4l9.3,1.3l-12.5,11.4l-10.9,0.2c-3.9,3.2-8.6,6.7-13.5,10.2l5.1,4.2l-16.2,10.4l-7.2-2.8l0.7-0.4
				c-2.7,1.6-5.4,3.1-8.2,4.7c-2.8,1.5-5.7,3-8.5,4.4l0.3,6.6l-18,8.3l-2.6-5.5c-5.3,2.2-11,4.3-16.6,6.2l-4.5,8.2l-17.6,5.1
				l2.2-7.6c-4.8,1.1-10.1,2.1-15.2,2.9l-8.7,8.8l-15,1.3l6.8-8.7c-3.9,0-8.1-0.2-11.9-0.7l-11.9,8.4l-10.7-2.7l10.6-8.7
				c-2.7-1.1-5.1-2.6-7.2-4.3l-13.7,6.9l-5-6.3l13.1-7.7c-0.9-2.1-1.5-4.6-1.7-7.3l-13.8,4.6l1.2-9.2l14-5.8
				c0.9-2.9,2.3-6.1,4.1-9.4l-12.3,1.8l7.3-10.9l13.2-3.2c2.6-3.2,5.8-6.8,9.4-10.4l-9.2-1.3l12.5-11.4l10.9-0.2
				c3.9-3.2,8.6-6.7,13.5-10.2l-5.1-4.2l16.2-10.4l7.2,2.8l-0.7,0.4c2.7-1.6,5.4-3.1,8.2-4.7c2.8-1.5,5.7-3,8.5-4.4l-0.3-6.6l18-8.3
				l2.6,5.5c5.3-2.2,11-4.3,16.6-6.2l4.5-8.2l17.5-5.1l-2.2,7.6c4.8-1.1,10.1-2.2,15.2-2.9l8.7-8.8l15-1.3L407.9,66z M416.9,91
				c-12.3-15.4-56.6-9-99,14.1c-15.6,8.5-28.8,18.2-38.6,27.7c-16.8,16.3-23.7,32.4-15.9,42.1c12.3,15.4,56.6,9,99-14.1
				c15.6-8.5,28.8-18.2,38.6-27.7C417.8,116.7,424.7,100.7,416.9,91L416.9,91z"/>
		</g>
		<g>
			<polygon class="st9" points="361.6,180.9 372.3,202.3 354.3,210.6 343.6,189.2 			"/>
		</g>
		<g>
			<polygon class="st43" points="361.2,174.3 372,195.7 372.3,202.3 361.6,180.9 			"/>
		</g>
	</g>
</g>
<g>
	<g class="st1">
		<g>
			<polygon class="st44" points="470.3,122 476.4,137.8 478.4,145.4 472.3,129.5 			"/>
		</g>
		<g>
			<polygon class="st45" points="415.4,158.1 421.5,173.9 409.8,171.6 403.7,155.8 			"/>
		</g>
		<g>
			<polygon class="st46" points="517.8,119.4 523.9,135.2 512.4,145.2 506.3,129.4 			"/>
		</g>
		<g class="st1">
			<defs>
				<path id="SVGID_23_" class="st1" d="M482.7,148.6l6.1,15.8c-1.7-4.3-11.1-5-22.3-1.4c-6.1,2-11.5,4.9-15.4,7.9
					c-3.9,3.1-6.2,6.3-6.1,9c0,0.4,0.1,0.8,0.3,1.2l-6.1-15.8c-0.1-0.4-0.2-0.8-0.3-1.2c-0.1-2.7,2.2-5.9,6.1-9
					c3.9-3.1,9.3-6,15.4-7.9C471.6,143.5,481,144.2,482.7,148.6z"/>
			</defs>
			<clipPath id="SVGID_24_">
				<use xlink:href="#SVGID_23_"  style="overflow:visible;"/>
			</clipPath>
			<g class="st47">
				<path class="st48" d="M482.7,148.6l6.1,15.8c-0.6-1.6-2.2-2.6-4.5-3.2l-6.1-15.8C480.5,145.9,482.1,147,482.7,148.6L482.7,148.6
					z"/>
				<path class="st49" d="M478.1,145.3l6.1,15.8c-0.7-0.2-1.5-0.3-2.3-0.4l-6.1-15.8C476.7,145,477.4,145.1,478.1,145.3L478.1,145.3
					z"/>
				<path class="st50" d="M475.8,144.9l6.1,15.8c-0.7-0.1-1.4-0.1-2.2-0.1l-6.1-15.8C474.4,144.8,475.1,144.9,475.8,144.9
					L475.8,144.9z"/>
				<path class="st51" d="M473.6,144.8l6.1,15.8c-0.7,0-1.4,0-2.2,0.1l-6.1-15.8C472.2,144.8,472.9,144.8,473.6,144.8L473.6,144.8z"
					/>
				<path class="st52" d="M471.4,144.9l6.1,15.8c-0.7,0.1-1.5,0.1-2.3,0.2l-6.1-15.8C469.9,145,470.7,144.9,471.4,144.9L471.4,144.9
					z"/>
				<path class="st53" d="M469.2,145.1l6.1,15.8c-0.8,0.1-1.6,0.2-2.5,0.4l-6.1-15.8C467.5,145.4,468.4,145.2,469.2,145.1
					L469.2,145.1z"/>
				<path class="st54" d="M466.7,145.5l6.1,15.8c-0.9,0.2-1.9,0.4-2.8,0.6l-6.1-15.8C464.8,145.9,465.8,145.7,466.7,145.5
					L466.7,145.5z"/>
				<path class="st55" d="M463.9,146.2L470,162c-1.1,0.3-2.3,0.6-3.5,1c-0.1,0-0.2,0-0.2,0.1l-6.1-15.8c0.1,0,0.2-0.1,0.2-0.1
					C461.6,146.8,462.7,146.5,463.9,146.2L463.9,146.2z"/>
				<path class="st56" d="M460.1,147.3l6.1,15.8c-4.5,1.5-8.6,3.5-12.1,5.6l-6.1-15.8C451.5,150.7,455.6,148.8,460.1,147.3
					L460.1,147.3z"/>
				<path class="st55" d="M448.1,152.9l6.1,15.8c-1,0.6-1.9,1.3-2.8,2l-6.1-15.8C446.1,154.2,447.1,153.5,448.1,152.9L448.1,152.9z"
					/>
				<path class="st54" d="M445.3,154.9l6.1,15.8c-0.1,0.1-0.2,0.2-0.3,0.2c-0.6,0.5-1.1,0.9-1.6,1.4l-6.1-15.8
					c0.5-0.5,1-0.9,1.6-1.4C445,155,445.2,155,445.3,154.9L445.3,154.9z"/>
				<path class="st53" d="M443.3,156.5l6.1,15.8c-0.5,0.5-1,1-1.5,1.4l-6.1-15.8C442.3,157.4,442.8,157,443.3,156.5L443.3,156.5z"/>
				<path class="st52" d="M441.9,157.9l6.1,15.8c-0.4,0.5-0.8,0.9-1.1,1.4l-6.1-15.8C441.1,158.8,441.5,158.4,441.9,157.9
					L441.9,157.9z"/>
				<path class="st51" d="M440.7,159.3l6.1,15.8c-0.3,0.5-0.6,0.9-0.9,1.4l-6.1-15.8C440.1,160.2,440.4,159.8,440.7,159.3
					L440.7,159.3z"/>
				<path class="st50" d="M439.8,160.7l6.1,15.8c-0.3,0.5-0.5,1-0.6,1.4l-6.1-15.8C439.4,161.6,439.6,161.1,439.8,160.7L439.8,160.7
					z"/>
				<path class="st49" d="M439.2,162.1l6.1,15.8c-0.2,0.6-0.3,1.1-0.3,1.6l-6.1-15.8C438.9,163.2,439,162.6,439.2,162.1L439.2,162.1
					z"/>
				<path class="st48" d="M438.9,163.7l6.1,15.8c0,0.1,0,0.3,0,0.4c0,0.4,0.1,0.8,0.3,1.2l-6.1-15.8c-0.1-0.4-0.2-0.8-0.3-1.2
					C438.9,164,438.9,163.8,438.9,163.7L438.9,163.7z"/>
			</g>
		</g>
		<g>
			<polygon class="st16" points="408.1,178.7 414.2,194.6 396.5,199.7 390.4,183.8 			"/>
		</g>
		<g>
			<polygon class="st57" points="531.9,138.8 538,154.6 519.8,161.2 513.8,145.4 			"/>
		</g>
		<g>
			<polygon class="st58" points="531.4,130 537.5,145.9 538,154.6 531.9,138.8 			"/>
		</g>
		<g class="st1">
			<defs>
				<path id="SVGID_25_" class="st1" d="M415.5,184.4l6.1,15.8c-3.5-1.3-6-3.2-7.4-5.7l-6.1-15.8C409.5,181.2,412,183.1,415.5,184.4
					z"/>
			</defs>
			<clipPath id="SVGID_26_">
				<use xlink:href="#SVGID_25_"  style="overflow:visible;"/>
			</clipPath>
			<g class="st59">
				<path class="st48" d="M415.5,184.4l6.1,15.8c-3.5-1.3-6-3.2-7.4-5.7l-6.1-15.8C409.5,181.2,412,183.1,415.5,184.4L415.5,184.4z"
					/>
			</g>
		</g>
		<g class="st1">
			<defs>
				<path id="SVGID_27_" class="st1" d="M513.8,145.4l6.1,15.8c-1.4,3.3-3.9,6.9-7.4,10.4l-6.1-15.8
					C509.9,152.3,512.4,148.8,513.8,145.4z"/>
			</defs>
			<clipPath id="SVGID_28_">
				<use xlink:href="#SVGID_27_"  style="overflow:visible;"/>
			</clipPath>
			<g class="st60">
				<path class="st50" d="M513.8,145.4l6.1,15.8c-0.3,0.8-0.7,1.6-1.2,2.4l-6.1-15.8C513,147,513.4,146.2,513.8,145.4L513.8,145.4z"
					/>
				<path class="st51" d="M512.6,147.8l6.1,15.8c-0.6,1.1-1.3,2.2-2.2,3.3l-6.1-15.8C511.2,150.1,512,148.9,512.6,147.8L512.6,147.8
					z"/>
				<path class="st52" d="M510.4,151.2l6.1,15.8c-0.8,1.1-1.8,2.3-2.8,3.4l-6.1-15.8C508.6,153.4,509.6,152.3,510.4,151.2
					L510.4,151.2z"/>
				<path class="st53" d="M507.6,154.6l6.1,15.8c-0.4,0.4-0.8,0.8-1.2,1.2l-6.1-15.8C506.8,155.4,507.2,155,507.6,154.6L507.6,154.6
					z"/>
			</g>
		</g>
		<g>
			<polygon class="st61" points="431.7,186.6 437.7,202.4 424.5,211.9 418.4,196.1 			"/>
		</g>
		<g>
			<polygon class="st62" points="418.4,196.1 424.5,211.9 410.1,210.3 404,194.5 			"/>
		</g>
		<g class="st1">
			<defs>
				<path id="SVGID_29_" class="st1" d="M449.5,184.3l6.1,15.8c-6.5,1.4-12.5,2.2-17.9,2.3l-6.1-15.8
					C437,186.5,443.1,185.7,449.5,184.3z"/>
			</defs>
			<clipPath id="SVGID_30_">
				<use xlink:href="#SVGID_29_"  style="overflow:visible;"/>
			</clipPath>
			<g class="st63">
				<path class="st54" d="M449.5,184.3l6.1,15.8c-1,0.2-1.9,0.4-2.8,0.6l-6.1-15.8C447.6,184.7,448.6,184.5,449.5,184.3L449.5,184.3
					z"/>
				<path class="st53" d="M446.7,184.9l6.1,15.8c-2.1,0.4-4.1,0.7-6.1,1l-6.1-15.8C442.6,185.6,444.6,185.3,446.7,184.9L446.7,184.9
					z"/>
				<path class="st52" d="M440.6,185.9l6.1,15.8c-1.9,0.3-3.8,0.4-5.6,0.6l-6.1-15.8C436.9,186.4,438.7,186.2,440.6,185.9
					L440.6,185.9z"/>
				<path class="st51" d="M435.1,186.5l6.1,15.8c-1.2,0.1-2.3,0.1-3.4,0.2l-6.1-15.8C432.8,186.6,433.9,186.6,435.1,186.5
					L435.1,186.5z"/>
			</g>
		</g>
		<g class="st1">
			<defs>
				<path id="SVGID_31_" class="st1" d="M490.2,168.2l6.1,15.8c-5.4,3.3-11.4,6.3-17.9,9l-6.1-15.8
					C478.9,174.5,484.9,171.4,490.2,168.2z"/>
			</defs>
			<clipPath id="SVGID_32_">
				<use xlink:href="#SVGID_31_"  style="overflow:visible;"/>
			</clipPath>
			<g class="st64">
				<path class="st56" d="M490.2,168.2l6.1,15.8c-5.4,3.3-11.4,6.3-17.9,9l-6.1-15.8C478.9,174.5,484.9,171.4,490.2,168.2
					L490.2,168.2z"/>
			</g>
		</g>
		<g>
			<polygon class="st9" points="518.2,158.1 524.2,173.9 510.5,184.7 504.5,168.8 			"/>
		</g>
		<g>
			<polygon class="st65" points="504.5,168.8 510.5,184.7 496.3,184 490.2,168.2 			"/>
		</g>
		<g>
			<polygon class="st66" points="471.4,185.4 477.4,201.2 457.6,207.7 451.5,191.9 			"/>
		</g>
		<g>
			<polygon class="st21" points="472.4,177.1 478.5,192.9 477.4,201.2 471.4,185.4 			"/>
		</g>
		<g>
			<path class="st42" d="M517.8,119.4l-11.4,10c3.5,1.3,6,3.2,7.4,5.7l17.7-5.1l0.5,8.8l-18.2,6.6c-1.4,3.3-3.9,6.9-7.4,10.4
				l11.8,2.3l-13.7,10.8l-14.2-0.7c-5.4,3.3-11.4,6.3-17.9,9l-1,8.3l-19.9,6.5l-2-7.6c-6.5,1.4-12.5,2.2-17.9,2.3l-13.2,9.5
				l-14.4-1.6l11.5-10c-3.5-1.3-6-3.2-7.4-5.7l-17.7,5.1l-0.5-8.8l18.1-6.6c1.4-3.3,3.9-6.9,7.4-10.4l-11.8-2.3l13.7-10.8l14.2,0.7
				c5.4-3.2,11.4-6.3,17.9-8.9l1-8.3l19.9-6.5l2,7.6c6.4-1.4,12.5-2.2,17.9-2.3l13.2-9.5L517.8,119.4z M482.9,149.8
				c-0.3-5.4-10.4-6.5-22.6-2.6c-6.1,2-11.5,4.9-15.4,7.9c-3.9,3.1-6.2,6.3-6.1,9c0.3,5.4,10.4,6.5,22.6,2.6
				c6.1-2,11.5-4.9,15.4-7.9C480.8,155.7,483.1,152.5,482.9,149.8L482.9,149.8z"/>
		</g>
	</g>
</g>
<g class="st67">
	<path class="st68" d="M336.4,273.9c49.5-3.4,89.4,11.4,90.9,33.8c1.5,22.3-36,42.4-85.5,45.8c-49.5,3.4-89.4-11.4-90.9-33.8
		C249.4,297.4,287,277.3,336.4,273.9z"/>
</g>
<g>
	<g class="st1">
		<g>
			<polygon class="st69" points="253.2,234.8 258.9,250.9 264.8,257.3 259.1,241.3 			"/>
		</g>
		<g>
			<polygon class="st70" points="393.3,203 399,219 405.4,208.5 399.6,192.4 			"/>
		</g>
		<g>
			<polygon class="st71" points="215.1,267.5 220.8,283.5 234,284.9 228.3,268.9 			"/>
		</g>
		<g>
			<polygon class="st10" points="422.1,213.4 427.9,229.5 442.2,219.6 436.5,203.6 			"/>
		</g>
		<g>
			<polygon class="st72" points="206.5,297 212.2,313 227.8,309.9 222,293.9 			"/>
		</g>
		<g class="st1">
			<defs>
				<path id="SVGID_33_" class="st1" d="M284.9,271.5c1.9,5.3,3.8,10.7,5.7,16c-1.2-3.4,0.3-7.9,5-12.8
					c11.1-11.7,35.6-21.7,54.7-22.5c11-0.4,17.8,2.3,19.5,7l-5.7-16c-1.7-4.7-8.5-7.4-19.5-7c-19.1,0.7-43.6,10.8-54.7,22.5
					C285.2,263.6,283.7,268.1,284.9,271.5z"/>
			</defs>
			<clipPath id="SVGID_34_">
				<use xlink:href="#SVGID_33_"  style="overflow:visible;"/>
			</clipPath>
			<g class="st73">
				<path class="st74" d="M284.9,271.5l5.7,16c-0.9-2.6-0.2-5.9,2.3-9.5l-5.7-16C284.7,265.6,284,268.8,284.9,271.5L284.9,271.5z"/>
				<path class="st75" d="M287.2,262l5.7,16c0.7-1,1.6-2.1,2.7-3.2l-5.7-16C288.8,259.9,287.9,260.9,287.2,262L287.2,262z"/>
				<path class="st76" d="M289.9,258.7l5.7,16c0,0,0,0,0.1-0.1c0.8-0.9,1.8-1.8,2.8-2.6l-5.7-16
					C291.7,256.9,290.8,257.8,289.9,258.7C289.9,258.7,289.9,258.7,289.9,258.7L289.9,258.7z"/>
				<path class="st77" d="M292.7,256l5.7,16c0.9-0.8,2-1.6,3-2.5l-5.7-16C294.7,254.4,293.6,255.2,292.7,256L292.7,256z"/>
				<path class="st78" d="M295.7,253.6l5.7,16c1.1-0.8,2.2-1.6,3.3-2.3l-5.7-16C297.9,252,296.8,252.8,295.7,253.6L295.7,253.6z"/>
				<path class="st79" d="M299.1,251.3l5.7,16c1.2-0.8,2.5-1.6,3.8-2.3l-5.7-16C301.5,249.7,300.3,250.5,299.1,251.3L299.1,251.3z"
					/>
				<path class="st80" d="M302.8,248.9l5.7,16c1.5-0.9,3-1.7,4.6-2.5l-5.7-16C305.8,247.2,304.3,248.1,302.8,248.9L302.8,248.9z"/>
				<path class="st71" d="M307.4,246.5l5.7,16c2-1,4.1-2,6.2-2.8l-5.7-16C311.5,244.5,309.4,245.5,307.4,246.5L307.4,246.5z"/>
				<path class="st81" d="M313.6,243.6l5.7,16c7.7-3.2,15.9-5.6,23.8-6.7l-5.7-16C329.5,238,321.2,240.4,313.6,243.6L313.6,243.6z"
					/>
				<path class="st71" d="M337.4,236.9l5.7,16c2.1-0.3,4.1-0.5,6.1-0.6l-5.7-16C341.4,236.4,339.4,236.6,337.4,236.9L337.4,236.9z"
					/>
				<path class="st80" d="M343.4,236.3l5.7,16c0.4,0,0.8,0,1.2-0.1c1.2,0,2.3-0.1,3.3,0l-5.7-16c-1.1,0-2.2,0-3.3,0
					C344.2,236.2,343.8,236.2,343.4,236.3L343.4,236.3z"/>
				<path class="st79" d="M347.9,236.2l5.7,16c1.3,0,2.5,0.1,3.7,0.2l-5.7-16C350.4,236.3,349.2,236.2,347.9,236.2L347.9,236.2z"/>
				<path class="st78" d="M351.6,236.4l5.7,16c1.1,0.1,2.2,0.3,3.2,0.5l-5.7-16C353.8,236.7,352.7,236.5,351.6,236.4L351.6,236.4z"
					/>
				<path class="st77" d="M354.7,236.9l5.7,16c1,0.2,2,0.5,2.8,0.8l-5.7-16C356.7,237.4,355.8,237.1,354.7,236.9L354.7,236.9z"/>
				<path class="st76" d="M357.6,237.7l5.7,16c1,0.3,1.8,0.7,2.6,1.2l-5.7-16C359.4,238.4,358.5,238,357.6,237.7L357.6,237.7z"/>
				<path class="st75" d="M360.2,238.9l5.7,16c0.9,0.5,1.7,1.1,2.4,1.8l-5.7-16C361.9,240,361.1,239.4,360.2,238.9L360.2,238.9z"/>
				<path class="st74" d="M362.5,240.7l5.7,16c0.7,0.8,1.3,1.6,1.6,2.5l-5.7-16C363.8,242.3,363.3,241.4,362.5,240.7L362.5,240.7z"
					/>
			</g>
		</g>
		<g class="st1">
			<defs>
				<path id="SVGID_35_" class="st1" d="M222,293.9l5.7,16c0.7,2.1,1.9,4,3.4,5.7l-5.7-16C223.9,297.9,222.8,296,222,293.9z"/>
			</defs>
			<clipPath id="SVGID_36_">
				<use xlink:href="#SVGID_35_"  style="overflow:visible;"/>
			</clipPath>
			<g class="st82">
				<path class="st74" d="M222,293.9l5.7,16c0.7,2.1,1.9,4,3.4,5.7l-5.7-16C223.9,297.9,222.8,296,222,293.9L222,293.9z"/>
			</g>
		</g>
		<g>
			<polygon class="st83" points="443.4,228.6 449.2,244.7 449.3,230.4 443.5,214.4 			"/>
		</g>
		<g>
			<polygon class="st84" points="426.4,235.2 432.1,251.3 449.2,244.7 443.4,228.6 			"/>
		</g>
		<g class="st1">
			<defs>
				<path id="SVGID_37_" class="st1" d="M422.9,242.6l5.7,16c1.6-2.5,2.7-5,3.5-7.3l-5.7-16C425.6,237.6,424.5,240,422.9,242.6z"/>
			</defs>
			<clipPath id="SVGID_38_">
				<use xlink:href="#SVGID_37_"  style="overflow:visible;"/>
			</clipPath>
			<g class="st85">
				<path class="st74" d="M422.9,242.6l5.7,16c1.6-2.5,2.7-5,3.5-7.3l-5.7-16C425.6,237.6,424.5,240,422.9,242.6L422.9,242.6z"/>
			</g>
		</g>
		<g>
			<polygon class="st86" points="213.6,307.8 219.3,323.8 235.4,331.4 229.7,315.4 			"/>
		</g>
		<g>
			<polygon class="st87" points="229.7,315.4 235.4,331.4 248.9,325.5 243.2,309.5 			"/>
		</g>
		<g class="st1">
			<defs>
				<path id="SVGID_39_" class="st1" d="M243.2,309.5l5.7,16c3.5,0.9,7.4,1.6,11.6,2.1l-5.7-16C250.6,311.2,246.7,310.4,243.2,309.5
					z"/>
			</defs>
			<clipPath id="SVGID_40_">
				<use xlink:href="#SVGID_39_"  style="overflow:visible;"/>
			</clipPath>
			<g class="st88">
				<path class="st77" d="M243.2,309.5l5.7,16c1.1,0.3,2.1,0.5,3.3,0.8l-5.7-16C245.4,310.1,244.3,309.8,243.2,309.5L243.2,309.5z"
					/>
				<path class="st78" d="M246.5,310.3l5.7,16c2.5,0.5,5.2,1,8.1,1.3l-5.7-16C251.7,311.3,249,310.8,246.5,310.3L246.5,310.3z"/>
				<path class="st79" d="M254.6,311.6l5.7,16c0.1,0,0.2,0,0.2,0l-5.7-16C254.7,311.6,254.7,311.6,254.6,311.6L254.6,311.6z"/>
			</g>
		</g>
		<g>
			<polygon class="st89" points="418.7,261 424.4,277 440.6,259.9 434.9,243.8 			"/>
		</g>
		<g>
			<polygon class="st84" points="403.9,263.2 409.6,279.2 424.4,277 418.7,261 			"/>
		</g>
		<g class="st1">
			<defs>
				<path id="SVGID_41_" class="st1" d="M392.5,271.7l5.7,16c4.1-2.8,7.9-5.6,11.4-8.5l-5.7-16C400.4,266.1,396.5,269,392.5,271.7z"
					/>
			</defs>
			<clipPath id="SVGID_42_">
				<use xlink:href="#SVGID_41_"  style="overflow:visible;"/>
			</clipPath>
			<g class="st90">
				<path class="st78" d="M392.5,271.7l5.7,16c2.2-1.5,4.4-3.1,6.5-4.6l-5.7-16C396.8,268.7,394.7,270.2,392.5,271.7L392.5,271.7z"
					/>
				<path class="st77" d="M398.9,267.1l5.7,16c1.7-1.3,3.4-2.6,5-3.9l-5.7-16C402.3,264.5,400.6,265.8,398.9,267.1L398.9,267.1z"/>
			</g>
		</g>
		<g class="st1">
			<defs>
				<path id="SVGID_43_" class="st1" d="M287.4,310.8l5.7,16c5.6-0.7,11.3-1.6,17-2.8l-5.7-16C298.6,309.2,293,310.1,287.4,310.8z"
					/>
			</defs>
			<clipPath id="SVGID_44_">
				<use xlink:href="#SVGID_43_"  style="overflow:visible;"/>
			</clipPath>
			<g class="st91">
				<path class="st71" d="M287.4,310.8l5.7,16c1.3-0.2,2.6-0.3,3.9-0.5l-5.7-16C289.9,310.5,288.7,310.7,287.4,310.8L287.4,310.8z"
					/>
				<path class="st81" d="M291.2,310.3l5.7,16c4.3-0.6,8.7-1.4,13.2-2.3l-5.7-16C300,308.9,295.6,309.7,291.2,310.3L291.2,310.3z"/>
			</g>
		</g>
		<g>
			<polygon class="st92" points="278.4,317.8 284.1,333.8 293.1,326.8 287.4,310.8 			"/>
		</g>
		<g>
			<polygon class="st93" points="250.4,318.9 256.1,334.9 284.1,333.8 278.4,317.8 			"/>
		</g>
		<g class="st1">
			<defs>
				<path id="SVGID_45_" class="st1" d="M342.4,297l5.7,16c5.8-2.1,11.4-4.5,16.9-7l-5.7-16C353.9,292.5,348.2,294.8,342.4,297z"/>
			</defs>
			<clipPath id="SVGID_46_">
				<use xlink:href="#SVGID_45_"  style="overflow:visible;"/>
			</clipPath>
			<g class="st94">
				<path class="st81" d="M342.4,297l5.7,16c3.5-1.3,7-2.7,10.5-4.2l-5.7-16C349.5,294.3,346,295.7,342.4,297L342.4,297z"/>
				<path class="st71" d="M352.9,292.8l5.7,16c2.2-0.9,4.3-1.8,6.4-2.8l-5.7-16C357.2,291,355.1,291.9,352.9,292.8L352.9,292.8z"/>
			</g>
		</g>
		<g>
			<polygon class="st95" points="304.4,308 310.1,324 312.9,329.1 307.2,313.1 			"/>
		</g>
		<g>
			<polygon class="st96" points="368.8,291.9 374.5,307.9 402.6,292.5 396.9,276.5 			"/>
		</g>
		<g>
			<polygon class="st92" points="359.4,290 365.1,306 374.5,307.9 368.8,291.9 			"/>
		</g>
		<g>
			<path class="st42" d="M215.1,267.5l13.2,1.4c-1.7,2.4-3.2,4.8-4.3,7.1l-17.4,6.8l-0.1,14.3l15.5-3.1c0.7,2.1,1.9,4,3.4,5.7
				l-11.8,8.2l16.1,7.6l13.5-5.9c3.5,0.9,7.4,1.6,11.6,2.1l-4.4,7.3l28-1.1l9-7c5.6-0.7,11.3-1.6,17-2.8l2.8,5.1l32.4-9.5l2.8-6.6
				c5.8-2.1,11.4-4.5,16.9-7l9.4,1.9l28.1-15.4l-4.4-4.8c4.1-2.8,7.9-5.6,11.4-8.5l14.8-2.2l16.3-17.1l-12-1.3
				c1.6-2.5,2.7-5,3.5-7.3l17-6.6l0.1-14.3l-17.9,3.6c-0.9-1.6-2-3.1-3.5-4.5l14.3-9.9l-16.1-7.6l-18.9,8.2
				c-2.6-0.5-5.3-0.9-8.2-1.2l6.4-10.5l-28,1.1l-13.9,10.8c-3.5,0.5-7,1.1-10.6,1.8l-4.4-7.9l-32.4,9.5l-4.4,10.1
				c-3.6,1.4-7.3,2.8-10.8,4.3l-14-2.7l-28.1,15.4l6,6.4c-3.1,2-6.1,4.1-9,6.3l-18.8,2.8L215.1,267.5z M304.4,278.5
				c-19.1,0.7-25.6-8.1-14.5-19.8c11.1-11.7,35.6-21.7,54.7-22.5c19.1-0.7,25.6,8.1,14.5,19.8C348,267.7,323.5,277.8,304.4,278.5
				L304.4,278.5z"/>
		</g>
		<g>
			<polygon class="st97" points="339.6,303.6 345.3,319.6 348.2,313 342.4,297 			"/>
		</g>
		<g>
			<polygon class="st72" points="307.2,313.1 312.9,329.1 345.3,319.6 339.6,303.6 			"/>
		</g>
	</g>
</g>
<g>
	<path class="st98" d="M252.7,222.9c9-0.3,8.4,4.1,8.7,9.9c0.4,5.7-2.3,17.5-7.9,20.2c-5.6,2.7-7.9,9.8-9.9,5c-2.3-5.6-5.2-2-8-4.7
		c-4.8-4.7-3.3-10.8,2-14.7c5.3-3.9,5.2-5.2,5.8-9C244,225.8,249.9,223,252.7,222.9z"/>
	<g>
		<path class="st99" d="M252.2,245.9c-1.9-0.3-11.8,8.5-14.4,10.9c-2.6,2.4-5.3,5.7-2.5,5.7c2.7,0,5.6-2.3,7.8-3.9
			c2.2-1.6,5.1-3.9,6.7-4.9C251.4,252.6,254.1,246.2,252.2,245.9z"/>
		<path class="st99" d="M238.3,264.6c0,0-1.2-7.1-5.1-12.5c-3.9-5.3-5.5-9.1-5.5-9.1l-2.1,0.4c0,0,5.9,14.2,7.3,16.5
			C234.3,262.2,234.4,261.9,238.3,264.6z"/>
		<g>
			<path class="st99" d="M220.4,239.3l-0.2-2.3c0,0,0.8,0.6,0.9,1.4c0.1,0.7,0.2,1.6,0.2,1.6L220.4,239.3z"/>
			<path class="st99" d="M222.2,240.8l-0.5-1.4l0.8-1.2c0,0,0.4,0.1,0.1,1.3c-0.1,0.3,0.6,1.8,0.6,1.8L222.2,240.8z"/>
			<path class="st99" d="M227.3,244.7c0,0-2.8-0.9-5.5-2.9c-2.7-2-2.3-2.7-2.7-3.6c-0.5-1-1.2-2.2-0.3-1.5c1,0.8,1.8,2.7,2.3,3.1
				c0.5,0.4,1.4,0.6,2.3,1c0.8,0.4,1.4,0.7,0.8,0c-0.6-0.7-0.8-1-1-1.3c-0.1-0.3-0.4-0.8,0-1c0.3-0.2,0.6,0.5,0.8,0.7
				c0.2,0.2,1.6,1.1,1.9,1.3c0.3,0.3,0.9,1.4,1.3,2.2c0.4,0.7,1.6,3.8,1,4.2C228.3,246.8,228.1,245,227.3,244.7z"/>
		</g>
	</g>
	<g>
		<path class="st100" d="M186.7,322.2c0,0-1.8,4.5-3,6.5c-1.2,2-2.3,3.4-2.8,5.2c-0.5,1.8,6.8-0.4,7.6-1.6c0.8-1.2,1-5.2,3.9-8.3
			C195.4,321,186.7,322.2,186.7,322.2z"/>
		<path class="st101" d="M218,282.2c0,0-22,8.9-24.1,11.6c-2.2,2.6-5.9,23.1-7.5,28.5c-0.3,1.2,4.9,2.7,6.4,1.9
			c1.5-0.8,8-12.8,9.1-15.9c1.2-3.4,0.8-7.6,1.7-7.9c2-0.8,21.5-5.7,24.3-7.6c2.8-1.9,10.9-8.5,10-10.7
			C237,279.8,218,282.2,218,282.2z"/>
		<path class="st102" d="M190.2,327.3c0,0,1.4,1.8,1.8,2.6c0.4,0.8,1.2,1.6,0.6,2.4c-0.7,0.8-3.3,2.5-5.4,5.3c-2,2.8-5.6,6.1-8,7.1
			c-2.4,1.1-5.8,0.8-5.8-0.4c0-1.2,1.9-2.8,2.9-3.5c1-0.6,4.8-8.4,5.3-9.6c0.5-1.2,1.2-1.8,2.2-1.2c1,0.6,2.2,0.9,3.8-0.2
			C189.3,328.6,190.2,327.3,190.2,327.3z"/>
		<path class="st103" d="M187.6,329.8c-1.6,1.2-2.8,0.8-3.8,0.2c-1-0.6-1.7,0-2.2,1.2c-0.5,1.2-4.4,9-5.3,9.6
			c-1,0.6-2.9,2.3-2.9,3.5c0,0.1,0,0.1,0,0.2c1.1,0.5,3.5,0.4,5.2-0.4c2.4-1.1,6-4.4,8.1-7.3c2.1-2.8,4.8-4.6,5.5-5.4
			c0.2-0.2,0.3-0.4,0.3-0.6c-0.2-0.3-0.4-0.6-0.5-0.9c-0.4-0.8-1.8-2.6-1.8-2.6S189.3,328.6,187.6,329.8z"/>
		<path class="st104" d="M214.3,287.9c-0.7-0.8-1.9-2.3-2.6-3.2c-6.7,2.9-16.5,7.3-17.9,9c-2.2,2.6-5.9,23.1-7.5,28.5
			c-0.1,0.4,0.6,0.9,1.6,1.4c0.8-2,1.8-4.4,3-5.9c2.1-2.8,4-8.2,6-12.6c2-4.5,0-7.9,2.8-9.3C202.3,294.4,215.4,289,214.3,287.9z"/>
	</g>
	<path class="st105" d="M253.2,264.4c0,0-3.5,3.6-4.6,7.1c-1.1,3.5,1.5,12.8-4.7,19.5c-3.2,3.4-21.5,1.6-21.5,1.6
		c14.9-24,15.8-27.9,14.9-30.7c-0.9-2.8-0.1-4.2,2.8-6.3c2.9-2.2,5-4.1,5.6-6.7C246.3,246.4,268.9,241.8,253.2,264.4z"/>
	<path class="st106" d="M259.3,248.2c0,0-1.2-0.9-1.4-4.8c-0.2-3.9-0.3-5.9,0.5-7.3c0.8-1.4-7.5-1.7-7.7,1.2
		c-0.2,2.8-0.7,3.2,0.2,6.2c0.9,3-2.1,3.8-2.7,4.1C247,248.1,243.2,252.5,259.3,248.2z"/>
	<path class="st106" d="M252.8,232.1c1.5,0.3,3,0.5,4.3,0.1c-1.1,6.7-7.2,7.6-7.4,7.6c-0.2,0-0.4,0-0.7-0.2
		c-0.3-0.3-0.4-0.6-0.4-0.8c0-0.2,0.1-0.4,0.1-0.4c-0.1,0-0.5-0.1-0.6-0.2c-0.1,0-0.2-0.3-0.2-0.3s0.2-0.4,0.2-0.4
		c-0.6-0.1-0.7-0.4-0.8-0.5c-0.1-0.1,0.1-0.4,0.2-0.6c0.1-0.2-0.1-0.6-0.2-0.8c-0.1-0.1-0.7-0.2-0.8-0.4c-0.1-0.1-0.3-0.4-0.3-0.5
		c0-0.1,0.2-0.3,0.6-0.8c0.4-0.5,0.7-1.6,0.2-3.1c-0.5-1.6-0.1-2,0-2.4C247,227.8,247.9,231,252.8,232.1z"/>
	<path class="st107" d="M250.6,223.7c0.8-0.3,8.3-1.6,12,1.8c3.6,3.4,4.6,8.4,2.9,13.1c-1.7,4.7-4.8,8.3-0.8,10.8
		c12.8,7.8,6.1,11,3.7,13.7c-4.5,5.2-15.3,4.4-15.7,0.8c-0.4-4.4,8.2-12.3,3.3-15.2c-3.6-2.1-4.8-3.3-3.9-8.5c0.9-5.2,6.1-6.8,3-7.9
		C251.4,231.1,244,226.4,250.6,223.7z"/>
	<path class="st106" d="M256.1,250.1c-2.6,0.5-10.8,15.2-13.2,19.2c-2.3,4-4.4,9.1-0.7,7.9c3.7-1.2,6.4-5.3,8.6-8.1
		c2.2-2.8,5-6.9,6.7-8.9C259.2,258.2,258.7,249.6,256.1,250.1z"/>
	<g>
		<path class="st100" d="M214.5,315.9c0,0,2.8,4.3,2.9,5.9c0.2,1.6,0.4,2.6,1.7,2.3c1.4-0.3,3.4-3.9,3.1-5.1c-0.3-1.2-3.5-3.9-4-5.7
			c-0.5-1.8-3.8,3.3-3.8,3.3L214.5,315.9z"/>
		<path class="st102" d="M220.1,315.9c0,0,1.9,0.9,3,1c1.1,0.1,2.7,1.2,2.5,3.3c-0.2,2.2-0.6,6.5-0.6,9.3c0,2.7-2.5,7.3-3.2,8.2
			c-1.1,1.5-3.6,1.5-4.2,0.2c-0.6-1.3,0.1-4.9,0.2-6.8c0-1.9-0.8-8-0.8-8.7c-0.1-0.7,2.1-2.4,2.8-1.5c0.8,0.9,1.5-0.1,1.5-0.8
			C221.2,319.4,220.1,315.9,220.1,315.9z"/>
		<path class="st103" d="M224.6,319.9c0.1-1.7-0.9-2.7-1.8-3.1c-0.3,0-0.5-0.1-0.8-0.2c-0.6-0.1-1.3-0.3-1.9-0.5
			c0.2,0.8,1.1,3.4,1.1,4c0,0.7-0.7,1.7-1.5,0.8c0,0,0,0,0,0c-0.3,0.2-0.6,0.2-1-0.2c-0.9,0.2-1.9,1.2-1.9,1.7
			c0.1,0.7,0.9,6.8,0.8,8.7c0,1.9-0.7,5.5-0.2,6.8c0.1,0.3,0.4,0.6,0.7,0.7c0.9,0,1.9-0.3,2.5-1.1c0.7-0.9,3.3-5.4,3.2-8.2
			C224,326.5,224.5,322.1,224.6,319.9z"/>
		<path class="st108" d="M230.2,281.5c-4.6,0-26-1.6-29,1c-3,2.6,1.9,9.9,17.5,13.4c15.6,3.5,18.6,2.5,23.5-2.5
			C247.2,288.5,233.6,281.5,230.2,281.5z"/>
		<path class="st108" d="M207.8,288.5c0,0,8.3,6.8,8.9,14.4c0.6,7.6,2.3,11.1,2.3,11.1l-4.5,2.6c0,0-13.8-21.2-14.8-25.4
			c-1-4.3-0.7-8.9,2.4-8.2C205,283.8,207.8,288.5,207.8,288.5z"/>
		<g>
			<path class="st109" d="M214.4,316.6C214.4,316.6,214.4,316.6,214.4,316.6l4-2.3L214.4,316.6z"/>
			<path class="st104" d="M205.6,290.1c3,3,8.5,7,9.8,14.1c1.1,6,2.6,9.3,3,10.2l0.6-0.3c0,0-1.6-3.5-2.3-11.1
				c-0.6-7.6-9.2-13.4-9.2-13.4S203.8,288.2,205.6,290.1z"/>
		</g>
		<path class="st104" d="M230.2,281.5c-0.2,0-0.4,0-0.7,0c1.9,0.8,4.4,1.9,5.4,2.5c1.7,1,1.2,2.7-2.2,3.6
			c-3.4,0.9-15.7,1.2-19.1,0.1c-3.4-1.1-9.6-2.3-9.1-0.7c0.2,0.6,2.2,1.3,2.6,2c1.9,1.3,1.9,3.8,5,5c1.9,0.7,4.1,1.3,6.5,1.9
			c15.6,3.5,18.6,2.5,23.5-2.5c1.8-1.8,3-3.8,3.7-5.8C247,284.1,233.6,281.5,230.2,281.5z"/>
	</g>
	<g>
		<path class="st110" d="M220.4,278.8c0,0-0.1-0.5-0.5-0.5c-0.7,0.1-2,0.8-2.4,1c-0.5,0.3-2.5,2.1-2.5,2.1s1,0,1.8-0.7
			C218,279.6,220.4,278.8,220.4,278.8z"/>
		<path class="st110" d="M220,279c-1,0.1-1.8,1-2.6,2.2c-0.7,1.2-1.6,1.3-1.6,1.3s0.4-0.8,1.6-2.5c0.4-0.5,0.8-1,1.3-1.3
			C220.3,277.7,222.6,278.6,220,279z"/>
		<path class="st106" d="M241.1,277.3c-4.9,0.4-12.8,0.5-12.8,0.5s-10.9,1.5-0.6-2.2c2.2-0.8,8-3.4,16.2-4.4
			c0.9-0.1,0.4,0.1,1.4,0.5C246.9,272.2,245.1,277.1,241.1,277.3z"/>
		<path class="st106" d="M219.1,279.6l0-0.5l1.3-1.2c0,0,3-1.1,4.3-1.1c1.3,0,5.8-1.8,6.4-1.8c0.6-0.1,2.2,2.3,2.2,2.3s-5,0.7-7,1.1
			c-2,0.4-4.5,2-5.3,2.2c-1.3,0.3-1.9,0.6-1.9,0.6s-0.1-0.7,1.9-1.4c0.5-0.2,0.1-0.7,0.1-0.7L219.1,279.6z"/>
		<path class="st100" d="M220.9,278.3c0,0-1.6,0.5-2.1,1.1c-0.3,0.4-1.6,2.8-1.6,2.8s0.9-0.4,1.5-1.3
			C219.4,279.5,220.9,278.3,220.9,278.3z"/>
		<path class="st110" d="M221,279.1c0,0,0.3,0.3,0.3,0.5c0.1-0.1,0.2-0.2,0.3-0.3c0.2-0.2,1.8-1.1,1.8-1.1s-1.3,0.4-1.7,0.5
			c-0.3,0-0.8,0.2-1.2,0.4c-0.1,0-0.1,0.1-0.2,0.2L221,279.1z"/>
		<path class="st110" d="M220.9,279.8c-1.4,0.4-1.8,0.9-1.9,1.2c0.3-0.1,0.8-0.3,1.6-0.5c0.3-0.1,0.8-0.3,1.4-0.6
			c0.1-0.1-0.1-0.5,0.7-1.3c0.1-0.1-1,0.2-1.7,0.6C221.1,279.3,221.3,279.6,220.9,279.8z"/>
	</g>
	<g>
		<path class="st111" d="M230.6,281.5C230.6,281.5,230.6,281.5,230.6,281.5v-0.7h-28.9v0.7c0,0,0,0,0,0l0.1,0.1
			c0.4,0.6,1,0.7,1.8,0.7h25.1c0.8,0,1.4-0.1,1.8-0.7L230.6,281.5z"/>
		<path class="st112" d="M223.6,281.6C223.6,281.6,223.6,281.7,223.6,281.6l0.1,0.1c0.1,0.2,0.3,0.3,0.4,0.4h4.4
			c0.7,0,1.4-0.1,1.7-0.6l0.1-0.1c0,0,0,0,0,0l0-0.3h-6.7V281.6z"/>
		<g>
			<rect x="205.3" y="281" class="st113" width="14.4" height="0.5"/>
		</g>
		<g>
			<path class="st114" d="M223.5,280.8l-3.7-14.2c-0.1-0.4-0.5-0.7-0.9-0.7h-20.3c-0.4,0-0.6,0.3-0.5,0.7l3.7,14.2H223.5z"/>
			<path class="st111" d="M212,273.3c0.2,0.7-0.2,1.3-1,1.3c-0.7,0-1.5-0.6-1.7-1.3c-0.2-0.7,0.2-1.3,1-1.3
				C211.1,272,211.8,272.6,212,273.3z"/>
		</g>
	</g>
</g>
<g>
	<path class="st115" d="M372.6,50.2C372.6,50.2,372.6,50.2,372.6,50.2l0.2-0.9l-35.6-8.8l-0.2,0.9c0,0,0,0,0,0l0.1,0.2
		c0.3,0.9,1.1,1.2,2,1.4l30.9,7.6c0.9,0.2,1.8,0.3,2.4-0.3L372.6,50.2z"/>
	<path class="st116" d="M364,48.3C364,48.3,364,48.3,364,48.3l0,0.2c0.1,0.2,0.2,0.4,0.4,0.6l5.4,1.3c0.9,0.2,1.7,0.3,2.3-0.2
		l0.1-0.1c0,0,0,0,0,0l0.1-0.4l-8.2-2L364,48.3z"/>
	<g>
		<polygon class="st116" points="359.2,46.9 341.5,42.5 341.6,41.9 359.4,46.2 		"/>
	</g>
	<g>
		<path class="st115" d="M364,47.2l-0.3-18.6c0-0.5-0.4-1-0.8-1.1l-25-6.2c-0.5-0.1-0.8,0.2-0.8,0.7l0.3,18.6L364,47.2z"/>
		<path class="st116" d="M352.2,34.5c0,0.9-0.7,1.5-1.6,1.3c-0.9-0.2-1.6-1.2-1.6-2.1c0-1,0.7-1.5,1.6-1.3
			C351.4,32.6,352.2,33.6,352.2,34.5z"/>
	</g>
</g>
<g>
	<path class="st98" d="M405.1,96.1c13.6,9.4,4.9,1,5,0.7c0.6-1.6-3.8-1.1-3-4.3c0.7-3.2,1.2-8.2,0.5-14.9c-0.1-0.7-0.2-1.3-0.4-1.9
		c-2.6-1.9-5.6-3-8.5-4.5c-1.3,0.1-2.6,0.4-3.8,1.1c-5.2,2.9-8.6,1.5-10.4,3.4c-1.9,1.8-5.8,4.2-6.8,5.2
		C382.8,90.9,396.7,90.4,405.1,96.1z"/>
	<g>
		<path class="st110" d="M373.9,122.2c0,0,0.7-1,1.5-2.4c0.6-1.2,1.5-4.5,1.5-5c0.1-0.8,1.7-5.7,1.8-5.7c1.2-0.6-2.2,7.7,0.2,9.7
			c0.7,0.6-4.1,3.7-4.4,3.9C374.1,122.8,373.7,122.2,373.9,122.2z"/>
		<path class="st110" d="M385.4,82.6c0.3,0.6,1.6,2.4,1.6,4.2c0,3.4-0.2,5.1-1.4,8.4c-1.8,5.2-4.9,13.3-6.3,16.8
			c-1.2,3.1-1.5,8.2-2.6,6.4c0.4-4.7-0.2-5.6,1.3-14.5C382.7,78.3,384.8,81.5,385.4,82.6z"/>
		<path class="st107" d="M374.4,121.4c0.5,1,2.7-1.4,3.1-2.1c0.4-0.7,0.8-1.1,0.8-1.1c0,0,0,0,0.1-0.1c0,0,0,0,0.1,0.1
			c0.4,0.4,1,0.9,0.3,1.5l-4.4,3.7C370.7,126.3,374.4,121.4,374.4,121.4z"/>
		<path class="st110" d="M402.5,68c0.9,0.7,2.5,0.7,2.2,2.2c-0.9,3.6-0.9,5.2-6.7,9.8c-17.9,13.9-10,3.4-14.8,5.1
			c-0.6-2.4,2.7-6.1,8.3-11.3C397,68.7,399.7,66,402.5,68z"/>
	</g>
	<path class="st100" d="M386.6,78c0.5-0.9,0.9-1.8,1.3-2.8c0.3-1.6,0.3-2.5-0.2-2.7c-1.7-0.8-7.9,4.7-15.2,23.5
		c-0.4,0.9-7.6,16.6-7.4,16.3C371.3,103.4,379.9,91.8,386.6,78z"/>
	<path class="st107" d="M367.7,111.4c-1.4,1.7-2.5,5.1-3.9,4.6c-0.5-0.2,0.4-2.1,1.4-4.4c0.9-2,1.9-3.4,2.3-3.1
		C368.1,108.9,369.7,109.1,367.7,111.4z"/>
	<path class="st100" d="M366.7,111.5c-0.8,1-1.7,2.7-2.2,2.4c0,0,0.2-1.1,0.9-2.6c0.9-1.8,1.4-2.5,2-3.6c0.8-1.4,1.6-1.8,0.6,0.9
		C367.7,109.3,367.5,110.5,366.7,111.5z"/>
	<path class="st100" d="M405.5,82.1c-0.4,1.5-0.8,1.4-2.4,2c-3,1.2-6.8,1.1-10.1-1c-3.1-2-5.7-4.5-7.3-7.1c-0.4-0.7,0.3-3.3,1-3.3
		c1.9-0.3,5.4,0.2,7.5,0.4C403,74.2,406.6,77.4,405.5,82.1z"/>
	<path class="st117" d="M405.7,34.9c-0.1,3.3,2.4,6.2,5.8,6.3l1.6-2.8c3.3,0.1,6.3-4.8,6.4-8.1l0.1-2.3c0.1-3.3-2.4-6.2-5.8-6.3
		l-1.5-0.1c-3.3-0.1-6.2,2.4-6.3,5.8L405.7,34.9z"/>
	<path class="st103" d="M405.2,40c-6.4,2.7-12.9,13.2-12.9,13.2s0.6,3,1.8,2.7c1.5-0.4,6.9-4.8,13.5-11.5
		C411.7,40.4,406.2,39.6,405.2,40z"/>
	<path class="st98" d="M392.6,54.6c-2.3-4,0.4-9.5,0.4-9.5s1.2,0,1.7,0.8c0.7,0.9,0.8,3,0.9,7.7C395.7,56.4,393,55.2,392.6,54.6z"/>
	<path class="st100" d="M393.7,49.5c0,0-0.9,0-1.3-3.9c-0.4-3.9,0.8-8.2,0.8-8.2l1.2,7.6C394.4,44.9,394.9,48.4,393.7,49.5z"/>
	<path class="st117" d="M418.2,26.5c0.4-0.2,0.9-0.4,1.3-0.5c0.2,0.6,0.4,1.1,0.6,1.7c2.5,5.2,8.6,7.6,14.1,5.7
		c1.6,5.3-0.9,11.1-6.2,13.6c-5.8,2.8-12.7,0.4-15.4-5.2C409.9,36.1,412.4,29.3,418.2,26.5z"/>
	<path class="st100" d="M408.6,23.8c0,0.6,0,1.1,0.1,1.7c0.4,3.9,2.7,6.9,5.2,7.4c0,1.8,0.6,3.3,0.6,4.7c0.2,3.1,3.6,3.5,3.6,3.5
		c0.3,2.7-10.5,6-10.3,5.6c0.2-0.4,2.7-3.5,3.5-6.4c0.6-2,0-3.7-0.7-4.9c-1.4-1.8-3.5-1.8-3.5-1.8c-0.2,0-0.4-0.1-0.5-0.2
		c-0.1-0.4-0.2-0.8-0.1-1.3l0.2-5C406.9,25.7,407.6,24.5,408.6,23.8z"/>
	<path class="st100" d="M420.2,56.5l4.9-8.6c1.5-2.6,0.6-5.1-1.9-5.7L409,38.9c-1.6-0.2-4.1,2.3-3.5,5.4l3,9.9L420.2,56.5z"/>
	<path class="st103" d="M422.9,42.9c-3.2,8.7,5.4,21.1,5.4,21.1s2.9,0.2,3.2-1.1c0.4-1.7-1.9-5.3-4.7-15.4
		C425.2,41.2,423.3,41.7,422.9,42.9z"/>
	<path class="st101" d="M407.7,66.4c-0.1,2-0.1,4.4,0.8,4.4l6-0.6c0.9,0,3.7,0.4,3.8-1.6l2.1-8.2c0.1-2-0.6-3.6-1.4-3.6l-10.7-4.8
		c-0.9,0-1.6,1.6-1.7,3.6L407.7,66.4z"/>
	<path class="st101" d="M406.5,42.7c0.2-0.6,0.4-1.1,0.6-1.5c6.9,5.9,12,3.8,15.6,3c0,0.2,0,0.5,0,0.7c0,2.7-0.3,5.5-0.3,8.2
		c0,2.2-2.9,4-4.2,3.9c-5,0-6.1-0.4-10.9-2.1c-1.3-0.4-3.6-2.9-3-4.9C405.1,47.7,405.8,45.2,406.5,42.7z"/>
	<path class="st103" d="M418.7,41c0,0,5.8,0.1,6.6,2.9c0.9,2.8-1.7,6.7-1.7,6.7s-1.7,5-2.2,7.8c-0.5,2.8,1.1,5.5,0.6,4.9
		c-0.1-0.1-1.4,0-3.4-1.1c-2-1.1-0.7-4.8-0.5-6c0.3-1.2,1.5-7.1,1.4-8.1C419.3,47,418.7,41,418.7,41z"/>
	<path class="st103" d="M404.9,42.7c0.7-1.8,2.5-4.7,3.6-4.3c1.1,0.4,2.3,0.7,2.3,0.7s-3.9,1.5-4.1,9.4c0,1.3-0.3,4,0,6.1
		c0.4,2.1,0.3,6.2,0.3,6.2s-2.3,0.4-2.4,0.7c-0.1,0.3,0.4-2.2-0.4-5.7C402.4,48.1,403.7,46.1,404.9,42.7z"/>
	<path class="st114" d="M415.5,46.4l-0.7,0.6l-0.4-0.5l-4.4,3.9l3.5,3.9c0.5,0.5,1.2,0.6,1.7,0.2l2.7-2.4c0.5-0.4,0.5-1.2,0-1.7
		l-0.3-0.3l0.7-0.6c0.3-0.3,0.3-0.8,0-1.2l-1.6-1.8C416.4,46.1,415.8,46.1,415.5,46.4z M417.8,48.7c0.1,0.1,0.1,0.1,0,0.2l-0.7,0.6
		l-1.8-2l0.7-0.6c0.1,0,0.1,0,0.2,0L417.8,48.7z"/>
	<g>
		<path class="st100" d="M423.4,55.7c-0.9-1.8-1.7-4-2.6-4.8c-1.3-1.1-2.5-1.1-3-2.2c-0.1-0.1-0.1-0.2-0.2-0.3
			c-0.2-0.3-0.4-0.6-0.5-0.8c-0.1-0.1-0.5-0.4-0.3-0.4c1.7,0.6,3.5,1.4,3.8,1.8c0.6,0.7,3.6,4.5,4.5,6.2
			C426.1,57.2,424.7,58.2,423.4,55.7z"/>
		<path class="st100" d="M420.9,50.5c0,0,0.4-0.1,0.3-0.5c-0.1-0.5-0.8-1.4-1.1-1.7c-0.3-0.3-1.9-1.7-1.9-1.7s0.1,0.8,0.8,1.3
			C419.9,48.8,420.9,50.5,420.9,50.5z"/>
		<path class="st100" d="M427.1,57.9c-0.7,0.3-1.4,0.5-2.1,0.6c-2.4-4.9-4.3-9.1-4.3-9.1L427.1,57.9z"/>
		<path class="st100" d="M419.4,48.3l-2.3-1.8l-1,0.6l-0.2,0.4l0.2,0.3c0,0,0.2,0,0.2,0.1c-0.1,0.1,0.3,0.4,0.4,0.4
			c0,0,0.3,0.5,0.4,0.6c0.2,0.1,0.5-0.2,1,0c0.5,0.3,0.7,0.9,0.9,0.7C419.2,49.3,419.4,48.3,419.4,48.3z"/>
	</g>
	<path class="st98" d="M426.4,56.7c-0.3-0.3-2.3,1.2-2,2l0.2,0.6c0,0,1.6,5.2,4.2,4.1C428.9,63.4,430.9,61.4,426.4,56.7z"/>
	<path class="st103" d="M377.6,80.8c0.2-0.4,3.4-5.4,4.3-6.1c4-3.3,24.3-11.8,26.1-11.1c4.1,1.7,8.5,2.4,10.7,4.8
		c-0.3,1.4,2.7,6,1.4,8c-5,7.7-15.7,1.5-9.6,14.9c2,4.3,3.8,8.2,2.7,10.2C406.5,104.5,387.1,79.6,377.6,80.8z"/>
	<g>
		<path class="st100" d="M392.8,38.2c0.1-0.4,0.4-0.8,0.6-1.2c0.4-0.8,1.2-1.9,1.7-2.6c0.6-0.8,1.1-1.7,1.1-1.7
			c0.1,1-0.5,1.5-0.7,1.9c-0.2,0.5-0.2,0.3,0.6-0.1c0.4-0.2,0.7-1.3,0.9-2c0.2-0.6,0.5-0.8,0.5-0.8s-0.1,1-0.4,1.9
			c-0.4,1.1-1,2.3-1.1,2.5c-0.3,0.4-1,1.2-1.8,1.9c-0.2,0.2-1.1,1.4-0.9,2.9C393.3,41.8,392.5,39.8,392.8,38.2z"/>
		<path class="st100" d="M395.8,36.2c0,0,1.3-1.3,1.4-1.7c0.1-0.2,0.4-1.5,0.4-1.5s-0.5,0.5-0.6,0.9
			C396.8,34.4,395.8,36.2,395.8,36.2z"/>
	</g>
</g>
<g>
	<g>
		<polygon class="st100" points="312.5,226.2 311.6,217.1 315.6,216.9 316,227.4 		"/>
		<g>
			<path class="st118" d="M320.7,234.1c0.1,0.5-0.6,1.4-0.6,1.4s-5.6-2.1-7.2-3.4c-0.4-0.3-1-1.1-1.5-1.9c-0.1-0.1-0.1-0.6-0.2-0.8
				c-0.2-0.2-0.4-0.1-0.5-0.3c-0.3-0.5-0.5-0.9-0.5-1c0.8-2.7,1.9-3.4,1.9-3.4s1.5,2.3,1.5,1.5c0.1-1.6,3-0.7,3,0.2
				C316.8,230.1,320.5,232.5,320.7,234.1z"/>
			<path class="st119" d="M320.6,234.7c-1.8-0.6-5.4-1.9-6-2.4c-2.4-1.8-3.2-3.9-3.9-5.3c-0.1,0.4-0.3,0.8-0.4,1.2
				c0,0,0.2,0.4,0.5,1c0.1,0.2,0.3,0.1,0.5,0.3c0.1,0.1,0.1,0.6,0.2,0.8c0.5,0.8,1.1,1.5,1.5,1.9c1.5,1.3,7.2,3.4,7.2,3.4
				S320.4,235.1,320.6,234.7z"/>
			<g>
				<path class="st119" d="M318.7,230.8c0,0.1-0.3,0-0.5-0.1c-0.6-0.3-1.2-0.6-1.8-0.8c-0.3-0.1-0.5-0.3-0.5-0.4
					c0-0.1,0.3-0.1,0.6,0c0.6,0.2,1.2,0.5,1.8,0.8C318.5,230.5,318.7,230.7,318.7,230.8z"/>
				<path class="st119" d="M318,229.7c0,0.1-0.3,0.1-0.6-0.1c-0.6-0.3-1.2-0.5-1.9-0.7c-0.3-0.1-0.6-0.2-0.5-0.3
					c0-0.1,0.3-0.1,0.7-0.1c0.6,0.2,1.3,0.4,1.8,0.7C317.8,229.3,318,229.6,318,229.7z"/>
				<path class="st119" d="M317.3,228.6c0,0.1-0.3,0.1-0.6,0c-0.6-0.2-1.2-0.4-1.9-0.5c-0.3-0.1-0.6-0.2-0.5-0.3
					c0-0.1,0.4-0.2,0.7-0.1c0.7,0.1,1.3,0.3,1.9,0.5C317.2,228.3,317.4,228.5,317.3,228.6z"/>
			</g>
		</g>
	</g>
	<g>
		<path class="st100" d="M272.5,239.7c-0.8-1.4,0.5-3.2,0.5-3.2l1.7-5.1l2.4,0.1l-0.7,8.9C276.4,240.3,273.3,241.1,272.5,239.7z"/>
		<path class="st118" d="M273.2,236.4c0,0-0.2,0.1-0.9,0.7c-0.7,0.6-0.9,1-0.8,1.5c0.1,1.6,0.7,2.6,1.3,6.4c0.6,3.8,1.5,4.7,3.5,5.1
			c2,0.4,2.9-1.1,2.4-2.9c-0.7-2.6-1.5-3.8-1.8-5.2c-0.3-1.4,0-1.6,0.2-2.6c0.2-0.9-2.8-0.6-3.2,0.3
			C273.6,240.4,272.3,237.3,273.2,236.4z"/>
		<path class="st119" d="M271.9,237.7c0.1,1.6,0.7,2.6,1.3,6.4c0.6,3.8,1.5,4.7,3.5,5.1c0.9,0.2,1.6,0,2-0.5c-0.3,1-1.1,1.6-2.4,1.3
			c-2-0.4-2.9-1.3-3.5-5.1c-0.6-3.8-1.2-4.8-1.3-6.4c0-0.3,0.1-0.7,0.4-1.1C271.9,237.5,271.9,237.6,271.9,237.7z"/>
		<path class="st100" d="M273.1,236.4C273.1,236.4,273.2,236.4,273.1,236.4C273.1,236.4,273.1,236.4,273.1,236.4
			C273.1,236.4,273.1,236.4,273.1,236.4z"/>
		<g>
			<path class="st119" d="M274.7,244.5c0,0.1,0.3,0.2,0.6,0.1c0.6-0.2,1.3-0.2,2-0.3c0.3,0,0.6-0.1,0.6-0.2c0-0.1-0.3-0.3-0.6-0.2
				c-0.7,0-1.3,0.1-1.9,0.3C274.9,244.2,274.7,244.3,274.7,244.5z"/>
			<path class="st119" d="M274.5,243.3c0,0.1,0.3,0.2,0.6,0.1c0.6-0.1,1.2-0.2,1.9-0.2c0.3,0,0.6-0.1,0.5-0.2c0-0.1-0.3-0.3-0.6-0.3
				c-0.6,0-1.2,0.1-1.8,0.2C274.7,243,274.4,243.2,274.5,243.3z"/>
			<path class="st119" d="M274.1,242.1c0,0.1,0.3,0.2,0.6,0.1c0.6-0.1,1.3-0.2,1.9-0.2c0.3,0,0.6-0.1,0.5-0.2c0-0.1-0.3-0.3-0.7-0.3
				c-0.7,0-1.3,0.1-1.9,0.2C274.3,241.8,274.1,242,274.1,242.1z"/>
		</g>
	</g>
	<path class="st100" d="M336,141c0.4-1.4-0.5-2.6-0.5-2.6s-2.2-3.1-2-4c0.2-0.8-0.2-2.4-0.2-2.4s0.1-0.8,1,0.5
		c0.6,0.8,0.8,1.7,0.8,1.7s1.9,1.4,2.1,2c0.5,1.3-0.6,4.6-0.6,4.6S335.9,141.2,336,141z"/>
	<path class="st100" d="M325.3,144.9c0,0,9.4,1.9,11.8-7.5c0.7-2.8,1,0.1,1,3c0,2.9-3,10.2-8.5,12.2c-5.5,2-7.8,2.3-9.5,0.6
		C318.4,151.3,325.3,144.9,325.3,144.9z"/>
	<path class="st98" d="M287.2,165.2l25.6,20.7l-2.2,8.7c0,0-9.1-1.3-17.2-7.2C285.3,181.5,287.2,165.2,287.2,165.2z"/>
	<path class="st98" d="M311.8,224.5c-1.8-6.3-5.6-17.9-6.1-22.1c-0.9-7.6-0.1-13.1-0.1-13.1l7.4-3.3l3.4,38.1L311.8,224.5z"/>
	<path class="st107" d="M286.5,164.9l6.8,11.8l2.4,24.5l-10.4,7.3c0,0-1.2-11.9-2.9-22.1C280.8,176.7,286.5,164.9,286.5,164.9z"/>
	<path class="st107" d="M273,235.9c2.2-7.8,5.7-22.4,7.9-27.1c3.9-8.6,5.6-8.4,5.6-8.4l9.2,0.8l-18,36.9L273,235.9z"/>
	<path class="st101" d="M303.6,147.1c0,0-0.8,3.2,11.4,7.6c7.6,2.7,10.6,0.3,10.6,0.3l3.6-1.4l-3-9.3l-4.4,0.8l-0.1,0.7
		c0,0-0.8,0.4-1.6,0.1c-0.8-0.4-4.3-2-11.6-3.5C300,140.6,303.8,146.4,303.6,147.1z"/>
	<path class="st118" d="M320.3,149.5l0.1-2.5l0.1-1c0.7,0.2,1.3-0.2,1.3-0.2l-0.4,1.8l-0.1,2.3l0.9,3L320.3,149.5z"/>
	<path class="st118" d="M298.5,175.8l-17.4-0.7l14.1-31.8c0,0,6.3-8.3,12.8-3.6c3.7,2.6,7.2,4.3,7.2,4.3S316.9,157.8,298.5,175.8z"
		/>
	<g>
		<path class="st100" d="M334.3,173c0.9,0,2.8-2,2.8-2l-1-2.7l-2-0.5l-0.7,1.4l-0.3,2.8C333.1,172,333.8,173,334.3,173z"/>
		<path class="st101" d="M307.4,152.4l8,14.5L315,168l1.2,0.2l-3.5,5.5l-5.7-1.4l-10.6-20c0,0-1.3-5.2,2.5-10.5
			C301.7,138.1,306.7,151.2,307.4,152.4z"/>
		<path class="st100" d="M315.6,168.3l19.6,2.8c0,0-0.3,1.5-1.4,1.9c-2.9,1.1-9.7,2-13,1.8c-4.6-0.3-9.1-1.5-9.1-1.5L315.6,168.3z"
			/>
		<path class="st120" d="M309.7,171.6c0,0,3.6-2.7,5.4-4.1L315,168l1.2,0.2l-1.2,1.9l-2.1,2.4l-1.3-0.5l0.5-0.9L309.7,171.6z"/>
	</g>
	<g>
		<path class="st100" d="M312,135.7c1.1,3.5,0,7.4-0.2,7.6c-1.8,1.6-4.7-1.5-4.6-2.5c0.1-1-1-5.1-1.2-5.6
			C305.7,134.6,311.4,133.7,312,135.7z"/>
		<path class="st100" d="M309.2,134.4c-1.2,0-2.3,0.2-2.8,0.4c0.4,1,0.8,2,1.2,2.7c0.9,1.8,2.7,2.1,3.9,2.5c0.3,0.1,0.6,0.1,0.9,0.1
			c0-0.6-0.1-1.9-0.3-4.4C311.9,134.8,310.6,134.5,309.2,134.4z"/>
		<path class="st100" d="M311.1,126.2l3.5,8.8c0,0,0.8,2.1,0.1,2.7c-0.7,0.6-2.9,1.3-4.1,1c-1.2-0.3-3-0.7-3.9-2.5
			c-0.9-1.8-2.5-6.4-2.5-6.4s0.1-1.8,3.2-2C310.6,127.7,311.1,126.2,311.1,126.2z"/>
		<path class="st107" d="M310,124.2c0.4,0,1.2,0,1.6,0.6c0.4,0.6,0.2,1.9-0.3,2.3c-0.5,0.4-4.3,1.9-4.8,1.9c-0.5,0-1.5,0.2-2.2-0.4
			c-0.4-0.4,0.6-1.9,1.5-2C308.2,126.3,308.4,124.4,310,124.2z"/>
		<path class="st107" d="M305.2,128.2l1.5,3.8l0.5,2.1l-0.5,0.2l-0.8,0.3c0,0-3.4-4.7-2.4-5.8C304.6,127.8,305.1,128,305.2,128.2z"
			/>
		<path class="st100" d="M306.9,134.8c0.1,0.3,0,0.7-0.4,0.8l-0.4,0.1c-0.3,0.1-0.7,0-0.8-0.4l-0.5-1.4c-0.1-0.3,0-0.7,0.4-0.8
			l0.4-0.1c0.3-0.1,0.7,0,0.8,0.4L306.9,134.8z"/>
	</g>
	<polygon class="st101" points="309.2,143.4 307.3,145.3 305.9,139.1 306.9,138.7 	"/>
	<polygon class="st101" points="311.4,142.9 311.9,142.1 311.6,143.9 310,146.2 309.4,143.7 	"/>
</g>
<g>
	<path class="st121" d="M350.9,88.1c-6.3-14.4-20.2-22.3-36-15.4c-15.8,6.9-19.3,22.5-13,36.9c4.9,11.3,14.6,11.7,25.4,18.1
		c2.1,1.3,4,9.1,4,9.1l19.7-8.7c0,0-4.5-6.7-4-9.1C349.6,106.8,355.8,99.4,350.9,88.1z"/>
	<path class="st107" d="M331,137l1.2,2.7c2,4.5,7.2,6.6,11.7,4.6l4.1-1.8c4.5-2,6.6-7.2,4.6-11.7l-1.2-2.7L331,137z"/>
	<g>
		<polygon class="st120" points="316.3,103 314.2,102.5 315.8,95.7 320.8,98.4 322.1,92.9 327,95.6 328.3,90.2 333.3,92.9 
			334.6,87.4 340.8,90.8 339.7,92.8 336.1,90.8 334.7,96.2 329.8,93.5 328.5,99 323.6,96.3 322.2,101.7 317.3,99 		"/>
	</g>
	<g>
		<polygon class="st120" points="337.3,133.8 329.9,116.9 319.6,105.5 321.2,104 331.8,115.6 339.4,132.9 		"/>
	</g>
	<g>
		<polygon class="st120" points="343.6,131.1 336,113.8 334.6,98.2 336.8,97.9 338.2,113.2 345.6,130.2 		"/>
	</g>
	<g>
		
			<rect x="319.4" y="50.4" transform="matrix(4.184196e-02 -0.9991 0.9991 4.184196e-02 262.0263 376.2002)" class="st120" width="15.5" height="2.2"/>
	</g>
	<g>
		
			<rect x="309.4" y="47.4" transform="matrix(0.9578 -0.2873 0.2873 0.9578 -2.7502 91.5375)" class="st120" width="2.2" height="15.5"/>
	</g>
	<g>
		
			<rect x="293.3" y="56.3" transform="matrix(0.7539 -0.657 0.657 0.7539 30.3564 209.1529)" class="st120" width="2.2" height="15.5"/>
	</g>
	
		<rect x="337" y="133.1" transform="matrix(0.9156 -0.4021 0.4021 0.9156 -24.939 149.6649)" class="st98" width="13.9" height="2.3"/>
	
		<rect x="338.9" y="137.7" transform="matrix(0.9156 -0.402 0.402 0.9156 -26.8008 149.9751)" class="st98" width="10" height="2.3"/>
	<path class="st98" d="M338,144.7c1.9,0.5,3.9,0.4,5.9-0.4l4.1-1.8c1.9-0.8,3.4-2.3,4.3-4.1L338,144.7z"/>
</g>
<g>
	<g>
		<g>
			<g>
				<path class="st100" d="M165,210l-1-2.5c0,0-0.4-1.2-1.4-2.4c-0.9-1.2-2.3-1.2-3.6-0.5c-1.3,0.7-1.7,1.4-1.7,1.4s0.2,1.9,1.7,2.2
					c1.6,0.3,4.3,2.9,4.7,2.5C164.2,210.2,165,210,165,210z"/>
				<polygon class="st100" points="157.4,206.8 156,204.2 154.8,201.7 155.4,201.6 156.5,203.3 159.4,205 158.7,205.6 				"/>
				<polygon class="st100" points="157.5,202.9 157.1,200.4 157.7,200.2 158.5,202.6 160.1,204.6 158.7,205.6 				"/>
				<polygon class="st100" points="158.8,200.2 158.9,202.1 158.9,203.4 159.7,204.6 161,204.3 160.1,203 159.5,200.4 				"/>
				<polygon class="st100" points="160.7,200.4 160.4,204 161.1,204.8 162,204.6 161.5,202.9 161.2,200.8 				"/>
			</g>
			<path class="st100" d="M164.3,211.9c-0.7-1.4-2.4-1.7-2.4-1.7s-4.1-0.9-4.6-1.7c-0.4-0.8-2-1.8-2-1.8s-0.5-0.7,1.2-0.4
				c1.1,0.2,2,0.8,2,0.8s2.5-0.3,3.2,0c1.4,0.7,3,4.1,3,4.1S164.3,212.1,164.3,211.9z"/>
			<path class="st122" d="M135.6,232.4c0,0-0.3,4.9,14.3,6c14.6,1.1,14.3-2.2,14.3-2.2l1.2-3.5l-5.1-9.7l-4.8,2.2l0,0.8
				c0,0-0.8,0.7-1.7,0.5c-0.9-0.3-5.3-0.1-13.4-1.9C136.6,223.7,135.6,231.4,135.6,232.4z"/>
			<g>
				<path class="st123" d="M140.3,224.5c0.2,0,0.3,0.1,0.5,0.1c-1.2,2-1.9,4.7-2,5.2c0,0-1,4.8,13.4,7.7c2.6,0.5,4.7,0.8,6.4,1
					c-2,0.2-4.9,0.2-8.8-0.1c-14.6-1.1-14.3-6-14.3-6C135.6,231.4,136.6,223.7,140.3,224.5z"/>
			</g>
			<path class="st100" d="M159.9,224c0,0,8.3-6.5,2-15.3c-1.9-2.6,0.8-0.7,3.2,1.3c2.4,2,6.5,9.8,4.2,15.8c-2.2,6.1-3.6,8.2-6.3,8.4
				C160.5,234.4,159.9,224,159.9,224z"/>
			<path class="st123" d="M154.6,230.3l-0.5-2.7l-0.1-1.1c0.8,0,1.4-0.5,1.4-0.5l0,2.1l0.4,2.5l1.6,3L154.6,230.3z"/>
		</g>
		<g>
			<path class="st122" d="M141.4,263.3l-17.1-0.4l-7.1-23.8c0,0-4.6-14.4,4.2-14.5c8.8-0.2,19-0.2,19-0.2S146.4,229.6,141.4,263.3z"
				/>
			<path class="st100" d="M125.9,206.6c0,0,9,8.3,7.9,11.2c0,0.1-1.5,1.5-1.6,2.9c-0.1,1.3,0.5,2.1,0.5,2.6c0,0.2,0.4,1.3,0.5,1.6
				c0.2,1.5-0.5,2.7-1.2,2.6c-0.8-0.2-4-1.5-4.6-1.8c-0.4-0.2-0.8-0.2-0.9-0.9c-0.2-1.3-0.9-3.5-1.6-4.2c-1.9-1.9-7.4-3.7-5.9-9
				C119.5,210.1,125.1,206.2,125.9,206.6z"/>
			<polygon class="st123" points="131.7,227.4 131.3,230.4 125.8,225.9 126.5,224.8 			"/>
			<polygon class="st123" points="133.3,225.5 133.1,224.5 134.1,226.2 134.2,229.4 132,227.5 			"/>
			<path class="st110" d="M133.7,217.7c0,0-0.4,0.1-1.2,0.2c-0.3,0-1.1,0.2-1.4,0.3c-1.6,0.7-1.4,0.8-2.5,1
				c-1.2,0.3-3.8,0.4-3.8,0.4s1.3,0.5,1.8,0.7c1,0.4,1.8,0.3,2.5,0c2.9-1,2.9-0.7,3.2-0.9C132.3,219.4,132.4,219.2,133.7,217.7z"/>
			<path class="st100" d="M129.1,210.5c0.1,0.2,2,1.1,2.4,1.3c0.3,0.2,0.8,0.4,0.8,0.5c0,0.1,0,0.7,0,0.9c0,0.2-0.1,1-0.8,0.4
				C130.7,212.9,129.1,210.5,129.1,210.5z"/>
			<path class="st98" d="M118.6,211.4c0.5-2.8,4.3-5.5,8.5-5.3c0,0,0.4,0.6,0,1.8c0,0-2.9-0.6-4.9,1.6c-2.1,2.3,0.5,2,0.5,3.1
				c0,0.9-0.1,1.6-0.1,1.6l0.8,1.6l-0.6,0.6c0,0-1.5-1.1-1.5-0.4c0.1,0.8,1.1,1.7,1.3,1.9c0.1,0.1,0.4,0.4,0.3,0.5
				c0,0.1,0.8,0.7,1.9,2.2c-0.3,0.3-1,0.2-1.9-0.5C120.8,218.4,118,214.8,118.6,211.4z"/>
			<path class="st100" d="M121.4,215.8c-0.5,0.4-0.6,1.2-0.2,1.8c0.4,0.5,1.2,0.6,1.8,0.2L121.4,215.8z"/>
			<path class="st110" d="M130.6,213.7c0,0,0.9-1.2,1-1.3c0.1-0.1,0.5-0.3,0.6-0.2c0.1,0.1,0.2,0.5-0.1,1.3
				C132,213.8,131.8,213.4,130.6,213.7z"/>
			<rect x="136.6" y="336.6" class="st124" width="4.4" height="6.7"/>
			<rect x="105.4" y="336.6" class="st124" width="3.6" height="6.7"/>
			<path class="st125" d="M136.8,345.3h3.2v-1l1.4,1h8.1c0,0-0.1-1.3-5.6-1.5c-1.4-0.1-2.4-2-2.4-2s-0.7-0.6-1.7,0.8
				c-0.3,0.4-3.2-0.3-3.2-0.3S136.3,344.2,136.8,345.3z"/>
			<path class="st98" d="M140.9,262.7l0.4,36.3l-7.9,5.6c0,0-3.4-11.7-4-22.7C128.8,270.9,140.9,262.7,140.9,262.7z"/>
			<path class="st107" d="M140.9,262.7L124,302.5l-3.1,4.2l-11.8,35.1l-4.4-1.8c0,0,1.1-18.6,3.8-27c2.8-8.6,5.6-13.9,5.6-13.9
				l10.8-37.5L140.9,262.7z"/>
			<path class="st98" d="M134.8,342c-1.4-7.1-2.3-20.9-2.4-25.4c-0.2-8.5,0.4-14.6,0.4-14.6l8.4-2.9l0,41.9L134.8,342z"/>
			<path class="st125" d="M109.4,346.5h-2.2l-0.7-0.7l-0.3-1.7l-0.7,0.7l-2.3-2.3c0.4-1.1,2-2.3,2-2.3s1.6,2.6,2,2.5
				c1.8-0.3,1.8,0.6,1.8,0.6S108.5,345.5,109.4,346.5z"/>
			<path class="st125" d="M107.2,344.1c0.4,0.5,1,0.9,1.7,1c5.4,0.2,5.6,1.5,5.6,1.5h-7.3V344.1z"/>
		</g>
	</g>
	<path class="st126" d="M82.6,277.4l16.9-33.8c0,0,14.2,0,19.1-0.5c13.6-1.4,30.3-9.8,30.3-9.8l-13.4,36.5c0,0-26.7,6.1-33.2,6.1
		C91.8,275.7,82.6,277.4,82.6,277.4z"/>
	<path class="st122" d="M118.4,238.4l-10,15.3l-1.3,0.2l0.4,1.3l-7.2-0.6l-1.6-6.3l14-20.6c0,0,4.4-4,11.5-2.9
		C129.4,225.5,119.2,237.1,118.4,238.4z"/>
	<path class="st100" d="M107.1,254.6l7.4,20.6c0,0-1.6,0.5-2.5-0.3c-2.5-2.3-7-8.4-8.5-11.8c-2.1-4.6-3.3-9.6-3.3-9.6L107.1,254.6z"
		/>
	<polygon class="st100" points="112.3,275.1 118,277.2 118.5,273.1 117.3,273.6 115.9,272.5 113.8,274.4 	"/>
</g>
</svg>
