<?xml version="1.0" encoding="utf-8"?>
<!-- Generator: Adobe Illustrator 23.0.2, SVG Export Plug-In . SVG Version: 6.00 Build 0)  -->
<svg version="1.1" id="Layer_1" xmlns="http://www.w3.org/2000/svg" xmlns:xlink="http://www.w3.org/1999/xlink" x="0px" y="0px"
	 viewBox="0 0 600 400" style="enable-background:new 0 0 600 400;" xml:space="preserve">
<style type="text/css">
	.st0{fill:#2196F3;}
	.st1{fill:#FFD600;}
	.st2{fill:#E9D6B8;}
	.st3{fill:#387BFF;}
	.st4{fill:#90A4AE;}
	.st5{fill:#0D47A1;}
	.st6{fill:#FFFF00;}
	.st7{fill:#E2C59C;}
	.st8{fill:#0054DF;}
	.st9{fill:#88BDDA;}
	.st10{fill:#ACD5F4;}
	.st11{fill:#001F46;}
	.st12{fill:#367082;}
	.st13{fill:#8CC3FF;}
	.st14{fill:#69ADFE;}
	.st15{fill:#E8B00E;}
	.st16{fill:#282723;}
	.st17{fill:#161711;}
	.st18{fill:#194866;}
	.st19{fill:#163F59;}
	.st20{fill:#D0DEE6;}
	.st21{fill:#B6C2C9;}
	.st22{fill:#D7DFE2;}
	.st23{fill:#93CEF5;}
	.st24{fill:#86BBD8;}
	.st25{fill:#73A9FF;}
	.st26{fill:#82B1FF;}
	.st27{fill:#1A237E;}
	.st28{fill:#448AFF;}
	.st29{fill:#F57F17;}
	.st30{fill:#0253A2;}
	.st31{fill:#0063CB;}
</style>
<path class="st0" d="M556.2,267.8c-22.6,36.6-67.4,50-109.6,62.9c-43.3,11.8-84,23.2-126.5,30.8c-42.4,8.2-84.4,12.3-129.1,17
	c-43.9,3.2-90.6,6.9-124.9-19.1c-16.9-13.3-28.8-33.9-32.8-61.5c-3.9-27.3,0.1-61.6,14.9-97.3c14.7-35.6,40.1-72.5,76.2-102.9
	c35.9-30.3,82.5-54,134.5-63.5c51.9-9.9,103.9-4.7,148.3,10.7c44.6,15.2,81.7,40.5,108.2,68.4c26.7,27.9,42.9,58.4,49.1,85.3
	C570.8,225.7,567.1,249.2,556.2,267.8z"/>
<path class="st1" d="M31.9,280.4c0.1,6.1,0.6,11.9,1.4,17.5c3.9,27.6,15.9,48.1,32.8,61.5c34.4,26,81,22.3,124.9,19.1
	c44.7-4.6,86.7-8.8,129.1-17c42.5-7.7,83.2-19,126.5-30.8c36.9-11.3,75.8-23,100.1-50.2H31.9z"/>
<g>
	<path class="st2" d="M305.5,190c-1.2-0.7-5.3,3.8-7.1,7.9c-3.4,7.9-4.3,12.3-5.6,21.1c-2.1,13.9-5.7,36-6.8,45.3
		c-1.1,8.5-4.5,18.5,0.6,17.1c-0.1-11.6,5.3-29.1,8.4-38.3C305.6,211.7,309.2,192.3,305.5,190z"/>
	<path class="st2" d="M281.4,197.5c0.4-2.2,0.9-4.4,1.4-6.6c1.6-3.1,3-4.8,4-4.6c4,0.9,7.6,18.9-4.9,61.5c-0.6,2.1-9,39.3-8.9,38.4
		C274.3,262.4,274.7,230.6,281.4,197.5z"/>
	<path class="st3" d="M272.5,289.1c-2.2,4.4-4.8,7.4-6,6.9c-1.2-0.6-0.3-4.6,1.8-8.9c2.2-4.4,4.8-7.4,6-6.9
		C275.5,280.7,274.6,284.7,272.5,289.1z"/>
	<path class="st2" d="M273.1,286.5c-1.1,3.4-3.4,5.9-4.6,5.3c-1.1-0.6-0.7-3.5,1-6.6c2.2-4,3-5.1,3.2-8
		C272.9,274.5,277.3,273.7,273.1,286.5z"/>
	<path class="st2" d="M295.5,279.9c0,0-1.2-0.5-4.3-1.1c-1.9-0.4-3.3-0.3-3.9-1c-1.1-1.2-0.5-3.9-1-3.8c-2.6,0.6-3.5,6.8-2,7.5
		c1.5,0.8,10.2-0.3,10.9-0.3C295.8,281.1,295.7,279.7,295.5,279.9z"/>
	<path class="st3" d="M293.6,279.3c0.5,2.1-5.9,1.2-7.5,0.7c-1.6-0.5-2.6-0.7-2.6-0.7c-0.1,0-0.1,0-0.2,0c0,0,0,0.1,0,0.2
		c0,1.1-0.5,2.7,1.3,2.7h11.4C305.4,282.1,293.6,279.2,293.6,279.3z"/>
	<path class="st4" d="M311.7,38.7l2.5-16.9c-2-4-5.3-6.8-9.4-7.4c-7.8-1.2-15.4,6.3-16.9,16.7c-1.6,10.4,3.5,19.8,11.3,21
		c5.5,0.8,10.8-2.6,14.1-8.3C312,42.4,311.4,40.6,311.7,38.7z"/>
	<path class="st4" d="M279.2,39.1c-1.1,2.5,0.9,5.7,4.5,7.2l8,3.4c3.5,1.5,7.3,0.7,8.3-1.8l9.7-22.8c1.1-2.5-0.9-5.7-4.5-7.3
		l-8.1-3.4c-3.5-1.5-7.3-0.7-8.3,1.8L279.2,39.1z"/>
	<path class="st2" d="M302.6,53.9c5.2,2.2,7.7,1.5,3.8,3.2c-1.9,2.3-26.1-0.9-27.4-3.9c-0.2-0.5,9.6-1.9,9.7-2.3
		c0.6-4.4,0.8-8-0.4-12.9c0-0.4,0.3-0.7,0.6-0.7c1.8,0.1,3.7,0.1,5.5,0.1c0.3,0,3.9,0.8,3.1,2.5C297.1,44.7,297.1,51.6,302.6,53.9z"
		/>
	<path class="st2" d="M303.5,42.6c0.1-0.1,0.3-0.3,0.4-0.4c0,0,0.1-0.1,0.1-0.1c0.2-0.2,0.3-0.4,0.5-0.6c0-0.1,0.1-0.1,0.1-0.2
		c0.1-0.1,0.2-0.3,0.3-0.4c0.1-0.1,0.1-0.2,0.2-0.3c0.1-0.1,0.2-0.3,0.3-0.4c0.1-0.1,0.1-0.2,0.2-0.3c0.1-0.2,0.2-0.4,0.3-0.5
		c0.1-0.1,0.2-0.3,0.2-0.4c0.1-0.1,0.1-0.3,0.2-0.4c0.1-0.1,0.1-0.3,0.2-0.4c0.1-0.1,0.1-0.2,0.2-0.3c0-0.1,0.1-0.2,0.1-0.3
		c0,0,0,0,0,0c0.8-1.6,2.6-9.7,2.4-13.9c0-0.5-0.4-1-1.1-1.1c-4.2-0.8-16.4-5.1-16.6,7.2l0,0c0,0-0.1,1.1-0.2,1.5c0,0,0,0.1,0,0.1
		c0,0.5-0.1,1-0.1,1.4c0,0,0,0.1,0,0.1c0,0.5,0,0.9,0,1.4c0,0,0,0,0,0c0.2,5.9,2.2,10.3,5.6,11.1c2,0.4,4.1-0.4,6-2.3c0,0,0,0,0,0
		c0,0,0,0,0,0c0.1-0.1,0.3-0.3,0.4-0.4C303.4,42.7,303.5,42.6,303.5,42.6z"/>
	<path class="st2" d="M233.3,49.5c0,0-0.9,0.4-1.3-0.3c-0.6-1.1-0.8-3.7-0.9-4.6c0-1,0.6-5.9,0.6-5.9s1,1.5,0.8,3.5
		C232.1,45.1,233.3,49.5,233.3,49.5z"/>
	<path class="st2" d="M233.2,48.9c-0.8-1.7-0.4-3.8,0.7-6.1c1-2.2,0.3-3.6,0.3-3.6s-0.8,1.4-2.1,5c-0.3,1-0.7,2.2-0.6,3.2
		C231.6,50.6,235.3,53.1,233.2,48.9z"/>
	<path class="st2" d="M267.9,69.3c-4.7,3.5-8.9,15.7-12.1,23.5c-1.8,4.4-1.2,7.7-1.2,7.7s1.6,10.2,13.8-17.7
		C271.5,75.8,269.7,68,267.9,69.3z"/>
	<path class="st2" d="M233.3,46.8l-0.8,0.5l-0.5,3.2c0,0,1.4,5.6,2.7,7.5c1.3,1.9,6.5,17,7.4,17.7c1.5,1.2,4.6-2.9,4.6-2.9
		s-6.6-10.5-8-13.9c-1.3-3.4-1.6-8.9-2.1-10.2c-0.8-2.3-1.1-3.5-1.1-3.5s-1.2,0.6-0.1,4.3c0.3,1-1,0.8-1,0.8L233.3,46.8z"/>
	<polygon class="st5" points="276.7,86.9 309,86.7 313,49.7 274.6,53.4 	"/>
	<path class="st5" d="M310.9,197c-15.9,2.5-18.8,0.4-37-2.2c-1.7,0-9.1-17.7-3.9-64.6c1.1-9.7,8.4-17.4,6.7-43.6
		c10.9-0.2,21.7-0.4,32.6-0.6C304.9,109.7,330.7,113.4,310.9,197z"/>
	<path class="st5" d="M312,96.6l-4.6-32.4l1.1-13.1c0.8-0.8,1.7-1.3,2.8-1.4l0.7-0.1c2.8-0.3,5.4,2,5.7,5.3l3.6,44.4L312,96.6z"/>
	<path class="st5" d="M260.3,100.6L275,72.3l4.5-16.5c-0.6-0.8-1.4-1.5-2.4-1.9l-0.7-0.3c-2.7-1-5.6,0.4-6.6,3l-15.6,32.3
		L260.3,100.6z"/>
	<path class="st2" d="M233,50.8c0,0-0.9-2.8-0.4-4.2c0.3-1,2.6-5.4,2.6-5.4s0.4,1.8-0.5,3.5C233.3,47.4,233,50.8,233,50.8z"/>
	<path class="st2" d="M234.4,50.2c0,0,0.8,0.2,1.1-0.1c0,0.3-0.1,0.6-0.1,0.8c-0.1,0.5,0.2,3.8,0.2,3.8s-0.7-2.4-1-3
		c-0.2-0.4-0.4-1.4-0.6-2.2c0-0.1,0-0.3,0-0.5L234.4,50.2z"/>
	<path class="st2" d="M235.3,49.4c-0.7-2.5-0.4-3.6-0.2-4c0.2,0.6,0.5,1.5,0.9,2.8c0.2,0.5,0.3,1.4,0.5,2.6c0,0.2-0.8,0.4-1.2,2.4
		c-0.1,0.4-0.7-1.8-0.8-3.1C234.9,50.2,235.6,50.1,235.3,49.4z"/>
	<path class="st4" d="M296.8,37.1c-1.2-1.4-1.8-3.2-1.6-5l2.5-16.9c-0.1-0.2-0.2-0.4-0.3-0.6l-0.3-0.1c-3.5-1.5-7.3-0.7-8.3,1.8
		l-9.7,22.8c-0.8,1.9,0.2,4.3,2.3,6c0.4,0.1,0.8,0.2,1.3,0.3C288.2,46.2,293.6,42.8,296.8,37.1z"/>
	<polygon class="st6" points="285.8,62.9 319.6,59.5 308,103.5 276.9,106.8 	"/>
	<g>
		<path class="st2" d="M304.6,82c-3.8-5.9-2.8-10.1-3.4-13c-0.7-2.9-0.9-6-0.9-6c-1.4,2.8-0.3,4.7-0.4,6.2c-0.1,1.4,0.1,0.9-1.4-1.1
			c-0.9-1.1-0.3-4.5-0.2-6.7c0.1-1.9-0.4-2.8-0.4-2.8s-1,2.8-1.3,5.7c-0.4,3.6-0.1,7.5,0.1,8.3c0.4,1.5,2.8,5.6,4.9,8.2
			C304.1,83.7,307.3,86.2,304.6,82z"/>
		<path class="st2" d="M317.6,96.8c-8.3-10-19.3-21.3-19.3-21.3l15.1,25.9C313.4,101.4,321.7,101.8,317.6,96.8z"/>
		<path class="st5" d="M319.2,94.1c0,0,5.4,7.2,0.5,9.9c-2.7,1.5-4.9,0.6-6.5-1.6c-2.9-4.1-6-8.9-6-8.9l5.2-6.8L319.2,94.1z"/>
		<path class="st7" d="M296.6,70.2c0,0-1.6-5.3-1.5-6.4c0.1-0.8,1-4.5,1-4.5s0.7,1.9,0.4,3.4C296.2,64.2,296.6,70.2,296.6,70.2z"/>
	</g>
	<path class="st5" d="M245.8,69.9c0,0-6.6,2.9-5.8,5.8c0.8,2.9,8.7,25.7,13.7,27.8c5,2.1,7.5-4.6,7.9-6.2
		C262,95.6,245.8,69.9,245.8,69.9z"/>
</g>
<g>
	<g>
		<g>
			<path class="st8" d="M142.7,233.7c-1.8,0-4.5-0.4-7-2.5c-3.5-3-5-8.5-4.5-16.1c0.3-5.2,2.4-10.4,4.5-15.9
				c3.6-9.3,7.7-19.8,5.6-33.8l4-0.6c2.3,15-2.2,26.6-5.8,35.8c-2.1,5.5-4,10.2-4.3,14.7c-0.4,6.2,0.7,10.6,3.1,12.8
				c2.3,2,5.2,1.5,5.3,1.5l0.8,3.9C144.4,233.6,143.7,233.7,142.7,233.7z"/>
		</g>
		<g>
			<g>
				<path class="st9" d="M173.6,265.6l3.9,6l-32.9,10.6c0,0-2.2-2.1,5.9-6.3C159.8,270.9,173.6,265.6,173.6,265.6z"/>
				<path class="st9" d="M179.4,265.6l-3.9,6l32.9,10.6c0,0,2.2-2.1-5.9-6.3C193.1,270.9,179.4,265.6,179.4,265.6z"/>
			</g>
			<rect x="173" y="247.9" class="st9" width="6.9" height="24.5"/>
			<g>
				<path class="st10" d="M173.1,266.9l3.4,5.7l-28.2,10.1c0,0-1.9-2,5-6C161.4,271.9,173.1,266.9,173.1,266.9z"/>
				<path class="st10" d="M179.9,266.9l-3.4,5.7l28.2,10.1c0,0,1.9-2-5-6C191.6,271.9,179.9,266.9,179.9,266.9z"/>
			</g>
			<path class="st11" d="M151.5,285c0,1.3-1.1,2.4-2.4,2.4c-1.3,0-2.4-1.1-2.4-2.4c0-1.3,1.1-2.4,2.4-2.4
				C150.4,282.6,151.5,283.6,151.5,285z"/>
			<path class="st11" d="M206.1,285c0,1.3-1.1,2.4-2.4,2.4c-1.3,0-2.4-1.1-2.4-2.4c0-1.3,1.1-2.4,2.4-2.4
				C205,282.6,206.1,283.6,206.1,285z"/>
			<path class="st12" d="M145.7,285c0,1.3-1.1,2.4-2.4,2.4c-1.3,0-2.4-1.1-2.4-2.4c0-1.3,1.1-2.4,2.4-2.4
				C144.6,282.6,145.7,283.6,145.7,285z"/>
			<path class="st12" d="M211.9,285c0,1.3-1.1,2.4-2.4,2.4c-1.3,0-2.4-1.1-2.4-2.4c0-1.3,1.1-2.4,2.4-2.4
				C210.8,282.6,211.9,283.6,211.9,285z"/>
		</g>
		<rect x="173.9" y="238.9" class="st8" width="5" height="8.8"/>
		<path class="st8" d="M182.7,234.2c0,2.7-2.2,4.9-4.9,4.9H175c-2.7,0-4.9-2.2-4.9-4.9l0,0c0-2.7,2.2-4.9,4.9-4.9h2.8
			C180.5,229.3,182.7,231.5,182.7,234.2L182.7,234.2z"/>
		<path class="st13" d="M213.8,229.7c0.1-0.6,0.2-4.2,0.2-4.8c0-4-2.6-7.2-5.7-7.2h-63.8c-3.2,0-5.7,3.2-5.7,7.2
			c0,0.6,0.1,4.2,0.2,4.8H213.8z"/>
		<path class="st8" d="M138.2,231.7c0,1.2,0.7,2.2,1.6,2.2H213c0.9,0,1.6-1,1.6-2.2l0,0c0-1.2-0.7-2.2-1.6-2.2h-73.2
			C138.9,229.5,138.2,230.5,138.2,231.7L138.2,231.7z"/>
		<g>
			<path class="st13" d="M141.8,192.9c1.6,0.1,11.6,0.3,13.3,0.3c10.9,0.1,20.4-1.9,20.9-4.6c2.2-11.2,2.3-22.7,0.3-33.9
				c-0.5-2.7-10-4.7-21.2-4.6c-1.8,0-12,0.2-13.6,0.3C144.9,164.4,145,178.9,141.8,192.9z"/>
			<path class="st8" d="M140.3,150.4c-1.2,0-2.1,0.6-1.9,1.3c3,13.1,3.2,26.8,0.3,39.9c-0.2,0.7,0.7,1.3,1.9,1.3l0,0
				c1.2,0,2.3-0.5,2.5-1.3c2.9-13.2,2.8-26.8-0.3-40C142.6,151,141.5,150.4,140.3,150.4L140.3,150.4z"/>
			<path class="st14" d="M139.8,192.9c0.3,0.1,2.5,0.2,2.9,0.2c2.4,0,4.8-2.1,5.3-4.7c2-11,1.9-22.3-0.2-33.4
				c-0.5-2.7-3-4.8-5.4-4.7c-0.4,0-2.6,0.1-2.9,0.2C142.9,164.4,143,178.9,139.8,192.9z"/>
		</g>
	</g>
	<g>
		<g>
			<g>
				<g>
					<path class="st7" d="M206.1,161c0,0,0.1,2.8,13.6,2.8c13.5,0,33.4-3.3,33.4-3.3l-31.2-2.9C221.9,157.5,209.9,157,206.1,161z"/>
					<path class="st7" d="M242.5,161.4c6.4,0.2,9.1,3.5,11.6,4.6c2.5,1.1,5,2.7,5,2.7c-1.3-2.8-3.4-2.9-4.4-3.9
						c-1-0.9-0.8-0.5,1.5-0.6c1.3-0.1,3.5,2.3,5.1,3.6c1.4,1.1,2.3,1.3,2.3,1.3s-1.6-2.4-3.7-4.3c-2.5-2.3-5.6-4.3-6.3-4.6
						c-1.4-0.6-5.7-0.9-8.7-0.6C241.4,160,237.8,161.3,242.5,161.4z"/>
					<path class="st7" d="M253.3,160.3c0,0,4.9,1.4,5.7,2.1c0.6,0.5,3,3.2,3,3.2s-1.8-0.4-2.9-1.4
						C258.1,163.2,253.3,160.3,253.3,160.3z"/>
				</g>
				<path class="st15" d="M212.3,155.3c0,0-12.5,0.4-11.9,7.8c0.3,4.2,3.1,5.8,6.9,5.6c7-0.3,15-1.1,15-1.1l3.9-11.3L212.3,155.3z"
					/>
			</g>
			<path class="st1" d="M209.6,156.2l-10.9-38.4c0,0-1.6-5.6-4.6-4.7c-4.3,1.4-2.4,6-2.1,8.7c0.6,5.5,0,7.9,3.5,21.3
				c2.1,8.3,3.9,17.8,5.9,23.2c1.3,3.8,4-1.5,7.8-2.8C216.3,161,209.6,156.2,209.6,156.2z"/>
		</g>
		<path class="st16" d="M188.5,105.5c-1.9,8.4-10.3,13.6-18.8,11.7c-8.5-1.9-13.9-10.2-12.1-18.6c1.9-8.4,10.3-13.6,18.8-11.7
			C185,88.8,190.4,97.1,188.5,105.5z"/>
		<path class="st16" d="M203.1,96.9c-1.4,6.4-7.8,10.5-14.2,9l-1.7-6.2c-6.4-1.4-10.5-7.8-9-14.2l1-4.4c1.4-6.4,7.8-10.5,14.2-9
			l2.9,0.7c6.4,1.4,10.5,7.8,9,14.2L203.1,96.9z"/>
		<path class="st2" d="M202.3,78.7c-0.3,1.1-0.6,2.1-1,3.2c-2.8,7.2-8.7,11.8-13.8,11.4c-0.9,3.3-2.3,6.2-3.7,8.6
			c-1.6,2.7-5.7,5.1-5.7,5.1c-2,5,18.1,21.8,19,21.4c1.8-0.9-1.4-13-4.7-16.8c-1.5-1.8-3.1-3.8-3.1-5c-0.1-4.1,1.2-5,3.2-6.9
			c3.5-2.6,7.5-1.7,7.5-1.7c0.4,0.1,0.8,0,1.1-0.2c0.4-0.7,0.7-1.5,0.9-2.3L204,86C204.6,83.3,203.9,80.7,202.3,78.7z"/>
		<path class="st3" d="M181.4,185.6c0,0,5.2,4.7,6.6,5.1c1.9,0.6,7.4-1.8,7.4-1.8s-1.5-24.2-0.9-33.8c0.6-9.6,2.8-12.4,2.6-15.3
			c-0.4-4.7,3.4-7.1,2.3-10.8c-1.1-3.6-4-16.6-4.2-14.8c-1.7,15.3-7.6,3.5-8.7,1.7C185.8,114.9,181.4,185.6,181.4,185.6z"/>
		<path class="st6" d="M192.2,110.2c0,0,6.8,5,6.7,7.3c-0.1,2.3,3.5,9.1,2.1,19.4c-1.7,11.7-2.3,19.6-2,27
			c0.3,7.5,3.8,13.9,3.9,23.1c0.1,7.2-1.6,7.8-1.6,7.8s-3.2,1.2-5.8-1.3c-2.7-2.5-2.2-27.1-1.8-33.3c0.4-6.2,2.3-20.8,2.8-25.1
			c0.6-5.3-0.3-10.5-0.6-12c-0.9-5.2-2.1-8.5-2.9-10.4c-0.1-0.3-1.9-1.8-2-2C190.6,109.7,191.6,109.5,192.2,110.2z"/>
		<path class="st16" d="M184,126.5c-2,8.7-10.8,14.2-19.7,12.2c-8.9-2-14.6-10.7-12.6-19.4c2-8.7,10.8-14.2,19.7-12.2
			C180.3,109.1,186,117.8,184,126.5z"/>
		<polygon class="st2" points="218,268.4 214.9,292.1 228.3,298.2 235.7,299.8 222.6,290 226.9,268.6 		"/>
		<path class="st17" d="M214.1,295.7l2.9,0.8l1.9-1.8l10.7,5.2l9.5,2.2c0,0,0.1-0.7-0.2-1.1c-1.2-1.5-7.8-4.8-7.8-4.8
			s-0.1,2.2-1.1,2.3c-0.9,0.1-9.1-4.1-11-5.2c-3.3-2-3.9-3.2-4.1-3.1C214.2,290.4,214.1,295.7,214.1,295.7z"/>
		<polygon class="st2" points="250.3,235.4 260.9,255.6 275.6,254.9 282.9,252.8 266.7,250.2 257.8,232.9 		"/>
		<path class="st17" d="M261.8,259.2l2.9-0.7l0.9-2.5l13.2-0.2l7.9-1.8c0,0-1-1-1.5-1.3c-1.8-0.7-8-1.1-8-1.1s0.7,1.7-0.2,2.2
			c-0.8,0.5-9.9,0.8-12.1,0.6c-3.8-0.3-4.9-1.1-5.1-0.8C259.5,254.4,261.8,259.2,261.8,259.2z"/>
		<path class="st18" d="M172.7,174.9l7.9,3.4l3.4,10.3l51-8.4c0,0,5.2-1.6,8.5,6.6c4.7,11.7,16.7,48,16.7,48l-7.6,7.9l-23.8-41
			c0,0-48.7,22.9-64.8,17.9c-6.2-1.9-10.9-12.8-10-23.8c0.7-8.6,2.4-16.5,2.4-16.5L172.7,174.9z"/>
		<path class="st19" d="M179.6,219.5l39-2.8l-3.4,60.2l11.5,0.4l8.5-70.4c0,0-2.3-10.5-9.7-8.9C218,199.4,200,213.2,179.6,219.5z"/>
		<path class="st6" d="M162.9,232.3c0,0,17.6-24.5,21.3-37.6c4.4-15.6,1.6-34.2,2-40.6c0.7-11.6,0.6-34,0.7-36.8
			c0.2-2.8-2-5.6-2-5.6s-2.2-7.1-6.1-6.6c-3.5,0.5-8.8,5.3-12.1,7.5c-3.3,2.2-2.9,43.1-3.1,45.2c-0.6,7.4-5.3,14.7-8.4,21.9
			C148,196.8,148,216,148,216S150.9,229.7,162.9,232.3z"/>
		<g>
			<path class="st1" d="M174.7,167.1c0,0,0.4,3,16.4,1.2c16-1.8,39.2-8,39.2-8l-37.3,0.9C193,161.3,178.7,162.3,174.7,167.1z"/>
			<path class="st2" d="M217.8,162.9c7.6-0.6,11.2,2.6,14.3,3.4c3.1,0.8,6.3,2.2,6.3,2.2c-1.9-2.8-4.4-2.7-5.7-3.6
				c-1.3-0.9-1-0.4,1.8-0.8c1.5-0.2,4.4,2,6.5,3.2c1.8,1,2.9,1.1,2.9,1.1s-2.2-2.3-4.8-4.2c-3.2-2.2-7.1-3.9-8.1-4.2
				c-1.7-0.4-6.8-0.2-10.4,0.6C216.4,161.5,212.3,163.3,217.8,162.9z"/>
			<path class="st2" d="M230.5,160.2c0,0,5.9,0.9,7,1.5c0.8,0.4,4,3,4,3s-2.2-0.1-3.6-1.1C236.6,162.7,230.5,160.2,230.5,160.2z"/>
		</g>
		<path class="st1" d="M186.6,167.9l-20.4-7.3c0,0,1.4,11.8,1.9,16.3c0.5,4.5-0.7,11.1,3.1,11.6c3.8,0.5,5.7-0.2,2.1,2.4
			c-3.5,2.6-2.4,4.7-0.7,6.4c1.7,1.7-3.8,20.1-3.8,20.1s0.5,0.3,2.1,1.2c5-8,11.3-17,13.2-23.9C186.7,185.8,186.9,175.9,186.6,167.9
			z"/>
		<path class="st6" d="M181.3,160.2l-1.8-37.9c0,0-2-7.9-5-9.8c-3.5-2.2-8.4,1.8-8.4,1.8s-2.5,5.9-0.8,33.8
			c1.1,18.7,2.8,28.3,11.7,27c8.3-1.3,17.6-3.1,17.6-3.1l3.3-12.7L181.3,160.2z"/>
	</g>
	<g>
		<path class="st20" d="M213.1,169.6C213.1,169.6,213.1,169.6,213.1,169.6v-1.9h77.8v1.9c0,0,0,0,0,0.1l-0.2,0.3
			c-1,1.6-2.8,1.9-4.8,1.9h-67.7c-2.1,0-3.8-0.3-4.8-1.9L213.1,169.6z"/>
		<path class="st21" d="M231.9,170C231.9,170,231.9,170,231.9,170l-0.2,0.3c-0.3,0.4-0.7,0.7-1.1,1h-11.8c-2,0-3.7-0.2-4.7-1.6
			l-0.2-0.3c0,0,0,0,0,0l0-0.9h18V170z"/>
		<g>
			<rect x="242.4" y="168.1" class="st21" width="38.9" height="1.3"/>
		</g>
		<g>
			<path class="st22" d="M232.3,167.6l10.1-38.2c0.3-1,1.3-1.8,2.3-1.8h54.6c1,0,1.6,0.8,1.3,1.8l-10.1,38.2H232.3z"/>
			<path class="st21" d="M263.2,147.6c-0.5,1.9,0.7,3.5,2.6,3.5c2,0,4-1.6,4.5-3.5c0.5-2-0.6-3.5-2.6-3.5
				C265.7,144.1,263.7,145.7,263.2,147.6z"/>
		</g>
	</g>
	<polygon class="st23" points="351.5,303.2 359.4,303.2 346.3,176 334.8,176 	"/>
	<polygon class="st24" points="335.5,181.9 340.6,220.4 346.6,178.9 346.3,176 336.2,176 	"/>
	<polygon class="st23" points="278.6,303.2 286.6,303.2 273.4,176 261.9,176 	"/>
	<polygon class="st24" points="262.7,181.9 267.7,220.4 273.7,178.9 273.4,176 263.3,176 	"/>
	<polygon class="st23" points="195,303.2 187.1,303.2 200.2,176 211.7,176 	"/>
	<polygon class="st24" points="211,181.9 195.5,221.1 199.9,178.9 200.2,176 210.3,176 	"/>
	<rect x="189" y="171.9" class="st25" width="96" height="7.4"/>
	<rect x="280.6" y="171.9" class="st13" width="109" height="7.4"/>
	<path class="st1" d="M181.4,102.7c0,0,5.2,6.9,6.1,13.2c0.9,6.4-1.7,40.9-1.7,40.9l-1.9-30.3l1.4-4.7l-2.4-0.5
		c0,0-2.1-11.8-3.8-13.7c-1.7-1.9-1.9-2.6-1.9-2.6L181.4,102.7z"/>
	<path class="st1" d="M189.2,106.7c0,0,6.8,15.1,7.1,22.7c0.2,7.6-2.4,26.7-2.4,26.7l4.7-30.7l-1.9-3.1l1.4-0.5c0,0-5-11.1-5.4-11.6
		C190,107.6,189.2,106.7,189.2,106.7z"/>
</g>
<g>
	<path class="st17" d="M351.2,294.9l-1.2,6.4h-6.6c0,0-0.4-0.9-0.9-0.9c-0.5,0-1.1,0.9-1.7,0.9c-1.4,0-2.9,0-3.5,0
		c-1.2,0-13.2,0-13.2,0s-0.3-1.4,0.1-1.8c0.2-0.2,1.3-0.7,2-0.9c3.4-1,13.1-3.9,14.8-7.2C343,287.5,351.2,294.9,351.2,294.9z"/>
	<path class="st26" d="M349.3,214.1c0,0,1.9,10.5,3.4,24c1.2,9.9,1.2,38.1-0.6,57.7c-0.1,1.2-12.6-2.5-12.6-2.5s-4.5-54.9-5.6-67.2
		C332.9,213.9,341.8,206.4,349.3,214.1z"/>
	<path class="st17" d="M370.3,283.3c-0.5-0.6-0.1-2.2-0.1-2.2s8.7-1,11.4-0.3c0.7,0.2,1.9,0.8,3.1,1.5c0.2,0.1,0.5,0.8,0.7,0.9
		c0.3,0.2,0.5-0.1,0.8,0c0.8,0.5,1.3,0.9,1.3,0.9c0.8,4-0.3,5.6-0.3,5.6s-7.1,2.2-8.8,0.7C374.5,286.7,371.4,284.6,370.3,283.3z"/>
	<path class="st27" d="M371,223.3c0,0-6.9-4-5.1,6.8c4.2,26.1,8.1,45.2,10,53.9c0.7,3.4,1.8,2.8,1.8,2.8l7.9,1.3l4-2.7l-7.4-59
		L371,223.3z"/>
	<g>
		<path class="st26" d="M339.5,225c1,1.4,36.5,19.3,38.2,19.3h29.2c1.6,0,13.5-1.7,16.1-9.5c2.7-8.2,0-22.9,0-22.9
			c0-1.7-1.3-3.1-3-3.1h-36.4c-1.6,0-4.9,1.4-4.9,3.1l-35.3-1.1C343.4,210.7,331.8,214.9,339.5,225z"/>
		<path class="st28" d="M406.7,233.7h-33.4c-0.4,0-29.2-7.9-29.5-8l3.5,11.2c0,1.7,28.8,7.3,30.5,7.3h29.2c1.6,0,13.5-1.7,16.1-9.5
			c0.8-2.5,1.2-5.6,1.2-8.8C420,232.3,408.4,233.7,406.7,233.7z"/>
		<path class="st2" d="M394.3,128.4l-1.6-7.1c0,0-5.6,0.4-6.6-2.3c-2.2-5.5-0.4-14.2,1-16.6c3.7-7,5.3-19.2,22.8-9.5
			c6.7,3.7-3.6,21.6-4.4,25.5c-0.8,3.9,1.5,8.3,1.5,8.3l-4.1,2.8L394.3,128.4z"/>
		<path class="st2" d="M365.4,177.4l30,10.7c0,0-35.4,2.5-35.5,0.5C359.2,177.2,365.4,177.4,365.4,177.4z"/>
		<path class="st29" d="M425.6,135.4c0,0,6,2.8,10.3,25.8c4.3,23,1.6,22.1,1.6,22.1l-0.8,5.2l-11.2,0.9l-6-19.9L425.6,135.4z"/>
		<path class="st29" d="M426,135.4l-14.7-6.1l-4.1-3.5l-15.6-0.3l-2.7,4.1l-12.1,4.8c0,0-3,4.3-0.4,20.2c2.9,17.6,0,63.2,0,63.2
			l49.5,0.7C425.8,218.5,421.7,144,426,135.4z"/>
		<path class="st29" d="M380.6,134.4c0,0-2.7-2.8-9.4,4.8c-11.3,12.8-16.8,28.7-18,31.8c-1.2,3.1-2.5,10.7,2.1,15.8
			c3.5,3.9,7,2.5,7,2.5l10.8-8.5l-3.5-1.8l-2.4-0.2c0,0,7.4-9,13.3-18.9C386.5,150,380.6,134.4,380.6,134.4z"/>
		<path class="st18" d="M392,104.4c0,0,2-1.1,2.3,0.3c0.3,1.4-0.8,4.4-1.7,4.7c-0.9,0.3-1.2,4-1.2,4l2.4,4.2h12.3c0,0,3.8-1.5,4.1-4
			c0.3-2.5,3.3-20.1,3.3-20.1l-8.7-4.2c0,0-4.6-2.1-7.8-2.9c-4.9-1.3-5.9,1.1-5.8,2.4c0.1,1.2-1.4,1.4-3.4,1.4c-2,0-4.4,1.4-3.4,2.2
			c0.4,0.3-1.5,1.4-0.7,2.8c1.1,1.9,4.9,2.5,5.2,5.6C389.2,102,389.9,106.6,392,104.4z"/>
	</g>
	<g>
		<path class="st13" d="M355.9,255.3c-0.1-0.6-0.2-4.1-0.2-4.7c0-3.8,2.5-6.9,5.5-6.9h61.6c3.1,0,5.5,3.1,5.5,6.9
			c0,0.6-0.1,4.1-0.2,4.7H355.9z"/>
		<path class="st30" d="M429,257.2c0,1.2-0.7,2.1-1.5,2.1h-70.8c-0.8,0-1.5-0.9-1.5-2.1l0,0c0-1.2,0.7-2.1,1.5-2.1h70.8
			C428.3,255.1,429,256.1,429,257.2L429,257.2z"/>
		<g>
			<g>
				<path class="st9" d="M400.2,290.1l-3.8,5.8l31.8,10.2c0,0,2.1-2-5.7-6.1C413.5,295.2,400.2,290.1,400.2,290.1z"/>
				<path class="st9" d="M394.5,290.1l3.8,5.8L366.5,306c0,0-2.1-2,5.7-6.1C381.3,295.2,394.5,290.1,394.5,290.1z"/>
			</g>
			<rect x="394" y="272.9" class="st9" width="6.7" height="23.7"/>
			<g>
				<path class="st10" d="M400.6,291.3l-3.2,5.5l27.3,9.7c0,0,1.8-1.9-4.9-5.8C412,296.2,400.6,291.3,400.6,291.3z"/>
				<path class="st10" d="M394.1,291.3l3.2,5.5l-27.3,9.7c0,0-1.8-1.9,4.9-5.8C382.8,296.2,394.1,291.3,394.1,291.3z"/>
			</g>
			<path class="st30" d="M421.5,308.7c0,1.3,1,2.3,2.3,2.3c1.3,0,2.3-1,2.3-2.3c0-1.3-1-2.3-2.3-2.3
				C422.6,306.4,421.5,307.4,421.5,308.7z"/>
			<path class="st30" d="M368.7,308.7c0,1.3,1,2.3,2.3,2.3c1.3,0,2.3-1,2.3-2.3c0-1.3-1-2.3-2.3-2.3
				C369.8,306.4,368.7,307.4,368.7,308.7z"/>
			<path class="st30" d="M427.1,308.7c0,1.3,1,2.3,2.3,2.3c1.3,0,2.3-1,2.3-2.3c0-1.3-1-2.3-2.3-2.3
				C428.2,306.4,427.1,307.4,427.1,308.7z"/>
			<path class="st30" d="M363.1,308.7c0,1.3,1,2.3,2.3,2.3c1.3,0,2.3-1,2.3-2.3c0-1.3-1-2.3-2.3-2.3
				C364.2,306.4,363.1,307.4,363.1,308.7z"/>
		</g>
		<rect x="395" y="264.2" class="st30" width="4.9" height="8.5"/>
		<path class="st30" d="M391.4,259.7c0,2.6,2.1,4.7,4.7,4.7h2.7c2.6,0,4.7-2.1,4.7-4.7l0,0c0-2.6-2.1-4.7-4.7-4.7h-2.7
			C393.5,254.9,391.4,257.1,391.4,259.7L391.4,259.7z"/>
		<path class="st14" d="M365.9,255.3c-0.1-0.6-0.2-4.1-0.2-4.7c0-3.8,2.5-6.9,5.5-6.9h61.6c3.1,0,5.5,3.1,5.5,6.9
			c0,0.6-0.1,4.1-0.2,4.7H365.9z"/>
		<path class="st31" d="M439,257.2c0,1.2-0.7,2.1-1.5,2.1h-70.8c-0.8,0-1.5-0.9-1.5-2.1l0,0c0-1.2,0.7-2.1,1.5-2.1h70.8
			C438.3,255.1,439,256.1,439,257.2L439,257.2z"/>
	</g>
	<g>
		<path class="st13" d="M431.4,207c0,1.7-1.4,3.1-3.1,3.1c-19.4,0-38.8,0-58.3,0c-1.7,0-3.4-1.4-3.7-3.1c-2.2-12.6-2.2-25.5,0-38.1
			c0.3-1.7,2-3.1,3.7-3.1c19.4,0,38.8,0,58.3,0c1.7,0,3.1,1.4,3.1,3.1C431.3,181.6,431.3,194.3,431.4,207z"/>
		<path class="st14" d="M434.8,207c0,1.7-1.4,3.1-3.1,3.1c-19.4,0-38.8,0-58.3,0c-1.7,0-3.4-1.4-3.7-3.1c-2.1-12.6-2.1-25.5,0-38.1
			c0.3-1.7,1.9-3.1,3.7-3.1c19.4,0,38.8,0,58.3,0c1.7,0,3.1,1.4,3.1,3.1C434.8,181.6,434.8,194.3,434.8,207z"/>
	</g>
	<path class="st31" d="M381.7,259.5c9-30-8.1-60-0.8-90.1c0.4-1.6-0.6-2.9-2.3-2.9c-0.3,0-0.7,0-1,0c-1.7,0-3.5,1.3-3.9,2.9
		c-7.4,30,9.8,60,0.8,90.1C376.9,259.5,379.3,259.5,381.7,259.5z"/>
	<path class="st31" d="M432.7,259.5c9-30-8.1-60-0.8-90.1c0.4-1.6-0.6-2.9-2.3-2.9c-0.3,0-0.7,0-1,0c-1.7,0-3.5,1.3-3.9,2.9
		c-7.4,30,9.7,60,0.8,90.1C427.9,259.5,430.3,259.5,432.7,259.5z"/>
</g>
</svg>
