<?xml version="1.0" encoding="utf-8"?>
<!-- Generator: Adobe Illustrator 23.0.2, SVG Export Plug-In . SVG Version: 6.00 Build 0)  -->
<svg version="1.1" id="Layer_1" xmlns="http://www.w3.org/2000/svg" xmlns:xlink="http://www.w3.org/1999/xlink" x="0px" y="0px"
	 viewBox="0 0 600 400" style="enable-background:new 0 0 600 400;" xml:space="preserve">
<style type="text/css">
	.st0{fill:#FFFF00;}
	.st1{fill:url(#SVGID_1_);}
	.st2{fill:url(#SVGID_2_);}
	.st3{fill:#FF6F00;}
	.st4{fill:#DECCAF;}
	.st5{fill:#E9D6B8;}
	.st6{fill:#F4511E;}
	.st7{fill:#81D4FA;}
	.st8{fill:#0253A2;}
	.st9{fill:#FF3D00;}
	.st10{fill:#E9DBC4;}
	.st11{fill:#F57F17;}
	.st12{fill:#FF6E40;}
	.st13{fill:#89D5DA;}
	.st14{fill:#E2C59C;}
	.st15{fill:#73A9FF;}
	.st16{fill:#7DC2F5;}
	.st17{fill:#387BFF;}
	.st18{fill:#8DCFFF;}
	.st19{fill:#D4EDFF;}
	.st20{fill:#E9F6FF;}
	.st21{fill:#FFFFFF;}
</style>
<g>
	<path class="st0" d="M553,236.1c-25.2,36.2-73.9,75.2-119.5,104.4c-46.9,29-90.7,48.3-136,41c-45.3-7.3-89.1-20.9-136-45.6
		C115.9,311.5,67.2,276,42,229.9c-25.2-44.9-16.7-75.7,30.2-95.3c45.6-18.9,129.5-38.1,225.3-49.6c95.8-11.4,179.7,2.1,225.3,36.3
		C569.7,155.2,578.2,198.7,553,236.1z"/>
</g>
<radialGradient id="SVGID_1_" cx="480.8595" cy="86.0655" r="263.6856" gradientUnits="userSpaceOnUse">
	<stop  offset="0" style="stop-color:#73A9FF"/>
	<stop  offset="1" style="stop-color:#8DCFFF"/>
</radialGradient>
<path class="st1" d="M330,19.4c-81.1,0-146.9,65.8-146.9,146.9c0,81.1,65.8,146.9,146.9,146.9c81.1,0,146.9-65.8,146.9-146.9
	C476.9,85.1,411.1,19.4,330,19.4z M330,259.7c-51.6,0-93.5-41.9-93.5-93.5c0-51.6,41.9-93.5,93.5-93.5c51.6,0,93.5,41.9,93.5,93.5
	C423.5,217.9,381.6,259.7,330,259.7z"/>
<radialGradient id="SVGID_2_" cx="277.6097" cy="88.2991" r="233.2159" gradientUnits="userSpaceOnUse">
	<stop  offset="0" style="stop-color:#8DCFFF"/>
	<stop  offset="1" style="stop-color:#73A9FF"/>
</radialGradient>
<path class="st2" d="M453.3,166.8c0-73.8-59.8-133.6-133.6-133.6C245.9,33.2,186,93,186,166.8c0,73.8,59.8,133.6,133.6,133.6
	C393.5,300.5,453.3,240.7,453.3,166.8z M236.5,166.3c0-51.6,41.9-93.5,93.5-93.5c51.6,0,93.5,41.9,93.5,93.5
	c0,51.6-41.9,93.5-93.5,93.5C278.4,259.7,236.5,217.9,236.5,166.3z"/>
<g>
	<path class="st3" d="M433.5,146c12.8-0.4,11.8,5.8,12.3,13.9c0.5,8.1-3.2,24.7-11.1,28.6c-7.9,3.9-11.2,13.8-14,7.1
		c-3.3-7.9-7.4-2.9-11.2-6.6c-6.8-6.6-4.7-15.3,2.8-20.8c7.5-5.5,7.3-7.3,8.2-12.7C421.3,150.1,429.6,146.1,433.5,146z"/>
	<g>
		<path class="st4" d="M432.8,178.4c-2.7-0.4-16.6,12-20.3,15.4c-3.7,3.4-7.4,8-3.6,8c3.9,0,7.9-3.3,11-5.5c3.1-2.2,7.2-5.5,9.5-6.9
			C431.7,187.9,435.4,178.8,432.8,178.4z"/>
		<path class="st4" d="M413.2,204.9c0,0-1.7-10.1-7.2-17.6c-5.5-7.5-7.7-12.8-7.7-12.8l-3,0.5c0,0,8.3,20,10.3,23.2
			C407.5,201.5,407.6,201,413.2,204.9z"/>
		<g>
			<path class="st4" d="M387.9,169.2l-0.4-3.2c0,0,1.1,0.9,1.2,2c0.1,1,0.2,2.2,0.2,2.2L387.9,169.2z"/>
			<path class="st4" d="M390.4,171.3l-0.7-2l1.1-1.7c0,0,0.6,0.2,0.2,1.9c-0.1,0.4,0.8,2.6,0.8,2.6L390.4,171.3z"/>
			<path class="st4" d="M397.6,176.7c0,0-4-1.3-7.8-4.2c-3.9-2.8-3.2-3.8-3.9-5.1c-0.7-1.4-1.7-3.2-0.4-2.1c1.4,1.1,2.6,3.8,3.3,4.3
				c0.7,0.6,2,0.9,3.2,1.4c1.2,0.5,2,1,1.1,0c-0.9-1-1.2-1.4-1.3-1.8c-0.2-0.4-0.5-1.1,0-1.4c0.5-0.3,0.8,0.7,1.1,1
				c0.3,0.3,2.3,1.6,2.7,1.9c0.4,0.4,1.2,2,1.9,3.1c0.6,1,2.3,5.3,1.5,5.9C399,179.7,398.8,177.2,397.6,176.7z"/>
		</g>
	</g>
	<g>
		<path class="st5" d="M340.3,286.3c0,0-2.5,6.3-4.3,9.2c-1.7,2.9-3.2,4.8-3.9,7.4c-0.7,2.6,9.6-0.6,10.8-2.3
			c1.2-1.7,1.4-7.4,5.5-11.7C352.5,284.6,340.3,286.3,340.3,286.3z"/>
		<path class="st6" d="M384.5,229.7c0,0-31,12.6-34.1,16.3c-3.1,3.7-8.4,32.6-10.6,40.3c-0.5,1.6,7,3.9,9.1,2.7
			c2.1-1.2,11.3-18.1,12.8-22.5c1.7-4.9,1.1-10.7,2.4-11.2c2.8-1.2,30.3-8.1,34.3-10.7c3.9-2.6,15.4-12,14.2-15.1
			C411.3,226.4,384.5,229.7,384.5,229.7z"/>
		<path class="st7" d="M345.3,293.4c0,0,2,2.5,2.5,3.7c0.5,1.1,1.7,2.2,0.8,3.3c-1,1.2-4.7,3.6-7.6,7.6c-2.9,4-7.9,8.6-11.2,10.1
			c-3.3,1.5-8.2,1.1-8.2-0.6c0-1.7,2.7-4,4-4.9c1.4-0.9,6.8-11.8,7.5-13.6c0.7-1.7,1.8-2.5,3.1-1.7c1.4,0.8,3.1,1.3,5.4-0.3
			C343.9,295.3,345.3,293.4,345.3,293.4z"/>
		<path class="st8" d="M341.6,296.9c-2.3,1.6-4,1.1-5.4,0.3c-1.4-0.8-2.4,0-3.1,1.7c-0.7,1.7-6.2,12.7-7.5,13.6
			c-1.4,0.9-4,3.2-4,4.9c0,0.1,0,0.2,0,0.2c1.6,0.7,4.9,0.6,7.4-0.6c3.4-1.6,8.5-6.2,11.5-10.2c3-4,6.8-6.5,7.8-7.7
			c0.2-0.3,0.4-0.6,0.4-0.8c-0.2-0.4-0.6-0.9-0.7-1.3c-0.5-1.1-2.5-3.7-2.5-3.7S343.9,295.3,341.6,296.9z"/>
		<path class="st9" d="M379.3,237.8c-1.1-1.1-2.7-3.3-3.6-4.5c-9.4,4-23.3,10.2-25.3,12.7c-3.1,3.7-8.4,32.6-10.6,40.3
			c-0.2,0.6,0.8,1.3,2.2,1.9c1.2-2.8,2.6-6.2,4.2-8.3c3-4,5.7-11.5,8.5-17.8c2.8-6.3,0.1-11.1,3.9-13.1
			C362.4,247,380.8,239.3,379.3,237.8z"/>
	</g>
	<path class="st7" d="M434.3,204.6c0,0-5,5.1-6.5,10c-1.6,4.9,2.1,18-6.7,27.5c-4.5,4.8-30.4,2.3-30.4,2.3
		c21.1-34,22.3-39.4,21.1-43.4c-1.2-4-0.1-5.9,4-8.9c4.1-3.1,7-5.8,7.9-9.4C424.5,179.1,456.4,172.6,434.3,204.6z"/>
	<path class="st10" d="M442.9,181.7c0,0-1.6-1.3-1.9-6.8c-0.3-5.5-0.4-8.3,0.7-10.3c1.1-1.9-10.5-2.3-10.8,1.7
		c-0.3,4-0.9,4.6,0.3,8.8c1.2,4.2-3,5.4-3.9,5.8C425.4,181.6,420.1,187.8,442.9,181.7z"/>
	<path class="st10" d="M433.7,158.9c2.1,0.5,4.2,0.6,6.1,0.2c-1.6,9.4-10.2,10.7-10.5,10.7c-0.3,0-0.6,0.1-1-0.4
		c-0.4-0.4-0.6-0.9-0.6-1.2c0-0.3,0.2-0.6,0.1-0.6c-0.1,0-0.7-0.2-0.9-0.2c-0.2,0-0.3-0.5-0.3-0.5s0.3-0.5,0.3-0.5
		c-0.8-0.2-1-0.6-1.1-0.7c-0.1-0.2,0.1-0.6,0.3-0.9c0.1-0.3-0.1-0.9-0.2-1.1c-0.2-0.2-1-0.3-1.2-0.5c-0.2-0.2-0.4-0.6-0.4-0.7
		c0.1-0.1,0.3-0.5,0.9-1.2c0.5-0.7,1-2.2,0.3-4.4c-0.7-2.2-0.2-2.8,0-3.4C425.5,152.9,426.7,157.4,433.7,158.9z"/>
	<path class="st11" d="M430.6,147.1c1.1-0.4,11.8-2.2,16.9,2.6c5.1,4.7,6.5,11.9,4,18.4c-2.5,6.6-6.7,11.8-1.1,15.2
		c18,11.1,8.6,15.6,5.3,19.4c-6.4,7.3-21.7,6.2-22.2,1.2c-0.6-6.2,11.5-17.4,4.6-21.5c-5.1-3-6.7-4.6-5.5-12
		c1.2-7.3,8.7-9.7,4.3-11.1C431.7,157.5,421.2,150.9,430.6,147.1z"/>
	<path class="st10" d="M438.3,184.4c-3.7,0.7-15.3,21.4-18.6,27c-3.3,5.6-6.2,12.9-1,11.1c5.2-1.8,9-7.5,12.1-11.5
		c3.1-4,7.1-9.7,9.5-12.5C442.6,195.8,442,183.7,438.3,184.4z"/>
	<g>
		<path class="st5" d="M379.5,277.4c0,0,3.9,6.1,4.2,8.3c0.2,2.2,0.5,3.7,2.4,3.3c1.9-0.5,4.8-5.6,4.4-7.2c-0.4-1.6-4.9-5.5-5.6-8.1
			c-0.7-2.6-5.4,4.7-5.4,4.7L379.5,277.4z"/>
		<path class="st7" d="M387.4,277.3c0,0,2.6,1.2,4.2,1.4c1.6,0.2,3.8,1.6,3.6,4.7c-0.2,3.1-0.9,9.2-0.8,13.1
			c0.1,3.9-3.6,10.3-4.6,11.6c-1.6,2.1-5.2,2.1-6,0.3c-0.8-1.8,0.2-6.9,0.2-9.6c0.1-2.6-1.1-11.2-1.2-12.3c-0.1-1,2.9-3.3,4-2.1
			c1.1,1.3,2.1-0.2,2.1-1.1C389.1,282.3,387.4,277.3,387.4,277.3z"/>
		<path class="st8" d="M393.9,283c0.2-2.4-1.2-3.9-2.6-4.4c-0.4-0.1-0.7-0.2-1.1-0.3c-0.8-0.1-1.8-0.4-2.6-0.7
			c0.3,1.1,1.5,4.8,1.5,5.6c0,0.9-1,2.4-2.1,1.1c0,0,0,0,0,0c-0.4,0.3-0.9,0.3-1.4-0.3c-1.2,0.3-2.7,1.6-2.6,2.4
			c0.1,1,1.2,9.6,1.2,12.3c-0.1,2.6-1,7.8-0.2,9.6c0.2,0.4,0.6,0.8,1,1c1.3,0,2.7-0.5,3.5-1.6c1-1.3,4.6-7.7,4.6-11.6
			C393,292.2,393.7,286.1,393.9,283z"/>
		<path class="st12" d="M401.7,228.8c-6.6,0.1-36.7-2.2-41,1.4c-4.3,3.6,2.7,14,24.8,18.9c22,4.9,26.2,3.5,33.2-3.5
			C425.7,238.6,406.6,228.7,401.7,228.8z"/>
		<path class="st12" d="M370,238.7c0,0,11.7,9.6,12.6,20.3c0.9,10.7,3.2,15.6,3.2,15.6l-6.4,3.7c0,0-19.5-29.9-21-35.9
			c-1.4-6-0.9-12.5,3.4-11.5C366.2,231.9,370,238.7,370,238.7z"/>
		<g>
			<path class="st13" d="M379.4,278.3C379.5,278.3,379.5,278.4,379.4,278.3l5.6-3.2L379.4,278.3z"/>
			<path class="st9" d="M367,240.9c4.3,4.3,12,9.9,13.8,19.9c1.5,8.5,3.6,13.2,4.2,14.4l0.8-0.5c0,0-2.3-5-3.2-15.6
				c-0.9-10.7-13-18.9-13-18.9S364.4,238.2,367,240.9z"/>
		</g>
		<path class="st9" d="M401.7,228.8c-0.3,0-0.6,0-0.9,0c2.7,1.2,6.2,2.7,7.6,3.6c2.4,1.4,1.7,3.9-3.1,5.1c-4.8,1.2-22.2,1.7-27,0.2
			c-4.8-1.5-13.5-3.2-12.8-1c0.2,0.8,3.2,1.9,3.7,2.8c2.6,1.9,2.6,5.4,7.1,7c2.7,1,5.8,1.9,9.2,2.6c22,4.9,26.2,3.5,33.2-3.5
			c2.6-2.6,4.3-5.3,5.2-8.2C425.5,232.4,406.6,228.7,401.7,228.8z"/>
	</g>
	<g>
		<path class="st14" d="M387.9,225c0,0-0.1-0.8-0.7-0.7c-1,0.1-2.8,1.1-3.4,1.5c-0.7,0.4-3.6,2.9-3.6,2.9s1.4,0,2.6-1
			C384.5,226.1,387.9,225,387.9,225z"/>
		<path class="st14" d="M387.4,225.2c-1.4,0.2-2.6,1.4-3.6,3.1c-1,1.6-2.2,1.8-2.2,1.8s0.5-1.1,2.3-3.5c0.5-0.7,1.1-1.4,1.8-1.8
			C387.8,223.4,391.1,224.7,387.4,225.2z"/>
		<path class="st10" d="M417.2,222.9c-6.9,0.5-18,0.7-18,0.7s-15.4,2.1-0.9-3.2c3.1-1.1,11.3-4.9,22.9-6.2c1.3-0.1,0.6,0.2,1.9,0.6
			C425.3,215.7,422.8,222.5,417.2,222.9z"/>
		<path class="st10" d="M386.1,226.1l0-0.7l1.8-1.7c0,0,4.2-1.5,6-1.5c1.8,0,8.2-2.5,9.1-2.6c0.9-0.1,3,3.2,3,3.2s-7.1,1-9.8,1.6
			c-2.8,0.6-6.4,2.9-7.5,3.1c-1.8,0.5-2.7,0.8-2.7,0.8s-0.1-1,2.7-1.9c0.7-0.2,0.1-1,0.1-1L386.1,226.1z"/>
		<path class="st5" d="M388.6,224.2c0,0-2.2,0.7-2.9,1.6c-0.5,0.6-2.3,4-2.3,4s1.3-0.5,2.1-1.9C386.5,225.9,388.6,224.2,388.6,224.2
			z"/>
		<path class="st14" d="M388.7,225.4c0,0,0.5,0.4,0.4,0.7c0.2-0.1,0.3-0.3,0.5-0.4c0.3-0.2,2.5-1.5,2.5-1.5s-1.8,0.6-2.4,0.7
			c-0.4,0-1.1,0.3-1.7,0.6c-0.1,0-0.2,0.1-0.3,0.2L388.7,225.4z"/>
		<path class="st14" d="M388.6,226.3c-1.9,0.6-2.5,1.3-2.6,1.7c0.5-0.2,1.2-0.4,2.2-0.6c0.4-0.1,1.1-0.4,1.9-0.9
			c0.2-0.1-0.1-0.7,1.1-1.8c0.2-0.2-1.5,0.3-2.4,0.8C389,225.7,389.2,226.1,388.6,226.3z"/>
	</g>
	<g>
		<path class="st15" d="M402.3,228.8C402.3,228.8,402.3,228.8,402.3,228.8v-1h-40.8v1c0,0,0,0,0,0l0.1,0.2c0.5,0.9,1.5,1,2.5,1h35.5
			c1.1,0,2-0.2,2.5-1L402.3,228.8z"/>
		<path class="st16" d="M392.5,229C392.5,229,392.5,229,392.5,229l0.1,0.2c0.2,0.2,0.4,0.4,0.6,0.5h6.2c1,0,1.9-0.1,2.4-0.8l0.1-0.1
			c0,0,0,0,0,0l0-0.5h-9.4V229z"/>
		<g>
			<rect x="366.6" y="228" class="st17" width="20.4" height="0.7"/>
		</g>
		<g>
			<path class="st18" d="M392.3,227.7l-5.3-20c-0.1-0.5-0.7-1-1.2-1h-28.6c-0.5,0-0.8,0.4-0.7,1l5.3,20H392.3z"/>
			<path class="st15" d="M376.1,217.2c0.3,1-0.3,1.9-1.4,1.9c-1,0-2.1-0.8-2.3-1.9c-0.3-1,0.3-1.9,1.4-1.9
				C374.8,215.4,375.8,216.2,376.1,217.2z"/>
		</g>
	</g>
</g>
<g>
	
		<ellipse transform="matrix(0.9999 -1.265328e-02 1.265328e-02 0.9999 -2.2319 3.5428)" class="st17" cx="278.9" cy="178.1" rx="71.3" ry="71.3"/>
	<path class="st7" d="M344.9,178.1c0,36.5-29.6,66-66,66c-36.5,0-66-29.6-66-66c0-36.5,29.6-66,66-66
		C315.3,112.1,344.9,141.7,344.9,178.1z"/>
	<path class="st19" d="M342.3,178.1c0,35-28.4,63.4-63.4,63.4c-35,0-63.4-28.4-63.4-63.4c0-35,28.4-63.4,63.4-63.4
		C313.9,114.8,342.3,143.1,342.3,178.1z"/>
	<path class="st20" d="M342.3,178.2C342.3,178.2,342.3,178.1,342.3,178.2c0-35-28.4-63.4-63.4-63.4c-11.6,0-22.4,3.1-31.7,8.5
		l31.7,54.9H342.3z"/>
	<g>
		<path class="st21" d="M278.9,178.2l31.5,55c19.1-10.9,31.9-31.5,31.9-55H278.9z"/>
	</g>
	<g>
		<g>
			<rect x="277.8" y="119.4" class="st15" width="2.2" height="2.2"/>
			<rect x="277.8" y="119.6" class="st15" width="2.2" height="13.4"/>
			<polygon class="st15" points="257.3,138.4 255.4,139.5 248.7,127.9 250.6,126.8 			"/>
			<polygon class="st15" points="240.3,154.6 239.2,156.5 227.6,149.8 228.7,147.9 			"/>
			
				<rect x="220.2" y="177" transform="matrix(1 -1.693409e-03 1.693409e-03 1 -0.3013 0.3844)" class="st15" width="13.4" height="2.2"/>
			<polygon class="st15" points="239.1,199.8 240.3,201.7 228.6,208.4 227.5,206.5 			"/>
			<polygon class="st15" points="255.3,216.8 257.2,217.9 250.5,229.5 248.6,228.4 			"/>
			<rect x="277.7" y="223.4" class="st15" width="2.2" height="13.4"/>
			<polygon class="st15" points="300.5,217.9 302.5,216.8 309.2,228.4 307.2,229.5 			"/>
			<polygon class="st15" points="317.4,201.7 318.5,199.8 330.2,206.5 329.1,208.4 			"/>
			<polygon class="st15" points="324.1,179.3 324.1,177.1 337.5,177.1 337.5,179.3 			"/>
			<polygon class="st15" points="318.7,156.5 317.5,154.6 329.2,147.9 330.3,149.8 			"/>
			<polygon class="st15" points="302.4,139.6 300.5,138.4 307.2,126.8 309.2,127.9 			"/>
			
				<rect x="271.8" y="119.8" transform="matrix(0.9946 -0.1043 0.1043 0.9946 -11.1132 29.1078)" class="st15" width="2.2" height="2.2"/>
			<polygon class="st15" points="268.2,122.6 266.1,123.1 265.6,120.9 267.8,120.5 			"/>
			<rect x="260" y="122.3" transform="matrix(0.9507 -0.31 0.31 0.9507 -25.3769 87.0146)" class="st15" width="2.2" height="2.2"/>
			<polygon class="st15" points="256.9,126.1 254.9,127 254,125 256,124.1 			"/>
			<polygon class="st15" points="251.6,128.7 249.7,129.8 248.6,127.8 250.5,126.7 			"/>
			<polygon class="st15" points="246.6,131.8 244.8,133.1 243.5,131.3 245.3,130 			"/>
			
				<rect x="239.3" y="134.2" transform="matrix(0.7436 -0.6687 0.6687 0.7436 -28.8424 195.4287)" class="st15" width="2.2" height="2.2"/>
			<polygon class="st15" points="237.7,139.5 236.2,141.1 234.5,139.7 236,138 			"/>
			
				<rect x="231.2" y="143.2" transform="matrix(0.5918 -0.8061 0.8061 0.5918 -21.4623 246.1514)" class="st15" width="2.2" height="2.2"/>
			<polygon class="st15" points="230.5,148.9 229.4,150.8 227.5,149.7 228.6,147.8 			"/>
			
				<rect x="225.2" y="153.6" transform="matrix(0.4077 -0.9131 0.9131 0.4077 -7.2081 298.259)" class="st15" width="2.2" height="2.2"/>
			
				<rect x="223" y="159.2" transform="matrix(0.3115 -0.9503 0.9503 0.3115 1.9849 323.353)" class="st15" width="2.2" height="2.2"/>
			<polygon class="st15" points="223.9,165.3 223.4,167.4 221.2,167 221.7,164.8 			"/>
			<polygon class="st15" points="222.8,171.1 222.6,173.3 220.4,173.1 220.6,170.9 			"/>
			<rect x="220.2" y="177" class="st15" width="2.2" height="2.2"/>
			<polygon class="st15" points="222.6,182.9 222.8,185.1 220.6,185.3 220.4,183.1 			"/>
			<polygon class="st15" points="223.4,188.8 223.9,190.9 221.7,191.4 221.2,189.2 			"/>
			
				<rect x="223" y="194.8" transform="matrix(0.9511 -0.3088 0.3088 0.9511 -49.5406 78.7807)" class="st15" width="2.2" height="2.2"/>
			<polygon class="st15" points="226.8,200.1 227.7,202.1 225.7,203 224.8,201 			"/>
			<polygon class="st15" points="229.4,205.4 230.5,207.3 228.6,208.4 227.5,206.5 			"/>
			<polygon class="st15" points="232.5,210.4 233.8,212.2 232,213.5 230.7,211.7 			"/>
			<polygon class="st15" points="236.2,215.1 237.6,216.7 236,218.2 234.5,216.6 			"/>
			<polygon class="st15" points="240.3,219.3 241.9,220.8 240.4,222.5 238.8,221 			"/>
			
				<rect x="243.9" y="223.6" transform="matrix(0.588 -0.8089 0.8089 0.588 -80.8047 290.7601)" class="st15" width="2.2" height="2.2"/>
			<polygon class="st15" points="249.7,226.5 251.6,227.6 250.5,229.5 248.5,228.4 			"/>
			<polygon class="st15" points="254.9,229.3 256.9,230.2 256,232.2 254,231.3 			"/>
			<polygon class="st15" points="260.4,231.5 262.5,232.2 261.8,234.3 259.7,233.6 			"/>
			<polygon class="st15" points="266,233.1 268.2,233.6 267.7,235.8 265.6,235.3 			"/>
			<polygon class="st15" points="271.8,234.2 274,234.4 273.8,236.6 271.6,236.4 			"/>
			<polygon class="st15" points="277.7,234.6 280,234.6 280,236.8 277.7,236.8 			"/>
			
				<rect x="283.8" y="234.3" transform="matrix(0.9948 -0.1021 0.1021 0.9948 -22.5518 30.3254)" class="st15" width="2.2" height="2.2"/>
			<polygon class="st15" points="289.5,233.6 291.7,233.1 292.1,235.3 290,235.8 			"/>
			<polygon class="st15" points="295.3,232.2 297.4,231.5 298,233.6 295.9,234.3 			"/>
			<polygon class="st15" points="300.8,230.2 302.8,229.3 303.7,231.3 301.7,232.2 			"/>
			<polygon class="st15" points="306.1,227.6 308,226.5 309.2,228.4 307.2,229.5 			"/>
			<polygon class="st15" points="311.1,224.5 312.9,223.2 314.2,225 312.5,226.3 			"/>
			<polygon class="st15" points="315.8,220.9 317.5,219.4 318.9,221 317.3,222.5 			"/>
			<polygon class="st15" points="320.1,216.8 321.6,215.1 323.2,216.6 321.7,218.2 			"/>
			<polygon class="st15" points="323.9,212.2 325.2,210.5 327,211.8 325.7,213.5 			"/>
			<polygon class="st15" points="327.2,207.3 328.3,205.4 330.2,206.5 329.1,208.4 			"/>
			<polygon class="st15" points="330,202.1 330.9,200.1 332.9,201 332,203 			"/>
			<polygon class="st15" points="332.2,196.7 332.9,194.6 335,195.2 334.4,197.3 			"/>
			<polygon class="st15" points="333.9,191 334.3,188.8 336.5,189.3 336,191.4 			"/>
			<polygon class="st15" points="334.9,185.2 335.2,183 337.3,183.2 337.1,185.4 			"/>
			<polygon class="st15" points="335.3,179.3 335.3,177.1 337.6,177.1 337.6,179.3 			"/>
			<polygon class="st15" points="335.2,173.4 334.9,171.2 337.1,170.9 337.4,173.1 			"/>
			<polygon class="st15" points="334.3,167.5 333.9,165.3 336,164.9 336.5,167 			"/>
			<polygon class="st15" points="332.9,161.8 332.3,159.7 334.4,159 335.1,161.1 			"/>
			<polygon class="st15" points="330.9,156.2 330,154.2 332.1,153.3 333,155.3 			"/>
			
				<rect x="327.6" y="148.3" transform="matrix(0.8656 -0.5007 0.5007 0.8656 -30.6119 184.6608)" class="st15" width="2.2" height="2.2"/>
			<polygon class="st15" points="325.2,145.9 323.9,144.1 325.7,142.8 327,144.5 			"/>
			<polygon class="st15" points="321.6,141.2 320.1,139.6 321.8,138.1 323.3,139.7 			"/>
			<polygon class="st15" points="317.5,136.9 315.8,135.5 317.3,133.8 319,135.3 			"/>
			<polygon class="st15" points="313,133.1 311.2,131.8 312.5,130 314.3,131.3 			"/>
			<polygon class="st15" points="308.1,129.8 306.2,128.7 307.3,126.8 309.2,127.9 			"/>
			<polygon class="st15" points="302.9,127 300.9,126.1 301.8,124.1 303.8,125 			"/>
			<polygon class="st15" points="297.4,124.8 295.3,124.1 296,122 298.1,122.7 			"/>
			<polygon class="st15" points="291.7,123.1 289.6,122.7 290,120.5 292.2,120.9 			"/>
			<polygon class="st15" points="285.9,122.1 283.7,121.9 283.9,119.7 286.1,119.9 			"/>
		</g>
		<polygon class="st15" points="273,173.6 271.9,175.5 251.8,163.9 252.9,162 		"/>
		<g>
			<polygon class="st15" points="277,177.4 272.4,174.7 272.7,174.2 277.3,176.9 			"/>
		</g>
		<polygon class="st15" points="289.8,171.4 288.5,169.6 320.9,146.5 322.2,148.3 		"/>
		<g>
			<polygon class="st15" points="280.5,176.8 280.2,176.4 289.6,169.7 289.9,170.1 			"/>
		</g>
		<g>
			<path class="st15" d="M278.8,179.7c-1.2,0-2.1-0.9-2.1-2.1c0-1.1,0.9-2.1,2.1-2.1c1.1,0,2.1,0.9,2.1,2.1
				C280.9,178.7,279.9,179.7,278.8,179.7z M278.8,176.1c-0.8,0-1.5,0.7-1.5,1.5c0,0.8,0.7,1.5,1.5,1.5c0.8,0,1.5-0.7,1.5-1.5
				C280.3,176.8,279.6,176.1,278.8,176.1z"/>
		</g>
		<g>
			<g>
				<path class="st6" d="M278.8,179c-0.8,0-1.4-0.6-1.4-1.4c0-0.8,0.6-1.4,1.4-1.4c0.8,0,1.4,0.6,1.4,1.4
					C280.2,178.4,279.6,179,278.8,179z M278.8,176.8c-0.5,0-0.8,0.4-0.8,0.8c0,0.5,0.4,0.8,0.8,0.8c0.5,0,0.8-0.4,0.8-0.8
					C279.6,177.2,279.3,176.8,278.8,176.8z"/>
			</g>
			<rect x="278.7" y="178.8" class="st6" width="0.4" height="48.1"/>
			<rect x="278.7" y="169.9" class="st6" width="0.4" height="6.6"/>
		</g>
	</g>
</g>
</svg>
