<svg id="Icon" xmlns="http://www.w3.org/2000/svg" viewBox="0 0 24 24">
  <title>adobe-icons</title>
  <g>
    <path d="M12.43,9.09H11L9.38,11.57,7.72,9.09H6.31l2.38,3.38-2.3,3.28H7.8l1.58-2.38L11,15.75h1.39l-2.29-3.28Zm0,0"/>
    <path d="M2,2V22H22V2ZM20.83,20.83H3.17V3.17H20.83Zm0,0"/>
    <path d="M17.5,14.31V8.91H16.24V11.7a1.9,1.9,0,0,0-1.66-.95,2.34,2.34,0,0,0-2.19,2.54,2.39,2.39,0,0,0,2.33,2.55,2,2,0,0,0,1.71-.94.81.81,0,0,0,.83.92,3.36,3.36,0,0,0,.53-.07V14.68c-.11,0-.29-.24-.29-.37ZM16.24,14a1.33,1.33,0,0,1-1.19.82,1.41,1.41,0,0,1-1.36-1.45A1.41,1.41,0,0,1,15,11.82a1.58,1.58,0,0,1,1.26,1Zm0,0"/>
  </g>
</svg>
