<svg id="Icon" xmlns="http://www.w3.org/2000/svg" viewBox="0 0 24 24">
  <title>adobe-icons</title>
  <g>
    <path d="M2,2V22H22V2ZM20.83,20.83H3.17V3.17H20.83Zm0,0"/>
    <path d="M10.32,9.09H7.5v6.66H8.8V13.52h1.57a2.15,2.15,0,0,0,2.07-2.21,2.21,2.21,0,0,0-2.12-2.22Zm0,3.29H8.8V10.23h1.44a1,1,0,0,1,.89,1.08c0,.65-.38,1.07-.83,1.07Zm0,0"/>
    <path d="M15.16,12.81c-.18-.05-1-.18-1-.62s.29-.56.75-.56a2.53,2.53,0,0,1,1.42.55l.51-.76A2.73,2.73,0,0,0,15,10.74,1.74,1.74,0,0,0,13,12.37c0,1.08,1.44,1.28,1.76,1.36s1.08.25,1.08.67-.33.54-.81.54a3.25,3.25,0,0,1-1.73-.64l-.46.78a3.48,3.48,0,0,0,2.22.76c.61,0,2-.19,2-1.55,0-1.16-1.56-1.4-1.9-1.48Zm0,0"/>
  </g>
</svg>
