<svg id="Icon" xmlns="http://www.w3.org/2000/svg" viewBox="0 0 24 24">
  <title>adobe-icons</title>
  <g>
    <rect x="8.42" y="9.09" width="1.29" height="6.66"/>
    <path d="M2,2V22H22V2ZM20.83,20.83H3.17V3.17H20.83Zm0,0"/>
    <path d="M15.73,14.31V8.91H14.47V11.7a1.9,1.9,0,0,0-1.66-.95,2.34,2.34,0,0,0-2.19,2.54A2.39,2.39,0,0,0,13,15.84a2,2,0,0,0,1.71-.94.81.81,0,0,0,.83.92,3.36,3.36,0,0,0,.53-.07V14.68c-.11,0-.29-.24-.29-.37ZM14.47,14a1.33,1.33,0,0,1-1.19.82,1.41,1.41,0,0,1-1.36-1.45,1.41,1.41,0,0,1,1.29-1.5,1.58,1.58,0,0,1,1.26,1Zm0,0"/>
  </g>
</svg>
