<svg id="Icon" xmlns="http://www.w3.org/2000/svg" viewBox="0 0 24 24">
  <title>adobe-icons</title>
  <g>
    <path d="M2,2V22H22V2ZM20.83,20.83H3.17V3.17H20.83Zm0,0"/>
    <path d="M9.8,9.09H8.66L6.11,15.75H7.45l.61-1.66h2.32L11,15.75h1.33ZM8.27,13.18l1-2.61.92,2.61Zm0,0"/>
    <path d="M17.37,14.31V10.84H16.12v3a1.47,1.47,0,0,1-1.27.89c-.54,0-.81-.37-.81-1.13v-2.8H12.78v3.07c0,1.27.54,1.93,1.55,1.93a2.29,2.29,0,0,0,2-1l0,.39a.72.72,0,0,0,.8.59h.23l.31-.05V14.68c-.28,0-.3-.24-.3-.37Zm0,0"/>
  </g>
</svg>
