<svg id="Icon" xmlns="http://www.w3.org/2000/svg" viewBox="0 0 24 24">
  <title>adobe-icons</title>
  <g>
    <path d="M2,2V22H22V2ZM20.83,20.83H3.17V3.17H20.83Zm0,0"/>
    <path d="M17,11.93V10.78a1.87,1.87,0,0,0-1.77,1.11V10.84H14.12v4.91h1.25v-3A1.7,1.7,0,0,1,17,11.93Zm0,0"/>
    <path d="M12,12.34a1.66,1.66,0,0,0,.95-1.55,1.62,1.62,0,0,0-1.51-1.7H7.86v6.66h3.22c1.69,0,2.15-1,2.15-1.72A1.67,1.67,0,0,0,12,12.34ZM9.16,10.2h1.78a.76.76,0,0,1,.73.83.79.79,0,0,1-.79.85H9.16Zm1.92,4.45H9.16V12.9h2a.88.88,0,0,1-.06,1.75Zm0,0"/>
  </g>
</svg>
