<svg id="Icon" xmlns="http://www.w3.org/2000/svg" viewBox="0 0 24 24">
  <title>adobe-icons</title>
  <g>
    <path d="M2,2V22H22V2ZM20.83,20.83H3.17V3.17H20.83Zm0,0"/>
    <path d="M18.81,15c-.11-.62-.65-1.43-2.56-1.78a11.46,11.46,0,0,0-2.49-.16c-.36-.35-.71-.73-1.06-1.14s-.66-.83-.95-1.25A10.82,10.82,0,0,0,12,8.2c0-1.93-.72-2.6-1.31-2.82a1,1,0,0,0-1.09.19c-.47.41-.9,1.27-.26,3.1A10.82,10.82,0,0,0,10.5,10.9c-.13.49-.28,1-.46,1.5s-.39,1-.61,1.44a11.27,11.27,0,0,0-2.29,1c-1.68,1-1.9,1.94-1.79,2.56v0a1.13,1.13,0,0,0,.67.8h0a1.61,1.61,0,0,0,.52.09,3.2,3.2,0,0,0,2.3-1.41,11.21,11.21,0,0,0,1.38-2.08,14.63,14.63,0,0,1,1.52-.35c.53-.09,1.05-.16,1.56-.2a11.49,11.49,0,0,0,2,1.49c1.69,1,2.62.68,3.11.28a1.06,1.06,0,0,0,.37-1ZM8,16.13c-.69.82-1.22,1.05-1.48,1,0-.27.32-.75,1.24-1.29.24-.14.5-.27.77-.4a7.82,7.82,0,0,1-.53.69Zm2.85-7a6.71,6.71,0,0,1-.34-.81c-.36-1-.29-1.58-.12-1.78.23.13.49.65.5,1.71,0,.28,0,.57,0,.88Zm.74,4.23-.69.13c.09-.21.18-.43.26-.65s.15-.45.22-.67c.14.19.29.37.44.55l.46.53c-.23,0-.46.06-.69.11Zm4.34,1.42c-.24-.14-.49-.3-.74-.47a7.37,7.37,0,0,1,.87.11c1.05.19,1.51.53,1.6.79-.23.13-.8.09-1.73-.43Zm0,0"/>
  </g>
</svg>
