<svg id="Icon" xmlns="http://www.w3.org/2000/svg" viewBox="0 0 24 24">
  <title>adobe-icons</title>
  <g>
    <path d="M2,2V22H22V2ZM20.83,20.83H3.17V3.17H20.83Zm0,0"/>
    <path d="M18.06,10.84,16.6,14.57,16,13l.85-2.13h-1l-.53,1.51-.51-1.51h-1L14.66,13l-.6,1.59-1.47-3.73H11.41l2.05,4.91h1l.83-2.16.85,2.16h1l2.05-4.91Zm0,0"/>
    <path d="M7.79,9.09H5.38v6.66H7.79a3.13,3.13,0,0,0,3.29-3.34A3.12,3.12,0,0,0,7.79,9.09Zm0,5.53H6.67V10.23H7.79a2,2,0,0,1,2,2.18,2,2,0,0,1-2,2.21Zm0,0"/>
  </g>
</svg>
