<svg id="Icon" xmlns="http://www.w3.org/2000/svg" viewBox="0 0 24 24">
  <title>adobe-icons</title>
  <g>
    <path d="M2,2V22H22V2ZM20.83,20.83H3.17V3.17H20.83Zm0,0"/>
    <path d="M9.9,9.09H8.75L6.21,15.75H7.54l.61-1.66h2.33l.62,1.66h1.33ZM8.37,13.18l1-2.61.91,2.61Zm0,0"/>
    <path d="M17.75,13.27a2.45,2.45,0,0,0-2.56-2.52,2.55,2.55,0,1,0,0,5.09,2.39,2.39,0,0,0,2.28-1.28l-1.08-.3a1.26,1.26,0,0,1-1.16.66,1.32,1.32,0,0,1-1.3-1.22h3.8s0-.34,0-.43Zm-3.84-.39a1.28,1.28,0,0,1,2.55,0Zm0,0"/>
  </g>
</svg>
