<svg id="Icon" xmlns="http://www.w3.org/2000/svg" viewBox="0 0 24 24">
  <title>adobe-icons</title>
  <g>
    <path d="M17.28,11.73c-.41-.36-1.72-2-2.23-2s-.75.47-1.26,1c-1.28,1.24-3.37,1.5-4.43-.19C8.87,9.72,9.14,8.9,9,8.06s.33-.72-.79-.84S4.08,8.2,4.79,6C5.31,4.35,7.6,3.48,9.2,3.4A4.59,4.59,0,0,1,12,4.05c1,.65.52,1,1.43.49.35-.19,2.45-3.55,3-2.23.36.81-2.91,2.33-2.37,3.13.16.24,2.12,0,2.54.14A3.64,3.64,0,0,1,19,7.45C19.79,8.89,20,12.8,17.28,11.73Z"/>
    <path d="M17.08,12.17l-.08,0-.07-.06c-.12-.11-.3-.3-.52-.54A8.92,8.92,0,0,0,15,10.2h0c-.12,0-.17,0-.41.34-.12.15-.25.31-.42.49a4,4,0,0,1-2.69,1.14h0a2.9,2.9,0,0,1-2.53-1.42,3.15,3.15,0,0,1-.38-1.83,5,5,0,0,0,0-.79,3.43,3.43,0,0,1,0-.4l-.32,0H8a9.11,9.11,0,0,0-1,.08l-.6.07a16,16,0,0,0-1.86,6,12.66,12.66,0,0,0,.15,3.52,7.6,7.6,0,0,0,1.07,2.94A2.91,2.91,0,0,0,8.67,22a5.6,5.6,0,0,0,2.74-1.22,16.45,16.45,0,0,0,4.64-6.12c.24-.5.42-1,.66-1.54a7.29,7.29,0,0,0,.41-.91Zm-9.57-.39A7.58,7.58,0,0,0,7,14.57c0,.35.24,2-.66,1.64-.4-.16-.33-1-.35-1.32,0-.17,0-.34,0-.52a7.94,7.94,0,0,1,.19-1.68c.1-.45.23-1.64.89-1.64C7.32,11,7.62,11.5,7.51,11.78Z"/>
  </g>
</svg>
